<svg width="535" height="285" viewBox="0 0 535 285" fill="none" xmlns="http://www.w3.org/2000/svg"><g clip-path="url(#clip0)"><path d="M490.993 179.013v23.713c0 20.592 1.247 22.159 23.39 24.337v8.736h-72.955v-8.736c23.39-2.191 24.942-4.063 24.942-24.656v-23.408h-82.308v-9.361c29.626-42.128 61.731-87.682 92.908-131.045h14.037v125.429h30.554v14.977h-30.568v.014zM466.356 71.361c-19.648 28.705-41.472 60.531-62.978 92.675h62.978V71.361zM106.945 179.013v23.713c0 20.592 1.247 22.159 23.389 24.337v8.736H57.366v-8.736c23.39-2.191 24.942-4.063 24.942-24.656v-23.408H0v-9.361C29.625 127.51 61.73 81.956 92.908 38.593h14.037v125.429h30.553v14.977h-30.553v.014zM82.308 71.361c-19.649 28.705-41.473 60.531-62.978 92.675h62.978V71.361z" fill="#00797D"/><path d="M157.466 67.09s3.215-11.801-5.75-16.211c-8.965-4.41-12.651-13.271-11.834-20.232.804-6.962-5.501-6.171-2.508-15.934 2.98-9.762-.194-14.02-.194-14.02s7.511 6.99 12.194 10.234c4.67 3.245 11.487 9.832 13.621 18.153 2.148 8.306 1.386 16.848-3.616 23.02-5.003 6.156 5.833 6.67-1.913 14.99z" fill="#fff" stroke="#020203" stroke-miterlimit="10" stroke-linecap="round" stroke-linejoin="round"/><path d="M141.738 7.724s15.409 16.21 15.132 40.742c-.028 1.97 1.247 6.032 1.261 7.655" fill="#fff"/><path d="M141.738 7.724s15.409 16.21 15.132 40.742c-.028 1.97 1.247 6.032 1.261 7.655" stroke="#020203" stroke-miterlimit="10" stroke-linecap="round" stroke-linejoin="round"/><path d="M142.336 28.622s7.843-5.048 11.473.527l-11.473-.527z" fill="#fff"/><path d="M142.336 28.622s7.843-5.048 11.473.527" stroke="#020203" stroke-miterlimit="10" stroke-linecap="round" stroke-linejoin="round"/><path d="M145.371 32.796s3.312-2.787 7.981-.263l-7.981.263z" fill="#fff"/><path d="M145.371 32.796s3.312-2.787 7.981-.263" stroke="#020203" stroke-miterlimit="10" stroke-linecap="round" stroke-linejoin="round"/><path d="M144.855 36.637s3.631-1.15 5.28.486l-5.28-.486z" fill="#fff"/><path d="M144.855 36.637s3.631-1.15 5.28.486" stroke="#020203" stroke-miterlimit="10" stroke-linecap="round" stroke-linejoin="round"/><path d="M140.367 18.346s3.825-1.678 5.972 1.29l-5.972-1.29z" fill="#fff"/><path d="M140.367 18.346s3.825-1.678 5.972 1.29" stroke="#020203" stroke-miterlimit="10" stroke-linecap="round" stroke-linejoin="round"/><path d="M156.648 31.395s.084-4.631 2.744-4.895l-2.744 4.895z" fill="#fff"/><path d="M156.648 31.395s.084-4.631 2.744-4.895" stroke="#020203" stroke-miterlimit="10" stroke-linecap="round" stroke-linejoin="round"/><path d="M157.965 35.112s1.469-5.56 3.242-5.81l-3.242 5.81z" fill="#fff"/><path d="M157.965 35.112s1.469-5.56 3.242-5.81" stroke="#020203" stroke-miterlimit="10" stroke-linecap="round" stroke-linejoin="round"/><path d="M152.074 18.416s-.401-.943.97-1.72l-.97 1.72z" fill="#fff"/><path d="M152.074 18.416s-.401-.943.97-1.72" stroke="#020203" stroke-miterlimit="10" stroke-linecap="round" stroke-linejoin="round"/><path d="M352.051 272.076s12.041-2.122 12.207-12.12c.167-9.999 6.61-17.113 13.247-19.345 6.637-2.233 3.243-7.613 13.344-9.055 10.101-1.443 12.596-6.144 12.596-6.144s-3.118 9.777-4.06 15.393c-.943 5.616-4.005 14.588-10.601 20.066-6.595 5.478-14.646 8.431-22.35 6.531-7.704-1.886-3.547 8.14-14.383 4.674z" fill="#fff" stroke="#020203" stroke-miterlimit="10" stroke-linecap="round" stroke-linejoin="round"/><path d="M399.01 232.54s-8.093 20.857-30.388 31.063c-1.787.818-4.933 3.702-6.388 4.396" fill="#fff"/><path d="M399.01 232.54s-8.093 20.857-30.388 31.063c-1.787.818-4.933 3.702-6.388 4.396" stroke="#020203" stroke-miterlimit="10" stroke-linecap="round" stroke-linejoin="round"/><path d="M380.387 241.984s7.898 4.95 4.406 10.622l-4.406-10.622z" fill="#fff"/><path d="M380.387 241.984s7.898 4.95 4.406 10.622" stroke="#020203" stroke-miterlimit="10" stroke-linecap="round" stroke-linejoin="round"/><path d="M377.906 246.504s3.922 1.817 3.644 7.114l-3.644-7.114z" fill="#fff"/><path d="M377.906 246.504s3.922 1.817 3.644 7.114" stroke="#020203" stroke-miterlimit="10" stroke-linecap="round" stroke-linejoin="round"/><path d="M374.223 247.683s2.591 2.801 1.815 4.992l-1.815-4.992z" fill="#fff"/><path d="M374.223 247.683s2.591 2.801 1.815 4.992" stroke="#020203" stroke-miterlimit="10" stroke-linecap="round" stroke-linejoin="round"/><path d="M388.824 235.827s3.132 2.745 1.386 5.949l-1.386-5.949z" fill="#fff"/><path d="M388.824 235.827s3.132 2.745 1.386 5.949" stroke="#020203" stroke-miterlimit="10" stroke-linecap="round" stroke-linejoin="round"/><path d="M383.977 256.128s4.226-1.899 5.598.402l-5.598-.402z" fill="#fff"/><path d="M383.977 256.128s4.226-1.899 5.598.402" stroke="#020203" stroke-miterlimit="10" stroke-linecap="round" stroke-linejoin="round"/><path d="M381.164 258.902s5.654-1.04 6.637.471l-6.637-.471z" fill="#fff"/><path d="M381.164 258.902s5.654-1.04 6.637.471" stroke="#020203" stroke-miterlimit="10" stroke-linecap="round" stroke-linejoin="round"/><path d="M393.758 246.449s.679-.763 1.967.139l-1.967-.139z" fill="#fff"/><path d="M393.758 246.449s.679-.763 1.967.139" stroke="#020203" stroke-miterlimit="10" stroke-linecap="round" stroke-linejoin="round"/><path d="M522.704 142.853c-3.81.417-7.247-2.329-7.662-6.143-.416-3.813 2.328-7.252 6.138-7.668 3.811-.416 7.247 2.329 7.663 6.143a6.956 6.956 0 01-6.139 7.668z" fill="#fff" stroke="#020203" stroke-width=".75" stroke-miterlimit="10" stroke-linecap="round" stroke-linejoin="round"/><path d="M521.94 135.948c-1.898.208-3.589-.832-3.755-2.33-.166-1.498 1.247-2.884 3.146-3.092 1.898-.209 3.588.832 3.755 2.329.166 1.498-1.233 2.885-3.146 3.093zm-235.638 134.45c-3.811.416-7.247-2.33-7.663-6.143a6.957 6.957 0 016.139-7.669c3.81-.416 7.247 2.33 7.662 6.143.416 3.814-2.328 7.253-6.138 7.669z" fill="#fff" stroke="#020203" stroke-width=".75" stroke-miterlimit="10" stroke-linecap="round" stroke-linejoin="round"/><path d="M285.538 263.506c-1.898.208-3.589-.832-3.755-2.33-.166-1.498 1.247-2.884 3.145-3.092 1.899-.208 3.589.832 3.755 2.329.167 1.498-1.233 2.871-3.145 3.093zM66.62 205.083c-2.467 2.926-6.845 3.3-9.783.832-2.924-2.468-3.298-6.85-.831-9.79 2.466-2.926 6.845-3.301 9.782-.832a6.936 6.936 0 01.832 9.79z" fill="#fff" stroke="#020203" stroke-width=".75" stroke-miterlimit="10" stroke-linecap="round" stroke-linejoin="round"/><path d="M61.326 200.604c-1.233 1.47-3.173 1.872-4.323.887-1.15-.97-1.08-2.953.153-4.409 1.233-1.47 3.173-1.873 4.323-.888 1.15.971 1.08 2.94-.153 4.41zm321.599-55.719a6.95 6.95 0 01-8.217-5.38 6.957 6.957 0 015.377-8.224 6.952 6.952 0 018.217 5.381 6.967 6.967 0 01-5.377 8.223z" fill="#fff" stroke="#020203" stroke-width=".75" stroke-miterlimit="10" stroke-linecap="round" stroke-linejoin="round"/><path d="M381.498 138.09c-1.871.389-3.644-.485-3.949-1.969-.305-1.484.97-2.995 2.841-3.384 1.87-.388 3.644.486 3.949 1.97.304 1.47-.956 2.981-2.841 3.383z" fill="#fff" stroke="#020203" stroke-width=".75" stroke-miterlimit="10" stroke-linecap="round" stroke-linejoin="round"/><path d="M184.585 282.781a1.422 1.422 0 01-.361 1.969 1.419 1.419 0 01-1.967-.36 1.422 1.422 0 01.36-1.969 1.405 1.405 0 011.968.36zM40.212 210.505a1.5 1.5 0 01-.388 2.094 1.497 1.497 0 01-2.092-.388 1.5 1.5 0 01.388-2.094 1.51 1.51 0 012.092.388zM365.105 72.387a1.595 1.595 0 11-1.594-1.595c.887 0 1.594.708 1.594 1.595zm16.253 27.79c0 .707-.568 1.276-1.275 1.276a1.272 1.272 0 01-1.274-1.276c0-.707.568-1.276 1.274-1.276a1.28 1.28 0 011.275 1.276zm23.364-22.354c0 .624-.513 1.137-1.137 1.137a1.142 1.142 0 01-1.136-1.137c0-.624.513-1.137 1.136-1.137.624 0 1.137.513 1.137 1.137zm-7.635 11.08a1.524 1.524 0 100-3.049 1.524 1.524 0 000 3.049zm-34.407 9.998c0 .971-.79 1.761-1.76 1.761s-1.76-.79-1.76-1.76c0-.971.79-1.762 1.76-1.762s1.76.79 1.76 1.761zm11.861-2.038a.804.804 0 11-.804-.805c.444-.013.804.361.804.805zM228.024 276.167c1.5 0 2.716-1.217 2.716-2.718a2.716 2.716 0 10-5.431 0 2.717 2.717 0 002.715 2.718zm26.174 4.603a1.704 1.704 0 11-3.409 0c0-.942.762-1.705 1.704-1.705.943-.014 1.705.763 1.705 1.705zm-3.687-7.321a.687.687 0 00-.693-.694.687.687 0 00-.693.694c0 .388.305.693.693.693a.695.695 0 00.693-.693zm3.132-8.626a.776.776 0 100-1.552.776.776 0 000 1.552zm-14.689-3.148a1.802 1.802 0 10-.001-3.603 1.802 1.802 0 00.001 3.603z" fill="#020203"/><path d="M152.031 212.225l.97 1.442m8.222-2.982l4.226 4.23m10.516 6.781l1.552 1.317m-21.951-.832l3.936 2.857M336.172 60.42l6.471 8.473m-52.573-33.92l6.18 2.621m-95.695 212.965l7.376 2.667m120.678-17.843l-11.238 6.49" stroke="#020203" stroke-miterlimit="10" stroke-linecap="round" stroke-linejoin="round"/><path fill-rule="evenodd" clip-rule="evenodd" d="M389.035 186.487a1.45 1.45 0 00-1.442-1.442 1.45 1.45 0 00-1.441 1.442c0 .79.652 1.442 1.441 1.442.804 0 1.442-.638 1.442-1.442zm-49.632-154.37a2.97 2.97 0 01-2.965 2.967 2.97 2.97 0 01-2.965-2.967 2.97 2.97 0 012.965-2.968 2.96 2.96 0 012.965 2.968zm195.598 155.812a2.97 2.97 0 01-2.965 2.968 2.971 2.971 0 01-2.966-2.968 2.97 2.97 0 012.966-2.967 2.97 2.97 0 012.965 2.967zM303.722 6.157a.99.99 0 01-.984.985.988.988 0 01-.984-.985c0-.54.443-.985.984-.985.54 0 .984.444.984.985z" fill="#020203"/><path d="M136.556 137.203a3.938 3.938 0 003.936-3.939 3.937 3.937 0 10-7.871 0 3.937 3.937 0 003.935 3.939z" fill="#020203"/><path fill-rule="evenodd" clip-rule="evenodd" d="M197.968 20.732a2.896 2.896 0 11-5.792 0 2.896 2.896 0 012.896-2.899c1.607-.014 2.896 1.29 2.896 2.899zm-39.562 22.811c0 .236-.194.43-.43.43a.432.432 0 01-.429-.43c0-.236.194-.43.429-.43.236-.014.43.18.43.43z" fill="#020203"/><path d="M127.522 74.495a2.495 2.495 0 10-.003-4.99 2.495 2.495 0 00.003 4.99zm-8.273 22.631a.777.777 0 10-.001-1.553.777.777 0 00.001 1.553z" fill="#020203"/><path fill-rule="evenodd" clip-rule="evenodd" d="M3.02 200.512c0 .832-.678 1.511-1.51 1.511-.831 0-1.51-.679-1.51-1.511C0 199.679.679 199 1.51 199c.832 0 1.51.679 1.51 1.512zM278.142 24.725c0 .61-.485 1.096-1.094 1.096-.61 0-1.095-.485-1.095-1.096 0-.61.485-1.095 1.095-1.095.609 0 1.094.5 1.094 1.095zm-16.269-1.442a2.544 2.544 0 01-2.55 2.552 2.544 2.544 0 01-2.55-2.552 2.544 2.544 0 012.55-2.551 2.544 2.544 0 012.55 2.551zm-49.217-7.516a1.734 1.734 0 11-3.467 0 1.734 1.734 0 013.467 0zm8.634-8.265c0 .749-.596 1.345-1.344 1.345a1.337 1.337 0 01-1.344-1.345c0-.749.595-1.345 1.344-1.345.748 0 1.344.596 1.344 1.345zm-76.585 75.424a.497.497 0 00-.499-.499.497.497 0 00-.499.5c0 .277.222.498.499.498a.497.497 0 00.499-.499zm-25.456 6.975a.388.388 0 11-.776 0 .388.388 0 01.776 0zm15.989 2.719a2.618 2.618 0 11-5.238 0 2.618 2.618 0 012.619-2.621c1.441.013 2.619 1.178 2.619 2.62z" fill="#020203"/><path d="M154.956 202.92a1.664 1.664 0 10-.002-3.328 1.664 1.664 0 00.002 3.328zm217.326-7.766a2.26 2.26 0 10-.002-4.52 2.26 2.26 0 00.002 4.52zm-201.75 6.032a.811.811 0 01.319-.43.84.84 0 011.164.195c6.194 8.722 14.217 16.196 23.847 22.215.388.25.499.749.263 1.151a.833.833 0 01-1.15.263c-9.824-6.129-18.013-13.756-24.318-22.673a.844.844 0 01-.125-.721zm128.753 32.658c0-.333.208-.652.541-.763 4.683-1.72 9.117-3.689 13.163-5.824a.84.84 0 011.123.346.829.829 0 01-.347 1.124c-4.115 2.177-8.619 4.16-13.371 5.921a.838.838 0 01-1.067-.499 1.226 1.226 0 01-.042-.305zm34.395-21.758c0-.194.083-.402.221-.555a66.993 66.993 0 006.665-8.445 67.863 67.863 0 004.961-8.903.836.836 0 011.109-.402.838.838 0 01.401 1.11 67.91 67.91 0 01-5.085 9.124 68.254 68.254 0 01-6.831 8.667.833.833 0 01-1.178.042.88.88 0 01-.263-.638zm-1.524 3.231a.678.678 0 01-.679-.707c0-.389.319-.694.707-.68.388 0 .693.319.679.707a.714.714 0 01-.707.68zm-15.175 11.468a.771.771 0 01-.762-.776c0-.43.36-.763.776-.763.429 0 .762.361.762.777a.755.755 0 01-.776.762zm-162.34-123.058c1.676-6.864 5.154-14.325 10.364-22.188a124.033 124.033 0 015.695-7.862l1.303 1.026a126.273 126.273 0 00-5.626 7.766c-5.099 7.696-8.508 14.976-10.143 21.66l-1.593-.402zm26.476-41.907c7.039-7.557 12.873-12.48 12.928-12.522l1.067 1.276c-.055.041-5.819 4.909-12.789 12.383l-1.206-1.137zm189.698-23.785a1.027 1.027 0 01-.79-1.22 1.026 1.026 0 011.219-.79c.554.125.915.665.79 1.22a1.02 1.02 0 01-1.219.79zm-204.884 91.291c-.803-.166-1.316-.971-1.15-1.775a1.502 1.502 0 011.774-1.151c.804.167 1.316.971 1.15 1.775a1.487 1.487 0 01-1.774 1.151zm7.36 6.254a4.565 4.565 0 01-3.506-5.422 4.563 4.563 0 118.924 1.914 4.56 4.56 0 01-5.418 3.508zm17.789-11.385a2.474 2.474 0 01-1.898-2.94 2.47 2.47 0 012.937-1.899 2.473 2.473 0 011.899 2.939 2.468 2.468 0 01-2.938 1.9zm176.213.014a1.223 1.223 0 01-.942-1.456 1.222 1.222 0 011.455-.943c.665.139 1.081.79.942 1.456a1.212 1.212 0 01-1.455.943zm-17.568 20.607a1.424 1.424 0 01-1.095-1.692 1.422 1.422 0 011.691-1.095 1.421 1.421 0 011.094 1.691 1.408 1.408 0 01-1.69 1.096zm-53.266-61.737a1.422 1.422 0 01-1.094-1.692 1.423 1.423 0 112.785.596 1.422 1.422 0 01-1.691 1.096zm46.906 81.401c-1.566-.333-2.563-1.886-2.231-3.453a2.911 2.911 0 013.451-2.233 2.912 2.912 0 012.23 3.453 2.883 2.883 0 01-3.45 2.233zm-66.512 42.433c-1.565-.332-2.563-1.886-2.23-3.453a2.909 2.909 0 013.45-2.232c1.566.333 2.563 1.886 2.231 3.453-.347 1.581-1.885 2.579-3.451 2.232zM196.541 91.552a2.912 2.912 0 01-2.231-3.453 2.91 2.91 0 013.45-2.233 2.912 2.912 0 012.231 3.453 2.889 2.889 0 01-3.45 2.233zm81.379-18a2.912 2.912 0 01-2.231-3.453 2.91 2.91 0 013.45-2.233 2.912 2.912 0 012.231 3.453c-.346 1.581-1.884 2.58-3.45 2.233zm63.311 72.151a1.075 1.075 0 01-.831-1.303 1.085 1.085 0 011.302-.832c.596.125.97.707.832 1.303a1.096 1.096 0 01-1.303.832zM294.02 70.03a1.077 1.077 0 01-.831-1.304c.125-.582.707-.97 1.303-.832.595.125.969.707.831 1.304a1.104 1.104 0 01-1.303.832zm26.465 111.659a1.069 1.069 0 01-.831-1.29c.125-.596.707-.97 1.302-.832.596.125.97.707.832 1.29a1.097 1.097 0 01-1.303.832z" fill="#020203"/><path fill-rule="evenodd" clip-rule="evenodd" d="M256.773 36.29c55.426 0 100.363 44.972 100.363 100.441s-44.937 100.441-100.363 100.441S156.41 192.2 156.41 136.731c0-55.483 44.937-100.44 100.363-100.44z" stroke="#00787C" stroke-width="1.5" stroke-miterlimit="22.93" stroke-linecap="round" stroke-linejoin="round"/><path fill-rule="evenodd" clip-rule="evenodd" d="M276.27 79.251c-1.413 3.398-3.353 5.367-8.591 4.937 3.256-6.892-.43-8.597-1.302-10.705-.541-1.318-.444-4.73.775-5.617-2.923-.97-4.725 1.914-6.235 4.327-10.462 2.01-3.7 12.62 2.356 8.057-1.511 4.729-10.642 8.875-18.263-2.524 3.589-6.17 9.769-5.616 14.535-8.722 4.462-5.367.845-13.105-4.725-12.758 2.245-3.966-4.032-9.68-10.268-6.948-3.685-7.086-16.198-5.408-15.838 3.8-7.205-1.553-12.152 9.832-4.156 11.953-3.659 1.068-5.737 4.91-4.67 8.556a6.916 6.916 0 003.519 4.216c5.543 1.179 11.446-3.397 16.989 1.082-3.049 13.368-12.776 14.976-15.88 11.01 7.385 2.053 9.298-10.539-1.178-8.667-2.245-1.72-4.018-3.023-6.402-1.068a2.367 2.367 0 011.871 2.774v.014c-.332 4.562-.707 7.086 4.725 12.286-4.725 2.358-8.729 1.872-11.265-.804a16.764 16.764 0 002.827-8.487c.332-6.642-6.541-10.72-2.993-16.53a10.385 10.385 0 00-11.28 3.26 2.37 2.37 0 00-1.51-1.776c3.727-5.7 7.995-7.849 14.161-6.642a6.84 6.84 0 000-6.42c6.748-2.178 6.069-4.73 9.27-9.805-6.886 2.829-13.219 4.34-18.651 9.915-2.688 2.746-2.826 5.34-4.725 8.39a28.56 28.56 0 01-4.129 3.522c-5.141.68-8.951 3.19-10.503 3.023.402 3.023.443 6.088.125 9.125a12.661 12.661 0 01-2.744 2.482c-2.924 2.052-5.529 2.358-8.092 5.173-5.238 5.768-6.18 16.21-8.619 23.241 5.03-3.494 7.857-4.132 9.658-11.024a5.86 5.86 0 005.834-.971 13.673 13.673 0 015.847-15.31 3.134 3.134 0 002.148 1.65c-3.215 3.426-6.443 10.11-4.891 14.367 5.639-3.869 11.944-.263 18.526-.971a16.59 16.59 0 008.521-2.856c2.827 2.357 3.298 5.99 1.386 10.872-5.695-5.131-7.995-3.162-12.374-3.398-1.413 0-2.355-1.414-2.813-2.829a5.639 5.639 0 00.513 7.35c-1.136 10.608 11.806 8.098 9.436.846 4.171 2.829 1.608 12.494-11.514 16.53-4.864-5.242-.61-10.678-2.176-16.128-3.852-5.838-11.986-4.174-13.288 1.317-4.725-4.728-12.513 0-10.462 7.087-7.76 1.483-9.021 12.924-1.843 15.989-3.561 6.42 2.924 12.688 8.619 9.194 0 5.644 7.649 9.096 12.679 4.257 2.743-4.979-.208-11.247 5.695-15.254 11.916 6.809 12.276 16.793 7.579 18.61 4.102-6.49-8.051-11.815-9.298-1.235a5.619 5.619 0 00-2.12 7.087 3.605 3.605 0 013.381-2.177c4.296.762 6.139 3.189 12.79-.569.776 5.2-.471 8.639-3.755 10.303a15.509 15.509 0 00-7.081-4.728c-6.249-2.358-11.515 3.161-16.101-1.942a10.483 10.483 0 00-.333 11.815 3.07 3.07 0 00-2.48 1.082c-4.199-4.368-5.058-10.969-2.106-16.253a5.874 5.874 0 00-5.432-2.357c0-7.086-2.744-8.404-6.776-12.994.707 7.419-.831 17.806 2.91 24.642 1.843 3.356 4.296 4.258 6.651 6.948a13.478 13.478 0 012.079 3.051c-.873 5.103 0 9-.513 10.442 1.538.208 4.365 3.092 9.201 4.936a13.345 13.345 0 011.579 3.329c1.109 3.397.638 5.976 2.591 9.263 3.991 6.684 13.718 10.636 19.732 15.004-1.884-5.81-1.676-8.722-7.746-12.425a5.845 5.845 0 00.762-5.879c-6.096-.111-11.403-4.244-13.011-10.137a3.01 3.01 0 002.19-1.581 10.377 10.377 0 0010.295 5.671c-2.079-6.545 5.238-8.334 6.471-14.851a15.739 15.739 0 00-.166-8.626c3.062-2.052 6.678-1.442 10.78 1.817-6.54 3.938-5.335 6.725-6.817 10.844a3.593 3.593 0 01-3.548 1.872 5.615 5.615 0 007.081 1.65c9.797 4.16 11.21-9.041 3.547-8.695 3.922-3.189 12.388 2.081 12.388 15.809-6.416 3.148-10.379-2.524-16.046-2.593-6.706 1.955-7.482 10.248-2.591 13.105-5.847 3.217-3.658 11.981 3.7 12.05-.832 7.891 9.727 12.397 14.757 6.421 2.217 2.787 6.277 3.231 9.062 1.012a6.478 6.478 0 002.231-6.615c5.432 1.609 10.933-4.728 7.746-10.872-3.936-4.09-10.781-3.064-12.915-9.901 9.963-9.443 19.621-6.878 20.009-1.844-5.03-5.811-13.662 4.271-3.893 8.556a5.58 5.58 0 006.11 4.091 3.641 3.641 0 01-1.067-3.855c1.954-3.897 4.725-4.965 3.187-12.425 5.197.762 8.12 2.953 8.73 6.587a15.423 15.423 0 00-6.513 5.436c-3.935 5.338-.332 11.925-6.54 14.837a10.39 10.39 0 0011.141 3.731c-.305.901-.194 1.9.332 2.69-5.39 2.773-11.972 1.664-16.17-2.718a5.89 5.89 0 00-3.783 4.535c-6.845-1.956-8.827.166-14.397 2.69 7.289 1.484 16.78 5.977 24.387 4.396 3.756-.777 5.308-2.885 8.564-4.368 1.122-.513 2.3-.874 3.519-1.082 4.725 2.357 8.661 2.552 9.866 3.55.638-1.414 4.199-3.287 7.386-7.391a14.649 14.649 0 013.63-.541c3.589 0 5.903 1.137 9.63.208 7.524-1.872 14.162-10.04 20.065-14.533-6.111 0-8.827-.943-14.162 3.8a5.793 5.793 0 00-5.376-2.358 13.65 13.65 0 01-13.385 9.444 2.922 2.922 0 00-.873-2.552 10.452 10.452 0 008.424-8.195c-6.872 0-6.471-7.447-12.346-10.539a15.164 15.164 0 00-8.217-2.191c-1.067-3.55.541-6.809 4.864-9.832 1.871 7.419 4.891 7.086 8.397 9.679a3.534 3.534 0 01.762 3.924 5.568 5.568 0 003.658-6.406c6.818-8.099-5.445-13.299-7.344-5.783-1.912-4.729 5.571-11.288 18.72-7.35 1.137 7.087-5.404 9.236-7.08 14.644 0 7.086 7.676 10.11 11.805 6.254a6.461 6.461 0 007.649 4.965 6.438 6.438 0 004.961-4.965c7.288 3.051 14.66-5.768 10.378-12.3 3.298-1.331 4.906-5.089 3.575-8.389a6.43 6.43 0 00-5.681-4.036c3.09-4.729-1.316-11.815-8.189-10.553-5.03 2.621-6.041 9.444-13.164 9.444-6.166-12.287-.914-20.787 3.991-19.72-7.081 3.148.166 14.312 7.081 6.213a5.628 5.628 0 005.695-4.729 3.646 3.646 0 01-4.019 0c-3.159-2.995-3.353-6.046-10.946-6.642 2.217-4.729 5.168-6.92 8.826-6.476a15.552 15.552 0 003.298 7.793c3.963 5.311 11.335 3.758 12.319 10.539a10.32 10.32 0 006.775-9.596c.763.569 1.76.735 2.661.444a13.706 13.706 0 01-7.247 14.713 5.94 5.94 0 003.228 4.937c-3.824 5.977-2.355 8.501-1.538 14.574 3.548-6.573 10.628-14.38 11.238-22.104.333-3.827-1.233-5.935-1.704-9.444a13.637 13.637 0 010-3.688c3.561-3.8 4.933-7.558 6.235-8.432-1.178-1.012-1.94-4.978-4.933-9.207.014-1.235.194-2.455.513-3.634.97-3.453 2.785-5.311 2.979-9.166.374-7.766-5.543-16.53-8.148-23.408-1.635 5.88-3.422 8.196-.429 14.644a5.923 5.923 0 00-3.866 4.465 13.681 13.681 0 015.196 15.448 2.962 2.962 0 00-2.688 0 10.447 10.447 0 00-5.432-10.442c-1.884 6.587-8.993 4.036-13.621 8.792a16.502 16.502 0 00-4.572 7.516c-3.686 0-6.347-2.524-7.954-7.53 7.621.375 8.189-2.621 11.806-5.2a3.645 3.645 0 013.99.43 5.552 5.552 0 00-5.057-5.367c-5.806-8.93-14.328 1.248-7.76 5.242-5.03.444-9.131-8.639-1.51-20.052 7.08.998 7.219 7.891 11.805 11.122a7.299 7.299 0 009.437-4.244 7.352 7.352 0 000-5.214c6.651.61 9.699-7.89 3.63-12.064 5.072-6.074-1.15-15.712-8.66-13.563-1.303-7.224-10.296-7.96-12.485-1.65-3.616-4.34-11.653-2.219-12.512 4.729 1.039 5.575 7.274 8.57 5.237 15.42-13.523 2.358-20.133-5.242-17.653-9.637.942 7.627 13.718 4.063 7.995-4.937a5.6 5.6 0 00-2.812-6.809 3.57 3.57 0 01-1.247 3.8c-3.797 2.15-6.749 1.414-9.437 8.528-3.893-3.522-5.071-7.086-3.589-10.345a15.2 15.2 0 008.425-.874c6.249-2.218 6.915-9.734 13.69-8.667a10.38 10.38 0 00-7.08-9.305 2.978 2.978 0 001.233-2.357c5.986.707 10.794 5.297 11.806 11.246a5.855 5.855 0 005.695-1.636c4.572 5.436 7.413 4.729 13.454 5.769-5.237-5.297-10.6-14.311-17.819-17.237-3.547-1.442-6.014-.569-9.436-1.151a14.469 14.469 0 01-3.548-1.04c-2.577-4.507-5.764-6.948-6.207-8.431-1.317.804-5.307.374-10.24 2.01a13.311 13.311 0 01-3.326-1.58c-3.021-1.942-4.268-4.23-7.857-5.534-7.316-2.662-17.32.444-24.761.874 5.141 3.3 6.803 5.7 13.856 4.729a5.876 5.876 0 003.118 5.034 13.61 13.61 0 0116.351-.403 2.996 2.996 0 00-.679 2.593 10.448 10.448 0 00-11.57 2.122c5.736 3.758 1.233 9.777 4.392 15.615a15.471 15.471 0 005.667 6.31l-.152-.112z" fill="#fff" stroke="#020203" stroke-width="1.5" stroke-miterlimit="22.93" stroke-linecap="round" stroke-linejoin="round"/><path fill-rule="evenodd" clip-rule="evenodd" d="M303.984 107.083c-.457 4.521-4.31 7.946-8.854 7.849-.278 2.759 2.189 4.507 6.374 4.729.194 9.277 2.993 16.446 8.424 21.494-7.122 3.619-11.667 10.9-11.805 18.901-4.157-1.484-5.903 0-7.081 2.884 4.42.805 6.471 4.174 6.208 10.137-4.725.638-8.758-.541-10.628-4.728-2.425 1.483-3.187 4.645-1.719 7.086.222.36.485.693.776.998a22.445 22.445 0 00-15.602 15.407c-7.358-6.781-14.937-9.333-22.725-7.655a6.687 6.687 0 00-5.168-5.173c-.707 5.534-3.187 8.626-7.441 9.305a9.075 9.075 0 012.591-11.19 7.544 7.544 0 00-7.815.374c-4.975-8.057-9.741-11.815-19.94-11.815 3.368-7.655 3.035-16.433-.873-23.838a6.684 6.684 0 003.7-6.712c-4.157 2.053-8.023 1.013-11.57-3.092 4.337-3.827 8.563-4.257 11.944-1.539a5.05 5.05 0 00-2.729-6.601c-.014 0-.014-.014-.028-.014h-.236c4.628-4.812 6.665-12.314 6.111-22.493a26.525 26.525 0 0020.868-6.42 8.693 8.693 0 006.914.846 7.098 7.098 0 01.125-10.026 2.88 2.88 0 01.305-.278l.332-.277c4.268 2.995 4.864 5.672 3.963 9.444 3.049 1.234 5.307-.513 6.638-4.73a36.015 36.015 0 0020.84-2.828c2.827 8.39 7.843 12.536 14.494 16.53a6.79 6.79 0 002.023 7.252c3.215-3.966 5.127-4.728 11.515-3.855l.069.028z" stroke="#020203" stroke-width="1.5" stroke-miterlimit="22.93" stroke-linecap="round" stroke-linejoin="round"/><path fill-rule="evenodd" clip-rule="evenodd" d="M292.581 140.462c8.716-5.298-4.087-20.011-.471-25.322-6.013 1.47-14.161-16.766-22.752-10.775-2.176-9.943-19.219-1.484-23.085-6.615-.54 6.171-20.328 7.087-17.418 17.168-10.503-.763-8.424 18.901-14.355 20.621 5.834 2.718 1.316 21.258 11.501 21.258-4.157 9.305 14.591 12.633 14.66 19.068 4.102-4.729 20.508 6.143 24.194-3.758 7.842 7.086 17.777-10.179 23.597-7.96-2.924-5.713 12.152-17.334 4.171-23.616l-.042-.069z" fill="#fff" stroke="#020203" stroke-width="1.5" stroke-miterlimit="22.93" stroke-linecap="round" stroke-linejoin="round"/><path fill-rule="evenodd" clip-rule="evenodd" d="M288.023 65.953c-3.284 1.539-4.725 5.81-5.972 9a7.044 7.044 0 005.736.915 6.315 6.315 0 002.356-1.373c2.688-2.358 2.924-7.211 6.041-6.351-2.909-2.358-5.473-3.19-7.745-2.358l-.374.139-.042.028zm-6.142 8.958a7.412 7.412 0 01-2.952-.915 7.001 7.001 0 01-2.12-1.914 6.329 6.329 0 01-.97-2.51c-.609-3.592 2.148-7.46-.831-8.723 3.852 0 6.402.916 7.593 3.065l.139.208c1.718 3.245.277 7.544-.859 10.789z" stroke="#020203" stroke-width="1.5" stroke-miterlimit="22.93" stroke-linecap="round" stroke-linejoin="round"/><path fill-rule="evenodd" clip-rule="evenodd" d="M282.993 71.5a14.02 14.02 0 00.54-3.703 7.424 7.424 0 00-.97-4.202l-.139-.374c-.734-2.358 1.317-5.131 6.042-7.988 2.342 4.868 2.591 8.154.762 9.846l-.236.208a17.031 17.031 0 00-6.041 7.364c-1.704 3.702-.568 1.067 0-1.151h.042zm30.29 16.543c1.885 2.358 5.21 3.73 4.892 7.253a4.996 4.996 0 01-1.317 2.884l-.429.402c-.596.569-.942.403-1.649 0a3.547 3.547 0 01-.568-.36 5.222 5.222 0 01-1.414-1.65c-1.773-3.162.236-5.436.499-8.57l-.014.041zm16.543 2.787c-.54 4.369-3.062 11.122-12.318 7.6 3.118-8.07 6.152-7.863 12.318-7.6zm-5.458 17.141c-.97-2.913-.263-6.407-3.395-8.057a4.852 4.852 0 00-3.118-.472h-.568c-.776.194-.845.569-.942 1.345a2.763 2.763 0 000 .68c.069.735.277 1.442.61 2.108 1.676 3.217 4.725 2.759 7.441 4.271l-.028.125zm10.491 37.705c-2.078-2.996-6.54-3.758-9.894-4.327a7.105 7.105 0 00-.595 3.023c.027.957.249 1.9.679 2.76a6.036 6.036 0 001.676 2.149c2.855 2.357 7.594 1.636 7.289 4.84 1.87-3.287 2.189-5.949.97-8.029l-.125-.416zm-9.868-4.438a6.98 6.98 0 01.402-3.065 6.61 6.61 0 011.51-2.357 6.829 6.829 0 012.356-1.415c3.422-1.234 7.746.833 8.452-2.357.762 3.786.194 6.448-1.704 8.029l-.208.167c-2.91 2.177-7.358 1.511-10.739 1.012l-.069-.014z" stroke="#020203" stroke-width="1.5" stroke-miterlimit="22.93" stroke-linecap="round" stroke-linejoin="round"/><path fill-rule="evenodd" clip-rule="evenodd" d="M332.238 141.571a7.398 7.398 0 003.936-1.72l.36-.194c2.356-1.137 5.293.402 8.896 4.563-4.365 3.147-7.552 3.938-9.561 2.357l-.236-.194a15.386 15.386 0 00-6.069-3.938c-6.942-2.663-3.422 0 2.647-.999l.027.125zm-59.791 73.857c1.884-3.092.776-7.488 0-10.789a6.833 6.833 0 00-5.238 2.358 6.297 6.297 0 00-1.178 2.357c-.873 3.522 1.58 7.599-1.469 8.626 3.728.402 6.333-.375 7.719-2.358l.235-.36-.069.166z" stroke="#020203" stroke-width="1.5" stroke-miterlimit="22.93" stroke-linecap="round" stroke-linejoin="round"/><path fill-rule="evenodd" clip-rule="evenodd" d="M272.449 204.542a7.28 7.28 0 012.854-.763 6.71 6.71 0 012.813.403 6.316 6.316 0 012.217 1.539c2.508 2.649 2.356 7.419 5.543 6.809-3.146 2.218-5.834 2.787-8.051 1.678h-.208c-3.159-1.775-4.365-6.144-5.265-9.444l.097-.222z" stroke="#020203" stroke-width="1.5" stroke-miterlimit="22.93" stroke-linecap="round" stroke-linejoin="round"/><path fill-rule="evenodd" clip-rule="evenodd" d="M273.556 208.342a15.14 15.14 0 001.441 2.981 7.888 7.888 0 003.187 2.954l.305.208c1.981 1.65 1.774 5.006-.568 10.012-4.725-2.746-6.707-5.311-6.111-7.752v-.332a13.721 13.721 0 001.178-5.45c.138-4.341-1.982-9.444.499-2.621h.069zm-86.616-34.197c3.492 1.012 7.441-1.179 10.407-2.829a6.908 6.908 0 00-1.442-2.746 6.55 6.55 0 00-2.355-1.719 6.157 6.157 0 00-2.647-.499c-3.63 0-6.942 3.494-8.715.804.595 3.73 2.009 6.018 4.267 6.878h.374l.111.111zm10.433-2.718a6.567 6.567 0 011.635 2.621c.305.915.415 1.872.332 2.829a6.1 6.1 0 01-.914 2.524c-1.885 3.092-6.54 4.202-5.127 7.086-2.952-2.357-4.199-4.895-3.7-7.322v-.263c.873-3.523 4.725-5.811 7.718-7.517l.056.042z" stroke="#020203" stroke-width="1.5" stroke-miterlimit="22.93" stroke-linecap="round" stroke-linejoin="round"/><path fill-rule="evenodd" clip-rule="evenodd" d="M191.54 175.698a11.192 11.192 0 00-2.023 3.828l-.138.36c-1.081 2.358-4.365 2.995-9.797 2.025 1.413-5.2 3.395-7.849 5.903-7.918h.332c2.162.305 4.365.138 6.444-.5 8.452-2.357 2.743-2.593-.721 2.205zm9.159-92.924c.166 3.62 3.52 6.656 6.042 8.93a6.546 6.546 0 002.12-2.357 6.388 6.388 0 00.9-2.69 5.807 5.807 0 00-.374-2.663c-1.233-3.425-5.542-5.45-3.561-8.001-3.325 1.775-5.03 3.855-5.127 6.254v.527zm5.942 9.027a6.984 6.984 0 01-1.954 2.358 6.629 6.629 0 01-2.577 1.234 5.868 5.868 0 01-2.688 0c-3.547-.804-6.083-4.729-8.356-2.58 1.344-3.619 3.257-5.546 5.709-5.88h.264c3.616-.277 7.08 2.691 9.602 4.91V91.8z" stroke="#020203" stroke-width="1.5" stroke-miterlimit="22.93" stroke-linecap="round" stroke-linejoin="round"/><path fill-rule="evenodd" clip-rule="evenodd" d="M203.994 89.596a14.395 14.395 0 00-3.284-1.983 7.557 7.557 0 00-4.268-.68h-.374c-2.577-.263-4.254-3.16-5.099-8.625 5.376-.332 8.521.68 9.436 3.051a.565.565 0 010 .305 17.246 17.246 0 004.434 8.293c2.744 2.954 1.15 1.276-.901-.333l.056-.028zm117.644 87.336c-1.718 2.51-2.009 6.074-5.473 6.809a5.13 5.13 0 01-3.145-.43l-.513-.263c-.707-.402-.665-.804-.513-1.581.042-.222.097-.444.167-.666a5.388 5.388 0 011.177-1.844c2.495-2.593 5.224-1.373 8.3-2.025zm2.26 16.627c-4.324.763-11.515.361-10.878-9.443 8.647.61 9.298 3.564 10.878 9.443zm-17.96-.194c2.355-1.747 6.013-2.122 6.678-5.602a4.86 4.86 0 00-.471-3.12 2.243 2.243 0 00-.277-.513c-.402-.708-.804-.666-1.58-.514l-.665.195a5.934 5.934 0 00-1.815 1.206c-2.549 2.538-1.275 5.283-1.87 8.348zm-67.951 18.125c-2.882-.916-6.401-.194-8.078-3.301a5.07 5.07 0 01-.513-3.12 1.033 1.033 0 01.125-.568c.194-.805.568-.874 1.344-.971h.679a5.317 5.317 0 012.106.596c3.229 1.65 2.827 4.729 4.337 7.391v-.027zm-15.245 6.933c-1.981-3.924-3.658-10.941 5.972-13.174 1.913 8.459-.706 9.943-5.972 13.174zm-5.001-17.167c2.355 1.872 3.783 5.172 7.288 4.728a5.168 5.168 0 002.855-1.345l.402-.43c.568-.596.401-.97 0-1.65a2.944 2.944 0 00-.361-.596 5.408 5.408 0 00-1.676-1.387c-3.187-1.719-5.432.305-8.55.61l.042.07zm-36.69-59.519c.139-3.023-1.482-6.24 1.081-8.667a5.197 5.197 0 012.882-1.303h.596c.804 0 .998.333 1.275 1.068.097.208.166.429.194.665a4.82 4.82 0 010 2.177c-.762 3.55-3.728 3.939-6 6.116l-.028-.056zm-10.645-12.952c3.257-2.926 9.603-6.379 14.162 2.358-7.663 3.98-9.797 1.9-14.162-2.358zm15.371-9.305c-1.178 2.788-4.019 4.979-2.744 8.293a4.936 4.936 0 002.023 2.357l.513.278c.707.374 1.011.138 1.607-.402.166-.153.319-.319.444-.5a4.804 4.804 0 00.914-1.983c.845-3.522-1.676-5.144-2.785-8.098v.055h.028zm43.577-51.877c2.813-1.137 5.058-3.938 8.328-2.593a5.051 5.051 0 012.355 2.08l.278.499c.36.735.124 1.04-.444 1.609a2.996 2.996 0 01-.499.443 5.598 5.598 0 01-2.009.902c-3.519.776-5.127-1.775-8.051-2.926l.042-.014zm7.327-14.991c4.032 1.775 9.797 6.116 3.783 13.979-6.845-5.284-5.778-8.127-3.783-13.979zm14.968 10.04c-3.021 0-6.18-1.58-8.66.943a5.025 5.025 0 00-1.344 2.885v.568c0 .832.277.999 1.011 1.304.208.097.43.166.665.208a4.805 4.805 0 002.176 0c3.561-.68 3.99-3.661 6.207-5.908h-.055v0z" stroke="#020203" stroke-width="1.5" stroke-miterlimit="22.93" stroke-linecap="round" stroke-linejoin="round"/></g><defs><clipPath id="clip0"><path fill="#fff" d="M0 0h535v285H0z"/></clipPath></defs></svg>