<svg width="535" height="285" viewBox="0 0 535 285" fill="none" xmlns="http://www.w3.org/2000/svg">
<g clip-path="url(#clip0)">
<path d="M490.993 179.013V202.726C490.993 223.318 492.24 224.885 514.383 227.063V235.799H441.428V227.063C464.818 224.872 466.37 223 466.37 202.407V178.999H384.062V169.638C413.688 127.51 445.793 81.9556 476.97 38.5927H491.007V164.022H521.561V178.999H490.993V179.013ZM466.356 71.361C446.708 100.066 424.884 131.892 403.378 164.036H466.356V71.361Z" fill="#00797D"/>
<path d="M106.945 179.013V202.726C106.945 223.318 108.192 224.885 130.334 227.063V235.799H57.366V227.063C80.7558 224.872 82.3077 223 82.3077 202.407V178.999H0V169.638C29.6252 127.51 61.7308 81.9556 92.9079 38.5927H106.945V164.022H137.498V178.999H106.945V179.013ZM82.3077 71.361C62.6592 100.066 40.8351 131.892 19.3298 164.036H82.3077V71.361Z" fill="#00797D"/>
<path d="M157.466 67.0898C157.466 67.0898 160.681 55.2888 151.716 50.879C142.751 46.4692 139.065 37.608 139.882 30.6466C140.686 23.6853 134.381 24.4757 137.374 14.7132C140.354 4.95061 137.18 0.693359 137.18 0.693359C137.18 0.693359 144.691 7.68246 149.374 10.9274C154.044 14.1723 160.861 20.7593 162.995 29.0796C165.143 37.3861 164.381 45.9284 159.379 52.0993C154.376 58.2564 165.212 58.7695 157.466 67.0898Z" fill="white" stroke="#020203" stroke-miterlimit="10" stroke-linecap="round" stroke-linejoin="round"/>
<path d="M141.738 7.724C141.738 7.724 157.147 23.9348 156.87 48.466C156.842 50.4352 158.117 54.4983 158.131 56.1208" fill="white"/>
<path d="M141.738 7.724C141.738 7.724 157.147 23.9348 156.87 48.466C156.842 50.4352 158.117 54.4983 158.131 56.1208" stroke="#020203" stroke-miterlimit="10" stroke-linecap="round" stroke-linejoin="round"/>
<path d="M142.336 28.622C142.336 28.622 150.179 23.5744 153.809 29.149L142.336 28.622Z" fill="white"/>
<path d="M142.336 28.622C142.336 28.622 150.179 23.5744 153.809 29.149" stroke="#020203" stroke-miterlimit="10" stroke-linecap="round" stroke-linejoin="round"/>
<path d="M145.371 32.7961C145.371 32.7961 148.683 30.0088 153.352 32.5326L145.371 32.7961Z" fill="white"/>
<path d="M145.371 32.7961C145.371 32.7961 148.683 30.0088 153.352 32.5326" stroke="#020203" stroke-miterlimit="10" stroke-linecap="round" stroke-linejoin="round"/>
<path d="M144.855 36.6373C144.855 36.6373 148.486 35.4863 150.135 37.1226L144.855 36.6373Z" fill="white"/>
<path d="M144.855 36.6373C144.855 36.6373 148.486 35.4863 150.135 37.1226" stroke="#020203" stroke-miterlimit="10" stroke-linecap="round" stroke-linejoin="round"/>
<path d="M140.367 18.3464C140.367 18.3464 144.192 16.6684 146.339 19.636L140.367 18.3464Z" fill="white"/>
<path d="M140.367 18.3464C140.367 18.3464 144.192 16.6684 146.339 19.636" stroke="#020203" stroke-miterlimit="10" stroke-linecap="round" stroke-linejoin="round"/>
<path d="M156.648 31.3955C156.648 31.3955 156.732 26.7638 159.392 26.5004L156.648 31.3955Z" fill="white"/>
<path d="M156.648 31.3955C156.648 31.3955 156.732 26.7638 159.392 26.5004" stroke="#020203" stroke-miterlimit="10" stroke-linecap="round" stroke-linejoin="round"/>
<path d="M157.965 35.1119C157.965 35.1119 159.434 29.5511 161.207 29.3015L157.965 35.1119Z" fill="white"/>
<path d="M157.965 35.1119C157.965 35.1119 159.434 29.5511 161.207 29.3015" stroke="#020203" stroke-miterlimit="10" stroke-linecap="round" stroke-linejoin="round"/>
<path d="M152.074 18.4157C152.074 18.4157 151.673 17.4727 153.044 16.6962L152.074 18.4157Z" fill="white"/>
<path d="M152.074 18.4157C152.074 18.4157 151.673 17.4727 153.044 16.6962" stroke="#020203" stroke-miterlimit="10" stroke-linecap="round" stroke-linejoin="round"/>
<path d="M352.051 272.076C352.051 272.076 364.092 269.954 364.258 259.956C364.425 249.957 370.868 242.843 377.505 240.611C384.142 238.378 380.748 232.998 390.849 231.556C400.95 230.113 403.445 225.412 403.445 225.412C403.445 225.412 400.327 235.189 399.385 240.805C398.442 246.421 395.38 255.393 388.784 260.871C382.189 266.349 374.138 269.302 366.434 267.402C358.73 265.516 362.887 275.542 352.051 272.076Z" fill="white" stroke="#020203" stroke-miterlimit="10" stroke-linecap="round" stroke-linejoin="round"/>
<path d="M399.01 232.54C399.01 232.54 390.917 253.397 368.622 263.603C366.835 264.421 363.689 267.305 362.234 267.999" fill="white"/>
<path d="M399.01 232.54C399.01 232.54 390.917 253.397 368.622 263.603C366.835 264.421 363.689 267.305 362.234 267.999" stroke="#020203" stroke-miterlimit="10" stroke-linecap="round" stroke-linejoin="round"/>
<path d="M380.387 241.984C380.387 241.984 388.285 246.934 384.793 252.606L380.387 241.984Z" fill="white"/>
<path d="M380.387 241.984C380.387 241.984 388.285 246.934 384.793 252.606" stroke="#020203" stroke-miterlimit="10" stroke-linecap="round" stroke-linejoin="round"/>
<path d="M377.906 246.504C377.906 246.504 381.828 248.321 381.55 253.618L377.906 246.504Z" fill="white"/>
<path d="M377.906 246.504C377.906 246.504 381.828 248.321 381.55 253.618" stroke="#020203" stroke-miterlimit="10" stroke-linecap="round" stroke-linejoin="round"/>
<path d="M374.223 247.683C374.223 247.683 376.814 250.484 376.038 252.675L374.223 247.683Z" fill="white"/>
<path d="M374.223 247.683C374.223 247.683 376.814 250.484 376.038 252.675" stroke="#020203" stroke-miterlimit="10" stroke-linecap="round" stroke-linejoin="round"/>
<path d="M388.824 235.827C388.824 235.827 391.956 238.572 390.21 241.776L388.824 235.827Z" fill="white"/>
<path d="M388.824 235.827C388.824 235.827 391.956 238.572 390.21 241.776" stroke="#020203" stroke-miterlimit="10" stroke-linecap="round" stroke-linejoin="round"/>
<path d="M383.977 256.128C383.977 256.128 388.203 254.229 389.575 256.53L383.977 256.128Z" fill="white"/>
<path d="M383.977 256.128C383.977 256.128 388.203 254.229 389.575 256.53" stroke="#020203" stroke-miterlimit="10" stroke-linecap="round" stroke-linejoin="round"/>
<path d="M381.164 258.902C381.164 258.902 386.818 257.862 387.801 259.373L381.164 258.902Z" fill="white"/>
<path d="M381.164 258.902C381.164 258.902 386.818 257.862 387.801 259.373" stroke="#020203" stroke-miterlimit="10" stroke-linecap="round" stroke-linejoin="round"/>
<path d="M393.758 246.449C393.758 246.449 394.437 245.686 395.725 246.588L393.758 246.449Z" fill="white"/>
<path d="M393.758 246.449C393.758 246.449 394.437 245.686 395.725 246.588" stroke="#020203" stroke-miterlimit="10" stroke-linecap="round" stroke-linejoin="round"/>
<path d="M522.704 142.853C518.894 143.27 515.457 140.524 515.042 136.71C514.626 132.897 517.37 129.458 521.18 129.042C524.991 128.626 528.427 131.371 528.843 135.185C529.258 138.998 526.515 142.424 522.704 142.853Z" fill="white" stroke="#020203" stroke-width="0.75" stroke-miterlimit="10" stroke-linecap="round" stroke-linejoin="round"/>
<path d="M521.94 135.948C520.042 136.156 518.351 135.116 518.185 133.618C518.019 132.12 519.432 130.734 521.331 130.526C523.229 130.317 524.919 131.358 525.086 132.855C525.252 134.353 523.853 135.74 521.94 135.948Z" fill="white" stroke="#020203" stroke-width="0.75" stroke-miterlimit="10" stroke-linecap="round" stroke-linejoin="round"/>
<path d="M286.302 270.398C282.491 270.814 279.055 268.068 278.639 264.255C278.224 260.441 280.967 257.016 284.778 256.586C288.588 256.17 292.025 258.916 292.44 262.729C292.856 266.543 290.112 269.982 286.302 270.398Z" fill="white" stroke="#020203" stroke-width="0.75" stroke-miterlimit="10" stroke-linecap="round" stroke-linejoin="round"/>
<path d="M285.538 263.506C283.64 263.714 281.949 262.674 281.783 261.176C281.617 259.678 283.03 258.292 284.928 258.084C286.827 257.876 288.517 258.916 288.683 260.413C288.85 261.911 287.45 263.284 285.538 263.506Z" fill="white" stroke="#020203" stroke-width="0.75" stroke-miterlimit="10" stroke-linecap="round" stroke-linejoin="round"/>
<path d="M66.6199 205.083C64.1535 208.009 59.7748 208.383 56.8372 205.915C53.9135 203.447 53.5394 199.065 56.0058 196.125C58.4723 193.199 62.851 192.824 65.7885 195.293C68.7261 197.761 69.1003 202.143 66.6199 205.083Z" fill="white" stroke="#020203" stroke-width="0.75" stroke-miterlimit="10" stroke-linecap="round" stroke-linejoin="round"/>
<path d="M61.3263 200.604C60.0931 202.074 58.1532 202.476 57.0031 201.491C55.853 200.521 55.9223 198.538 57.1555 197.082C58.3887 195.612 60.3286 195.209 61.4787 196.194C62.6288 197.165 62.5595 199.134 61.3263 200.604Z" fill="white" stroke="#020203" stroke-width="0.75" stroke-miterlimit="10" stroke-linecap="round" stroke-linejoin="round"/>
<path d="M382.925 144.885C379.17 145.662 375.498 143.263 374.708 139.505C373.932 135.747 376.329 132.072 380.085 131.281C383.84 130.505 387.512 132.904 388.302 136.662C389.078 140.42 386.666 144.095 382.925 144.885Z" fill="white" stroke="#020203" stroke-width="0.75" stroke-miterlimit="10" stroke-linecap="round" stroke-linejoin="round"/>
<path d="M381.498 138.09C379.627 138.479 377.854 137.605 377.549 136.121C377.244 134.637 378.519 133.126 380.39 132.737C382.26 132.349 384.034 133.223 384.339 134.707C384.643 136.177 383.383 137.688 381.498 138.09Z" fill="white" stroke="#020203" stroke-width="0.75" stroke-miterlimit="10" stroke-linecap="round" stroke-linejoin="round"/>
<path d="M184.585 282.781C185.028 283.419 184.862 284.307 184.224 284.75C183.587 285.194 182.7 285.028 182.257 284.39C181.813 283.752 181.98 282.864 182.617 282.421C183.268 281.977 184.141 282.129 184.585 282.781Z" fill="#020203"/>
<path d="M40.2122 210.505C40.6833 211.185 40.517 212.128 39.8242 212.599C39.1453 213.071 38.203 212.904 37.7319 212.211C37.2608 211.531 37.427 210.588 38.1199 210.117C38.7988 209.645 39.7411 209.826 40.2122 210.505Z" fill="#020203"/>
<path d="M365.105 72.3871C365.105 73.2607 364.398 73.9818 363.511 73.9818C362.638 73.9818 361.918 73.2746 361.918 72.3871C361.918 71.5135 362.625 70.7924 363.511 70.7924C364.398 70.7924 365.105 71.4996 365.105 72.3871Z" fill="#020203"/>
<path d="M381.358 100.177C381.358 100.884 380.79 101.453 380.083 101.453C379.377 101.453 378.809 100.884 378.809 100.177C378.809 99.4699 379.377 98.9013 380.083 98.9013C380.776 98.9013 381.358 99.4699 381.358 100.177Z" fill="#020203"/>
<path d="M404.722 77.8231C404.722 78.4471 404.209 78.9602 403.585 78.9602C402.962 78.9602 402.449 78.4471 402.449 77.8231C402.449 77.1991 402.962 76.686 403.585 76.686C404.209 76.686 404.722 77.1991 404.722 77.8231Z" fill="#020203"/>
<path d="M397.087 88.903C397.929 88.903 398.611 88.2201 398.611 87.3776C398.611 86.5352 397.929 85.8522 397.087 85.8522C396.245 85.8522 395.562 86.5352 395.562 87.3776C395.562 88.2201 396.245 88.903 397.087 88.903Z" fill="#020203"/>
<path d="M362.68 98.9013C362.68 99.872 361.89 100.662 360.92 100.662C359.95 100.662 359.16 99.872 359.16 98.9013C359.16 97.9306 359.95 97.1402 360.92 97.1402C361.89 97.1402 362.68 97.9306 362.68 98.9013Z" fill="#020203"/>
<path d="M374.541 96.8628C374.541 97.3066 374.181 97.6671 373.737 97.6671C373.294 97.6671 372.934 97.3066 372.934 96.8628C372.934 96.4191 373.294 96.0585 373.737 96.0585C374.181 96.0447 374.541 96.4191 374.541 96.8628Z" fill="#020203"/>
<path d="M228.024 276.167C229.524 276.167 230.74 274.95 230.74 273.449C230.74 271.947 229.524 270.731 228.024 270.731C226.525 270.731 225.309 271.947 225.309 273.449C225.309 274.95 226.525 276.167 228.024 276.167Z" fill="#020203"/>
<path d="M254.198 280.77C254.198 281.713 253.436 282.476 252.493 282.476C251.551 282.476 250.789 281.713 250.789 280.77C250.789 279.828 251.551 279.065 252.493 279.065C253.436 279.051 254.198 279.828 254.198 280.77Z" fill="#020203"/>
<path d="M250.511 273.449C250.511 273.06 250.206 272.755 249.818 272.755C249.43 272.755 249.125 273.06 249.125 273.449C249.125 273.837 249.43 274.142 249.818 274.142C250.206 274.142 250.511 273.823 250.511 273.449Z" fill="#020203"/>
<path d="M253.643 264.823C254.072 264.823 254.419 264.475 254.419 264.047C254.419 263.618 254.072 263.27 253.643 263.27C253.215 263.27 252.867 263.618 252.867 264.047C252.867 264.475 253.215 264.823 253.643 264.823Z" fill="#020203"/>
<path d="M238.954 261.675C239.949 261.675 240.755 260.868 240.755 259.872C240.755 258.877 239.949 258.07 238.954 258.07C237.959 258.07 237.152 258.877 237.152 259.872C237.152 260.868 237.959 261.675 238.954 261.675Z" fill="#020203"/>
<path d="M152.031 212.225L153.001 213.667" stroke="#020203" stroke-miterlimit="10" stroke-linecap="round" stroke-linejoin="round"/>
<path d="M161.223 210.685L165.449 214.915" stroke="#020203" stroke-miterlimit="10" stroke-linecap="round" stroke-linejoin="round"/>
<path d="M175.965 221.696L177.517 223.013" stroke="#020203" stroke-miterlimit="10" stroke-linecap="round" stroke-linejoin="round"/>
<path d="M155.566 222.181L159.502 225.038" stroke="#020203" stroke-miterlimit="10" stroke-linecap="round" stroke-linejoin="round"/>
<path d="M336.172 60.4197L342.643 68.8926" stroke="#020203" stroke-miterlimit="10" stroke-linecap="round" stroke-linejoin="round"/>
<path d="M290.07 34.9733L296.25 37.5942" stroke="#020203" stroke-miterlimit="10" stroke-linecap="round" stroke-linejoin="round"/>
<path d="M200.555 250.559L207.931 253.226" stroke="#020203" stroke-miterlimit="10" stroke-linecap="round" stroke-linejoin="round"/>
<path d="M328.609 235.383L317.371 241.873" stroke="#020203" stroke-miterlimit="10" stroke-linecap="round" stroke-linejoin="round"/>
<path fill-rule="evenodd" clip-rule="evenodd" d="M389.035 186.487C389.035 185.697 388.383 185.045 387.593 185.045C386.804 185.045 386.152 185.697 386.152 186.487C386.152 187.277 386.804 187.929 387.593 187.929C388.397 187.929 389.035 187.291 389.035 186.487Z" fill="#020203"/>
<path fill-rule="evenodd" clip-rule="evenodd" d="M339.403 32.1166C339.403 33.753 338.073 35.0842 336.438 35.0842C334.803 35.0842 333.473 33.753 333.473 32.1166C333.473 30.4803 334.803 29.149 336.438 29.149C338.087 29.149 339.403 30.4803 339.403 32.1166Z" fill="#020203"/>
<path fill-rule="evenodd" clip-rule="evenodd" d="M535.001 187.929C535.001 189.565 533.671 190.897 532.036 190.897C530.401 190.897 529.07 189.565 529.07 187.929C529.07 186.293 530.401 184.962 532.036 184.962C533.671 184.962 535.001 186.293 535.001 187.929Z" fill="#020203"/>
<path fill-rule="evenodd" clip-rule="evenodd" d="M303.722 6.15706C303.722 6.69788 303.278 7.14164 302.738 7.14164C302.197 7.14164 301.754 6.69788 301.754 6.15706C301.754 5.61624 302.197 5.17249 302.738 5.17249C303.278 5.17249 303.722 5.61624 303.722 6.15706Z" fill="#020203"/>
<path d="M136.556 137.203C138.73 137.203 140.492 135.439 140.492 133.264C140.492 131.089 138.73 129.326 136.556 129.326C134.383 129.326 132.621 131.089 132.621 133.264C132.621 135.439 134.383 137.203 136.556 137.203Z" fill="#020203"/>
<path fill-rule="evenodd" clip-rule="evenodd" d="M197.968 20.7315C197.968 22.3401 196.665 23.6298 195.072 23.6298C193.464 23.6298 192.176 22.3262 192.176 20.7315C192.176 19.1229 193.478 17.8332 195.072 17.8332C196.679 17.8194 197.968 19.1229 197.968 20.7315Z" fill="#020203"/>
<path fill-rule="evenodd" clip-rule="evenodd" d="M158.406 43.5433C158.406 43.779 158.212 43.9731 157.976 43.9731C157.741 43.9731 157.547 43.779 157.547 43.5433C157.547 43.3075 157.741 43.1134 157.976 43.1134C158.212 43.0995 158.406 43.2936 158.406 43.5433Z" fill="#020203"/>
<path d="M127.522 74.4949C128.899 74.4949 130.016 73.3774 130.016 71.9988C130.016 70.6202 128.899 69.5027 127.522 69.5027C126.144 69.5027 125.027 70.6202 125.027 71.9988C125.027 73.3774 126.144 74.4949 127.522 74.4949Z" fill="#020203"/>
<path d="M119.249 97.1263C119.677 97.1263 120.025 96.7786 120.025 96.3498C120.025 95.9209 119.677 95.5732 119.249 95.5732C118.82 95.5732 118.473 95.9209 118.473 96.3498C118.473 96.7786 118.82 97.1263 119.249 97.1263Z" fill="#020203"/>
<path fill-rule="evenodd" clip-rule="evenodd" d="M3.02072 200.512C3.02072 201.344 2.34175 202.023 1.51036 202.023C0.678969 202.023 0 201.344 0 200.512C0 199.679 0.678969 199 1.51036 199C2.34175 199 3.02072 199.679 3.02072 200.512Z" fill="#020203"/>
<path fill-rule="evenodd" clip-rule="evenodd" d="M278.142 24.7254C278.142 25.3356 277.657 25.8209 277.048 25.8209C276.438 25.8209 275.953 25.3356 275.953 24.7254C275.953 24.1152 276.438 23.6299 277.048 23.6299C277.657 23.6299 278.142 24.1291 278.142 24.7254Z" fill="#020203"/>
<path fill-rule="evenodd" clip-rule="evenodd" d="M261.873 23.2831C261.873 24.6976 260.736 25.8347 259.323 25.8347C257.91 25.8347 256.773 24.6976 256.773 23.2831C256.773 21.8687 257.91 20.7316 259.323 20.7316C260.736 20.7316 261.873 21.8687 261.873 23.2831Z" fill="#020203"/>
<path fill-rule="evenodd" clip-rule="evenodd" d="M212.656 15.7671C212.656 16.7239 211.88 17.5005 210.923 17.5005C209.967 17.5005 209.191 16.7239 209.191 15.7671C209.191 14.8103 209.967 14.0337 210.923 14.0337C211.88 14.0337 212.656 14.8103 212.656 15.7671Z" fill="#020203"/>
<path fill-rule="evenodd" clip-rule="evenodd" d="M221.29 7.50211C221.29 8.25094 220.694 8.84723 219.946 8.84723C219.197 8.84723 218.602 8.25094 218.602 7.50211C218.602 6.75327 219.197 6.15698 219.946 6.15698C220.694 6.15698 221.29 6.75327 221.29 7.50211Z" fill="#020203"/>
<path fill-rule="evenodd" clip-rule="evenodd" d="M144.705 82.9262C144.705 82.6489 144.483 82.427 144.206 82.427C143.929 82.427 143.707 82.6489 143.707 82.9262C143.707 83.2036 143.929 83.4254 144.206 83.4254C144.483 83.4254 144.705 83.2036 144.705 82.9262Z" fill="#020203"/>
<path fill-rule="evenodd" clip-rule="evenodd" d="M119.249 89.9015C119.249 90.1233 119.068 90.2897 118.861 90.2897C118.639 90.2897 118.473 90.1095 118.473 89.9015C118.473 89.6796 118.653 89.5132 118.861 89.5132C119.082 89.5132 119.249 89.6935 119.249 89.9015Z" fill="#020203"/>
<path fill-rule="evenodd" clip-rule="evenodd" d="M135.238 92.6195C135.238 94.0617 134.074 95.2404 132.619 95.2404C131.178 95.2404 130 94.0755 130 92.6195C130 91.1773 131.164 89.9985 132.619 89.9985C134.06 90.0124 135.238 91.1773 135.238 92.6195Z" fill="#020203"/>
<path d="M154.956 202.92C155.874 202.92 156.619 202.175 156.619 201.256C156.619 200.337 155.874 199.591 154.956 199.591C154.037 199.591 153.293 200.337 153.293 201.256C153.293 202.175 154.037 202.92 154.956 202.92Z" fill="#020203"/>
<path d="M372.282 195.154C373.529 195.154 374.541 194.142 374.541 192.894C374.541 191.645 373.529 190.633 372.282 190.633C371.035 190.633 370.023 191.645 370.023 192.894C370.023 194.142 371.035 195.154 372.282 195.154Z" fill="#020203"/>
<path d="M170.532 201.186C170.588 201.02 170.685 200.867 170.851 200.756C171.225 200.493 171.738 200.576 172.015 200.951C178.209 209.673 186.232 217.147 195.862 223.166C196.25 223.416 196.361 223.915 196.125 224.317C195.876 224.705 195.363 224.83 194.975 224.58C185.151 218.451 176.962 210.824 170.657 201.907C170.505 201.699 170.463 201.422 170.532 201.186Z" fill="#020203"/>
<path d="M299.285 233.844C299.285 233.511 299.493 233.192 299.826 233.081C304.509 231.361 308.943 229.392 312.989 227.257C313.391 227.049 313.904 227.201 314.112 227.603C314.333 228.006 314.167 228.519 313.765 228.727C309.65 230.904 305.146 232.887 300.394 234.648C299.964 234.8 299.479 234.579 299.327 234.149C299.299 234.038 299.285 233.941 299.285 233.844Z" fill="#020203"/>
<path d="M333.68 212.086C333.68 211.892 333.763 211.684 333.901 211.531C336.354 208.896 338.585 206.054 340.566 203.086C342.423 200.271 344.1 197.276 345.527 194.183C345.721 193.767 346.22 193.587 346.636 193.781C347.051 193.975 347.231 194.475 347.037 194.891C345.569 198.066 343.864 201.145 341.952 204.015C339.929 207.066 337.629 209.978 335.121 212.682C334.802 213.015 334.276 213.043 333.943 212.724C333.763 212.544 333.68 212.322 333.68 212.086Z" fill="#020203"/>
<path d="M332.156 215.317C331.768 215.317 331.463 214.998 331.477 214.61C331.477 214.221 331.796 213.916 332.184 213.93C332.572 213.93 332.877 214.249 332.863 214.637C332.849 215.012 332.53 215.317 332.156 215.317Z" fill="#020203"/>
<path d="M316.981 226.785C316.551 226.785 316.219 226.425 316.219 226.009C316.219 225.579 316.579 225.246 316.995 225.246C317.424 225.246 317.757 225.607 317.757 226.023C317.757 226.452 317.41 226.799 316.981 226.785Z" fill="#020203"/>
<path d="M154.641 103.727C156.317 96.8628 159.795 89.4022 165.005 81.5395C166.71 78.9741 168.622 76.3254 170.7 73.6768L172.003 74.7029C169.952 77.3238 168.068 79.9309 166.377 82.4686C161.278 90.1649 157.869 97.4452 156.234 104.129L154.641 103.727Z" fill="#020203"/>
<path d="M181.117 61.8202C188.156 54.2626 193.99 49.3397 194.045 49.2981L195.112 50.5739C195.057 50.6155 189.293 55.4829 182.323 62.9574L181.117 61.8202Z" fill="#020203"/>
<path d="M370.815 38.0355C370.26 37.9107 369.9 37.3698 370.025 36.8152C370.149 36.2605 370.69 35.8999 371.244 36.0247C371.798 36.1495 372.159 36.6904 372.034 37.2451C371.923 37.7997 371.369 38.1603 370.815 38.0355Z" fill="#020203"/>
<path d="M165.931 129.326C165.128 129.16 164.615 128.355 164.781 127.551C164.948 126.747 165.751 126.234 166.555 126.4C167.359 126.567 167.871 127.371 167.705 128.175C167.525 128.993 166.735 129.506 165.931 129.326Z" fill="#020203"/>
<path d="M173.291 135.58C170.825 135.053 169.259 132.626 169.785 130.158C170.312 127.69 172.737 126.123 175.203 126.65C177.67 127.177 179.236 129.603 178.709 132.072C178.183 134.54 175.758 136.107 173.291 135.58Z" fill="#020203"/>
<path d="M191.08 124.195C189.75 123.904 188.891 122.6 189.182 121.255C189.473 119.924 190.775 119.064 192.119 119.356C193.449 119.647 194.309 120.95 194.018 122.295C193.727 123.641 192.41 124.486 191.08 124.195Z" fill="#020203"/>
<path d="M367.293 124.209C366.628 124.07 366.212 123.419 366.351 122.753C366.489 122.087 367.141 121.671 367.806 121.81C368.471 121.949 368.887 122.6 368.748 123.266C368.609 123.932 367.958 124.362 367.293 124.209Z" fill="#020203"/>
<path d="M349.725 144.816C348.949 144.649 348.464 143.887 348.63 143.124C348.797 142.347 349.559 141.862 350.321 142.029C351.097 142.195 351.582 142.958 351.415 143.72C351.263 144.497 350.501 144.982 349.725 144.816Z" fill="#020203"/>
<path d="M296.459 83.0788C295.683 82.9124 295.198 82.1497 295.365 81.387C295.531 80.6104 296.293 80.125 297.055 80.2914C297.831 80.4579 298.316 81.2205 298.15 81.9832C297.984 82.7598 297.221 83.2452 296.459 83.0788Z" fill="#020203"/>
<path d="M343.365 164.48C341.799 164.147 340.802 162.594 341.134 161.027C341.467 159.46 343.019 158.461 344.585 158.794C346.15 159.127 347.148 160.68 346.815 162.247C346.483 163.828 344.945 164.826 343.365 164.48Z" fill="#020203"/>
<path d="M276.853 206.913C275.288 206.581 274.29 205.027 274.623 203.46C274.955 201.893 276.507 200.895 278.073 201.228C279.639 201.561 280.636 203.114 280.304 204.681C279.957 206.262 278.419 207.26 276.853 206.913Z" fill="#020203"/>
<path d="M196.541 91.5517C194.975 91.2189 193.977 89.6657 194.31 88.0987C194.643 86.5317 196.195 85.5333 197.76 85.8661C199.326 86.1989 200.324 87.7521 199.991 89.3191C199.659 90.8999 198.107 91.8984 196.541 91.5517Z" fill="#020203"/>
<path d="M277.92 73.5519C276.354 73.2191 275.356 71.666 275.689 70.099C276.021 68.532 277.573 67.5335 279.139 67.8663C280.705 68.1992 281.703 69.7523 281.37 71.3193C281.024 72.9002 279.486 73.8986 277.92 73.5519Z" fill="#020203"/>
<path d="M341.231 145.703C340.635 145.579 340.261 144.996 340.4 144.4C340.525 143.817 341.107 143.429 341.702 143.568C342.298 143.693 342.672 144.275 342.534 144.871C342.409 145.454 341.827 145.828 341.231 145.703Z" fill="#020203"/>
<path d="M294.02 70.0297C293.425 69.9049 293.05 69.3225 293.189 68.7262C293.314 68.1438 293.896 67.7555 294.492 67.8941C295.087 68.019 295.461 68.6014 295.323 69.1977C295.184 69.7801 294.616 70.1545 294.02 70.0297Z" fill="#020203"/>
<path d="M320.485 181.689C319.889 181.564 319.515 180.982 319.654 180.399C319.779 179.803 320.361 179.429 320.956 179.567C321.552 179.692 321.926 180.274 321.788 180.857C321.663 181.439 321.081 181.814 320.485 181.689Z" fill="#020203"/>
<path fill-rule="evenodd" clip-rule="evenodd" d="M256.773 36.2906C312.199 36.2906 357.136 81.2622 357.136 136.731C357.136 192.2 312.199 237.172 256.773 237.172C201.347 237.172 156.41 192.2 156.41 136.731C156.41 81.2483 201.347 36.2906 256.773 36.2906Z" stroke="#00787C" stroke-width="1.5" stroke-miterlimit="22.93" stroke-linecap="round" stroke-linejoin="round"/>
<path fill-rule="evenodd" clip-rule="evenodd" d="M276.27 79.2514C274.857 82.6489 272.917 84.618 267.679 84.1882C270.935 77.2961 267.249 75.5905 266.377 73.4826C265.836 72.1652 265.933 68.7539 267.152 67.8664C264.229 66.8957 262.427 69.7801 260.917 72.193C250.455 74.2037 257.217 84.8122 263.273 80.2499C261.762 84.9786 252.631 89.1249 245.01 77.726C248.599 71.5551 254.779 72.1098 259.545 69.0035C264.007 63.6369 260.39 55.8989 254.82 56.2456C257.065 52.2796 250.788 46.5663 244.552 49.2981C240.867 42.212 228.354 43.8899 228.714 53.0978C221.509 51.5446 216.562 62.9296 224.558 65.0513C220.899 66.1191 218.821 69.9603 219.888 73.6074C220.428 75.4379 221.703 76.9633 223.407 77.8231C228.95 79.0018 234.853 74.4256 240.396 78.9047C237.347 92.2728 227.62 93.8814 224.516 89.9153C231.901 91.9677 233.814 79.3762 223.338 81.2483C221.093 79.5288 219.32 78.2252 216.936 80.1805C218.211 80.4301 219.057 81.6643 218.807 82.954V82.9678C218.475 87.5302 218.1 90.054 223.532 95.2542C218.807 97.6117 214.803 97.1263 212.267 94.4499C213.957 91.9261 214.941 89.0001 215.094 85.9632C215.426 79.3207 208.553 75.2438 212.101 69.4334C208.027 68.0883 203.551 69.3779 200.821 72.6922C200.669 71.874 200.087 71.2084 199.311 70.9172C203.038 65.2177 207.306 63.0683 213.472 64.2748C214.539 62.264 214.539 59.865 213.472 57.8542C220.22 55.6771 219.541 53.1255 222.742 48.0501C215.856 50.879 209.523 52.3905 204.091 57.9652C201.403 60.7109 201.265 63.3041 199.366 66.3549C198.105 67.6584 196.72 68.8371 195.237 69.8771C190.096 70.5566 186.286 73.0666 184.734 72.9002C185.136 75.9233 185.177 78.9879 184.859 82.0249C184.069 82.9817 183.154 83.8137 182.115 84.5071C179.191 86.5595 176.586 86.8645 174.023 89.6796C168.785 95.4484 167.843 105.89 165.404 112.921C170.434 109.427 173.261 108.789 175.062 101.897C177.044 102.645 179.261 102.285 180.896 100.926C179.233 95.0878 181.616 88.8476 186.743 85.6165C187.173 86.4624 187.962 87.0725 188.891 87.2667C185.676 90.6919 182.448 97.3759 184 101.633C189.639 97.7642 195.944 101.37 202.526 100.662C205.574 100.51 208.526 99.5253 211.047 97.8058C213.874 100.163 214.345 103.796 212.433 108.678C206.738 103.547 204.438 105.516 200.059 105.28C198.646 105.28 197.704 103.866 197.246 102.451C195.57 104.684 195.791 107.818 197.759 109.801C196.623 120.409 209.565 117.899 207.195 110.647C211.366 113.476 208.803 123.141 195.681 127.177C190.817 121.935 195.071 116.499 193.505 111.049C189.653 105.211 181.519 106.875 180.217 112.366C175.492 107.638 167.704 112.366 169.755 119.453C161.995 120.936 160.734 132.377 167.912 135.442C164.351 141.862 170.836 148.13 176.531 144.636C176.531 150.28 184.18 153.732 189.21 148.893C191.953 143.914 189.002 137.646 194.905 133.639C206.821 140.448 207.181 150.432 202.484 152.249C206.586 145.759 194.433 140.434 193.186 151.014C190.803 152.512 189.902 155.535 191.066 158.101C191.648 156.756 192.979 155.896 194.447 155.924C198.743 156.686 200.586 159.113 207.237 155.355C208.013 160.555 206.766 163.994 203.482 165.658C201.611 163.453 199.159 161.817 196.401 160.93C190.152 158.572 184.886 164.091 180.3 158.988C177.764 162.483 177.639 167.17 179.967 170.803C179.011 170.761 178.097 171.164 177.487 171.885C173.288 167.517 172.429 160.916 175.381 155.632C174.134 153.927 172.055 153.025 169.949 153.275C169.949 146.189 167.205 144.871 163.173 140.281C163.88 147.7 162.342 158.087 166.083 164.923C167.926 168.279 170.379 169.181 172.734 171.871C173.566 172.786 174.258 173.812 174.813 174.922C173.94 180.025 174.813 183.922 174.3 185.364C175.838 185.572 178.665 188.456 183.501 190.3C184.18 191.327 184.706 192.45 185.08 193.629C186.189 197.026 185.718 199.605 187.671 202.892C191.662 209.576 201.389 213.528 207.403 217.896C205.519 212.086 205.727 209.174 199.657 205.471C200.96 203.793 201.251 201.547 200.419 199.592C194.323 199.481 189.016 195.348 187.408 189.455C188.35 189.302 189.154 188.72 189.598 187.874C191.524 191.715 195.611 193.961 199.893 193.545C197.814 187 205.131 185.211 206.364 178.694C207.112 175.865 207.057 172.869 206.198 170.068C209.26 168.016 212.876 168.626 216.978 171.885C210.438 175.823 211.643 178.61 210.161 182.729C209.468 184.019 208.068 184.754 206.613 184.601C208.248 186.806 211.241 187.513 213.694 186.251C223.491 190.411 224.904 177.21 217.241 177.556C221.163 174.367 229.629 179.637 229.629 193.365C223.213 196.513 219.25 190.841 213.583 190.772C206.877 192.727 206.101 201.02 210.992 203.877C205.145 207.094 207.334 215.858 214.692 215.927C213.86 223.818 224.419 228.324 229.449 222.348C231.666 225.135 235.726 225.579 238.511 223.36C240.479 221.779 241.352 219.2 240.742 216.745C246.174 218.354 251.675 212.017 248.488 205.873C244.552 201.783 237.707 202.809 235.573 195.972C245.536 186.529 255.194 189.094 255.582 194.128C250.552 188.317 241.92 198.399 251.689 202.684C252.409 205.388 255.028 207.135 257.799 206.775C256.705 205.818 256.289 204.306 256.732 202.92C258.686 199.023 261.457 197.955 259.919 190.495C265.116 191.257 268.039 193.448 268.649 197.082C266.016 198.246 263.758 200.132 262.136 202.518C258.201 207.856 261.804 214.443 255.596 217.355C258.187 220.781 262.608 222.264 266.737 221.086C266.432 221.987 266.543 222.986 267.069 223.776C261.679 226.549 255.097 225.44 250.899 221.058C248.917 221.779 247.476 223.513 247.116 225.593C240.271 223.637 238.289 225.759 232.719 228.283C240.008 229.767 249.499 234.26 257.106 232.679C260.862 231.902 262.414 229.794 265.67 228.311C266.792 227.798 267.97 227.437 269.189 227.229C273.914 229.586 277.85 229.781 279.055 230.779C279.693 229.365 283.254 227.492 286.441 223.388C287.619 223.055 288.852 222.875 290.071 222.847C293.66 222.847 295.974 223.984 299.701 223.055C307.225 221.183 313.863 213.015 319.766 208.522C313.655 208.522 310.939 207.579 305.604 212.322C304.371 210.616 302.306 209.715 300.228 209.964C298.357 215.733 292.912 219.588 286.843 219.408C286.981 218.465 286.662 217.508 285.97 216.856C290.196 216.107 293.535 212.862 294.394 208.661C287.522 208.661 287.923 201.214 282.048 198.122C279.568 196.624 276.727 195.861 273.831 195.931C272.764 192.381 274.372 189.122 278.695 186.099C280.566 193.518 283.586 193.185 287.092 195.778C288.131 196.804 288.436 198.357 287.854 199.702C290.515 198.801 292.08 196.055 291.512 193.296C298.33 185.197 286.067 179.997 284.168 187.513C282.256 182.784 289.739 176.225 302.888 180.163C304.025 187.25 297.484 189.399 295.808 194.807C295.808 201.893 303.484 204.917 307.613 201.061C308.362 204.542 311.784 206.761 315.262 206.026C317.743 205.499 319.696 203.558 320.223 201.061C327.511 204.112 334.883 195.293 330.601 188.761C333.899 187.43 335.507 183.672 334.176 180.372C333.234 178.028 331.017 176.447 328.495 176.336C331.585 171.607 327.179 164.521 320.306 165.783C315.276 168.404 314.265 175.227 307.142 175.227C300.976 162.94 306.228 154.44 311.133 155.507C304.052 158.655 311.299 169.819 318.214 161.72C321.027 161.789 323.451 159.779 323.909 156.991C322.689 157.796 321.11 157.796 319.89 156.991C316.731 153.996 316.537 150.945 308.944 150.349C311.161 145.62 314.112 143.429 317.77 143.873C318.131 146.73 319.267 149.42 321.068 151.666C325.031 156.977 332.403 155.424 333.387 162.205C337.419 160.735 340.121 156.908 340.162 152.609C340.925 153.178 341.922 153.344 342.823 153.053C343.931 159.03 340.98 165.007 335.576 167.766C335.701 169.874 336.934 171.746 338.804 172.703C334.98 178.68 336.449 181.204 337.266 187.277C340.814 180.704 347.894 172.897 348.504 165.173C348.837 161.346 347.271 159.238 346.8 155.729C346.633 154.509 346.633 153.261 346.8 152.041C350.361 148.241 351.733 144.483 353.035 143.609C351.857 142.597 351.095 138.631 348.102 134.402C348.116 133.167 348.296 131.947 348.615 130.768C349.585 127.315 351.4 125.457 351.594 121.602C351.968 113.836 346.051 105.072 343.446 98.1941C341.811 104.074 340.024 106.39 343.017 112.838C341.022 113.531 339.553 115.237 339.151 117.303C344.098 120.742 346.204 127.024 344.347 132.751C343.502 132.321 342.504 132.321 341.659 132.751C342.172 128.48 340.01 124.348 336.227 122.309C334.343 128.896 327.234 126.345 322.606 131.101C320.431 133.14 318.851 135.747 318.034 138.617C314.348 138.617 311.687 136.093 310.08 131.087C317.701 131.462 318.269 128.466 321.886 125.887C323.188 125.221 324.754 125.388 325.876 126.317C325.793 123.502 323.618 121.2 320.819 120.95C315.013 112.02 306.491 122.198 313.059 126.192C308.029 126.636 303.928 117.553 311.549 106.14C318.629 107.138 318.768 114.031 323.354 117.262C327.137 118.704 331.364 116.804 332.791 113.018C333.428 111.34 333.428 109.482 332.791 107.804C339.442 108.414 342.49 99.9136 336.421 95.7396C341.493 89.6657 335.271 80.028 327.761 82.1774C326.458 74.9526 317.465 74.2176 315.276 80.5272C311.66 76.1867 303.623 78.3084 302.764 85.2559C303.803 90.8306 310.038 93.8259 308.001 100.676C294.478 103.034 287.868 95.4345 290.348 91.0386C291.29 98.6656 304.066 95.1017 298.343 86.1018C299.244 83.4532 298.039 80.5411 295.531 79.293C295.932 80.6936 295.434 82.2051 294.284 83.0926C290.487 85.2421 287.535 84.5071 284.847 91.621C280.954 88.0987 279.776 84.5348 281.258 81.276C284.099 81.7891 287.023 81.484 289.683 80.4024C295.932 78.1836 296.598 70.6676 303.373 71.7354C303.152 67.4781 300.339 63.7755 296.293 62.4304C297.055 61.8757 297.512 61.0021 297.526 60.073C303.512 60.7802 308.32 65.3703 309.332 71.3193C311.382 71.8463 313.558 71.2223 315.027 69.683C319.599 75.119 322.44 74.4117 328.481 75.4518C323.244 70.1545 317.881 61.1408 310.662 58.2148C307.115 56.7726 304.648 57.6462 301.226 57.0638C300.006 56.8697 298.815 56.523 297.678 56.0237C295.101 51.5169 291.914 49.0762 291.471 47.5925C290.154 48.3968 286.164 47.9669 281.231 49.6032C280.053 49.2288 278.93 48.7018 277.905 48.0223C274.884 46.0809 273.637 43.7928 270.048 42.4893C262.732 39.8268 252.728 42.9331 245.287 43.3629C250.428 46.6633 252.09 49.0624 259.143 48.0917C259.199 50.2134 260.39 52.127 262.261 53.1255C267.014 49.3675 273.679 49.2011 278.612 52.7233C277.988 53.4306 277.739 54.4013 277.933 55.3165C274.011 53.5831 269.425 54.4151 266.363 57.4382C272.099 61.1962 267.596 67.2146 270.755 73.0527C272.016 75.6459 273.984 77.8231 276.422 79.3623L276.27 79.2514Z" fill="white" stroke="#020203" stroke-width="1.5" stroke-miterlimit="22.93" stroke-linecap="round" stroke-linejoin="round"/>
<path fill-rule="evenodd" clip-rule="evenodd" d="M303.984 107.083C303.527 111.604 299.674 115.029 295.13 114.932C294.852 117.691 297.319 119.439 301.504 119.661C301.698 128.938 304.497 136.107 309.928 141.155C302.806 144.774 298.261 152.055 298.123 160.056C293.966 158.572 292.22 160.056 291.042 162.94C295.462 163.745 297.513 167.114 297.25 173.077C292.525 173.715 288.492 172.536 286.622 168.349C284.197 169.832 283.435 172.994 284.903 175.435C285.125 175.795 285.388 176.128 285.679 176.433C278.155 178.499 272.252 184.338 270.077 191.84C262.719 185.059 255.14 182.507 247.352 184.185C246.812 181.592 244.775 179.553 242.184 179.012C241.477 184.546 238.997 187.638 234.743 188.317C232.831 184.448 233.925 179.761 237.334 177.127C234.868 175.781 231.847 175.934 229.519 177.501C224.544 169.444 219.778 165.686 209.579 165.686C212.947 158.031 212.614 149.253 208.706 141.848C211.228 140.614 212.697 137.938 212.406 135.136C208.249 137.189 204.383 136.149 200.836 132.044C205.173 128.217 209.399 127.787 212.78 130.505C213.847 127.925 212.628 124.972 210.051 123.904C210.037 123.904 210.037 123.89 210.023 123.89H209.787C214.415 119.078 216.452 111.576 215.898 101.397C223.45 102.354 231.057 100.011 236.766 94.9769C238.858 96.2111 241.352 96.5161 243.68 95.8228C240.951 93.0216 241.006 88.5286 243.805 85.7968C243.902 85.6997 243.999 85.6026 244.11 85.5194L244.442 85.2421C248.71 88.2374 249.306 90.9138 248.405 94.6857C251.454 95.9199 253.712 94.1726 255.043 89.9569C262.123 91.1079 269.37 90.1233 275.883 87.128C278.71 95.5177 283.726 99.664 290.377 103.658C289.531 106.265 290.321 109.121 292.4 110.91C295.615 106.944 297.527 106.182 303.915 107.055L303.984 107.083Z" stroke="#020203" stroke-width="1.5" stroke-miterlimit="22.93" stroke-linecap="round" stroke-linejoin="round"/>
<path fill-rule="evenodd" clip-rule="evenodd" d="M292.581 140.462C301.297 135.164 288.494 120.451 292.11 115.14C286.097 116.61 277.949 98.3744 269.358 104.365C267.182 94.4222 250.139 102.881 246.273 97.7504C245.733 103.921 225.945 104.837 228.855 114.918C218.352 114.155 220.431 133.819 214.5 135.539C220.334 138.257 215.816 156.797 226.001 156.797C221.844 166.102 240.592 169.43 240.661 175.865C244.763 171.136 261.169 182.008 264.855 172.107C272.697 179.193 282.632 161.928 288.452 164.147C285.528 158.434 300.604 146.813 292.623 140.531L292.581 140.462Z" fill="white" stroke="#020203" stroke-width="1.5" stroke-miterlimit="22.93" stroke-linecap="round" stroke-linejoin="round"/>
<path fill-rule="evenodd" clip-rule="evenodd" d="M288.023 65.9527C284.739 67.4919 283.298 71.7631 282.051 74.9525C283.741 76.0619 285.834 76.4086 287.787 75.8678C288.66 75.5904 289.464 75.1189 290.143 74.4949C292.831 72.1375 293.067 67.2839 296.184 68.1437C293.275 65.7863 290.711 64.9542 288.439 65.7863L288.065 65.9249L288.023 65.9527Z" stroke="#020203" stroke-width="1.5" stroke-miterlimit="22.93" stroke-linecap="round" stroke-linejoin="round"/>
<path fill-rule="evenodd" clip-rule="evenodd" d="M281.881 74.911C280.841 74.8139 279.844 74.5088 278.929 73.9957C278.098 73.5104 277.377 72.8586 276.809 72.082C276.31 71.3193 275.978 70.4734 275.839 69.5721C275.23 65.9804 277.987 62.1115 275.008 60.8495C278.86 60.8495 281.41 61.7648 282.601 63.9142L282.74 64.1222C284.458 67.3672 283.017 71.666 281.881 74.911Z" stroke="#020203" stroke-width="1.5" stroke-miterlimit="22.93" stroke-linecap="round" stroke-linejoin="round"/>
<path fill-rule="evenodd" clip-rule="evenodd" d="M282.993 71.4996C283.339 70.2931 283.519 69.0451 283.533 67.797C283.63 66.3271 283.297 64.871 282.563 63.5952L282.424 63.2208C281.69 60.8634 283.741 58.0899 288.466 55.2333C290.808 60.1007 291.057 63.3872 289.228 65.079L288.992 65.287C286.318 67.1175 284.226 69.6691 282.951 72.6506C281.247 76.3531 282.383 73.7183 282.951 71.4996H282.993Z" stroke="#020203" stroke-width="1.5" stroke-miterlimit="22.93" stroke-linecap="round" stroke-linejoin="round"/>
<path fill-rule="evenodd" clip-rule="evenodd" d="M313.283 88.0433C315.168 90.4007 318.493 91.7735 318.175 95.2958C318.064 96.3775 317.593 97.3898 316.858 98.1802L316.429 98.5824C315.833 99.1509 315.487 98.9845 314.78 98.5824C314.586 98.4853 314.392 98.3605 314.212 98.2218C313.63 97.7781 313.145 97.2095 312.798 96.5716C311.025 93.4099 313.034 91.1356 313.297 88.0016L313.283 88.0433Z" stroke="#020203" stroke-width="1.5" stroke-miterlimit="22.93" stroke-linecap="round" stroke-linejoin="round"/>
<path fill-rule="evenodd" clip-rule="evenodd" d="M329.826 90.8306C329.286 95.1988 326.764 101.952 317.508 98.4298C320.626 90.3591 323.66 90.5671 329.826 90.8306Z" stroke="#020203" stroke-width="1.5" stroke-miterlimit="22.93" stroke-linecap="round" stroke-linejoin="round"/>
<path fill-rule="evenodd" clip-rule="evenodd" d="M324.368 107.971C323.398 105.058 324.105 101.564 320.973 99.9137C320.017 99.4144 318.922 99.248 317.855 99.4422H317.287C316.511 99.6363 316.442 100.011 316.345 100.787C316.317 101.009 316.317 101.245 316.345 101.467C316.414 102.202 316.622 102.909 316.955 103.575C318.631 106.792 321.68 106.334 324.396 107.846L324.368 107.971Z" stroke="#020203" stroke-width="1.5" stroke-miterlimit="22.93" stroke-linecap="round" stroke-linejoin="round"/>
<path fill-rule="evenodd" clip-rule="evenodd" d="M334.859 145.676C332.781 142.68 328.319 141.918 324.965 141.349C324.55 142.306 324.342 143.332 324.37 144.372C324.397 145.329 324.619 146.272 325.049 147.132C325.437 147.964 326.005 148.699 326.725 149.281C329.58 151.638 334.319 150.917 334.014 154.121C335.884 150.834 336.203 148.172 334.984 146.092L334.859 145.676Z" stroke="#020203" stroke-width="1.5" stroke-miterlimit="22.93" stroke-linecap="round" stroke-linejoin="round"/>
<path fill-rule="evenodd" clip-rule="evenodd" d="M324.991 141.238C324.894 140.198 325.033 139.144 325.393 138.173C325.725 137.286 326.238 136.482 326.903 135.816C327.582 135.192 328.386 134.707 329.259 134.401C332.681 133.167 337.005 135.234 337.711 132.044C338.473 135.83 337.905 138.492 336.007 140.073L335.799 140.24C332.889 142.417 328.441 141.751 325.06 141.252L324.991 141.238Z" stroke="#020203" stroke-width="1.5" stroke-miterlimit="22.93" stroke-linecap="round" stroke-linejoin="round"/>
<path fill-rule="evenodd" clip-rule="evenodd" d="M332.238 141.571C333.693 141.404 335.065 140.794 336.174 139.851L336.534 139.657C338.89 138.52 341.827 140.059 345.43 144.22C341.065 147.367 337.878 148.158 335.869 146.577L335.633 146.383C333.957 144.608 331.878 143.263 329.564 142.445C322.622 139.782 326.142 142.445 332.211 141.446L332.238 141.571Z" stroke="#020203" stroke-width="1.5" stroke-miterlimit="22.93" stroke-linecap="round" stroke-linejoin="round"/>
<path fill-rule="evenodd" clip-rule="evenodd" d="M272.447 215.428C274.331 212.336 273.223 207.94 272.447 204.639C270.438 204.612 268.525 205.485 267.209 206.997C266.655 207.69 266.253 208.494 266.031 209.354C265.158 212.876 267.611 216.953 264.562 217.98C268.29 218.382 270.895 217.605 272.281 215.622L272.516 215.262L272.447 215.428Z" stroke="#020203" stroke-width="1.5" stroke-miterlimit="22.93" stroke-linecap="round" stroke-linejoin="round"/>
<path fill-rule="evenodd" clip-rule="evenodd" d="M272.449 204.542C273.335 204.098 274.305 203.835 275.303 203.779C276.259 203.71 277.215 203.849 278.116 204.182C278.961 204.528 279.709 205.055 280.333 205.721C282.841 208.37 282.689 213.14 285.876 212.53C282.73 214.748 280.042 215.317 277.825 214.208H277.617C274.458 212.433 273.252 208.064 272.352 204.764L272.449 204.542Z" stroke="#020203" stroke-width="1.5" stroke-miterlimit="22.93" stroke-linecap="round" stroke-linejoin="round"/>
<path fill-rule="evenodd" clip-rule="evenodd" d="M273.556 208.342C273.93 209.382 274.401 210.38 274.997 211.323C275.759 212.585 276.868 213.611 278.184 214.277L278.489 214.485C280.47 216.135 280.263 219.491 277.921 224.497C273.196 221.751 271.214 219.186 271.81 216.745V216.413C272.572 214.693 272.974 212.835 272.988 210.963C273.126 206.622 271.006 201.519 273.487 208.342H273.556Z" stroke="#020203" stroke-width="1.5" stroke-miterlimit="22.93" stroke-linecap="round" stroke-linejoin="round"/>
<path fill-rule="evenodd" clip-rule="evenodd" d="M186.94 174.145C190.432 175.157 194.381 172.966 197.347 171.316C197.083 170.304 196.584 169.361 195.905 168.57C195.254 167.822 194.451 167.239 193.55 166.851C192.718 166.49 191.818 166.324 190.903 166.352C187.273 166.352 183.961 169.846 182.188 167.156C182.783 170.886 184.197 173.174 186.455 174.034H186.829L186.94 174.145Z" stroke="#020203" stroke-width="1.5" stroke-miterlimit="22.93" stroke-linecap="round" stroke-linejoin="round"/>
<path fill-rule="evenodd" clip-rule="evenodd" d="M197.373 171.427C198.121 172.162 198.675 173.05 199.008 174.048C199.313 174.963 199.423 175.92 199.34 176.877C199.229 177.778 198.911 178.638 198.426 179.401C196.541 182.493 191.886 183.603 193.299 186.487C190.347 184.13 189.1 181.592 189.599 179.165V178.902C190.472 175.379 194.324 173.091 197.317 171.385L197.373 171.427Z" stroke="#020203" stroke-width="1.5" stroke-miterlimit="22.93" stroke-linecap="round" stroke-linejoin="round"/>
<path fill-rule="evenodd" clip-rule="evenodd" d="M191.54 175.698C190.626 176.835 189.933 178.125 189.517 179.526L189.379 179.886C188.298 182.244 185.014 182.881 179.582 181.911C180.995 176.711 182.977 174.062 185.485 173.993H185.817C187.979 174.298 190.182 174.131 192.261 173.493C200.713 171.136 195.004 170.9 191.54 175.698Z" stroke="#020203" stroke-width="1.5" stroke-miterlimit="22.93" stroke-linecap="round" stroke-linejoin="round"/>
<path fill-rule="evenodd" clip-rule="evenodd" d="M200.699 82.7737C200.865 86.3931 204.219 89.43 206.741 91.7042C207.627 91.1079 208.362 90.2898 208.861 89.3468C209.36 88.5286 209.664 87.6134 209.761 86.6565C209.845 85.7552 209.72 84.8399 209.387 83.994C208.154 80.5688 203.845 78.5442 205.826 75.9926C202.501 77.7676 200.796 79.8477 200.699 82.2468V82.7737V82.7737Z" stroke="#020203" stroke-width="1.5" stroke-miterlimit="22.93" stroke-linecap="round" stroke-linejoin="round"/>
<path fill-rule="evenodd" clip-rule="evenodd" d="M206.641 91.8013C206.17 92.7165 205.505 93.5347 204.687 94.1587C203.925 94.755 203.052 95.171 202.11 95.3929C201.223 95.6009 200.309 95.6009 199.422 95.3929C195.875 94.5886 193.339 90.6642 191.066 92.8136C192.41 89.1942 194.323 87.2667 196.775 86.9339H197.039C200.655 86.6565 204.119 89.6241 206.641 91.8429V91.8013Z" stroke="#020203" stroke-width="1.5" stroke-miterlimit="22.93" stroke-linecap="round" stroke-linejoin="round"/>
<path fill-rule="evenodd" clip-rule="evenodd" d="M203.994 89.5964C202.996 88.7921 201.888 88.1265 200.71 87.6134C199.38 86.9755 197.897 86.7397 196.442 86.9339H196.068C193.491 86.6704 191.814 83.7721 190.969 78.3084C196.345 77.9756 199.49 78.9879 200.405 81.3592C200.433 81.4563 200.433 81.5672 200.405 81.6643C201.084 84.7844 202.622 87.655 204.839 89.9569C207.583 92.9107 205.989 91.2327 203.938 89.6241L203.994 89.5964Z" stroke="#020203" stroke-width="1.5" stroke-miterlimit="22.93" stroke-linecap="round" stroke-linejoin="round"/>
<path fill-rule="evenodd" clip-rule="evenodd" d="M321.638 176.932C319.92 179.442 319.629 183.006 316.165 183.741C315.098 183.935 314.004 183.783 313.02 183.311L312.507 183.048C311.8 182.646 311.842 182.244 311.994 181.467C312.036 181.245 312.091 181.023 312.161 180.801C312.424 180.108 312.826 179.484 313.338 178.957C315.833 176.364 318.562 177.584 321.638 176.932Z" stroke="#020203" stroke-width="1.5" stroke-miterlimit="22.93" stroke-linecap="round" stroke-linejoin="round"/>
<path fill-rule="evenodd" clip-rule="evenodd" d="M323.898 193.559C319.574 194.322 312.383 193.92 313.02 184.116C321.667 184.726 322.318 187.68 323.898 193.559Z" stroke="#020203" stroke-width="1.5" stroke-miterlimit="22.93" stroke-linecap="round" stroke-linejoin="round"/>
<path fill-rule="evenodd" clip-rule="evenodd" d="M305.938 193.365C308.293 191.618 311.951 191.243 312.616 187.763C312.81 186.695 312.644 185.599 312.145 184.643C312.076 184.462 311.979 184.282 311.868 184.13C311.466 183.422 311.064 183.464 310.288 183.616L309.623 183.811C308.944 184.102 308.335 184.504 307.808 185.017C305.259 187.555 306.533 190.3 305.938 193.365Z" stroke="#020203" stroke-width="1.5" stroke-miterlimit="22.93" stroke-linecap="round" stroke-linejoin="round"/>
<path fill-rule="evenodd" clip-rule="evenodd" d="M237.987 211.49C235.105 210.574 231.586 211.296 229.909 208.189C229.41 207.232 229.23 206.137 229.396 205.069C229.382 204.875 229.424 204.681 229.521 204.501C229.715 203.696 230.089 203.627 230.865 203.53H231.544C232.278 203.585 232.999 203.779 233.65 204.126C236.879 205.776 236.477 208.855 237.987 211.517V211.49Z" stroke="#020203" stroke-width="1.5" stroke-miterlimit="22.93" stroke-linecap="round" stroke-linejoin="round"/>
<path fill-rule="evenodd" clip-rule="evenodd" d="M222.742 218.423C220.761 214.499 219.084 207.482 228.714 205.249C230.627 213.708 228.008 215.192 222.742 218.423Z" stroke="#020203" stroke-width="1.5" stroke-miterlimit="22.93" stroke-linecap="round" stroke-linejoin="round"/>
<path fill-rule="evenodd" clip-rule="evenodd" d="M217.741 201.256C220.096 203.128 221.524 206.428 225.029 205.984C226.096 205.846 227.094 205.374 227.884 204.639L228.286 204.209C228.854 203.613 228.687 203.239 228.286 202.559C228.189 202.351 228.078 202.157 227.925 201.963C227.468 201.394 226.9 200.923 226.249 200.576C223.062 198.857 220.817 200.881 217.699 201.186L217.741 201.256Z" stroke="#020203" stroke-width="1.5" stroke-miterlimit="22.93" stroke-linecap="round" stroke-linejoin="round"/>
<path fill-rule="evenodd" clip-rule="evenodd" d="M181.051 141.737C181.19 138.714 179.569 135.497 182.132 133.07C182.936 132.349 183.933 131.892 185.014 131.767H185.61C186.414 131.767 186.608 132.1 186.885 132.835C186.982 133.043 187.051 133.264 187.079 133.5C187.245 134.221 187.245 134.956 187.079 135.677C186.317 139.227 183.351 139.616 181.079 141.793L181.051 141.737Z" stroke="#020203" stroke-width="1.5" stroke-miterlimit="22.93" stroke-linecap="round" stroke-linejoin="round"/>
<path fill-rule="evenodd" clip-rule="evenodd" d="M170.406 128.785C173.663 125.859 180.009 122.406 184.568 131.143C176.905 135.123 174.771 133.043 170.406 128.785Z" stroke="#020203" stroke-width="1.5" stroke-miterlimit="22.93" stroke-linecap="round" stroke-linejoin="round"/>
<path fill-rule="evenodd" clip-rule="evenodd" d="M185.777 119.48C184.599 122.268 181.758 124.459 183.033 127.773C183.435 128.758 184.155 129.59 185.056 130.13L185.569 130.408C186.276 130.782 186.58 130.546 187.176 130.006C187.342 129.853 187.495 129.687 187.62 129.506C188.077 128.924 188.382 128.244 188.534 127.523C189.379 124.001 186.858 122.379 185.749 119.425V119.48H185.777Z" stroke="#020203" stroke-width="1.5" stroke-miterlimit="22.93" stroke-linecap="round" stroke-linejoin="round"/>
<path fill-rule="evenodd" clip-rule="evenodd" d="M229.354 67.6029C232.167 66.4658 234.412 63.6646 237.682 65.0097C238.666 65.4396 239.497 66.1607 240.037 67.0898L240.315 67.589C240.675 68.324 240.439 68.6291 239.871 69.1976C239.719 69.3641 239.552 69.5166 239.372 69.6414C238.776 70.0713 238.084 70.3764 237.363 70.5428C233.844 71.3193 232.236 68.7678 229.312 67.6168L229.354 67.6029Z" stroke="#020203" stroke-width="1.5" stroke-miterlimit="22.93" stroke-linecap="round" stroke-linejoin="round"/>
<path fill-rule="evenodd" clip-rule="evenodd" d="M236.681 52.6124C240.713 54.3874 246.478 58.7279 240.464 66.5906C233.619 61.3072 234.686 58.4644 236.681 52.6124Z" stroke="#020203" stroke-width="1.5" stroke-miterlimit="22.93" stroke-linecap="round" stroke-linejoin="round"/>
<path fill-rule="evenodd" clip-rule="evenodd" d="M251.649 62.6523C248.628 62.6523 245.469 61.0714 242.989 63.5952C242.24 64.3857 241.769 65.398 241.645 66.4796V67.0482C241.645 67.8802 241.922 68.0466 242.656 68.3517C242.864 68.4488 243.086 68.5181 243.321 68.5597C244.042 68.7261 244.776 68.7261 245.497 68.5597C249.058 67.8802 249.487 64.8988 251.704 62.6523H251.649V62.6523Z" stroke="#020203" stroke-width="1.5" stroke-miterlimit="22.93" stroke-linecap="round" stroke-linejoin="round"/>
</g>
<defs>
<clipPath id="clip0">
<rect width="535" height="285" fill="white"/>
</clipPath>
</defs>
</svg>
