<svg width="694" height="110" viewBox="0 0 694 110" fill="none" xmlns="http://www.w3.org/2000/svg">
<rect width="694" height="110" fill="#F7F7F7"/>
<path d="M134 0H694V110H263L134 0Z" fill="#2196F3"/>
<mask id="mask0" mask-type="alpha" maskUnits="userSpaceOnUse" x="0" y="0" width="694" height="110">
<rect width="694" height="110" fill="#F7F7F7"/>
</mask>
<g mask="url(#mask0)">
<path d="M805.746 83.4465C800.716 83.4465 795.985 84.6677 791.821 86.8271C790.985 75.494 781.492 66.5586 769.925 66.5586C762.567 66.5586 756.045 70.1774 752.06 75.7323C749.612 70.7731 744.716 67.2436 738.94 66.7224C738.97 66.365 738.985 66.0075 738.985 65.6501C738.985 57.4295 732.313 50.7726 724.075 50.7726C722.134 50.7726 720.269 51.145 718.567 51.8151C716.612 48.4345 713.343 46.0667 709.642 45.1731C710.09 44.6519 710.493 44.0711 710.836 43.4307C713.194 38.9481 711.478 33.4081 706.985 31.0551C702.493 28.7022 696.94 30.4148 694.582 34.8974C694.522 35.0016 694.478 35.1059 694.433 35.2101C690.94 32.604 686.284 31.6508 681.791 33.0358C674.343 35.3442 670.179 43.2371 672.478 50.6684C672.776 51.6364 673.179 52.5448 673.657 53.3937C672.045 52.1725 670.045 51.4577 667.866 51.4577C662.552 51.4577 658.254 55.7467 658.254 61.0484C658.254 61.3313 658.269 61.5994 658.298 61.8675C657.119 61.6143 655.881 61.4654 654.612 61.4654C647.866 61.4654 642.045 65.3523 639.254 71.0114C635.06 65.1736 628.209 61.3611 620.463 61.3611C608.284 61.3611 598.313 70.7582 597.433 82.687C593.045 80.4085 588.075 79.1277 582.791 79.1277C565.239 79.1277 551 93.335 551 110.848C551 128.362 565.239 142.569 582.791 142.569C596.104 142.569 659.522 165.295 664.254 153.709L672.075 122.822C677.91 129.851 686.716 134.334 696.582 134.334C706.448 134.334 715.254 129.851 721.09 122.822H756.672V133.291H782.896C788.433 139.695 796.627 143.731 805.776 143.731C822.463 143.731 836 130.223 836 113.574C835.97 96.9539 822.433 83.4465 805.746 83.4465Z" fill="#259CFA"/>
<path d="M799.867 94.9693C795.644 94.9693 791.672 95.9967 788.176 97.8136C787.474 88.2781 779.505 80.7599 769.794 80.7599C763.616 80.7599 758.141 83.8048 754.795 88.4786C752.74 84.306 748.63 81.3363 743.781 80.8978C743.806 80.597 743.819 80.2963 743.819 79.9956C743.819 73.0789 738.218 67.4779 731.301 67.4779C729.672 67.4779 728.106 67.7911 726.677 68.355C725.036 65.5106 722.292 63.5183 719.184 62.7665C719.56 62.3279 719.898 61.8392 720.187 61.3004C722.166 57.5288 720.725 52.8676 716.954 50.8878C713.182 48.908 708.521 50.349 706.541 54.1206C706.491 54.2083 706.453 54.296 706.416 54.3837C703.484 52.1909 699.574 51.389 695.803 52.5543C689.55 54.4965 686.054 61.1375 687.984 67.3901C688.234 68.2046 688.573 68.969 688.974 69.6832C687.62 68.6557 685.941 68.0543 684.112 68.0543C679.651 68.0543 676.042 71.663 676.042 76.1237C676.042 76.3618 676.055 76.5874 676.08 76.8129C675.09 76.5999 674.05 76.4746 672.985 76.4746C667.321 76.4746 662.435 79.745 660.091 84.5065C656.57 79.5946 650.819 76.3869 644.316 76.3869C634.091 76.3869 625.721 84.2935 624.982 94.3302C621.298 92.4131 617.125 91.3355 612.689 91.3355C597.954 91.3355 586 103.289 586 118.025C586 132.761 597.954 144.714 612.689 144.714C623.866 144.714 677.108 163.836 681.08 154.087L687.645 128.099C692.545 134.014 699.938 137.785 708.22 137.785C716.503 137.785 723.896 134.014 728.795 128.099H758.667V136.908H780.683C785.331 142.296 792.211 145.692 799.892 145.692C813.9 145.692 825.265 134.327 825.265 120.318C825.24 106.334 813.875 94.9693 799.867 94.9693Z" fill="#2DA2FF"/>
<path d="M458.613 96.3834C451.929 97.8729 445.989 100.868 441.06 104.885C436.774 90.5211 421.672 81.7885 406.282 85.2184C396.505 87.3975 388.852 93.9947 385.113 102.336C380.471 96.6677 372.977 93.567 365.155 94.6056C365.095 94.1359 365.014 93.6707 364.914 93.2099C362.611 82.6114 351.88 76.0047 340.933 78.4445C338.354 79.0191 335.98 80.0516 333.911 81.4387C330.361 77.6401 325.354 75.5552 320.17 75.523C320.638 74.714 321.011 73.8458 321.288 72.9186C323.165 66.441 319.332 59.8068 312.703 58.1036C306.074 56.4004 300.095 58.48 297.323 63.0261C296.686 64.0709 294.403 64.08 294.403 64.08C294.403 64.08 285.362 65.0022 279.781 68.1182C270.531 73.2998 267.209 84.7091 272.346 93.6093C273.014 94.7689 273.804 95.8207 274.676 96.7737C272.192 95.6767 269.315 95.3517 266.439 95.9926C259.378 97.5662 254.868 104.369 256.354 111.204C256.433 111.569 256.528 111.91 256.643 112.247C255.005 112.27 253.317 112.444 251.632 112.82C242.667 114.818 236.022 121.553 233.899 129.676C226.69 123.391 216.518 120.505 206.225 122.799C190.042 126.405 179.431 141.492 181.599 157.113C175.13 155.475 168.143 155.281 161.122 156.846C137.799 162.044 122.859 184.577 127.767 207.157C132.674 229.736 155.576 243.836 178.899 238.639C196.59 234.696 209.435 220.802 212.495 204.458L292.025 186.734C301.749 194.068 314.706 197.24 327.816 194.318C340.925 191.397 351.37 183.01 357.155 172.219L404.456 161.677L407.39 175.175L442.256 167.405C451.404 174.002 463.427 176.797 475.565 174.092C497.738 169.151 511.941 147.727 507.276 126.262C502.559 104.847 480.806 91.4374 458.613 96.3834Z" fill="#259CFA"/>
<path d="M438.912 105.786C432.638 107.184 427.062 109.995 422.437 113.765C418.414 100.283 404.239 92.0869 389.793 95.3062C380.616 97.3515 373.433 103.544 369.924 111.373C365.567 106.053 358.532 103.142 351.191 104.117C351.134 103.676 351.059 103.24 350.965 102.807C348.803 92.8593 338.731 86.6581 328.455 88.9482C326.036 89.4875 323.807 90.4566 321.865 91.7586C318.533 88.1931 313.833 86.2363 308.967 86.206C309.407 85.4467 309.757 84.6318 310.017 83.7615C311.779 77.6815 308.181 71.4546 301.959 69.8559C295.737 68.2573 290.125 70.2093 287.523 74.4763C287.005 75.3265 285.635 75.462 284.782 75.4654C278.964 74.5875 276.296 76.331 271.057 79.2558C262.376 84.1193 259.258 94.8282 264.079 103.182C264.706 104.27 265.448 105.258 266.266 106.152C263.935 105.123 261.234 104.818 258.535 105.419C251.908 106.896 247.674 113.281 249.069 119.697C249.143 120.039 249.232 120.359 249.34 120.675C247.803 120.697 246.219 120.861 244.636 121.214C236.222 123.089 229.985 129.41 227.992 137.034C221.226 131.136 211.679 128.426 202.017 130.58C186.827 133.965 176.868 148.126 178.903 162.788C172.831 161.25 166.272 161.068 159.683 162.537C137.791 167.416 123.769 188.566 128.375 209.759C132.981 230.953 154.477 244.187 176.368 239.308C192.973 235.608 205.03 222.567 207.903 207.227L282.55 190.59C291.677 197.474 303.839 200.451 316.144 197.709C328.448 194.967 338.252 187.094 343.682 176.966L388.08 167.071L390.833 179.741L423.559 172.447C432.145 178.639 443.43 181.264 454.823 178.725C475.635 174.086 488.966 153.978 484.587 133.83C480.16 113.73 459.742 101.143 438.912 105.786Z" fill="#2DA2FF"/>
<path d="M286.382 64.705C281.702 62.5139 276.765 61.5917 271.948 61.7917C276.118 50.8578 271.185 38.389 260.421 33.3501C253.573 30.1448 245.924 30.6786 239.79 34.1233C239.678 28.4319 236.663 23.0075 231.515 20.0052C231.699 19.6848 231.869 19.358 232.025 19.0246C235.614 11.3577 232.312 2.2429 224.645 -1.3461C222.839 -2.19134 220.941 -2.65683 219.065 -2.77302C218.721 -6.77764 216.713 -10.4099 213.659 -12.8557C214.303 -13.1468 214.931 -13.513 215.53 -13.9607C219.682 -17.1141 220.503 -23.0286 217.35 -27.1801C214.197 -31.3317 208.282 -32.1531 204.13 -28.9997C204.029 -28.9285 203.942 -28.8508 203.855 -28.7731C201.743 -32.7251 197.825 -35.6426 193.04 -36.3079C185.101 -37.3995 177.78 -31.8522 176.675 -23.9201C176.53 -22.8873 176.509 -21.8645 176.582 -20.8647C175.615 -22.7058 174.066 -24.2438 172.039 -25.193C167.094 -27.5077 161.221 -25.3801 158.907 -20.4355C158.783 -20.1716 158.68 -19.9151 158.591 -19.6521C157.604 -20.4018 156.516 -21.0804 155.336 -21.633C149.058 -24.5718 141.944 -23.4824 136.876 -19.4203C135.522 -26.692 130.811 -33.232 123.602 -36.6064C112.269 -41.9119 98.888 -37.4909 92.8605 -26.7492C89.7719 -30.7858 85.7059 -34.1454 80.7891 -36.447C64.4552 -44.0931 45.0021 -37.0455 37.3559 -20.7116C29.7098 -4.37779 36.7575 15.0754 53.0913 22.7215C65.4806 28.5211 79.655 25.8771 89.1164 17.1323L144.799 43.1981C147.161 52.2961 153.398 60.3128 162.579 64.6105C171.76 68.9082 181.912 68.5636 190.411 64.5501L223.496 80.0374L218.925 89.8016L243.328 101.225C245.685 109.61 251.549 116.943 260.063 120.929C275.591 128.198 294.086 121.498 301.355 105.969C308.617 90.4549 301.91 71.974 286.382 64.705Z" fill="#F7F7F7"/>
</g>
</svg>
