<svg width="116" height="32" viewBox="0 0 116 32" fill="none" xmlns="http://www.w3.org/2000/svg"><path fill-rule="evenodd" clip-rule="evenodd" d="M69.04.388c8.338 0 15.1 6.77 15.1 15.118 0 8.349-6.762 15.118-15.1 15.118-8.338 0-15.099-6.77-15.099-15.118 0-8.352 6.761-15.118 15.1-15.118z" fill="#007982"/><path d="M69.04 31.005c-8.537 0-15.483-6.955-15.483-15.503C53.557 6.955 60.503 0 69.04 0s15.483 6.955 15.483 15.502c0 8.548-6.946 15.503-15.483 15.503zm0-30.237c-8.114 0-14.716 6.61-14.716 14.734 0 8.125 6.602 14.738 14.716 14.738 8.114 0 14.72-6.61 14.72-14.738S77.154.768 69.04.768z" fill="#860142"/><path fill-rule="evenodd" clip-rule="evenodd" d="M71.974 6.855c-.214.512-.505.807-1.293.743.49-1.038-.064-1.294-.195-1.61-.082-.2-.068-.711.117-.847-.44-.145-.71.288-.938.651-1.573.302-.557 1.899.355 1.213-.227.71-1.601 1.336-2.748-.38.54-.929 1.47-.847 2.187-1.313.671-.807.128-1.973-.71-1.92.338-.597-.607-1.458-1.545-1.045-.554-1.067-2.436-.815-2.382.572-1.084-.235-1.83 1.48-.625 1.8a1.038 1.038 0 00-.174 1.923c.834.178 1.722-.512 2.556.163-.458 2.013-1.92 2.255-2.39 1.657 1.112.31 1.4-1.585-.177-1.305-.337-.26-.604-.455-.962-.16.191.04.32.224.28.416v.004c-.05.686-.106 1.067.71 1.849-.71.355-1.314.28-1.694-.121a2.53 2.53 0 00.427-1.276c.05-1-.984-1.615-.451-2.49a1.564 1.564 0 00-1.698.491.355.355 0 00-.227-.266c.561-.857 1.204-1.18 2.13-1 .16-.302.16-.664 0-.967 1.016-.327.913-.71 1.396-1.475-1.037.426-1.988.654-2.805 1.493-.405.413-.426.804-.71 1.262a4.22 4.22 0 01-.622.53c-.774.103-1.346.48-1.58.455.06.455.067.918.018 1.373-.117.146-.256.27-.412.373-.44.31-.831.356-1.218.779-.789.867-.93 2.439-1.296 3.498.756-.526 1.182-.622 1.452-1.66a.881.881 0 00.877-.146 2.052 2.052 0 01.88-2.304c.065.128.185.22.324.25-.483.515-.97 1.52-.735 2.16.849-.582 1.797-.038 2.788-.145.458-.021.901-.17 1.281-.43.427.355.498.9.21 1.636-.856-.772-1.204-.477-1.86-.512-.214 0-.356-.214-.423-.427a.846.846 0 00.078 1.106c-.17 1.596 1.775 1.22 1.42.128.629.426.242 1.88-1.733 2.489-.731-.79-.092-1.608-.326-2.429-.58-.878-1.804-.63-2 .2-.71-.712-1.882 0-1.573 1.066-1.168.224-1.356 1.945-.277 2.407-.536.967.44 1.91 1.296 1.383 0 .85 1.15 1.369 1.907.64.412-.75-.032-1.692.856-2.297 1.793 1.024 1.847 2.528 1.14 2.802.618-.978-1.211-1.778-1.4-.185a.847.847 0 00-.319 1.067.543.543 0 01.508-.327c.646.113.923.48 1.925-.086.117.783-.071 1.302-.565 1.55a2.286 2.286 0 00-1.065-.71c-.941-.356-1.733.476-2.422-.292a1.578 1.578 0 00-.05 1.778.458.458 0 00-.373.163 2.073 2.073 0 01-.316-2.446.883.883 0 00-.816-.356c0-1.066-.412-1.265-1.02-1.955.107 1.116-.124 2.68.437 3.708.277.505.646.64 1.002 1.046.124.138.23.291.312.458-.131.768 0 1.355-.078 1.572.23.032.657.466 1.385.743.103.157.18.324.238.501.167.512.096.9.39 1.394.6 1.006 2.064 1.6 2.97 2.258-.285-.875-.253-1.312-1.166-1.87a.884.884 0 00.114-.886 2.065 2.065 0 01-1.957-1.525.458.458 0 00.33-.238c.292.576.906.917 1.549.853-.313-.985.788-1.255.973-2.236a2.37 2.37 0 00-.025-1.298c.462-.31 1.005-.217 1.623.274-.984.593-.803 1.013-1.026 1.632a.534.534 0 01-.533.28.843.843 0 001.065.25c1.474.625 1.687-1.362.533-1.309.59-.48 1.864.313 1.864 2.379-.966.473-1.562-.38-2.414-.391-1.009.295-1.126 1.543-.391 1.973-.88.483-.55 1.803.557 1.813-.124 1.188 1.463 1.867 2.22.968a.97.97 0 001.697-.843c.817.242 1.644-.711 1.165-1.636-.593-.615-1.623-.462-1.942-1.49 1.498-1.422 2.95-1.034 3.01-.277-.755-.875-2.055.644-.585 1.287.11.41.5.672.92.615a.55.55 0 01-.16-.58c.295-.586.71-.746.48-1.87.78.114 1.22.445 1.313.992a2.31 2.31 0 00-.98.818c-.593.804-.05 1.796-.984 2.233.391.516 1.055.74 1.676.562a.468.468 0 00.05.405 2.06 2.06 0 01-2.432-.409.88.88 0 00-.568.683c-1.03-.295-1.329.025-2.167.405 1.098.225 2.525.9 3.669.662.564-.118.799-.434 1.289-.658.17-.078.348-.131.529-.163.71.355 1.303.384 1.484.533.096-.213.632-.494 1.112-1.113.177-.05.362-.078.547-.082.54 0 .887.17 1.448.032 1.133-.28 2.131-1.511 3.019-2.187-.92 0-1.328-.142-2.13.573a.879.879 0 00-.81-.356 2.057 2.057 0 01-2.014 1.423.443.443 0 00-.131-.384 1.577 1.577 0 001.267-1.234c-1.033 0-.973-1.12-1.857-1.586a2.297 2.297 0 00-1.236-.33c-.16-.534.082-1.025.732-1.48.28 1.117.735 1.067 1.264 1.458a.528.528 0 01.114.59.838.838 0 00.55-.963c1.026-1.22-.82-2.002-1.104-.871-.288-.712.838-1.7 2.816-1.106.17 1.066-.813 1.39-1.066 2.204 0 1.067 1.155 1.522 1.776.942a.968.968 0 001.896 0c1.098.46 2.206-.867 1.563-1.852a.972.972 0 00-.316-1.87c.465-.711-.2-1.778-1.232-1.59-.757.395-.91 1.423-1.982 1.423-.927-1.85-.139-3.13.6-2.97-1.065.474.025 2.155 1.065.936a.845.845 0 00.856-.711.548.548 0 01-.603 0c-.476-.452-.505-.91-1.648-1 .334-.71.778-1.041 1.328-.974.053.43.227.836.497 1.174.597.8 1.705.565 1.854 1.585a1.552 1.552 0 001.019-1.443.45.45 0 00.401.067c.167.9-.277 1.8-1.09 2.216.018.316.203.6.487.743-.576.9-.356 1.28-.231 2.194.532-.989 1.598-2.166 1.69-3.328.05-.576-.185-.893-.256-1.423a2.069 2.069 0 010-.554c.537-.573.743-1.138.938-1.27-.178-.153-.291-.75-.742-1.386a2.19 2.19 0 01.078-.548c.145-.52.419-.8.447-1.38.057-1.17-.834-2.489-1.225-3.523-.245.885-.515 1.234-.064 2.204a.89.89 0 00-.582.672 2.06 2.06 0 01.781 2.326.45.45 0 00-.405 0 1.57 1.57 0 00-.817-1.572c-.284.992-1.353.608-2.049 1.323-.326.31-.564.697-.688 1.13-.554 0-.956-.38-1.197-1.134 1.147.057 1.232-.395 1.775-.782a.55.55 0 01.6.064.836.836 0 00-.76-.807c-.873-1.344-2.155.188-1.168.79-.756.067-1.374-1.302-.227-3.02 1.065.15 1.087 1.188 1.776 1.675a1.1 1.1 0 001.42-1.422c1.001.092 1.46-1.188.547-1.817.763-.914-.174-2.364-1.303-2.04-.196-1.089-1.549-1.2-1.879-.25-.543-.654-1.754-.334-1.882.711.156.84 1.094 1.291.788 2.322-2.034.356-3.029-.79-2.656-1.45.142 1.148 2.063.611 1.204-.744a.844.844 0 00-.423-1.024.538.538 0 01-.188.573c-.572.323-1.015.213-1.42 1.283-.586-.53-.764-1.066-.54-1.557.426.078.867.032 1.268-.132.94-.334 1.04-1.464 2.06-1.304a1.57 1.57 0 00-1.066-1.401.45.45 0 00.185-.356 2.047 2.047 0 011.775 1.693.881.881 0 00.856-.246c.689.818 1.115.711 2.024.868-.788-.797-1.594-2.155-2.68-2.596-.534-.217-.906-.085-1.421-.174a2.134 2.134 0 01-.533-.157c-.387-.679-.867-1.045-.934-1.269-.199.121-.799.057-1.541.302a2.021 2.021 0 01-.5-.238c-.455-.291-.644-.636-1.183-.832-1.101-.402-2.607.068-3.725.132.774.497 1.022.857 2.084.71a.88.88 0 00.469.758 2.05 2.05 0 012.46-.06.46.46 0 00-.102.39 1.566 1.566 0 00-1.74.32c.863.566.184 1.473.66 2.351.192.391.487.718.852.95l-.031-.015z" fill="#fff"/><path d="M68.586 30.109c-.696 0-1.45-.228-2.13-.43-.374-.11-.722-.217-1.045-.281l-.344-.071.32-.146c.145-.068.273-.132.393-.189.55-.273.924-.458 1.737-.252a1 1 0 01.614-.65l.071-.026.05.054a1.96 1.96 0 002.198.433.566.566 0 01-.035-.202 1.68 1.68 0 01-1.627-.64l-.085-.11.128-.06c.476-.225.522-.595.575-1.064.014-.11.028-.228.046-.345l-.23.032a.957.957 0 01-1.03-.647c-.451-.213-.703-.544-.69-.917a.89.89 0 01.587-.786.727.727 0 01.483-.007.822.822 0 00-.246-.142c-.482-.185-1.377-.082-2.336.796.188.523.597.69 1.026.864.306.124.618.256.867.512l.017.028c.245.473.196 1.014-.131 1.408-.26.313-.629.466-.994.424.028.355-.118.71-.402.938a1.083 1.083 0 01-1.434-.074c-.38.37-.945.465-1.477.238-.544-.231-.87-.719-.863-1.266-.508-.046-.902-.366-1.023-.84a1.02 1.02 0 01.383-1.087 1.122 1.122 0 01-.372-1.01 1.28 1.28 0 01.933-1.07l.018-.004h.018c.355.004.668.146.966.278.422.192.824.373 1.335.153-.018-1.305-.56-2.027-1.026-2.248a.822.822 0 00-.27-.078.727.727 0 01.327.356.896.896 0 01-.167.967c-.263.267-.675.313-1.14.131a.957.957 0 01-1.161-.305l-.157-.21.26.028a.425.425 0 00.419-.22c.046-.128.074-.263.103-.391.085-.391.167-.761.823-1.195-.493-.352-.916-.423-1.288-.213.11.416.113.857.003 1.276-.082.445-.348.754-.582 1.028-.31.359-.55.643-.391 1.145l.043.135-.139.014a1.69 1.69 0 01-1.573-.764.557.557 0 01-.174.11c.26.775.99 1.319 1.818 1.333h.075l.028.068c.124.291.1.625-.06.896.703.458.816.86.987 1.454.035.128.075.263.124.416l.107.334-.284-.206c-.267-.196-.583-.38-.916-.58-.771-.458-1.648-.981-2.081-1.71-.192-.323-.238-.608-.284-.885-.029-.167-.057-.342-.118-.53a1.875 1.875 0 00-.206-.444c-.404-.16-.717-.367-.948-.516-.16-.107-.298-.196-.376-.206l-.139-.018.047-.132c.024-.07.02-.234.014-.42-.007-.276-.018-.657.05-1.094a1.973 1.973 0 00-.278-.402c-.131-.153-.27-.267-.4-.377-.214-.178-.438-.363-.615-.693-.409-.747-.412-1.767-.416-2.667 0-.388-.003-.757-.035-1.085l-.032-.348.23.263c.107.125.21.231.306.33.426.449.717.755.742 1.583a.998.998 0 01.796.409l.042.06-.035.064a1.945 1.945 0 00.224 2.23.53.53 0 01.184-.093 1.674 1.674 0 01.142-1.753l.082-.113.092.103c.348.387.71.32 1.172.234a4.8 4.8 0 01.348-.056l-.089-.193a.964.964 0 01.316-1.18c.071-.494.316-.832.679-.928.333-.089.71.05.92.334a.707.707 0 01.145.459.795.795 0 00.064-.274c.039-.515-.316-1.347-1.438-2.009-.444.334-.483.772-.53 1.238-.031.327-.063.665-.234.977l-.021.029c-.387.373-.927.48-1.403.277a1.11 1.11 0 01-.682-.821 1.02 1.02 0 01-1.129-.206c-.351-.335-.433-.84-.224-1.305-.468-.253-.727-.772-.664-1.351.064-.587.434-1.042.96-1.195-.104-.508.092-.985.518-1.234a1.018 1.018 0 011.14.057c.142-.338.454-.58.848-.647.505-.089 1.005.135 1.3.583l.014.032c.1.341.053.68.01 1.003-.06.462-.116.9.242 1.326 1.243-.402 1.772-1.134 1.85-1.646a.777.777 0 00-.007-.303.75.75 0 01-.266.445.89.89 0 01-.97.114c-.191-.103-.504-.377-.447-1.053a.97.97 0 01-.05-1.216l.078-.106a7.405 7.405 0 01-.294-.04c-.58-.078-1.13-.156-1.627.185l-.12.082-.05-.139c-.242-.664.213-1.62.65-2.154a.556.556 0 01-.164-.139 1.958 1.958 0 00-.738 2.116l.021.07-.057.047a1.004 1.004 0 01-.87.203c-.234.807-.586 1.034-1.108 1.372-.11.071-.23.15-.358.238l-.288.2.114-.331c.106-.313.195-.669.287-1.045.217-.875.458-1.864 1.03-2.493.252-.274.511-.402.76-.526.153-.075.313-.153.476-.27a1.81 1.81 0 00.37-.328 5.79 5.79 0 00-.022-1.312l-.018-.142.142.014c.078.011.249-.06.43-.131a4.76 4.76 0 011.097-.32c.21-.15.405-.317.583-.502a3.46 3.46 0 00.223-.469c.11-.256.22-.523.487-.793.67-.69 1.427-.974 2.233-1.28.2-.074.405-.153.611-.238l.33-.135-.191.302a5.66 5.66 0 00-.28.509c-.218.43-.363.725-1.06.974.122.31.104.658-.052.953l-.04.074-.081-.017c-.831-.164-1.417.092-1.946.85a.506.506 0 01.096.099 1.672 1.672 0 011.7-.395l.136.047-.075.12c-.27.445-.085.822.132 1.256.166.337.358.721.337 1.18a2.68 2.68 0 01-.394 1.255c.33.295.813.33 1.35.103-.708-.722-.68-1.141-.633-1.756l.014-.1c.022-.114-.067-.242-.195-.266l-.238-.047.188-.153c.416-.34.746-.113 1.066.128.674-.103.958.178 1.072.36.163.27.142.64-.06.906a.758.758 0 01-.473.295.917.917 0 00.483.015c.636-.143 1.154-.8 1.389-1.757-.451-.33-.924-.242-1.42-.153-.338.064-.686.128-1.034.054l-.028-.011a1.146 1.146 0 01-.586-.704 1.163 1.163 0 01.092-.878c.1-.185.248-.335.422-.441-.351-.2-.51-.566-.404-.996.124-.515.61-.992 1.21-.939.032-.675.505-1.041.956-1.162.536-.142 1.24.014 1.59.58a1.354 1.354 0 011.435.344c.203.228.284.494.224.733.337.039.643.26.817.604.245.484.174 1.07-.185 1.497l-.025.021c-.263.171-.554.27-.834.37-.49.167-.952.327-1.279.846.668.964 1.332 1.028 1.67.982.284-.04.507-.178.653-.334a.8.8 0 01-.608-.1c-.28-.174-.433-.49-.38-.79.036-.198.196-.543.853-.686.23-.366.54-.825 1.044-.657l.21.07-.178.132c-.12.09-.153.53-.078.711.025.057.067.118.12.189.192.256.448.6.139 1.362.557.01.806-.217.984-.601a2.419 2.419 0 01-.782-.921c-.216-.398-.206-.807-.198-1.17.01-.473.017-.846-.423-1.134l-.124-.078.099-.1a1.676 1.676 0 011.705-.405.605.605 0 01.06-.192 1.957 1.957 0 00-2.234.117l-.056.046-.064-.035a1 1 0 01-.519-.73c-.834.09-1.175-.149-1.683-.497-.11-.075-.227-.156-.362-.245l-.295-.189.348-.021c.33-.018.696-.075 1.08-.132.887-.135 1.892-.284 2.691.007.352.128.568.32.778.505.128.114.26.231.43.338.138.089.284.164.44.213a5.167 5.167 0 011.062-.202c.191-.022.355-.04.422-.078l.124-.075.043.142c.022.075.135.203.263.352.181.206.422.487.64.86.148.065.308.107.471.136.192.032.366.035.537.035.277.004.564.004.912.146.789.32 1.435 1.106 2.003 1.8.249.301.483.586.714.82l.248.253-.351-.06c-.163-.029-.313-.047-.451-.068-.604-.078-1.012-.135-1.563-.75a.99.99 0 01-.873.192l-.071-.018-.01-.075a1.943 1.943 0 00-1.567-1.582.643.643 0 01-.082.181c.569.256.945.804.98 1.44l.008.14-.139-.022c-.518-.082-.763.202-1.069.562-.074.085-.152.177-.238.266l.196.096a.964.964 0 01.497 1.11c.255.43.277.846.06 1.148a.888.888 0 01-.923.324.735.735 0 01-.408-.264.722.722 0 00.127.264c.302.426 1.105.842 2.383.636.132-.54-.114-.91-.373-1.298-.18-.274-.369-.554-.437-.903l-.003-.018.004-.017c.063-.534.411-.957.905-1.1a1.12 1.12 0 011.055.204c.195-.377.571-.59 1.005-.555.483.039.863.373.998.867.525-.1 1.05.14 1.367.626.32.494.323 1.085.01 1.533.398.327.547.814.38 1.269a1.024 1.024 0 01-.934.686 1.215 1.215 0 01-1.616 1.412l-.024-.014c-.288-.203-.462-.488-.632-.765-.245-.398-.476-.775-1.023-.878-.707 1.095-.657 1.995-.394 2.439.053.089.113.16.18.217a.726.726 0 01-.07-.476.882.882 0 01.675-.708c.365-.075.735.117 1.015.526a.95.95 0 01.81.91l.007.22c.124-.045.252-.081.37-.113.454-.128.812-.231.958-.736l.04-.135.123.068c.565.302.902.885.888 1.514a.508.508 0 01.206.01 1.931 1.931 0 00-.77-2.083l-.06-.042.013-.072c.06-.309.263-.572.544-.71-.33-.769-.206-1.167-.022-1.757.04-.128.082-.263.125-.416l.092-.334.124.327c.114.298.27.622.433.963.395.822.842 1.75.8 2.607-.018.38-.139.643-.256.9a3.48 3.48 0 00-.195.504c-.043.157-.068.32-.075.484.245.355.39.697.5.949.079.181.146.338.203.387l.114.096-.125.082c-.067.047-.156.189-.259.356-.145.235-.34.551-.632.867-.018.164-.018.328.004.491.025.196.078.363.124.526.082.267.163.544.131.921-.067.846-.632 1.7-1.132 2.454-.214.323-.416.629-.572.917l-.167.306-.046-.345c-.022-.16-.046-.302-.068-.434-.103-.608-.174-1.02.256-1.739a1.028 1.028 0 01-.444-.775l-.004-.074.068-.036a1.96 1.96 0 001.048-1.98.51.51 0 01-.206-.025 1.67 1.67 0 01-1.084 1.372l-.13.046-.022-.138c-.075-.52-.42-.669-.852-.86-.103-.047-.21-.093-.317-.147l-.035.22a.963.963 0 01-.916.808c-.334.373-.728.516-1.083.391a.89.89 0 01-.583-.79.736.736 0 01.128-.454.824.824 0 00-.199.188c-.316.409-.48 1.298.09 2.471.553-.025.83-.366 1.125-.729.206-.252.419-.515.735-.679l.032-.01c.529-.096 1.033.11 1.317.54.224.338.263.732.114 1.07a1.09 1.09 0 01.774 1.486 1.083 1.083 0 01-.472.527c.245.469.174 1.041-.195 1.486-.377.451-.93.63-1.45.466-.12.355-.422.63-.798.71a1.088 1.088 0 01-1.236-.664 1.114 1.114 0 01-1.069.075c-.469-.203-.756-.669-.756-1.21l.003-.031c.107-.342.327-.598.544-.846.301-.352.589-.683.529-1.238-1.254-.355-2.1-.046-2.447.334a.857.857 0 00-.156.239.738.738 0 01.44-.214.892.892 0 01.877.441c.178.327.103.729-.206 1.117a.948.948 0 01-.635 1.038l-.246.082.103-.239a.42.42 0 00-.088-.462 3.786 3.786 0 00-.341-.21c-.352-.195-.682-.38-.91-1.141-.479.373-.667.757-.578 1.177.426.007.841.124 1.207.348.401.21.622.555.813.857.256.398.455.711.984.711h.139l-.029.136a1.68 1.68 0 01-1.186 1.283c.032.06.05.128.057.2a1.957 1.957 0 001.79-1.345l.02-.07.075-.008a.989.989 0 01.835.306c.664-.558 1.094-.548 1.733-.53.117.003.245.007.383.007h.338l-.27.206c-.26.2-.53.445-.813.704-.668.608-1.42 1.298-2.245 1.504-.376.093-.657.057-.955.015a3.865 3.865 0 00-.522-.043 2 2 0 00-.48.067c-.27.342-.553.58-.766.758-.15.124-.277.23-.31.302l-.06.135-.113-.096c-.06-.05-.22-.092-.409-.142a5.494 5.494 0 01-1.022-.36c-.16.033-.316.083-.466.15-.18.082-.326.182-.468.274-.235.153-.476.313-.842.391-.184.036-.366.05-.55.05zm-2.813-.86c.238.06.487.135.746.213.877.263 1.786.537 2.557.373.327-.068.54-.21.763-.36.15-.099.306-.202.501-.29a2.34 2.34 0 01.557-.175l.036-.007.032.018c.387.195.75.291 1.012.359.16.043.288.078.387.12.068-.081.17-.17.302-.277.22-.184.494-.416.756-.753l.022-.029.035-.01c.188-.054.384-.082.575-.086.21 0 .384.025.554.046.288.04.537.072.87-.01.768-.192 1.47-.832 2.149-1.45.199-.182.394-.36.582-.517-.025 0-.05 0-.07-.003-.658-.018-1.02-.025-1.666.551l-.093.082-.074-.103c-.15-.203-.387-.334-.636-.313a2.188 2.188 0 01-2.038 1.43h-.06l-.128-.004.017-.128a.336.336 0 00-.096-.285l-.163-.156.22-.04c.55-.095.988-.49 1.144-1.013-.547-.057-.792-.437-1.03-.81-.188-.296-.383-.598-.735-.783a2.14 2.14 0 00-1.179-.316h-.085l-.025-.082c-.174-.583.085-1.123.774-1.603l.135-.096.039.16c.202.8.483.96.842 1.159.12.067.245.138.38.234a.658.658 0 01.202.473.722.722 0 00.28-.732l-.01-.053.035-.043c.277-.327.352-.647.214-.903a.662.662 0 00-.65-.324c-.139.018-.384.1-.473.459l-.085.338-.131-.324c-.117-.288-.043-.608.206-.878.415-.459 1.356-.797 2.748-.38l.068.02.01.072c.11.7-.238 1.102-.571 1.493-.206.235-.398.459-.49.747.007.448.237.814.621.981.34.15.71.096.962-.142l.146-.135.043.195a.854.854 0 001.673 0l.027-.135.128.054c.554.23 1.051-.05 1.307-.36.252-.305.437-.835.117-1.326l-.074-.117.128-.053a.859.859 0 00.475-1.113.861.861 0 00-.752-.537l-.2-.01.11-.168c.189-.288.178-.661-.031-.974a1.05 1.05 0 00-1.069-.445c-.266.143-.451.374-.646.615-.327.402-.66.815-1.371.815h-.071l-.032-.064c-.653-1.302-.458-2.312-.096-2.777.22-.285.53-.416.824-.352l.34.074-.319.143c-.334.149-.373.401-.369.537.01.256.192.5.43.586.28.096.59-.032.873-.366l.036-.043h.053a.728.728 0 00.671-.405.658.658 0 01-.486-.1 3.302 3.302 0 01-.316-.348c-.26-.316-.462-.569-1.279-.633l-.163-.014.07-.15c.36-.764.846-1.112 1.446-1.038l.089.011.01.089c.054.409.217.796.473 1.116.241.324.572.466.891.608.405.178.82.36.959.893.49-.235.817-.736.82-1.287l.004-.22.177.13a.338.338 0 00.302.05l.121-.039.025.125a2.192 2.192 0 01-1.08 2.3c.04.246.192.463.416.576l.113.057-.067.107c-.451.704-.39 1.049-.284 1.678l.021.117c.128-.21.27-.426.42-.65.507-.768 1.033-1.561 1.093-2.347.028-.334-.046-.576-.12-.835a3.623 3.623 0 01-.136-.562 2.286 2.286 0 010-.583l.004-.036.025-.025c.29-.313.48-.615.632-.86.089-.146.16-.26.234-.342-.06-.088-.114-.216-.181-.373-.114-.263-.252-.594-.497-.939l-.021-.032v-.035c.003-.196.032-.388.081-.576.057-.206.135-.377.21-.537.113-.249.22-.48.234-.818.04-.796-.394-1.7-.778-2.496a15.723 15.723 0 01-.316-.679c-.01.04-.024.075-.035.114-.192.608-.295.939.057 1.703l.053.114-.117.042a.772.772 0 00-.49.516 2.154 2.154 0 01.76 2.407l-.043.125-.117-.06a.324.324 0 00-.302 0l-.188.095.025-.21a1.454 1.454 0 00-.643-1.39c-.206.508-.643.633-1.069.754-.337.096-.685.192-.962.48a2.36 2.36 0 00-.66 1.08l-.026.082h-.085c-.607 0-1.047-.408-1.303-1.212l-.05-.156.163.007c.82.039 1.052-.182 1.35-.463.103-.1.213-.199.355-.298a.69.69 0 01.515-.054.724.724 0 00-.618-.487l-.057-.003-.028-.046c-.238-.363-.526-.53-.81-.473a.66.66 0 00-.497.522c-.025.136-.018.391.295.58l.294.181-.344.032c-.298.029-.59-.142-.774-.451-.302-.509-.366-1.533.44-2.745l.04-.06.07.01c.707.1.988.555 1.257.996.164.263.317.515.558.69a.988.988 0 001.26-1.28l-.063-.171.18.018a.815.815 0 00.864-.534c.106-.299.07-.76-.39-1.077l-.104-.071.082-.096c.383-.463.266-1.017.046-1.355-.217-.334-.671-.661-1.232-.501l-.121.035-.021-.124c-.1-.548-.501-.772-.817-.797-.387-.032-.714.192-.842.566l-.067.188-.128-.156c-.22-.263-.579-.363-.938-.256a1.047 1.047 0 00-.738.892c.06.295.224.54.398.8.287.43.585.875.383 1.557l-.021.068-.071.01c-1.424.25-2.333-.23-2.678-.718-.21-.298-.248-.636-.096-.9l.17-.298.043.342c.047.362.274.472.409.508a.664.664 0 00.682-.238c.17-.238.138-.57-.096-.939l-.029-.046.018-.053a.736.736 0 00-.185-.758.651.651 0 01-.248.434 2.82 2.82 0 01-.42.196c-.376.152-.674.273-.962 1.038l-.06.156-.124-.11c-.693-.63-.739-1.173-.618-1.55l-.55-.246c-.224.477-.558.772-1.36.708l-.164-.014.071-.15c.352-.743.139-1.03-.05-1.28a1.066 1.066 0 01-.149-.238c-.07-.17-.085-.554.025-.803-.241.017-.422.273-.64.622l-.024.043-.05.014c-.419.082-.674.263-.72.512-.036.202.074.43.276.554.22.136.48.114.71-.056l.285-.214-.11.342c-.128.405-.54.721-1.02.789-.4.057-1.182-.018-1.931-1.141l-.04-.06.036-.061c.37-.637.913-.825 1.438-1.007.274-.096.533-.185.771-.334.288-.355.344-.839.146-1.237-.164-.324-.448-.505-.771-.484l-.21.014.103-.18c.107-.19.057-.424-.13-.634a1.116 1.116 0 00-1.269-.252l-.117.042-.05-.096c-.277-.533-.905-.682-1.381-.554-.515.135-.806.537-.788 1.07l.007.146-.142-.032c-.53-.114-.973.298-1.08.75-.035.153-.11.665.508.828l.394.104-.39.113a.917.917 0 00-.55.445.918.918 0 00-.075.704.94.94 0 00.458.558c.294.06.603.004.93-.057.543-.1 1.108-.206 1.662.242l.057.046-.014.068c-.249 1.084-.838 1.834-1.577 2.002-.409.092-.796-.022-1.012-.3l-.213-.273.334.093c.266.074.507.007.653-.189a.59.59 0 00.046-.65c-.142-.235-.458-.324-.888-.246l-.05.007-.038-.032c-.277-.213-.455-.338-.66-.26a.476.476 0 01.159.449l-.004.053c-.046.63-.07.974.682 1.692l.117.11-.145.072c-.728.366-1.396.313-1.83-.146l-.063-.068.05-.074a2.46 2.46 0 00.408-1.22c.021-.398-.149-.74-.312-1.066-.206-.416-.423-.847-.192-1.345a1.437 1.437 0 00-1.442.491l-.153.185-.046-.238a.24.24 0 00-.152-.181l-.135-.05.078-.121c.579-.886 1.246-1.216 2.159-1.063a.911.911 0 00-.036-.786l-.064-.121.128-.043c.71-.227.828-.465 1.044-.9.04-.074.078-.156.124-.241-.102.04-.209.078-.312.117-.778.295-1.516.576-2.148 1.227-.235.238-.334.473-.44.722-.072.163-.143.338-.256.519-.21.22-.423.402-.654.562l-.05.018c-.426.056-.784.195-1.072.309-.16.064-.291.114-.398.135.05.427.05.857.004 1.28l-.004.032-.021.025a2.007 2.007 0 01-.437.395c-.174.124-.34.206-.504.284-.242.12-.469.231-.693.476-.532.587-.76 1.504-.976 2.393-.064.264-.128.516-.195.754.032-.021.064-.043.095-.06.537-.345.831-.537 1.045-1.355l.031-.124.118.046c.234.089.5.057.706-.086-.22-.9.164-1.86.949-2.357l.106-.067.057.11c.05.096.138.167.245.188l.199.043-.139.15c-.408.437-.86 1.3-.749 1.905.533-.295 1.1-.217 1.651-.142.345.046.7.096 1.055.06a2.362 2.362 0 001.229-.412l.07-.05.068.053c.465.388.547.982.242 1.764l-.06.153-.122-.11c-.61-.552-.934-.527-1.342-.495a3.567 3.567 0 01-.45.015c-.168 0-.32-.104-.427-.285a.73.73 0 00.17.768l.04.04-.008.053c-.046.43.068.743.324.878.22.117.515.082.717-.085.106-.09.27-.296.16-.644l-.103-.316.273.184c.252.171.37.477.313.84-.09.586-.686 1.425-2.078 1.852l-.067.021-.05-.053c-.483-.52-.415-1.049-.348-1.561.04-.31.078-.604 0-.896a1.052 1.052 0 00-1.062-.47c-.365.065-.642.314-.72.648l-.047.199-.145-.146a.8.8 0 00-.998-.135c-.277.164-.544.548-.387 1.092l.035.12-.124.025c-.59.114-.849.623-.891 1.02-.043.396.1.94.635 1.17l.117.05-.06.11c-.27.491-.1.918.128 1.138a.812.812 0 001.008.096l.174-.106v.202c0 .342.213.644.558.79.305.128.764.138 1.143-.22.142-.267.17-.566.2-.875.049-.516.099-1.046.685-1.444l.06-.04.06.037c1.265.721 1.662 1.667 1.616 2.26-.028.36-.21.637-.49.748l-.32.124.185-.292c.195-.305.089-.537.007-.65a.672.672 0 00-.678-.25c-.284.076-.469.356-.518.787l-.008.053-.046.028a.74.74 0 00-.337.712.66.66 0 01.454-.182h.011c.181.032.316.075.451.114.39.124.7.22 1.417-.185l.142-.082.025.164c.124.835-.085 1.397-.625 1.667l-.078.04-.057-.068a2.184 2.184 0 00-1.012-.676c-.384-.145-.742-.078-1.09-.014-.43.078-.874.16-1.279-.206a1.445 1.445 0 00.029 1.536l.12.185-.22-.01a.337.337 0 00-.28.124l-.082.096-.089-.093a2.172 2.172 0 01-.369-2.514.775.775 0 00-.668-.256l-.128.015v-.128c0-.829-.255-1.099-.681-1.544l-.09-.096c.012.246.012.509.015.78.004.917.007 1.862.387 2.556.16.291.355.455.561.625.139.114.28.235.426.399.132.142.242.305.33.483l.018.032-.007.036a5.02 5.02 0 00-.053 1.084c.004.16.007.288-.004.388.1.043.214.117.352.206.242.16.543.356.941.509l.036.014.02.032c.108.163.193.341.253.53.068.202.096.387.124.565.043.267.086.519.256.803.405.68 1.218 1.163 2.003 1.632.234.14.458.274.664.41l-.032-.11c-.174-.613-.273-.95-.99-1.388l-.107-.067.064-.046a.772.772 0 00.124-.704c-.93-.05-1.74-.7-1.985-1.607l-.032-.121.124-.022a.35.35 0 00.249-.177l.103-.196.1.196c.244.49.755.8 1.295.8h.004c-.11-.541.184-.886.472-1.22.227-.267.462-.54.536-.932.11-.416.1-.842-.021-1.244l-.025-.082.071-.046c.504-.338 1.097-.245 1.758.28l.128.104-.142.085c-.703.423-.77.74-.86 1.138a3.02 3.02 0 01-.117.434.66.66 0 01-.39.33c.22.16.51.189.763.057l.046-.024.05.02c.401.172.732.15.937-.06a.666.666 0 00.121-.714c-.057-.125-.21-.331-.564-.317l-.345.014.266-.216c.235-.192.569-.214.892-.057.532.256 1.157 1.07 1.157 2.524v.071l-.064.032c-.635.313-1.122.093-1.59-.12-.285-.129-.554-.253-.856-.26a1.049 1.049 0 00-.757.874c-.046.374.11.712.409.886l.174.103-.178.096a.815.815 0 00-.419.928c.078.306.366.668.924.672h.124l-.014.124c-.064.598.348.996.717 1.152.366.157.923.178 1.3-.27l.088-.107.086.107a.857.857 0 001.498-.743l-.05-.188.192.056c.33.097.685-.02.923-.312.206-.253.345-.683.114-1.145-.213-.217-.49-.33-.778-.448-.475-.196-.969-.399-1.178-1.074l-.022-.068.053-.05c1.052-.998 2.046-1.116 2.625-.892.337.128.554.388.579.69l.028.345-.227-.263c-.238-.274-.49-.238-.622-.196a.66.66 0 00-.433.58c-.01.291.202.55.6.725l.05.021.014.054c.075.28.305.48.579.526a.67.67 0 01-.04-.498c.082-.163.16-.28.235-.395.227-.34.408-.608.242-1.418l-.032-.16.16.025c.834.12 1.306.487 1.41 1.084l.014.09-.082.035a2.23 2.23 0 00-.934.778c-.238.324-.28.683-.323 1.028-.054.437-.107.889-.58 1.173a1.45 1.45 0 001.467.416l.21-.06-.071.206a.346.346 0 00.039.306l.067.106-.11.057a2.181 2.181 0 01-2.51-.377.773.773 0 00-.43.566l-.021.124-.12-.035c-.807-.231-1.12-.075-1.688.206a.41.41 0 01-.103.06zm3.892-5.512c.128.782-.081 1.095-.305 1.426-.071.11-.15.22-.213.355a.435.435 0 00.135.445l.174.153a1.78 1.78 0 01.312-.775c.238-.349.561-.63.941-.815-.106-.416-.447-.671-1.044-.789zm-10.23-4.796c.184 0 .372.024.571.1.402.127.764.358 1.051.671.36-.22.508-.626.448-1.227-.703.36-1.065.246-1.449.125a2.8 2.8 0 00-.405-.107c-.153-.01-.316.1-.383.26l-.082.188c.078-.003.163-.01.249-.01zm17.638-1.483c.781.096 1.019.388 1.271.7.085.104.17.21.28.313a.426.426 0 00.462-.01l.181-.121a1.798 1.798 0 01-.635-.516 2.434 2.434 0 01-.505-1.134c-.418-.021-.766.235-1.054.768zm.16-2.684c.213.568.529.864.951.9a2.55 2.55 0 01.696-1.096 1.75 1.75 0 01.664-.412l-.166-.14a.432.432 0 00-.476-.049 2.914 2.914 0 00-.316.274c-.288.27-.561.526-1.329.526-.007-.003-.014-.003-.024-.003zM61.224 10.63c.306 0 .636.075 1.101.459.192-.573.135-1-.17-1.298-.38.242-.817.38-1.264.402a3.15 3.15 0 01-.732-.014l.043.131c.053.167.163.349.316.349.16.007.294-.004.426-.011a2.42 2.42 0 01.28-.018zM72.79 7.342c-.128.452.142.871.444 1.177.31-.718.657-.86 1.026-1.01.121-.05.249-.1.38-.174a.42.42 0 00.135-.44l-.06-.207a1.79 1.79 0 01-.675.452 2.413 2.413 0 01-1.143.163l.504.32-.61-.28zM70.674 3.56c.426.349.415.804.408 1.245-.007.348-.014.71.174 1.06.185.373.465.685.813.906l.561.355c.004-.003.004-.01.008-.014l.035-.082.089.015c.405.074.824.032 1.204-.125.38-.135.614-.409.841-.675.288-.335.586-.68 1.133-.655a1.441 1.441 0 00-.977-1.166l-.209-.071.178-.132a.339.339 0 00.138-.266l.004-.125.124.015c.92.11 1.673.807 1.86 1.71a.772.772 0 00.675-.228l.09-.092.08.096c.537.633.878.679 1.5.76.042.008.088.011.134.019-.163-.185-.33-.385-.504-.594-.579-.704-1.179-1.437-1.914-1.732-.305-.124-.561-.128-.827-.128-.178 0-.363-.003-.572-.039a2.335 2.335 0 01-.558-.164l-.035-.014-.018-.032c-.21-.37-.444-.64-.635-.857-.11-.128-.203-.23-.256-.323a2.704 2.704 0 01-.401.06c-.27.029-.643.068-1.052.203l-.035.01-.036-.01a2.07 2.07 0 01-.529-.253c-.18-.117-.32-.241-.454-.359-.203-.177-.39-.348-.703-.458-.746-.27-1.676-.132-2.582.003-.27.04-.526.078-.774.107.032.021.064.046.096.067.522.363.806.559 1.64.445l.125-.018.003.128a.768.768 0 00.348.622 2.18 2.18 0 012.536-.017l.103.07-.082.097a.343.343 0 00-.078.295l.042.217-.202-.09a1.447 1.447 0 00-1.51.214z" fill="#860142"/><path fill-rule="evenodd" clip-rule="evenodd" d="M76.142 11.044a1.31 1.31 0 01-1.331 1.18c-.043.416.33.68.958.711.029 1.398.451 2.475 1.268 3.236a3.25 3.25 0 00-1.775 2.844c-.625-.224-.888 0-1.066.434.664.121.973.63.934 1.525-.71.096-1.317-.081-1.598-.71a.78.78 0 00-.142 1.215 3.375 3.375 0 00-2.347 2.319c-1.108-1.02-2.248-1.405-3.42-1.152a1.005 1.005 0 00-.777-.78c-.107.833-.48 1.299-1.119 1.402a1.366 1.366 0 01.39-1.686 1.136 1.136 0 00-1.175.057c-.749-1.212-1.466-1.777-3-1.777a4.13 4.13 0 00-.132-3.588c.38-.189.6-.59.558-1.01-.625.31-1.208.153-1.74-.466.653-.576 1.289-.64 1.797-.23a.766.766 0 00-.412-.996h-.039c.696-.726 1.001-1.853.92-3.385a3.984 3.984 0 003.138-.967c.313.185.693.23 1.04.128a1.067 1.067 0 01.065-1.55l.05-.043c.642.451.731.853.596 1.422.458.185.8-.078.998-.711a5.404 5.404 0 003.136-.427c.426 1.262 1.178 1.888 2.18 2.49-.128.39-.007.82.305 1.09.483-.597.77-.71 1.733-.579l.007.004z" fill="#007982"/><path d="M71.1 24.004l-.135-.125c-1.073-.992-2.191-1.369-3.32-1.123l-.11.025-.025-.114a.895.895 0 00-.572-.658c-.135.804-.536 1.266-1.193 1.369l-.082.014-.035-.074a1.488 1.488 0 01.284-1.704 1.007 1.007 0 00-.902.121l-.1.068-.064-.1c-.692-1.116-1.36-1.724-2.904-1.724h-.174l.07-.16a3.998 3.998 0 00-.127-3.488l-.053-.103.106-.054a.906.906 0 00.497-.736c-.614.235-1.19.047-1.715-.565l-.075-.085.086-.075c.632-.558 1.271-.672 1.807-.33a.635.635 0 00-.042-.353.641.641 0 00-.334-.341h-.28l.184-.192c.671-.697.97-1.81.888-3.3l-.008-.135.136.018a3.88 3.88 0 003.05-.939l.06-.053.071.043c.235.138.512.192.778.156a1.173 1.173 0 01-.21-.69 1.181 1.181 0 01.405-.878l.117-.1.072.05c.674.473.766.921.663 1.44a.456.456 0 00.324-.02c.177-.086.326-.31.436-.652l.029-.092.096.014a5.295 5.295 0 003.068-.416l.114-.053.039.12c.404 1.199 1.115 1.818 2.13 2.43l.078.045-.028.086a.9.9 0 00.188.889c.472-.555.831-.651 1.758-.527l.039.011.067.036v.081a1.433 1.433 0 01-1.331 1.28.384.384 0 00.092.217c.135.157.401.253.756.27l.107.008.004.106c.028 1.359.44 2.418 1.232 3.154l.12.11-.145.075a3.124 3.124 0 00-1.712 2.745l-.003.16-.15-.053c-.496-.178-.713-.054-.866.245.629.174.927.715.888 1.61l-.004.097-.092.014c-.785.107-1.356-.117-1.655-.65a.665.665 0 00-.017.963l.13.139-.184.05a3.28 3.28 0 00-2.269 2.24l-.053.163zm-2.784-1.55c.912 0 1.807.38 2.674 1.137a3.51 3.51 0 012.209-2.176c-.008-.01-.015-.017-.018-.028a.896.896 0 01.294-1.223l.11-.068.054.118c.227.504.692.725 1.385.657.01-.778-.267-1.205-.845-1.312l-.139-.025.053-.131c.146-.352.398-.726 1.062-.544a3.343 3.343 0 011.694-2.717c-.742-.753-1.143-1.795-1.186-3.104-.373-.035-.65-.152-.813-.341a.63.63 0 01-.15-.487l.011-.103.103.003a1.218 1.218 0 001.2-.97c-.859-.107-1.097.025-1.523.55l-.074.093-.09-.074a1.137 1.137 0 01-.365-1.124c-.987-.6-1.69-1.227-2.113-2.386a5.495 5.495 0 01-2.99.398c-.128.356-.302.59-.525.694-.178.085-.377.082-.594-.004l-.088-.035.021-.096c.117-.487.071-.84-.48-1.252l-.02.021a.955.955 0 00-.018 1.348l.131.135-.181.053a1.42 1.42 0 01-1.058-.1 4.095 4.095 0 01-3.033.957c.057 1.408-.227 2.486-.845 3.211a.873.873 0 01.362 1.085l-.057.138-.117-.096c-.561-.451-1.143-.185-1.562.153.479.509.976.626 1.527.352l.145-.071.018.164c.043.426-.163.842-.519 1.066a4.205 4.205 0 01.15 3.431c1.48.043 2.194.672 2.869 1.735a1.24 1.24 0 011.193 0l.153.082-.139.107c-.447.345-.603.95-.394 1.468.536-.12.845-.54.941-1.287l.014-.12.121.024c.398.082.717.374.838.758.199-.043.401-.064.604-.064z" fill="#860142"/><path fill-rule="evenodd" clip-rule="evenodd" d="M74.427 16.068c1.31-.797-.614-3.012-.07-3.812-.906.22-2.132-2.524-3.424-1.621-.327-1.497-2.89-.224-3.473-.996-.082.928-3.057 1.067-2.62 2.585-1.581-.114-1.269 2.845-2.16 3.104.877.41.2 3.2 1.73 3.2-.625 1.401 2.194 1.903 2.205 2.87.618-.711 3.086.924 3.64-.566 1.179 1.067 2.674-1.532 3.55-1.198-.44-.86 1.83-2.61.63-3.555l-.008-.011z" fill="#fff"/><path d="M66.505 21.696l-.004-.298c-.003-.345-.483-.655-.99-.985-.71-.459-1.51-.97-1.261-1.785-.838-.107-.987-1.049-1.119-1.888-.096-.601-.184-1.166-.497-1.316l-.273-.128.29-.085c.31-.089.47-.644.633-1.23.234-.825.518-1.838 1.417-1.881-.146-.878.792-1.312 1.555-1.664.547-.253 1.066-.494 1.094-.814l.025-.296.177.235c.21.277.778.242 1.382.203.841-.054 1.79-.114 2.07.686.781-.416 1.51.295 2.152.924.44.43.86.84 1.175.761l.288-.07-.167.245c-.195.288 0 .846.21 1.44.294.842.628 1.788-.05 2.321.618.601.142 1.433-.277 2.173-.298.526-.582 1.02-.423 1.33l.135.263-.277-.107c-.305-.117-.76.242-1.243.619-.67.526-1.495 1.173-2.223.654-.404.793-1.413.594-2.23.434-.593-.118-1.15-.224-1.367.025l-.202.234zm.66-.6c.28 0 .607.063.945.131.86.167 1.747.341 2.038-.434l.057-.156.124.114c.615.558 1.346-.015 2.053-.57.45-.351.88-.7 1.26-.69-.056-.387.21-.856.49-1.35.416-.73.846-1.486.231-1.97l-.025-.025-.067-.1.096-.074c.682-.416.376-1.29.078-2.137-.195-.551-.38-1.077-.27-1.458-.376-.046-.767-.43-1.179-.832-.65-.636-1.32-1.29-2-.818l-.138.096-.035-.167c-.167-.771-1.037-.714-1.875-.661-.568.035-1.108.071-1.428-.15-.163.338-.653.566-1.168.804-.799.37-1.626.75-1.4 1.54l.047.156-.163-.01c-.828-.057-1.087.839-1.332 1.713-.153.548-.302 1.067-.6 1.294.284.27.37.808.454 1.37.132.838.267 1.703 1.055 1.703h.174l-.07.16c-.324.721.411 1.194 1.118 1.65.475.305.93.6 1.058.966a.985.985 0 01.472-.096z" fill="#860142"/><path fill-rule="evenodd" clip-rule="evenodd" d="M73.742 4.853c-.494.232-.71.875-.898 1.355.255.167.568.217.862.139a.99.99 0 00.355-.206c.405-.356.44-1.085.91-.957-.437-.355-.824-.48-1.165-.355l-.057.02-.007.004z" fill="#FBA407"/><path d="M73.43 6.496c-.228 0-.455-.067-.647-.192l-.078-.05.075-.195c.184-.477.415-1.07.912-1.305l.075-.029c.373-.138.802-.01 1.275.374l.419.341-.519-.142c-.181-.05-.263.075-.426.384-.096.185-.206.395-.38.547a1.07 1.07 0 01-.394.228c-.103.025-.21.04-.313.04zm-.445-.338c.214.11.459.143.693.079a.834.834 0 00.309-.182c.145-.128.238-.31.33-.483.096-.182.196-.377.355-.47-.312-.202-.586-.26-.827-.17l-.057.021h.004c-.416.196-.629.743-.8 1.184l-.007.021z" fill="#860142"/><path fill-rule="evenodd" clip-rule="evenodd" d="M72.819 6.201a1.082 1.082 0 01-.444-.139 1.032 1.032 0 01-.32-.288.962.962 0 01-.146-.377c-.092-.54.324-1.123-.124-1.312.579 0 .963.14 1.144.463l.02.032c.257.487.04 1.134-.13 1.621z" fill="#FBA407"/><path d="M72.897 6.322l-.09-.007a1.197 1.197 0 01-.49-.153 1.133 1.133 0 01-.354-.32 1.051 1.051 0 01-.167-.427c-.04-.227.003-.458.042-.661.068-.352.075-.49-.099-.562l-.518-.217h.56c.64 0 1.048.17 1.243.52l.018.024c.291.551.046 1.255-.117 1.721l-.028.082zm-.824-2.112c.067.17.028.384-.01.583-.036.192-.075.391-.043.583.017.121.06.231.127.334.075.1.167.189.281.253.096.053.202.092.309.114.149-.427.33-1.02.106-1.444l-.014-.021c-.124-.235-.37-.363-.756-.402z" fill="#860142"/><path fill-rule="evenodd" clip-rule="evenodd" d="M72.986 5.69c.053-.182.078-.37.081-.559.014-.22-.035-.44-.145-.633l-.022-.057c-.11-.355.2-.771.91-1.202.35.733.39 1.227.113 1.483l-.035.032a2.588 2.588 0 00-.91 1.11c-.255.558-.085.16 0-.175h.008z" fill="#FBA407"/><path d="M72.861 6.262c-.018 0-.035-.007-.06-.015-.103-.039-.075-.128-.032-.26.028-.088.067-.213.1-.326l.028-.086c.035-.145.053-.295.056-.444a1.008 1.008 0 00-.13-.576l-.03-.075c-.092-.295.004-.76.956-1.34l.107-.064.053.114c.38.789.408 1.319.088 1.614l-.035.032a2.47 2.47 0 00-.88 1.07c-.128.281-.16.356-.22.356zm.899-2.86c-.572.367-.839.723-.753 1.004l.017.05c.114.195.167.437.153.678 0 .05-.003.104-.007.153.178-.245.398-.458.65-.633l.025-.02c.224-.2.195-.616-.085-1.231z" fill="#860142"/><path fill-rule="evenodd" clip-rule="evenodd" d="M77.541 8.178c.285.355.785.562.736 1.091a.733.733 0 01-.2.434l-.063.06c-.089.086-.142.061-.249 0a.56.56 0 01-.085-.053.796.796 0 01-.213-.249c-.266-.476.035-.817.075-1.29v.007z" fill="#F0A633"/><path d="M77.907 9.93a.396.396 0 01-.199-.07.618.618 0 01-.099-.06.894.894 0 01-.245-.285c-.203-.36-.114-.655-.029-.943.04-.131.079-.27.093-.412l.128.004.074-.06c.078.095.174.184.277.273.245.22.522.47.483.9a.833.833 0 01-.23.5l-.068.065c-.068.067-.128.089-.185.089zm-.29-1.51c-.019.074-.04.145-.061.216-.082.274-.146.491.01.769a.63.63 0 00.252.256c.029.014.075.042.09.042 0 0 .01-.003.028-.025l.064-.06a.643.643 0 00.163-.363c.028-.316-.174-.498-.408-.707a2.242 2.242 0 01-.139-.128z" fill="#860142"/><path fill-rule="evenodd" clip-rule="evenodd" d="M80.03 8.597c-.08.658-.46 1.675-1.853 1.145.469-1.216.927-1.184 1.854-1.145z" fill="#F0A633"/><path d="M78.88 10.002c-.224 0-.472-.053-.742-.157l-.107-.039.043-.106c.494-1.28 1.005-1.26 1.935-1.22l.125.004.014.124c-.043.338-.185.946-.664 1.234a1.14 1.14 0 01-.604.16zm-.554-.327c.426.142.774.135 1.037-.025.348-.21.483-.644.536-.946-.806-.032-1.171-.01-1.573.97z" fill="#860142"/><path fill-rule="evenodd" clip-rule="evenodd" d="M79.21 11.179c-.145-.437-.038-.964-.51-1.213a.74.74 0 00-.47-.07h-.085c-.117.028-.128.085-.142.202a.493.493 0 000 .103.89.89 0 00.093.317c.252.483.71.416 1.118.643l-.004.018z" fill="#F0A633"/><path d="M79.239 11.591l-.128-.359a1.854 1.854 0 00-.348-.124c-.284-.086-.579-.175-.767-.537a.993.993 0 01-.103-.36.738.738 0 010-.124c.014-.113.032-.252.227-.302l.114-.004a.807.807 0 01.522.086c.383.202.437.569.487.889.017.106.031.22.06.323l.043.025-.107.487zm-.88-1.596a.577.577 0 00-.11.01h-.107c-.018.008-.018.008-.029.104a.292.292 0 000 .078.78.78 0 00.082.277c.146.277.359.341.632.423.071.022.142.043.213.068l-.028-.17c-.046-.31-.086-.577-.366-.723a.67.67 0 00-.288-.067z" fill="#860142"/><path fill-rule="evenodd" clip-rule="evenodd" d="M80.787 16.854c-.312-.452-.984-.566-1.488-.651a1.05 1.05 0 00-.089.455.983.983 0 00.103.416c.06.124.146.235.252.324.43.355 1.144.245 1.098.729.28-.495.33-.897.145-1.21l-.02-.063z" fill="#F0A633"/><path d="M80.5 18.642l.05-.53c.017-.181-.107-.238-.434-.338-.202-.064-.437-.135-.625-.291a1.039 1.039 0 01-.28-.363 1.095 1.095 0 01-.114-.462 1.17 1.17 0 01.1-.505l.035-.082.088.014c.515.09 1.222.207 1.563.697l.014.029.021.064c.196.327.146.771-.152 1.301l-.267.466zm-1.13-2.315a.902.902 0 00-.046.324.901.901 0 00.316.654c.156.128.355.192.547.253.188.056.39.12.504.26.146-.342.153-.62.022-.844l-.025-.067c-.274-.38-.856-.498-1.318-.58z" fill="#860142"/><path fill-rule="evenodd" clip-rule="evenodd" d="M79.303 16.185a1.082 1.082 0 01.06-.462.985.985 0 01.228-.356 1 1 0 01.355-.213c.514-.185 1.164.124 1.27-.355.115.568.03.97-.255 1.208l-.032.025c-.436.327-1.108.228-1.615.153h-.011z" fill="#F0A633"/><path d="M80.084 16.37c-.273 0-.55-.04-.785-.075h-.103l-.007-.103a1.194 1.194 0 01.068-.512c.057-.15.142-.284.252-.398.117-.11.252-.188.398-.242.216-.078.447-.074.657-.074.355.003.5-.011.54-.2l.117-.526.106.53c.12.608.021 1.053-.295 1.32l-.035.028c-.256.195-.583.252-.913.252zm-.671-.284c.483.067 1.076.135 1.449-.146l.028-.025c.203-.17.288-.437.256-.814-.156.103-.377.1-.586.096-.195-.004-.398-.004-.579.06a.891.891 0 00-.316.189.889.889 0 00-.199.313 1.019 1.019 0 00-.053.327z" fill="#860142"/><path fill-rule="evenodd" clip-rule="evenodd" d="M80.393 16.235c.22-.025.426-.117.593-.26l.053-.028c.355-.17.796.06 1.339.686-.657.473-1.136.594-1.438.356l-.036-.029a2.335 2.335 0 00-.912-.593c-1.044-.402-.515 0 .397-.15l.004.018z" fill="#F0A633"/><path d="M81.299 17.22a.676.676 0 01-.43-.146l-.036-.028a2.27 2.27 0 00-.88-.576c-.167-.064-.295-.107-.38-.136-.135-.02-.231-.056-.256-.099l-.039-.071.053-.06c.032-.036.057-.068.295.006.16.025.43.043.742-.01l.11-.018.004.018a.988.988 0 00.43-.217l.074-.043c.408-.199.891.036 1.477.711l.082.096-.103.072c-.458.337-.838.5-1.143.5zm-1.048-.871c.273.128.525.31.735.533l.025.018c.238.188.643.092 1.197-.288-.466-.509-.842-.697-1.119-.565l-.05.024c-.163.146-.39.242-.632.274l-.106.014-.004-.014a.2.2 0 00-.046.004z" fill="#860142"/><path fill-rule="evenodd" clip-rule="evenodd" d="M71.398 27.353c.284-.466.117-1.127 0-1.625a1.033 1.033 0 00-.788.356 1.045 1.045 0 00-.178.355c-.131.53.238 1.145-.22 1.298.561.06.952-.057 1.161-.355l.036-.054-.011.025z" fill="#FBA407"/><path d="M70.663 28.775l.444-1.03c-.234.11-.536.142-.906.102l-.518-.056.493-.164c.178-.06.178-.2.139-.555-.021-.206-.05-.437.007-.661.04-.146.107-.28.199-.398.22-.256.533-.399.866-.399h.103l.029.128c.067.292.152.648.149.989l.348-.526-.405.938a1.13 1.13 0 01-.117.27l-.831 1.362zm.646-2.933a.915.915 0 00-.614.313.814.814 0 00-.153.31c-.046.184-.025.383 0 .579.022.203.046.427-.035.59.369-.003.628-.11.777-.323l.054-.079c.195-.39.078-.935-.029-1.39z" fill="#860142"/><path fill-rule="evenodd" clip-rule="evenodd" d="M71.398 25.714c.135-.067.28-.106.43-.113a.998.998 0 01.422.06.955.955 0 01.334.231c.377.398.355 1.117.835 1.024-.473.334-.877.42-1.211.253h-.032c-.476-.267-.657-.925-.792-1.423l.014-.032z" fill="#FBA407"/><path d="M72.563 27.364a.912.912 0 01-.38-.082h-.036l-.025-.014c-.522-.292-.71-.985-.845-1.493l-.01-.04.046-.106.035-.018c.15-.075.31-.117.476-.124.157-.015.32.01.469.067.146.06.273.15.376.26.16.167.252.384.33.572.143.33.21.455.398.416l.519-.1-.43.306c-.337.235-.646.356-.923.356zm-.355-.313l.053.01c.234.118.522.086.856-.092-.156-.103-.242-.306-.323-.498-.078-.18-.157-.366-.288-.508a.842.842 0 00-.295-.203.995.995 0 00-.692.018c.117.455.287 1.031.689 1.273z" fill="#860142"/><path fill-rule="evenodd" clip-rule="evenodd" d="M71.565 26.287c.057.156.128.306.217.448.113.192.28.345.48.444l.045.032c.299.25.266.754-.085 1.508-.71-.413-1.008-.8-.92-1.167v-.05c.114-.259.174-.536.178-.82.021-.655-.299-1.423.074-.395h.011z" fill="#FBA407"/><path d="M72.272 28.879l-.107-.064c-.76-.441-1.076-.864-.973-1.291l-.003-.046.01-.022c.107-.245.164-.508.167-.778.01-.317-.06-.658-.092-.804-.014-.07-.036-.17.067-.199.103-.028.128.036.192.213l.103.285.04.075c.052.149.12.291.205.426.107.174.256.313.433.402l.06.04c.352.294.335.831-.045 1.649l-.057.114zm-.856-1.355v.025c-.075.32.181.65.756 1.003.277-.637.299-1.06.064-1.26l-.039-.024a1.25 1.25 0 01-.511-.48 2.2 2.2 0 01-.089-.157v.047c-.007.295-.067.58-.181.846z" fill="#860142"/><path fill-rule="evenodd" clip-rule="evenodd" d="M58.533 21.138c.525.153 1.118-.178 1.566-.427a1.002 1.002 0 00-.572-.672.954.954 0 00-.398-.074c-.547 0-1.044.526-1.31.12.089.562.302.907.643 1.035h.056l.015.018z" fill="#FBA407"/><path d="M58.813 21.287c-.106 0-.21-.014-.312-.042l-.078-.022c-.38-.142-.618-.519-.714-1.123l-.082-.523.291.44c.103.154.235.122.561-.006.196-.078.416-.164.654-.164a1.05 1.05 0 01.444.086c.152.064.287.167.397.288.114.131.2.291.242.458l.021.086-.078.042c-.38.21-.867.48-1.346.48zm-.217-.252c.444.107.963-.16 1.364-.38a.907.907 0 00-.48-.516.841.841 0 00-.347-.064c-.2 0-.387.075-.576.15-.188.074-.39.152-.568.116.096.349.26.57.494.665h.089l.024.029z" fill="#860142"/><path fill-rule="evenodd" clip-rule="evenodd" d="M60.102 20.729a1.023 1.023 0 01.295.821.913.913 0 01-.139.38c-.284.467-.983.634-.77 1.067-.444-.355-.632-.735-.558-1.102v-.039c.132-.53.71-.875 1.162-1.13l.01.003z" fill="#FBA407"/><path d="M59.815 23.403l-.398-.32c-.6-.48-.657-.925-.597-1.213l-.003-.017c.138-.576.678-.925 1.218-1.23l.042-.026.103.047c.124.12.22.274.274.44a1.032 1.032 0 01-.103.903c-.121.196-.306.342-.465.47-.281.22-.38.32-.299.487l.227.459zm.259-2.539c-.473.27-.924.576-1.034 1.017l.004.01c-.064.328.103.612.309.826.057-.175.234-.313.394-.441.156-.121.316-.25.416-.413a.832.832 0 00.124-.334.92.92 0 00-.046-.377.872.872 0 00-.167-.288z" fill="#860142"/><path fill-rule="evenodd" clip-rule="evenodd" d="M59.225 21.373c-.139.17-.242.366-.305.576l-.022.053c-.163.356-.657.452-1.473.306.213-.782.51-1.18.887-1.191h.05c.323.046.657.021.97-.075 1.274-.356.415-.391-.107.33z" fill="#FBA407"/><path d="M58.067 22.486c-.191 0-.411-.022-.664-.068l-.12-.021.032-.121c.227-.836.56-1.262.994-1.277h.053c.323.043.64.022.938-.07.142-.04.255-.075.344-.107.174-.11.323-.16.387-.14l.078.03v.085c0 .053-.003.11-.366.234a1.573 1.573 0 00-.426.402l-.003.004c-.128.16-.224.341-.284.537l-.025.06c-.139.306-.444.452-.938.452zm-.497-.27c.686.106 1.097.017 1.225-.264l.018-.046c.064-.217.174-.42.32-.604.028-.04.06-.079.092-.114-.284.067-.59.082-.88.039h-.033c-.365.01-.6.52-.742.988z" fill="#860142"/><path fill-rule="evenodd" clip-rule="evenodd" d="M60.603 7.385c.025.544.529 1.003.909 1.344a.961.961 0 00.32-.356.979.979 0 00.134-.405.866.866 0 00-.056-.402c-.185-.515-.835-.821-.537-1.205-.5.267-.756.58-.77.942v.082z" fill="#FBA407"/><path d="M61.501 8.871l-.067-.06c-.387-.349-.92-.825-.948-1.422v-.086c.014-.409.294-.757.83-1.042l.47-.248-.327.42c-.118.148-.04.266.191.54.132.156.284.337.363.554a.973.973 0 01.064.452 1.11 1.11 0 01-.15.451 1.099 1.099 0 01-.355.391l-.07.05zm-.785-1.49c.022.47.455.886.803 1.199a.857.857 0 00.213-.263.861.861 0 00.12-.363.778.778 0 00-.049-.349c-.067-.184-.195-.34-.323-.49-.131-.157-.273-.327-.295-.512-.305.21-.458.44-.469.7v.078z" fill="#860142"/><path fill-rule="evenodd" clip-rule="evenodd" d="M61.498 8.743c-.071.139-.17.26-.295.356a.977.977 0 01-.387.185.865.865 0 01-.405 0c-.533-.121-.916-.712-1.257-.388.202-.544.49-.836.86-.885h.038c.544-.043 1.066.405 1.446.74v-.008z" fill="#FBA407"/><path d="M60.613 9.419c-.078 0-.152-.011-.23-.029-.224-.05-.423-.178-.597-.288-.295-.188-.426-.252-.558-.128l-.355.338.17-.459c.218-.58.537-.903.953-.96h.053c.536-.042 1.044.352 1.406.669l.15-.295v.729l-.09-.079c-.067.1-.152.192-.248.267-.124.1-.274.17-.43.206a.773.773 0 01-.224.029zm-1.242-.733c.184 0 .369.118.54.228.166.106.337.213.525.26a.735.735 0 00.351 0 .922.922 0 00.561-.402c-.337-.296-.813-.683-1.288-.648h-.05c-.26.036-.472.22-.646.562h.007z" fill="#860142"/><path fill-rule="evenodd" clip-rule="evenodd" d="M61.1 8.413a2.255 2.255 0 00-.494-.3 1.142 1.142 0 00-.642-.102h-.057c-.387-.04-.64-.477-.767-1.298.81-.05 1.282.103 1.42.459a.103.103 0 010 .046c.103.47.334.903.668 1.248.412.444.174.192-.135-.05l.007-.003z" fill="#FBA407"/><path d="M61.455 8.825c-.05 0-.103-.043-.163-.1-.064-.056-.164-.138-.267-.224l-.138-.11h.004a2.233 2.233 0 00-.327-.178 1.035 1.035 0 00-.583-.096h-.07c-.459-.046-.74-.5-.881-1.393l-.018-.125.124-.007c.874-.053 1.374.121 1.534.53.007.032.011.06.011.082.1.44.32.846.636 1.173.298.32.298.32.22.402-.032.035-.057.046-.082.046zm-1.339-.939c.181 0 .37.043.54.125.043.018.085.039.124.06a2.755 2.755 0 01-.33-.828l-.007-.025.007-.025c-.106-.267-.504-.395-1.175-.373.124.682.34 1.045.646 1.077h.046c.046-.007.1-.01.15-.01z" fill="#860142"/><path fill-rule="evenodd" clip-rule="evenodd" d="M78.799 21.558c-.26.377-.302.913-.824 1.024a.772.772 0 01-.472-.064l-.079-.04c-.106-.06-.1-.12-.078-.238.007-.032.014-.067.025-.1.04-.102.1-.198.178-.277.376-.39.788-.206 1.25-.305z" fill="#F0A633"/><path d="M77.836 22.706a.853.853 0 01-.383-.089l-.082-.039c-.184-.107-.16-.245-.138-.359a.95.95 0 01.028-.114.934.934 0 01.206-.323c.284-.296.593-.299.888-.303.135 0 .277-.003.419-.035l.28-.06-.163.234c-.071.107-.128.231-.185.349-.135.295-.287.632-.71.721a.613.613 0 01-.16.018zm.75-1.006c-.079.003-.153.007-.228.007-.284.003-.508.007-.728.235a.653.653 0 00-.152.238.876.876 0 00-.022.082c-.017.096-.017.096.022.117l.074.035a.65.65 0 00.401.054c.306-.064.416-.31.547-.594.029-.057.054-.117.086-.174z" fill="#860142"/><path fill-rule="evenodd" clip-rule="evenodd" d="M79.14 24.06c-.65.115-1.733.054-1.638-1.421 1.3.092 1.4.536 1.638 1.422z" fill="#F0A633"/><path d="M78.728 24.21c-.313 0-.675-.067-.945-.31-.298-.266-.43-.696-.394-1.268l.007-.114.114.007c1.36.096 1.498.611 1.729 1.465l.043.16-.125.021a2.4 2.4 0 01-.43.04zm-1.119-1.45c-.01.44.1.767.323.97.302.27.757.274 1.062.235-.206-.768-.33-1.11-1.385-1.206z" fill="#860142"/><path fill-rule="evenodd" clip-rule="evenodd" d="M76.437 24.032c.355-.263.906-.32 1.005-.842a.742.742 0 00-.071-.47.33.33 0 00-.043-.078c-.06-.107-.12-.1-.238-.078l-.099.028a.898.898 0 00-.273.182c-.384.384-.192.796-.281 1.258z" fill="#F0A633"/><path d="M76.27 24.296l.053-.288c.029-.143.025-.281.025-.416-.003-.3-.003-.608.288-.9a1.02 1.02 0 01.309-.206l.114-.032c.124-.022.266-.05.369.131a.374.374 0 01.05.093c.081.153.11.348.078.53-.082.42-.412.58-.707.721-.124.06-.245.118-.345.192l-.234.175zm.913-1.633a.44.44 0 00-.075.011l-.089.025a.799.799 0 00-.227.153c-.224.224-.22.448-.22.736 0 .071 0 .146-.004.224.057-.032.118-.06.174-.085.281-.136.522-.253.583-.559a.61.61 0 00-.06-.394c-.011-.029-.022-.047-.032-.064-.015-.036-.022-.047-.05-.047z" fill="#860142"/><path fill-rule="evenodd" clip-rule="evenodd" d="M66.213 26.76c-.433-.14-.962-.029-1.214-.498a.77.77 0 01-.078-.47.143.143 0 01.018-.085c.028-.12.085-.131.202-.146h.103a.82.82 0 01.316.09c.487.248.426.71.653 1.108z" fill="#FBA407"/><path d="M66.327 27.193l-.192-.341a2.614 2.614 0 00-.34-.06c-.324-.047-.693-.097-.895-.477a.891.891 0 01-.09-.54.233.233 0 01.022-.107c.05-.188.181-.206.295-.22h.117c.135.01.256.042.37.103.365.188.457.483.546.768.036.117.075.234.132.345l.039.01v.52h-.004zm-1.09-1.521h-.096c-.082.01-.082.01-.092.056l-.01.029v.014l-.008.032a.646.646 0 00.067.398c.15.278.416.317.728.36.06.006.125.017.185.028-.025-.071-.046-.142-.07-.21-.082-.263-.154-.49-.434-.633a.782.782 0 00-.27-.074z" fill="#860142"/><path fill-rule="evenodd" clip-rule="evenodd" d="M63.92 27.805c-.299-.59-.55-1.646.898-1.984.288 1.273-.107 1.497-.898 1.984z" fill="#FBA407"/><path d="M63.873 27.965l-.056-.11c-.153-.303-.377-.89-.139-1.394.17-.366.547-.619 1.112-.75l.11-.025.024.11c.302 1.337-.13 1.604-.92 2.087l-.13.082zm.86-2.006c-.434.121-.718.32-.845.598-.17.366-.043.8.081 1.084.686-.423.973-.643.764-1.682z" fill="#860142"/><path fill-rule="evenodd" clip-rule="evenodd" d="M63.167 25.22c.355.28.568.779 1.097.711a.782.782 0 00.43-.203l.06-.064c.085-.089.06-.146 0-.249a.455.455 0 00-.053-.088.896.896 0 00-.252-.21c-.48-.26-.817.046-1.286.092l.004.01z" fill="#FBA407"/><path d="M64.168 26.048c-.369 0-.596-.252-.802-.473a2.124 2.124 0 00-.27-.266l-.029-.022-.056-.177.142-.015c.142-.014.277-.056.408-.096.284-.088.579-.177.941.018a.98.98 0 01.288.238c.028.036.05.075.067.114.05.085.128.217-.021.373l-.06.064a.905.905 0 01-.498.239c-.039.003-.074.003-.11.003zm-.767-.768c.046.046.089.096.132.142.213.235.394.434.713.395a.642.642 0 00.366-.174l.057-.06a.127.127 0 00.025-.032.341.341 0 00-.04-.082.395.395 0 00-.045-.079.702.702 0 00-.217-.177c-.28-.153-.494-.086-.767 0a2.06 2.06 0 01-.224.067z" fill="#860142"/><path fill-rule="evenodd" clip-rule="evenodd" d="M57.648 16.26c.022-.455-.223-.939.164-1.305a.769.769 0 01.433-.196h.089c.12 0 .149.05.191.16a.32.32 0 01.029.1.725.725 0 010 .327c-.114.533-.561.594-.902.921l-.004-.007z" fill="#FBA407"/><path d="M57.62 16.452l-.082-.164-.003-.039c.007-.124-.01-.26-.029-.39-.039-.328-.088-.694.228-.993a.89.89 0 01.497-.227h.103c.21 0 .259.135.298.234a.45.45 0 01.035.128.754.754 0 01-.003.366c-.085.402-.345.57-.597.73-.113.074-.234.149-.337.248l-.11.107zm.625-1.582a.633.633 0 00-.355.167c-.227.217-.196.483-.156.796.007.068.017.132.02.2.065-.047.129-.086.19-.125.24-.153.429-.274.496-.587a.61.61 0 000-.277.208.208 0 00-.021-.078c-.036-.096-.036-.096-.089-.096h-.085z" fill="#860142"/><path fill-rule="evenodd" clip-rule="evenodd" d="M56.047 14.311c.49-.44 1.445-.96 2.13.356-1.154.597-1.473.284-2.13-.356z" fill="#FBA407"/><path d="M57.169 15.097c-.476 0-.778-.295-1.2-.704l-.09-.085.09-.082c.252-.228.76-.594 1.31-.494.394.07.731.37.998.882l.053.1-.103.052c-.447.232-.781.331-1.058.331zm-.955-.782c.568.547.859.768 1.807.302-.224-.388-.486-.608-.781-.661-.398-.071-.785.163-1.026.359z" fill="#860142"/><path fill-rule="evenodd" clip-rule="evenodd" d="M58.358 12.91c-.177.42-.603.75-.411 1.249.06.149.166.273.305.355l.078.043c.107.057.153.021.242-.06a.77.77 0 00.206-.373c.127-.53-.253-.776-.42-1.22v.007z" fill="#FBA407"/><path d="M58.422 14.695a.29.29 0 01-.145-.042l-.078-.043a.854.854 0 01-.355-.412c-.157-.406.042-.719.22-.996.067-.103.135-.21.18-.32v-.608l.221.587c.05.135.128.256.199.373.156.252.32.512.224.914a.836.836 0 01-.242.43c-.057.057-.124.117-.224.117zm-.067-1.532c-.032.057-.067.11-.103.163-.17.264-.316.495-.202.79.05.12.142.231.259.299l.074.039c.025.014.036.014.036.014.014-.004.057-.043.075-.057a.268.268 0 00.053-.057c.06-.078.1-.163.12-.256.075-.313-.042-.501-.195-.743-.039-.064-.078-.125-.117-.192z" fill="#860142"/><path fill-rule="evenodd" clip-rule="evenodd" d="M64.914 5.102c.423-.17.76-.594 1.254-.39a.76.76 0 01.355.312l.042.075c.053.11.018.156-.067.241a.458.458 0 01-.075.068.857.857 0 01-.302.135c-.529.117-.77-.267-1.21-.44h.003z" fill="#FBA407"/><path d="M65.93 5.678c-.285 0-.49-.135-.693-.266a2.057 2.057 0 00-.37-.207l-.553-.22h.579c.11-.046.216-.114.323-.178.28-.174.596-.37.994-.203.17.075.316.203.409.36l.042.074c.096.196-.003.299-.085.377a.497.497 0 01-.089.078.94.94 0 01-.344.153.66.66 0 01-.213.032zm-.76-.576c.067.04.131.079.191.121.238.157.43.278.736.21a.713.713 0 00.259-.117.377.377 0 00.056-.05c.072-.071.072-.071.05-.117l-.039-.068a.64.64 0 00-.302-.263c-.29-.121-.522.021-.788.188-.053.029-.106.064-.163.096z" fill="#860142"/><path fill-rule="evenodd" clip-rule="evenodd" d="M66.018 2.845c.608.266 1.474.92.568 2.105-1.03-.797-.87-1.224-.568-2.105z" fill="#FBA407"/><path d="M66.608 5.106l-.09-.071c-1.082-.84-.915-1.323-.613-2.205l.039-.117.12.021c.313.135.856.448.995.989.1.39-.029.825-.384 1.287l-.067.096zM66.086 3c-.26.764-.345 1.12.48 1.785.258-.37.35-.704.272-1-.099-.394-.475-.646-.752-.785z" fill="#860142"/><path fill-rule="evenodd" clip-rule="evenodd" d="M68.27 4.356c-.455 0-.93-.239-1.304.142a.738.738 0 00-.202.434v.085c0 .124.043.15.153.196a.724.724 0 00.426.032c.536-.104.6-.552.934-.89h-.007z" fill="#FBA407"/><path d="M67.18 5.376a.882.882 0 01-.192-.021.504.504 0 01-.117-.04c-.125-.053-.22-.106-.22-.298v-.085a.857.857 0 01.234-.512c.309-.317.685-.263 1.019-.214.12.018.249.036.37.036h.28l-.192.192c-.103.103-.177.22-.252.334-.163.25-.334.509-.739.587a.906.906 0 01-.191.021zm.333-.981a.603.603 0 00-.635.547v.072c0 .056 0 .056.081.088.029.011.054.022.078.025a.607.607 0 00.277 0c.317-.06.44-.249.597-.487.043-.064.085-.128.131-.192a2.562 2.562 0 01-.174-.025c-.124-.01-.245-.028-.355-.028z" fill="#860142"/><path d="M12.596 17.582l-.213-.736c4.14-.778 6.942-2.809 6.942-7.3 0-6.001-4.702-8.031-10.007-8.177v21.308c0 5.387.82 6.479 6.21 7.165v.733a470.654 470.654 0 00-15.528 0v-.733c5.309-.512 5.348-2.457 5.348-7.165V7.907c0-4.266-.26-6.264-5.004-6.652V.476c3.449 0 6.9-.085 10.352-.085 5.39 0 13.025.864 13.025 7.861.004 6.436-5.59 8.68-11.125 9.33z" fill="#007982"/><path d="M46.633 30.624c-8.281-.085-16.52-.042-24.804-.042v-.74c5.394-.384 5.607-2.457 5.607-7.339V7.861c0-4.707-.647-6.133-5.607-6.606V.476c5.05.09 10.053.09 15.099 0v.779c-4.876.388-5.565 1.988-5.565 6.606v15.464c0 5.745-.174 6.005 5.65 6.005 6.687 0 8.37-1.34 11.52-7.172l.56.26-2.46 8.206zm60.663-20.021c-2.759 6.674-5.472 13.305-8.107 20.021h-.447L89.067 7.02c-1.15-2.845-2.304-5.767-5.841-5.892v-.74c4.442.082 8.885.082 13.33 0v.74c-1.523 0-4.154.249-4.154 2.308 0 3.171 7.404 19.69 7.858 20.843.533-1.277 7.653-17.26 7.653-20.513 0-2.389-2.841-2.556-4.616-2.638v-.74c3.948.082 7.897.082 11.85 0v.74c-4.521 0-6.414 6.016-7.852 9.476z" fill="#007982"/></svg>