<svg width="156" height="69" viewBox="0 0 156 69" fill="none" xmlns="http://www.w3.org/2000/svg">
<path d="M3.56187 60.0207L1.55033 66.2397H0V52.8607H1.31695V62.8546L2.68946 58.6232L4.63988 52.8607H6.30135V66.2564H4.96773V55.5777L3.56187 60.0207Z" fill="#00787C"/>
<path d="M9.30194 60.1988V66.2285H7.83496V52.8607H9.30194V58.8904H12.586V52.8607H14.0752V66.2564H12.586V60.1988H9.30194Z" fill="#00787C"/>
<path d="M21.9213 54.4141C24.0606 54.4141 25.0164 55.639 25.0164 57.7658V61.4348C25.0164 63.5617 24.0662 64.7865 21.9213 64.7865H20.9877V66.262H19.5152V64.7865H18.5817C16.4423 64.7865 15.4866 63.5617 15.4866 61.4348V57.7658C15.4866 55.639 16.4368 54.4141 18.5817 54.4141H19.5152V52.8607H20.9877V54.4308L21.9213 54.4141ZM18.5817 55.7336C17.4537 55.7336 16.9591 56.3794 16.9591 57.6656V61.5128C16.9591 62.7989 17.4537 63.4615 18.5817 63.4615H19.5152V55.7336H18.5817ZM21.9213 63.467C23.0493 63.467 23.5716 62.7989 23.5716 61.5184V57.6711C23.5716 56.385 23.0715 55.7392 21.9213 55.7392H20.9877V63.467H21.9213Z" fill="#00787C"/>
<path d="M26.3501 56.0789C26.3501 54.03 27.3614 52.7104 29.4007 52.7104C31.4401 52.7104 32.4514 54.03 32.4514 56.0789V63.005C32.4514 65.0372 31.4401 66.3734 29.4007 66.3734C27.3614 66.3734 26.3501 65.0316 26.3501 63.005V56.0789ZM27.8226 63.0885C27.8226 64.3134 28.3394 65.0204 29.4119 65.0204C30.4788 65.0204 31.0011 64.3134 31.0011 63.0885V56.0065C31.0011 54.7816 30.501 54.0745 29.4119 54.0745C28.3283 54.0745 27.8226 54.8039 27.8226 56.0065V63.0885Z" fill="#00787C"/>
<path d="M36.819 52.8607C38.9194 52.8607 39.8141 54.0856 39.8141 56.1345V57.7547C39.8141 59.8815 38.8194 60.9894 36.7023 60.9894H35.3853V66.2731H33.8961V52.8607H36.819ZM36.7023 59.6365C37.8136 59.6365 38.3415 59.1243 38.3415 57.8382V56.0398C38.3415 54.8149 37.9025 54.2081 36.8134 54.2081H35.3798V59.6198L36.7023 59.6365Z" fill="#00787C"/>
<path d="M45.9043 66.2231H44.454L42.2369 55.5666V66.2453H40.9366V52.8663H43.0204L45.2153 63.5673L47.3324 52.8663H49.4162V66.262H48.0048V55.472L45.9043 66.2231Z" fill="#00787C"/>
<path d="M52.4779 63.545L51.9611 66.2397H50.5886L53.1447 52.8607H55.3062L57.879 66.2397H56.3898L55.8786 63.545H52.4779ZM52.6668 62.2588H55.6452L54.1393 54.531L52.6668 62.2588Z" fill="#00787C"/>
<path d="M64.9861 68.038V66.2397H59.1627V52.8607H60.6352V64.9035H63.9192V52.8607H65.4251V64.9369H66.4253V68.0547L64.9861 68.038Z" fill="#00787C"/>
<path d="M71.2263 60.0596L69.2592 66.2397H67.7089V52.8607H69.0258V62.8546L70.2094 59.1855L72.3487 52.8886H74.0102V66.2842H72.671V55.5833L71.2263 60.0596Z" fill="#00787C"/>
<path d="M78.9836 60.5162C77.7611 60.5162 77.0332 61.0006 77.0332 62.5094V64.6139C77.0776 65.1651 76.9943 65.7275 76.7887 66.2397H75.2772C75.4884 65.733 75.5828 65.1818 75.5439 64.6306V62.5428C75.5439 61.1063 75.9996 60.0986 77.211 59.7478C76.0829 59.386 75.5606 58.4617 75.5606 56.9919V55.9173C75.5606 53.9297 76.4386 52.8607 78.5446 52.8607H81.523V66.2564H80.0338V60.5329L78.9836 60.5162ZM78.5779 54.2081C77.4666 54.2081 77.0276 54.8205 77.0276 56.0398V57.3259C77.0276 58.7791 77.7333 59.1577 78.9002 59.1577H80.0282V54.2025L78.5779 54.2081Z" fill="#00787C"/>
<path d="M94.8648 56.0789V57.3037H93.4534V56.0232C93.4534 54.7983 92.97 54.0912 91.8864 54.0912C90.8028 54.0912 90.3194 54.8206 90.3194 56.0232V63.1052C90.3194 64.3301 90.8195 65.0372 91.8864 65.0372C92.9533 65.0372 93.4534 64.3078 93.4534 63.1052V61.3625H94.8648V63.0273C94.8648 65.0594 93.9146 66.3957 91.8475 66.3957C89.7859 66.3957 88.8469 65.0539 88.8469 63.0273V56.0789C88.8469 54.0467 89.8026 52.7104 91.8475 52.7104C93.8924 52.7104 94.8648 54.0467 94.8648 56.0789Z" fill="#00787C"/>
<path d="M96.1039 56.0789C96.1039 54.03 97.1152 52.7104 99.1545 52.7104C101.194 52.7104 102.205 54.03 102.205 56.0789V63.005C102.205 65.0372 101.194 66.3734 99.1545 66.3734C97.1152 66.3734 96.1039 65.0316 96.1039 63.005V56.0789ZM97.5486 63.0885C97.5486 64.3134 98.0654 65.0204 99.1379 65.0204C100.205 65.0204 100.727 64.3134 100.727 63.0885V56.0065C100.727 54.7816 100.227 54.0745 99.1379 54.0745C98.0488 54.0745 97.5486 54.8039 97.5486 56.0065V63.0885Z" fill="#00787C"/>
<path d="M112.569 52.8607C114.652 52.8607 115.469 53.8573 115.469 55.8283V56.4407C115.469 57.8549 115.075 58.7345 113.908 59.102C115.202 59.4639 115.703 60.4939 115.703 61.9693V63.0996C115.703 65.1039 114.725 66.2341 112.652 66.2341H109.601V52.8607H112.569ZM112.202 58.5508C113.385 58.5508 113.997 58.1666 113.997 56.7692V55.9786C113.997 54.7927 113.602 54.2248 112.524 54.2248H111.052V58.5452H112.202V58.5508ZM112.641 64.9035C113.724 64.9035 114.23 64.33 114.23 63.0717V61.8858C114.23 60.3937 113.619 59.8982 112.357 59.8982H111.057V64.8923L112.641 64.9035Z" fill="#00787C"/>
<path d="M119.326 60.4271L118.542 61.7466V66.2397H117.075V52.8607H118.564V59.3303L122.093 52.8607H123.599L120.22 58.974L123.715 66.262H122.187L119.326 60.4271Z" fill="#00787C"/>
<path d="M128.872 63.2945C128.416 65.3044 127.727 66.3512 125.294 66.2621V64.9203C126.438 64.976 126.961 64.6141 127.205 63.6008L127.516 62.7211L124.466 52.8441H125.955L127.311 57.4986L128.227 60.8671L129.011 57.4986L130.233 52.8441H131.728L128.872 63.2945Z" fill="#00787C"/>
<path d="M138.724 56.0789V57.3037H137.313V56.0232C137.313 54.7983 136.835 54.0912 135.746 54.0912C134.651 54.0912 134.179 54.8206 134.179 56.0232V63.1052C134.179 64.3301 134.679 65.0372 135.746 65.0372C136.813 65.0372 137.313 64.3078 137.313 63.1052V61.3625H138.724V63.0273C138.724 65.0594 137.774 66.3957 135.707 66.3957C133.645 66.3957 132.712 65.0539 132.712 63.0273V56.0789C132.712 54.0467 133.662 52.7104 135.707 52.7104C137.752 52.7104 138.724 54.0467 138.724 56.0789Z" fill="#00787C"/>
<path d="M139.963 56.0789C139.963 54.03 140.975 52.7104 143.014 52.7104C145.053 52.7104 146.065 54.03 146.065 56.0789V63.005C146.065 65.0372 145.053 66.3734 143.014 66.3734C140.975 66.3734 139.963 65.0316 139.963 63.005V56.0789ZM141.436 63.0885C141.436 64.3134 141.953 65.0204 143.025 65.0204C144.092 65.0204 144.614 64.3134 144.614 63.0885V56.0065C144.614 54.7816 144.12 54.0745 143.025 54.0745C141.93 54.0745 141.436 54.8039 141.436 56.0065V63.0885Z" fill="#00787C"/>
<path d="M152.438 66.2231H151.005L148.815 55.5666V66.2453H147.515V52.8663H149.599L151.794 63.5673L153.916 52.8663H156V66.262H154.583V55.472L152.438 66.2231Z" fill="#00787C"/>
<path fill-rule="evenodd" clip-rule="evenodd" d="M93.5345 0.525024C104.831 0.525024 113.991 9.69672 113.991 21.0072C113.991 32.3177 104.831 41.4894 93.5345 41.4894C82.2384 41.4894 73.0784 32.3177 73.0784 21.0072C73.0784 9.6919 82.2384 0.525024 93.5345 0.525024Z" fill="#007982"/>
<path d="M93.5346 42.0048C81.9691 42.0048 72.5588 32.5826 72.5588 21.0024C72.5588 9.42218 81.9691 0 93.5346 0C105.1 0 114.51 9.42218 114.51 21.0024C114.51 32.5826 105.1 42.0048 93.5346 42.0048ZM93.5346 1.04049C82.5416 1.04049 73.598 9.99541 73.598 21.0024C73.598 32.0094 82.5416 40.9691 93.5346 40.9691C104.528 40.9691 113.476 32.0142 113.476 21.0024C113.476 9.99059 104.528 1.04049 93.5346 1.04049Z" fill="#860142"/>
<path fill-rule="evenodd" clip-rule="evenodd" d="M97.5084 9.28728C97.2198 9.98094 96.8253 10.3808 95.7572 10.294C96.4211 8.88746 95.6706 8.54063 95.4926 8.11191C95.382 7.84216 95.4012 7.1485 95.6514 6.96545C95.0548 6.76795 94.6892 7.35563 94.3813 7.84698C92.25 8.25643 93.626 10.4193 94.8624 9.48959C94.5545 10.453 92.6927 11.3008 91.1387 8.97417C91.87 7.71691 93.1305 7.82771 94.1023 7.19667C95.0115 6.1032 94.2755 4.5232 93.1401 4.59545C93.5971 3.78619 92.3174 2.62046 91.0473 3.17924C90.2968 1.73412 87.747 2.07613 87.8192 3.95478C86.3518 3.63686 85.3415 5.95868 86.9724 6.39222C86.2267 6.60899 85.8034 7.39417 86.0199 8.136C86.1305 8.51173 86.3903 8.82002 86.7367 8.99825C87.8673 9.23911 89.07 8.3046 90.2006 9.21984C89.58 11.9463 87.5978 12.2739 86.9628 11.4646C88.4686 11.8837 88.8583 9.31618 86.7223 9.69673C86.2652 9.34508 85.9044 9.08014 85.4185 9.47996C85.6783 9.53295 85.8515 9.78343 85.7986 10.0436V10.0484C85.7312 10.9781 85.6542 11.4935 86.7607 12.5532C85.7986 13.035 84.9807 12.9338 84.4659 12.3895C84.8123 11.874 85.0096 11.2767 85.0432 10.6601C85.1106 9.30655 83.7106 8.47319 84.4322 7.2882C83.5999 7.01362 82.6907 7.27856 82.1326 7.95295C82.0989 7.78435 81.9835 7.64948 81.8247 7.59167C82.5848 6.43076 83.4556 5.9924 84.7113 6.23807C84.9278 5.82862 84.9278 5.33728 84.7113 4.92783C86.0872 4.48466 85.9477 3.96442 86.602 2.92875C85.1972 3.5068 83.9078 3.81509 82.8013 4.95192C82.2529 5.5107 82.224 6.04057 81.8391 6.66198C81.5842 6.92692 81.3003 7.16777 80.9972 7.37972C79.9484 7.51941 79.1739 8.03002 78.8563 7.9963C78.9381 8.61289 78.9478 9.23911 78.8804 9.85569C78.7216 10.0532 78.534 10.2218 78.3223 10.3615C77.7258 10.7806 77.1966 10.8432 76.6722 11.4164C75.6041 12.5918 75.4117 14.7209 74.9162 16.1564C75.9409 15.4435 76.5182 15.3134 76.8839 13.9068C77.288 14.061 77.7402 13.9839 78.0722 13.7093C77.7306 12.5195 78.2165 11.2478 79.2653 10.5879C79.3519 10.7613 79.5154 10.8865 79.7031 10.9251C79.0488 11.6236 78.3897 12.9868 78.7072 13.8539C79.857 13.0639 81.1415 13.8009 82.4838 13.6564C83.1044 13.6275 83.7058 13.4251 84.2206 13.0735C84.7979 13.5552 84.8941 14.2922 84.5044 15.2893C83.345 14.244 82.8735 14.6439 81.9835 14.5957C81.6948 14.5957 81.5024 14.3067 81.411 14.0176C81.0694 14.4753 81.1127 15.1111 81.5168 15.5157C81.2859 17.6786 83.9223 17.168 83.4412 15.6892C84.2927 16.2672 83.7683 18.2374 81.0934 19.0611C80.1024 17.9917 80.9684 16.8838 80.6508 15.771C79.8666 14.5812 78.2069 14.9184 77.9423 16.0408C76.9801 15.0774 75.3925 16.0408 75.811 17.4859C74.2282 17.7894 73.9732 20.1209 75.4358 20.7471C74.7093 22.0573 76.0323 23.3338 77.1918 22.6209C77.1918 23.7722 78.7505 24.4755 79.7752 23.488C80.3333 22.4716 79.7319 21.1951 80.9347 20.3762C83.3642 21.7635 83.4364 23.8011 82.479 24.172C83.3161 22.8473 80.8385 21.7635 80.5835 23.9215C80.0976 24.225 79.9148 24.8464 80.1505 25.3666C80.2708 25.0921 80.5402 24.9187 80.8385 24.9235C81.7141 25.0776 82.0893 25.5738 83.446 24.8079C83.6048 25.8676 83.3498 26.5709 82.6811 26.9081C82.301 26.4553 81.8007 26.1229 81.2378 25.9447C79.9629 25.463 78.89 26.5902 77.9567 25.5497C77.4419 26.2626 77.4131 27.2164 77.8893 27.9582C77.6969 27.9486 77.5093 28.0305 77.3842 28.1798C76.5278 27.2887 76.3547 25.9447 76.956 24.8657C76.701 24.5188 76.2777 24.331 75.8495 24.384C75.8495 22.9388 75.2914 22.6691 74.4688 21.7346C74.6131 23.2471 74.3004 25.3666 75.0605 26.7588C75.4358 27.4428 75.9361 27.6259 76.4172 28.175C76.5856 28.3629 76.7299 28.57 76.8406 28.7964C76.6625 29.8369 76.8406 30.6317 76.7347 30.9255C77.0474 30.9689 77.6247 31.5566 78.611 31.9323C78.7505 32.1443 78.8563 32.3707 78.9333 32.6115C79.1594 33.3052 79.0632 33.8302 79.4625 34.4998C80.2756 35.863 82.2577 36.6675 83.4845 37.5586C83.0996 36.3736 83.1429 35.7811 81.9065 35.0249C82.1711 34.6828 82.2288 34.2252 82.0604 33.8254C80.8144 33.8013 79.7367 32.9632 79.4096 31.7589C79.602 31.7252 79.7656 31.6096 79.857 31.4361C80.2515 32.2165 81.0838 32.679 81.9546 32.5922C81.5312 31.2579 83.0226 30.8918 83.2728 29.5623C83.4268 28.9843 83.4123 28.3773 83.2391 27.8041C83.8646 27.385 84.6006 27.5102 85.4377 28.175C84.1051 28.9794 84.3505 29.5479 84.0474 30.386C83.9078 30.651 83.6192 30.8003 83.3257 30.7666C83.6577 31.2194 84.2687 31.3591 84.769 31.1038C86.7656 31.9516 87.0542 29.2588 85.4907 29.3311C86.2893 28.6808 88.0164 29.755 88.0164 32.5537C86.7078 33.1944 85.8996 32.0383 84.745 32.0238C83.3786 32.4236 83.2199 34.1144 84.2158 34.6973C83.0226 35.3524 83.47 37.1396 84.9711 37.154C84.8027 38.7629 86.9532 39.683 87.9779 38.4642C88.4301 39.0327 89.2576 39.1242 89.8253 38.6714C90.2246 38.3486 90.4026 37.8236 90.2776 37.3226C91.3841 37.6502 92.505 36.3592 91.8555 35.1068C91.0521 34.2734 89.6569 34.4805 89.224 33.0884C91.2542 31.1616 93.2219 31.6866 93.3036 32.7127C92.2789 31.5277 90.5181 33.5846 92.5098 34.4564C92.659 35.0104 93.1882 35.3669 93.7559 35.2898C93.5346 35.0923 93.448 34.784 93.5394 34.5046C93.9387 33.7098 94.5016 33.493 94.1889 31.9708C95.2473 32.125 95.8438 32.573 95.9689 33.3148C95.4301 33.5508 94.973 33.9362 94.6411 34.4227C93.8377 35.5114 94.5737 36.8554 93.3085 37.4478C93.8377 38.1463 94.7373 38.4498 95.5792 38.2089C95.5167 38.392 95.5407 38.5943 95.6466 38.7581C94.5449 39.3217 93.2074 39.1001 92.3511 38.2041C91.947 38.3486 91.6535 38.7051 91.5813 39.129C90.1861 38.7292 89.782 39.1627 88.6466 39.6782C90.1332 39.9816 92.0672 40.8969 93.6164 40.5741C94.3813 40.4152 94.6988 39.9864 95.3627 39.683C95.5937 39.577 95.8342 39.5047 96.0796 39.4614C97.0418 39.9431 97.8452 39.9816 98.0905 40.1839C98.2204 39.8949 98.9469 39.5144 99.5964 38.6762C99.8369 38.6088 100.087 38.5702 100.337 38.5654C101.069 38.5654 101.54 38.7966 102.3 38.6088C103.835 38.2282 105.187 36.5615 106.389 35.6463C105.143 35.6463 104.59 35.4536 103.503 36.4218C103.253 36.075 102.829 35.8919 102.406 35.9401C102.026 37.1155 100.915 37.9007 99.6782 37.8669C99.707 37.6743 99.6397 37.4816 99.5002 37.3467C100.361 37.1925 101.04 36.5326 101.218 35.6752C99.8177 35.6752 99.8995 34.1578 98.7015 33.5268C98.1964 33.2233 97.6143 33.0643 97.0273 33.0788C96.8108 32.3562 97.138 31.6915 98.0184 31.0749C98.3985 32.5874 99.0143 32.52 99.7311 33.0499C99.9428 33.257 100.005 33.5749 99.885 33.8495C100.429 33.6665 100.746 33.1029 100.631 32.5441C102.021 30.8918 99.5194 29.8321 99.1345 31.3639C98.7448 30.4005 100.27 29.0613 102.95 29.8658C103.181 31.3109 101.848 31.7493 101.506 32.8524C101.506 34.2975 103.07 34.9141 103.912 34.1289C104.061 34.837 104.759 35.2946 105.471 35.1405C105.976 35.0345 106.375 34.6347 106.481 34.1289C107.967 34.7503 109.468 32.9535 108.598 31.6192C109.271 31.3494 109.598 30.5835 109.324 29.9091C109.132 29.4323 108.679 29.1095 108.169 29.0854C108.8 28.122 107.9 26.6769 106.5 26.9322C105.475 27.4669 105.268 28.859 103.816 28.859C102.56 26.3541 103.628 24.62 104.629 24.8368C103.185 25.4774 104.662 27.7559 106.072 26.1037C106.644 26.1181 107.14 25.7087 107.231 25.1402C106.981 25.304 106.664 25.304 106.414 25.1402C105.769 24.5285 105.73 23.9071 104.181 23.7866C104.633 22.8232 105.235 22.3752 105.981 22.4668C106.053 23.0496 106.288 23.5988 106.654 24.0564C107.462 25.1402 108.963 24.8223 109.165 26.2048C109.988 25.9062 110.536 25.1258 110.546 24.2491C110.705 24.3647 110.902 24.3984 111.09 24.3406C111.316 25.5593 110.714 26.778 109.613 27.3416C109.637 27.7704 109.887 28.1557 110.272 28.3484C109.493 29.5671 109.791 30.0826 109.959 31.3205C110.681 29.9814 112.124 28.3869 112.249 26.8118C112.317 26.0314 111.999 25.6027 111.903 24.8849C111.869 24.6345 111.869 24.384 111.903 24.1335C112.629 23.3579 112.908 22.592 113.173 22.4138C112.932 22.2066 112.778 21.3974 112.167 20.5351C112.172 20.2846 112.206 20.0342 112.273 19.7933C112.47 19.09 112.841 18.7095 112.879 17.9243C112.956 16.3395 111.749 14.5523 111.22 13.1506C110.888 14.35 110.522 14.8221 111.133 16.1371C110.729 16.2768 110.426 16.6237 110.344 17.0476C111.35 17.7509 111.783 19.0274 111.402 20.1979C111.229 20.1112 111.027 20.1112 110.854 20.1979C110.96 19.326 110.517 18.4831 109.747 18.0688C109.363 19.4128 107.915 18.8925 106.972 19.8607C106.529 20.2798 106.207 20.8049 106.038 21.3926C105.288 21.3926 104.744 20.8771 104.417 19.8559C105.971 19.933 106.086 19.3212 106.822 18.7962C107.087 18.6613 107.405 18.695 107.635 18.8829C107.616 18.3096 107.178 17.8424 106.606 17.7894C105.422 15.9685 103.686 18.0447 105.023 18.8588C103.998 18.9503 103.161 17.0957 104.715 14.7691C106.159 14.9714 106.187 16.378 107.121 17.0379C107.89 17.3318 108.752 16.9464 109.045 16.1757C109.175 15.8337 109.175 15.4531 109.045 15.1111C110.402 15.2364 111.022 13.5022 109.786 12.6496C110.82 11.4116 109.55 9.44624 108.02 9.88459C107.756 8.41057 105.923 8.26124 105.475 9.5474C104.739 8.66106 103.099 9.09459 102.926 10.5108C103.137 11.6476 104.407 12.2594 103.994 13.6564C101.237 14.1381 99.8898 12.587 100.395 11.691C100.587 13.2469 103.19 12.5195 102.026 10.6842C102.209 10.1447 101.963 9.55222 101.453 9.29691C101.535 9.58112 101.434 9.88941 101.198 10.0725C100.424 10.5108 99.8225 10.3615 99.274 11.8114C98.4802 11.0937 98.2397 10.3663 98.5428 9.70154C99.1201 9.80752 99.7166 9.7449 100.26 9.52331C101.535 9.07051 101.67 7.53868 103.051 7.75545C103.003 6.88838 102.43 6.1321 101.607 5.85753C101.761 5.74673 101.853 5.5685 101.858 5.37582C103.08 5.52033 104.056 6.45484 104.263 7.66874C104.682 7.77472 105.124 7.64948 105.422 7.33637C106.356 8.44429 106.933 8.29978 108.165 8.51173C107.097 7.43271 106.005 5.59259 104.532 4.99527C103.811 4.70143 103.306 4.87966 102.608 4.75923C102.358 4.7207 102.117 4.64844 101.886 4.54728C101.362 3.62722 100.713 3.13107 100.621 2.82759C100.352 2.99137 99.5386 2.90466 98.5332 3.23704C98.2926 3.15997 98.0665 3.05399 97.8548 2.9143C97.239 2.5193 96.984 2.05204 96.2528 1.78711C94.7614 1.24278 92.7215 1.87863 91.2061 1.96534C92.2549 2.63973 92.5916 3.12625 94.0301 2.92875C94.0397 3.36229 94.2851 3.75247 94.6651 3.95478C95.637 3.18887 96.9936 3.15515 97.9991 3.87289C97.8741 4.01741 97.8211 4.21491 97.8596 4.40277C97.061 4.04631 96.1229 4.21972 95.5023 4.83631C96.6713 5.60222 95.7524 6.83057 96.3971 8.02039C96.6569 8.55027 97.0562 8.99344 97.5517 9.30655L97.5084 9.28728Z" fill="white"/>
<path d="M92.9188 40.7909C91.9758 40.7909 90.9559 40.4826 90.0322 40.208C89.527 40.0587 89.0556 39.9142 88.6178 39.8275L88.1511 39.7311L88.5841 39.5336C88.7814 39.4421 88.9545 39.3554 89.1181 39.2783C89.8638 38.9074 90.369 38.6569 91.4707 38.9363C91.5909 38.5317 91.8988 38.2041 92.303 38.0548L92.3992 38.0211L92.4665 38.0933C93.2315 38.8978 94.439 39.1242 95.4445 38.681C95.4108 38.5943 95.3964 38.4979 95.3964 38.4064C94.5689 38.5558 93.703 38.2186 93.193 37.5394L93.0775 37.39L93.2507 37.3081C93.8954 37.0047 93.9579 36.5037 94.0301 35.8678C94.0493 35.7185 94.0686 35.5595 94.0926 35.4006L93.7799 35.4439C93.1641 35.5258 92.5772 35.1501 92.3848 34.5672C91.7738 34.2782 91.4322 33.8302 91.4514 33.3244C91.4707 32.8572 91.793 32.4188 92.2452 32.2598C92.4665 32.1828 92.6927 32.178 92.8995 32.2502C92.8081 32.1731 92.6975 32.1057 92.5676 32.0575C91.9133 31.807 90.7009 31.9467 89.402 33.1366C89.6569 33.8447 90.2102 34.0711 90.7923 34.3071C91.2061 34.4757 91.6294 34.6539 91.9662 35.0008L91.9903 35.0393C92.3222 35.68 92.2549 36.4122 91.8122 36.9469C91.4611 37.3708 90.9607 37.5779 90.4652 37.5201C90.5037 38.0018 90.3064 38.4835 89.9215 38.7918C89.3346 39.259 88.4975 39.2061 87.9779 38.6906C87.4631 39.1916 86.6982 39.3217 85.9766 39.0134C85.2405 38.7003 84.7979 38.0403 84.8075 37.2985C84.1195 37.2359 83.5855 36.8023 83.4219 36.1617C83.2776 35.5933 83.4797 35.0393 83.9415 34.6876C83.5615 34.3649 83.369 33.8639 83.4364 33.3196C83.523 32.6308 84.0089 32.072 84.7017 31.8697L84.7257 31.8648H84.7498C85.2309 31.8697 85.6542 32.0623 86.0584 32.2406C86.6309 32.5007 87.1745 32.7464 87.8673 32.4477C87.8432 30.6798 87.1071 29.702 86.4769 29.4033C86.3518 29.3455 86.2267 29.307 86.1113 29.2973C86.3037 29.3985 86.4577 29.5623 86.5539 29.7791C86.7463 30.2126 86.6549 30.7521 86.3278 31.0893C85.9718 31.4506 85.4137 31.5132 84.7834 31.2675C84.2302 31.5132 83.5759 31.3494 83.2103 30.8533L82.9986 30.5691L83.3498 30.6076C83.5807 30.6317 83.8068 30.5161 83.9175 30.3089C83.98 30.1355 84.0185 29.9525 84.057 29.7791C84.1725 29.2492 84.2831 28.7482 85.1731 28.1605C84.5044 27.6836 83.9319 27.5873 83.4268 27.8715C83.5759 28.4351 83.5807 29.0324 83.4316 29.6008C83.3209 30.203 82.9601 30.622 82.6426 30.993C82.224 31.4795 81.8969 31.8648 82.1134 32.5441L82.1711 32.7271L81.9835 32.7464C81.1367 32.8283 80.3093 32.4188 79.8522 31.7107C79.7849 31.7733 79.7031 31.8263 79.6165 31.86C79.9677 32.9101 80.9587 33.6472 82.0797 33.6664H82.1807L82.2192 33.758C82.3876 34.153 82.3539 34.6058 82.1374 34.9719C83.09 35.5933 83.2439 36.1376 83.4749 36.942C83.523 37.1155 83.5759 37.2985 83.6432 37.5056L83.7876 37.9584L83.4027 37.679C83.0419 37.4141 82.6137 37.1636 82.1615 36.8939C81.1175 36.2725 79.9292 35.5644 79.3423 34.5769C79.0825 34.1385 79.0199 33.7531 78.9574 33.3774C78.9189 33.151 78.8804 32.915 78.7986 32.6597C78.7313 32.4477 78.6399 32.2454 78.5196 32.0575C77.9711 31.8408 77.5478 31.5614 77.2351 31.3591C77.0186 31.2145 76.8309 31.0941 76.7251 31.0797L76.5375 31.0556L76.6 30.8773C76.6337 30.781 76.6289 30.5594 76.6193 30.3089C76.6096 29.9332 76.5952 29.4178 76.6866 28.8253C76.5856 28.6278 76.4557 28.4447 76.3114 28.2809C76.1333 28.0738 75.9457 27.9197 75.7677 27.7703C75.4791 27.5295 75.176 27.279 74.9354 26.831C74.3822 25.8194 74.3773 24.4369 74.3725 23.2182C74.3725 22.6932 74.3677 22.1922 74.3244 21.749L74.2811 21.2769L74.5938 21.6334C74.7382 21.802 74.8777 21.9465 75.0076 22.0814C75.5849 22.6883 75.9794 23.1026 76.0131 24.225C76.4364 24.2298 76.8406 24.4321 77.0907 24.7789L77.1485 24.8608L77.1003 24.9475C76.5519 25.9302 76.677 27.1249 77.4034 27.9678C77.4804 27.91 77.5622 27.8667 77.6536 27.8426C77.2687 27.0815 77.3313 26.1711 77.846 25.4678L77.9567 25.3136L78.0818 25.4533C78.5533 25.9784 79.044 25.8869 79.6694 25.7713C79.8185 25.7424 79.9773 25.7135 80.1409 25.6942L80.0206 25.4341C79.7608 24.8657 79.9484 24.1913 80.4488 23.8348C80.545 23.1652 80.877 22.7076 81.3677 22.5775C81.8199 22.4571 82.3299 22.645 82.6137 23.0303C82.7532 23.2182 82.8206 23.4302 82.811 23.6517C82.8591 23.5458 82.8879 23.4205 82.8975 23.2808C82.9505 22.5824 82.4694 21.4552 80.9491 20.5592C80.3477 21.012 80.2948 21.6045 80.2323 22.2355C80.189 22.6787 80.1457 23.1363 79.9148 23.5602L79.8859 23.5988C79.3615 24.1046 78.6302 24.2491 77.9856 23.9745C77.4852 23.7625 77.1485 23.3483 77.0619 22.8617C76.5327 23.0882 75.9553 22.987 75.532 22.5824C75.0557 22.1296 74.945 21.4455 75.2289 20.8145C74.5938 20.4725 74.2426 19.7692 74.3292 18.984C74.4158 18.1892 74.9162 17.5726 75.6282 17.3655C75.4887 16.6766 75.7533 16.0311 76.3306 15.694C76.8309 15.4001 77.4131 15.4338 77.8749 15.771C78.0674 15.3134 78.4907 14.9858 79.0247 14.8943C79.7079 14.7739 80.3862 15.0774 80.7855 15.6843L80.8048 15.7277C80.9395 16.1901 80.877 16.6477 80.8192 17.0861C80.7374 17.7123 80.6605 18.3048 81.1464 18.8829C82.8302 18.3385 83.547 17.3462 83.6529 16.6526C83.6769 16.5032 83.6721 16.3635 83.6432 16.2431C83.6 16.4743 83.4797 16.6815 83.2824 16.8452C82.9168 17.1535 82.378 17.2161 81.969 16.9994C81.7092 16.8597 81.2859 16.4888 81.3629 15.5735C80.9587 15.1159 80.9251 14.4222 81.2955 13.9261L81.4013 13.7816C81.2666 13.7671 81.1367 13.7479 81.002 13.7286C80.2178 13.6226 79.4721 13.5166 78.7986 13.9791L78.635 14.0899L78.5677 13.902C78.2405 13.0012 78.8563 11.7054 79.4481 10.9829C79.3615 10.9347 79.2893 10.8721 79.2268 10.795C78.332 11.4357 77.923 12.5918 78.2261 13.6612L78.255 13.7575L78.178 13.8201C77.846 14.0947 77.4083 14.191 76.9993 14.0947C76.6818 15.1882 76.2055 15.4965 75.4983 15.9541C75.3492 16.0504 75.1856 16.1564 75.0124 16.2768L74.6227 16.5466L74.7767 16.0986C74.921 15.6747 75.0413 15.193 75.1663 14.6824C75.4598 13.4974 75.787 12.1582 76.5615 11.3056C76.9031 10.9347 77.2543 10.7613 77.5911 10.5927C77.7979 10.4915 78.0144 10.3855 78.2357 10.2266C78.4234 10.1013 78.5917 9.95201 78.7361 9.78341C78.7938 9.19092 78.7842 8.5936 78.7072 8.00592L78.6832 7.81323L78.8756 7.8325C78.9814 7.84695 79.2124 7.75061 79.4577 7.65427C79.833 7.50494 80.3429 7.30744 80.9443 7.22074C81.2281 7.01842 81.4928 6.79202 81.7333 6.54153C81.8536 6.33921 81.9498 6.11763 82.0364 5.90568C82.1855 5.55885 82.3347 5.19757 82.6955 4.83147C83.6048 3.89696 84.6295 3.5116 85.7216 3.09733C85.991 2.99617 86.27 2.89019 86.5491 2.77458L86.9965 2.59154L86.7367 3.00099C86.5731 3.26111 86.4577 3.48751 86.3566 3.68983C86.0632 4.27269 85.8659 4.67251 84.923 5.0097C85.0865 5.42879 85.0625 5.90086 84.8508 6.30068L84.7979 6.40183L84.6872 6.37775C83.5615 6.15616 82.7677 6.50299 82.0508 7.52903C82.0989 7.56756 82.147 7.61574 82.1807 7.66391C82.7869 7.07141 83.6625 6.85946 84.4852 7.12921L84.668 7.19183L84.567 7.35561C84.2013 7.95775 84.4515 8.46836 84.745 9.05604C84.9711 9.51366 85.2309 10.0339 85.202 10.6553C85.1683 11.2574 84.9855 11.8403 84.668 12.3557C85.1154 12.7555 85.7697 12.8037 86.4961 12.4954C85.5388 11.5176 85.5773 10.9491 85.6398 10.1158L85.659 9.98092C85.6879 9.82677 85.5676 9.65335 85.3944 9.61963L85.0721 9.55701L85.3271 9.34988C85.89 8.88744 86.3374 9.19573 86.7704 9.52329C87.6845 9.3836 88.0693 9.76415 88.2233 10.0098C88.4446 10.3759 88.4157 10.8769 88.1415 11.2382C87.9779 11.4549 87.7566 11.5898 87.5016 11.638C87.6941 11.7006 87.9202 11.7102 88.1559 11.6573C89.0171 11.4646 89.7195 10.5734 90.037 9.27762C89.426 8.82964 88.7862 8.95006 88.1126 9.07049C87.6556 9.1572 87.1841 9.2439 86.7126 9.14275L86.6742 9.12829C86.2893 8.93561 86.0006 8.58878 85.8803 8.17451C85.7649 7.7747 85.8082 7.3508 86.0054 6.9847C86.1401 6.73421 86.3422 6.5319 86.5779 6.38738C86.1017 6.11763 85.8852 5.62147 86.0295 5.0386C86.1979 4.34013 86.857 3.69464 87.67 3.7669C87.7133 2.85166 88.3532 2.3555 88.9642 2.19172C89.6906 1.99904 90.6432 2.21099 91.1195 2.9769C91.9085 2.69751 92.6686 3.01062 93.0631 3.44416C93.3373 3.75245 93.448 4.11373 93.3662 4.43647C93.8232 4.48946 94.237 4.78812 94.4727 5.25537C94.8047 5.91049 94.7084 6.70531 94.2225 7.28336L94.1889 7.31226C93.8329 7.54348 93.4384 7.67836 93.0583 7.81323C92.3944 8.03964 91.769 8.2564 91.3263 8.9597C92.2308 10.2651 93.1305 10.3518 93.5875 10.2892C93.9724 10.2362 94.2755 10.0484 94.4727 9.8364C94.1937 9.90384 93.905 9.85567 93.65 9.70152C93.27 9.46549 93.0631 9.03677 93.1353 8.63214C93.1834 8.36238 93.3999 7.89512 94.2899 7.70244C94.6026 7.20628 95.0212 6.58488 95.7043 6.81129L95.9882 6.90763L95.7476 7.08586C95.584 7.20628 95.5407 7.8036 95.6418 8.04927C95.6754 8.12634 95.7332 8.20823 95.8053 8.30458C96.0651 8.6514 96.4115 9.11866 95.993 10.1495C96.7483 10.164 97.0851 9.85567 97.3256 9.33543C96.8734 9.01269 96.5077 8.58878 96.2672 8.08781C95.9737 7.5483 95.9882 6.99433 95.9978 6.50299C96.0122 5.86232 96.0218 5.35653 95.4253 4.96635L95.2569 4.86037L95.3916 4.7255C96.0074 4.11855 96.8926 3.91141 97.7009 4.17635C97.7153 4.08483 97.7393 3.99812 97.7826 3.91623C96.8541 3.33336 95.6273 3.39117 94.7566 4.07519L94.6796 4.13781L94.593 4.08964C94.2129 3.88733 93.9531 3.51641 93.8906 3.10214C92.76 3.22257 92.2982 2.89983 91.6102 2.42776C91.4611 2.3266 91.3023 2.2158 91.1195 2.09538L90.7202 1.84007L91.1916 1.81117C91.6391 1.78709 92.1346 1.71001 92.6542 1.63294C93.8569 1.44989 95.2184 1.24757 96.3009 1.64257C96.7772 1.81599 97.0706 2.07611 97.3545 2.3266C97.5277 2.48074 97.7057 2.63971 97.9366 2.78422C98.1242 2.90464 98.3215 3.0058 98.5332 3.07324C99.096 2.89501 99.6012 2.83721 99.9716 2.79867C100.231 2.76977 100.453 2.74568 100.544 2.69269L100.713 2.59154L100.77 2.78422C100.799 2.88538 100.953 3.05879 101.126 3.26111C101.372 3.5405 101.699 3.92105 101.992 4.42684C102.194 4.51354 102.411 4.57135 102.632 4.60989C102.892 4.65324 103.128 4.65806 103.359 4.65806C103.734 4.66287 104.123 4.66287 104.595 4.85556C105.663 5.28909 106.539 6.35366 107.308 7.29299C107.645 7.70244 107.963 8.08781 108.275 8.40573L108.612 8.74775L108.136 8.66586C107.915 8.62732 107.712 8.60323 107.525 8.57433C106.707 8.46836 106.154 8.39128 105.408 7.55793C105.081 7.82769 104.638 7.92403 104.225 7.81805L104.128 7.79397L104.114 7.69281C103.931 6.60415 103.07 5.7419 101.992 5.54921C101.968 5.63592 101.93 5.72263 101.882 5.79488C102.651 6.14171 103.161 6.88354 103.209 7.7458L103.219 7.93366L103.031 7.90476C102.329 7.79397 101.997 8.17933 101.583 8.66586C101.482 8.78147 101.376 8.90671 101.261 9.02714L101.526 9.1572C102.079 9.43177 102.358 10.0676 102.199 10.6601C102.545 11.243 102.574 11.8066 102.281 12.216C102.007 12.5918 101.492 12.7748 101.03 12.6544C100.799 12.5966 100.611 12.4713 100.477 12.2979C100.506 12.4184 100.563 12.5388 100.65 12.6544C101.059 13.2324 102.146 13.796 103.878 13.5166C104.056 12.7844 103.724 12.2835 103.373 11.7584C103.128 11.3875 102.873 11.007 102.781 10.5349L102.776 10.5108L102.781 10.4867C102.868 9.76415 103.339 9.19092 104.008 8.99823C104.532 8.84409 105.057 8.95006 105.437 9.27281C105.701 8.7622 106.211 8.47317 106.798 8.52134C107.453 8.57433 107.967 9.02714 108.15 9.69671C108.862 9.56183 109.574 9.88457 110.002 10.5445C110.435 11.2141 110.44 12.0137 110.017 12.6207C110.556 13.0638 110.758 13.7238 110.532 14.3404C110.33 14.8943 109.849 15.2412 109.266 15.2701C109.339 15.588 109.319 15.9204 109.199 16.2287C108.877 17.0765 107.924 17.5052 107.077 17.1824L107.044 17.1632C106.654 16.8886 106.418 16.5032 106.187 16.1275C105.855 15.588 105.543 15.0774 104.802 14.9377C103.844 16.4213 103.912 17.64 104.268 18.2422C104.34 18.3626 104.422 18.459 104.513 18.536C104.412 18.3433 104.374 18.1218 104.417 17.8905C104.499 17.4185 104.874 17.0235 105.331 16.9319C105.827 16.8308 106.327 17.0909 106.707 17.6449C107.318 17.7364 107.785 18.2518 107.804 18.878L107.813 19.1767C107.982 19.1141 108.155 19.0659 108.314 19.0225C108.93 18.8491 109.416 18.7094 109.613 18.0254L109.666 17.8424L109.834 17.9339C110.599 18.3433 111.056 19.1333 111.037 19.986C111.128 19.9715 111.22 19.9763 111.316 20.0004C111.595 18.931 111.186 17.8135 110.272 17.1776L110.19 17.1198L110.209 17.0235C110.291 16.6044 110.565 16.2479 110.945 16.0601C110.498 15.0196 110.666 14.4801 110.917 13.6804C110.969 13.507 111.027 13.324 111.085 13.1168L111.21 12.664L111.378 13.1072C111.532 13.5118 111.744 13.9502 111.965 14.4126C112.499 15.5254 113.106 16.7826 113.048 17.9435C113.024 18.459 112.86 18.8154 112.701 19.1622C112.605 19.3742 112.509 19.591 112.437 19.8463C112.379 20.0582 112.345 20.2798 112.336 20.5014C112.668 20.9831 112.865 21.4455 113.014 21.7875C113.12 22.0332 113.211 22.2452 113.288 22.3126L113.442 22.4427L113.274 22.5535C113.183 22.6161 113.062 22.8088 112.923 23.0352C112.725 23.3531 112.461 23.7818 112.066 24.2105C112.042 24.4321 112.042 24.6537 112.071 24.8753C112.105 25.1402 112.177 25.3666 112.24 25.5882C112.35 25.9495 112.461 26.3252 112.418 26.8358C112.326 27.9823 111.561 29.1384 110.883 30.1596C110.594 30.598 110.32 31.0122 110.108 31.4024L109.882 31.8167L109.82 31.3494C109.791 31.1327 109.757 30.94 109.728 30.7617C109.589 29.938 109.493 29.3792 110.075 28.4062C109.728 28.1702 109.502 27.78 109.473 27.3561L109.468 27.2549L109.56 27.2067C110.546 26.701 111.119 25.6171 110.979 24.5236C110.888 24.5333 110.791 24.5188 110.7 24.4899C110.604 25.3281 110.036 26.0555 109.233 26.3493L109.055 26.4119L109.026 26.2241C108.925 25.5208 108.458 25.3185 107.871 25.0583C107.732 24.9957 107.587 24.9331 107.443 24.8608L107.395 25.1595C107.294 25.7761 106.77 26.2337 106.154 26.253C105.701 26.7588 105.167 26.9514 104.686 26.7828C104.244 26.6287 103.917 26.1903 103.897 25.7135C103.888 25.4822 103.95 25.2703 104.071 25.0969C103.974 25.1595 103.883 25.2462 103.801 25.3522C103.373 25.9061 103.152 27.1104 103.921 28.7C104.672 28.6663 105.047 28.2039 105.446 27.7125C105.726 27.3705 106.014 27.0141 106.442 26.7925L106.486 26.778C107.202 26.648 107.886 26.9274 108.271 27.5102C108.574 27.9678 108.627 28.5025 108.424 28.9602C108.896 29.0613 109.3 29.3937 109.483 29.8513C109.627 30.2174 109.622 30.6124 109.473 30.9737C109.343 31.282 109.117 31.5276 108.833 31.6866C109.165 32.3225 109.069 33.098 108.569 33.7001C108.059 34.3119 107.308 34.5528 106.606 34.3312C106.442 34.8129 106.033 35.1838 105.523 35.2946C104.811 35.4487 104.109 35.0489 103.849 34.3938C103.436 34.6684 102.897 34.7117 102.401 34.495C101.766 34.2204 101.376 33.5894 101.376 32.8572L101.381 32.8138C101.526 32.3514 101.824 32.0045 102.117 31.6673C102.526 31.1905 102.916 30.7425 102.834 29.991C101.136 29.5093 99.9909 29.9284 99.5194 30.4438C99.4232 30.5498 99.3558 30.6558 99.3077 30.7666C99.4665 30.6076 99.6685 30.5064 99.9043 30.4775C100.381 30.4197 100.871 30.6654 101.093 31.0748C101.333 31.518 101.232 32.0623 100.814 32.5874C100.905 33.1992 100.544 33.7965 99.9524 33.994L99.6204 34.1048L99.7599 33.782C99.8514 33.5701 99.8032 33.3148 99.6397 33.1558C99.4905 33.0498 99.3318 32.9583 99.1778 32.8716C98.7015 32.6067 98.2541 32.3562 97.9462 31.3253C97.2967 31.8311 97.0418 32.3514 97.162 32.9198C97.7394 32.9294 98.3022 33.0884 98.7978 33.3919C99.3414 33.6761 99.6397 34.1433 99.8995 34.5528C100.246 35.0923 100.515 35.5162 101.232 35.5162H101.42L101.381 35.6992C101.208 36.5422 100.587 37.207 99.7744 37.4382C99.8177 37.5201 99.8417 37.6116 99.8514 37.7079C100.948 37.6742 101.934 36.942 102.276 35.8871L102.305 35.7908L102.406 35.7811C102.829 35.733 103.248 35.8871 103.537 36.1954C104.436 35.4391 105.018 35.4536 105.884 35.4776C106.043 35.4825 106.216 35.4873 106.404 35.4873H106.861L106.495 35.7667C106.144 36.0364 105.778 36.3688 105.394 36.7205C104.489 37.5442 103.469 38.4787 102.353 38.7581C101.843 38.8833 101.463 38.8351 101.059 38.7773C100.838 38.7484 100.611 38.7195 100.352 38.7195C100.135 38.7243 99.9139 38.7533 99.7022 38.8111C99.3366 39.2735 98.9517 39.5962 98.6631 39.8371C98.461 40.0057 98.2878 40.1502 98.2445 40.2465L98.1627 40.4296L98.0088 40.2995C97.927 40.2321 97.7105 40.1743 97.4555 40.1068C97.0947 40.0105 96.6088 39.8804 96.0699 39.6203C95.8535 39.6637 95.6418 39.7311 95.4397 39.8226C95.1944 39.9334 94.9971 40.0683 94.8047 40.1936C94.4871 40.4007 94.16 40.6175 93.6645 40.7234C93.4143 40.7716 93.1689 40.7909 92.9188 40.7909ZM89.1085 39.6251C89.4308 39.707 89.7676 39.8082 90.1188 39.9142C91.3071 40.2706 92.5387 40.6415 93.5827 40.42C94.0253 40.3284 94.3139 40.1357 94.617 39.9334C94.8191 39.7986 95.0308 39.6589 95.2954 39.5384C95.5359 39.4276 95.7909 39.3506 96.0507 39.3024L96.0988 39.2928L96.1421 39.3168C96.6665 39.5818 97.1572 39.7118 97.5132 39.8034C97.7297 39.8612 97.9029 39.9093 98.0376 39.9672C98.129 39.8564 98.2686 39.7359 98.4466 39.5914C98.7448 39.3409 99.1153 39.0278 99.4713 38.5702L99.5002 38.5317L99.5483 38.5172C99.8032 38.445 100.068 38.4064 100.328 38.4016C100.611 38.4016 100.847 38.4353 101.078 38.4642C101.468 38.5172 101.805 38.5606 102.257 38.4498C103.296 38.1897 104.249 37.3226 105.167 36.4844C105.437 36.2387 105.701 35.9979 105.956 35.7859C105.923 35.7859 105.889 35.7859 105.86 35.7811C104.97 35.757 104.479 35.7474 103.604 36.5278L103.479 36.6386L103.378 36.4989C103.176 36.2243 102.853 36.0461 102.517 36.075C102.093 37.2262 100.982 38.0114 99.7551 38.0114C99.7263 38.0114 99.7022 38.0114 99.6733 38.0114L99.5002 38.0066L99.5242 37.8332C99.5435 37.6887 99.4953 37.549 99.3943 37.4478L99.173 37.2359L99.4713 37.1829C100.217 37.0528 100.809 36.5181 101.02 35.81C100.28 35.733 99.9476 35.2175 99.6252 34.7117C99.3703 34.3119 99.1057 33.9025 98.6294 33.652C98.1435 33.3581 97.5902 33.204 97.0321 33.2233H96.9167L96.883 33.1125C96.6473 32.3225 96.9985 31.5903 97.9318 30.94L98.1146 30.8099L98.1675 31.0267C98.4417 32.1105 98.8218 32.3273 99.3077 32.597C99.4713 32.6886 99.6397 32.7849 99.8225 32.915C100.005 33.0932 100.097 33.3244 100.097 33.5556C100.4 33.3341 100.559 32.9487 100.477 32.5633L100.462 32.4911L100.51 32.4333C100.886 31.9901 100.987 31.5566 100.799 31.2097C100.636 30.9111 100.265 30.7232 99.9187 30.7714C99.7311 30.7955 99.3991 30.9063 99.2789 31.3928L99.1634 31.8504L98.9854 31.412C98.8266 31.0219 98.9277 30.5883 99.2644 30.2222C99.8273 29.6008 101.102 29.1432 102.988 29.7068L103.08 29.7357L103.094 29.832C103.243 30.781 102.772 31.3253 102.319 31.8552C102.04 32.1731 101.781 32.4766 101.655 32.8668C101.665 33.4737 101.978 33.9699 102.497 34.1963C102.959 34.3986 103.46 34.3264 103.801 34.0036L103.998 33.8206L104.056 34.0855C104.191 34.7117 104.807 35.1067 105.432 34.9767C105.879 34.8803 106.231 34.5287 106.322 34.0855L106.361 33.9025L106.534 33.9747C107.284 34.2878 107.958 33.9073 108.304 33.4882C108.646 33.0739 108.896 32.3562 108.463 31.6914L108.362 31.5325L108.535 31.4602C108.824 31.3446 109.045 31.123 109.17 30.8388C109.29 30.5546 109.295 30.2367 109.18 29.9525C109.011 29.5334 108.612 29.2492 108.16 29.2251L107.89 29.2106L108.04 28.9842C108.295 28.5941 108.28 28.0883 107.996 27.6644C107.751 27.2934 107.241 26.9466 106.548 27.0622C106.187 27.2549 105.937 27.568 105.673 27.8956C105.23 28.4399 104.778 28.9987 103.816 28.9987H103.719L103.676 28.912C102.791 27.1489 103.055 25.7809 103.546 25.1499C103.844 24.7645 104.263 24.5863 104.662 24.673L105.124 24.7741L104.691 24.9668C104.239 25.1691 104.186 25.5111 104.191 25.6942C104.205 26.041 104.451 26.3734 104.773 26.489C105.153 26.6191 105.572 26.4456 105.956 25.9928L106.005 25.935H106.077C106.471 25.9447 106.818 25.7231 106.986 25.3859C106.76 25.4292 106.524 25.3811 106.327 25.251C106.144 25.0776 106.019 24.9283 105.899 24.7789C105.548 24.3502 105.273 24.0082 104.167 23.9215L103.945 23.9022L104.042 23.6999C104.528 22.6642 105.187 22.1922 106 22.2933L106.12 22.3078L106.134 22.4282C106.207 22.9822 106.428 23.5072 106.774 23.9408C107.101 24.3791 107.549 24.5718 107.982 24.7645C108.53 25.0053 109.093 25.251 109.281 25.9736C109.945 25.6556 110.387 24.9764 110.392 24.2298L110.397 23.9311L110.638 24.1094C110.753 24.1961 110.907 24.2202 111.046 24.1768L111.21 24.1238L111.244 24.2924C111.475 25.5352 110.873 26.7973 109.781 27.4091C109.834 27.7414 110.041 28.0353 110.344 28.1894L110.498 28.2665L110.407 28.411C109.796 29.3648 109.877 29.832 110.022 30.6847C110.031 30.7377 110.041 30.7906 110.051 30.8436C110.224 30.5594 110.416 30.2656 110.618 29.9621C111.306 28.9216 112.018 27.8474 112.1 26.7828C112.139 26.33 112.038 26.0025 111.936 25.6508C111.864 25.4196 111.797 25.1788 111.754 24.8897C111.72 24.6248 111.72 24.3599 111.754 24.0997L111.758 24.0516L111.792 24.0178C112.187 23.5939 112.442 23.1845 112.648 22.8521C112.769 22.6546 112.865 22.5005 112.966 22.3897C112.884 22.2693 112.812 22.0958 112.721 21.8839C112.567 21.5274 112.379 21.0794 112.047 20.6122L112.018 20.5688V20.5207C112.023 20.2557 112.062 19.9956 112.129 19.7403C112.206 19.4609 112.312 19.2297 112.413 19.0129C112.567 18.6757 112.711 18.3626 112.73 17.905C112.783 16.826 112.196 15.6024 111.677 14.5234C111.523 14.2055 111.374 13.8972 111.249 13.6033C111.234 13.6563 111.215 13.7045 111.2 13.7575C110.941 14.5812 110.801 15.0292 111.277 16.0649L111.35 16.219L111.191 16.2768C110.868 16.3876 110.618 16.6526 110.527 16.9753C111.537 17.7316 111.951 19.0274 111.556 20.2364L111.499 20.405L111.34 20.3232C111.21 20.2557 111.056 20.2557 110.931 20.3232L110.676 20.4532L110.71 20.169C110.801 19.4175 110.46 18.6998 109.839 18.2855C109.56 18.9744 108.968 19.143 108.391 19.3068C107.934 19.4368 107.462 19.5669 107.087 19.9571C106.659 20.3569 106.351 20.8627 106.192 21.4214L106.159 21.5322H106.043C105.22 21.5322 104.624 20.9783 104.277 19.8896L104.21 19.6777L104.431 19.6873C105.543 19.7403 105.855 19.4416 106.26 19.0611C106.399 18.9262 106.548 18.7913 106.741 18.6565C106.967 18.5408 107.212 18.5168 107.438 18.5842C107.318 18.2277 106.996 17.9628 106.601 17.9243L106.524 17.9194L106.486 17.8568C106.163 17.3655 105.774 17.1391 105.389 17.2161C105.057 17.2836 104.773 17.5822 104.715 17.9243C104.682 18.1073 104.691 18.4541 105.115 18.7094L105.514 18.9551L105.047 18.9985C104.643 19.037 104.249 18.8058 103.998 18.3867C103.589 17.6979 103.503 16.3105 104.595 14.6679L104.648 14.586L104.744 14.6005C105.701 14.7354 106.082 15.3519 106.447 15.9493C106.668 16.3057 106.875 16.6477 107.202 16.8838C107.886 17.1343 108.651 16.7874 108.91 16.1034C109.026 15.7951 109.026 15.4579 108.91 15.1496L108.824 14.9184L109.069 14.9425C109.598 14.9907 110.06 14.7065 110.238 14.2199C110.383 13.8153 110.334 13.1891 109.709 12.7604L109.569 12.664L109.68 12.534C110.2 11.9077 110.041 11.1563 109.743 10.6987C109.449 10.2459 108.833 9.80268 108.073 10.0195L107.91 10.0676L107.881 9.89903C107.746 9.1572 107.202 8.85372 106.774 8.82C106.25 8.77665 105.807 9.08012 105.634 9.58592L105.543 9.84122L105.37 9.62927C105.071 9.27281 104.585 9.13793 104.099 9.28244C103.676 9.40768 103.19 9.78823 103.099 10.4915C103.181 10.8913 103.402 11.2237 103.638 11.5754C104.027 12.1582 104.431 12.7604 104.157 13.6852L104.128 13.7768L104.032 13.7912C102.103 14.1284 100.871 13.4781 100.405 12.8182C100.121 12.4135 100.068 11.9559 100.275 11.5994L100.506 11.1948L100.563 11.6573C100.626 12.1486 100.934 12.2979 101.117 12.3461C101.449 12.4328 101.843 12.2979 102.04 12.0234C102.271 11.7006 102.228 11.2526 101.91 10.7516L101.872 10.689L101.896 10.6168C102.021 10.2507 101.91 9.85085 101.646 9.59073C101.617 9.81713 101.502 10.0291 101.309 10.1784C101.093 10.3037 100.915 10.3759 100.741 10.4434C100.231 10.6505 99.8273 10.8143 99.4376 11.8499L99.3558 12.0619L99.1874 11.9126C98.2493 11.0599 98.1868 10.3229 98.3503 9.81232L97.6046 9.47994C97.3016 10.1254 96.8493 10.5252 95.762 10.4385L95.5407 10.4193L95.637 10.217C96.1132 9.21019 95.8246 8.82 95.5696 8.48281C95.4878 8.37683 95.4157 8.27567 95.3675 8.16006C95.2713 7.92884 95.2521 7.4086 95.4012 7.07141C95.0741 7.09549 94.8287 7.44232 94.5353 7.91439L94.5016 7.9722L94.4342 7.99147C93.8665 8.10226 93.5201 8.34793 93.4576 8.68512C93.4095 8.9597 93.5586 9.26799 93.8328 9.43659C94.1311 9.61964 94.4823 9.59073 94.795 9.35951L95.1799 9.07049L95.0308 9.53293C94.8576 10.0821 94.2995 10.5108 93.65 10.6023C93.1064 10.6794 92.048 10.5782 91.0329 9.05604L90.98 8.97415L91.0281 8.89226C91.5284 8.03 92.2645 7.7747 92.9765 7.52903C93.3469 7.39897 93.6981 7.27854 94.0205 7.07622C94.4102 6.59452 94.4871 5.9394 94.2177 5.39988C93.9964 4.96153 93.6115 4.71586 93.1737 4.74476L92.8899 4.76403L93.0294 4.51836C93.1737 4.26306 93.1064 3.94513 92.8514 3.66092C92.5098 3.28038 91.8267 3.01544 91.1339 3.31891L90.9751 3.37672L90.9078 3.24666C90.5325 2.5241 89.681 2.32178 89.0363 2.49519C88.3387 2.67824 87.9442 3.22257 87.9683 3.94513L87.9779 4.14263L87.7855 4.09928C87.0686 3.94513 86.4673 4.50391 86.3229 5.11568C86.2748 5.32281 86.1738 6.01647 87.0109 6.23805L87.5449 6.37775L87.0157 6.5319C86.6934 6.62824 86.4288 6.84019 86.27 7.13403C86.1113 7.42787 86.0728 7.76506 86.169 8.08781C86.2652 8.41055 86.4913 8.68512 86.7896 8.84409C87.1889 8.92598 87.6075 8.8489 88.0501 8.76701C88.7862 8.63214 89.5511 8.48762 90.3016 9.09457L90.3786 9.1572L90.3593 9.24872C90.0226 10.7179 89.224 11.7343 88.2233 11.9607C87.67 12.086 87.1456 11.9318 86.8522 11.5561L86.5635 11.1852L87.0157 11.3104C87.3765 11.4116 87.7037 11.3201 87.9009 11.0551C88.0982 10.795 88.1222 10.4337 87.9635 10.1736C87.771 9.85567 87.3429 9.73524 86.7607 9.84122L86.6934 9.85085L86.6405 9.8075C86.2652 9.51848 86.0247 9.34988 85.7456 9.45586C85.914 9.60037 86.0054 9.82677 85.9621 10.0628L85.9573 10.1351C85.8948 10.9877 85.8611 11.4549 86.881 12.428L87.0398 12.5773L86.8425 12.6737C85.8563 13.1698 84.9518 13.0976 84.3649 12.4762L84.2783 12.3846L84.3457 12.2835C84.6728 11.7921 84.8652 11.2189 84.8989 10.6312C84.9278 10.0917 84.6968 9.62927 84.4755 9.1861C84.1965 8.6225 83.903 8.03964 84.2158 7.36525C83.4941 7.19665 82.7436 7.44714 82.2625 8.03L82.0556 8.28049L81.9931 7.95775C81.9738 7.84695 81.8921 7.75061 81.7862 7.71208L81.6034 7.64464L81.7092 7.48086C82.4934 6.28141 83.3979 5.83342 84.6343 6.04055C84.7786 5.69854 84.7642 5.30836 84.5862 4.97598L84.4996 4.8122L84.6728 4.7544C85.635 4.44611 85.7937 4.12336 86.0872 3.53568C86.1401 3.43452 86.1931 3.32373 86.2556 3.20812C86.1161 3.26111 85.9718 3.3141 85.8322 3.36708C84.7786 3.7669 83.778 4.14745 82.9216 5.02897C82.6041 5.35171 82.4694 5.66964 82.325 6.00683C82.2288 6.22842 82.1326 6.46446 81.9787 6.71013C81.6948 7.00878 81.4062 7.25446 81.0934 7.47122L81.0261 7.49531C80.4488 7.57238 79.9629 7.76025 79.5732 7.91439C79.3567 8.0011 79.1787 8.06854 79.0344 8.09744C79.1017 8.67549 79.1017 9.25836 79.0392 9.83159L79.0344 9.87494L79.0055 9.90866C78.8371 10.1158 78.635 10.294 78.4137 10.4434C78.178 10.612 77.9519 10.7227 77.7306 10.8287C77.4034 10.9925 77.0955 11.1418 76.7924 11.4742C76.0708 12.269 75.7629 13.5118 75.4694 14.7161C75.3828 15.0726 75.2962 15.4146 75.2048 15.7373C75.2481 15.7084 75.2914 15.6795 75.3347 15.6554C76.0612 15.1882 76.4605 14.928 76.7492 13.8201L76.7924 13.6515L76.9512 13.7141C77.2687 13.8346 77.6296 13.7912 77.9086 13.5985C77.6103 12.3798 78.1299 11.0792 79.1931 10.4048L79.3374 10.3133L79.4144 10.4626C79.4818 10.5927 79.602 10.689 79.7464 10.7179L80.0158 10.7757L79.8282 10.978C79.2749 11.5705 78.6639 12.7411 78.8131 13.56C79.5347 13.1602 80.3044 13.2662 81.0501 13.3673C81.5168 13.4299 81.9979 13.4974 82.479 13.4492C83.0804 13.4203 83.6529 13.2276 84.1436 12.8904L84.2398 12.823L84.3312 12.8952C84.9614 13.4203 85.0721 14.2248 84.6584 15.2845L84.5766 15.4916L84.413 15.3423C83.5855 14.5957 83.1477 14.6294 82.5945 14.6727C82.4068 14.6872 82.2096 14.7016 81.9835 14.692C81.7574 14.692 81.5505 14.5523 81.4062 14.3066C81.2763 14.6583 81.358 15.0726 81.6371 15.3471L81.69 15.4001L81.6804 15.4724C81.6178 16.0552 81.7718 16.4791 82.1182 16.6622C82.4165 16.8211 82.8158 16.773 83.09 16.5466C83.2343 16.4262 83.4556 16.1468 83.3065 15.6747L83.167 15.246L83.5374 15.4965C83.879 15.7277 84.0377 16.1419 83.9608 16.6333C83.8405 17.4281 83.0323 18.5649 81.1464 19.143L81.055 19.1719L80.9876 19.0996C80.3333 18.3963 80.4247 17.6786 80.5161 16.9849C80.569 16.5658 80.622 16.166 80.5161 15.771C80.1168 15.1833 79.5154 15.0581 79.0777 15.1352C78.5821 15.2219 78.2069 15.5591 78.101 16.0119L78.0385 16.2816L77.8412 16.0841C77.466 15.7084 76.9368 15.6362 76.4894 15.9011C76.1141 16.1227 75.7533 16.6429 75.965 17.3799L76.0131 17.5437L75.8447 17.5774C75.0461 17.7316 74.6949 18.4204 74.6371 18.9599C74.5794 19.4946 74.7718 20.2316 75.4983 20.5447L75.6571 20.6122L75.5753 20.7615C75.2096 21.4263 75.4406 22.0043 75.7485 22.303C76.1237 22.6594 76.6577 22.7124 77.1148 22.433L77.3505 22.2885V22.5631C77.3505 23.0255 77.6392 23.435 78.1058 23.6325C78.5196 23.8059 79.1402 23.8203 79.655 23.3338C79.8474 22.9725 79.8859 22.5679 79.9244 22.1488C79.9917 21.4503 80.0591 20.7326 80.8529 20.1931L80.9347 20.1401L81.0165 20.1883C82.7292 21.1661 83.268 22.4475 83.2055 23.2519C83.167 23.7385 82.9216 24.1142 82.5415 24.2635L82.1086 24.4321L82.3587 24.0371C82.6233 23.6228 82.479 23.3097 82.3683 23.1556C82.1615 22.8762 81.7766 22.7365 81.4495 22.8184C81.0646 22.9196 80.8144 23.3001 80.7471 23.883L80.7374 23.9552L80.6749 23.9938C80.3429 24.2009 80.1746 24.5863 80.2179 24.9572C80.3814 24.803 80.5979 24.7115 80.8337 24.7115C80.8385 24.7115 80.8433 24.7115 80.8481 24.7115C81.0934 24.7549 81.2763 24.8127 81.4591 24.8656C81.9883 25.0342 82.4068 25.1643 83.3786 24.6152L83.5711 24.5044L83.6048 24.726C83.7731 25.858 83.4893 26.6191 82.758 26.9852L82.6522 27.0381L82.5752 26.9466C82.2144 26.5179 81.7381 26.2 81.2041 26.0314C80.6845 25.8339 80.1986 25.9254 79.7271 26.0121C79.145 26.1181 78.5436 26.2289 77.9952 25.7327C77.6103 26.3782 77.6199 27.173 78.0337 27.8137L78.1972 28.0642L77.899 28.0497C77.7498 28.0401 77.6103 28.1075 77.5189 28.2183L77.4082 28.3484L77.288 28.2231C76.4028 27.3031 76.2055 25.9495 76.7876 24.8175C76.5615 24.5622 76.2248 24.4321 75.8832 24.4706L75.71 24.4899V24.3165C75.71 23.1941 75.3636 22.828 74.7863 22.2259C74.7478 22.1825 74.7045 22.1392 74.666 22.0958C74.6804 22.4282 74.6804 22.7847 74.6853 23.1508C74.6901 24.3936 74.6949 25.6749 75.2096 26.6142C75.4261 27.0092 75.6907 27.2308 75.9698 27.462C76.1574 27.6162 76.3498 27.78 76.5471 28.0016C76.7251 28.1942 76.8742 28.4158 76.9945 28.6567L77.0186 28.7L77.0089 28.7482C76.9079 29.3311 76.9223 29.8417 76.9368 30.2174C76.9416 30.4342 76.9464 30.6076 76.932 30.7425C77.0667 30.8003 77.2206 30.9014 77.4082 31.0219C77.7354 31.2386 78.1443 31.5036 78.6832 31.7107L78.7313 31.73L78.7601 31.7733C78.9045 31.9949 79.0199 32.2358 79.1017 32.4911C79.1931 32.7656 79.2316 33.0161 79.2701 33.257C79.3278 33.6183 79.3856 33.9603 79.6165 34.3456C80.1649 35.2657 81.2666 35.9208 82.3299 36.5567C82.6474 36.7445 82.9505 36.9276 83.2295 37.1106C83.2151 37.0625 83.2006 37.0095 83.1862 36.9613C82.9505 36.1328 82.8158 35.6751 81.8439 35.0826L81.6996 34.9911L81.7862 34.9285C81.9979 34.6587 82.0556 34.2975 81.9546 33.9747C80.6941 33.9073 79.5972 33.0258 79.2653 31.7974L79.222 31.6336L79.3904 31.6047C79.5347 31.5806 79.6598 31.4891 79.7271 31.3639L79.8666 31.0989L80.0014 31.3639C80.3333 32.0286 81.0261 32.4477 81.7574 32.4477H81.7622C81.613 31.7155 82.0123 31.2483 82.402 30.7955C82.7099 30.4342 83.0274 30.0633 83.1285 29.5334C83.2776 28.9698 83.2632 28.3917 83.0996 27.8474L83.0659 27.7366L83.1622 27.674C83.8453 27.2164 84.6487 27.3416 85.5436 28.0545L85.7168 28.1942L85.5243 28.3099C84.5718 28.8831 84.4804 29.3118 84.3601 29.8513C84.3216 30.0344 84.2783 30.227 84.2013 30.439C84.081 30.6654 83.8934 30.8195 83.6721 30.887C83.9704 31.1038 84.3649 31.1423 84.7065 30.9641L84.769 30.9303L84.8364 30.9592C85.38 31.1905 85.8274 31.1616 86.1065 30.8773C86.3422 30.6365 86.4144 30.227 86.27 29.9091C86.1931 29.7405 85.9862 29.4611 85.5051 29.4804L85.0384 29.4997L85.3992 29.2058C85.7168 28.9457 86.169 28.9168 86.6068 29.1288C87.3284 29.4756 88.1752 30.5787 88.1752 32.5489V32.6452L88.0886 32.6886C87.2274 33.1125 86.5683 32.8138 85.9333 32.5248C85.5484 32.3514 85.1828 32.1828 84.7738 32.1731C84.1003 32.3803 83.802 32.9198 83.7491 33.3581C83.6865 33.8639 83.8982 34.3216 84.3023 34.5576L84.5381 34.6973L84.2975 34.8273C83.8261 35.0875 83.6048 35.5788 83.7298 36.0846C83.8357 36.4989 84.2254 36.9902 84.9807 36.995H85.1491L85.1298 37.1636C85.0432 37.9729 85.6013 38.5124 86.1016 38.7243C86.5972 38.9363 87.3525 38.9652 87.8625 38.3583L87.9827 38.2137L88.0982 38.3583C88.4975 38.8592 89.2288 38.9411 89.7291 38.5413C90.0851 38.2571 90.2391 37.7898 90.1284 37.3515L90.0611 37.0962L90.3209 37.1733C90.7683 37.3033 91.2494 37.1444 91.5717 36.7494C91.8507 36.4073 92.0384 35.8245 91.7257 35.1983C91.437 34.9044 91.0617 34.7503 90.6721 34.5913C90.0274 34.3264 89.3587 34.0518 89.0748 33.1366L89.0459 33.045L89.1181 32.9776C90.5422 31.624 91.8892 31.465 92.6734 31.7685C93.1305 31.9419 93.4239 32.2936 93.4576 32.703L93.4961 33.1703L93.1882 32.8138C92.8658 32.4429 92.5243 32.4911 92.3463 32.5489C92.0191 32.6645 91.7689 32.992 91.7593 33.3341C91.7449 33.7291 92.0336 34.0807 92.5724 34.3167L92.6397 34.3456L92.659 34.4179C92.76 34.7984 93.0727 35.0682 93.4432 35.1308C93.3421 34.9237 93.3181 34.6828 93.3902 34.4564C93.5009 34.2348 93.6067 34.0759 93.7078 33.9217C94.0157 33.4593 94.261 33.098 94.0349 31.9997L93.9916 31.783L94.2081 31.8167C95.3387 31.9805 95.9785 32.4766 96.1181 33.2859L96.1373 33.4063L96.0266 33.4545C95.5167 33.6809 95.0789 34.047 94.7614 34.5094C94.439 34.9478 94.3813 35.4343 94.3236 35.9015C94.2514 36.494 94.1792 37.1058 93.5394 37.4912C94.0349 38.0355 94.8143 38.2619 95.5263 38.0548L95.8102 37.9729L95.7139 38.2523C95.6658 38.392 95.6851 38.5413 95.7669 38.6665L95.8583 38.8111L95.7091 38.8881C94.5882 39.4662 93.2074 39.2542 92.3078 38.3775C92.0047 38.522 91.7834 38.8062 91.7257 39.1434L91.6968 39.312L91.5332 39.2639C90.4411 38.9508 90.0178 39.1627 89.248 39.5433C89.2095 39.577 89.1614 39.6011 89.1085 39.6251ZM94.3813 32.1587C94.5545 33.2184 94.2707 33.6423 93.9676 34.0903C93.8713 34.2397 93.7655 34.389 93.6789 34.572C93.6164 34.7744 93.6837 35.0152 93.8617 35.1742L94.0975 35.3813C94.16 35.0297 94.2706 34.6684 94.5208 34.3312C94.8432 33.8591 95.2809 33.4786 95.7957 33.2281C95.6514 32.6645 95.1895 32.3176 94.3813 32.1587ZM80.5209 25.6605C80.7711 25.6605 81.0261 25.6942 81.2955 25.7953C81.8391 25.9688 82.3299 26.2819 82.7195 26.7058C83.2055 26.4071 83.4075 25.858 83.3257 25.0439C82.3732 25.5304 81.8824 25.3763 81.3629 25.2125C81.1945 25.1595 81.0165 25.1017 80.8144 25.068C80.6075 25.0535 80.3862 25.2028 80.2948 25.4196L80.1842 25.6749C80.29 25.6701 80.4055 25.6605 80.5209 25.6605ZM104.417 23.6517C105.475 23.7818 105.798 24.1768 106.139 24.6007C106.255 24.7404 106.37 24.8849 106.519 25.0246C106.697 25.1402 106.948 25.1402 107.145 25.0102L107.39 24.8464C107.082 24.6874 106.774 24.4755 106.529 24.1479C106.173 23.7047 105.937 23.1749 105.846 22.6113C105.278 22.5824 104.807 22.9292 104.417 23.6517ZM104.633 20.0149C104.922 20.7856 105.35 21.1854 105.923 21.2336C106.106 20.6652 106.428 20.1546 106.866 19.7499C107.14 19.4705 107.453 19.3068 107.765 19.1911L107.539 19.0033C107.356 18.854 107.101 18.825 106.895 18.9358C106.741 19.0466 106.601 19.1767 106.466 19.3068C106.077 19.6729 105.706 20.0197 104.667 20.0197C104.657 20.0149 104.648 20.0149 104.633 20.0149ZM82.9457 14.403C83.3594 14.403 83.8068 14.5041 84.4371 15.0244C84.6968 14.2488 84.6199 13.6708 84.2061 13.2662C83.6914 13.5937 83.0996 13.7816 82.4934 13.8105C82.1615 13.849 81.8295 13.8298 81.5024 13.7912L81.5601 13.9694C81.6323 14.1958 81.7814 14.4415 81.9883 14.4415C82.2048 14.4512 82.3876 14.4367 82.5656 14.4271C82.6907 14.4126 82.8158 14.403 82.9457 14.403ZM98.6149 9.9472C98.4417 10.559 98.8074 11.1274 99.2163 11.5416C99.6349 10.5686 100.106 10.3759 100.607 10.1736C100.77 10.1062 100.943 10.0387 101.121 9.93756C101.29 9.8075 101.367 9.56665 101.304 9.34024L101.222 9.06085C100.982 9.30653 100.693 9.53293 100.308 9.67262C99.8177 9.87012 99.2885 9.9472 98.7593 9.89421L99.4424 10.3277L98.6149 9.9472ZM95.7476 4.82184C96.3249 5.29391 96.3105 5.91049 96.3009 6.50781C96.2912 6.97988 96.2816 7.47122 96.5366 7.9433C96.7868 8.44909 97.1668 8.87299 97.6383 9.17165L98.3984 9.65335C98.4033 9.64854 98.4033 9.6389 98.4081 9.63409L98.4562 9.52329L98.5765 9.54256C99.1249 9.64372 99.6926 9.58592 100.207 9.37397C100.722 9.19092 101.04 8.82 101.348 8.45872C101.737 8.00592 102.141 7.53866 102.882 7.57238C102.776 6.84019 102.276 6.23324 101.559 5.99238L101.275 5.89604L101.516 5.71781C101.631 5.63592 101.699 5.50104 101.704 5.35653L101.708 5.18793L101.877 5.2072C103.123 5.35653 104.143 6.30068 104.398 7.52421C104.73 7.5772 105.076 7.46159 105.312 7.21592L105.432 7.09067L105.543 7.22074C106.269 8.07817 106.731 8.1408 107.573 8.25159C107.631 8.26122 107.693 8.26604 107.756 8.27567C107.534 8.02519 107.308 7.75543 107.073 7.47122C106.288 6.51744 105.475 5.52513 104.479 5.12531C104.066 4.95671 103.719 4.9519 103.359 4.9519C103.118 4.9519 102.868 4.94708 102.584 4.89891C102.324 4.85556 102.069 4.7833 101.829 4.67732L101.781 4.65806L101.756 4.6147C101.473 4.11373 101.155 3.74763 100.895 3.45379C100.746 3.28038 100.621 3.14068 100.549 3.01544C100.409 3.05397 100.231 3.07324 100.005 3.09733C99.6397 3.13586 99.1345 3.18885 98.5813 3.3719L98.5332 3.38635L98.485 3.3719C98.2301 3.29001 97.9895 3.17922 97.7682 3.02989C97.5229 2.87093 97.3352 2.70233 97.1524 2.54336C96.8782 2.30251 96.6232 2.07129 96.1998 1.92196C95.1895 1.55587 93.9291 1.74373 92.7023 1.92678C92.3366 1.97977 91.9903 2.03276 91.6535 2.07129C91.6968 2.10019 91.7401 2.13391 91.7834 2.16282C92.4906 2.65416 92.8755 2.9191 94.006 2.76495L94.1744 2.74086L94.1792 2.91428C94.1889 3.25629 94.3669 3.57422 94.6507 3.75727C95.661 3.01544 97.0562 3.0058 98.0857 3.73318L98.2253 3.82952L98.1146 3.95958C98.0184 4.07037 97.9799 4.21489 98.0088 4.3594L98.0665 4.65324L97.7923 4.53281C97.1043 4.23415 96.3201 4.34495 95.7476 4.82184Z" fill="#860142"/>
<path fill-rule="evenodd" clip-rule="evenodd" d="M103.156 14.9619C103.065 15.8868 102.276 16.5804 101.352 16.5612C101.295 17.1248 101.8 17.4812 102.651 17.5246C102.69 19.4177 103.262 20.8772 104.369 21.9081C102.916 22.6451 101.992 24.1288 101.963 25.7618C101.117 25.4583 100.761 25.7618 100.52 26.3494C101.42 26.5132 101.838 27.2021 101.785 28.416C100.823 28.546 100 28.3052 99.6204 27.4525C99.1249 27.756 98.9709 28.4015 99.2692 28.8977C99.3173 28.9699 99.3702 29.0374 99.428 29.1C97.8933 29.5239 96.6905 30.7089 96.2479 32.2407C94.7469 30.8582 93.2026 30.338 91.615 30.68C91.5043 30.1501 91.0906 29.7358 90.5614 29.625C90.417 30.7522 89.9119 31.3833 89.0459 31.523C88.6562 30.733 88.8775 29.7792 89.5751 29.2397C89.07 28.9651 88.459 28.9988 87.9827 29.3167C86.9676 27.6741 85.9958 26.9082 83.9174 26.9082C84.6006 25.3475 84.5381 23.5555 83.7394 22.0478C84.2542 21.7925 84.5525 21.2482 84.4948 20.6797C83.648 21.0988 82.859 20.8869 82.1374 20.0487C83.0226 19.2683 83.8838 19.1816 84.5717 19.7356C84.7882 19.2105 84.5381 18.6084 84.0137 18.3868H84.0089H83.9607C84.9037 17.4041 85.3174 15.8771 85.2068 13.801C86.7463 13.9985 88.2954 13.5168 89.4597 12.4907C89.883 12.7412 90.3978 12.8038 90.8693 12.6641C90.3112 12.0909 90.3256 11.1757 90.8933 10.6217C90.9126 10.6024 90.9318 10.5832 90.9559 10.5639L91.0232 10.5061C91.894 11.1179 92.0143 11.6622 91.8315 12.4329C92.4521 12.6834 92.9139 12.327 93.1833 11.4695C94.6266 11.7056 96.1036 11.5032 97.4314 10.8915C98.0087 12.6015 99.0286 13.4493 100.385 14.2634C100.212 14.7933 100.376 15.3762 100.799 15.7423C101.453 14.933 101.843 14.7788 103.147 14.9571L103.156 14.9619Z" fill="#007982"/>
<path d="M96.3249 32.52L96.1421 32.3514C94.6892 31.0075 93.1737 30.4969 91.6439 30.8292L91.4947 30.863L91.461 30.7088C91.3744 30.2946 91.0762 29.9574 90.6865 29.8177C90.5037 30.9063 89.96 31.5325 89.07 31.6722L88.9593 31.6915L88.9112 31.5903C88.5312 30.8148 88.6947 29.8803 89.2961 29.283C88.892 29.1433 88.4349 29.1963 88.0741 29.4467L87.9394 29.5383L87.8528 29.4034C86.9147 27.8908 86.0102 27.0671 83.9175 27.0671H83.6817L83.7779 26.8503C84.4467 25.3233 84.3841 23.5988 83.6047 22.1248L83.5326 21.9851L83.6769 21.9129C84.0618 21.7202 84.3168 21.3396 84.3504 20.9157C83.5182 21.2337 82.7388 20.9783 82.0268 20.1498L81.9257 20.0342L82.0412 19.933C82.8975 19.1768 83.7635 19.0226 84.49 19.4851C84.514 19.3261 84.4996 19.1623 84.4322 19.0082C84.3456 18.801 84.1869 18.6373 83.98 18.5457H83.5999L83.8501 18.2856C84.7594 17.3415 85.1635 15.8337 85.0528 13.8154L85.0432 13.6323L85.226 13.6564C86.7222 13.8443 88.2281 13.3818 89.3587 12.3847L89.4404 12.3124L89.5367 12.3703C89.8542 12.5581 90.2294 12.6304 90.5903 12.5822C90.4026 12.3124 90.3016 11.9897 90.3064 11.6477C90.3112 11.219 90.4844 10.8192 90.7875 10.5205C90.8067 10.5012 90.8308 10.4771 90.8549 10.4579L91.0136 10.323L91.1098 10.3904C92.0239 11.0311 92.149 11.6381 92.0095 12.3413C92.1682 12.3847 92.3126 12.3751 92.4473 12.3124C92.6878 12.1968 92.8899 11.8934 93.039 11.4309L93.0775 11.3057L93.2074 11.3249C94.6218 11.5562 96.0603 11.3587 97.3641 10.7614L97.518 10.6891L97.5709 10.8529C98.1194 12.4762 99.0816 13.3144 100.458 14.1429L100.563 14.2056L100.525 14.3212C100.385 14.7451 100.486 15.2027 100.78 15.5254C101.42 14.774 101.906 14.6439 103.161 14.8125L103.214 14.827L103.306 14.8751V14.9859C103.209 15.9301 102.435 16.6623 101.501 16.7201C101.511 16.8309 101.554 16.9272 101.627 17.0139C101.809 17.2259 102.17 17.3559 102.651 17.38L102.796 17.3896L102.8 17.5341C102.839 19.3743 103.397 20.8097 104.47 21.8069L104.633 21.9562L104.436 22.0574C103.031 22.7703 102.141 24.1961 102.117 25.7761L102.112 25.9929L101.91 25.9207C101.237 25.6798 100.943 25.8484 100.737 26.253C101.588 26.4891 101.992 27.2213 101.939 28.4352L101.934 28.5652L101.809 28.5845C100.746 28.729 99.9716 28.4255 99.5675 27.703C99.2548 27.9872 99.1778 28.4641 99.4039 28.835C99.4424 28.8976 99.4905 28.9554 99.5434 29.0084L99.7214 29.1963L99.4713 29.2637C97.9991 29.6683 96.8204 30.8292 96.3971 32.2985L96.3249 32.52ZM92.5531 30.4198C93.7895 30.4198 95.0019 30.9352 96.1758 31.9613C96.6569 30.5739 97.773 29.4708 99.1682 29.0132C99.1586 28.9988 99.1489 28.9891 99.1441 28.9747C98.8026 28.4063 98.9806 27.6596 99.5434 27.3176L99.6926 27.2261L99.7647 27.385C100.073 28.0691 100.703 28.3677 101.641 28.2762C101.655 27.2213 101.28 26.6432 100.496 26.4987L100.308 26.465L100.381 26.2868C100.578 25.8099 100.919 25.3041 101.819 25.5497C101.91 24.0083 102.772 22.6306 104.114 21.8695C103.108 20.8483 102.565 19.4369 102.507 17.6642C102.002 17.616 101.627 17.4571 101.405 17.2018C101.247 17.0187 101.179 16.7923 101.203 16.5418L101.218 16.4021L101.357 16.407C102.137 16.4118 102.834 15.8578 102.983 15.0919C101.819 14.9474 101.497 15.1256 100.919 15.8385L100.818 15.9638L100.698 15.8626C100.255 15.4821 100.073 14.8944 100.203 14.3404C98.8651 13.5263 97.9125 12.6785 97.34 11.1082C96.0603 11.6621 94.6651 11.85 93.2892 11.6477C93.116 12.1294 92.8803 12.4473 92.5772 12.587C92.3366 12.7026 92.0672 12.6978 91.7737 12.5822L91.6535 12.534L91.6823 12.404C91.8411 11.744 91.7786 11.2671 91.0329 10.7084L91.004 10.7373C90.7586 10.9781 90.6191 11.3009 90.6143 11.6477C90.6095 11.9945 90.7394 12.3173 90.9799 12.5629L91.1579 12.746L90.9126 12.8182C90.4363 12.9628 89.9167 12.9098 89.4789 12.6834C88.3387 13.6516 86.857 14.1188 85.3704 13.9792C85.4473 15.8867 85.0625 17.3463 84.2254 18.329C84.4467 18.459 84.615 18.6565 84.7161 18.8926C84.8363 19.1864 84.8363 19.5091 84.7161 19.7982L84.6391 19.986L84.4803 19.856C83.7202 19.2442 82.9312 19.6055 82.3635 20.0631C83.013 20.7519 83.6865 20.9109 84.4322 20.54L84.6295 20.4437L84.6535 20.6652C84.7113 21.2433 84.4322 21.8069 83.9511 22.1104C84.6776 23.5699 84.7498 25.2415 84.1532 26.7588C86.1594 26.8166 87.1264 27.6693 88.0404 29.1096C88.5408 28.835 89.147 28.8302 89.6569 29.1096L89.8638 29.2203L89.6762 29.3649C89.07 29.8321 88.8583 30.651 89.1422 31.3543C89.8686 31.1905 90.2872 30.6221 90.4171 29.6105L90.4363 29.4467L90.5999 29.4805C91.1387 29.5913 91.5717 29.9863 91.7353 30.5065C92.0047 30.4487 92.2789 30.4198 92.5531 30.4198Z" fill="#860142"/>
<path fill-rule="evenodd" clip-rule="evenodd" d="M100.833 21.7685C102.608 20.6894 100 17.6884 100.737 16.6046C99.5098 16.9032 97.85 13.1844 96.0988 14.408C95.6562 12.38 92.1827 14.1045 91.3937 13.0592C91.283 14.3165 87.2515 14.5043 87.8432 16.5612C85.7023 16.4071 86.1257 20.4149 84.9182 20.7665C86.1065 21.3205 85.1876 25.1019 87.2611 25.1019C86.4144 26.9998 90.2343 27.679 90.2487 28.9892C91.0858 28.0258 94.4294 30.2417 95.1799 28.2233C96.7772 29.6684 98.8026 26.1472 99.9909 26.6C99.3943 25.4342 102.469 23.0642 100.842 21.7829L100.833 21.7685Z" fill="white"/>
<path d="M90.0996 29.3938L90.0947 28.9892C90.0899 28.5219 89.4404 28.1029 88.7525 27.6549C87.7903 27.0335 86.7078 26.3398 87.0446 25.2367C85.9092 25.0922 85.7071 23.8157 85.5291 22.6788C85.3992 21.8648 85.279 21.0988 84.8556 20.8965L84.4852 20.7231L84.8797 20.6075C85.2982 20.4871 85.5147 19.7356 85.736 18.9408C86.0535 17.8232 86.4384 16.4504 87.6556 16.3926C87.4583 15.2028 88.7284 14.6151 89.7628 14.1382C90.5037 13.7962 91.2061 13.4686 91.2446 13.0351L91.2782 12.6353L91.5188 12.9532C91.8026 13.3289 92.5724 13.2807 93.3902 13.2278C94.5304 13.1555 95.815 13.0736 96.195 14.1574C97.2534 13.5938 98.2397 14.5573 99.1105 15.4099C99.707 15.9927 100.275 16.5467 100.703 16.4407L101.093 16.3444L100.866 16.6768C100.602 17.067 100.866 17.8232 101.15 18.6277C101.55 19.7693 102.002 21.0507 101.083 21.7732C101.92 22.5873 101.275 23.7145 100.708 24.7165C100.304 25.4294 99.9187 26.099 100.135 26.518L100.318 26.8745L99.9428 26.73C99.529 26.571 98.9132 27.0575 98.2589 27.5682C97.3497 28.2811 96.2335 29.1578 95.2473 28.4545C94.6988 29.5287 93.3325 29.2589 92.226 29.0422C91.4226 28.8832 90.6672 28.7387 90.3738 29.0759L90.0996 29.3938ZM90.9944 28.5797C91.3745 28.5797 91.8171 28.6664 92.2741 28.758C93.4384 28.9844 94.6411 29.2204 95.0356 28.1703L95.1126 27.9583L95.281 28.1125C96.1132 28.8688 97.1043 28.0932 98.0617 27.3418C98.6727 26.8649 99.2548 26.3928 99.7696 26.4072C99.6926 25.8822 100.053 25.2463 100.433 24.5768C100.996 23.5893 101.578 22.5632 100.746 21.9081L100.713 21.8744L100.621 21.7395L100.751 21.6383C101.675 21.0748 101.261 19.8898 100.857 18.7433C100.592 17.9966 100.342 17.2837 100.491 16.7683C99.9813 16.7057 99.452 16.1854 98.894 15.6411C98.0136 14.7788 97.1043 13.8925 96.1854 14.5332L95.9978 14.6632L95.9497 14.4368C95.7236 13.3915 94.5449 13.4686 93.4095 13.5409C92.6397 13.589 91.9085 13.6372 91.4755 13.3385C91.2542 13.7962 90.5903 14.1045 89.8927 14.4272C88.8102 14.9282 87.6893 15.4436 87.9972 16.513L88.0597 16.7249L87.8384 16.7105C86.7175 16.6334 86.3663 17.8473 86.0343 19.0323C85.8274 19.7741 85.6254 20.4774 85.2212 20.7857C85.6061 21.1518 85.7216 21.8792 85.837 22.6403C86.0151 23.7771 86.1979 24.9477 87.2659 24.9477H87.5016L87.4054 25.1644C86.9676 26.1423 87.9635 26.783 88.9209 27.3996C89.5655 27.8138 90.1813 28.2136 90.3545 28.7098C90.5325 28.6135 90.749 28.5797 90.9944 28.5797Z" fill="#860142"/>
<path fill-rule="evenodd" clip-rule="evenodd" d="M99.9043 6.57535C99.2356 6.88846 98.9421 7.76035 98.6871 8.41066C99.0335 8.63706 99.4569 8.7045 99.8562 8.59852C100.034 8.54072 100.198 8.44437 100.337 8.31913C100.886 7.83742 100.934 6.84993 101.569 7.02334C100.977 6.54163 100.453 6.37304 99.9909 6.54163L99.9139 6.57054L99.9043 6.57535Z" fill="#FBA407"/>
<path d="M99.4809 8.80079C99.173 8.80079 98.8651 8.70927 98.6054 8.54067L98.4995 8.47323L98.6005 8.20829C98.8507 7.56281 99.1634 6.75836 99.837 6.44043L99.938 6.40189C100.443 6.21403 101.025 6.38744 101.665 6.90768L102.233 7.37012L101.53 7.17744C101.285 7.11 101.174 7.2786 100.953 7.69768C100.823 7.94817 100.674 8.23238 100.438 8.43951C100.284 8.57921 100.102 8.68518 99.9043 8.7478C99.7648 8.78152 99.6205 8.80079 99.4809 8.80079ZM98.8796 8.34317C99.1682 8.4925 99.5002 8.53585 99.8177 8.44915C99.9668 8.40097 100.111 8.31909 100.236 8.20348C100.434 8.03006 100.559 7.78439 100.684 7.54835C100.814 7.30268 100.948 7.03775 101.165 6.9125C100.741 6.63793 100.371 6.56086 100.044 6.68128L99.9668 6.71018H99.9717C99.4088 6.97512 99.1201 7.71695 98.8892 8.31427L98.8796 8.34317Z" fill="#860142"/>
<path fill-rule="evenodd" clip-rule="evenodd" d="M98.6534 8.40095C98.4417 8.38168 98.2349 8.31906 98.052 8.21308C97.8837 8.11674 97.7345 7.98186 97.6191 7.8229C97.518 7.66875 97.4507 7.49534 97.4218 7.31229C97.2967 6.58009 97.8596 5.79009 97.2534 5.53479C98.0376 5.53479 98.5572 5.72266 98.8025 6.16101L98.8314 6.20436C99.1778 6.8643 98.8843 7.74101 98.6534 8.40095Z" fill="#FBA407"/>
<path d="M98.7593 8.56476L98.639 8.55513C98.4033 8.53586 98.182 8.4636 97.9751 8.34799C97.7827 8.2372 97.6239 8.09269 97.494 7.91446C97.3737 7.73623 97.3016 7.54354 97.2679 7.33641C97.215 7.02812 97.2727 6.71501 97.3256 6.44044C97.417 5.96355 97.4267 5.77568 97.1909 5.67934L96.4885 5.3855H97.2487C98.1146 5.3855 98.6679 5.61672 98.9325 6.08879L98.9565 6.12251C99.351 6.86915 99.0191 7.82293 98.7978 8.45397L98.7593 8.56476ZM97.6432 5.70342C97.7346 5.93464 97.6816 6.22367 97.6287 6.49342C97.5806 6.75354 97.5277 7.0233 97.571 7.28342C97.595 7.4472 97.6528 7.59653 97.7442 7.73623C97.8452 7.8711 97.9703 7.99153 98.1242 8.07824C98.2541 8.15049 98.3985 8.20348 98.5428 8.23238C98.7449 7.65434 98.9902 6.84989 98.6871 6.27666L98.6679 6.24775C98.4995 5.92983 98.1675 5.75641 97.6432 5.70342Z" fill="#860142"/>
<path fill-rule="evenodd" clip-rule="evenodd" d="M98.8796 7.70751C98.9517 7.46184 98.9854 7.20653 98.9902 6.95123C99.0095 6.65257 98.9421 6.35391 98.793 6.09379L98.7641 6.01672C98.615 5.53501 99.0335 4.97141 99.9957 4.38855C100.472 5.38087 100.525 6.05044 100.15 6.39727L100.102 6.44062C99.5579 6.81635 99.1297 7.33659 98.87 7.94354C98.5236 8.69982 98.7545 8.16031 98.87 7.70751H98.8796Z" fill="#FBA407"/>
<path d="M98.7112 8.48308C98.6871 8.48308 98.6631 8.47345 98.6294 8.46381C98.4899 8.41083 98.5284 8.2904 98.5861 8.11217C98.6246 7.99174 98.6775 7.82314 98.7208 7.669L98.7593 7.55339C98.8074 7.35589 98.8314 7.15357 98.8363 6.95126C98.8555 6.67187 98.793 6.40693 98.6583 6.17089L98.6198 6.06973C98.4947 5.66992 98.6246 5.03888 99.9139 4.2537L100.058 4.16699L100.13 4.32114C100.645 5.39053 100.684 6.10827 100.251 6.50809L100.203 6.55144C99.6637 6.92235 99.2596 7.41851 99.0095 8.00138C98.8363 8.38192 98.793 8.48308 98.7112 8.48308ZM99.9283 4.61016C99.1538 5.10632 98.793 5.58803 98.9084 5.96857L98.9325 6.03601C99.0864 6.30095 99.1586 6.62851 99.1393 6.95607C99.1393 7.02351 99.1345 7.09577 99.1297 7.16321C99.3703 6.83083 99.6686 6.5418 100.01 6.30577L100.044 6.27687C100.347 6.00711 100.308 5.44351 99.9283 4.61016Z" fill="#860142"/>
<path fill-rule="evenodd" clip-rule="evenodd" d="M105.052 11.0792C105.437 11.5609 106.115 11.8403 106.048 12.5581C106.024 12.7796 105.932 12.9868 105.778 13.1457L105.692 13.2276C105.572 13.3432 105.499 13.3095 105.355 13.2276C105.317 13.2084 105.278 13.1843 105.24 13.1554C105.119 13.0638 105.023 12.9482 104.951 12.8182C104.59 12.1727 104.999 11.7102 105.052 11.0696V11.0792Z" fill="#F0A633"/>
<path d="M105.548 13.454C105.447 13.454 105.36 13.4058 105.278 13.3577C105.235 13.3384 105.192 13.3095 105.143 13.2758C105.004 13.1698 104.893 13.0397 104.811 12.8904C104.537 12.4039 104.658 12.0041 104.773 11.6139C104.826 11.4356 104.879 11.2478 104.898 11.0551L105.071 11.0599L105.172 10.978C105.278 11.1081 105.408 11.2285 105.548 11.3489C105.879 11.6476 106.255 11.9848 106.202 12.5677C106.178 12.823 106.067 13.0638 105.889 13.2469L105.798 13.3336C105.706 13.4251 105.625 13.454 105.548 13.454ZM105.153 11.4067C105.129 11.5079 105.1 11.6042 105.071 11.7006C104.961 12.0715 104.874 12.3653 105.086 12.7411C105.148 12.8567 105.23 12.953 105.336 13.0301C105.365 13.0494 105.394 13.0686 105.427 13.0879C105.466 13.1072 105.528 13.1457 105.548 13.1457C105.548 13.1457 105.562 13.1409 105.586 13.112L105.673 13.0301C105.793 12.9 105.875 12.7218 105.894 12.5388C105.932 12.11 105.658 11.8644 105.341 11.5802C105.278 11.5272 105.216 11.4694 105.153 11.4067Z" fill="#860142"/>
<path fill-rule="evenodd" clip-rule="evenodd" d="M108.425 11.6476C108.314 12.5387 107.799 13.9164 105.913 13.1987C106.548 11.5512 107.169 11.5946 108.425 11.6476Z" fill="#F0A633"/>
<path d="M106.866 13.5503C106.563 13.5503 106.226 13.4781 105.86 13.3384L105.716 13.2854L105.774 13.1409C106.442 11.4067 107.135 11.4356 108.396 11.4886L108.564 11.4934L108.583 11.662C108.526 12.1197 108.333 12.9434 107.684 13.3336C107.443 13.4781 107.174 13.5503 106.866 13.5503ZM106.115 13.1072C106.693 13.2998 107.164 13.2902 107.52 13.0734C107.992 12.7892 108.174 12.2016 108.246 11.7921C107.154 11.7488 106.659 11.7777 106.115 13.1072Z" fill="#860142"/>
<path fill-rule="evenodd" clip-rule="evenodd" d="M107.313 15.145C107.116 14.5525 107.26 13.8395 106.62 13.5024C106.423 13.4012 106.202 13.3675 105.985 13.406H105.87C105.711 13.4445 105.697 13.5216 105.677 13.6806C105.673 13.7288 105.673 13.7721 105.677 13.8203C105.692 13.9696 105.735 14.1141 105.803 14.249C106.144 14.9041 106.765 14.8126 107.318 15.1209L107.313 15.145Z" fill="#F0A633"/>
<path d="M107.352 15.7037L107.178 15.2172C107.024 15.1401 106.866 15.092 106.707 15.0486C106.322 14.933 105.923 14.8126 105.668 14.3212C105.591 14.1671 105.543 14.0033 105.528 13.8347C105.523 13.7769 105.523 13.7191 105.528 13.6661C105.548 13.512 105.572 13.3241 105.836 13.2567L105.99 13.2518C106.211 13.2085 106.471 13.247 106.697 13.3674C107.217 13.642 107.289 14.1382 107.356 14.5717C107.38 14.7162 107.4 14.8704 107.438 15.0101L107.496 15.0438L107.352 15.7037ZM106.159 13.5409C106.11 13.5409 106.057 13.5457 106.009 13.5553H105.865C105.841 13.5649 105.841 13.5649 105.827 13.695C105.822 13.7287 105.822 13.7624 105.827 13.801C105.841 13.931 105.875 14.0563 105.937 14.1767C106.134 14.5524 106.423 14.6391 106.794 14.7499C106.89 14.7788 106.986 14.8077 107.082 14.8415C107.068 14.7644 107.058 14.6873 107.044 14.6102C106.981 14.1912 106.928 13.8299 106.548 13.6324C106.428 13.5746 106.293 13.5409 106.159 13.5409Z" fill="#860142"/>
<path fill-rule="evenodd" clip-rule="evenodd" d="M109.449 22.8329C109.026 22.2212 108.117 22.067 107.433 21.9514C107.347 22.1441 107.308 22.356 107.313 22.568C107.318 22.7655 107.366 22.9582 107.453 23.1316C107.534 23.3002 107.65 23.4495 107.794 23.5699C108.376 24.0517 109.343 23.9023 109.281 24.5574C109.661 23.8879 109.728 23.3435 109.478 22.9196L109.449 22.8329Z" fill="#F0A633"/>
<path d="M109.059 25.2559L109.127 24.5382C109.151 24.2925 108.983 24.2154 108.54 24.0806C108.266 23.9939 107.948 23.8975 107.693 23.6856C107.534 23.5555 107.4 23.3821 107.313 23.1942C107.217 23.0015 107.164 22.7848 107.159 22.568C107.154 22.3368 107.198 22.1008 107.294 21.884L107.342 21.7732L107.462 21.7925C108.16 21.9129 109.117 22.0719 109.579 22.7366L109.598 22.7751L109.627 22.8619C109.892 23.305 109.824 23.9072 109.42 24.6249L109.059 25.2559ZM107.53 22.12C107.482 22.2597 107.462 22.409 107.467 22.5584C107.472 22.7318 107.515 22.9004 107.592 23.0594C107.664 23.2087 107.765 23.3436 107.895 23.4447C108.107 23.6181 108.376 23.7048 108.636 23.7867C108.891 23.8638 109.165 23.9505 109.319 24.1384C109.517 23.6759 109.526 23.3002 109.348 22.9967L109.314 22.9052C108.944 22.3898 108.155 22.2308 107.53 22.12Z" fill="#860142"/>
<path fill-rule="evenodd" clip-rule="evenodd" d="M107.438 21.9274C107.419 21.7154 107.448 21.5035 107.52 21.3011C107.587 21.1181 107.693 20.9543 107.828 20.8194C107.967 20.6894 108.131 20.593 108.309 20.5304C109.007 20.2799 109.887 20.699 110.031 20.0487C110.185 20.8194 110.07 21.3638 109.685 21.6865L109.642 21.7202C109.05 22.1634 108.141 22.0285 107.453 21.9274H107.438Z" fill="#F0A633"/>
<path d="M108.497 22.1779C108.126 22.1779 107.751 22.1249 107.433 22.0767H107.294L107.284 21.9371C107.265 21.701 107.294 21.465 107.376 21.2434C107.453 21.0411 107.568 20.858 107.717 20.7039C107.876 20.5546 108.059 20.4486 108.256 20.3763C108.55 20.2703 108.862 20.2752 109.146 20.2752C109.627 20.28 109.824 20.2607 109.877 20.0054L110.036 19.2925L110.18 20.0102C110.344 20.8339 110.209 21.4361 109.781 21.7974L109.733 21.8359C109.387 22.1008 108.944 22.1779 108.497 22.1779ZM107.587 21.7925C108.242 21.8841 109.045 21.9756 109.55 21.595L109.589 21.5613C109.863 21.3301 109.978 20.9688 109.935 20.4582C109.723 20.5979 109.425 20.5931 109.141 20.5883C108.877 20.5835 108.602 20.5835 108.357 20.6702C108.194 20.728 108.054 20.8099 107.929 20.9255C107.814 21.0411 107.722 21.1856 107.66 21.3494C107.611 21.4891 107.587 21.6432 107.587 21.7925Z" fill="#860142"/>
<path fill-rule="evenodd" clip-rule="evenodd" d="M108.915 21.9949C109.213 21.9612 109.492 21.836 109.719 21.6433L109.791 21.6048C110.272 21.3735 110.868 21.6867 111.604 22.5345C110.714 23.1751 110.065 23.3389 109.656 23.0162L109.608 22.9776C109.266 22.6163 108.843 22.3418 108.372 22.1732C106.957 21.6288 107.674 22.1732 108.91 21.9709L108.915 21.9949Z" fill="#F0A633"/>
<path d="M110.142 23.3292C109.921 23.3292 109.723 23.2618 109.56 23.1317L109.512 23.0932C109.17 22.7367 108.766 22.4718 108.319 22.3128C108.093 22.2261 107.919 22.1683 107.804 22.1298C107.621 22.1009 107.491 22.0527 107.457 21.9949L107.405 21.8985L107.477 21.8166C107.52 21.7685 107.554 21.7251 107.876 21.8263C108.093 21.86 108.458 21.8841 108.882 21.8118L109.031 21.7877L109.035 21.8118C109.252 21.7637 109.449 21.6625 109.618 21.518L109.719 21.4602C110.272 21.1904 110.926 21.5084 111.72 22.4236L111.831 22.5537L111.691 22.65C111.07 23.1076 110.556 23.3292 110.142 23.3292ZM108.723 22.149C109.093 22.3224 109.435 22.5681 109.719 22.8716L109.752 22.8957C110.075 23.151 110.623 23.0209 111.374 22.5055C110.743 21.8166 110.233 21.5613 109.858 21.7396L109.791 21.7733C109.569 21.9708 109.262 22.1009 108.934 22.1442L108.79 22.1635L108.785 22.1442C108.766 22.1442 108.742 22.1442 108.723 22.149Z" fill="#860142"/>
<path fill-rule="evenodd" clip-rule="evenodd" d="M96.729 37.0577C97.1139 36.4267 96.8878 35.5307 96.729 34.8563C96.3201 34.8515 95.9304 35.0297 95.661 35.338C95.5504 35.4825 95.4686 35.6463 95.4205 35.8197C95.2425 36.5375 95.7428 37.3708 95.1222 37.5779C95.8823 37.6598 96.4115 37.5009 96.6954 37.0962L96.7435 37.024L96.729 37.0577Z" fill="#FBA407"/>
<path d="M95.7332 38.9845L96.3345 37.5876C96.017 37.7369 95.6081 37.7803 95.1077 37.7273L94.4053 37.6502L95.0741 37.4286C95.3146 37.3467 95.3146 37.1588 95.2617 36.6771C95.2328 36.3978 95.1943 36.0846 95.2713 35.7812C95.3242 35.5837 95.4156 35.4006 95.5407 35.2417C95.839 34.8948 96.2624 34.7021 96.7146 34.7021C96.7194 34.7021 96.7242 34.7021 96.7338 34.7021H96.8541L96.8926 34.8756C96.984 35.2706 97.0995 35.7523 97.0947 36.2147L97.5661 35.5018L97.0177 36.7735C96.9792 36.8987 96.9311 37.024 96.8589 37.1396L95.7332 38.9845ZM96.6088 35.0104C96.2864 35.0393 95.9881 35.1887 95.7765 35.4343C95.6802 35.5548 95.6081 35.6993 95.5696 35.8534C95.507 36.1039 95.5359 36.3737 95.5696 36.6386C95.5984 36.9132 95.6321 37.2167 95.5215 37.4382C96.0218 37.4334 96.373 37.2889 96.5751 36.9999L96.6472 36.8939C96.9118 36.364 96.7531 35.627 96.6088 35.0104Z" fill="#860142"/>
<path fill-rule="evenodd" clip-rule="evenodd" d="M96.729 34.8371C96.9118 34.7456 97.1091 34.6926 97.3111 34.683C97.5036 34.6685 97.7008 34.6974 97.8836 34.7648C98.0568 34.8371 98.2108 34.9431 98.3359 35.078C98.8458 35.6175 98.817 36.5905 99.4664 36.4653C98.8266 36.9181 98.2781 37.0337 97.8259 36.8073H97.7826C97.1379 36.446 96.8926 35.5548 96.7098 34.8805L96.729 34.8371Z" fill="#FBA407"/>
<path d="M98.307 37.0722C98.1242 37.0722 97.951 37.0336 97.7923 36.9614H97.7441L97.7105 36.9421C97.0033 36.5471 96.7483 35.6078 96.5655 34.9189L96.551 34.8659L96.6136 34.7214L96.6617 34.6973C96.8637 34.5962 97.0802 34.5384 97.3063 34.5288C97.518 34.5095 97.7393 34.5432 97.9414 34.6203C98.1386 34.7022 98.3118 34.8226 98.4514 34.9719C98.6678 35.1983 98.7929 35.4922 98.8988 35.7475C99.0912 36.1955 99.1826 36.3641 99.4376 36.3111L100.14 36.1762L99.5579 36.5905C99.1008 36.9084 98.6823 37.0722 98.307 37.0722ZM97.8259 36.6483L97.8981 36.6627C98.2156 36.8217 98.6053 36.7783 99.0575 36.5375C98.8458 36.3978 98.7304 36.1232 98.6197 35.8631C98.5139 35.6174 98.408 35.3669 98.23 35.1742C98.1146 35.0538 97.9847 34.9623 97.8307 34.8997C97.672 34.8419 97.4988 34.8178 97.3304 34.8274C97.1764 34.837 97.0321 34.8659 96.8926 34.9238C97.0514 35.5403 97.2823 36.3207 97.8259 36.6483Z" fill="#860142"/>
<path fill-rule="evenodd" clip-rule="evenodd" d="M96.9552 35.6128C97.0322 35.8247 97.1284 36.027 97.2487 36.2197C97.4026 36.4798 97.6287 36.687 97.8982 36.8218L97.9607 36.8652C98.3648 37.2024 98.3215 37.8864 97.8452 38.9076C96.883 38.3489 96.4789 37.8238 96.5992 37.3276V37.2602C96.7531 36.9085 96.8349 36.5328 96.8397 36.1475C96.8686 35.2611 96.4356 34.2206 96.9408 35.6128H96.9552Z" fill="#FBA407"/>
<path d="M97.9126 39.1244L97.7682 39.0377C96.7387 38.4403 96.3105 37.8671 96.45 37.2891L96.4452 37.2264L96.4597 37.1975C96.604 36.8652 96.681 36.5087 96.6858 36.1426C96.7002 35.7139 96.604 35.2514 96.5607 35.0539C96.5414 34.9576 96.5126 34.8227 96.6521 34.7842C96.7916 34.7456 96.8253 34.8324 96.9119 35.0732C96.9456 35.1647 96.9889 35.29 97.0514 35.4586L97.1043 35.5597C97.1765 35.762 97.2679 35.9547 97.3834 36.1378C97.5277 36.3738 97.7298 36.5617 97.9703 36.6821L98.0521 36.7351C98.5284 37.1349 98.5043 37.8623 97.9895 38.9702L97.9126 39.1244ZM96.7531 37.2891V37.3228C96.6521 37.7563 96.9985 38.2043 97.7779 38.6812C98.1531 37.8189 98.182 37.2457 97.8645 36.9759L97.8115 36.9422C97.5325 36.8025 97.2871 36.5761 97.1188 36.2919C97.0755 36.2245 97.037 36.1522 96.9985 36.08C96.9985 36.0992 96.9985 36.1233 96.9985 36.1426C96.9889 36.5424 96.9071 36.9278 96.7531 37.2891Z" fill="#860142"/>
<path fill-rule="evenodd" clip-rule="evenodd" d="M79.2989 28.6373C80.0109 28.8445 80.8144 28.3965 81.4206 28.0593C81.3676 27.8521 81.2666 27.6595 81.1271 27.5005C80.9972 27.3512 80.8288 27.2307 80.646 27.1489C80.4776 27.0766 80.29 27.0429 80.1072 27.0477C79.3663 27.0477 78.6927 27.7606 78.3319 27.2115C78.4522 27.9726 78.7408 28.4398 79.2027 28.6132H79.2797L79.2989 28.6373Z" fill="#FBA407"/>
<path d="M79.679 28.8397C79.5347 28.8397 79.3952 28.8204 79.2556 28.7819L79.1498 28.753C78.635 28.5603 78.3127 28.0497 78.1828 27.2308L78.0721 26.5227L78.4666 27.12C78.6062 27.3272 78.7842 27.2838 79.2268 27.1104C79.4914 27.0044 79.7897 26.8888 80.112 26.8888C80.3237 26.884 80.5209 26.9225 80.7134 27.0044C80.9202 27.0911 81.103 27.2308 81.2522 27.3946C81.4061 27.5728 81.5216 27.7896 81.5793 28.016L81.6082 28.1316L81.5024 28.1894C80.9876 28.4736 80.3285 28.8397 79.679 28.8397ZM79.3855 28.4977C79.9869 28.6422 80.6893 28.2809 81.2329 27.9823C81.18 27.8426 81.103 27.7125 81.0068 27.5969C80.8914 27.462 80.7422 27.3561 80.5835 27.2838C80.4343 27.2212 80.2708 27.1923 80.112 27.1971C79.8426 27.1971 79.5876 27.2983 79.3326 27.3994C79.0776 27.5006 78.8034 27.6065 78.5629 27.5584C78.6928 28.0304 78.9141 28.3291 79.2316 28.4592H79.3519L79.3855 28.4977Z" fill="#860142"/>
<path fill-rule="evenodd" clip-rule="evenodd" d="M81.4254 28.0834C81.5794 28.2328 81.69 28.4158 81.7574 28.6181C81.8199 28.806 81.844 28.9987 81.8247 29.1962C81.8007 29.3792 81.7381 29.5575 81.6371 29.7116C81.2522 30.3426 80.3045 30.569 80.5931 31.1567C79.9918 30.675 79.7368 30.1596 79.8378 29.6634V29.6104C80.0158 28.8927 80.8 28.4254 81.411 28.0786L81.4254 28.0834Z" fill="#FBA407"/>
<path d="M81.0357 31.7059L80.4969 31.2724C79.6839 30.6221 79.6069 30.02 79.6887 29.6298L79.6839 29.6057C79.8715 28.8253 80.6028 28.3533 81.334 27.939L81.3917 27.9053L81.5313 27.9679C81.6997 28.1317 81.8295 28.3388 81.9017 28.5652C81.9739 28.7723 81.9979 28.9891 81.9739 29.2059C81.9498 29.413 81.8728 29.6153 81.7622 29.7887C81.5986 30.0537 81.3485 30.2512 81.132 30.4246C80.7519 30.7233 80.6172 30.8581 80.7278 31.0845L81.0357 31.7059ZM81.3869 28.2666C80.7471 28.6327 80.1361 29.0469 79.9869 29.6442L79.9918 29.6587C79.9052 30.1019 80.1313 30.4872 80.4103 30.7762C80.4873 30.5402 80.7278 30.3523 80.9443 30.1789C81.156 30.0151 81.3725 29.8417 81.5072 29.6201C81.5986 29.4805 81.6515 29.3263 81.6756 29.1673C81.69 28.9987 81.6708 28.8253 81.6131 28.6567C81.5649 28.517 81.488 28.3822 81.3869 28.2666Z" fill="#860142"/>
<path fill-rule="evenodd" clip-rule="evenodd" d="M80.2371 28.9555C80.0494 29.1867 79.9099 29.4517 79.8233 29.7359L79.7945 29.8081C79.5731 30.2898 78.9044 30.4199 77.7979 30.2224C78.0866 29.1626 78.4907 28.6231 79.0006 28.6087H79.068C79.5058 28.6713 79.958 28.6376 80.3814 28.5075C82.1085 28.0258 80.9443 27.9776 80.2371 28.9555Z" fill="#FBA407"/>
<path d="M78.6687 30.4632C78.4089 30.4632 78.1106 30.4343 77.769 30.3717L77.6055 30.3428L77.6488 30.179C77.9567 29.047 78.4089 28.4689 78.9958 28.4497H79.068C79.5058 28.5075 79.934 28.4786 80.3381 28.3533C80.5305 28.3003 80.6845 28.2522 80.8048 28.2088C81.0405 28.0595 81.2426 27.9921 81.3291 28.021L81.435 28.0595V28.1751C81.435 28.2474 81.4302 28.3244 80.9395 28.493C80.7615 28.6086 80.545 28.7821 80.3621 29.0374L80.3573 29.0422C80.1841 29.2589 80.0542 29.5046 79.9725 29.7696L79.9388 29.8514C79.7512 30.2657 79.3374 30.4632 78.6687 30.4632ZM77.9952 30.0971C78.9237 30.2416 79.4817 30.1212 79.6549 29.7406L79.679 29.678C79.7656 29.3842 79.9147 29.1096 80.112 28.8591C80.1505 28.8061 80.1938 28.7532 80.2371 28.705C79.8522 28.7965 79.4384 28.8158 79.0439 28.758H79.0006C78.5051 28.7724 78.1876 29.4613 77.9952 30.0971Z" fill="#860142"/>
<path fill-rule="evenodd" clip-rule="evenodd" d="M82.1037 10.0051C82.1374 10.7421 82.8205 11.3635 83.3353 11.826C83.5181 11.7055 83.6673 11.5369 83.7683 11.3443C83.8693 11.1757 83.9319 10.9878 83.9511 10.7951C83.9703 10.6121 83.9415 10.4242 83.8741 10.2508C83.624 9.55231 82.7436 9.13804 83.1477 8.6178C82.4693 8.97908 82.1229 9.40298 82.1037 9.89432V10.0051Z" fill="#FBA407"/>
<path d="M83.3209 12.0187L83.2295 11.9368C82.7051 11.4647 81.9834 10.8192 81.9449 10.01V9.89435C81.9642 9.34038 82.3443 8.86831 83.0707 8.48295L83.7058 8.14575L83.2631 8.71417C83.1044 8.91648 83.2102 9.07545 83.5229 9.44636C83.7009 9.65831 83.9078 9.90398 84.0137 10.1978C84.0906 10.3857 84.1195 10.6025 84.1002 10.8096C84.0762 11.0264 84.0088 11.2383 83.8982 11.4214C83.7875 11.6285 83.6192 11.8164 83.4171 11.9512L83.3209 12.0187ZM82.2577 10.0003C82.2865 10.6362 82.8735 11.1998 83.3449 11.6237C83.4604 11.5273 83.5614 11.4069 83.6336 11.2672C83.725 11.1131 83.7827 10.9445 83.7972 10.7759C83.8116 10.6169 83.7875 10.4531 83.7298 10.3038C83.6384 10.0533 83.4652 9.84136 83.292 9.63904C83.114 9.42709 82.9216 9.19587 82.8927 8.94538C82.479 9.22959 82.2721 9.5427 82.2577 9.89435V10.0003Z" fill="#860142"/>
<path fill-rule="evenodd" clip-rule="evenodd" d="M83.3161 11.845C83.2199 12.0329 83.0852 12.1967 82.9168 12.3267C82.7628 12.4472 82.5848 12.5339 82.3924 12.5772C82.2144 12.6206 82.022 12.6206 81.8439 12.5772C81.1223 12.4134 80.6027 11.6138 80.1409 12.0522C80.4151 11.3152 80.8048 10.9202 81.3051 10.8527H81.358C82.0941 10.7949 82.8013 11.4019 83.3161 11.8547V11.845Z" fill="#FBA407"/>
<path d="M82.1182 12.7603C82.0123 12.7603 81.9113 12.7458 81.8055 12.7218C81.5024 12.6543 81.233 12.4809 80.9972 12.3316C80.5979 12.0763 80.4199 11.9896 80.2419 12.1582L79.7608 12.6158L79.9917 11.9944C80.2852 11.2092 80.7182 10.7708 81.2811 10.6938H81.3532C82.0797 10.636 82.7677 11.1707 83.2584 11.5994L83.4604 11.1996V12.1871L83.3402 12.0811C83.2487 12.216 83.1333 12.3412 83.0034 12.4424C82.835 12.5772 82.6329 12.6736 82.4213 12.7218C82.325 12.7507 82.224 12.7603 82.1182 12.7603ZM80.4343 11.768C80.6845 11.768 80.9347 11.9269 81.1656 12.0763C81.3917 12.2208 81.6226 12.3653 81.8776 12.4279C82.0364 12.4664 82.2 12.4664 82.3539 12.4279C82.5223 12.3894 82.6859 12.3123 82.8206 12.2063C82.936 12.1148 83.0371 12.0088 83.114 11.8836C82.657 11.4838 82.0123 10.9587 81.3677 11.0069H81.3003C80.9491 11.055 80.6605 11.3055 80.4247 11.768C80.4343 11.768 80.4343 11.768 80.4343 11.768Z" fill="#860142"/>
<path fill-rule="evenodd" clip-rule="evenodd" d="M82.7772 11.3973C82.5752 11.2335 82.349 11.0986 82.1085 10.9926C81.8391 10.8626 81.536 10.8144 81.2377 10.8529H81.1607C80.6364 10.7999 80.2948 10.2074 80.1216 9.0947C81.2185 9.02726 81.8583 9.23439 82.046 9.7161C82.0508 9.73537 82.0508 9.75945 82.046 9.77872C82.1855 10.4146 82.4982 11.0023 82.9504 11.4695C83.5085 12.0716 83.1862 11.7296 82.7676 11.4021L82.7772 11.3973Z" fill="#FBA407"/>
<path d="M83.2583 11.956C83.191 11.956 83.1188 11.8982 83.037 11.8211C82.9505 11.7441 82.8157 11.6333 82.6762 11.5177L82.4886 11.3683H82.4934C82.3539 11.2768 82.2048 11.1949 82.0508 11.1275C81.8006 11.0071 81.5312 10.9637 81.2618 10.9974H81.1656C80.545 10.9348 80.1649 10.3182 79.9725 9.10913L79.9484 8.94053L80.1168 8.9309C81.3003 8.85864 81.9786 9.09468 82.1951 9.64864C82.2048 9.69199 82.2096 9.73053 82.2096 9.75943C82.3443 10.3567 82.6425 10.9059 83.0707 11.3491C83.4748 11.7826 83.4748 11.7826 83.369 11.8934C83.3257 11.9416 83.292 11.956 83.2583 11.956ZM81.4446 10.6843C81.69 10.6843 81.945 10.7421 82.1759 10.8529C82.2336 10.877 82.2914 10.9059 82.3443 10.9348C82.1374 10.588 81.9835 10.2122 81.8969 9.81242L81.8872 9.7787L81.8969 9.74498C81.7525 9.3837 81.2137 9.21029 80.3044 9.23919C80.4728 10.1641 80.7663 10.6554 81.18 10.6988H81.2426C81.3051 10.6891 81.3773 10.6843 81.4446 10.6843Z" fill="#860142"/>
<path fill-rule="evenodd" clip-rule="evenodd" d="M106.755 29.2061C106.404 29.7167 106.346 30.444 105.639 30.5934C105.422 30.6319 105.196 30.603 104.999 30.5067L104.893 30.4537C104.749 30.3718 104.759 30.2899 104.787 30.1309C104.797 30.0876 104.807 30.0394 104.821 29.9961C104.874 29.8564 104.956 29.7263 105.062 29.6203C105.572 29.0904 106.13 29.3409 106.755 29.2061Z" fill="#F0A633"/>
<path d="M105.451 30.7619C105.273 30.7619 105.095 30.7234 104.932 30.6415L104.821 30.5885C104.571 30.444 104.605 30.2561 104.633 30.102C104.643 30.049 104.657 29.996 104.672 29.9478C104.734 29.7792 104.831 29.6347 104.951 29.5095C105.336 29.1097 105.754 29.1048 106.154 29.1C106.336 29.1 106.529 29.0952 106.721 29.0519L107.101 28.97L106.88 29.2879C106.784 29.4324 106.707 29.601 106.63 29.76C106.447 30.1598 106.24 30.6174 105.668 30.7378C105.596 30.7571 105.523 30.7619 105.451 30.7619ZM106.466 29.3987C106.361 29.4035 106.26 29.4083 106.158 29.4083C105.774 29.4131 105.471 29.418 105.172 29.7263C105.081 29.8178 105.009 29.9286 104.965 30.049C104.956 30.0779 104.946 30.1164 104.937 30.1598C104.912 30.2898 104.912 30.2898 104.965 30.3187L105.066 30.3669C105.235 30.4488 105.427 30.4729 105.61 30.4392C106.024 30.3525 106.173 30.0201 106.351 29.6347C106.389 29.5577 106.423 29.4758 106.466 29.3987Z" fill="#860142"/>
<path fill-rule="evenodd" clip-rule="evenodd" d="M107.217 32.5971C106.336 32.7513 104.869 32.6694 104.999 30.6703C106.76 30.7955 106.895 31.3977 107.217 32.5971Z" fill="#F0A633"/>
<path d="M106.659 32.7995C106.235 32.7995 105.745 32.708 105.379 32.3804C104.975 32.0192 104.797 31.4363 104.845 30.6607L104.855 30.5066L105.009 30.5162C106.851 30.6463 107.039 31.3448 107.352 32.5009L107.409 32.7176L107.241 32.7465C107.087 32.7754 106.88 32.7995 106.659 32.7995ZM105.143 30.8342C105.129 31.4315 105.278 31.8746 105.581 32.1492C105.99 32.5153 106.606 32.5201 107.02 32.4671C106.741 31.4267 106.572 30.9642 105.143 30.8342Z" fill="#860142"/>
<path fill-rule="evenodd" clip-rule="evenodd" d="M103.556 32.5587C104.037 32.2022 104.783 32.1252 104.917 31.4171C104.956 31.2003 104.922 30.9787 104.821 30.7812C104.807 30.7427 104.787 30.7089 104.763 30.6752C104.682 30.5307 104.6 30.5404 104.441 30.5693L104.306 30.6078C104.167 30.6656 104.042 30.7523 103.936 30.8535C103.416 31.3737 103.676 31.9325 103.556 32.5587Z" fill="#F0A633"/>
<path d="M103.33 32.9152L103.402 32.525C103.44 32.3323 103.435 32.1445 103.435 31.9614C103.431 31.5568 103.431 31.1377 103.825 30.7427C103.95 30.6223 104.09 30.5308 104.244 30.4633L104.398 30.42C104.566 30.3911 104.758 30.3525 104.898 30.5982C104.922 30.6271 104.946 30.6753 104.965 30.7234C105.076 30.9306 105.115 31.1955 105.071 31.4412C104.961 32.0096 104.513 32.2264 104.114 32.4191C103.945 32.5009 103.782 32.578 103.647 32.6792L103.33 32.9152ZM104.566 30.7042C104.547 30.7042 104.513 30.709 104.465 30.7186L104.345 30.7524C104.244 30.7957 104.133 30.868 104.037 30.9595C103.734 31.263 103.739 31.5664 103.739 31.9566C103.739 32.053 103.739 32.1541 103.734 32.2601C103.811 32.2167 103.893 32.1782 103.97 32.1445C104.35 31.9614 104.677 31.8025 104.759 31.3882C104.792 31.21 104.763 31.0173 104.677 30.8535C104.662 30.815 104.648 30.7909 104.633 30.7668C104.614 30.7186 104.605 30.7042 104.566 30.7042Z" fill="#860142"/>
<path fill-rule="evenodd" clip-rule="evenodd" d="M89.7051 36.2532C89.1181 36.0654 88.4013 36.2147 88.0597 35.5788C87.9587 35.3813 87.9202 35.1598 87.9539 34.943C87.9491 34.9045 87.9587 34.8611 87.9779 34.8274C88.0164 34.6636 88.0934 34.6492 88.2521 34.6299H88.3917C88.5408 34.6395 88.6851 34.6829 88.8198 34.7503C89.4789 35.0875 89.3972 35.7137 89.7051 36.2532Z" fill="#FBA407"/>
<path d="M89.859 36.841L89.5992 36.3786C89.4549 36.34 89.2913 36.3159 89.1374 36.2967C88.6996 36.2341 88.1992 36.1666 87.925 35.6512C87.8095 35.4248 87.7662 35.1695 87.8047 34.919C87.7999 34.8901 87.8095 34.8323 87.8336 34.7745C87.901 34.5192 88.079 34.4951 88.2329 34.4758H88.3917C88.5745 34.4903 88.7381 34.5336 88.892 34.6155C89.3875 34.8708 89.5126 35.2706 89.6329 35.656C89.681 35.815 89.7339 35.9739 89.8109 36.1233L89.8638 36.1377V36.841H89.859ZM88.382 34.7793H88.2522C88.1415 34.7938 88.1415 34.7938 88.1271 34.8564L88.1126 34.8949V34.9142L88.103 34.9575C88.0741 35.1406 88.1078 35.3333 88.1944 35.497C88.3965 35.8728 88.7573 35.9258 89.1807 35.9836C89.2624 35.9932 89.349 36.0077 89.4308 36.0221C89.3972 35.9258 89.3683 35.8294 89.3346 35.7379C89.224 35.3814 89.1277 35.0731 88.7477 34.8805C88.6322 34.8275 88.5119 34.7889 88.382 34.7793Z" fill="#860142"/>
<path fill-rule="evenodd" clip-rule="evenodd" d="M86.5972 37.6696C86.193 36.87 85.8515 35.4393 87.8143 34.9817C88.204 36.7062 87.67 37.0097 86.5972 37.6696Z" fill="#FBA407"/>
<path d="M86.5346 37.8863L86.4576 37.737C86.2508 37.3275 85.9477 36.5327 86.27 35.8487C86.5009 35.3525 87.0109 35.0105 87.7758 34.8323L87.925 34.7986L87.9587 34.9479C88.3676 36.7591 87.7807 37.1204 86.7126 37.7755L86.5346 37.8863ZM87.6989 35.1695C87.1119 35.3333 86.7271 35.603 86.5539 35.9788C86.3229 36.4749 86.4961 37.0626 86.6645 37.448C87.593 36.8747 87.9827 36.5761 87.6989 35.1695Z" fill="#860142"/>
<path fill-rule="evenodd" clip-rule="evenodd" d="M85.5773 34.1675C86.0584 34.548 86.347 35.2224 87.0639 35.1309C87.2803 35.102 87.4872 35.0056 87.646 34.8563L87.7278 34.7696C87.8432 34.6492 87.8096 34.5721 87.7278 34.4324C87.7085 34.3891 87.6845 34.3505 87.6556 34.312C87.5594 34.1964 87.4439 34.1 87.314 34.0278C86.6645 33.6761 86.2075 34.0904 85.5724 34.153L85.5773 34.1675Z" fill="#FBA407"/>
<path d="M86.934 35.2898C86.4336 35.2898 86.1257 34.9478 85.8467 34.6491C85.7264 34.5143 85.611 34.389 85.4811 34.2879L85.4426 34.259L85.3656 34.0181L85.558 33.9988C85.7505 33.9796 85.9333 33.9218 86.1113 33.8688C86.4962 33.7483 86.8955 33.6279 87.3862 33.8929C87.5353 33.9747 87.6652 34.0807 87.7759 34.2156C87.8144 34.2638 87.8432 34.3168 87.8673 34.3697C87.9346 34.4854 88.0405 34.6636 87.8384 34.8755L87.7566 34.9622C87.5642 35.1405 87.3333 35.2513 87.0831 35.285C87.0302 35.2898 86.9821 35.2898 86.934 35.2898ZM85.8948 34.2493C85.9573 34.3119 86.0151 34.3794 86.0728 34.442C86.3615 34.7599 86.6068 35.0297 87.0398 34.9767C87.2274 34.9526 87.4006 34.8707 87.5353 34.7407L87.6123 34.6588C87.6412 34.6299 87.646 34.6154 87.646 34.6154C87.646 34.5961 87.6075 34.5287 87.5931 34.5046C87.569 34.4565 87.5546 34.4276 87.5305 34.3986C87.4487 34.3023 87.3525 34.2156 87.237 34.1578C86.857 33.9507 86.5683 34.0422 86.1979 34.1578C86.1017 34.1915 86.0006 34.2252 85.8948 34.2493Z" fill="#860142"/>
<path fill-rule="evenodd" clip-rule="evenodd" d="M78.1011 22.0285C78.13 21.4119 77.798 20.7568 78.3224 20.2607C78.486 20.1113 78.6929 20.0198 78.9094 19.9957H79.0296C79.1932 19.9957 79.2317 20.0632 79.2894 20.2125C79.3087 20.2558 79.3231 20.2992 79.3279 20.3474C79.3616 20.4919 79.3616 20.646 79.3279 20.7905C79.174 21.5131 78.5678 21.595 78.1059 22.0382L78.1011 22.0285Z" fill="#FBA407"/>
<path d="M78.0626 22.2887L77.9519 22.0672L77.9471 22.0142C77.9567 21.8456 77.9327 21.6625 77.9086 21.4843C77.8557 21.0411 77.7884 20.545 78.2165 20.1403C78.409 19.9669 78.6399 19.8609 78.8901 19.832H79.0296C79.3134 19.832 79.3808 20.0151 79.4337 20.15C79.4578 20.1981 79.4722 20.2608 79.4818 20.3234C79.5203 20.4727 79.5203 20.6509 79.477 20.8195C79.3615 21.3639 79.0103 21.5903 78.6688 21.807C78.5148 21.9082 78.3512 22.0093 78.2117 22.1442L78.0626 22.2887ZM78.9093 20.1451C78.7409 20.1644 78.5677 20.2415 78.4282 20.3715C78.1203 20.6654 78.1636 21.0267 78.2165 21.4506C78.2262 21.5421 78.2406 21.6288 78.2454 21.7203C78.332 21.6577 78.4186 21.6047 78.5004 21.5517C78.8275 21.3446 79.0825 21.1808 79.1739 20.7569C79.2028 20.6317 79.2028 20.5016 79.1739 20.3812C79.1691 20.333 79.1595 20.3041 79.145 20.2752C79.0969 20.1451 79.0969 20.1451 79.0248 20.1451H78.9093Z" fill="#860142"/>
<path fill-rule="evenodd" clip-rule="evenodd" d="M75.9313 19.3888C76.5952 18.7914 77.8894 18.0882 78.8179 19.8705C77.2544 20.6797 76.8214 20.2558 75.9313 19.3888Z" fill="#FBA407"/>
<path d="M77.4516 20.4533C76.8069 20.4533 76.398 20.0535 75.8255 19.4995L75.7052 19.3839L75.8255 19.2731C76.1671 18.9648 76.855 18.4687 77.6007 18.6036C78.1347 18.6999 78.5918 19.1045 78.9526 19.7982L79.0247 19.9331L78.8852 20.0053C78.2791 20.3184 77.8268 20.4533 77.4516 20.4533ZM76.1574 19.3936C76.9272 20.1354 77.3217 20.434 78.6062 19.803C78.3031 19.2779 77.9471 18.9793 77.5478 18.907C77.009 18.8107 76.4846 19.1286 76.1574 19.3936Z" fill="#860142"/>
<path fill-rule="evenodd" clip-rule="evenodd" d="M79.0632 17.491C78.8226 18.0594 78.2453 18.5074 78.5051 19.1817C78.5869 19.3841 78.7312 19.5527 78.9189 19.6635L79.0247 19.7213C79.169 19.7983 79.2316 19.7502 79.3519 19.6394C79.3855 19.6105 79.4144 19.5767 79.4433 19.5382C79.5347 19.4178 79.5972 19.2829 79.6309 19.1336C79.8041 18.4158 79.2893 18.0835 79.0632 17.4813V17.491Z" fill="#FBA407"/>
<path d="M79.1498 19.9091C79.0921 19.9091 79.0295 19.8946 78.9525 19.8513L78.8467 19.7935C78.6302 19.6634 78.457 19.4659 78.3656 19.2347C78.1539 18.6855 78.4233 18.2616 78.6639 17.8859C78.7553 17.7462 78.8467 17.6017 78.9092 17.4524V16.6287L79.2075 17.4235C79.2749 17.6065 79.3807 17.7703 79.4769 17.9293C79.6886 18.2713 79.9099 18.6229 79.78 19.1673C79.7464 19.331 79.6694 19.4948 79.5635 19.6297C79.5347 19.6682 79.4962 19.7116 79.4529 19.7501C79.3759 19.8272 79.2845 19.9091 79.1498 19.9091ZM79.0584 17.8329C79.0151 17.91 78.967 17.9823 78.9189 18.0545C78.6879 18.411 78.4907 18.7241 78.6446 19.1239C78.712 19.2877 78.8371 19.437 78.9958 19.5285L79.0969 19.5815C79.1306 19.6008 79.145 19.6008 79.145 19.6008C79.1642 19.596 79.222 19.543 79.246 19.5237C79.2749 19.4996 79.2989 19.4755 79.3182 19.4466C79.4 19.3407 79.4529 19.2251 79.4818 19.0998C79.5828 18.6759 79.424 18.4206 79.2172 18.0931C79.1642 18.0063 79.1113 17.9245 79.0584 17.8329Z" fill="#860142"/>
<path fill-rule="evenodd" clip-rule="evenodd" d="M87.9443 6.91245C88.5168 6.68123 88.9738 6.108 89.6425 6.38257C89.8446 6.46928 90.013 6.6186 90.1236 6.80647L90.1813 6.90763C90.2535 7.05696 90.2054 7.11958 90.0899 7.23519C90.0611 7.26891 90.0274 7.29781 89.9889 7.32671C89.8638 7.41342 89.7291 7.47604 89.58 7.50976C88.8632 7.66873 88.536 7.14848 87.9395 6.91245H87.9443Z" fill="#FBA407"/>
<path d="M89.3202 7.69278C88.9353 7.69278 88.6563 7.50973 88.3821 7.3315C88.2281 7.23034 88.0645 7.12437 87.8817 7.05211L87.1312 6.75345H87.9154C88.0646 6.69083 88.2089 6.59931 88.3532 6.5126C88.7333 6.27656 89.1614 6.01162 89.7003 6.23803C89.9312 6.33919 90.1284 6.5126 90.2535 6.72455L90.3113 6.82571C90.4412 7.09065 90.3065 7.23034 90.1958 7.33632C90.1669 7.37004 90.1236 7.40857 90.0755 7.44229C89.936 7.54345 89.7772 7.61089 89.6089 7.64943C89.5078 7.68315 89.4116 7.69278 89.3202 7.69278ZM88.2907 6.91242C88.3821 6.9654 88.4687 7.01839 88.5505 7.0762C88.8728 7.28815 89.1326 7.45193 89.5463 7.3604C89.6714 7.3315 89.7917 7.27851 89.8975 7.20144C89.9264 7.18217 89.9504 7.15809 89.9745 7.134C90.0707 7.03766 90.0707 7.03766 90.0419 6.97504L89.9889 6.88351C89.8975 6.72455 89.7484 6.59931 89.58 6.52705C89.1855 6.36327 88.8728 6.55595 88.512 6.78236C88.4398 6.82089 88.3676 6.86906 88.2907 6.91242Z" fill="#860142"/>
<path fill-rule="evenodd" clip-rule="evenodd" d="M89.4405 3.85376C90.2632 4.21504 91.437 5.10138 90.2102 6.70546C88.815 5.62644 89.0315 5.04839 89.4405 3.85376Z" fill="#FBA407"/>
<path d="M90.2391 6.91742L90.1188 6.82108C88.6515 5.68425 88.8776 5.02913 89.2865 3.8345L89.3394 3.67554L89.503 3.70444C89.9263 3.88749 90.6624 4.31139 90.85 5.04358C90.9848 5.57346 90.8116 6.16114 90.3305 6.78736L90.2391 6.91742ZM89.5319 4.06572C89.1807 5.10139 89.0652 5.5831 90.1813 6.48389C90.5325 5.98291 90.6576 5.53011 90.5518 5.13029C90.4171 4.5956 89.9071 4.25359 89.5319 4.06572Z" fill="#860142"/>
<path fill-rule="evenodd" clip-rule="evenodd" d="M92.4906 5.90092C91.8748 5.90092 91.2301 5.57818 90.725 6.09361C90.571 6.25257 90.4748 6.4597 90.4507 6.68129V6.7969C90.4507 6.9655 90.5085 6.99922 90.6576 7.06184C90.7009 7.08111 90.7442 7.09556 90.7923 7.10519C90.9367 7.13891 91.0906 7.13891 91.2349 7.10519C91.9614 6.9655 92.048 6.35855 92.5002 5.90092H92.4906Z" fill="#FBA407"/>
<path d="M91.0136 7.28351C90.927 7.28351 90.8405 7.27387 90.7539 7.2546C90.7009 7.24497 90.648 7.2257 90.5951 7.20162C90.4267 7.12936 90.2968 7.0571 90.2968 6.79698V6.68137C90.3257 6.4068 90.4363 6.17558 90.6143 5.98771C91.0329 5.55899 91.5429 5.63125 91.9951 5.69869C92.1587 5.72277 92.3319 5.74686 92.4954 5.74686H92.8755L92.6157 6.00698C92.4762 6.14668 92.3752 6.30564 92.2741 6.45979C92.0528 6.79698 91.8219 7.14863 91.2734 7.2546C91.182 7.27387 91.1002 7.28351 91.0136 7.28351ZM91.4659 5.95399C91.235 5.95399 91.0233 6.00698 90.8356 6.19966C90.7057 6.33454 90.6288 6.50796 90.6047 6.69582V6.79216C90.6047 6.86924 90.6047 6.86924 90.7154 6.91259C90.7539 6.92704 90.7875 6.94149 90.8212 6.94631C90.9463 6.97521 91.0762 6.97521 91.1965 6.94631C91.6246 6.86442 91.793 6.60912 92.0047 6.28637C92.0624 6.19966 92.1202 6.11296 92.1827 6.02625C92.1009 6.01662 92.0239 6.00698 91.947 5.99253C91.7786 5.97808 91.615 5.95399 91.4659 5.95399Z" fill="#860142"/>
<path d="M17.0645 23.8203L16.7758 22.8232C22.3854 21.7682 26.1812 19.0177 26.1812 12.9337C26.1812 4.80252 19.8115 2.05198 12.6239 1.85448V30.7232C12.6239 38.021 13.7353 39.4999 21.0383 40.4295V41.4219C14.0287 41.3063 7.01918 41.3063 0 41.4219V40.4295C7.19238 39.7359 7.2453 37.101 7.2453 30.7232V10.7131C7.2453 4.93258 6.8941 2.22539 0.466663 1.70033V0.645395C5.1381 0.645395 9.81435 0.529785 14.4906 0.529785C21.7936 0.529785 32.1372 1.70033 32.1372 11.1803C32.142 19.8992 24.5647 22.9388 17.0645 23.8203Z" fill="#007982"/>
<path d="M63.1774 41.4893C51.9583 41.3737 40.7969 41.4315 29.5729 41.4315V40.4295C36.8808 39.9093 37.1694 37.1009 37.1694 30.4871V10.6504C37.1694 4.27264 36.2938 2.34099 29.5729 1.70032V0.645386C36.4141 0.765812 43.1927 0.765812 50.0291 0.645386V1.70032C43.4237 2.22538 42.4903 4.39306 42.4903 10.6504V31.5999C42.4903 39.3842 42.2546 39.7359 50.1446 39.7359C59.2036 39.7359 61.484 37.9198 65.7513 30.0199L66.5114 30.3715L63.1774 41.4893Z" fill="#007982"/>
<path d="M145.363 14.3646C141.625 23.4062 137.949 32.39 134.38 41.4895H133.773L120.668 9.50898C119.11 5.65532 117.546 1.69569 112.754 1.5271V0.525146C118.773 0.635939 124.791 0.635939 130.815 0.525146V1.5271C128.751 1.5271 125.186 1.86429 125.186 4.65337C125.186 8.9502 135.217 31.3303 135.832 32.891C136.554 31.1617 146.2 9.50898 146.2 5.10136C146.2 1.86429 142.351 1.63789 139.946 1.5271V0.525146C145.296 0.635939 150.645 0.635939 156 0.525146V1.5271C149.876 1.5271 147.311 9.67757 145.363 14.3646Z" fill="#007982"/>
</svg>
