<svg width="156" height="69" viewBox="0 0 156 69" fill="none" xmlns="http://www.w3.org/2000/svg"><path d="M3.562 60.02L1.55 66.24H0V52.86h1.317v9.995l1.372-4.232 1.95-5.762h1.662v13.395H4.968V55.578L3.562 60.02zm5.74.179v6.03H7.835V52.86h1.467v6.03h3.284v-6.03h1.49v13.395h-1.49V60.2H9.302zm12.619-5.785c2.14 0 3.095 1.225 3.095 3.352v3.669c0 2.127-.95 3.352-3.095 3.352h-.933v1.475h-1.473v-1.475h-.933c-2.14 0-3.095-1.225-3.095-3.352v-3.67c0-2.126.95-3.35 3.095-3.35h.933V52.86h1.473v1.57l.933-.017zm-3.34 1.32c-1.127 0-1.622.645-1.622 1.932v3.847c0 1.286.495 1.949 1.623 1.949h.933v-7.728h-.933zm3.34 7.733c1.128 0 1.65-.668 1.65-1.949v-3.847c0-1.286-.5-1.932-1.65-1.932h-.933v7.728h.933zm4.429-7.388c0-2.049 1.011-3.369 3.05-3.369 2.04 0 3.051 1.32 3.051 3.369v6.926c0 2.032-1.01 3.368-3.05 3.368s-3.05-1.341-3.05-3.368v-6.926zm1.473 7.01c0 1.224.516 1.931 1.589 1.931 1.067 0 1.59-.707 1.59-1.931v-7.082c0-1.225-.501-1.932-1.59-1.932-1.084 0-1.59.729-1.59 1.931v7.083zm8.996-10.229c2.1 0 2.995 1.226 2.995 3.275v1.62c0 2.127-.995 3.234-3.112 3.234h-1.317v5.284h-1.489V52.861h2.923zm-.117 6.776c1.112 0 1.64-.512 1.64-1.798V56.04c0-1.225-.44-1.832-1.529-1.832H35.38v5.412l1.322.017zm9.202 6.587h-1.45l-2.217-10.656v10.678h-1.3V52.866h2.083l2.195 10.701 2.117-10.7h2.084v13.395h-1.411v-10.79l-2.1 10.751zm6.574-2.678l-.517 2.695H50.59l2.556-13.38h2.161l2.573 13.38h-1.49l-.51-2.695h-3.401zm.189-1.286h2.978L54.14 54.53l-1.472 7.728zm12.319 5.779V66.24h-5.823V52.86h1.472v12.043h3.284V52.861h1.506v12.076h1v3.118l-1.439-.017zm6.24-7.978l-1.967 6.18h-1.55V52.86h1.317v9.995l1.183-3.67 2.14-6.296h1.661v13.395h-1.339v-10.7l-1.445 4.476zm7.758.456c-1.223 0-1.95.485-1.95 1.993v2.105a3.608 3.608 0 01-.245 1.626h-1.512a3.539 3.539 0 00.267-1.61v-2.087c0-1.437.456-2.444 1.667-2.795-1.128-.362-1.65-1.286-1.65-2.756v-1.075c0-1.987.878-3.056 2.984-3.056h2.978v13.395h-1.49v-5.723l-1.05-.017zm-.406-6.308c-1.111 0-1.55.613-1.55 1.832v1.286c0 1.453.705 1.832 1.872 1.832h1.128v-4.956l-1.45.006zm16.287 1.871v1.225h-1.412v-1.28c0-1.226-.483-1.933-1.567-1.933-1.083 0-1.567.73-1.567 1.932v7.082c0 1.225.5 1.932 1.567 1.932s1.567-.73 1.567-1.932v-1.742h1.412v1.664c0 2.032-.95 3.369-3.017 3.369-2.062 0-3.001-1.342-3.001-3.369V56.08c0-2.032.956-3.369 3-3.369 2.045 0 3.018 1.337 3.018 3.369zm1.239 0c0-2.049 1.011-3.369 3.05-3.369 2.04 0 3.051 1.32 3.051 3.369v6.926c0 2.032-1.011 3.368-3.05 3.368-2.04 0-3.051-1.341-3.051-3.368v-6.926zm1.445 7.01c0 1.224.516 1.931 1.589 1.931 1.067 0 1.589-.707 1.589-1.931v-7.082c0-1.225-.5-1.932-1.59-1.932-1.088 0-1.588.729-1.588 1.931v7.083zm15.02-10.229c2.083 0 2.9.997 2.9 2.968v.613c0 1.414-.394 2.293-1.561 2.661 1.294.362 1.795 1.392 1.795 2.867v1.13c0 2.005-.978 3.135-3.051 3.135h-3.051V52.861h2.968zm-.367 5.69c1.183 0 1.795-.383 1.795-1.78v-.791c0-1.186-.395-1.754-1.473-1.754h-1.472v4.32h1.15v.006zm.439 6.353c1.083 0 1.589-.573 1.589-1.831v-1.186c0-1.492-.611-1.988-1.873-1.988h-1.3v4.994l1.584.011zm6.685-4.476l-.784 1.32v4.493h-1.467V52.86h1.489v6.47l3.529-6.47h1.506l-3.379 6.114 3.495 7.288h-1.528l-2.861-5.835zm9.546 2.867c-.456 2.01-1.145 3.057-3.578 2.968V64.92c1.144.056 1.667-.306 1.911-1.32l.311-.879-3.05-9.877h1.489l1.356 4.655.916 3.368.784-3.368 1.222-4.655h1.495l-2.856 10.45zm9.852-7.215v1.225h-1.411v-1.28c0-1.226-.478-1.933-1.567-1.933-1.095 0-1.567.73-1.567 1.932v7.082c0 1.225.5 1.932 1.567 1.932s1.567-.73 1.567-1.932v-1.742h1.411v1.664c0 2.032-.95 3.369-3.017 3.369-2.062 0-2.995-1.342-2.995-3.369V56.08c0-2.032.95-3.369 2.995-3.369s3.017 1.337 3.017 3.369zm1.239 0c0-2.049 1.012-3.369 3.051-3.369s3.051 1.32 3.051 3.369v6.926c0 2.032-1.012 3.368-3.051 3.368s-3.051-1.341-3.051-3.368v-6.926zm1.473 7.01c0 1.224.517 1.931 1.589 1.931 1.067 0 1.589-.707 1.589-1.931v-7.082c0-1.225-.494-1.932-1.589-1.932s-1.589.729-1.589 1.931v7.083zm11.002 3.134h-1.433l-2.19-10.656v10.678h-1.3V52.866h2.084l2.195 10.701 2.122-10.7H156v13.395h-1.417v-10.79l-2.145 10.751z" fill="#00787C"/><path fill-rule="evenodd" clip-rule="evenodd" d="M93.534.525c11.297 0 20.457 9.172 20.457 20.482 0 11.31-9.16 20.482-20.457 20.482-11.296 0-20.456-9.171-20.456-20.482 0-11.315 9.16-20.482 20.456-20.482z" fill="#007982"/><path d="M93.535 42.005c-11.566 0-20.976-9.422-20.976-21.003C72.559 9.422 81.969 0 93.535 0 105.1 0 114.51 9.422 114.51 21.002c0 11.58-9.41 21.003-20.975 21.003zm0-40.965c-10.993 0-19.937 8.955-19.937 19.962S82.542 40.97 93.535 40.97s19.941-8.955 19.941-19.967c0-11.011-8.948-19.962-19.941-19.962z" fill="#860142"/><path fill-rule="evenodd" clip-rule="evenodd" d="M97.508 9.287c-.288.694-.683 1.094-1.75 1.007.663-1.407-.087-1.753-.265-2.182-.111-.27-.092-.963.158-1.147-.596-.197-.962.39-1.27.882-2.131.41-.755 2.572.481 1.643-.307.963-2.17 1.81-3.723-.516.731-1.257 1.992-1.146 2.963-1.777.91-1.094.173-2.674-.962-2.602.457-.809-.823-1.975-2.093-1.416-.75-1.445-3.3-1.103-3.228.776-1.467-.318-2.478 2.004-.847 2.437a1.406 1.406 0 00-.235 2.606c1.13.241 2.333-.693 3.464.222-.621 2.726-2.603 3.054-3.238 2.245 1.506.419 1.895-2.149-.24-1.768-.458-.352-.819-.617-1.305-.217a.48.48 0 01.38.564v.004c-.067.93-.144 1.445.963 2.505-.962.482-1.78.38-2.295-.164a3.432 3.432 0 00.577-1.729c.068-1.353-1.332-2.187-.61-3.372a2.119 2.119 0 00-2.3.665.48.48 0 00-.308-.361c.76-1.161 1.63-1.6 2.886-1.354a1.4 1.4 0 000-1.31c1.376-.443 1.237-.964 1.891-2-1.405.579-2.694.887-3.8 2.024-.55.559-.578 1.089-.963 1.71a5.712 5.712 0 01-.842.718c-1.049.14-1.823.65-2.14.616.081.617.09 1.243.023 1.86a2.428 2.428 0 01-.558.505c-.596.42-1.125.482-1.65 1.055-1.068 1.176-1.26 3.305-1.756 4.74 1.025-.712 1.602-.843 1.968-2.25a1.19 1.19 0 001.188-.197 2.78 2.78 0 011.193-3.121c.087.173.25.299.438.337-.654.699-1.313 2.062-.996 2.929 1.15-.79 2.434-.053 3.777-.198a3.358 3.358 0 001.737-.583c.577.482.673 1.22.283 2.216-1.159-1.045-1.63-.645-2.52-.693-.29 0-.482-.29-.573-.578a1.146 1.146 0 00.106 1.498c-.231 2.163 2.405 1.652 1.924.173.852.578.327 2.548-2.348 3.372-.99-1.07-.125-2.177-.442-3.29-.784-1.19-2.444-.853-2.709.27-.962-.964-2.55 0-2.131 1.445-1.583.303-1.838 2.635-.375 3.261-.727 1.31.596 2.587 1.756 1.874 0 1.151 1.559 1.855 2.583.867.558-1.016-.043-2.293 1.16-3.112 2.43 1.387 2.501 3.425 1.544 3.796.837-1.325-1.64-2.409-1.895-.25a1.148 1.148 0 00-.434 1.445.736.736 0 01.688-.444c.876.155 1.251.65 2.608-.115.159 1.06-.096 1.763-.765 2.1a3.105 3.105 0 00-1.443-.963c-1.275-.482-2.348.645-3.281-.395a2.138 2.138 0 00-.068 2.408.62.62 0 00-.505.222 2.808 2.808 0 01-.428-3.314 1.196 1.196 0 00-1.106-.482c0-1.445-.559-1.715-1.381-2.65.144 1.513-.169 3.633.592 5.025.375.684.875.867 1.356 1.416.169.188.313.395.424.621-.178 1.04 0 1.836-.106 2.13.312.043.89.63 1.876 1.006.14.212.245.439.322.68.226.693.13 1.218.53 1.888.813 1.363 2.795 2.167 4.022 3.059-.385-1.185-.342-1.778-1.579-2.534.265-.342.323-.8.154-1.2a2.798 2.798 0 01-2.65-2.066.62.62 0 00.447-.323 2.118 2.118 0 002.098 1.156c-.424-1.334 1.068-1.7 1.318-3.03a3.211 3.211 0 00-.034-1.758c.626-.419 1.362-.294 2.199.371-1.333.804-1.088 1.373-1.39 2.211a.723.723 0 01-.722.38c.332.453.943.593 1.443.338 1.997.848 2.285-1.845.722-1.773.798-.65 2.525.424 2.525 3.223-1.308.64-2.116-.516-3.271-.53-1.366.4-1.525 2.09-.53 2.673-1.192.655-.745 2.443.756 2.457-.168 1.609 1.982 2.529 3.007 1.31a1.313 1.313 0 002.3-1.141c1.106.327 2.227-.964 1.578-2.216-.804-.834-2.2-.627-2.632-2.019 2.03-1.926 3.998-1.401 4.08-.375-1.025-1.185-2.786.872-.794 1.743.149.554.678.91 1.246.834a.745.745 0 01-.217-.785c.4-.795.963-1.012.65-2.534 1.058.154 1.655.602 1.78 1.344a3.13 3.13 0 00-1.328 1.108c-.803 1.088-.067 2.432-1.333 3.025a2.117 2.117 0 002.271.76.634.634 0 00.068.55 2.793 2.793 0 01-3.296-.554 1.194 1.194 0 00-.77.925c-1.395-.4-1.799.034-2.934.55 1.486.303 3.42 1.218 4.97.895.764-.159 1.082-.588 1.746-.891.23-.106.471-.178.717-.222.962.482 1.765.52 2.01.723.13-.29.857-.67 1.506-1.508.24-.067.491-.106.741-.11.732 0 1.203.23 1.963.043 1.535-.38 2.887-2.047 4.089-2.963-1.246 0-1.799-.192-2.886.776a1.19 1.19 0 00-1.097-.482 2.787 2.787 0 01-2.728 1.927.6.6 0 00-.178-.52 2.137 2.137 0 001.718-1.672c-1.4 0-1.319-1.517-2.517-2.148a3.11 3.11 0 00-1.674-.448c-.216-.723.111-1.387.991-2.004.38 1.512.996 1.445 1.713 1.975a.716.716 0 01.154.8c.544-.184.861-.747.746-1.306 1.39-1.652-1.112-2.712-1.496-1.18-.39-.963 1.135-2.303 3.815-1.498.231 1.445-1.102 1.883-1.444 2.986 0 1.446 1.564 2.062 2.406 1.277a1.312 1.312 0 002.569 0c1.486.621 2.987-1.175 2.117-2.51a1.316 1.316 0 00-.429-2.534c.631-.963-.269-2.408-1.669-2.153-1.025.535-1.232 1.927-2.684 1.927-1.256-2.505-.188-4.239.813-4.022-1.444.64.033 2.919 1.443 1.267a1.144 1.144 0 001.159-.964.74.74 0 01-.817 0c-.645-.611-.684-1.233-2.233-1.353.452-.964 1.054-1.412 1.8-1.32a3.17 3.17 0 00.673 1.59c.808 1.083 2.309.765 2.511 2.148a2.102 2.102 0 001.381-1.956.61.61 0 00.544.092 2.797 2.797 0 01-1.477 3 1.2 1.2 0 00.659 1.007c-.779 1.22-.481 1.735-.313 2.973.722-1.34 2.165-2.934 2.29-4.51.068-.78-.25-1.208-.346-1.926a2.78 2.78 0 010-.752c.726-.775 1.005-1.541 1.27-1.72-.241-.206-.395-1.016-1.006-1.878.005-.25.039-.5.106-.742.197-.703.568-1.084.606-1.869.077-1.584-1.13-3.372-1.659-4.773-.332 1.199-.698 1.671-.087 2.986-.404.14-.707.487-.789.91a2.79 2.79 0 011.058 3.15.61.61 0 00-.548 0 2.128 2.128 0 00-1.107-2.128c-.384 1.344-1.832.823-2.775 1.792a3.394 3.394 0 00-.934 1.532c-.75 0-1.294-.516-1.621-1.537 1.554.077 1.669-.535 2.405-1.06a.747.747 0 01.813.087 1.132 1.132 0 00-1.029-1.094c-1.184-1.82-2.92.256-1.583 1.07-1.025.091-1.862-1.763-.308-4.09 1.444.202 1.472 1.609 2.406 2.269a1.49 1.49 0 001.924-1.927c1.357.125 1.977-1.609.741-2.461 1.034-1.238-.236-3.204-1.766-2.765-.264-1.474-2.097-1.624-2.545-.338-.736-.886-2.376-.452-2.549.964.211 1.137 1.481 1.748 1.068 3.145-2.757.482-4.104-1.069-3.599-1.965.192 1.556 2.795.829 1.631-1.007a1.143 1.143 0 00-.573-1.387.728.728 0 01-.255.775c-.774.439-1.375.29-1.924 1.74-.794-.718-1.034-1.446-.731-2.11a3.079 3.079 0 001.717-.179c1.275-.452 1.41-1.984 2.791-1.768a2.126 2.126 0 00-1.444-1.897.61.61 0 00.251-.482 2.773 2.773 0 012.405 2.293c.419.106.861-.02 1.159-.333.934 1.108 1.511.964 2.743 1.176-1.068-1.08-2.16-2.92-3.633-3.517-.721-.294-1.226-.115-1.924-.236a2.896 2.896 0 01-.722-.212c-.524-.92-1.173-1.416-1.265-1.72-.269.164-1.082.078-2.088.41a2.74 2.74 0 01-.678-.323c-.616-.395-.871-.862-1.602-1.127-1.492-.544-3.531.092-5.047.178 1.049.675 1.386 1.161 2.824.964.01.433.255.823.635 1.026A2.776 2.776 0 0198 3.873a.623.623 0 00-.14.53 2.121 2.121 0 00-2.357.433c1.17.766.25 1.995.895 3.184.26.53.66.973 1.155 1.287l-.044-.02z" fill="#fff"/><path d="M92.919 40.79c-.943 0-1.963-.307-2.887-.582-.505-.15-.976-.294-1.414-.38l-.467-.097.433-.197c.197-.092.37-.179.534-.256.746-.37 1.251-.621 2.353-.342.12-.404.428-.732.832-.881l.096-.034.067.072a2.655 2.655 0 002.979.588.768.768 0 01-.049-.275 2.273 2.273 0 01-2.203-.867l-.115-.149.173-.082c.644-.303.707-.804.78-1.44.018-.15.038-.309.062-.467l-.313.043a1.296 1.296 0 01-1.395-.877c-.611-.289-.953-.737-.934-1.243.02-.467.342-.905.794-1.064a.986.986 0 01.654-.01 1.115 1.115 0 00-.331-.193c-.655-.25-1.867-.11-3.166 1.08.255.708.808.934 1.39 1.17.414.169.837.347 1.174.694l.024.038c.332.641.265 1.373-.178 1.908-.35.424-.851.63-1.347.573a1.48 1.48 0 01-.544 1.272 1.467 1.467 0 01-1.943-.101c-.515.5-1.28.63-2.001.322-.737-.313-1.18-.973-1.17-1.715-.688-.062-1.222-.496-1.385-1.136a1.386 1.386 0 01.52-1.474c-.38-.323-.573-.824-.506-1.368.087-.69.573-1.248 1.266-1.45l.024-.005h.024c.48.005.904.197 1.308.376.573.26 1.116.505 1.81.207-.025-1.768-.76-2.746-1.391-3.045a1.116 1.116 0 00-.366-.106.985.985 0 01.443.482c.192.434.1.973-.226 1.31-.356.362-.914.424-1.545.178a1.296 1.296 0 01-1.573-.414L83 30.57l.35.039a.575.575 0 00.569-.3c.062-.172.1-.355.139-.529.115-.53.226-1.03 1.116-1.619-.669-.476-1.241-.573-1.746-.288a3.4 3.4 0 01.005 1.729c-.111.602-.472 1.021-.79 1.392-.418.487-.745.872-.529 1.551l.058.183-.188.02a2.29 2.29 0 01-2.13-1.036.753.753 0 01-.236.149 2.659 2.659 0 002.463 1.806h.1l.04.092a1.35 1.35 0 01-.083 1.214c.953.621 1.107 1.166 1.338 1.97.048.173.1.356.168.564l.145.452-.385-.279c-.361-.265-.79-.515-1.242-.785-1.043-.621-2.232-1.33-2.819-2.317-.26-.438-.322-.824-.385-1.2-.038-.226-.077-.462-.158-.717a2.533 2.533 0 00-.28-.602c-.548-.217-.971-.497-1.284-.699-.216-.145-.404-.265-.51-.28l-.188-.023.063-.179c.034-.096.029-.318.02-.568-.01-.376-.025-.891.067-1.484a2.67 2.67 0 00-.376-.544c-.178-.207-.365-.361-.543-.51-.289-.242-.592-.492-.833-.94-.553-1.012-.558-2.394-.563-3.613 0-.525-.004-1.026-.048-1.469l-.043-.472.313.356c.144.169.284.314.414.448.577.607.971 1.022 1.005 2.144a1.35 1.35 0 011.078.554l.058.082-.049.087a2.635 2.635 0 00.303 3.02.72.72 0 01.25-.125 2.268 2.268 0 01.193-2.375l.11-.154.126.14c.471.524.962.433 1.587.317a6.44 6.44 0 01.472-.077l-.12-.26a1.306 1.306 0 01.428-1.6c.096-.669.428-1.126.919-1.256a1.2 1.2 0 011.246.452c.14.188.207.4.197.622a1.07 1.07 0 00.086-.371c.053-.699-.428-1.826-1.948-2.722-.601.453-.654 1.046-.717 1.676-.043.444-.086.901-.317 1.325l-.03.039c-.523.506-1.255.65-1.9.375-.5-.212-.837-.626-.923-1.112a1.38 1.38 0 01-1.53-.28c-.476-.452-.587-1.137-.303-1.768-.635-.341-.986-1.045-.9-1.83.087-.795.587-1.411 1.3-1.619-.14-.688.124-1.334.702-1.671.5-.294 1.082-.26 1.544.077.192-.458.616-.785 1.15-.877.683-.12 1.361.183 1.76.79l.02.044c.134.462.072.92.014 1.358-.082.626-.159 1.219.327 1.797 1.684-.544 2.401-1.537 2.507-2.23.024-.15.02-.29-.01-.41a1.015 1.015 0 01-.36.602A1.205 1.205 0 0181.97 17c-.26-.14-.683-.51-.606-1.425a1.314 1.314 0 01-.067-1.648l.105-.144c-.134-.015-.264-.034-.399-.053-.784-.106-1.53-.212-2.203.25l-.164.11-.067-.187c-.328-.9.288-2.197.88-2.92a.754.754 0 01-.221-.187 2.653 2.653 0 00-1 2.866l.028.097-.077.062a1.36 1.36 0 01-1.179.275c-.317 1.093-.793 1.401-1.5 1.86-.15.095-.313.201-.487.322l-.39.27.155-.448c.144-.424.264-.906.39-1.417.293-1.185.62-2.524 1.394-3.376.342-.371.693-.545 1.03-.713a4.26 4.26 0 00.645-.366c.187-.126.356-.275.5-.444a7.842 7.842 0 00-.029-1.777l-.024-.193.193.02c.105.014.336-.082.582-.179.375-.15.885-.347 1.486-.433.284-.203.549-.429.79-.68.12-.202.216-.423.302-.635.15-.347.299-.708.66-1.075.909-.934 1.933-1.32 3.026-1.734.269-.1.548-.207.827-.322l.447-.183-.26.409a8.08 8.08 0 00-.38.689c-.293.583-.49.983-1.433 1.32.163.419.14.89-.072 1.29l-.053.102-.11-.024c-1.127-.222-1.92.125-2.637 1.151a.688.688 0 01.13.135 2.265 2.265 0 012.304-.535l.183.063-.101.164c-.366.602-.115 1.112.178 1.7.226.458.486.978.457 1.6a3.624 3.624 0 01-.534 1.7c.447.4 1.102.448 1.828.14-.957-.978-.919-1.547-.856-2.38l.019-.135c.029-.154-.091-.328-.265-.361l-.322-.063.255-.207c.563-.463 1.01-.154 1.443.173.915-.14 1.3.241 1.453.487a1.11 1.11 0 01-.082 1.228 1.028 1.028 0 01-.64.4c.193.063.42.072.655.02.861-.193 1.563-1.085 1.881-2.38-.611-.448-1.25-.328-1.924-.208-.457.087-.929.174-1.4.073l-.039-.015a1.552 1.552 0 01-.794-.953 1.58 1.58 0 01.125-1.19c.135-.25.337-.453.573-.598-.476-.27-.693-.766-.549-1.348.169-.699.828-1.344 1.641-1.272.043-.915.683-1.411 1.294-1.575.727-.193 1.68.019 2.156.785a1.833 1.833 0 011.943.467c.274.308.385.67.303.992.457.053.871.352 1.107.82.332.654.235 1.45-.25 2.027l-.034.03c-.356.23-.75.365-1.13.5-.665.227-1.29.443-1.733 1.147.905 1.305 1.805 1.392 2.262 1.33.384-.054.688-.242.885-.454a1.08 1.08 0 01-.823-.134c-.38-.237-.587-.665-.515-1.07.048-.27.265-.737 1.155-.93.313-.496.731-1.117 1.414-.89l.284.096-.24.178c-.164.12-.207.718-.106.963.033.077.091.16.163.256.26.346.606.814.188 1.845.755.014 1.092-.294 1.333-.815a3.276 3.276 0 01-1.059-1.247c-.293-.54-.279-1.094-.27-1.585.015-.64.025-1.146-.572-1.537l-.168-.106.135-.135a2.271 2.271 0 012.309-.549.82.82 0 01.082-.26 2.651 2.651 0 00-3.026.16l-.077.062-.087-.048a1.354 1.354 0 01-.702-.988c-1.131.12-1.593-.202-2.28-.674-.15-.101-.309-.212-.492-.333l-.399-.255.472-.029c.447-.024.943-.101 1.462-.178 1.203-.183 2.564-.385 3.647.01.476.173.77.433 1.053.684.174.154.352.313.583.457.187.12.385.222.596.29a7.001 7.001 0 011.439-.275c.259-.03.481-.053.572-.106l.169-.101.057.192c.029.101.183.275.356.477.246.28.573.66.866 1.166.202.087.419.144.64.183.26.043.496.048.727.048.375.005.764.005 1.236.198 1.068.433 1.944 1.498 2.713 2.437.337.41.655.795.967 1.113l.337.342-.476-.082c-.221-.039-.424-.063-.611-.092-.818-.106-1.371-.183-2.117-1.016a1.34 1.34 0 01-1.183.26l-.097-.024-.014-.101a2.632 2.632 0 00-2.122-2.144.873.873 0 01-.11.246 2.26 2.26 0 011.327 1.95l.01.189-.188-.03c-.702-.11-1.034.275-1.448.762-.101.115-.207.24-.322.361l.265.13c.553.275.832.91.673 1.503.346.583.375 1.147.082 1.556a1.204 1.204 0 01-1.251.438.991.991 0 01-.553-.356c.029.12.086.24.173.356.409.578 1.496 1.142 3.228.863.178-.733-.154-1.233-.505-1.759-.245-.37-.5-.751-.592-1.223l-.005-.024.005-.024c.087-.723.558-1.296 1.227-1.489.524-.154 1.049-.048 1.429.275.264-.51.774-.8 1.361-.752.655.053 1.169.506 1.352 1.176.712-.135 1.424.188 1.852.848.433.67.438 1.469.015 2.076.539.443.741 1.103.515 1.72a1.39 1.39 0 01-1.266.93 1.647 1.647 0 01-2.189 1.912l-.033-.02c-.39-.274-.626-.66-.857-1.035-.332-.54-.644-1.05-1.385-1.19-.958 1.483-.89 2.702-.534 3.304.072.12.154.217.245.294a.986.986 0 01-.096-.646c.082-.471.457-.867.914-.958.496-.101.996.159 1.376.713a1.288 1.288 0 011.097 1.233l.009.299a5.66 5.66 0 01.501-.154c.616-.174 1.102-.314 1.299-.998l.053-.183.168.092c.765.41 1.222 1.2 1.203 2.052a.686.686 0 01.279.014 2.617 2.617 0 00-1.044-2.822l-.082-.058.019-.097a1.37 1.37 0 01.736-.963c-.447-1.04-.279-1.58-.028-2.38.052-.173.11-.356.168-.563l.125-.453.168.443c.154.405.366.843.587 1.306.534 1.112 1.141 2.37 1.083 3.53-.024.516-.188.872-.347 1.22a4.721 4.721 0 00-.264.683 2.944 2.944 0 00-.101.655c.332.482.529.944.678 1.287.106.245.197.457.274.525l.154.13-.168.11c-.091.063-.212.256-.351.482-.198.318-.462.747-.857 1.175a2.79 2.79 0 00.005.665c.034.265.106.492.169.713.11.361.221.737.178 1.248-.092 1.146-.857 2.302-1.535 3.324-.289.438-.563.852-.775 1.242l-.226.415-.062-.468c-.029-.216-.063-.409-.092-.587-.139-.824-.235-1.383.347-2.356a1.392 1.392 0 01-.602-1.05l-.005-.101.092-.048a2.656 2.656 0 001.419-2.683.694.694 0 01-.279-.034 2.263 2.263 0 01-1.467 1.86l-.178.062-.029-.188c-.101-.703-.568-.905-1.155-1.166-.139-.062-.284-.125-.428-.197l-.048.299a1.304 1.304 0 01-1.241 1.093c-.453.506-.987.698-1.468.53a1.208 1.208 0 01-.789-1.07.997.997 0 01.174-.616c-.097.063-.188.15-.27.255-.428.554-.649 1.758.12 3.348.751-.034 1.126-.496 1.525-.988.28-.341.568-.698.996-.92l.044-.014c.716-.13 1.4.15 1.785.732.303.458.356.992.153 1.45.472.101.876.434 1.059.891a1.47 1.47 0 01-.65 1.836c.332.635.236 1.411-.264 2.013-.51.612-1.261.853-1.963.631a1.476 1.476 0 01-1.083.964 1.473 1.473 0 01-1.674-.901c-.413.274-.952.318-1.448.101-.635-.275-1.025-.906-1.025-1.638l.005-.043c.145-.463.443-.81.736-1.147.409-.477.799-.925.717-1.676-1.698-.482-2.843-.063-3.315.453a1.165 1.165 0 00-.211.323 1 1 0 01.596-.29c.477-.057.967.188 1.189.598.24.443.139.987-.279 1.512.091.612-.27 1.21-.862 1.407l-.332.11.14-.322a.57.57 0 00-.12-.626 5.176 5.176 0 00-.462-.284c-.477-.265-.924-.516-1.232-1.547-.65.506-.904 1.026-.784 1.595.577.01 1.14.168 1.636.472.543.284.842.751 1.102 1.16.346.54.615.964 1.332.964h.188l-.039.183a2.277 2.277 0 01-1.607 1.74.73.73 0 01.077.269 2.652 2.652 0 002.425-1.82l.029-.097.101-.01c.423-.048.842.106 1.131.414.899-.756 1.481-.741 2.347-.717.159.005.332.01.52.01h.457l-.366.279a17.5 17.5 0 00-1.101.953c-.905.824-1.925 1.759-3.041 2.038-.51.125-.89.077-1.294.02a5.257 5.257 0 00-.707-.059 2.707 2.707 0 00-.65.092c-.365.462-.75.785-1.039 1.026-.202.169-.375.313-.418.41l-.082.183-.154-.13c-.082-.068-.299-.126-.553-.193a7.445 7.445 0 01-1.386-.487 2.92 2.92 0 00-.63.203c-.246.11-.443.245-.635.37-.318.208-.645.425-1.14.53-.25.049-.496.068-.746.068zm-3.81-1.165c.322.082.659.183 1.01.29 1.188.356 2.42.727 3.464.505.442-.092.73-.284 1.034-.487.202-.134.414-.274.678-.395.24-.11.496-.187.756-.236l.048-.01.043.025a6.527 6.527 0 001.371.486c.217.058.39.106.525.164a3.01 3.01 0 01.409-.376c.298-.25.668-.563 1.024-1.02l.03-.04.047-.014c.255-.072.52-.11.78-.115.283 0 .519.033.75.062.39.053.727.097 1.179-.014 1.039-.26 1.992-1.127 2.91-1.966.27-.245.534-.486.789-.698-.033 0-.067 0-.096-.005-.89-.024-1.381-.034-2.256.747l-.125.11-.101-.14c-.202-.274-.525-.452-.861-.423a2.965 2.965 0 01-2.762 1.936h-.082l-.173-.004.024-.174a.455.455 0 00-.13-.385l-.221-.212.298-.053a1.961 1.961 0 001.549-1.373c-.74-.077-1.072-.593-1.395-1.098-.255-.4-.52-.81-.996-1.06a2.899 2.899 0 00-1.597-.429h-.115l-.034-.11c-.236-.79.116-1.523 1.049-2.173l.183-.13.053.217c.274 1.084.654 1.3 1.14 1.57.163.092.332.188.514.318.183.178.275.41.275.64a.978.978 0 00.38-.992l-.015-.072.048-.058c.376-.443.477-.876.289-1.223a.895.895 0 00-.88-.439c-.188.024-.52.135-.64.622l-.116.457-.178-.438c-.158-.39-.057-.824.28-1.19.562-.621 1.837-1.079 3.723-.515l.092.029.014.096c.149.949-.322 1.493-.775 2.023-.279.318-.538.622-.664 1.012.01.607.323 1.103.842 1.33.462.202.963.13 1.304-.193l.197-.183.058.265a1.157 1.157 0 002.266 0l.039-.183.173.072c.75.313 1.424-.068 1.77-.487.342-.414.592-1.132.159-1.797l-.101-.159.173-.072a1.163 1.163 0 00.645-1.508 1.168 1.168 0 00-1.02-.727l-.27-.014.15-.227c.255-.39.24-.896-.044-1.32a1.423 1.423 0 00-1.448-.602c-.361.193-.611.506-.875.834-.443.544-.895 1.103-1.857 1.103h-.097l-.043-.087c-.885-1.763-.621-3.131-.13-3.762.298-.385.717-.564 1.116-.477l.462.101-.433.193c-.452.202-.505.544-.5.727.014.347.26.68.582.795.38.13.799-.043 1.183-.496l.049-.058h.072a.986.986 0 00.909-.55.891.891 0 01-.659-.134 4.414 4.414 0 01-.428-.472c-.351-.429-.626-.77-1.732-.857l-.222-.02.097-.202c.486-1.036 1.145-1.508 1.958-1.407l.12.015.014.12a3.07 3.07 0 00.64 1.513c.327.438.775.63 1.208.824.548.24 1.111.486 1.299 1.209a1.96 1.96 0 001.111-1.744l.005-.299.241.178a.456.456 0 00.408.068l.164-.053.034.168a2.97 2.97 0 01-1.463 3.117c.053.332.26.626.563.78l.154.078-.091.144c-.611.954-.53 1.421-.385 2.274l.029.159c.173-.285.365-.578.567-.882.688-1.04 1.4-2.115 1.482-3.18.039-.452-.062-.78-.164-1.131a4.896 4.896 0 01-.182-.761 3.072 3.072 0 010-.79l.004-.048.034-.034c.395-.424.65-.834.856-1.166.121-.197.217-.352.318-.462-.082-.12-.154-.294-.245-.506-.154-.357-.342-.805-.674-1.272l-.029-.043v-.048c.005-.265.044-.525.111-.78.077-.28.183-.511.284-.728.154-.337.298-.65.317-1.108.053-1.079-.534-2.303-1.053-3.382a21.215 21.215 0 01-.428-.92c-.015.053-.034.101-.049.155-.259.823-.399 1.271.077 2.307l.073.154-.159.058c-.323.11-.573.376-.664.698a2.917 2.917 0 011.029 3.261l-.057.169-.159-.082a.438.438 0 00-.409 0l-.255.13.034-.284a1.97 1.97 0 00-.871-1.884c-.279.69-.871.858-1.448 1.022-.457.13-.929.26-1.304.65-.428.4-.736.906-.895 1.464l-.033.111h-.116c-.823 0-1.419-.554-1.766-1.642l-.067-.212.221.01c1.112.052 1.424-.246 1.829-.627.139-.135.288-.27.481-.404a.933.933 0 01.697-.073.98.98 0 00-.837-.66l-.077-.005-.038-.062c-.323-.491-.712-.718-1.097-.64a.894.894 0 00-.674.707c-.033.183-.024.53.4.785l.399.246-.467.044c-.404.038-.798-.193-1.049-.612-.409-.69-.495-2.076.597-3.72l.053-.081.096.014c.957.135 1.338.752 1.703 1.35.221.356.428.698.755.934a1.337 1.337 0 001.708-1.734l-.086-.232.245.025c.529.048.991-.236 1.169-.723.145-.405.096-1.03-.529-1.46l-.14-.096.111-.13c.52-.626.361-1.378.063-1.835-.294-.453-.91-.896-1.67-.68l-.163.049-.029-.169c-.135-.742-.679-1.045-1.107-1.079-.524-.043-.967.26-1.14.766l-.091.255-.173-.212c-.299-.356-.785-.491-1.271-.347a1.418 1.418 0 00-1 1.21c.082.4.303.732.539 1.083.389.583.793 1.185.519 2.11l-.029.092-.096.014c-1.929.337-3.161-.313-3.627-.973-.284-.404-.337-.862-.13-1.219l.231-.404.057.462c.063.492.371.64.554.69a.899.899 0 00.923-.324c.231-.322.188-.77-.13-1.271l-.038-.063.024-.072a.998.998 0 00-.25-1.026.88.88 0 01-.337.587 3.768 3.768 0 01-.568.265c-.51.207-.914.371-1.303 1.407l-.082.212-.169-.15c-.938-.852-1-1.59-.837-2.1l-.745-.332c-.303.645-.756 1.045-1.843.958l-.221-.019.096-.202c.476-1.007.188-1.397-.067-1.734a1.445 1.445 0 01-.202-.323c-.097-.231-.116-.751.033-1.089-.327.024-.572.371-.866.843l-.033.058-.068.02c-.567.11-.914.356-.976.693-.049.275.1.583.375.752.298.183.65.154.962-.077l.385-.29-.15.463c-.172.55-.73.978-1.38 1.07-.544.076-1.602-.025-2.617-1.547l-.053-.082.048-.082c.5-.862 1.236-1.117 1.948-1.363.37-.13.722-.25 1.044-.453a1.56 1.56 0 00.198-1.676c-.222-.438-.606-.684-1.044-.655l-.284.019.14-.246c.144-.255.076-.573-.179-.857a1.512 1.512 0 00-1.717-.342l-.159.058-.067-.13c-.376-.723-1.227-.925-1.872-.752-.697.183-1.092.728-1.068 1.45l.01.198-.192-.044c-.717-.154-1.319.405-1.463 1.017-.048.207-.15.9.688 1.122l.534.14-.53.154a1.242 1.242 0 00-.745.602 1.243 1.243 0 00-.101.954c.096.323.322.597.62.756.4.082.819.005 1.261-.077.736-.135 1.501-.28 2.252.328l.077.062-.02.092c-.336 1.469-1.135 2.485-2.136 2.712-.553.125-1.077-.03-1.37-.405l-.29-.37.453.124c.36.102.688.01.885-.255a.8.8 0 00.063-.881c-.193-.318-.621-.439-1.203-.333l-.068.01-.052-.044c-.376-.289-.616-.457-.895-.351.168.144.26.37.216.607l-.005.072c-.062.853-.096 1.32.924 2.293l.159.15-.198.096c-.986.496-1.89.424-2.477-.198l-.087-.091.068-.101c.327-.492.52-1.065.553-1.653.029-.54-.202-1.002-.424-1.445-.278-.563-.572-1.146-.26-1.82a1.947 1.947 0 00-1.953.664l-.206.25-.063-.322a.326.326 0 00-.207-.246l-.183-.067.106-.164c.784-1.2 1.689-1.648 2.925-1.44.145-.342.13-.733-.048-1.065l-.086-.164.173-.058c.962-.308 1.12-.63 1.414-1.218.053-.101.106-.212.169-.328-.14.053-.284.106-.424.16-1.053.399-2.054.78-2.91 1.661-.318.323-.453.64-.597.978-.096.221-.192.457-.346.703a5.626 5.626 0 01-.886.761l-.067.024c-.577.077-1.063.265-1.453.42a3.386 3.386 0 01-.539.182c.068.578.068 1.161.005 1.735l-.005.043-.029.034c-.168.207-.37.385-.591.534-.236.169-.462.28-.683.386-.328.163-.635.313-.939.645-.721.795-1.03 2.038-1.323 3.242-.086.357-.173.699-.264 1.021.043-.029.086-.057.13-.082.726-.467 1.126-.727 1.414-1.835l.043-.168.16.062c.317.12.678.077.957-.116a2.969 2.969 0 011.284-3.193l.144-.092.077.15c.068.13.188.226.332.255l.27.058-.188.202c-.553.592-1.164 1.763-1.015 2.582.722-.4 1.491-.294 2.237-.193.467.063.948.13 1.429.082a3.2 3.2 0 001.665-.559l.096-.067.091.072c.63.525.741 1.33.327 2.39l-.081.207-.164-.15c-.828-.746-1.265-.713-1.819-.67a4.918 4.918 0 01-.61.02c-.227 0-.433-.14-.578-.385a.988.988 0 00.231 1.04l.053.053-.01.072c-.062.583.092 1.007.438 1.19.299.16.698.111.972-.115.144-.12.366-.4.216-.872l-.139-.429.37.25c.342.232.5.646.424 1.137-.12.795-.929 1.932-2.815 2.51l-.091.029-.067-.072c-.655-.704-.563-1.421-.472-2.115.053-.42.106-.819 0-1.214-.4-.588-1-.713-1.438-.636-.496.087-.871.424-.977.877l-.063.27-.197-.198c-.375-.376-.904-.448-1.352-.183-.375.222-.736.742-.524 1.479l.048.164-.168.033c-.799.155-1.15.843-1.208 1.383-.058.535.135 1.272.861 1.585l.16.067-.083.15c-.365.664-.134 1.242.174 1.541.375.356.909.41 1.366.13l.236-.145v.275c0 .463.288.872.755 1.07a1.425 1.425 0 001.549-.3c.192-.36.23-.765.27-1.184.067-.699.134-1.416.928-1.956l.082-.053.081.048c1.713.978 2.252 2.26 2.19 3.064-.039.486-.284.862-.665 1.012l-.432.168.25-.395c.264-.414.12-.727.01-.881a.91.91 0 00-.92-.338c-.384.102-.635.482-.702 1.065l-.01.072-.062.039c-.332.207-.5.592-.457.963a.894.894 0 01.616-.245h.014c.245.043.428.1.611.154.53.168.948.298 1.92-.25l.192-.112.034.222c.168 1.132-.116 1.893-.847 2.26l-.106.052-.077-.091a2.957 2.957 0 00-1.37-.916c-.52-.197-1.006-.106-1.478-.019-.582.106-1.183.217-1.732-.28a1.958 1.958 0 00.039 2.082l.163.25-.298-.014a.457.457 0 00-.38.168l-.11.13-.121-.125a2.942 2.942 0 01-.5-3.405 1.05 1.05 0 00-.905-.347l-.173.019v-.173c0-1.123-.346-1.489-.924-2.091-.038-.043-.082-.087-.12-.13.014.332.014.689.02 1.055.004 1.243.009 2.524.524 3.463.216.395.48.617.76.848.187.154.38.318.577.54.178.192.327.414.448.655l.024.043-.01.048a6.795 6.795 0 00-.072 1.47c.005.216.01.39-.005.524.135.058.289.16.476.28.327.217.736.482 1.275.689l.048.019.03.043c.144.222.259.463.34.718.092.275.13.525.17.766.057.361.115.703.346 1.089.548.92 1.65 1.575 2.713 2.21.317.189.62.372.9.555l-.044-.15c-.236-.828-.37-1.286-1.342-1.878l-.144-.092.086-.063c.212-.27.27-.63.169-.953a2.963 2.963 0 01-2.69-2.178l-.043-.163.168-.03a.473.473 0 00.337-.24l.14-.265.134.265a1.976 1.976 0 001.756 1.084h.005c-.149-.733.25-1.2.64-1.652.308-.362.625-.733.727-1.263a3.087 3.087 0 00-.03-1.686l-.033-.11.096-.063c.683-.458 1.487-.332 2.382.38l.173.14-.193.116c-.952.573-1.044 1.002-1.164 1.541a4.166 4.166 0 01-.159.588.893.893 0 01-.529.448.977.977 0 001.035.077l.062-.034.067.03c.544.23.991.202 1.27-.083a.902.902 0 00.164-.968c-.077-.168-.284-.448-.765-.429l-.467.02.361-.294c.318-.26.77-.29 1.208-.077.721.347 1.568 1.45 1.568 3.42v.096l-.086.044c-.862.423-1.52.125-2.156-.164-.385-.174-.75-.342-1.16-.352a1.421 1.421 0 00-1.024 1.185c-.063.506.15.964.553 1.2l.236.14-.24.13c-.472.26-.693.75-.568 1.257.106.414.495.905 1.25.91h.17l-.02.169c-.087.809.471 1.348.972 1.56.495.212 1.25.241 1.76-.366l.12-.144.116.144a1.16 1.16 0 002.03-1.006l-.067-.256.26.077c.447.13.928-.029 1.25-.424.28-.342.467-.925.155-1.55-.289-.295-.664-.449-1.054-.608-.645-.265-1.313-.54-1.597-1.454l-.03-.092.073-.067c1.424-1.354 2.771-1.513 3.555-1.21.457.174.75.526.785.935l.038.467-.308-.356c-.322-.371-.664-.323-.842-.265a.895.895 0 00-.587.785c-.014.395.275.747.813.983l.068.029.019.072c.101.38.414.65.784.713a.908.908 0 01-.053-.675c.11-.221.217-.38.318-.534.308-.463.553-.824.327-1.922l-.043-.217.216.034c1.13.163 1.77.66 1.91 1.469l.02.12-.111.049a3.03 3.03 0 00-1.266 1.054c-.322.439-.38.925-.437 1.392-.073.593-.145 1.205-.785 1.59.496.544 1.275.77 1.987.564l.284-.082-.096.28a.47.47 0 00.053.413l.091.145-.149.077a2.956 2.956 0 01-3.401-.51 1.047 1.047 0 00-.582.765l-.03.169-.163-.048c-1.092-.313-1.515-.101-2.285.28a.56.56 0 01-.14.081zm5.272-7.466c.174 1.06-.11 1.483-.413 1.931-.097.15-.203.299-.29.482a.589.589 0 00.184.602l.236.207c.062-.351.173-.713.423-1.05.322-.472.76-.852 1.275-1.103-.145-.564-.607-.91-1.415-1.07zm-13.86-6.498c.25 0 .505.033.775.134a3.295 3.295 0 011.423.91c.487-.298.689-.847.607-1.661-.953.486-1.444.332-1.963.168-.168-.052-.347-.11-.549-.144-.206-.015-.428.135-.52.352l-.11.255c.106-.005.222-.015.337-.015zm23.896-2.01c1.058.13 1.381.526 1.722.95.116.14.231.284.38.424a.579.579 0 00.626-.015l.245-.164a2.43 2.43 0 01-.861-.698 3.293 3.293 0 01-.683-1.537c-.568-.029-1.039.318-1.429 1.04zm.216-3.636c.289.77.717 1.17 1.29 1.219a3.457 3.457 0 01.943-1.484c.274-.28.587-.443.899-.559l-.226-.188a.584.584 0 00-.644-.067c-.154.11-.294.24-.429.37-.389.367-.76.714-1.799.714-.01-.005-.019-.005-.034-.005zm-21.687-5.612c.413 0 .86.101 1.491.621.26-.775.183-1.353-.23-1.758a3.506 3.506 0 01-1.714.544c-.331.039-.663.02-.99-.019l.057.178c.072.227.221.473.428.473.217.01.4-.005.578-.015.125-.014.25-.024.38-.024zm15.669-4.456c-.173.612.192 1.18.601 1.595.419-.973.89-1.166 1.391-1.368.163-.068.336-.135.514-.236a.567.567 0 00.183-.598l-.082-.28c-.24.247-.529.473-.914.613-.49.197-1.02.274-1.549.221l.683.434-.827-.38zm-2.867-5.125c.577.472.563 1.088.553 1.686-.01.472-.02.963.236 1.435.25.506.63.93 1.101 1.229l.76.481c.005-.004.005-.014.01-.019l.048-.11.12.019a2.903 2.903 0 001.631-.169c.515-.183.833-.554 1.141-.915.389-.453.793-.92 1.534-.887a1.953 1.953 0 00-1.323-1.58l-.284-.096.241-.178a.46.46 0 00.188-.361l.004-.17.169.02a2.948 2.948 0 012.521 2.317c.332.053.678-.062.914-.308l.12-.125.111.13c.726.857 1.188.92 2.03 1.03.058.01.12.015.183.025-.222-.25-.448-.52-.683-.805-.785-.954-1.598-1.946-2.594-2.346-.413-.168-.76-.173-1.12-.173-.241 0-.491-.005-.775-.053a3.152 3.152 0 01-.755-.222l-.048-.019-.025-.043c-.283-.501-.601-.867-.861-1.161-.149-.174-.274-.313-.346-.439-.14.039-.318.058-.544.082-.365.039-.87.092-1.424.275l-.048.014-.048-.014a2.805 2.805 0 01-.717-.342c-.245-.16-.433-.328-.616-.487-.274-.24-.529-.472-.952-.621-1.01-.366-2.27-.178-3.498.005-.365.053-.712.106-1.049.144.044.03.087.063.13.092.708.491 1.093.756 2.223.602l.168-.024.005.173c.01.342.188.66.472.843a2.952 2.952 0 013.435-.024l.14.097-.111.13a.464.464 0 00-.106.4l.058.293-.275-.12a1.96 1.96 0 00-2.044.289z" fill="#860142"/><path fill-rule="evenodd" clip-rule="evenodd" d="M103.156 14.962a1.775 1.775 0 01-1.804 1.6c-.057.563.448.92 1.299.963.039 1.893.611 3.352 1.718 4.383a4.405 4.405 0 00-2.406 3.854c-.846-.304-1.202 0-1.443.587.9.164 1.318.853 1.265 2.067-.962.13-1.785-.11-2.165-.963a1.054 1.054 0 00-.192 1.647 4.572 4.572 0 00-3.18 3.14c-1.501-1.382-3.045-1.902-4.633-1.56a1.362 1.362 0 00-1.054-1.055c-.144 1.127-.65 1.758-1.515 1.898a1.85 1.85 0 01.53-2.283 1.54 1.54 0 00-1.593.077c-1.015-1.643-1.987-2.409-4.066-2.409a5.596 5.596 0 00-.178-4.86c.515-.255.813-.8.756-1.368-.847.419-1.636.207-2.358-.631.886-.78 1.747-.867 2.435-.313a1.037 1.037 0 00-.558-1.35h-.053c.943-.982 1.356-2.509 1.246-4.585a5.398 5.398 0 004.253-1.31c.423.25.938.313 1.41.173a1.446 1.446 0 01.023-2.042.71.71 0 01.063-.058l.067-.058c.871.612.991 1.156.809 1.927.62.25 1.082-.106 1.351-.963a7.321 7.321 0 004.248-.579c.578 1.71 1.598 2.558 2.954 3.372a1.388 1.388 0 00.414 1.48c.654-.81 1.044-.964 2.348-.786l.009.005z" fill="#007982"/><path d="M96.325 32.52l-.183-.169c-1.453-1.343-2.968-1.854-4.498-1.522l-.15.034-.033-.154a1.213 1.213 0 00-.775-.891c-.182 1.088-.726 1.714-1.616 1.854l-.11.02-.049-.102a2.016 2.016 0 01.385-2.307 1.365 1.365 0 00-1.222.164l-.135.091-.086-.135c-.938-1.512-1.843-2.336-3.935-2.336h-.236l.096-.217a5.415 5.415 0 00-.173-4.725l-.072-.14.144-.072c.385-.193.64-.573.673-.997-.832.318-1.611.062-2.323-.766l-.101-.116.115-.101c.856-.756 1.722-.91 2.449-.448a.86.86 0 00-.058-.477.867.867 0 00-.452-.462h-.38l.25-.26c.91-.945 1.314-2.452 1.203-4.47l-.01-.184.183.024a5.258 5.258 0 004.133-1.271l.081-.073.097.058c.317.188.692.26 1.053.212a1.588 1.588 0 01-.284-.934 1.6 1.6 0 01.549-1.19l.159-.135.096.067c.914.641 1.039 1.248.9 1.951a.617.617 0 00.437-.029c.24-.115.443-.419.592-.881l.038-.125.13.019a7.173 7.173 0 004.157-.564l.154-.072.053.164c.548 1.623 1.51 2.461 2.887 3.29l.105.063-.038.115c-.14.424-.039.882.255 1.204.64-.751 1.126-.881 2.381-.713l.053.015.092.048v.11a1.942 1.942 0 01-1.805 1.735c.01.11.053.207.126.294.182.212.543.342 1.024.366l.145.01.004.144c.039 1.84.597 3.276 1.67 4.273l.163.15-.197.1a4.232 4.232 0 00-2.319 3.72l-.005.216-.202-.072c-.673-.241-.967-.073-1.173.332.851.236 1.255.968 1.202 2.182l-.005.13-.125.02c-1.063.144-1.837-.16-2.242-.882a.901.901 0 00-.024 1.305l.178.188-.25.068a4.442 4.442 0 00-3.074 3.034l-.072.222zm-3.772-2.1c1.237 0 2.449.515 3.623 1.541a4.756 4.756 0 012.992-2.948c-.01-.014-.02-.024-.024-.038a1.214 1.214 0 01.4-1.657l.149-.092.072.159c.308.684.938.983 1.876.891.014-1.055-.361-1.633-1.145-1.777l-.188-.034.073-.178c.197-.477.538-.983 1.438-.737a4.53 4.53 0 012.295-3.68c-1.006-1.022-1.549-2.433-1.607-4.206-.505-.048-.88-.207-1.102-.462a.856.856 0 01-.202-.66l.015-.14.139.005a1.65 1.65 0 001.626-1.315c-1.164-.145-1.486.034-2.064.746l-.101.126-.12-.101a1.539 1.539 0 01-.495-1.523c-1.338-.814-2.29-1.662-2.863-3.232a7.446 7.446 0 01-4.05.54c-.174.481-.41.8-.713.939-.24.116-.51.11-.803-.005l-.12-.048.028-.13c.16-.66.097-1.137-.65-1.696l-.028.03a1.293 1.293 0 00-.024 1.825l.178.183-.245.072a1.923 1.923 0 01-1.434-.135 5.547 5.547 0 01-4.109 1.296c.077 1.908-.308 3.367-1.145 4.35a1.182 1.182 0 01.49 1.47l-.076.187-.159-.13c-.76-.612-1.549-.25-2.117.207.65.689 1.323.848 2.07.477l.196-.096.024.221a1.537 1.537 0 01-.702 1.445 5.697 5.697 0 01.202 4.649c2.006.058 2.973.91 3.887 2.35a1.68 1.68 0 011.617 0l.207.111-.188.145a1.708 1.708 0 00-.534 1.99c.727-.165 1.145-.733 1.275-1.745l.02-.163.163.034c.539.11.972.505 1.135 1.025a3.96 3.96 0 01.818-.086z" fill="#860142"/><path fill-rule="evenodd" clip-rule="evenodd" d="M100.833 21.768c1.775-1.079-.833-4.08-.096-5.163-1.227.298-2.887-3.42-4.638-2.197-.443-2.028-3.916-.303-4.705-1.349-.111 1.258-4.143 1.445-3.55 3.502-2.142-.154-1.718 3.854-2.926 4.206 1.188.553.27 4.335 2.343 4.335-.847 1.898 2.973 2.577 2.988 3.887.837-.963 4.18 1.253 4.93-.766 1.598 1.445 3.624-2.076 4.812-1.623-.597-1.166 2.478-3.536.851-4.817l-.009-.015z" fill="#fff"/><path d="M90.1 29.394l-.005-.405c-.005-.467-.655-.886-1.343-1.334-.962-.622-2.044-1.315-1.707-2.418-1.136-.145-1.338-1.421-1.516-2.558-.13-.814-.25-1.58-.673-1.782l-.37-.174.394-.115c.418-.12.635-.872.856-1.667.317-1.118.702-2.49 1.92-2.548-.198-1.19 1.072-1.778 2.107-2.255.74-.342 1.443-.67 1.482-1.103l.033-.4.24.318c.285.376 1.054.328 1.872.275 1.14-.072 2.425-.154 2.805.93 1.058-.564 2.045.4 2.916 1.252.596.583 1.164 1.137 1.592 1.03l.39-.096-.227.333c-.264.39 0 1.146.284 1.95.4 1.142.852 2.424-.067 3.146.837.814.192 1.942-.375 2.944-.404.712-.79 1.382-.573 1.801l.183.357-.375-.145c-.414-.159-1.03.328-1.684.838-.91.713-2.025 1.59-3.012.886-.548 1.075-1.915.805-3.021.588-.803-.159-1.559-.303-1.852.034l-.274.318zm.894-.814c.38 0 .823.086 1.28.178 1.164.226 2.367.462 2.762-.588l.077-.212.168.155c.832.756 1.823-.02 2.78-.771.612-.477 1.194-.95 1.709-.935-.077-.525.283-1.16.663-1.83.563-.988 1.145-2.014.313-2.669l-.033-.034-.092-.134.13-.102c.924-.563.51-1.748.106-2.895-.265-.746-.515-1.46-.366-1.975-.51-.062-1.039-.583-1.597-1.127-.88-.862-1.79-1.748-2.709-1.108l-.187.13-.048-.226c-.226-1.045-1.405-.968-2.54-.896-.77.048-1.501.096-1.934-.203-.222.458-.886.767-1.583 1.09-1.083.5-2.204 1.016-1.896 2.085l.063.212-.222-.015c-1.12-.077-1.472 1.137-1.804 2.322-.207.742-.409 1.445-.813 1.754.385.366.5 1.093.616 1.854.178 1.137.36 2.308 1.429 2.308h.236l-.097.216c-.437.978.558 1.619 1.516 2.236.644.414 1.26.814 1.433 1.31.178-.097.395-.13.64-.13z" fill="#860142"/><path fill-rule="evenodd" clip-rule="evenodd" d="M99.904 6.575c-.668.313-.962 1.185-1.217 1.836.347.226.77.293 1.17.188a1.34 1.34 0 00.48-.28c.549-.482.597-1.47 1.232-1.296-.592-.481-1.116-.65-1.578-.481l-.077.029-.01.004z" fill="#FBA407"/><path d="M99.48 8.8c-.307 0-.615-.09-.875-.26l-.106-.067.102-.265c.25-.645.562-1.45 1.236-1.768l.101-.038c.505-.188 1.087-.015 1.727.506l.568.462-.703-.193c-.245-.067-.356.102-.577.52-.13.251-.279.535-.515.743-.154.14-.336.245-.534.308a1.82 1.82 0 01-.423.053zm-.6-.457c.288.15.62.193.938.106a1.12 1.12 0 00.418-.246c.198-.173.323-.419.448-.655.13-.245.264-.51.481-.636-.424-.274-.794-.351-1.121-.23l-.077.028h.005c-.563.265-.852 1.007-1.083 1.604l-.01.03z" fill="#860142"/><path fill-rule="evenodd" clip-rule="evenodd" d="M98.653 8.4a1.466 1.466 0 01-.601-.187 1.397 1.397 0 01-.433-.39 1.299 1.299 0 01-.197-.51c-.125-.733.438-1.523-.169-1.778.785 0 1.304.188 1.55.626l.028.043c.347.66.053 1.537-.178 2.197z" fill="#FBA407"/><path d="M98.76 8.565l-.121-.01a1.622 1.622 0 01-.664-.207 1.538 1.538 0 01-.481-.434 1.426 1.426 0 01-.226-.578c-.053-.308.005-.621.058-.896.091-.476.1-.664-.135-.76l-.703-.294h.76c.867 0 1.42.23 1.684.703l.025.034c.394.746.062 1.7-.16 2.331l-.038.11zm-1.117-2.862c.092.232.039.52-.014.79-.048.26-.101.53-.058.79.024.164.082.314.173.453.101.135.226.256.38.342.13.072.275.125.419.154.202-.578.447-1.382.144-1.955l-.02-.03c-.168-.317-.5-.49-1.024-.544z" fill="#860142"/><path fill-rule="evenodd" clip-rule="evenodd" d="M98.88 7.708c.072-.246.105-.501.11-.757a1.526 1.526 0 00-.197-.857l-.029-.077c-.149-.482.27-1.046 1.232-1.628.476.992.529 1.661.154 2.008l-.048.044a3.503 3.503 0 00-1.232 1.503c-.346.756-.116.216 0-.236h.01z" fill="#FBA407"/><path d="M98.711 8.483c-.024 0-.048-.01-.082-.02-.14-.052-.1-.173-.043-.35.039-.121.091-.29.135-.444l.038-.116c.048-.197.072-.4.077-.602.02-.28-.043-.544-.178-.78l-.038-.101c-.125-.4.005-1.031 1.294-1.816l.144-.087.072.154c.515 1.07.554 1.787.121 2.187l-.048.043a3.35 3.35 0 00-1.194 1.45c-.173.38-.216.482-.298.482zm1.217-3.873c-.774.496-1.135.978-1.02 1.359l.025.067c.153.265.226.593.206.92 0 .068-.004.14-.01.207a3.66 3.66 0 01.881-.857l.034-.03c.303-.269.264-.832-.116-1.666z" fill="#860142"/><path fill-rule="evenodd" clip-rule="evenodd" d="M105.052 11.08c.385.48 1.063.76.996 1.478a.993.993 0 01-.27.588l-.086.082c-.12.115-.193.082-.337 0a.75.75 0 01-.115-.073 1.069 1.069 0 01-.289-.337c-.361-.645.048-1.108.101-1.748v.01z" fill="#F0A633"/><path d="M105.548 13.454a.54.54 0 01-.27-.096.902.902 0 01-.135-.082 1.22 1.22 0 01-.332-.386c-.274-.486-.153-.886-.038-1.276.053-.178.106-.366.125-.559l.173.005.101-.082c.106.13.236.25.376.37.331.3.707.637.654 1.22a1.128 1.128 0 01-.313.679l-.091.087c-.092.091-.173.12-.25.12zm-.395-2.047c-.024.1-.053.197-.082.294-.11.37-.197.664.015 1.04a.843.843 0 00.341.347c.039.02.101.058.121.058 0 0 .014-.005.038-.034l.087-.082a.871.871 0 00.221-.491c.038-.429-.236-.675-.553-.959a3.06 3.06 0 01-.188-.173z" fill="#860142"/><path fill-rule="evenodd" clip-rule="evenodd" d="M108.425 11.648c-.111.89-.626 2.268-2.512 1.55.635-1.647 1.256-1.603 2.512-1.55z" fill="#F0A633"/><path d="M106.866 13.55c-.303 0-.64-.072-1.006-.212l-.144-.053.058-.144c.668-1.734 1.361-1.705 2.622-1.652l.168.004.019.169c-.057.458-.25 1.281-.899 1.672a1.55 1.55 0 01-.818.216zm-.751-.443c.578.193 1.049.183 1.405-.034.472-.284.654-.871.726-1.28-1.092-.044-1.587-.015-2.131 1.314z" fill="#860142"/><path fill-rule="evenodd" clip-rule="evenodd" d="M107.313 15.145c-.197-.592-.053-1.306-.693-1.643a1 1 0 00-.635-.096h-.115c-.159.038-.173.116-.193.275a.815.815 0 000 .14c.015.149.058.293.126.428.341.655.962.564 1.515.872l-.005.024z" fill="#F0A633"/><path d="M107.352 15.704l-.174-.487a2.503 2.503 0 00-.471-.168c-.385-.116-.784-.236-1.039-.728a1.355 1.355 0 01-.14-.486.949.949 0 010-.169c.02-.154.044-.342.308-.41l.154-.004c.221-.043.481-.005.707.115.52.275.592.771.659 1.205.024.144.044.298.082.438l.058.034-.144.66zm-1.193-2.163a.786.786 0 00-.15.014h-.144c-.024.01-.024.01-.038.14a.376.376 0 000 .106c.014.13.048.255.11.376.197.375.486.462.857.573.096.029.192.058.288.091-.014-.077-.024-.154-.038-.23-.063-.42-.116-.781-.496-.979a.906.906 0 00-.389-.091z" fill="#860142"/><path fill-rule="evenodd" clip-rule="evenodd" d="M109.449 22.833c-.423-.612-1.332-.766-2.016-.882a1.432 1.432 0 00-.12.617c.005.197.053.39.14.564.081.168.197.317.341.438.582.482 1.549.332 1.487.987.38-.67.447-1.213.197-1.637l-.029-.087z" fill="#F0A633"/><path d="M109.059 25.256l.068-.718c.024-.245-.144-.323-.587-.457-.274-.087-.592-.183-.847-.395a1.41 1.41 0 01-.38-.492 1.49 1.49 0 01-.154-.626 1.61 1.61 0 01.135-.684l.048-.11.12.018c.698.12 1.655.28 2.117.945l.019.038.029.087c.265.443.197 1.045-.207 1.763l-.361.63zm-1.529-3.136c-.048.14-.068.289-.063.438.005.174.048.342.125.501.072.15.173.285.303.386.212.173.481.26.741.342.255.077.529.164.683.351.198-.462.207-.838.029-1.141l-.034-.092c-.37-.515-1.159-.674-1.784-.785z" fill="#860142"/><path fill-rule="evenodd" clip-rule="evenodd" d="M107.438 21.927c-.019-.212.01-.424.082-.626.067-.183.173-.347.308-.482.139-.13.303-.226.481-.289.698-.25 1.578.169 1.722-.481.154.77.039 1.315-.346 1.637l-.043.034c-.592.443-1.501.309-2.189.207h-.015z" fill="#F0A633"/><path d="M108.497 22.178c-.371 0-.746-.053-1.064-.101h-.139l-.01-.14c-.019-.236.01-.472.092-.694.077-.202.192-.385.341-.54.159-.148.342-.254.539-.327.294-.106.606-.1.89-.1.481.004.678-.015.731-.27l.159-.713.144.717c.164.824.029 1.426-.399 1.787l-.048.039c-.346.265-.789.342-1.236.342zm-.91-.386c.655.092 1.458.184 1.963-.197l.039-.034c.274-.23.389-.592.346-1.103-.212.14-.51.135-.794.13-.264-.005-.539-.005-.784.082a1.21 1.21 0 00-.428.255c-.115.116-.207.26-.269.424a1.36 1.36 0 00-.073.444z" fill="#860142"/><path fill-rule="evenodd" clip-rule="evenodd" d="M108.915 21.995c.298-.034.577-.159.804-.352l.072-.038c.481-.232 1.077.082 1.813.93-.89.64-1.539.804-1.948.481l-.048-.038a3.17 3.17 0 00-1.236-.805c-1.415-.544-.698 0 .538-.202l.005.024z" fill="#F0A633"/><path d="M110.142 23.33a.914.914 0 01-.582-.198l-.048-.039a3.083 3.083 0 00-1.193-.78c-.226-.087-.4-.145-.515-.183-.183-.03-.313-.077-.347-.135l-.052-.097.072-.081c.043-.049.077-.092.399.01.217.033.582.057 1.006-.015l.149-.024.004.024a1.34 1.34 0 00.583-.294l.101-.058c.553-.27 1.207.048 2.001.964l.111.13-.14.096c-.621.458-1.135.68-1.549.68zm-1.419-1.181c.37.173.712.42.996.723l.033.024c.323.255.871.125 1.622-.39-.631-.69-1.141-.945-1.516-.766l-.067.033a1.616 1.616 0 01-.857.371l-.144.02-.005-.02a.27.27 0 00-.062.005z" fill="#860142"/><path fill-rule="evenodd" clip-rule="evenodd" d="M96.729 37.058c.385-.631.159-1.527 0-2.202a1.4 1.4 0 00-1.068.482c-.11.145-.192.308-.24.482-.178.718.322 1.55-.299 1.758.76.082 1.29-.077 1.573-.482l.049-.072-.015.034z" fill="#FBA407"/><path d="M95.733 38.984l.602-1.396c-.318.149-.727.192-1.227.14l-.703-.078.67-.221c.24-.082.24-.27.187-.752-.03-.28-.068-.592.01-.896.052-.197.144-.38.269-.54a1.538 1.538 0 011.174-.539h.139l.039.174c.091.395.207.876.202 1.339l.471-.713-.548 1.271a1.526 1.526 0 01-.16.367l-1.125 1.844zm.876-3.974a1.24 1.24 0 00-.832.424c-.097.12-.169.265-.207.42-.063.25-.034.52 0 .785.028.274.062.578-.048.8.5-.006.851-.15 1.053-.44l.072-.105c.265-.53.106-1.267-.038-1.884z" fill="#860142"/><path fill-rule="evenodd" clip-rule="evenodd" d="M96.729 34.837c.183-.091.38-.144.582-.154.193-.014.39.014.573.082.173.072.327.178.452.313.51.54.481 1.512 1.13 1.387-.64.453-1.188.569-1.64.342h-.043c-.645-.361-.89-1.252-1.073-1.927l.019-.043z" fill="#FBA407"/><path d="M98.307 37.072a1.24 1.24 0 01-.515-.11h-.048l-.034-.02c-.707-.395-.962-1.334-1.144-2.023l-.015-.053.063-.145.048-.024c.202-.1.418-.159.644-.168.212-.02.433.014.635.091.198.082.37.203.51.352.217.226.342.52.448.776.192.448.284.616.539.563l.702-.135-.582.414c-.457.318-.876.482-1.251.482zm-.481-.424l.072.015c.318.159.707.115 1.16-.125-.212-.14-.328-.415-.438-.675-.106-.246-.212-.496-.39-.689a1.14 1.14 0 00-.4-.274 1.341 1.341 0 00-.938.024c.16.616.39 1.397.934 1.724z" fill="#860142"/><path fill-rule="evenodd" clip-rule="evenodd" d="M96.955 35.613c.077.212.173.414.294.607.154.26.38.467.65.602l.062.043c.404.337.36 1.021-.116 2.043-.962-.56-1.366-1.084-1.246-1.58v-.068c.154-.352.236-.727.24-1.112.03-.887-.403-1.927.102-.535h.014z" fill="#FBA407"/><path d="M97.913 39.124l-.145-.086c-1.03-.598-1.457-1.17-1.318-1.749l-.005-.063.015-.029a2.73 2.73 0 00.226-1.054c.014-.43-.082-.892-.125-1.09-.02-.095-.048-.23.091-.269.14-.038.173.048.26.29.034.09.077.216.14.385l.052.1c.073.203.164.396.28.579.144.236.346.424.586.544l.082.053c.476.4.452 1.127-.063 2.235l-.076.154zm-1.16-1.835v.034c-.1.433.246.881 1.025 1.358.375-.862.404-1.435.087-1.705l-.053-.034a1.695 1.695 0 01-.693-.65 3.13 3.13 0 01-.12-.212v.063c-.01.4-.092.785-.246 1.146z" fill="#860142"/><path fill-rule="evenodd" clip-rule="evenodd" d="M79.299 28.637c.712.207 1.515-.24 2.122-.578a1.36 1.36 0 00-.775-.91 1.292 1.292 0 00-.539-.101c-.74 0-1.414.713-1.775.164.12.76.409 1.228.87 1.401h.078l.019.024z" fill="#FBA407"/><path d="M79.679 28.84c-.144 0-.284-.02-.423-.058l-.106-.029c-.515-.193-.837-.703-.967-1.522l-.11-.708.394.597c.14.207.317.164.76-.01.264-.106.563-.221.885-.221.212-.005.409.034.601.115.207.087.39.227.54.39.153.179.269.396.326.622l.03.116-.107.057c-.514.285-1.173.65-1.823.65zm-.294-.342c.602.144 1.304-.217 1.848-.516-.053-.14-.13-.27-.226-.385a1.229 1.229 0 00-.424-.313 1.139 1.139 0 00-.471-.087c-.27 0-.524.101-.78.202-.254.102-.529.207-.77.16.13.471.352.77.67.9h.12l.033.039z" fill="#860142"/><path fill-rule="evenodd" clip-rule="evenodd" d="M81.425 28.083a1.386 1.386 0 01.4 1.113 1.235 1.235 0 01-.188.516c-.385.63-1.332.857-1.044 1.445-.601-.482-.856-.997-.755-1.494v-.053c.178-.717.962-1.185 1.573-1.531l.014.004z" fill="#FBA407"/><path d="M81.036 31.706l-.54-.434c-.812-.65-.89-1.252-.807-1.642l-.005-.024c.188-.78.919-1.253 1.65-1.667l.058-.034.14.063c.168.164.297.37.37.597.072.207.096.424.072.64-.024.208-.101.41-.212.584-.163.265-.413.462-.63.636-.38.298-.515.433-.404.66l.308.62zm.35-3.44c-.639.367-1.25.78-1.4 1.378l.006.015c-.087.443.14.828.418 1.117.077-.236.318-.424.534-.597.212-.164.428-.337.563-.559.092-.14.144-.294.169-.453a1.246 1.246 0 00-.063-.51 1.182 1.182 0 00-.226-.39z" fill="#860142"/><path fill-rule="evenodd" clip-rule="evenodd" d="M80.237 28.956a2.3 2.3 0 00-.414.78l-.028.072c-.222.482-.89.612-1.997.414.289-1.06.693-1.599 1.203-1.613h.067c.438.062.89.029 1.313-.102 1.728-.481.563-.53-.144.448z" fill="#FBA407"/><path d="M78.669 30.463c-.26 0-.558-.029-.9-.091l-.163-.03.043-.163c.308-1.132.76-1.71 1.347-1.73h.072c.438.058.866.03 1.27-.096.193-.053.347-.1.467-.144.235-.15.438-.217.524-.188l.106.038v.116c0 .072-.005.15-.496.318-.177.116-.394.29-.577.544l-.005.005a2.201 2.201 0 00-.385.728l-.033.081c-.188.415-.602.612-1.27.612zm-.674-.366c.929.145 1.487.024 1.66-.356l.024-.063a2.46 2.46 0 01.433-.819c.038-.053.082-.106.125-.154-.385.092-.799.11-1.193.053H79c-.496.014-.813.703-1.006 1.34z" fill="#860142"/><path fill-rule="evenodd" clip-rule="evenodd" d="M82.104 10.005c.033.737.716 1.358 1.231 1.821.183-.12.332-.29.433-.482.101-.168.164-.356.183-.549.02-.183-.01-.37-.077-.544-.25-.699-1.13-1.113-.726-1.633-.679.361-1.025.785-1.044 1.276v.111z" fill="#FBA407"/><path d="M83.32 12.019l-.09-.082c-.525-.472-1.247-1.118-1.285-1.927v-.116c.02-.554.4-1.026 1.126-1.411l.635-.337-.443.568c-.159.202-.053.361.26.732.178.212.385.458.49.752.078.188.106.404.087.612a1.508 1.508 0 01-.202.611 1.49 1.49 0 01-.48.53l-.097.068zM82.259 10c.029.636.616 1.2 1.087 1.624.115-.097.216-.217.289-.357.091-.154.149-.322.163-.491a1.056 1.056 0 00-.067-.472c-.092-.25-.265-.463-.438-.665-.178-.212-.37-.443-.4-.694-.413.285-.62.598-.634.95V10z" fill="#860142"/><path fill-rule="evenodd" clip-rule="evenodd" d="M83.316 11.845a1.41 1.41 0 01-.924.732c-.178.044-.37.044-.548 0-.722-.164-1.241-.963-1.703-.525.274-.737.664-1.132 1.164-1.2h.053c.736-.057 1.443.55 1.958 1.003v-.01z" fill="#FBA407"/><path d="M82.118 12.76c-.106 0-.207-.014-.313-.038-.303-.068-.572-.241-.808-.39-.4-.256-.577-.342-.755-.174l-.481.458.23-.622c.294-.785.727-1.223 1.29-1.3h.072c.727-.058 1.415.477 1.905.905l.202-.4v.988l-.12-.106c-.091.135-.207.26-.337.361-.168.135-.37.232-.582.28a1.047 1.047 0 01-.303.038zm-1.684-.992c.25 0 .5.159.732.308.226.145.457.29.712.352a.996.996 0 00.476 0c.168-.039.332-.116.467-.222.115-.091.216-.197.293-.322-.457-.4-1.102-.925-1.746-.877H81.3c-.35.048-.64.299-.875.761h.01z" fill="#860142"/><path fill-rule="evenodd" clip-rule="evenodd" d="M82.777 11.397a2.948 2.948 0 00-.668-.404 1.549 1.549 0 00-.871-.14h-.077c-.525-.053-.866-.646-1.04-1.758 1.098-.068 1.737.14 1.925.621a.138.138 0 010 .063c.14.636.452 1.223.904 1.69.558.603.236.26-.182-.067l.01-.005z" fill="#FBA407"/><path d="M83.258 11.956c-.067 0-.14-.058-.221-.135a16.553 16.553 0 00-.36-.303l-.188-.15h.004a3.017 3.017 0 00-.442-.24c-.25-.12-.52-.164-.79-.13h-.095c-.621-.063-1.001-.68-1.194-1.889l-.024-.168.169-.01c1.183-.072 1.862.164 2.078.718.01.043.015.082.015.11a3.35 3.35 0 00.86 1.59c.405.434.405.434.299.544-.043.049-.077.063-.11.063zm-1.813-1.272c.245 0 .5.058.73.169.059.024.116.053.17.082a3.729 3.729 0 01-.448-1.123l-.01-.033.01-.034c-.145-.361-.683-.535-1.593-.506.169.925.462 1.416.876 1.46h.063c.062-.01.134-.015.202-.015z" fill="#860142"/><path fill-rule="evenodd" clip-rule="evenodd" d="M106.755 29.206c-.351.51-.409 1.238-1.116 1.387-.217.039-.443.01-.64-.086l-.106-.053c-.144-.082-.134-.164-.106-.323.01-.043.02-.092.034-.135.053-.14.135-.27.241-.376.51-.53 1.068-.28 1.693-.414z" fill="#F0A633"/><path d="M105.451 30.762c-.178 0-.356-.039-.519-.12l-.111-.053c-.25-.145-.216-.333-.188-.487a1.4 1.4 0 01.039-.154 1.26 1.26 0 01.279-.439c.385-.4.803-.404 1.203-.409.182 0 .375-.005.567-.048l.38-.082-.221.318c-.096.144-.173.313-.25.472-.183.4-.39.857-.962.978a.832.832 0 01-.217.024zm1.015-1.363c-.105.005-.206.01-.308.01-.384.004-.687.009-.986.317a.898.898 0 00-.207.323 1.216 1.216 0 00-.028.11c-.025.13-.025.13.028.16l.101.048a.884.884 0 00.544.072c.414-.087.563-.419.741-.804.038-.077.072-.16.115-.236z" fill="#860142"/><path fill-rule="evenodd" clip-rule="evenodd" d="M107.217 32.597c-.881.154-2.348.072-2.218-1.927 1.761.125 1.896.728 2.218 1.927z" fill="#F0A633"/><path d="M106.659 32.8c-.424 0-.914-.092-1.28-.42-.404-.36-.582-.944-.534-1.72l.01-.153.154.01c1.842.13 2.03.828 2.343 1.984l.057.217-.168.028a3.25 3.25 0 01-.582.053zm-1.516-1.966c-.014.598.135 1.04.438 1.315.409.366 1.025.371 1.439.318-.279-1.04-.448-1.503-1.877-1.633z" fill="#860142"/><path fill-rule="evenodd" clip-rule="evenodd" d="M103.556 32.559c.481-.357 1.227-.434 1.361-1.142a1.002 1.002 0 00-.096-.636.441.441 0 00-.058-.106c-.081-.144-.163-.135-.322-.106l-.135.039a1.219 1.219 0 00-.37.245c-.52.52-.26 1.08-.38 1.706z" fill="#F0A633"/><path d="M103.33 32.915l.072-.39c.038-.193.033-.38.033-.564-.004-.404-.004-.823.39-1.218.125-.12.265-.212.419-.28l.154-.043c.168-.029.36-.068.5.178a.499.499 0 01.067.125c.111.208.15.473.106.718-.11.569-.558.785-.957.978-.169.082-.332.159-.467.26l-.317.236zm1.236-2.21a.611.611 0 00-.101.014l-.12.033a1.079 1.079 0 00-.308.207c-.303.304-.298.607-.298.998 0 .096 0 .197-.005.303.077-.043.159-.082.236-.115.38-.184.707-.343.789-.757a.837.837 0 00-.082-.535.48.48 0 00-.044-.086c-.019-.048-.028-.063-.067-.063z" fill="#860142"/><path fill-rule="evenodd" clip-rule="evenodd" d="M89.705 36.253c-.587-.188-1.304-.038-1.645-.674a1.043 1.043 0 01-.106-.636.194.194 0 01.024-.116c.038-.163.115-.178.274-.197h.14c.149.01.293.053.428.12.659.337.577.964.885 1.503z" fill="#FBA407"/><path d="M89.859 36.841l-.26-.462a3.532 3.532 0 00-.462-.082c-.437-.063-.938-.13-1.212-.646a1.207 1.207 0 01-.12-.732.314.314 0 01.029-.144c.067-.256.245-.28.399-.3h.159c.183.015.346.059.5.14.496.256.62.656.74 1.041.049.159.102.318.179.467l.053.015v.703h-.005zm-1.477-2.062h-.13c-.11.015-.11.015-.125.077l-.014.039v.02l-.01.043a.874.874 0 00.091.539c.203.376.563.429.987.487.081.01.168.024.25.038-.034-.096-.063-.193-.096-.284-.111-.357-.207-.665-.587-.858a1.06 1.06 0 00-.366-.1z" fill="#860142"/><path fill-rule="evenodd" clip-rule="evenodd" d="M86.597 37.67c-.404-.8-.745-2.23 1.217-2.688.39 1.724-.144 2.028-1.217 2.688z" fill="#FBA407"/><path d="M86.535 37.886l-.077-.149c-.207-.41-.51-1.204-.188-1.888.23-.496.74-.838 1.506-1.017l.149-.033.034.149c.409 1.811-.178 2.172-1.246 2.828l-.178.11zm1.164-2.717c-.587.164-.972.434-1.145.81-.231.496-.058 1.084.11 1.469.929-.573 1.319-.872 1.035-2.279z" fill="#860142"/><path fill-rule="evenodd" clip-rule="evenodd" d="M85.577 34.167c.481.381.77 1.055 1.487.964a1.06 1.06 0 00.582-.275l.082-.086c.115-.12.082-.198 0-.338a.616.616 0 00-.072-.12 1.209 1.209 0 00-.342-.284c-.65-.352-1.106.062-1.742.125l.005.014z" fill="#FBA407"/><path d="M86.934 35.29c-.5 0-.808-.342-1.087-.64a2.87 2.87 0 00-.366-.362l-.038-.029-.077-.24.192-.02c.192-.02.375-.077.553-.13.385-.12.784-.241 1.275.024.15.082.28.188.39.323a.726.726 0 01.091.154c.068.115.173.294-.029.506l-.081.086c-.193.178-.424.29-.674.323-.053.005-.1.005-.149.005zm-1.04-1.04c.063.062.121.13.179.192.289.318.534.588.967.535a.87.87 0 00.495-.236l.077-.082a.139.139 0 00.034-.044.46.46 0 00-.053-.11.455.455 0 00-.063-.106.949.949 0 00-.293-.241c-.38-.207-.669-.116-1.04 0a2.794 2.794 0 01-.302.091z" fill="#860142"/><path fill-rule="evenodd" clip-rule="evenodd" d="M78.101 22.029c.029-.617-.303-1.272.221-1.768.164-.15.37-.241.587-.265h.12c.164 0 .203.067.26.216.02.044.034.087.039.135a.984.984 0 010 .444c-.154.722-.76.804-1.222 1.247l-.005-.01z" fill="#FBA407"/><path d="M78.063 22.289l-.111-.222-.005-.053a2.864 2.864 0 00-.038-.53c-.053-.443-.12-.939.307-1.344.193-.173.424-.28.674-.308h.14c.283 0 .35.183.404.318.024.048.038.11.048.173.038.15.038.328-.005.497-.115.544-.467.77-.808.987-.154.101-.318.202-.457.337l-.15.145zm.846-2.144a.858.858 0 00-.48.227c-.309.293-.265.655-.213 1.079.01.091.025.178.03.27.086-.063.173-.116.254-.17.328-.206.582-.37.674-.794a.825.825 0 000-.376.278.278 0 00-.029-.106c-.048-.13-.048-.13-.12-.13h-.116z" fill="#860142"/><path fill-rule="evenodd" clip-rule="evenodd" d="M75.931 19.389c.664-.598 1.958-1.3 2.887.482-1.564.809-1.997.385-2.887-.482z" fill="#FBA407"/><path d="M77.452 20.453c-.645 0-1.054-.4-1.626-.953l-.12-.116.12-.11c.341-.31 1.029-.805 1.775-.67.534.096.99.5 1.352 1.194l.072.135-.14.072c-.606.313-1.058.448-1.433.448zm-1.295-1.06c.77.742 1.165 1.041 2.45.41-.304-.525-.66-.824-1.06-.896-.538-.096-1.062.222-1.39.487z" fill="#860142"/><path fill-rule="evenodd" clip-rule="evenodd" d="M79.063 17.491c-.24.568-.818 1.016-.558 1.69a.987.987 0 00.414.482l.106.058c.144.077.207.03.327-.082a.626.626 0 00.091-.1 1.04 1.04 0 00.188-.405c.173-.718-.342-1.05-.568-1.653v.01z" fill="#FBA407"/><path d="M79.15 19.91a.392.392 0 01-.198-.059l-.105-.057a1.157 1.157 0 01-.481-.56c-.212-.549.057-.972.298-1.348a2.75 2.75 0 00.245-.434v-.823l.298.794c.068.184.174.347.27.506.212.342.433.694.303 1.238a1.133 1.133 0 01-.327.583c-.077.077-.169.16-.303.16zm-.092-2.077c-.043.077-.091.15-.14.222-.23.356-.427.67-.273 1.069a.844.844 0 00.35.405l.102.052c.034.02.048.02.048.02.02-.005.077-.058.101-.077a.363.363 0 00.072-.077.884.884 0 00.164-.347c.1-.424-.058-.68-.265-1.007-.053-.087-.106-.169-.159-.26z" fill="#860142"/><path fill-rule="evenodd" clip-rule="evenodd" d="M87.944 6.912c.573-.23 1.03-.804 1.698-.53.203.087.371.237.482.424l.057.102c.073.149.024.212-.091.327a.616.616 0 01-.101.092 1.18 1.18 0 01-.409.183c-.717.159-1.044-.362-1.64-.598h.004z" fill="#FBA407"/><path d="M89.32 7.693c-.385 0-.664-.183-.938-.361a2.795 2.795 0 00-.5-.28l-.75-.299h.783c.15-.062.294-.154.438-.24.38-.236.808-.501 1.347-.275.231.101.428.275.553.487l.058.1c.13.266-.005.405-.115.511a.674.674 0 01-.12.106c-.14.101-.299.169-.467.207a.895.895 0 01-.289.044zm-1.03-.78c.092.052.179.105.26.163.323.212.583.376.996.284a.965.965 0 00.351-.159c.03-.019.053-.043.078-.067.096-.096.096-.096.067-.159l-.053-.091a.868.868 0 00-.409-.357c-.394-.164-.707.029-1.068.255-.072.039-.144.087-.221.13z" fill="#860142"/><path fill-rule="evenodd" clip-rule="evenodd" d="M89.44 3.854c.823.361 1.997 1.247.77 2.851-1.395-1.079-1.178-1.657-.77-2.851z" fill="#FBA407"/><path d="M90.24 6.917l-.121-.096c-1.468-1.137-1.241-1.792-.832-2.986l.052-.16.164.03c.423.182 1.16.606 1.347 1.339.135.53-.038 1.117-.52 1.743l-.09.13zm-.708-2.851c-.351 1.035-.467 1.517.65 2.418.35-.501.476-.954.37-1.354-.135-.534-.645-.876-1.02-1.064z" fill="#860142"/><path fill-rule="evenodd" clip-rule="evenodd" d="M92.49 5.9c-.615 0-1.26-.322-1.765.194a1 1 0 00-.274.587v.116c0 .168.058.202.207.265a.98.98 0 00.577.043c.726-.14.813-.746 1.265-1.204h-.01z" fill="#FBA407"/><path d="M91.014 7.284c-.087 0-.173-.01-.26-.03a.682.682 0 01-.159-.052c-.168-.073-.298-.145-.298-.405v-.116c.029-.274.14-.505.317-.693.419-.429.929-.357 1.381-.29a3.4 3.4 0 00.5.049h.38l-.26.26c-.139.14-.24.299-.34.453-.222.337-.453.689-1.002.795a1.24 1.24 0 01-.26.029zm.452-1.33c-.231 0-.443.053-.63.246a.866.866 0 00-.231.496v.096c0 .077 0 .077.11.12.039.015.072.03.106.034a.823.823 0 00.376 0c.428-.082.596-.337.808-.66a8.36 8.36 0 01.178-.26 3.458 3.458 0 01-.236-.033c-.168-.015-.332-.039-.481-.039z" fill="#860142"/><path d="M17.064 23.82l-.288-.997c5.61-1.055 9.405-3.805 9.405-9.89 0-8.13-6.37-10.881-13.557-11.079v28.87c0 7.297 1.111 8.776 8.414 9.705v.993a635.96 635.96 0 00-21.038 0v-.992c7.192-.694 7.245-3.329 7.245-9.707v-20.01c0-5.78-.35-8.488-6.778-9.013V.645C5.138.645 9.814.53 14.49.53c7.303 0 17.646 1.17 17.646 10.65.005 8.72-7.572 11.759-15.073 12.64z" fill="#007982"/><path d="M63.177 41.49c-11.219-.116-22.38-.059-33.604-.059V40.43c7.308-.52 7.596-3.328 7.596-9.942V10.65c0-6.377-.875-8.309-7.596-8.95V.645c6.841.12 13.62.12 20.456 0V1.7c-6.605.525-7.539 2.693-7.539 8.95V31.6c0 7.784-.235 8.136 7.655 8.136 9.059 0 11.339-1.816 15.606-9.716l.76.352-3.334 11.117zm82.186-27.125c-3.738 9.041-7.414 18.025-10.983 27.124h-.607L120.668 9.51c-1.558-3.854-3.122-7.813-7.914-7.982V.525c6.019.11 12.037.11 18.061 0v1.002c-2.064 0-5.629.337-5.629 3.126 0 4.297 10.031 26.677 10.646 28.238.722-1.73 10.368-23.382 10.368-27.79 0-3.237-3.849-3.463-6.254-3.574V.525c5.35.11 10.699.11 16.054 0v1.002c-6.124 0-8.689 8.15-10.637 12.838z" fill="#007982"/></svg>