<svg width="164" height="67" viewBox="0 0 164 67" fill="none" xmlns="http://www.w3.org/2000/svg"><path fill-rule="evenodd" clip-rule="evenodd" d="M98.331.545c11.876 0 21.506 9.608 21.506 21.457s-9.63 21.457-21.506 21.457c-11.875 0-21.505-9.608-21.505-21.457 0-11.854 9.63-21.457 21.505-21.457z" fill="#fff"/><path d="M98.33 43.999c-12.158 0-22.05-9.87-22.05-22.002C76.28 9.866 86.171 0 98.33 0s22.052 9.87 22.052 22.002c0 12.131-9.893 21.997-22.051 21.997zm0-42.914c-11.556 0-20.958 9.381-20.958 20.912 0 11.53 9.402 20.912 20.959 20.912s20.964-9.381 20.964-20.912c0-11.53-9.407-20.912-20.964-20.912z" fill="#860142"/><path fill-rule="evenodd" clip-rule="evenodd" d="M102.508 9.724c-.303.727-.718 1.146-1.841 1.055.698-1.474-.091-1.837-.278-2.286-.116-.283-.096-1.01.167-1.201-.627-.207-1.011.409-1.335.923-2.24.43-.794 2.695.506 1.721-.324 1.01-2.281 1.898-3.915-.54.769-1.317 2.094-1.2 3.115-1.862.956-1.145.182-2.8-1.011-2.725.48-.848-.865-2.069-2.2-1.483-.79-1.514-3.47-1.156-3.394.812-1.542-.333-2.605 2.1-.89 2.553a1.472 1.472 0 00-.248 2.73c1.189.253 2.453-.726 3.642.233-.653 2.856-2.736 3.199-3.404 2.351 1.583.44 1.993-2.25-.253-1.852-.48-.368-.86-.646-1.37-.227a.504.504 0 01.399.59v.006c-.07.973-.152 1.514 1.012 2.624-1.012.504-1.872.398-2.413-.172.364-.54.572-1.166.607-1.812.07-1.418-1.401-2.29-.642-3.532a2.232 2.232 0 00-2.418.696.504.504 0 00-.324-.378c.8-1.216 1.715-1.675 3.035-1.418a1.465 1.465 0 000-1.373c1.446-.464 1.3-1.009 1.988-2.094-1.477.606-2.833.929-3.996 2.12-.577.585-.607 1.14-1.011 1.791-.269.278-.567.53-.886.752-1.102.146-1.916.681-2.25.646.086.646.096 1.302.025 1.948a2.551 2.551 0 01-.587.53c-.627.439-1.183.504-1.734 1.105-1.123 1.231-1.326 3.461-1.847 4.965 1.078-.747 1.685-.883 2.07-2.356.424.161.9.08 1.248-.207a2.908 2.908 0 011.255-3.27.668.668 0 00.46.353c-.688.732-1.38 2.16-1.047 3.068 1.209-.827 2.56-.055 3.97-.207a3.539 3.539 0 001.826-.61c.607.504.708 1.276.298 2.321-1.219-1.095-1.714-.676-2.65-.727-.303 0-.506-.303-.602-.605a1.198 1.198 0 00.112 1.57c-.243 2.265 2.528 1.73 2.023.18.895.606.344 2.67-2.469 3.533-1.041-1.12-.131-2.28-.465-3.446-.824-1.247-2.57-.894-2.847.282-1.012-1.01-2.68 0-2.24 1.514-1.665.318-1.933 2.76-.395 3.416-.764 1.373.627 2.71 1.846 1.963 0 1.206 1.638 1.943 2.716.909.586-1.065-.046-2.402 1.219-3.26 2.554 1.453 2.63 3.588 1.623 3.976.88-1.387-1.724-2.523-1.993-.262a1.2 1.2 0 00-.455 1.514.774.774 0 01.724-.464c.92.161 1.315.68 2.74-.122.168 1.11-.1 1.847-.803 2.2a3.265 3.265 0 00-1.518-1.009c-1.34-.504-2.468.677-3.45-.413a2.233 2.233 0 00-.07 2.523.653.653 0 00-.53.232 2.934 2.934 0 01-.451-3.472 1.26 1.26 0 00-1.163-.505c0-1.514-.587-1.796-1.452-2.775.152 1.585-.177 3.805.622 5.263.395.717.92.909 1.426 1.484.178.197.33.414.446.65-.188 1.09 0 1.923-.112 2.231.329.046.936.661 1.973 1.055.146.222.258.46.339.711.237.727.136 1.277.556 1.979.855 1.428 2.938 2.27 4.228 3.204-.404-1.241-.359-1.862-1.659-2.654a1.25 1.25 0 00.162-1.257 2.94 2.94 0 01-2.787-2.165.652.652 0 00.47-.338 2.228 2.228 0 002.206 1.211c-.445-1.398 1.123-1.781 1.386-3.174a3.353 3.353 0 00-.036-1.842c.658-.439 1.432-.308 2.312.389-1.401.843-1.143 1.438-1.462 2.316a.761.761 0 01-.759.399c.35.474.992.62 1.518.353 2.099.888 2.402-1.933.758-1.857.84-.681 2.656.444 2.656 3.376-1.376.671-2.226-.54-3.44-.555-1.436.419-1.603 2.19-.556 2.8-1.254.687-.784 2.56.794 2.574-.177 1.686 2.084 2.65 3.161 1.373a1.384 1.384 0 001.942.217c.42-.338.607-.888.476-1.413 1.163.343 2.341-1.01 1.659-2.322-.845-.872-2.312-.655-2.767-2.114 2.134-2.018 4.203-1.468 4.289-.394-1.077-1.24-2.928.914-.835 1.827.157.58.713.954 1.31.873a.779.779 0 01-.227-.822c.42-.833 1.011-1.06.683-2.655 1.112.162 1.739.631 1.871 1.408a3.285 3.285 0 00-1.396 1.16c-.845 1.141-.07 2.55-1.401 3.17a2.23 2.23 0 002.387.797.662.662 0 00.071.576 2.943 2.943 0 01-3.465-.58 1.252 1.252 0 00-.809.968c-1.466-.419-1.891.036-3.085.576 1.563.317 3.596 1.276 5.225.938.804-.166 1.138-.616 1.836-.934.242-.11.495-.186.753-.232 1.012.505 1.856.545 2.114.757.137-.302.901-.701 1.583-1.58.253-.07.516-.11.779-.115.769 0 1.265.242 2.064.045 1.613-.399 3.034-2.145 4.299-3.103-1.31 0-1.892-.202-3.035.812a1.253 1.253 0 00-1.153-.505 2.93 2.93 0 01-2.868 2.02.624.624 0 00-.187-.546 2.243 2.243 0 001.806-1.751c-1.472 0-1.386-1.59-2.645-2.25a3.28 3.28 0 00-1.76-.47c-.228-.757.116-1.453 1.041-2.1.4 1.585 1.047 1.515 1.801 2.07a.75.75 0 01.162.837 1.19 1.19 0 00.784-1.367c1.461-1.731-1.169-2.841-1.573-1.236-.41-1.01 1.193-2.413 4.011-1.57.242 1.514-1.159 1.973-1.518 3.129 0 1.514 1.644 2.16 2.529 1.337.157.742.89 1.221 1.639 1.06.531-.111.951-.53 1.062-1.06 1.563.651 3.141-1.231 2.225-2.629a1.371 1.371 0 00.764-1.791 1.384 1.384 0 00-1.214-.863c.663-1.01-.283-2.523-1.755-2.256-1.077.56-1.295 2.018-2.822 2.018-1.32-2.624-.197-4.44.855-4.213-1.518.67.035 3.058 1.517 1.327a1.201 1.201 0 001.219-1.01.783.783 0 01-.86 0c-.678-.64-.718-1.291-2.347-1.417.476-1.01 1.108-1.479 1.892-1.383.076.61.324 1.186.708 1.665.85 1.136 2.428.803 2.64 2.25a2.204 2.204 0 001.452-2.048.64.64 0 00.571.096 2.925 2.925 0 01-1.553 3.144c.026.449.289.853.693 1.054-.819 1.277-.505 1.817-.328 3.114.758-1.403 2.275-3.073 2.407-4.723.071-.818-.263-1.267-.364-2.019a2.882 2.882 0 010-.787c.764-.813 1.057-1.615 1.335-1.802-.253-.216-.415-1.064-1.057-1.968.005-.262.04-.524.111-.777.208-.736.597-1.135.638-1.958.08-1.66-1.189-3.532-1.745-5-.349 1.256-.734 1.75-.091 3.128-.425.147-.744.51-.83.954a2.92 2.92 0 011.113 3.3.645.645 0 00-.577 0 2.226 2.226 0 00-1.163-2.23c-.405 1.408-1.927.863-2.918 1.877a3.544 3.544 0 00-.981 1.605c-.789 0-1.361-.54-1.705-1.61 1.634.08 1.755-.56 2.529-1.11a.789.789 0 01.855.09 1.19 1.19 0 00-1.083-1.145c-1.244-1.907-3.07.267-1.664 1.12-1.077.096-1.957-1.847-.323-4.284 1.517.212 1.547 1.685 2.529 2.377a1.568 1.568 0 002.023-.904 1.575 1.575 0 000-1.115c1.426.131 2.078-1.685.778-2.578 1.088-1.297-.247-3.356-1.856-2.897-.278-1.544-2.205-1.7-2.675-.353-.774-.929-2.499-.475-2.681 1.009.223 1.19 1.558 1.832 1.123 3.295-2.898.505-4.314-1.12-3.783-2.059.202 1.63 2.938.868 1.714-1.054a1.195 1.195 0 00-.601-1.454.764.764 0 01-.268.813c-.815.459-1.447.303-2.024 1.821-.834-.751-1.087-1.513-.768-2.21a3.246 3.246 0 001.805-.186c1.341-.475 1.482-2.08 2.934-1.852a2.23 2.23 0 00-1.518-1.989.637.637 0 00.263-.504 2.91 2.91 0 012.529 2.402c.44.11.906-.02 1.219-.349.981 1.161 1.588 1.01 2.883 1.232-1.123-1.13-2.271-3.058-3.819-3.684-.758-.308-1.289-.121-2.023-.247a3.045 3.045 0 01-.758-.222c-.552-.964-1.234-1.484-1.33-1.802-.284.172-1.138.08-2.195.43a2.898 2.898 0 01-.714-.339c-.647-.414-.915-.903-1.684-1.18-1.568-.571-3.712.095-5.305.186 1.102.706 1.456 1.216 2.969 1.01.01.453.268.862.667 1.074a2.927 2.927 0 013.505-.086.65.65 0 00-.146.555 2.237 2.237 0 00-2.479.454c1.229.803.263 2.09.941 3.336.273.555.693 1.02 1.214 1.347l-.046-.02z" fill="#00787C"/><path d="M97.684 42.727c-.992 0-2.064-.323-3.035-.61-.531-.157-1.027-.308-1.487-.4l-.49-.1.455-.207c.207-.096.39-.187.561-.267.784-.389 1.315-.651 2.473-.359a1.42 1.42 0 01.875-.923l.101-.035.071.075a2.797 2.797 0 003.131.616.79.79 0 01-.051-.288 2.414 2.414 0 01-2.316-.908l-.121-.157.182-.085c.677-.318.743-.843.819-1.51.02-.156.04-.322.066-.489l-.33.046a1.357 1.357 0 01-1.466-.919c-.642-.303-1.001-.772-.981-1.302.02-.49.36-.948.834-1.115.233-.08.47-.086.688-.01a1.174 1.174 0 00-.349-.202c-.687-.262-1.962-.12-3.328 1.13.274.742.85.98 1.462 1.227.435.176.88.363 1.234.726l.025.04c.35.672.279 1.44-.192 2-.369.443-.895.66-1.416.6a1.55 1.55 0 01-.571 1.332 1.546 1.546 0 01-2.044-.106c-.54.525-1.345.661-2.104.338-.773-.328-1.239-1.02-1.229-1.796-.723-.066-1.284-.52-1.456-1.191a1.449 1.449 0 01.546-1.544c-.4-.339-.602-.863-.531-1.434.09-.721.602-1.302 1.33-1.519l.025-.005h.026c.505.005.95.207 1.375.399.602.273 1.174.53 1.902.217-.025-1.852-.8-2.876-1.462-3.19a1.18 1.18 0 00-.384-.11c.202.106.364.277.465.504.203.454.107 1.02-.237 1.373-.375.378-.961.444-1.624.187a1.366 1.366 0 01-1.654-.434l-.222-.298.369.04a.6.6 0 00.597-.313c.065-.181.106-.373.146-.555.122-.555.238-1.08 1.174-1.695-.703-.5-1.305-.6-1.836-.303.156.59.162 1.216.005 1.812-.117.63-.496 1.07-.83 1.458-.44.51-.784.913-.556 1.625l.06.192-.197.02a2.41 2.41 0 01-2.24-1.085.793.793 0 01-.248.156 2.794 2.794 0 002.59 1.893h.106l.04.096a1.41 1.41 0 01-.086 1.271c1.002.651 1.164 1.221 1.406 2.064.05.182.107.374.177.586l.152.474-.404-.293c-.38-.272-.83-.54-1.305-.822-1.098-.651-2.347-1.393-2.97-2.428-.272-.459-.338-.862-.404-1.256-.04-.237-.08-.485-.167-.752a2.652 2.652 0 00-.293-.63c-.577-.228-1.022-.52-1.35-.733-.228-.15-.425-.277-.537-.292l-.197-.025.066-.187c.035-.101.03-.333.02-.596-.01-.393-.025-.933.07-1.554a2.795 2.795 0 00-.394-.57c-.187-.217-.384-.379-.571-.535-.304-.252-.622-.515-.875-.984-.582-1.06-.587-2.508-.592-3.785 0-.55-.005-1.075-.05-1.539l-.046-.494.329.373c.152.177.298.328.435.47.607.635 1.021 1.07 1.057 2.245.445.005.87.217 1.133.58l.06.086-.05.09a2.753 2.753 0 00.319 3.165.756.756 0 01.263-.131 2.37 2.37 0 01.202-2.488l.116-.162.132.147c.495.55 1.011.454 1.669.333.156-.03.323-.06.495-.081l-.126-.272a1.365 1.365 0 01.45-1.676c.101-.701.45-1.18.966-1.317a1.263 1.263 0 011.31.474c.147.197.217.42.207.651.05-.11.081-.242.091-.388.056-.732-.45-1.913-2.048-2.851-.632.474-.688 1.095-.754 1.756-.045.464-.09.943-.333 1.387l-.03.04c-.552.53-1.32.682-1.998.394-.526-.222-.88-.656-.972-1.165a1.455 1.455 0 01-1.608-.293c-.5-.474-.617-1.186-.319-1.852-.667-.363-1.036-1.095-.945-1.918.09-.832.617-1.478 1.365-1.69-.146-.722.132-1.398.739-1.751a1.454 1.454 0 011.623.08c.203-.479.647-.822 1.209-.918.723-.131 1.431.192 1.851.828l.02.045c.142.485.076.964.015 1.423-.085.656-.166 1.277.344 1.883 1.77-.57 2.524-1.61 2.635-2.337a1.09 1.09 0 00-.01-.429c-.045.242-.172.46-.379.631-.384.323-.95.389-1.38.161-.274-.146-.719-.535-.638-1.493a1.373 1.373 0 01-.07-1.726l.11-.152c-.141-.015-.278-.035-.42-.055-.824-.116-1.608-.222-2.316.262l-.172.117-.07-.197c-.344-.944.303-2.302.925-3.058a.793.793 0 01-.233-.197 2.774 2.774 0 00-1.052 3.002l.03.101-.08.066c-.35.287-.81.388-1.24.287-.333 1.146-.834 1.469-1.577 1.948-.157.101-.33.212-.511.338l-.41.283.162-.47c.152-.443.278-.948.41-1.483.308-1.241.652-2.644 1.466-3.537.36-.389.729-.57 1.083-.747.217-.106.445-.217.677-.384a2.57 2.57 0 00.526-.464 8.165 8.165 0 00-.03-1.862l-.025-.202.207.02c.101.015.354-.085.612-.186.395-.157.93-.364 1.563-.455.298-.212.577-.449.83-.711.126-.212.227-.444.318-.666.157-.364.314-.742.693-1.126.956-.979 2.033-1.382 3.176-1.816.283-.106.577-.217.87-.338l.47-.192-.273.429c-.172.272-.293.51-.4.721-.308.611-.515 1.03-1.506 1.383.172.44.146.934-.076 1.353l-.056.106-.116-.026c-1.184-.232-2.018.131-2.772 1.206.05.04.101.091.137.142a2.385 2.385 0 012.422-.56l.193.065-.107.172c-.384.63-.121 1.165.188 1.781.237.48.51 1.024.48 1.675A3.787 3.787 0 0189 12.944c.47.419 1.158.47 1.921.146-1.006-1.024-.966-1.62-.9-2.493l.015-.136a.343.343 0 00-.278-.383l-.339-.066.268-.217c.592-.485 1.063-.162 1.518.182.96-.147 1.365.252 1.527.51.233.383.202.908-.086 1.286a1.08 1.08 0 01-.672.419c.202.066.44.076.687.02.906-.202 1.644-1.135 1.978-2.493-.642-.47-1.315-.343-2.023-.217-.48.091-.976.182-1.472.076l-.04-.015a1.63 1.63 0 01-.096-2.866c-.501-.283-.729-.803-.582-1.414.177-.731.87-1.407 1.724-1.332.046-.959.719-1.478 1.361-1.65.764-.202 1.765.02 2.266.823a1.924 1.924 0 012.043.494c.294.323.405.702.319 1.04.48.055.915.368 1.163.858a1.932 1.932 0 01-.263 2.124l-.035.03c-.375.243-.79.384-1.189.525-.698.237-1.355.464-1.82 1.201.95 1.368 1.896 1.464 2.376 1.393.405-.056.724-.252.931-.474-.293.07-.597.02-.865-.142-.4-.247-.617-.696-.541-1.12.05-.283.278-.772 1.214-.974.329-.52.769-1.166 1.487-.933l.298.1-.253.187c-.172.126-.217.752-.111 1.01.035.08.096.166.172.267.273.363.637.853.197 1.933.804.005 1.148-.308 1.401-.853a3.43 3.43 0 01-1.112-1.307c-.309-.565-.294-1.146-.284-1.66.016-.672.026-1.201-.602-1.61l-.161-.126.141-.142a2.388 2.388 0 012.423-.575.841.841 0 01.086-.272 2.796 2.796 0 00-3.181.166l-.081.066-.091-.05a1.421 1.421 0 01-.739-1.04c-1.188.126-1.674-.207-2.397-.707-.157-.106-.324-.222-.516-.348l-.42-.267.496-.03c.47-.026.991-.107 1.537-.187 1.265-.192 2.696-.404 3.834.01.501.181.809.454 1.108.716.182.162.369.328.612.48.197.126.404.232.627.302a7.39 7.39 0 011.512-.287c.273-.03.506-.056.602-.111l.177-.106.061.202c.03.106.192.287.374.5.258.292.602.69.91 1.22.213.091.44.152.673.192.273.046.521.05.764.05.394.006.804.006 1.294.208 1.123.454 2.044 1.569 2.853 2.553.354.429.688.833 1.017 1.166l.354.358-.501-.086c-.233-.04-.445-.065-.642-.096-.86-.11-1.442-.191-2.226-1.064a1.414 1.414 0 01-1.244.272l-.101-.025-.015-.106a2.763 2.763 0 00-2.231-2.246.893.893 0 01-.116.258 2.369 2.369 0 011.396 2.043l.01.197-.197-.03c-.739-.111-1.088.288-1.523.797-.106.121-.217.253-.339.379l.279.136c.581.288.875.954.708 1.574.364.611.394 1.201.086 1.63-.289.394-.83.586-1.315.46a1.048 1.048 0 01-.582-.374c.035.126.096.252.182.374.425.605 1.568 1.19 3.394.903.187-.767-.162-1.287-.531-1.842-.258-.389-.526-.787-.622-1.282l-.005-.025.005-.025c.091-.757.586-1.358 1.289-1.56.552-.161 1.103-.05 1.503.288a1.446 1.446 0 011.431-.787c.688.055 1.229.53 1.421 1.231.744-.141 1.497.197 1.947.888.455.702.461 1.54.015 2.175.567.464.779 1.156.542 1.802-.213.58-.719.943-1.331.974.076.333.056.681-.07 1.004a1.714 1.714 0 01-.911.959c-.42.186-.89.202-1.325.04-.445-.308-.693-.711-.936-1.105-.348-.565-.677-1.1-1.456-1.247-1.007 1.555-.936 2.832-.562 3.462.076.127.162.227.258.308a1.032 1.032 0 01-.101-.676c.086-.495.481-.908.961-1.004.521-.106 1.047.166 1.447.746a1.351 1.351 0 011.153 1.292l.01.313c.177-.065.359-.116.526-.161.647-.182 1.158-.328 1.366-1.045l.055-.192.177.096a2.37 2.37 0 011.265 2.15.826.826 0 01.293.015 2.737 2.737 0 00-1.098-2.957l-.086-.06.021-.101c.086-.44.374-.813.774-1.01-.471-1.09-.294-1.66-.031-2.493.056-.181.116-.373.177-.59l.132-.474.177.464c.162.424.384.883.617 1.367.561 1.166 1.198 2.483 1.138 3.7-.026.54-.198.913-.364 1.276a4.85 4.85 0 00-.279.717c-.06.222-.096.454-.106.686.349.505.557.99.713 1.347.112.258.208.48.289.55l.161.137-.177.116c-.096.065-.222.267-.369.504-.207.333-.485.783-.9 1.232a2.95 2.95 0 00.005.696c.035.278.111.515.177.747.116.378.233.772.187 1.307-.096 1.201-.9 2.412-1.613 3.482-.304.46-.592.893-.815 1.302l-.237.434-.066-.49c-.03-.227-.066-.429-.096-.615-.147-.863-.248-1.449.364-2.468a1.457 1.457 0 01-.632-1.1l-.005-.106.096-.05a2.78 2.78 0 001.492-2.811.837.837 0 01-.293-.036 2.374 2.374 0 01-1.543 1.948l-.187.066-.03-.197c-.107-.737-.597-.949-1.214-1.221-.147-.066-.299-.131-.45-.207l-.051.313a1.37 1.37 0 01-1.305 1.145c-.475.53-1.037.732-1.543.555a1.263 1.263 0 01-.829-1.12c-.01-.242.056-.464.182-.646a1.172 1.172 0 00-.283.268c-.45.58-.683 1.842.126 3.507.789-.036 1.184-.52 1.604-1.035.293-.358.596-.731 1.047-.963l.045-.016c.754-.136 1.472.157 1.876.767.319.48.375 1.04.162 1.52.496.105.921.453 1.113.933a1.54 1.54 0 01-.683 1.923c.349.666.248 1.478-.278 2.109-.536.64-1.325.888-2.064.661a1.546 1.546 0 01-2.898.066c-.44.287-1.001.333-1.522.106-.668-.288-1.077-.95-1.077-1.716l.005-.046c.152-.484.465-.847.774-1.2.43-.5.839-.97.753-1.757-1.785-.504-2.989-.065-3.484.475a1.213 1.213 0 00-.223.338c.167-.167.379-.273.627-.303a1.257 1.257 0 011.249.626c.253.464.147 1.034-.293 1.584a1.345 1.345 0 01-.905 1.474l-.349.116.146-.338a.595.595 0 00-.126-.656 5.462 5.462 0 00-.486-.298c-.5-.278-.971-.54-1.294-1.62-.683.53-.951 1.075-.825 1.67a3.4 3.4 0 011.72.495c.571.298.885.787 1.158 1.216.364.565.647 1.01 1.401 1.01h.197l-.04.191a2.382 2.382 0 01-1.689 1.822c.045.086.07.181.081.282a2.787 2.787 0 002.549-1.907l.03-.101.106-.01c.445-.05.885.111 1.189.434.945-.792 1.552-.777 2.468-.752.167.005.349.01.546.01h.481l-.385.293c-.369.282-.753.63-1.158.999-.951.863-2.023 1.842-3.196 2.13-.537.13-.936.08-1.361.02a5.59 5.59 0 00-.743-.06 2.852 2.852 0 00-.683.095c-.385.484-.789.823-1.088 1.075-.212.176-.394.333-.44.429l-.086.192-.162-.137c-.085-.07-.313-.13-.581-.201a7.916 7.916 0 01-1.457-.51 3.04 3.04 0 00-.662.212c-.258.116-.466.257-.668.388-.334.217-.678.444-1.199.555a3.27 3.27 0 01-.773.081zm-4.006-1.221c.339.086.693.192 1.062.303 1.25.373 2.539.762 3.642.53.465-.096.768-.298 1.087-.51a4.92 4.92 0 01.713-.414c.253-.116.521-.197.794-.242l.051-.01.045.025c.552.278 1.067.414 1.442.51.227.06.409.11.551.171.096-.116.248-.242.43-.393.313-.263.703-.59 1.077-1.065l.03-.04.051-.016c.268-.075.541-.116.819-.12.299 0 .547.035.789.065.41.055.764.1 1.24-.015 1.092-.273 2.093-1.181 3.059-2.06.284-.257.562-.509.83-.736-.036 0-.071 0-.106-.005-.936-.02-1.452-.04-2.372.782l-.132.116-.106-.146c-.213-.288-.551-.474-.905-.444a3.117 3.117 0 01-2.904 2.029h-.085l-.183-.006.026-.181a.471.471 0 00-.142-.404l-.233-.222.314-.056a2.054 2.054 0 001.629-1.438c-.779-.08-1.128-.62-1.467-1.15-.268-.42-.546-.848-1.047-1.11a3.1 3.1 0 00-1.679-.45h-.122l-.035-.116c-.248-.827.121-1.594 1.103-2.276l.192-.136.055.227c.289 1.136.688 1.363 1.199 1.645.172.096.349.197.541.333a.934.934 0 01.289.672c.318-.233.485-.636.399-1.04l-.015-.076.05-.06c.395-.464.501-.919.304-1.282a.952.952 0 00-.926-.46c-.197.026-.546.142-.672.652l-.122.48-.187-.46c-.167-.409-.06-.863.294-1.246.591-.651 1.932-1.13 3.914-.54l.096.03.015.1c.157.995-.338 1.565-.814 2.12-.293.333-.566.651-.698 1.06.01.636.339 1.156.885 1.393.486.212 1.012.131 1.371-.202l.207-.192.061.278c.142.656.789 1.07 1.446.933.471-.1.84-.469.936-.933l.041-.192.182.076c.789.328 1.497-.071 1.861-.51.359-.434.622-1.186.167-1.882l-.106-.167.182-.075a1.22 1.22 0 00.667-.651 1.18 1.18 0 00.01-.929 1.225 1.225 0 00-1.072-.762l-.283-.015.157-.237c.268-.41.253-.939-.046-1.383a1.499 1.499 0 00-1.522-.63c-.379.201-.642.53-.926.872-.465.57-.94 1.156-1.952 1.156h-.101l-.046-.091c-.93-1.847-.652-3.28-.136-3.941.313-.404.753-.59 1.173-.5l.486.106-.455.202c-.476.212-.532.57-.526.762a.943.943 0 00.612.828c.399.136.839-.046 1.244-.515l.05-.06h.076c.415.004.779-.223.956-.576a.941.941 0 01-.693-.141 4.66 4.66 0 01-.45-.495c-.369-.449-.657-.807-1.821-.898l-.232-.02.101-.212c.511-1.085 1.203-1.58 2.058-1.474l.127.015.015.127c.076.58.308 1.13.673 1.584.343.46.814.661 1.269.863.577.252 1.168.51 1.366 1.267a2.052 2.052 0 001.168-1.827l.005-.313.253.187c.121.09.283.116.43.07l.172-.055.035.177a3.107 3.107 0 01-1.537 3.264c.055.349.273.657.591.818l.162.08-.096.152c-.642 1-.556 1.489-.405 2.382l.031.167c.182-.298.384-.606.597-.924.723-1.09 1.471-2.215 1.557-3.33.041-.475-.065-.818-.172-1.186a5.286 5.286 0 01-.192-.798 3.314 3.314 0 010-.832l.005-.05.036-.036c.414-.444.682-.873.9-1.221.126-.207.228-.369.334-.485-.086-.126-.162-.308-.258-.53-.162-.373-.359-.842-.708-1.332l-.031-.045v-.05c.005-.278.046-.55.117-.818.081-.293.192-.535.298-.762.162-.354.314-.681.334-1.16.056-1.131-.561-2.413-1.108-3.543a22.817 22.817 0 01-.45-.964c-.015.055-.035.106-.05.161-.274.863-.42 1.332.08 2.417l.076.162-.167.06a1.098 1.098 0 00-.697.732 3.05 3.05 0 011.082 3.417l-.061.176-.167-.086a.477.477 0 00-.43 0l-.268.137.036-.298a2.06 2.06 0 00-.916-1.973c-.293.721-.915.898-1.522 1.07-.481.136-.976.272-1.371.68a3.34 3.34 0 00-.94 1.535l-.036.116h-.121c-.865 0-1.492-.58-1.856-1.72l-.071-.223.232.01c1.169.06 1.497-.257 1.922-.656a4.11 4.11 0 01.506-.424.985.985 0 01.733-.075 1.03 1.03 0 00-.88-.692l-.08-.005-.041-.065c-.339-.515-.748-.757-1.153-.672a.938.938 0 00-.708.742c-.036.192-.025.555.42.823l.419.257-.49.046c-.425.035-.84-.202-1.103-.641-.43-.722-.521-2.175.627-3.896l.056-.086.101.015c1.007.142 1.406.788 1.791 1.413.232.384.455.742.809.99.313.115.698.1 1.042-.051.344-.151.607-.429.738-.782a1.41 1.41 0 000-1l-.091-.242.258.026c.561.05 1.042-.243 1.229-.757.152-.424.101-1.08-.556-1.53l-.147-.1.116-.137c.547-.656.38-1.443.066-1.922-.308-.475-.951-.944-1.755-.712l-.172.05-.03-.176c-.142-.777-.713-1.095-1.163-1.13-.552-.04-1.017.272-1.199.802l-.096.268-.182-.223c-.314-.373-.825-.514-1.336-.363-.445.131-.955.53-1.052 1.267.086.419.319.767.567 1.135.41.61.834 1.242.546 2.21l-.03.096-.101.015c-2.034.354-3.323-.327-3.814-1.019-.298-.424-.354-.903-.136-1.277l.242-.428.061.484c.066.515.39.671.582.722.349.09.763-.05.971-.339.243-.338.197-.807-.137-1.332l-.04-.065.025-.076a1.04 1.04 0 00-.263-1.075.923.923 0 01-.354.616 3.866 3.866 0 01-.602.277c-.536.217-.961.389-1.37 1.474l-.086.222-.177-.157c-.987-.888-1.052-1.66-.881-2.2l-.783-.348c-.319.676-.8 1.095-1.938 1.004l-.232-.02.101-.212c.501-1.055.197-1.463-.071-1.817a1.486 1.486 0 01-.212-.338c-.101-.242-.122-.787.035-1.14-.344.025-.602.388-.91.883l-.036.06-.07.02c-.597.117-.961.374-1.027.727-.05.288.106.61.394.788.314.191.683.161 1.012-.081l.404-.303-.156.485c-.182.575-.77 1.024-1.452 1.12-.571.075-1.684-.025-2.751-1.62l-.056-.086.05-.086c.527-.903 1.3-1.17 2.05-1.428.389-.136.758-.262 1.097-.474a1.63 1.63 0 00.207-1.756c-.233-.454-.653-.717-1.098-.687l-.298.02.147-.257c.151-.267.08-.6-.187-.898a1.585 1.585 0 00-1.806-.358l-.147.07-.07-.136c-.395-.757-1.285-.969-1.968-.787-.733.192-1.148.762-1.123 1.519l.01.207-.202-.046c-.754-.166-1.386.424-1.538 1.065-.05.217-.156.944.724 1.176l.561.146-.556.162a1.308 1.308 0 00-.89 1.63c.1.338.339.63.652.792.42.086.86.005 1.325-.08.774-.147 1.578-.293 2.367.342l.081.066-.02.096c-.354 1.539-1.194 2.604-2.246 2.84-.581.132-1.133-.03-1.441-.423l-.304-.389.476.132c.38.106.723.01.93-.268a.833.833 0 00.066-.923c-.202-.333-.652-.46-1.264-.348l-.071.01-.056-.046c-.394-.303-.647-.48-.94-.368a.674.674 0 01.227.636l-.005.075c-.066.894-.101 1.383.971 2.402l.167.157-.207.1c-1.037.52-1.988.445-2.605-.206l-.091-.096.07-.106c.345-.515.547-1.11.582-1.73.03-.566-.212-1.05-.445-1.515-.293-.59-.602-1.2-.273-1.907a2.047 2.047 0 00-2.053.696l-.218.263-.065-.339a.342.342 0 00-.218-.257l-.192-.07.111-.172c.825-1.257 1.775-1.726 3.075-1.509a1.289 1.289 0 00-.05-1.115l-.091-.172.182-.06c1.011-.323 1.178-.661 1.487-1.277.055-.106.111-.222.177-.343-.147.055-.299.11-.445.166-1.108.42-2.155.813-3.06 1.741-.334.338-.476.671-.627 1.025-.102.232-.203.474-.364.736-.299.313-.602.57-.931.798l-.071.025c-.607.08-1.118.278-1.522.439-.228.09-.415.162-.567.192a8.05 8.05 0 01.005 1.816l-.005.046-.03.035c-.177.217-.39.404-.622.56a4.547 4.547 0 01-.718.404c-.344.172-.668.328-.987.676-.758.833-1.082 2.135-1.39 3.396-.091.374-.183.732-.279 1.07.046-.03.091-.06.137-.086.764-.489 1.183-.761 1.487-1.922l.045-.177.167.066c.334.126.713.08 1.007-.121a3.105 3.105 0 011.35-3.346l.152-.096.08.157a.511.511 0 00.35.267l.283.06-.197.213c-.582.62-1.224 1.846-1.067 2.704.758-.418 1.567-.307 2.351-.201.491.065.997.136 1.502.085a3.372 3.372 0 001.75-.585l.102-.07.096.075c.662.55.779 1.393.344 2.503l-.086.217-.172-.157c-.87-.782-1.33-.746-1.912-.701-.197.015-.405.03-.642.02-.238 0-.456-.146-.607-.403a1.03 1.03 0 00.242 1.09l.056.055-.01.076c-.066.61.096 1.054.46 1.246.314.167.734.116 1.022-.121.152-.126.384-.419.227-.913l-.146-.45.39.263c.358.242.525.676.444 1.19-.126.834-.976 2.024-2.959 2.63l-.096.03-.07-.075c-.688-.737-.592-1.49-.496-2.22.056-.44.111-.859 0-1.272a1.504 1.504 0 00-1.512-.667c-.521.091-.916.444-1.032.919l-.066.282-.207-.206c-.395-.394-.951-.47-1.421-.192-.395.232-.774.777-.552 1.549l.051.172-.177.035c-.84.161-1.209.883-1.27 1.448-.06.56.142 1.332.906 1.66l.167.071-.086.157c-.385.69-.142 1.302.182 1.614.394.374.956.43 1.436.137l.248-.152v.288c0 .484.303.913.794 1.12a1.502 1.502 0 001.629-.313c.202-.378.242-.802.283-1.241.07-.732.142-1.484.976-2.049l.086-.055.086.05c1.8 1.024 2.367 2.367 2.301 3.21-.04.51-.298.903-.698 1.06l-.455.176.263-.414c.278-.434.127-.762.01-.924a.959.959 0 00-.966-.353c-.404.106-.668.505-.738 1.116l-.01.075-.066.04a1.05 1.05 0 00-.48 1.01.941.941 0 01.647-.258h.015c.258.046.45.107.642.162.557.172.997.313 2.018-.262l.203-.117.035.233c.177 1.185-.121 1.983-.89 2.366l-.111.056-.081-.096a3.135 3.135 0 00-1.442-.959c-.546-.207-1.057-.11-1.552-.025-.612.111-1.245.227-1.821-.293a2.045 2.045 0 00.04 2.18l.172.263-.313-.015a.473.473 0 00-.4.176l-.116.136-.127-.13a3.074 3.074 0 01-.526-3.569 1.106 1.106 0 00-.95-.363l-.183.02v-.106c0-1.175-.364-1.559-.97-2.19-.041-.045-.087-.09-.127-.136.015.348.015.722.02 1.105.005 1.302.01 2.644.551 3.628.228.414.506.646.8.889.197.166.399.333.606.565.188.207.344.434.47.686l.026.046-.01.05a7.102 7.102 0 00-.076 1.54c.005.226.01.408-.005.55.142.06.303.166.5.292.345.227.775.505 1.341.722l.05.02.03.045c.153.232.274.485.36.752.096.288.136.55.177.802.06.379.121.737.364 1.14.577.965 1.735 1.65 2.853 2.317.333.197.652.384.945.575l-.045-.156c-.248-.868-.39-1.348-1.411-1.968l-.152-.096.091-.126c.223-.288.283-.661.177-1a3.113 3.113 0 01-2.827-2.28l-.046-.172.177-.03a.498.498 0 00.355-.252l.146-.278.142.278a2.078 2.078 0 001.846 1.135h.005c-.157-.767.263-1.257.672-1.731.324-.378.658-.767.764-1.322a3.222 3.222 0 00-.03-1.766l-.035-.116.1-.066c.719-.48 1.564-.348 2.504.399l.182.146-.202.121c-1.001.6-1.097 1.05-1.224 1.615-.04.192-.086.394-.167.616a.938.938 0 01-.556.469c.313.227.728.267 1.087.086l.066-.036.07.03c.572.243 1.043.213 1.336-.085a.942.942 0 00.172-1.014c-.081-.177-.299-.47-.804-.45l-.49.02.378-.307c.334-.273.81-.303 1.27-.08.759.362 1.649 1.518 1.649 3.582v.1l-.091.046c-.906.444-1.599.132-2.266-.171-.405-.182-.79-.359-1.219-.369a1.49 1.49 0 00-1.077 1.242c-.066.53.157 1.009.581 1.256l.248.147-.253.136c-.495.272-.728.787-.597 1.317.112.434.521.949 1.315.954h.178l-.02.176c-.092.848.495 1.413 1.02 1.635.522.222 1.316.253 1.852-.383l.126-.152.122.152c.42.525 1.188.61 1.714.192.375-.298.537-.788.42-1.247l-.07-.272.272.08c.47.142.977-.03 1.316-.444a1.47 1.47 0 00.161-1.625c-.303-.307-.698-.469-1.107-.635-.678-.278-1.381-.566-1.68-1.524l-.03-.096.076-.071c1.497-1.418 2.913-1.584 3.738-1.267.48.182.789.55.824.98l.04.489-.323-.373c-.339-.394-.698-.339-.885-.278-.344.121-.607.464-.617.822-.016.414.288.783.854 1.03l.071.03.02.076c.107.398.435.681.825.752a.949.949 0 01-.056-.707c.117-.232.228-.398.334-.56.324-.484.582-.863.344-2.013l-.046-.227.228.035c1.189.171 1.861.691 2.008 1.539l.02.126-.116.05a3.186 3.186 0 00-1.33 1.106c-.34.459-.4.969-.46 1.458-.076.62-.152 1.262-.825 1.666a2.07 2.07 0 002.089.59l.298-.086-.101.293a.49.49 0 00.056.434l.096.151-.157.08a3.115 3.115 0 01-3.576-.534c-.318.151-.551.45-.612.802l-.03.177-.172-.05c-1.148-.329-1.593-.106-2.402.292a.799.799 0 01-.147.081zm5.543-7.822c.182 1.11-.116 1.554-.435 2.024-.101.156-.212.313-.303.504a.616.616 0 00.192.631l.248.217c.066-.368.182-.747.445-1.1a3.45 3.45 0 011.34-1.156c-.152-.59-.637-.953-1.487-1.12zM84.65 26.877c.263 0 .531.035.814.141.572.182 1.088.51 1.497.954.511-.313.724-.888.638-1.741-1.002.51-1.518.348-2.064.176-.177-.055-.364-.116-.576-.151a.621.621 0 00-.547.368l-.116.268c.111-.005.233-.015.354-.015zm25.121-2.105c1.113.137 1.452.55 1.811.995.121.146.243.297.4.444.187.12.45.12.657-.016l.258-.171a2.553 2.553 0 01-.905-.732 3.44 3.44 0 01-.718-1.61c-.597-.025-1.093.333-1.503 1.09zm.228-3.81c.303.808.754 1.227 1.355 1.277a3.63 3.63 0 01.992-1.554c.288-.293.617-.464.946-.585l-.243-.197a.617.617 0 00-.678-.071 4.16 4.16 0 00-.45.389c-.41.383-.799.746-1.892.746-.005-.005-.015-.005-.03-.005zm-22.8-5.879c.435 0 .905.106 1.568.651.273-.812.192-1.418-.243-1.841a3.695 3.695 0 01-1.8.57c-.35.035-.698.02-1.042-.015l.06.186c.076.237.233.495.45.495.228.01.42-.005.608-.015.131-.02.263-.03.4-.03zm16.473-4.667c-.182.64.202 1.236.632 1.67.44-1.02.936-1.221 1.462-1.433.172-.07.354-.142.541-.248a.594.594 0 00.192-.625l-.086-.293a2.545 2.545 0 01-.961.64 3.384 3.384 0 01-1.628.233l.718.454-.87-.398zm-3.014-5.37c.606.495.591 1.14.581 1.766-.01.495-.02 1.01.248 1.504.263.53.663.974 1.158 1.287l.799.505c.005-.005.005-.015.01-.02l.051-.116.126.02a3.064 3.064 0 001.715-.177c.541-.192.875-.58 1.199-.959.409-.474.829-.964 1.613-.928a2.047 2.047 0 00-1.391-1.655l-.298-.101.253-.187a.48.48 0 00.197-.379l.005-.176.177.02a3.094 3.094 0 012.65 2.427 1.1 1.1 0 00.961-.323l.127-.13.116.135c.764.899 1.249.964 2.134 1.08.061.01.127.015.192.026-.232-.263-.47-.545-.718-.843-.824-1-1.679-2.039-2.726-2.463-.435-.176-.799-.182-1.178-.182a4.71 4.71 0 01-.815-.055 3.339 3.339 0 01-.794-.232l-.05-.02-.025-.046c-.299-.525-.633-.908-.901-1.216-.157-.182-.288-.328-.369-.46-.147.041-.334.061-.571.087-.385.04-.916.096-1.492.287l-.051.015-.051-.015a3.117 3.117 0 01-.753-.358c-.258-.167-.455-.343-.648-.51-.288-.252-.556-.494-1.001-.65-1.062-.384-2.387-.187-3.672.004-.384.056-.753.111-1.102.152.045.03.09.065.136.096.744.514 1.153.792 2.337.63l.177-.025.005.182c.01.358.197.691.495.883a3.122 3.122 0 013.612-.025l.146.1-.116.137a.488.488 0 00-.111.419l.06.308-.288-.127a2.091 2.091 0 00-2.159.308z" fill="#860142"/><path fill-rule="evenodd" clip-rule="evenodd" d="M108.447 15.669a1.865 1.865 0 01-1.897 1.675c-.061.59.47.964 1.366 1.01.04 1.983.642 3.512 1.805 4.592a4.614 4.614 0 00-2.529 4.037c-.89-.318-1.264 0-1.517.615.946.172 1.386.893 1.33 2.165-1.011.136-1.876-.116-2.276-1.01a1.103 1.103 0 00-.369 1.515c.051.075.106.146.167.212a4.796 4.796 0 00-3.343 3.29c-1.578-1.448-3.202-1.993-4.87-1.635a1.43 1.43 0 00-1.108-1.105c-.152 1.18-.683 1.842-1.594 1.988a1.934 1.934 0 01.557-2.392 1.623 1.623 0 00-1.674.08c-1.068-1.72-2.09-2.522-4.274-2.522a5.844 5.844 0 00-.187-5.092c.541-.267.855-.838.794-1.433-.89.439-1.72.217-2.478-.661.93-.818 1.836-.909 2.559-.328a1.085 1.085 0 00-.587-1.413h-.055c.99-1.03 1.426-2.63 1.31-4.804a5.688 5.688 0 004.47-1.373c.446.262.987.328 1.482.182a1.512 1.512 0 01.091-2.2l.071-.061c.916.64 1.042 1.211.85 2.019.652.262 1.138-.111 1.421-1.01a7.72 7.72 0 004.466-.605c.607 1.791 1.679 2.68 3.105 3.532a1.45 1.45 0 00.435 1.55c.688-.848 1.098-1.01 2.468-.823l.011.005z" fill="#fff"/><path d="M101.265 34.063l-.193-.177c-1.527-1.403-3.12-1.943-4.728-1.595l-.157.036-.036-.162a1.273 1.273 0 00-.814-.933c-.192 1.14-.764 1.796-1.7 1.943l-.116.02-.05-.106a2.106 2.106 0 01.404-2.417 1.439 1.439 0 00-1.284.171l-.142.096-.091-.141c-.986-1.585-1.937-2.448-4.137-2.448h-.248l.101-.227a5.655 5.655 0 00-.182-4.95l-.076-.147.152-.075c.405-.202.673-.6.708-1.045-.875.333-1.694.066-2.443-.802l-.106-.121.121-.106c.9-.793 1.806-.954 2.575-.47a.897.897 0 00-.061-.5.91.91 0 00-.475-.484h-.4l.263-.272c.956-.99 1.38-2.569 1.264-4.683l-.01-.192.193.025a5.54 5.54 0 004.344-1.332l.086-.076.101.06c.334.198.728.273 1.108.223a1.66 1.66 0 01-.299-.979 1.673 1.673 0 01.577-1.246l.167-.147.101.07c.961.672 1.093 1.308.946 2.045a.652.652 0 00.46-.03c.253-.122.47-.44.622-.924l.04-.131.137.02a7.52 7.52 0 004.37-.59l.162-.076.055.171c.577 1.7 1.589 2.579 3.035 3.447l.111.066-.04.12c-.147.445-.041.924.268 1.262.673-.787 1.183-.923 2.504-.747l.05.016.101.05v.116a2.037 2.037 0 01-1.896 1.817c.01.116.055.217.131.308.192.221.572.358 1.077.383l.152.01.005.151c.041 1.928.627 3.432 1.755 4.477l.172.156-.207.106a4.432 4.432 0 00-2.438 3.896l-.005.227-.212-.076c-.714-.252-1.017-.075-1.235.348.896.248 1.32 1.015 1.265 2.286l-.005.137-.132.02c-1.117.151-1.932-.167-2.357-.924a.944.944 0 00-.172 1.186c.041.066.092.126.147.182l.187.197-.263.07a4.664 4.664 0 00-3.232 3.18l-.075.237zm-3.966-2.2c1.3 0 2.575.54 3.809 1.614a4.991 4.991 0 013.146-3.088c-.01-.015-.021-.025-.026-.04a1.269 1.269 0 01.42-1.736l.157-.096.076.166c.323.717.986 1.03 1.972.934.015-1.105-.379-1.71-1.203-1.862l-.198-.036.076-.186c.208-.5.562-1.025 1.512-.772a4.746 4.746 0 012.413-3.856c-1.057-1.07-1.629-2.548-1.689-4.405-.531-.05-.931-.217-1.159-.485a.892.892 0 01-.207-.691l.015-.146.147.005a1.728 1.728 0 001.709-1.378c-1.224-.151-1.562.035-2.169.782l-.107.131-.126-.105a1.612 1.612 0 01-.521-1.595c-1.406-.853-2.407-1.741-3.009-3.386a7.808 7.808 0 01-4.259.565c-.182.505-.43.838-.748.984-.253.121-.536.116-.845-.005l-.126-.05.03-.137c.167-.691.101-1.19-.683-1.776l-.03.03a1.352 1.352 0 00-.026 1.913l.188.191-.258.076a2.03 2.03 0 01-1.507-.141 5.846 5.846 0 01-4.32 1.357c.081 1.999-.323 3.528-1.203 4.557a1.234 1.234 0 01.516 1.54l-.082.196-.166-.136c-.8-.641-1.629-.262-2.226.217.683.721 1.391.883 2.175.5l.207-.102.026.233a1.608 1.608 0 01-.739 1.514 5.95 5.95 0 01.213 4.87c2.109.06 3.125.953 4.086 2.462a1.767 1.767 0 011.7 0l.217.116-.197.151a1.786 1.786 0 00-.561 2.084c.763-.171 1.203-.767 1.34-1.826l.02-.172.172.035c.566.116 1.022.53 1.194 1.075.278-.06.566-.09.854-.09z" fill="#860142"/><path fill-rule="evenodd" clip-rule="evenodd" d="M106.004 22.8c1.866-1.131-.875-4.275-.101-5.41-1.29.313-3.035-3.583-4.876-2.302-.465-2.124-4.117-.317-4.946-1.412-.116 1.317-4.355 1.513-3.733 3.668-2.25-.161-1.805 4.037-3.075 4.406 1.25.58.284 4.541 2.464 4.541-.89 1.989 3.125 2.7 3.14 4.073.88-1.01 4.395 1.312 5.184-.803 1.68 1.514 3.809-2.175 5.058-1.7-.627-1.221 2.605-3.704.895-5.047l-.01-.015z" fill="#00787C"/><path d="M94.72 30.788l-.004-.424c-.005-.49-.688-.929-1.411-1.398-1.012-.651-2.15-1.378-1.796-2.533-1.194-.152-1.406-1.489-1.593-2.68-.137-.853-.263-1.655-.708-1.867l-.39-.182.415-.12c.44-.127.668-.914.9-1.747.334-1.17.739-2.609 2.018-2.67-.207-1.246 1.128-1.862 2.216-2.361.778-.358 1.517-.701 1.557-1.156l.036-.418.253.333c.298.393 1.107.343 1.967.287 1.199-.075 2.549-.161 2.949.974 1.112-.59 2.149.419 3.065 1.312.627.61 1.224 1.191 1.674 1.08l.409-.1-.237.347c-.278.41 0 1.201.298 2.044.42 1.196.895 2.538-.071 3.295.88.853.203 2.034-.394 3.084-.425.746-.83 1.448-.602 1.887l.192.373-.394-.151c-.435-.166-1.083.343-1.771.878-.955.747-2.129 1.665-3.166.929-.576 1.125-2.013.842-3.176.615-.844-.166-1.639-.318-1.947.036l-.288.333zm.941-.853c.4 0 .865.09 1.346.187 1.224.237 2.488.484 2.903-.616l.08-.222.178.161c.875.793 1.917-.02 2.923-.807.642-.5 1.249-.98 1.791-.98h.005c-.081-.55.298-1.215.698-1.917.591-1.034 1.203-2.11.328-2.795l-.035-.036-.096-.141.136-.106c.971-.59.536-1.832.112-3.033-.279-.782-.542-1.529-.385-2.069-.536-.065-1.092-.61-1.679-1.18-.925-.904-1.881-1.832-2.847-1.161l-.198.136-.05-.237c-.238-1.095-1.477-1.014-2.67-.939-.81.05-1.579.101-2.034-.212-.233.48-.93.803-1.664 1.14-1.138.525-2.316 1.066-1.993 2.186l.066.222-.232-.015c-1.179-.091-1.548 1.196-1.897 2.427-.218.777-.43 1.514-.855 1.837.405.383.526 1.145.648 1.943.187 1.19.379 2.417 1.502 2.417h.248l-.102.227c-.46 1.024.587 1.695 1.593 2.341.678.434 1.326.853 1.508 1.373.187-.096.414-.131.672-.131z" fill="#860142"/><path fill-rule="evenodd" clip-rule="evenodd" d="M105.028 6.883c-.703.328-1.012 1.242-1.28 1.923a1.53 1.53 0 001.229.197c.187-.06.359-.162.506-.293.576-.505.627-1.54 1.295-1.357-.623-.505-1.174-.682-1.659-.505l-.081.03-.01.005z" fill="#FBA407"/><path d="M104.583 9.215c-.324 0-.648-.096-.921-.273l-.111-.07.106-.278c.263-.676.592-1.519 1.3-1.852l.106-.04c.531-.192 1.143-.016 1.816.53l.597.484-.739-.202c-.263-.07-.374.106-.607.545-.136.262-.293.56-.541.777a1.49 1.49 0 01-.561.323 1.925 1.925 0 01-.445.056zm-.633-.48c.304.157.653.197.987.111a1.16 1.16 0 00.44-.257c.207-.182.338-.44.47-.686.137-.258.278-.535.506-.667-.445-.287-.835-.363-1.179-.242l-.081.03h.005c-.591.278-.895 1.055-1.138 1.68l-.01.031z" fill="#860142"/><path fill-rule="evenodd" clip-rule="evenodd" d="M103.714 8.796a1.54 1.54 0 01-.632-.197 1.462 1.462 0 01-.455-.409 1.357 1.357 0 01-.208-.535c-.131-.767.46-1.594-.177-1.862.825 0 1.371.197 1.629.656l.03.046c.364.69.056 1.61-.187 2.3z" fill="#FBA407"/><path d="M103.825 8.967l-.127-.01A1.711 1.711 0 01103 8.74a1.609 1.609 0 01-.505-.454 1.477 1.477 0 01-.238-.606c-.056-.322.005-.65.061-.938.096-.5.106-.697-.142-.797l-.738-.308h.804c.91 0 1.492.242 1.77.736l.025.036c.415.782.061 1.781-.172 2.442l-.04.116zm-1.174-2.997c.096.242.041.545-.015.827-.05.273-.106.555-.061.828.026.172.086.328.183.474.106.142.237.268.399.359.137.075.288.13.44.161.213-.605.47-1.448.152-2.049l-.02-.03c-.177-.333-.526-.515-1.078-.57z" fill="#860142"/><path fill-rule="evenodd" clip-rule="evenodd" d="M103.949 8.07c.075-.258.111-.526.116-.793a1.602 1.602 0 00-.207-.898l-.031-.081c-.157-.505.283-1.095 1.295-1.706.501 1.04.556 1.741.162 2.104l-.051.046a3.687 3.687 0 00-1.295 1.574c-.364.793-.121.227 0-.247h.011z" fill="#FBA407"/><path d="M103.772 8.882c-.025 0-.05-.01-.086-.02-.146-.056-.106-.182-.045-.369.04-.126.096-.303.142-.464l.04-.121c.051-.207.076-.42.081-.631.02-.293-.046-.57-.187-.818l-.041-.106c-.131-.419.005-1.08 1.361-1.902l.152-.091.075.161c.542 1.12.582 1.873.127 2.292l-.051.045a3.519 3.519 0 00-1.254 1.519c-.182.399-.228.505-.314.505zm1.28-4.058c-.814.52-1.194 1.025-1.072 1.423l.025.071c.162.278.238.62.218.964 0 .07-.005.146-.011.217a3.82 3.82 0 01.926-.898l.035-.03c.319-.288.279-.874-.121-1.747z" fill="#860142"/><path fill-rule="evenodd" clip-rule="evenodd" d="M110.441 11.601c.404.505 1.118.798 1.047 1.55a1.04 1.04 0 01-.284.615l-.091.086c-.126.121-.202.086-.354 0a.794.794 0 01-.121-.075 1.123 1.123 0 01-.303-.354c-.38-.676.05-1.16.106-1.832v.01z" fill="#F0A633"/><path d="M110.961 14.09a.564.564 0 01-.283-.102.887.887 0 01-.142-.085 1.419 1.419 0 01-.349-.404c-.288-.51-.162-.929-.04-1.337.055-.187.111-.384.131-.586l.182.005.107-.085c.111.136.247.262.394.388.349.313.743.666.688 1.277-.025.267-.142.52-.329.711l-.096.091c-.096.096-.182.126-.263.126zm-.415-2.145a4.783 4.783 0 01-.086.307c-.116.389-.207.697.015 1.09a.898.898 0 00.263.303c.031.02.061.04.097.06.04.021.106.061.126.061 0 0 .015-.005.04-.035l.092-.086a.912.912 0 00.232-.514c.041-.45-.248-.707-.581-1.005a3.235 3.235 0 01-.198-.181z" fill="#860142"/><path fill-rule="evenodd" clip-rule="evenodd" d="M113.984 12.197c-.116.934-.658 2.377-2.64 1.625.667-1.726 1.32-1.68 2.64-1.625z" fill="#F0A633"/><path d="M112.346 14.19c-.319 0-.673-.075-1.058-.222l-.151-.055.06-.152c.703-1.816 1.432-1.786 2.757-1.73l.177.005.02.176c-.061.48-.263 1.342-.946 1.751a1.632 1.632 0 01-.859.227zm-.789-.464c.606.202 1.102.192 1.476-.035.496-.298.688-.914.764-1.343-1.148-.045-1.669-.015-2.24 1.378z" fill="#860142"/><path fill-rule="evenodd" clip-rule="evenodd" d="M112.815 15.86c-.207-.62-.055-1.367-.728-1.72a1.057 1.057 0 00-.668-.101h-.121c-.167.04-.182.121-.202.288a.715.715 0 000 .146c.015.156.06.308.131.449.359.686 1.012.59 1.593.913l-.005.026z" fill="#F0A633"/><path d="M112.856 16.446l-.182-.51a2.651 2.651 0 00-.496-.176c-.404-.121-.824-.248-1.092-.762a1.391 1.391 0 01-.147-.51 1.041 1.041 0 010-.177c.021-.161.046-.358.324-.428l.162-.006a1.15 1.15 0 01.743.121c.547.288.622.808.693 1.262.026.152.046.313.086.46l.061.035-.152.691zm-1.254-2.266a.827.827 0 00-.157.015h-.152c-.025.01-.025.01-.04.147a.412.412 0 000 .11c.015.137.05.268.116.394.208.394.511.485.901.6.101.031.202.061.303.097-.015-.081-.025-.162-.04-.242-.066-.44-.122-.818-.521-1.025a.958.958 0 00-.41-.096z" fill="#860142"/><path fill-rule="evenodd" clip-rule="evenodd" d="M115.06 23.915c-.445-.641-1.4-.803-2.119-.924a1.49 1.49 0 00-.126.646c.005.207.056.409.147.59.086.177.207.334.359.46.612.504 1.628.348 1.562 1.034.4-.701.471-1.271.208-1.716l-.031-.09z" fill="#F0A633"/><path d="M114.652 26.453l.07-.752c.026-.257-.151-.338-.617-.48-.288-.09-.622-.191-.89-.413a1.548 1.548 0 01-.404-.515 1.552 1.552 0 01-.162-.656c-.005-.242.04-.49.141-.717l.051-.116.126.02c.734.127 1.74.293 2.226.99l.02.04.03.09c.279.465.208 1.096-.217 1.848l-.374.66zm-1.609-3.285c-.05.146-.07.303-.065.459.005.182.05.358.131.525.076.156.182.297.319.403.222.182.505.273.779.354.268.08.556.171.718.368.207-.484.217-.878.03-1.196l-.035-.096c-.39-.535-1.219-.701-1.877-.817z" fill="#860142"/><path fill-rule="evenodd" clip-rule="evenodd" d="M112.948 22.966a1.53 1.53 0 01.085-.656c.071-.192.183-.364.324-.505.147-.136.319-.237.506-.303.733-.262 1.659.177 1.811-.504.161.807.04 1.377-.365 1.715l-.045.036c-.622.464-1.578.323-2.301.217h-.015z" fill="#F0A633"/><path d="M114.06 23.228c-.395 0-.784-.055-1.118-.106h-.147l-.01-.146c-.02-.242.01-.495.096-.727.081-.212.203-.403.36-.565.166-.156.359-.267.566-.343.308-.111.642-.106.936-.106.505.005.713-.015.768-.283l.167-.747.152.752c.172.863.03 1.494-.42 1.872l-.05.04c-.364.278-.83.36-1.3.36zm-.956-.404c.688.096 1.532.192 2.063-.206l.041-.036c.288-.242.41-.62.364-1.155-.222.146-.541.14-.834.136-.284 0-.567-.005-.825.086-.172.06-.318.151-.45.267a1.272 1.272 0 00-.283.444 1.43 1.43 0 00-.076.465z" fill="#860142"/><path fill-rule="evenodd" clip-rule="evenodd" d="M114.501 23.037a1.58 1.58 0 00.844-.369l.076-.04c.506-.242 1.133.085 1.907.974-.936.67-1.618.842-2.048.504l-.051-.04a3.325 3.325 0 00-1.3-.843c-1.487-.57-.733 0 .567-.212l.005.026z" fill="#F0A633"/><path d="M115.79 24.434a.964.964 0 01-.612-.207l-.051-.04a3.236 3.236 0 00-1.254-.818c-.238-.09-.42-.15-.541-.191-.192-.03-.329-.081-.364-.142l-.056-.1.076-.086c.045-.05.081-.096.42.01.227.035.612.06 1.057-.015l.157-.025.005.025a1.41 1.41 0 00.612-.308l.106-.06c.581-.278 1.269.05 2.104 1.009l.116.136-.147.1c-.652.48-1.193.712-1.628.712zm-1.492-1.236c.389.182.748.439 1.047.757l.035.025c.339.268.916.131 1.705-.409-.663-.721-1.199-.989-1.593-.802l-.071.035a1.666 1.666 0 01-.901.389l-.151.02-.005-.02c-.021 0-.046 0-.066.005z" fill="#860142"/><path fill-rule="evenodd" clip-rule="evenodd" d="M101.689 38.816c.405-.66.167-1.6 0-2.306a1.475 1.475 0 00-1.123.505 1.475 1.475 0 00-.252.504c-.188.752.338 1.625-.314 1.842.799.086 1.355-.08 1.654-.504l.05-.076-.015.035z" fill="#FBA407"/><path d="M100.642 40.83l.632-1.459c-.334.157-.763.202-1.29.147l-.738-.081.703-.232c.253-.086.253-.283.197-.787-.03-.293-.07-.621.01-.939a1.56 1.56 0 01.284-.565 1.617 1.617 0 011.234-.565h.146l.041.181c.096.414.217.919.212 1.403l.496-.747-.577 1.333c-.04.13-.091.262-.166.383l-1.184 1.928zm.921-4.158a1.3 1.3 0 00-.875.444 1.151 1.151 0 00-.218.439c-.066.262-.035.545 0 .822.03.288.066.606-.051.838.526-.005.896-.162 1.108-.46l.076-.11c.278-.555.111-1.328-.04-1.973z" fill="#860142"/><path fill-rule="evenodd" clip-rule="evenodd" d="M101.688 36.49c.192-.096.4-.151.612-.162.202-.015.41.016.602.086.182.076.344.187.475.328.537.566.506 1.585 1.189 1.454-.673.474-1.249.595-1.725.358h-.045c-.678-.379-.936-1.312-1.128-2.019l.02-.045z" fill="#FBA407"/><path d="M103.348 38.831a1.32 1.32 0 01-.541-.116h-.051l-.035-.02c-.744-.414-1.012-1.398-1.204-2.12l-.015-.055.066-.151.05-.025c.213-.106.44-.167.678-.177.223-.02.455.015.668.096.207.086.384.207.536.368.227.237.359.545.47.813.202.469.298.646.567.59l.738-.141-.612.434c-.48.333-.921.505-1.315.505zm-.506-.439l.076.016c.339.166.749.126 1.219-.132-.223-.146-.344-.434-.46-.706-.112-.258-.223-.52-.41-.722a1.194 1.194 0 00-.42-.287 1.417 1.417 0 00-.986.025c.167.64.41 1.458.981 1.806z" fill="#860142"/><path fill-rule="evenodd" clip-rule="evenodd" d="M101.927 37.302c.081.222.182.434.309.636.162.273.399.49.683.631l.065.045c.425.354.38 1.07-.121 2.14-1.012-.585-1.436-1.135-1.31-1.655v-.07c.162-.37.248-.763.253-1.167.03-.928-.425-2.018.106-.56h.015z" fill="#FBA407"/><path d="M102.934 40.981l-.152-.09c-1.082-.626-1.533-1.227-1.386-1.832l-.005-.066.015-.03c.152-.349.233-.722.238-1.1.015-.45-.086-.934-.132-1.14-.02-.102-.05-.243.097-.283.146-.04.182.05.273.302l.146.404.056.106c.076.212.172.414.293.605.147.248.364.445.617.57l.086.056c.501.42.476 1.181-.065 2.342l-.081.156zm-1.219-1.922v.035c-.106.454.258.923 1.077 1.423.395-.903.425-1.504.091-1.787l-.056-.035a1.781 1.781 0 01-.728-.681 3.165 3.165 0 01-.126-.222v.07c-.01.414-.096.818-.258 1.197z" fill="#860142"/><path fill-rule="evenodd" clip-rule="evenodd" d="M83.366 29.995c.749.217 1.593-.252 2.23-.605a1.42 1.42 0 00-.814-.954 1.363 1.363 0 00-.566-.106c-.779 0-1.487.747-1.866.172.126.797.43 1.286.915 1.468h.081l.02.025z" fill="#FBA407"/><path d="M83.765 30.207a1.68 1.68 0 01-.445-.06l-.11-.03c-.542-.202-.886-.737-1.017-1.595l-.117-.742.415.626c.147.217.334.171.799-.01.288-.116.622-.233.976-.233.197 0 .395.04.582.122a1.7 1.7 0 01.566.408c.162.187.284.414.344.651l.03.121-.11.061c-.537.298-1.23.681-1.913.681zm-.308-.358c.632.151 1.37-.227 1.942-.54a1.42 1.42 0 00-.238-.404 1.292 1.292 0 00-.445-.328 1.185 1.185 0 00-.495-.09c-.284 0-.552.105-.82.211-.268.106-.556.217-.809.167.137.495.37.807.703.944h.126l.036.04z" fill="#860142"/><path fill-rule="evenodd" clip-rule="evenodd" d="M85.6 29.415a1.449 1.449 0 01.419 1.166 1.29 1.29 0 01-.197.54c-.404.66-1.4.898-1.097 1.514-.632-.505-.9-1.045-.794-1.565v-.055c.187-.752 1.011-1.242 1.654-1.605l.015.005z" fill="#FBA407"/><path d="M85.191 33.21l-.567-.454c-.854-.682-.935-1.312-.85-1.721l-.004-.025c.197-.818.966-1.312 1.734-1.746l.066-.036.147.066c.177.171.314.388.39.626.075.217.1.444.075.67a1.46 1.46 0 01-.222.611c-.172.278-.435.485-.663.666-.4.313-.541.455-.425.692l.319.65zm.37-3.603c-.674.383-1.316.817-1.473 1.443l.006.015c-.092.464.146.868.44 1.17.08-.246.333-.443.56-.625.223-.171.451-.353.593-.585.096-.147.151-.308.177-.475a1.299 1.299 0 00-.066-.535 1.24 1.24 0 00-.238-.408z" fill="#860142"/><path fill-rule="evenodd" clip-rule="evenodd" d="M84.353 30.328c-.197.243-.344.52-.435.818l-.03.076c-.233.504-.936.64-2.099.434.303-1.11.728-1.676 1.264-1.69h.071c.46.065.936.03 1.381-.107 1.816-.505.592-.555-.152.47z" fill="#FBA407"/><path d="M82.704 31.908c-.273 0-.587-.03-.946-.096l-.172-.03.046-.172c.323-1.18.799-1.791 1.416-1.811h.076c.46.065.91.03 1.335-.101a6.82 6.82 0 00.49-.152c.248-.156.46-.227.552-.197l.11.04v.122c0 .076-.004.156-.52.333-.187.121-.41.303-.607.57l-.005.005a2.307 2.307 0 00-.405.762l-.035.086c-.197.434-.632.64-1.335.64zm-.708-.384c.976.152 1.562.026 1.745-.373l.025-.066c.09-.308.248-.6.455-.858.04-.055.086-.11.132-.161a3.4 3.4 0 01-1.255.056h-.045c-.521.015-.86.736-1.057 1.402z" fill="#860142"/><path fill-rule="evenodd" clip-rule="evenodd" d="M86.313 10.476c.035.772.753 1.423 1.294 1.908.192-.127.35-.303.455-.505.107-.177.172-.373.193-.575.02-.192-.01-.389-.081-.57-.263-.732-1.189-1.166-.764-1.711-.713.378-1.077.822-1.097 1.337v.116z" fill="#FBA407"/><path d="M87.593 12.585l-.096-.085c-.551-.495-1.31-1.171-1.35-2.019v-.12c.02-.581.42-1.076 1.183-1.48l.668-.353-.466.596c-.167.212-.055.378.273.767.188.222.405.48.516.792.081.197.112.424.091.64-.025.228-.096.45-.212.642a1.562 1.562 0 01-.506.555l-.101.066zm-1.118-2.114c.03.666.648 1.257 1.143 1.7.122-.1.228-.231.304-.373a1.22 1.22 0 00.172-.514 1.101 1.101 0 00-.071-.495c-.096-.262-.278-.484-.46-.696-.188-.222-.39-.465-.42-.727-.435.298-.653.626-.668.994v.111z" fill="#860142"/><path fill-rule="evenodd" clip-rule="evenodd" d="M87.59 12.404a1.497 1.497 0 01-.42.505 1.394 1.394 0 01-.551.262 1.25 1.25 0 01-.577 0c-.758-.172-1.305-1.01-1.79-.55.288-.772.698-1.186 1.224-1.257h.055c.774-.06 1.518.576 2.059 1.05v-.01z" fill="#FBA407"/><path d="M86.33 13.363a1.48 1.48 0 01-.329-.04c-.319-.071-.602-.253-.85-.41-.42-.267-.606-.358-.794-.181l-.505.48.242-.652c.309-.822.764-1.282 1.356-1.357h.076c.763-.06 1.487.5 2.002.949l.213-.42v1.035l-.126-.11a1.675 1.675 0 01-.355.378 1.528 1.528 0 01-.93.328zm-1.77-1.04c.263 0 .526.167.768.323.238.151.48.303.749.368.167.04.339.04.5 0a1.308 1.308 0 00.8-.57c-.48-.419-1.158-.969-1.836-.918h-.071c-.37.05-.673.313-.92.797h.01z" fill="#860142"/><path fill-rule="evenodd" clip-rule="evenodd" d="M87.022 11.935a3.099 3.099 0 00-.703-.424 1.632 1.632 0 00-.915-.147h-.081c-.551-.055-.91-.676-1.092-1.842 1.153-.07 1.825.147 2.023.651a.143.143 0 010 .066 3.68 3.68 0 00.95 1.771c.587.631.248.273-.192-.07l.01-.005z" fill="#FBA407"/><path d="M87.528 12.52c-.07 0-.146-.06-.232-.141-.091-.081-.233-.197-.38-.318l-.197-.152h.005a3.177 3.177 0 00-.465-.252 1.477 1.477 0 00-.83-.136h-.1c-.653-.066-1.053-.712-1.255-1.978l-.025-.177.177-.01c1.244-.076 1.957.171 2.185.752.01.045.015.086.015.116.142.626.455 1.2.905 1.665.425.454.425.454.314.57-.046.046-.081.06-.117.06zm-1.906-1.332c.258 0 .526.06.769.176.06.025.12.056.177.086a3.897 3.897 0 01-.47-1.176l-.01-.035.01-.035c-.153-.379-.719-.56-1.675-.53.177.969.486 1.483.92 1.529h.066c.066-.01.142-.015.213-.015z" fill="#860142"/><path fill-rule="evenodd" clip-rule="evenodd" d="M112.23 30.59c-.37.536-.43 1.298-1.174 1.454-.227.04-.465.01-.673-.09l-.111-.056c-.152-.086-.141-.172-.111-.338.01-.046.02-.096.035-.142a1.13 1.13 0 01.253-.393c.536-.555 1.123-.293 1.781-.434z" fill="#F0A633"/><path d="M110.859 32.22a1.22 1.22 0 01-.546-.125l-.116-.056c-.263-.151-.228-.348-.198-.51.01-.055.026-.11.041-.161a1.34 1.34 0 01.293-.46c.405-.418.845-.423 1.265-.428.192 0 .394-.005.596-.05l.4-.087-.233.334c-.101.151-.182.328-.263.494-.192.419-.409.898-1.011 1.025a.877.877 0 01-.228.025zm1.067-1.427c-.111.005-.217.01-.323.01-.405.005-.724.01-1.037.333a.935.935 0 00-.218.338c-.01.03-.02.07-.03.116-.025.136-.025.136.03.166l.106.051c.178.086.38.111.572.076.435-.091.592-.44.779-.843.04-.08.076-.167.121-.247z" fill="#860142"/><path fill-rule="evenodd" clip-rule="evenodd" d="M112.715 34.144c-.925.161-2.468.075-2.332-2.02 1.852.132 1.993.763 2.332 2.02z" fill="#F0A633"/><path d="M112.128 34.355c-.445 0-.961-.095-1.346-.439-.424-.378-.612-.989-.561-1.801l.01-.162.162.01c1.937.137 2.134.868 2.463 2.08l.061.227-.177.03c-.162.03-.38.055-.612.055zm-1.593-2.058c-.016.625.141 1.09.46 1.377.43.384 1.077.389 1.512.333-.293-1.09-.47-1.574-1.972-1.71z" fill="#860142"/><path fill-rule="evenodd" clip-rule="evenodd" d="M108.867 34.103c.506-.373 1.29-.454 1.432-1.196.04-.227.005-.46-.102-.666a.475.475 0 00-.06-.111c-.086-.151-.172-.141-.339-.111l-.142.04a1.28 1.28 0 00-.389.258c-.546.545-.273 1.13-.4 1.786z" fill="#F0A633"/><path d="M108.629 34.477l.076-.41c.04-.201.035-.398.035-.59-.005-.424-.005-.863.41-1.276a1.48 1.48 0 01.44-.293l.162-.046c.177-.035.379-.07.526.187.025.03.05.081.071.131.116.217.156.49.111.752-.117.596-.587.823-1.007 1.025-.177.085-.349.166-.49.272l-.334.248zm1.3-2.317a.622.622 0 00-.106.015l-.127.036a1.153 1.153 0 00-.324.217c-.318.318-.313.636-.313 1.044 0 .101 0 .207-.005.318.081-.045.167-.086.248-.12.399-.193.743-.36.829-.793a.863.863 0 00-.086-.56.513.513 0 00-.045-.091c-.021-.05-.031-.066-.071-.066z" fill="#860142"/><path fill-rule="evenodd" clip-rule="evenodd" d="M94.307 37.974c-.617-.197-1.371-.04-1.73-.707a1.09 1.09 0 01-.111-.666.203.203 0 01.025-.121c.04-.172.121-.187.288-.207h.147c.157.01.308.055.45.126.693.353.607 1.01.93 1.575z" fill="#FBA407"/><path d="M94.468 38.59l-.273-.485a3.597 3.597 0 00-.486-.086c-.46-.066-.986-.136-1.275-.676a1.225 1.225 0 01-.126-.767.317.317 0 01.03-.152c.071-.267.269-.292.42-.313h.167c.192.016.364.061.526.147.521.267.653.686.779 1.09.05.166.106.333.187.49l.056.014v.737h-.005zm-1.553-2.16h-.137c-.116.014-.116.014-.131.08l-.015.04v.02l-.01.051a.88.88 0 00.096.565c.212.394.591.45 1.037.51.086.01.177.025.263.04-.036-.1-.066-.201-.102-.297-.116-.374-.217-.697-.617-.899-.121-.06-.247-.1-.384-.11z" fill="#860142"/><path fill-rule="evenodd" clip-rule="evenodd" d="M91.038 39.457c-.424-.837-.784-2.336 1.28-2.816.41 1.807-.152 2.125-1.28 2.816z" fill="#FBA407"/><path d="M90.973 39.684l-.08-.156c-.218-.43-.537-1.262-.198-1.978.243-.52.779-.878 1.583-1.065l.157-.035.035.156c.43 1.897-.187 2.276-1.31 2.962l-.187.116zm1.224-2.846c-.617.172-1.021.454-1.204.848-.242.52-.06 1.14.117 1.54.976-.602 1.386-.914 1.087-2.388z" fill="#860142"/><path fill-rule="evenodd" clip-rule="evenodd" d="M89.966 35.788c.506.4.81 1.106 1.563 1.01.227-.03.445-.132.612-.288l.086-.09c.121-.127.086-.208 0-.354a.647.647 0 00-.076-.126 1.27 1.27 0 00-.36-.298c-.682-.368-1.162.066-1.83.131l.005.015z" fill="#FBA407"/><path d="M91.393 36.964c-.526 0-.85-.358-1.143-.67a3.007 3.007 0 00-.385-.38l-.04-.03-.08-.252.201-.02c.203-.02.395-.08.582-.136.405-.127.825-.253 1.34.025.157.086.294.197.41.338.04.05.07.106.096.161.07.121.182.308-.03.53l-.086.091a1.257 1.257 0 01-.708.338c-.056.005-.106.005-.157.005zm-1.093-1.09c.066.066.127.136.188.202.303.333.566.616 1.016.56a.917.917 0 00.521-.247l.081-.086a.145.145 0 00.035-.045c0-.02-.04-.091-.055-.116-.025-.05-.04-.081-.066-.111a.996.996 0 00-.308-.253c-.4-.212-.703-.12-1.093 0a2.95 2.95 0 01-.319.096z" fill="#860142"/><path fill-rule="evenodd" clip-rule="evenodd" d="M82.107 23.072c.03-.646-.319-1.332.232-1.852.172-.157.39-.252.617-.278h.127c.172 0 .212.07.273.227.02.046.035.091.04.142a1.01 1.01 0 010 .464c-.162.757-.799.843-1.284 1.307l-.005-.01z" fill="#FBA407"/><path d="M82.066 23.344l-.116-.232-.005-.055a2.992 2.992 0 00-.04-.555c-.056-.465-.127-.985.323-1.408a1.27 1.27 0 01.708-.323h.147c.298 0 .369.191.425.333a.64.64 0 01.05.181c.04.157.04.343-.005.52-.121.57-.49.808-.85 1.035-.161.106-.333.212-.48.353l-.157.151zm.89-2.245a.904.904 0 00-.505.237c-.324.308-.279.686-.223 1.13.01.096.025.187.03.283.091-.066.182-.121.268-.177.344-.217.612-.388.709-.832a.863.863 0 000-.394.292.292 0 00-.03-.111c-.052-.136-.052-.136-.127-.136h-.122z" fill="#860142"/><path fill-rule="evenodd" clip-rule="evenodd" d="M79.826 20.306c.698-.625 2.059-1.362 3.035.505-1.644.848-2.1.404-3.035-.505z" fill="#FBA407"/><path d="M81.424 21.422c-.678 0-1.108-.42-1.71-1l-.126-.12.126-.117c.36-.323 1.083-.842 1.867-.701.561.1 1.041.525 1.42 1.251l.077.142-.147.075c-.637.328-1.113.47-1.507.47zm-1.36-1.11c.809.777 1.223 1.09 2.574.428-.319-.55-.693-.862-1.113-.938-.567-.101-1.118.232-1.462.51z" fill="#860142"/><path fill-rule="evenodd" clip-rule="evenodd" d="M83.119 18.318c-.253.596-.86 1.065-.587 1.771.086.212.238.389.435.505l.111.06c.152.081.218.03.344-.085a.652.652 0 00.096-.106c.096-.126.162-.268.198-.424.182-.752-.36-1.1-.597-1.731v.01z" fill="#FBA407"/><path d="M83.21 20.851a.412.412 0 01-.208-.06l-.111-.06a1.214 1.214 0 01-.506-.586c-.222-.575.06-1.02.314-1.413.096-.146.192-.298.258-.454v-.863l.313.832a2.8 2.8 0 00.284.53c.222.359.455.727.318 1.297a1.186 1.186 0 01-.344.61c-.08.077-.177.167-.318.167zm-.096-2.175c-.046.081-.097.157-.147.233-.243.373-.45.701-.288 1.12.07.171.202.328.369.424l.106.055c.035.02.05.02.05.02.02-.005.081-.06.107-.08a.381.381 0 00.076-.081.925.925 0 00.171-.363c.107-.445-.06-.712-.278-1.055-.055-.09-.11-.177-.166-.273z" fill="#860142"/><path fill-rule="evenodd" clip-rule="evenodd" d="M92.454 7.236c.602-.242 1.083-.842 1.786-.555.212.091.39.248.505.444l.061.106c.076.157.025.222-.096.344a.646.646 0 01-.106.095 1.217 1.217 0 01-.43.192c-.754.167-1.098-.378-1.725-.626h.005z" fill="#FBA407"/><path d="M93.9 8.054c-.404 0-.697-.192-.985-.379a2.936 2.936 0 00-.526-.292l-.79-.313h.825c.157-.066.308-.162.46-.252.4-.248.85-.525 1.416-.288.248.106.45.283.582.51l.06.106c.137.282-.004.423-.12.535a.704.704 0 01-.127.11 1.341 1.341 0 01-.49.218.944.944 0 01-.304.045zm-1.082-.818c.097.056.188.111.274.172.338.222.612.394 1.047.298a1.01 1.01 0 00.369-.167.543.543 0 00.08-.07c.102-.101.102-.101.072-.167l-.056-.096a.912.912 0 00-.43-.373c-.415-.172-.744.03-1.123.267-.076.04-.152.091-.233.136z" fill="#860142"/><path fill-rule="evenodd" clip-rule="evenodd" d="M94.027 4.032c.865.378 2.1 1.307.81 2.987-1.467-1.13-1.24-1.736-.81-2.987z" fill="#FBA407"/><path d="M94.867 7.241l-.127-.1c-1.542-1.191-1.304-1.878-.875-3.13l.056-.166.172.03c.445.192 1.219.636 1.416 1.403.142.556-.04 1.171-.546 1.827l-.096.136zm-.744-2.987c-.369 1.085-.49 1.59.683 2.533.37-.525.5-.999.39-1.418-.142-.56-.678-.918-1.073-1.115z" fill="#860142"/><path fill-rule="evenodd" clip-rule="evenodd" d="M97.234 6.177c-.647 0-1.325-.338-1.856.202a1.046 1.046 0 00-.288.615v.121c0 .177.06.212.217.278a1.035 1.035 0 00.607.045c.764-.146.855-.782 1.33-1.261h-.01z" fill="#FBA407"/><path d="M95.681 7.625c-.09 0-.182-.01-.273-.03a.72.72 0 01-.167-.056c-.177-.075-.313-.151-.313-.424v-.12c.03-.283.151-.536.334-.727.44-.45.976-.374 1.451-.303.172.025.354.05.526.05h.4l-.273.273c-.147.146-.253.313-.36.474-.232.353-.475.722-1.052.833-.096.02-.182.03-.273.03zm.476-1.393c-.243 0-.466.056-.663.258a.921.921 0 00-.243.52v.1c0 .081 0 .081.117.126a.868.868 0 00.506.035c.45-.085.627-.352.85-.69.06-.091.12-.182.186-.273a3.661 3.661 0 01-.248-.035c-.177-.016-.349-.04-.505-.04z" fill="#860142"/><path d="M3.242 59.713l-1.83 5.637H0V53.224h1.199v9.058l1.249-3.835 1.775-5.223h1.512v12.141H4.522v-9.679l-1.28 4.027zm5.224.162v5.465H7.131V53.224h1.335v5.465h2.99v-5.465h1.355v12.141h-1.356v-5.49H8.466zm11.487-5.243c1.947 0 2.817 1.11 2.817 3.037v3.326c0 1.928-.865 3.038-2.817 3.038h-.85v1.337h-1.34v-1.337h-.85c-1.947 0-2.817-1.11-2.817-3.038v-3.326c0-1.927.865-3.037 2.817-3.037h.85v-1.408h1.34v1.423l.85-.015zm-3.04 1.196c-1.027 0-1.477.585-1.477 1.75v3.488c0 1.165.45 1.766 1.477 1.766h.85v-7.005h-.85zm3.04 7.009c1.026 0 1.502-.606 1.502-1.766v-3.487c0-1.166-.456-1.752-1.502-1.752h-.85v7.005h.85zm4.031-6.697c0-1.857.92-3.053 2.777-3.053 1.856 0 2.777 1.196 2.777 3.053v6.278c0 1.842-.92 3.053-2.777 3.053-1.856 0-2.777-1.216-2.777-3.053V56.14zm1.34 6.354c0 1.11.471 1.75 1.447 1.75.971 0 1.447-.64 1.447-1.75v-6.42c0-1.11-.456-1.75-1.447-1.75-.986 0-1.446.66-1.446 1.75v6.42zm8.188-9.27c1.912 0 2.726 1.11 2.726 2.967v1.468c0 1.928-.905 2.932-2.832 2.932h-1.199v4.79h-1.355V53.223h2.66zm-.106 6.14c1.011 0 1.492-.463 1.492-1.629v-1.63c0-1.11-.4-1.66-1.391-1.66h-1.305v4.905l1.204.015zm8.375 5.971h-1.32l-2.018-9.659v9.679H37.26V53.229h1.896l1.998 9.699 1.927-9.7h1.897V65.37h-1.285v-9.78l-1.912 9.745zm5.983-2.428l-.47 2.443h-1.25l2.327-12.126h1.968L52.68 65.35h-1.356l-.465-2.442h-3.096zm.172-1.165h2.711l-1.37-7.005-1.34 7.005zM59.15 66.98v-1.63h-5.3V53.224h1.34v10.915h2.989V53.224h1.37v10.945h.911v2.826l-1.31-.015zm5.679-7.232l-1.791 5.602h-1.411V53.224h1.199v9.058l1.077-3.326 1.947-5.707h1.512V65.39h-1.218v-9.699l-1.316 4.057zm7.061.414c-1.114 0-1.776.44-1.776 1.807v1.907c.04.5-.036 1.01-.223 1.474h-1.375c.192-.46.278-.959.242-1.458v-1.893c0-1.302.415-2.215 1.518-2.533-1.027-.328-1.502-1.166-1.502-2.498v-.974c0-1.801.799-2.77 2.716-2.77h2.71v12.141h-1.355v-5.188l-.956-.015zm-.37-5.717c-1.012 0-1.411.555-1.411 1.66v1.166c0 1.317.642 1.66 1.704 1.66h1.027V54.44l-1.32.005zm14.825 1.695v1.11H85.06v-1.16c0-1.11-.44-1.751-1.426-1.751-.987 0-1.427.66-1.427 1.75v6.42c0 1.11.456 1.75 1.427 1.75.97 0 1.426-.66 1.426-1.75v-1.58h1.285v1.51c0 1.841-.865 3.052-2.747 3.052-1.876 0-2.73-1.216-2.73-3.053V56.14c0-1.842.87-3.053 2.73-3.053 1.862 0 2.747 1.211 2.747 3.053zm1.128 0c0-1.857.92-3.053 2.776-3.053 1.857 0 2.777 1.196 2.777 3.053v6.278c0 1.842-.92 3.053-2.777 3.053-1.856 0-2.776-1.216-2.776-3.053V56.14zm1.315 6.354c0 1.11.47 1.75 1.446 1.75.971 0 1.447-.64 1.447-1.75v-6.42c0-1.11-.456-1.75-1.447-1.75-.991 0-1.446.66-1.446 1.75v6.42zm13.671-9.27c1.896 0 2.64.903 2.64 2.69v.554c0 1.282-.359 2.08-1.421 2.412 1.178.328 1.633 1.262 1.633 2.6v1.024c0 1.816-.89 2.84-2.777 2.84h-2.776v-12.12h2.701zm-.334 5.157c1.077 0 1.633-.348 1.633-1.615v-.716c0-1.075-.359-1.59-1.34-1.59h-1.34v3.916h1.047v.005zm.399 5.758c.987 0 1.447-.52 1.447-1.66v-1.075c0-1.353-.556-1.802-1.705-1.802h-1.183v4.527l1.441.01zm6.085-4.058l-.713 1.197v4.072h-1.335V53.224h1.355v5.863l3.212-5.863h1.37l-3.075 5.54 3.181 6.606h-1.39l-2.605-5.289zm8.689 2.599c-.415 1.822-1.042 2.77-3.257 2.69v-1.216c1.042.05 1.517-.278 1.74-1.196l.283-.797-2.777-8.953h1.356l1.234 4.22.834 3.052.713-3.053 1.113-4.219h1.36l-2.599 9.472zm8.967-6.54v1.11h-1.284v-1.16c0-1.11-.435-1.751-1.427-1.751-.996 0-1.426.66-1.426 1.75v6.42c0 1.11.455 1.75 1.426 1.75.972 0 1.427-.66 1.427-1.75v-1.58h1.284v1.51c0 1.841-.864 3.052-2.746 3.052-1.876 0-2.726-1.216-2.726-3.053V56.14c0-1.842.865-3.053 2.726-3.053s2.746 1.211 2.746 3.053zm1.128 0c0-1.857.92-3.053 2.776-3.053 1.856 0 2.777 1.196 2.777 3.053v6.278c0 1.842-.921 3.053-2.777 3.053s-2.776-1.216-2.776-3.053V56.14zm1.34 6.354c0 1.11.47 1.75 1.446 1.75.971 0 1.447-.64 1.447-1.75v-6.42c0-1.11-.45-1.75-1.447-1.75-.996 0-1.446.66-1.446 1.75v6.42zm10.014 2.841h-1.305l-1.993-9.659v9.679h-1.183V53.229h1.896l1.998 9.699 1.932-9.7h1.897V65.37h-1.29v-9.78l-1.952 9.745zM17.94 24.949l-.304-1.045c5.897-1.105 9.888-3.986 9.888-10.36 0-8.518-6.697-11.4-14.253-11.606V32.18c0 7.646 1.169 9.195 8.846 10.169v1.04a673.278 673.278 0 00-22.117 0v-1.04c7.561-.727 7.617-3.487 7.617-10.169V11.218c0-6.056-.37-8.892-7.126-9.442V.671c4.91 0 9.827-.12 14.743-.12 7.677 0 18.551 1.225 18.551 11.156.005 9.134-7.96 12.319-15.845 13.242z" fill="#fff"/><path d="M66.418 43.459c-11.795-.121-23.529-.06-35.328-.06v-1.05c7.682-.545 7.986-3.487 7.986-10.416v-20.78c0-6.682-.92-8.705-7.986-9.377V.671c7.192.126 14.318.126 21.505 0v1.105c-6.944.55-7.925 2.821-7.925 9.376V33.1c0 8.155-.248 8.523 8.046 8.523 9.524 0 11.921-1.902 16.408-10.178l.799.368-3.505 11.647zm86.4-28.416c-3.93 9.472-7.794 18.883-11.547 28.416h-.637L126.857 9.956c-1.639-4.037-3.282-8.185-8.32-8.361V.545c6.327.116 12.654.116 18.987 0v1.05c-2.17 0-5.918.353-5.918 3.275 0 4.501 10.545 27.946 11.193 29.581.758-1.811 10.899-24.495 10.899-29.112 0-3.391-4.046-3.628-6.575-3.744V.545c5.624.116 11.248.116 16.878 0v1.05c-6.439 0-9.135 8.538-11.183 13.448z" fill="#fff"/></svg>