<svg width="164" height="67" viewBox="0 0 164 67" fill="none" xmlns="http://www.w3.org/2000/svg">
<path fill-rule="evenodd" clip-rule="evenodd" d="M98.3314 0.545013C110.207 0.545013 119.837 10.1532 119.837 22.002C119.837 33.8507 110.207 43.4589 98.3314 43.4589C86.456 43.4589 76.8262 33.8507 76.8262 22.002C76.8262 10.1482 86.456 0.545013 98.3314 0.545013Z" fill="white"/>
<path d="M98.3307 43.9989C86.1721 43.9989 76.2793 34.1283 76.2793 21.9969C76.2793 9.86556 86.1721 0 98.3307 0C110.489 0 120.382 9.8706 120.382 22.002C120.382 34.1333 110.489 43.9989 98.3307 43.9989ZM98.3307 1.08496C86.774 1.08496 77.3717 10.4661 77.3717 21.9969C77.3717 33.5278 86.774 42.9089 98.3307 42.9089C109.888 42.9089 119.295 33.5278 119.295 21.9969C119.295 10.4661 109.888 1.08496 98.3307 1.08496Z" fill="#860142"/>
<path fill-rule="evenodd" clip-rule="evenodd" d="M102.508 9.72424C102.205 10.4509 101.79 10.8698 100.667 10.7789C101.365 9.3054 100.576 8.94206 100.389 8.49294C100.273 8.21035 100.293 7.48368 100.556 7.29192C99.9289 7.08502 99.5445 7.70067 99.2208 8.21539C96.9803 8.64433 98.4267 10.9101 99.7266 9.93619C99.4029 10.9455 97.4456 11.8336 95.8119 9.39623C96.5807 8.07914 97.9058 8.19521 98.9275 7.53414C99.8834 6.38863 99.1095 4.73343 97.9159 4.80913C98.3964 3.96134 97.0511 2.74014 95.7158 3.32551C94.9268 1.81161 92.2463 2.1699 92.3221 4.13797C90.7796 3.80491 89.7174 6.23724 91.432 6.6914C90.6481 6.91849 90.203 7.74104 90.4306 8.51817C90.5469 8.91179 90.82 9.23475 91.1842 9.42146C92.3727 9.67378 93.6371 8.69479 94.8257 9.65359C94.1733 12.5098 92.0895 12.853 91.4219 12.0052C93.0049 12.4442 93.4146 9.75452 91.169 10.1532C90.6885 9.7848 90.3092 9.50725 89.7984 9.9261C90.0715 9.98161 90.2536 10.244 90.1979 10.5165V10.5216C90.1271 11.4955 90.0462 12.0355 91.2095 13.1456C90.1979 13.6503 89.3381 13.5443 88.797 12.9741C89.1611 12.4341 89.3685 11.8084 89.4039 11.1624C89.4747 9.74443 88.0029 8.87141 88.7615 7.63002C87.8866 7.34238 86.9307 7.61993 86.344 8.32641C86.3086 8.14979 86.1872 8.00849 86.0203 7.94794C86.8194 6.73177 87.7348 6.27256 89.0549 6.52992C89.2825 6.10098 89.2825 5.58626 89.0549 5.15732C90.5014 4.69306 90.3547 4.14806 91.0426 3.0631C89.5657 3.66866 88.2103 3.99162 87.047 5.18255C86.4704 5.76793 86.4401 6.32302 86.0355 6.974C85.7674 7.25155 85.469 7.50386 85.1504 7.7259C84.0478 7.87224 83.2335 8.40715 82.8997 8.37183C82.9857 9.01776 82.9958 9.67378 82.925 10.3197C82.7581 10.5266 82.5608 10.7032 82.3383 10.8496C81.7112 11.2886 81.1548 11.3542 80.6035 11.9547C79.4807 13.186 79.2784 15.4165 78.7575 16.9203C79.8348 16.1734 80.4417 16.0372 80.8261 14.5637C81.2509 14.7251 81.7263 14.6444 82.0753 14.3568C81.7162 13.1103 82.227 11.7781 83.3296 11.0867C83.4206 11.2684 83.5926 11.3996 83.7899 11.44C83.102 12.1717 82.4091 13.5998 82.7429 14.5082C83.9517 13.6806 85.3021 14.4526 86.7132 14.3013C87.3656 14.271 87.9978 14.059 88.539 13.6907C89.1459 14.1953 89.2471 14.9674 88.8374 16.012C87.6185 14.9169 87.1229 15.3358 86.1872 15.2853C85.8837 15.2853 85.6814 14.9825 85.5853 14.6797C85.2262 15.1591 85.2718 15.8252 85.6966 16.2491C85.4538 18.5149 88.2254 17.98 87.7197 16.4308C88.6149 17.0364 88.0636 19.1003 85.2515 19.9632C84.2096 18.8429 85.12 17.6823 84.7862 16.5166C83.9618 15.2701 82.2169 15.6234 81.9387 16.7992C80.9272 15.7899 79.2582 16.7992 79.6982 18.3131C78.0342 18.631 77.7662 21.0734 79.3037 21.7294C78.54 23.102 79.9309 24.4393 81.1498 23.6925C81.1498 24.8985 82.7884 25.6353 83.8657 24.6008C84.4524 23.536 83.8202 22.1987 85.0846 21.3409C87.6387 22.7942 87.7146 24.9288 86.7081 25.3174C87.5882 23.9296 84.9835 22.7942 84.7154 25.055C84.2046 25.3729 84.0124 26.0239 84.2602 26.5689C84.3867 26.2812 84.6699 26.0996 84.9835 26.1046C85.904 26.2661 86.2985 26.7859 87.7247 25.9835C87.8916 27.0937 87.6236 27.8304 86.9206 28.1837C86.521 27.7093 85.995 27.3611 85.4033 27.1744C84.063 26.6698 82.9351 27.8506 81.9539 26.7606C81.4127 27.5075 81.3824 28.5066 81.8831 29.2838C81.6808 29.2737 81.4836 29.3595 81.3521 29.5159C80.4518 28.5823 80.2697 27.1744 80.9019 26.044C80.6339 25.6807 80.1888 25.4839 79.7387 25.5394C79.7387 24.0255 79.152 23.7429 78.2871 22.7639C78.4388 24.3485 78.1101 26.5689 78.9092 28.0272C79.3037 28.7438 79.8297 28.9356 80.3355 29.5109C80.5125 29.7077 80.6642 29.9247 80.7805 30.1618C80.5934 31.2518 80.7805 32.0845 80.6693 32.3923C80.998 32.4377 81.6049 33.0534 82.6418 33.447C82.7884 33.669 82.8997 33.9062 82.9806 34.1585C83.2183 34.8852 83.1172 35.4352 83.537 36.1367C84.3917 37.5648 86.4755 38.4075 87.7652 39.3411C87.3606 38.0997 87.4061 37.479 86.1063 36.6867C86.3844 36.3284 86.4451 35.849 86.2681 35.4302C84.9582 35.405 83.8253 34.5269 83.4813 33.2653C83.6836 33.23 83.8556 33.1089 83.9517 32.9272C84.3664 33.7447 85.2414 34.2292 86.1568 34.1383C85.7118 32.7405 87.2796 32.357 87.5426 30.9642C87.7045 30.3586 87.6893 29.7228 87.5072 29.1223C88.1647 28.6833 88.9386 28.8145 89.8186 29.5109C88.4176 30.3536 88.6756 30.9491 88.3569 31.8271C88.2103 32.1047 87.9068 32.2611 87.5983 32.2258C87.9473 32.7001 88.5896 32.8465 89.1156 32.579C91.2145 33.4672 91.518 30.6463 89.8742 30.722C90.7138 30.0407 92.5295 31.1661 92.5295 34.098C91.1538 34.7691 90.3041 33.558 89.0903 33.5429C87.6539 33.9617 87.487 35.733 88.534 36.3436C87.2797 37.0299 87.75 38.9021 89.328 38.9172C89.151 40.6027 91.4118 41.5665 92.489 40.2898C92.9645 40.8853 93.8344 40.9812 94.4312 40.5068C94.851 40.1687 95.0381 39.6186 94.9066 39.0938C96.0699 39.437 97.2483 38.0846 96.5655 36.7725C95.7209 35.8995 94.2542 36.1165 93.799 34.6581C95.9333 32.6396 98.0019 33.1896 98.0879 34.2645C97.0106 33.0231 95.1595 35.1779 97.2534 36.0913C97.4102 36.6716 97.9665 37.045 98.5633 36.9643C98.3307 36.7574 98.2396 36.4344 98.3357 36.1417C98.7555 35.3091 99.3472 35.082 99.0185 33.4874C100.131 33.6488 100.758 34.1182 100.89 34.8953C100.323 35.1426 99.8429 35.5463 99.4939 36.0559C98.6493 37.1964 99.4231 38.6043 98.0929 39.225C98.6493 39.9568 99.5951 40.2747 100.48 40.0224C100.414 40.2141 100.44 40.4261 100.551 40.5976C99.3928 41.1881 97.9867 40.9559 97.0865 40.0173C96.6616 40.1687 96.3531 40.5421 96.2772 40.9862C94.8105 40.5674 94.3857 41.0215 93.1921 41.5615C94.7549 41.8794 96.7881 42.8382 98.4166 42.5001C99.2208 42.3336 99.5546 41.8844 100.253 41.5665C100.495 41.4555 100.748 41.3798 101.006 41.3344C102.018 41.839 102.862 41.8794 103.12 42.0913C103.257 41.7886 104.021 41.3899 104.703 40.5118C104.956 40.4412 105.219 40.4008 105.482 40.3958C106.251 40.3958 106.747 40.638 107.546 40.4412C109.159 40.0425 110.58 38.2965 111.845 37.3377C110.535 37.3377 109.953 37.1359 108.81 38.1502C108.547 37.7868 108.102 37.5951 107.657 37.6455C107.257 38.8768 106.089 39.6994 104.789 39.6641C104.82 39.4622 104.749 39.2604 104.602 39.1191C105.507 38.9576 106.221 38.2662 106.408 37.368C104.936 37.368 105.022 35.7784 103.763 35.1173C103.232 34.7994 102.62 34.6329 102.003 34.648C101.775 33.8911 102.119 33.1947 103.044 32.5488C103.444 34.1333 104.091 34.0626 104.845 34.6177C105.067 34.8347 105.133 35.1678 105.007 35.4554C105.578 35.2637 105.912 34.6733 105.791 34.0879C107.252 32.357 104.622 31.2468 104.218 32.8515C103.808 31.8423 105.411 30.4394 108.229 31.2821C108.471 32.796 107.07 33.2552 106.711 34.4108C106.711 35.9247 108.355 36.5707 109.24 35.7481C109.397 36.4899 110.13 36.9693 110.879 36.8078C111.41 36.6968 111.83 36.278 111.941 35.7481C113.504 36.3991 115.082 34.5168 114.166 33.119C114.874 32.8364 115.218 32.034 114.93 31.3275C114.728 30.828 114.252 30.4899 113.716 30.4646C114.379 29.4554 113.433 27.9415 111.961 28.2089C110.884 28.7691 110.666 30.2274 109.139 30.2274C107.819 27.6034 108.942 25.7867 109.994 26.0138C108.476 26.6849 110.029 29.0718 111.511 27.3409C112.113 27.3561 112.634 26.9272 112.73 26.3317C112.467 26.5033 112.133 26.5033 111.87 26.3317C111.192 25.6908 111.152 25.0398 109.523 24.9137C109.999 23.9044 110.631 23.4351 111.415 23.531C111.491 24.1416 111.739 24.7169 112.123 25.1963C112.973 26.3317 114.551 25.9986 114.763 27.4469C115.628 27.134 116.204 26.3165 116.215 25.3981C116.381 25.5192 116.589 25.5546 116.786 25.494C117.024 26.7707 116.392 28.0474 115.233 28.6379C115.259 29.087 115.522 29.4907 115.926 29.6925C115.107 30.9693 115.421 31.5092 115.598 32.8061C116.356 31.4032 117.873 29.7329 118.005 28.0828C118.076 27.2653 117.742 26.8161 117.641 26.0642C117.605 25.8018 117.605 25.5394 117.641 25.277C118.405 24.4645 118.698 23.6622 118.976 23.4755C118.723 23.2585 118.561 22.4107 117.919 21.5074C117.924 21.245 117.959 20.9826 118.03 20.7303C118.238 19.9935 118.627 19.5948 118.668 18.7723C118.748 17.1121 117.479 15.2399 116.923 13.7714C116.574 15.0279 116.189 15.5225 116.832 16.9001C116.407 17.0465 116.088 17.4098 116.002 17.8539C117.059 18.5906 117.514 19.9279 117.115 21.1542C116.933 21.0633 116.72 21.0633 116.538 21.1542C116.65 20.2408 116.184 19.3577 115.375 18.9237C114.97 20.3316 113.448 19.7866 112.457 20.8009C111.991 21.2399 111.653 21.79 111.476 22.4056C110.687 22.4056 110.115 21.8657 109.771 20.7959C111.405 20.8766 111.526 20.2357 112.3 19.6857C112.578 19.5444 112.912 19.5797 113.155 19.7765C113.134 19.176 112.674 18.6865 112.072 18.631C110.828 16.7235 109.002 18.8985 110.408 19.7513C109.331 19.8472 108.451 17.9043 110.085 15.467C111.602 15.6789 111.632 17.1524 112.614 17.8438C113.423 18.1516 114.328 17.7479 114.637 16.9405C114.773 16.5822 114.773 16.1835 114.637 15.8252C116.063 15.9564 116.715 14.1398 115.415 13.2466C116.503 11.9497 115.168 9.89077 113.559 10.35C113.281 8.80581 111.354 8.64938 110.884 9.99674C110.11 9.06822 108.385 9.52239 108.203 11.006C108.426 12.1969 109.761 12.8378 109.326 14.3013C106.428 14.8059 105.012 13.181 105.543 12.2424C105.745 13.8723 108.481 13.1103 107.257 11.1877C107.45 10.6225 107.192 10.0018 106.656 9.73434C106.742 10.0321 106.635 10.355 106.388 10.5468C105.573 11.006 104.941 10.8496 104.364 12.3685C103.53 11.6166 103.277 10.8546 103.596 10.1582C104.203 10.2692 104.83 10.2036 105.401 9.97151C106.742 9.49716 106.883 7.89243 108.335 8.11951C108.284 7.21118 107.682 6.4189 106.817 6.13126C106.979 6.0152 107.075 5.82848 107.08 5.62663C108.365 5.77802 109.392 6.75701 109.609 8.02868C110.049 8.1397 110.515 8.00849 110.828 7.68048C111.809 8.84114 112.416 8.68975 113.711 8.91179C112.588 7.78141 111.44 5.85371 109.892 5.22797C109.134 4.92015 108.603 5.10686 107.869 4.9807C107.606 4.94033 107.354 4.86464 107.111 4.75866C106.559 3.79482 105.877 3.27505 105.781 2.95713C105.497 3.1287 104.643 3.03787 103.586 3.38606C103.333 3.30532 103.095 3.1943 102.872 3.04796C102.225 2.63416 101.957 2.14467 101.188 1.86712C99.6204 1.29689 97.4759 1.963 95.8827 2.05384C96.9853 2.76032 97.3394 3.27 98.8516 3.0631C98.8617 3.51727 99.1197 3.92602 99.5192 4.13797C100.541 3.3356 101.967 3.30028 103.024 4.05218C102.893 4.20357 102.837 4.41047 102.878 4.60727C102.038 4.23385 101.052 4.41551 100.399 5.06144C101.628 5.86381 100.662 7.15062 101.34 8.39706C101.613 8.95216 102.033 9.41642 102.554 9.74443L102.508 9.72424Z" fill="#00787C"/>
<path d="M97.6836 42.7272C96.6923 42.7272 95.6201 42.4042 94.649 42.1166C94.1179 41.9601 93.6223 41.8087 93.162 41.7179L92.6714 41.617L93.1266 41.4101C93.334 41.3142 93.5161 41.2234 93.688 41.1426C94.472 40.7541 95.003 40.4916 96.1612 40.7843C96.2877 40.3604 96.6114 40.0173 97.0362 39.8609L97.1374 39.8255L97.2082 39.9012C98.0123 40.7389 99.2768 40.9862 100.339 40.5169C100.303 40.426 100.288 40.3251 100.288 40.2292C99.4184 40.3756 98.508 40.0324 97.9719 39.3209L97.8505 39.1645L98.0326 39.0787C98.7103 38.7608 98.7761 38.2359 98.8519 37.5698C98.8722 37.4134 98.8924 37.2469 98.9177 37.0803L98.5889 37.1257C97.9415 37.2115 97.3245 36.823 97.1222 36.2073C96.4799 35.9045 96.1208 35.4352 96.141 34.9054C96.1612 34.4159 96.5001 33.9567 96.9755 33.7901C97.2082 33.7094 97.4459 33.7043 97.6634 33.78C97.5673 33.6993 97.451 33.6287 97.3144 33.5782C96.6266 33.3158 95.352 33.4571 93.9864 34.7086C94.2596 35.4504 94.8361 35.6875 95.4481 35.9348C95.8831 36.1114 96.3281 36.2982 96.6822 36.6615L96.7075 36.7019C97.0565 37.373 96.9856 38.1401 96.5153 38.7002C96.1461 39.1443 95.6201 39.3613 95.0991 39.3007C95.1396 39.8053 94.9322 40.31 94.5276 40.6329C93.9106 41.1224 93.0305 41.0669 92.4843 40.527C91.9431 41.0518 91.139 41.188 90.3803 40.8651C89.6065 40.5371 89.1412 39.8457 89.1513 39.0686C88.4281 39.003 87.8667 38.5488 87.6947 37.8776C87.543 37.2822 87.7554 36.7019 88.2409 36.3335C87.8414 35.9954 87.6391 35.4706 87.7099 34.9003C87.8009 34.1787 88.3117 33.5984 89.04 33.3814L89.0653 33.3763H89.0906C89.5964 33.3814 90.0415 33.5832 90.4663 33.775C91.0682 34.0475 91.6397 34.3049 92.368 33.992C92.3427 32.14 91.5689 31.1156 90.9063 30.8027C90.7748 30.7422 90.6433 30.7018 90.5219 30.6917C90.7242 30.7977 90.8861 30.9692 90.9872 31.1963C91.1896 31.6505 91.0935 32.2157 90.7495 32.5689C90.3753 32.9474 89.7886 33.013 89.126 32.7556C88.5444 33.013 87.8565 32.8414 87.4722 32.3217L87.2496 32.0239L87.6188 32.0643C87.8667 32.0895 88.0993 31.9684 88.2156 31.7514C88.2814 31.5698 88.3219 31.378 88.3623 31.1963C88.4837 30.6412 88.6 30.1164 89.5357 29.5008C88.8327 29.0012 88.2308 28.9002 87.6998 29.198C87.8565 29.7884 87.8616 30.4141 87.7048 31.0096C87.5885 31.6404 87.2092 32.0794 86.8754 32.468C86.4353 32.9777 86.0914 33.3814 86.319 34.0929L86.3797 34.2847L86.1825 34.3049C85.2923 34.3906 84.4224 33.9617 83.9419 33.2199C83.8711 33.2855 83.7851 33.341 83.6941 33.3763C84.0633 34.4764 85.1052 35.2485 86.2836 35.2687H86.3898L86.4303 35.3646C86.6073 35.7784 86.5719 36.2527 86.3443 36.6363C87.3457 37.2872 87.5076 37.8575 87.7503 38.7002C87.8009 38.8819 87.8566 39.0736 87.9274 39.2856L88.0791 39.7599L87.6745 39.4672C87.2952 39.1947 86.845 38.9273 86.3696 38.6447C85.2721 37.9937 84.0228 37.2519 83.4007 36.2174C83.1276 35.7582 83.0619 35.3545 82.9961 34.9609C82.9557 34.7237 82.9152 34.4764 82.8292 34.209C82.7584 33.9869 82.6623 33.775 82.5359 33.5782C81.9593 33.3511 81.5142 33.0584 81.1855 32.8465C80.9579 32.6951 80.7606 32.5689 80.6494 32.5538L80.4521 32.5286L80.5179 32.3418C80.5533 32.2409 80.5482 32.0088 80.5381 31.7464C80.528 31.3528 80.5128 30.8128 80.6089 30.1921C80.5027 29.9852 80.3661 29.7934 80.2144 29.6219C80.0273 29.4049 79.83 29.2434 79.6429 29.087C79.3394 28.8346 79.0208 28.5722 78.7679 28.1029C78.1863 27.0432 78.1812 25.5949 78.1762 24.3182C78.1762 23.7681 78.1711 23.2433 78.1256 22.7791L78.0801 22.2845L78.4088 22.6579C78.5606 22.8346 78.7072 22.986 78.8438 23.1273C79.4507 23.7631 79.8654 24.1971 79.9008 25.3729C80.3459 25.3779 80.7708 25.5899 81.0338 25.9532L81.0944 26.039L81.0439 26.1298C80.4673 27.1593 80.5988 28.4108 81.3625 29.2939C81.4434 29.2333 81.5294 29.1879 81.6255 29.1627C81.2209 28.3653 81.2866 27.4116 81.8278 26.6748L81.9441 26.5133L82.0756 26.6597C82.5713 27.2097 83.0872 27.1139 83.7447 26.9927C83.9015 26.9625 84.0684 26.9322 84.2403 26.912L84.1139 26.6395C83.8408 26.044 84.038 25.3375 84.564 24.9641C84.6652 24.2627 85.0141 23.7833 85.53 23.647C86.0054 23.5209 86.5416 23.7177 86.84 24.1214C86.9866 24.3182 87.0574 24.5402 87.0473 24.7724C87.0979 24.6613 87.1282 24.5301 87.1384 24.3838C87.194 23.6521 86.6882 22.4712 85.09 21.5326C84.4578 22.007 84.4022 22.6277 84.3364 23.2887C84.2909 23.753 84.2454 24.2324 84.0026 24.6765L83.9723 24.7168C83.421 25.2467 82.6522 25.3981 81.9745 25.1105C81.4485 24.8884 81.0944 24.4544 81.0034 23.9448C80.4471 24.1819 79.8401 24.076 79.3951 23.6521C78.8944 23.1777 78.778 22.4662 79.0764 21.8001C78.4088 21.4367 78.0396 20.705 78.1307 19.8825C78.2217 19.0498 78.7477 18.4039 79.4962 18.192C79.3495 17.4703 79.6277 16.7941 80.2346 16.4409C80.7606 16.1331 81.3726 16.1684 81.8582 16.5216C82.0605 16.0422 82.5055 15.6991 83.0669 15.6032C83.7902 15.472 84.4983 15.795 84.918 16.4308L84.9383 16.4762C85.0799 16.9607 85.0141 17.4401 84.9534 17.8993C84.8675 18.5553 84.7865 19.176 85.2974 19.7815C87.0676 19.2113 87.8211 18.1718 87.9324 17.4451C87.9577 17.2887 87.9526 17.1423 87.9223 17.0162C87.8768 17.2584 87.7503 17.4754 87.543 17.647C87.1586 17.9699 86.5921 18.0355 86.1622 17.8084C85.8891 17.6621 85.444 17.2735 85.525 16.3147C85.1001 15.8353 85.0647 15.1087 85.4542 14.5889L85.5654 14.4375C85.4238 14.4224 85.2873 14.4022 85.1456 14.382C84.3212 14.2659 83.5373 14.1599 82.8292 14.6444L82.6573 14.7605L82.5865 14.5637C82.2425 13.62 82.8899 12.2625 83.512 11.5056C83.421 11.4551 83.3451 11.3895 83.2794 11.3088C82.3386 11.9799 81.9087 13.1911 82.2274 14.3113L82.2577 14.4123L82.1768 14.4779C81.8278 14.7655 81.3676 14.8664 80.9377 14.7655C80.6039 15.911 80.1031 16.234 79.3597 16.7134C79.2029 16.8143 79.0309 16.9253 78.8488 17.0515L78.4392 17.3341L78.601 16.8648C78.7527 16.4207 78.8792 15.9161 79.0107 15.3812C79.3192 14.1398 79.6631 12.7369 80.4774 11.8437C80.8365 11.4551 81.2057 11.2734 81.5597 11.0968C81.7772 10.9909 82.0048 10.8798 82.2375 10.7133C82.4347 10.5821 82.6117 10.4257 82.7635 10.249C82.8242 9.62835 82.8141 9.00261 82.7331 8.38695L82.7078 8.1851L82.9152 8.20529C83.0164 8.22043 83.2692 8.1195 83.5272 8.01857C83.9217 7.86214 84.4578 7.65524 85.09 7.5644C85.3884 7.35246 85.6666 7.11528 85.9195 6.85287C86.0459 6.64093 86.1471 6.4088 86.2381 6.18676C86.3949 5.82342 86.5517 5.44495 86.931 5.06143C87.8869 4.08244 88.9642 3.67874 90.1072 3.24475C90.3904 3.13878 90.6838 3.02776 90.9771 2.90665L91.4475 2.71489L91.1744 3.14383C91.0024 3.41633 90.881 3.65351 90.7748 3.86545C90.4663 4.47606 90.2589 4.8949 89.2676 5.24814C89.4396 5.68717 89.4143 6.18171 89.1918 6.60056L89.1361 6.70653L89.0198 6.6813C87.8363 6.44917 87.0018 6.8125 86.2482 7.88737C86.2988 7.92774 86.3494 7.9782 86.3848 8.02867C87.017 7.40797 87.9425 7.18593 88.8074 7.46852L88.9996 7.53413L88.8934 7.7057C88.509 8.33649 88.772 8.8714 89.0805 9.48705C89.3182 9.96645 89.5913 10.5115 89.561 11.1624C89.5256 11.7932 89.3334 12.4038 88.9996 12.9438C89.4699 13.3626 90.1578 13.4131 90.9215 13.0901C89.915 12.0657 89.9555 11.4703 90.0212 10.5972L90.0364 10.461C90.0668 10.2945 89.9454 10.1128 89.7582 10.0775L89.4194 10.0119L89.6874 9.79488C90.2792 9.31043 90.7495 9.6334 91.2047 9.97655C92.1657 9.8302 92.5703 10.2289 92.7321 10.4862C92.9648 10.8697 92.9344 11.3946 92.6462 11.773C92.4742 12.0001 92.2416 12.1414 91.9735 12.1919C92.1758 12.2575 92.4135 12.2676 92.6613 12.2121C93.5667 12.0102 94.3051 11.0766 94.6389 9.71918C93.9966 9.24988 93.3239 9.37603 92.6158 9.50219C92.1353 9.59302 91.6397 9.68386 91.144 9.57789L91.1036 9.56275C90.699 9.36089 90.3955 8.99756 90.2691 8.56357C90.0516 7.83186 90.3753 7.06986 91.0075 6.69644C90.5068 6.41384 90.2792 5.89407 90.4258 5.28347C90.6029 4.55175 91.2958 3.87554 92.1505 3.95124C92.196 2.99244 92.8687 2.47267 93.511 2.30109C94.2747 2.09924 95.2761 2.32128 95.7769 3.12364C96.6063 2.83096 97.4054 3.15897 97.8202 3.61818C98.1135 3.94115 98.2248 4.31962 98.1388 4.65772C98.6193 4.71323 99.0542 5.0261 99.3021 5.5156C99.651 6.2019 99.5499 7.03454 99.0391 7.6401L99.0037 7.67038C98.6294 7.9126 98.2147 8.0539 97.8151 8.19519C97.1171 8.43237 96.4596 8.65946 95.9943 9.39622C96.9452 10.7638 97.891 10.8597 98.3714 10.789C98.7761 10.7335 99.0947 10.5367 99.3021 10.3146C99.0087 10.3853 98.7053 10.3348 98.4372 10.1734C98.0376 9.92608 97.8202 9.47696 97.896 9.05307C97.9466 8.77047 98.1742 8.28098 99.1099 8.07913C99.4386 7.55936 99.8786 6.91343 100.597 7.14556L100.895 7.24649L100.642 7.4332C100.47 7.55936 100.425 8.1851 100.531 8.44246C100.566 8.5232 100.627 8.60899 100.703 8.70992C100.976 9.07325 101.34 9.56275 100.9 10.6427C101.704 10.6477 102.048 10.3348 102.301 9.78983C101.826 9.45173 101.441 9.00765 101.189 8.48283C100.88 7.91765 100.895 7.33732 100.905 6.82259C100.921 6.15143 100.931 5.62157 100.303 5.21282L100.142 5.08666L100.283 4.94536C100.931 4.30953 101.861 4.09254 102.706 4.37008C102.721 4.2742 102.746 4.18337 102.792 4.09758C101.816 3.48698 100.526 3.54753 99.6106 4.26411L99.5296 4.32971L99.4386 4.27925C99.0391 4.0673 98.7659 3.67874 98.7002 3.23971C97.5116 3.36587 97.0261 3.03281 96.3029 2.53322C96.1461 2.42725 95.9792 2.31118 95.787 2.18503L95.3672 1.91757L95.8628 1.88729C96.3332 1.86206 96.8541 1.78132 97.4004 1.70058C98.6648 1.50882 100.096 1.29687 101.234 1.71067C101.735 1.89234 102.043 2.16484 102.342 2.42725C102.524 2.58873 102.711 2.75526 102.954 2.90665C103.151 3.03281 103.358 3.13878 103.581 3.20943C104.173 3.02272 104.704 2.96216 105.093 2.92179C105.366 2.89151 105.599 2.86628 105.695 2.81077L105.872 2.7048L105.933 2.90665C105.963 3.01262 106.125 3.19429 106.307 3.40624C106.565 3.69892 106.909 4.09758 107.217 4.62745C107.43 4.71828 107.657 4.77883 107.89 4.81921C108.163 4.86462 108.411 4.86967 108.654 4.86967C109.048 4.87471 109.458 4.87472 109.948 5.07657C111.071 5.53074 111.992 6.64597 112.801 7.63001C113.155 8.05894 113.489 8.46265 113.818 8.79571L114.172 9.15399L113.671 9.06821C113.438 9.02784 113.226 9.00261 113.029 8.97233C112.169 8.86131 111.587 8.78057 110.803 7.90755C110.459 8.19015 109.994 8.29107 109.559 8.18005L109.458 8.15482L109.443 8.04885C109.25 6.90838 108.345 6.00509 107.212 5.80324C107.187 5.89407 107.147 5.98491 107.096 6.0606C107.905 6.42394 108.441 7.20107 108.492 8.10436L108.502 8.30117L108.305 8.27089C107.566 8.15987 107.217 8.55853 106.782 9.06821C106.676 9.18932 106.565 9.32052 106.443 9.44668L106.722 9.58293C107.303 9.87057 107.597 10.5367 107.43 11.1574C107.794 11.768 107.824 12.3584 107.516 12.7873C107.227 13.181 106.686 13.3727 106.201 13.2466C105.958 13.186 105.761 13.0548 105.619 12.8731C105.654 12.9993 105.715 13.1254 105.801 13.2466C106.226 13.8521 107.369 14.4375 109.195 14.1499C109.382 13.3828 109.033 12.863 108.664 12.3079C108.406 11.9194 108.138 11.5207 108.042 11.0262L108.037 11.0009L108.042 10.9757C108.133 10.2188 108.628 9.61826 109.331 9.4164C109.883 9.25492 110.434 9.36594 110.834 9.70404C111.112 9.16913 111.653 8.86635 112.265 8.91682C112.953 8.97233 113.494 9.44668 113.686 10.1481C114.43 10.0068 115.183 10.3449 115.633 11.0363C116.088 11.7377 116.094 12.5754 115.648 13.2112C116.215 13.6755 116.427 14.3668 116.19 15.0128C115.977 15.5931 115.471 15.9564 114.859 15.9867C114.935 16.3198 114.915 16.668 114.789 16.9909C114.622 17.4199 114.303 17.763 113.878 17.9497C113.458 18.1364 112.988 18.1516 112.553 17.9901C112.108 17.6823 111.86 17.2786 111.617 16.885C111.269 16.3198 110.94 15.7849 110.161 15.6385C109.154 17.1928 109.225 18.4695 109.599 19.1003C109.675 19.2265 109.761 19.3274 109.857 19.4081C109.751 19.2063 109.711 18.9741 109.756 18.7319C109.842 18.2374 110.237 17.8236 110.717 17.7277C111.238 17.6217 111.764 17.8942 112.164 18.4745C112.806 18.5704 113.297 19.1104 113.317 19.7664L113.327 20.0793C113.504 20.0137 113.686 19.9632 113.853 19.9178C114.5 19.7361 115.011 19.5898 115.219 18.8732L115.274 18.6814L115.451 18.7773C116.255 19.2063 116.736 20.0339 116.716 20.9271C116.812 20.917 116.908 20.917 117.009 20.9422C117.302 19.8219 116.872 18.6512 115.911 17.9851L115.825 17.9245L115.846 17.8236C115.932 17.3845 116.22 17.0111 116.62 16.8143C116.149 15.7243 116.326 15.1541 116.589 14.3214C116.645 14.1398 116.705 13.948 116.766 13.731L116.898 13.2567L117.075 13.7209C117.237 14.1448 117.459 14.604 117.692 15.0885C118.253 16.2542 118.89 17.5713 118.83 18.7874C118.804 19.3274 118.632 19.7008 118.466 20.0641C118.364 20.2862 118.263 20.5133 118.187 20.7807C118.127 21.0028 118.091 21.2349 118.081 21.467C118.43 21.9716 118.638 22.4561 118.794 22.8144C118.906 23.0717 119.002 23.2938 119.083 23.3644L119.244 23.5007L119.067 23.6167C118.971 23.6824 118.845 23.8842 118.698 24.1214C118.491 24.4544 118.213 24.9036 117.798 25.3527C117.773 25.5848 117.773 25.8169 117.803 26.0491C117.838 26.3266 117.914 26.5638 117.98 26.7959C118.096 27.1744 118.213 27.568 118.167 28.1029C118.071 29.304 117.267 30.5151 116.554 31.5849C116.25 32.0441 115.962 32.4781 115.739 32.8868L115.502 33.3208L115.436 32.8313C115.406 32.6042 115.37 32.4024 115.34 32.2157C115.193 31.3528 115.092 30.7674 115.704 29.748C115.34 29.5008 115.102 29.092 115.072 28.6479L115.067 28.542L115.163 28.4915C116.2 27.9616 116.802 26.8262 116.655 25.6807C116.559 25.6857 116.458 25.6756 116.362 25.6454C116.26 26.5234 115.664 27.2854 114.819 27.5933L114.632 27.6589L114.602 27.462C114.495 26.7253 114.005 26.5133 113.388 26.2408C113.241 26.1752 113.089 26.1096 112.938 26.0339L112.887 26.3468C112.781 26.9927 112.229 27.4721 111.582 27.4923C111.107 28.0222 110.545 28.224 110.039 28.0474C109.574 27.8859 109.23 27.4267 109.21 26.9271C109.2 26.6849 109.266 26.4629 109.392 26.2812C109.291 26.3468 109.195 26.4376 109.109 26.5487C108.659 27.129 108.426 28.3906 109.235 30.0559C110.024 30.0205 110.419 29.5361 110.839 29.0214C111.132 28.6631 111.435 28.2896 111.886 28.0575L111.931 28.0424C112.685 27.9061 113.403 28.1988 113.807 28.8094C114.126 29.2888 114.182 29.849 113.969 30.3284C114.465 30.4343 114.89 30.7825 115.082 31.2619C115.234 31.6454 115.229 32.0592 115.072 32.4377C114.935 32.7607 114.698 33.018 114.399 33.1846C114.748 33.8507 114.647 34.6631 114.121 35.2939C113.585 35.9348 112.796 36.1821 112.057 35.955C111.886 36.4596 111.456 36.8482 110.92 36.9643C110.171 37.1257 109.433 36.7119 109.159 36.0206C108.719 36.3082 108.158 36.3537 107.637 36.1266C106.969 35.8389 106.56 35.1779 106.56 34.4108L106.565 34.3654C106.717 33.881 107.03 33.5176 107.339 33.1644C107.769 32.6648 108.178 32.1955 108.092 31.4083C106.307 30.9036 105.103 31.3427 104.608 31.8826C104.506 31.9936 104.436 32.1047 104.385 32.2207C104.552 32.0542 104.764 31.9482 105.012 31.9179C105.518 31.8523 106.029 32.1148 106.261 32.5437C106.514 33.008 106.408 33.5782 105.968 34.1282C106.064 34.7691 105.685 35.3949 105.063 35.6018L104.714 35.7178L104.86 35.3797C104.957 35.1577 104.906 34.8953 104.734 34.7237C104.577 34.6127 104.41 34.5168 104.248 34.426C103.748 34.1484 103.277 33.886 102.954 32.8061C102.271 33.336 102.003 33.881 102.129 34.4764C102.736 34.4865 103.328 34.6531 103.849 34.971C104.42 35.2687 104.734 35.7582 105.007 36.1871C105.371 36.7523 105.654 37.1964 106.408 37.1964H106.605L106.565 37.3882C106.383 38.2763 105.73 38.9677 104.876 39.2099C104.921 39.2957 104.946 39.3915 104.957 39.4925C106.11 39.4571 107.146 38.6901 107.506 37.585L107.536 37.484L107.642 37.4739C108.087 37.4235 108.527 37.585 108.831 37.9079C109.776 37.1157 110.383 37.1308 111.299 37.156C111.466 37.1611 111.648 37.1661 111.845 37.1661H112.326L111.941 37.4588C111.572 37.7414 111.188 38.0896 110.783 38.458C109.832 39.3209 108.76 40.2999 107.587 40.5875C107.05 40.7187 106.651 40.6683 106.226 40.6077C105.993 40.5774 105.756 40.5472 105.483 40.5472C105.255 40.5522 105.022 40.5825 104.8 40.643C104.415 41.1275 104.011 41.4656 103.712 41.7179C103.5 41.8945 103.318 42.051 103.272 42.1468L103.186 42.3386L103.024 42.2023C102.939 42.1317 102.711 42.0711 102.443 42.0005C102.064 41.8996 101.553 41.7633 100.986 41.4908C100.759 41.5362 100.536 41.6069 100.324 41.7028C100.066 41.8188 99.8584 41.9601 99.6561 42.0913C99.3223 42.3083 98.9784 42.5354 98.4574 42.6464C98.2045 42.707 97.9466 42.7272 97.6836 42.7272ZM93.6779 41.506C94.0168 41.5917 94.3708 41.6977 94.74 41.8087C95.9893 42.1822 97.279 42.5707 98.3816 42.3386C98.8469 42.2427 99.1503 42.0409 99.469 41.8289C99.6814 41.6876 99.9039 41.5413 100.182 41.4151C100.435 41.2991 100.703 41.2183 100.976 41.1729L101.027 41.1628L101.072 41.188C101.624 41.4656 102.139 41.6018 102.514 41.6977C102.741 41.7583 102.923 41.8087 103.065 41.8693C103.161 41.7532 103.313 41.6271 103.495 41.4757C103.808 41.2133 104.198 40.8853 104.572 40.4109L104.602 40.3705L104.653 40.3554C104.921 40.2797 105.194 40.2393 105.472 40.2343C105.771 40.2343 106.019 40.2696 106.261 40.2999C106.671 40.3554 107.025 40.4008 107.501 40.2847C108.593 40.0122 109.594 39.1039 110.56 38.2258C110.844 37.9685 111.122 37.7162 111.39 37.4891C111.354 37.4891 111.319 37.4891 111.284 37.484C110.348 37.4639 109.832 37.4437 108.912 38.2662L108.78 38.3823L108.674 38.2359C108.461 37.9483 108.123 37.7616 107.769 37.7919C107.324 38.9979 106.155 39.8205 104.865 39.8205C104.835 39.8205 104.81 39.8205 104.78 39.8205L104.597 39.8154L104.623 39.6338C104.643 39.4874 104.592 39.336 104.481 39.2301L104.248 39.008L104.562 38.9525C105.346 38.8163 105.968 38.2612 106.191 37.5143C105.412 37.4336 105.063 36.8936 104.724 36.3638C104.456 35.9449 104.178 35.516 103.677 35.2536C103.166 34.9457 102.584 34.7893 101.998 34.8044H101.876L101.841 34.6884C101.593 33.8608 101.962 33.0937 102.944 32.4125L103.136 32.2762L103.191 32.5033C103.48 33.6387 103.879 33.8658 104.39 34.1484C104.562 34.2443 104.739 34.3452 104.931 34.4815C105.123 34.6682 105.22 34.9104 105.22 35.1526C105.538 34.9205 105.705 34.5168 105.619 34.1131L105.604 34.0374L105.654 33.9768C106.049 33.5126 106.155 33.0584 105.958 32.6951C105.786 32.3822 105.397 32.1904 105.032 32.2359C104.835 32.2611 104.486 32.3772 104.36 32.8868L104.238 33.3662L104.051 32.907C103.884 32.4983 103.991 32.0441 104.345 31.6606C104.936 31.0096 106.277 30.5302 108.259 31.1206L108.355 31.1509L108.37 31.2518C108.527 32.246 108.032 32.8162 107.556 33.3713C107.263 33.7043 106.99 34.0223 106.858 34.431C106.868 35.0669 107.197 35.5866 107.743 35.8238C108.229 36.0357 108.755 35.955 109.114 35.6219L109.321 35.4302L109.382 35.7077C109.524 36.3638 110.171 36.7776 110.828 36.6413C111.299 36.5404 111.668 36.172 111.764 35.7077L111.805 35.516L111.987 35.5917C112.776 35.9197 113.484 35.521 113.848 35.082C114.207 34.648 114.47 33.8961 114.015 33.1997L113.909 33.0332L114.091 32.9575C114.394 32.8364 114.627 32.6042 114.758 32.3065C114.89 32.0088 114.89 31.6757 114.768 31.378C114.591 30.939 114.172 30.6412 113.696 30.616L113.413 30.6009L113.57 30.3637C113.838 29.9549 113.823 29.4251 113.524 28.981C113.266 28.5924 112.73 28.2291 112.002 28.3502C111.623 28.5521 111.36 28.8801 111.076 29.2232C110.611 29.7934 110.136 30.3788 109.124 30.3788H109.023L108.977 30.288C108.047 28.441 108.325 27.0079 108.841 26.3468C109.154 25.9431 109.594 25.7564 110.014 25.8472L110.5 25.9532L110.045 26.1551C109.569 26.367 109.513 26.7253 109.519 26.917C109.534 27.2804 109.792 27.6286 110.131 27.7446C110.53 27.8809 110.97 27.6992 111.375 27.2299L111.425 27.1694H111.501C111.916 27.1744 112.28 26.9473 112.457 26.5941C112.219 26.6395 111.972 26.589 111.764 26.4528C111.572 26.2711 111.44 26.1147 111.314 25.9582C110.945 25.5091 110.657 25.1508 109.493 25.06L109.261 25.0398L109.362 24.8279C109.873 23.7429 110.565 23.2484 111.42 23.3543L111.547 23.3695L111.562 23.4956C111.638 24.076 111.87 24.626 112.235 25.0802C112.578 25.5394 113.049 25.7413 113.504 25.9431C114.081 26.1954 114.672 26.4528 114.87 27.2097C115.568 26.8767 116.033 26.1651 116.038 25.383L116.043 25.0701L116.296 25.2568C116.417 25.3476 116.579 25.3729 116.726 25.3275L116.898 25.2719L116.933 25.4486C117.176 26.7505 116.544 28.0727 115.396 28.7135C115.451 29.0617 115.669 29.3696 115.987 29.531L116.149 29.6118L116.053 29.7632C115.411 30.7623 115.497 31.2518 115.648 32.145C115.659 32.2005 115.669 32.2561 115.679 32.3116C115.861 32.0138 116.063 31.706 116.276 31.3881C116.999 30.2981 117.747 29.1727 117.833 28.0575C117.874 27.5832 117.768 27.24 117.661 26.8716C117.586 26.6294 117.515 26.3771 117.469 26.0743C117.434 25.7968 117.434 25.5192 117.469 25.2417L117.474 25.1912L117.51 25.1559C117.924 24.7118 118.192 24.2829 118.41 23.9347C118.536 23.7278 118.638 23.5663 118.744 23.4502C118.658 23.3241 118.582 23.1424 118.486 22.9204C118.324 22.5469 118.127 22.0776 117.778 21.5881L117.747 21.5427V21.4922C117.752 21.2147 117.793 20.9422 117.864 20.6747C117.945 20.3821 118.056 20.1398 118.162 19.9128C118.324 19.5595 118.476 19.2315 118.496 18.7521C118.552 17.6217 117.935 16.34 117.388 15.2096C117.226 14.8765 117.07 14.5536 116.938 14.2457C116.923 14.3012 116.903 14.3517 116.888 14.4072C116.614 15.2701 116.468 15.7394 116.968 16.8244L117.044 16.9859L116.877 17.0464C116.539 17.1625 116.276 17.4401 116.18 17.7782C117.242 18.5704 117.677 19.9279 117.262 21.1945L117.201 21.3711L117.034 21.2854C116.898 21.2147 116.736 21.2197 116.604 21.2854L116.336 21.4216L116.372 21.1239C116.468 20.3366 116.109 19.5847 115.456 19.1508C115.163 19.8724 114.541 20.049 113.934 20.2206C113.453 20.3568 112.958 20.4931 112.563 20.9018C112.113 21.3207 111.789 21.8505 111.623 22.4359L111.587 22.552H111.466C110.601 22.552 109.974 21.9716 109.61 20.8312L109.539 20.6091L109.771 20.6192C110.94 20.6798 111.268 20.3619 111.693 19.9632C111.84 19.8219 111.997 19.6806 112.199 19.5393C112.437 19.4182 112.695 19.393 112.932 19.4636C112.806 19.0902 112.467 18.8127 112.052 18.7723L111.972 18.7672L111.931 18.7016C111.592 18.1869 111.183 17.9447 110.778 18.0305C110.429 18.1011 110.131 18.414 110.07 18.7723C110.034 18.964 110.045 19.3274 110.49 19.5948L110.909 19.8522L110.419 19.8976C109.994 19.9329 109.579 19.6958 109.316 19.2567C108.886 18.5351 108.795 17.0818 109.943 15.361L109.999 15.2752L110.1 15.2903C111.107 15.4316 111.506 16.0775 111.891 16.7033C112.123 17.0868 112.346 17.4451 112.7 17.6924C113.013 17.8084 113.398 17.7933 113.742 17.6419C114.086 17.4905 114.349 17.213 114.48 16.8597C114.602 16.5368 114.602 16.1835 114.48 15.8606L114.389 15.6183L114.647 15.6436C115.208 15.694 115.689 15.4013 115.876 14.8866C116.028 14.4627 115.977 13.8067 115.32 13.3576L115.173 13.2567L115.289 13.1204C115.836 12.4644 115.669 11.6772 115.355 11.1978C115.047 10.7234 114.404 10.2541 113.6 10.4862L113.428 10.5367L113.398 10.3601C113.256 9.58293 112.685 9.26501 112.235 9.22969C111.683 9.18932 111.218 9.50219 111.036 10.0321L110.94 10.2995L110.758 10.0775C110.444 9.70404 109.933 9.56275 109.422 9.71414C108.977 9.84534 108.467 10.244 108.37 10.9808C108.456 11.3996 108.689 11.7478 108.937 12.1162C109.347 12.7268 109.771 13.3576 109.483 14.3265L109.453 14.4224L109.352 14.4375C107.318 14.7907 106.029 14.1095 105.538 13.4181C105.24 12.9942 105.184 12.5148 105.402 12.1414L105.644 11.7125L105.705 12.1969C105.771 12.7117 106.095 12.8681 106.287 12.9186C106.636 13.0094 107.05 12.8681 107.258 12.5804C107.501 12.2423 107.455 11.773 107.121 11.2482L107.081 11.1826L107.106 11.1069C107.238 10.7234 107.121 10.3046 106.843 10.0321C106.813 10.2692 106.691 10.4913 106.489 10.6477C106.261 10.7789 106.074 10.8546 105.887 10.9253C105.351 11.1422 104.926 11.3138 104.517 12.3988L104.431 12.6208L104.254 12.4644C103.267 11.5762 103.202 10.8041 103.373 10.2642L102.59 9.91599C102.271 10.5922 101.79 11.011 100.652 10.9202L100.42 10.9L100.521 10.6881C101.022 9.6334 100.718 9.22464 100.45 8.8714C100.364 8.76038 100.288 8.65441 100.238 8.5333C100.137 8.29107 100.116 7.74607 100.273 7.39283C99.9292 7.41806 99.6713 7.7814 99.3628 8.27593L99.3273 8.33649L99.2565 8.35668C98.6597 8.47274 98.2956 8.7301 98.2298 9.08335C98.1793 9.37099 98.336 9.69395 98.6243 9.87057C98.9379 10.0623 99.3071 10.0321 99.6359 9.78983L100.04 9.48705L99.8837 9.9715C99.7016 10.5468 99.1149 10.9959 98.4321 11.0918C97.8606 11.1675 96.7479 11.0666 95.6808 9.47191L95.6251 9.38613L95.6757 9.30034C96.2017 8.39705 96.9755 8.12959 97.7241 7.87223C98.1135 7.73598 98.4827 7.60982 98.8216 7.39788C99.2312 6.89324 99.3122 6.20694 99.0289 5.64176C98.7963 5.18759 98.3765 4.92518 97.9314 4.95546L97.633 4.97564L97.7797 4.71828C97.9314 4.45082 97.8606 4.11777 97.5926 3.82003C97.2335 3.42137 96.5153 3.13878 95.787 3.46175L95.6403 3.53239L95.5695 3.39614C95.175 2.63919 94.2849 2.42725 93.6021 2.60892C92.8687 2.80068 92.454 3.37091 92.4793 4.12786L92.4894 4.33476L92.2871 4.28934C91.5335 4.12281 90.9013 4.71323 90.7495 5.35412C90.699 5.57111 90.5927 6.29778 91.4728 6.52991L92.0342 6.67625L91.4778 6.83773C90.7799 7.03959 90.3803 7.7713 90.5877 8.4677C90.6888 8.8058 90.9266 9.09849 91.2401 9.25997C91.6599 9.34576 92.0999 9.26501 92.5652 9.17923C93.3391 9.03288 94.1432 8.88654 94.9322 9.52238L95.0132 9.58798L94.9929 9.68386C94.6389 11.223 93.7993 12.2878 92.7473 12.5249C92.1657 12.6561 91.6144 12.4947 91.3059 12.101L91.0024 11.7125L91.4778 11.8437C91.8572 11.9497 92.2011 11.8538 92.4085 11.5762C92.6158 11.3037 92.6411 10.9253 92.4742 10.6528C92.2719 10.3197 91.8218 10.1935 91.2098 10.3046L91.139 10.3146L91.0833 10.2692C90.6888 9.96645 90.436 9.78983 90.1426 9.90085C90.3196 10.0522 90.4157 10.2894 90.3702 10.5367L90.3652 10.6124C90.2994 11.5056 90.264 11.9951 91.3362 13.0144L91.5031 13.1709L91.2958 13.2718C90.2589 13.7916 89.3081 13.7159 88.6911 13.0649L88.6 12.969L88.6708 12.863C89.0148 12.3483 89.2171 11.7529 89.2525 11.1322C89.2828 10.567 89.04 10.0825 88.8074 9.61826C88.514 9.02784 88.2055 8.41723 88.5343 7.71075C87.7706 7.53413 86.9866 7.79653 86.4809 8.40714L86.2634 8.66955L86.1976 8.33144C86.1774 8.21538 86.0914 8.11445 85.9802 8.07408L85.788 8.00343L85.8992 7.83186C86.7236 6.57533 87.6745 6.10602 88.9743 6.32301C89.126 5.96472 89.1109 5.55597 88.9237 5.20777L88.8327 5.0362L89.0148 4.97564C90.0263 4.65268 90.1932 4.31457 90.5017 3.69892C90.5573 3.59295 90.613 3.47688 90.6787 3.35577C90.5321 3.41128 90.3803 3.46679 90.2337 3.5223C89.126 3.94115 88.0791 4.33476 87.1738 5.26328C86.84 5.60139 86.6983 5.93444 86.5466 6.28768C86.4455 6.51982 86.3443 6.76204 86.1825 7.02445C85.8841 7.33732 85.5806 7.59468 85.2518 7.82177L85.181 7.847C84.5741 7.92774 84.0633 8.12455 83.6587 8.28603C83.4311 8.37686 83.244 8.44751 83.0922 8.47779C83.163 9.08335 83.163 9.69395 83.0973 10.2945L83.0922 10.3399L83.0619 10.3752C82.8849 10.5922 82.6724 10.7789 82.4398 10.9353C82.192 11.112 81.9543 11.228 81.7216 11.3391C81.3777 11.5106 81.054 11.6671 80.7354 12.0153C79.9767 12.8479 79.653 14.1499 79.3445 15.4114C79.2535 15.7849 79.1624 16.1431 79.0663 16.4813C79.1118 16.451 79.1574 16.4207 79.2029 16.3955C79.9666 15.906 80.3864 15.6335 80.6898 14.4728L80.7354 14.2962L80.9023 14.3618C81.2361 14.488 81.6154 14.4425 81.9087 14.2407C81.5952 12.964 82.1414 11.6015 83.2591 10.895L83.4109 10.7991L83.4918 10.9555C83.5626 11.0918 83.689 11.1927 83.8408 11.223L84.124 11.2835L83.9267 11.4955C83.3451 12.1162 82.7028 13.3424 82.8596 14.2003C83.6182 13.7815 84.4274 13.8925 85.2114 13.9985C85.702 14.0641 86.2077 14.1347 86.7135 14.0843C87.3457 14.054 87.9476 13.8521 88.4635 13.4989L88.5646 13.4282L88.6607 13.5039C89.3233 14.054 89.4396 14.8967 89.0046 16.0069L88.9187 16.2239L88.7467 16.0675C87.8768 15.2853 87.4165 15.3206 86.8349 15.366C86.6377 15.3812 86.4303 15.3963 86.1926 15.3862C85.9549 15.3862 85.7374 15.2399 85.5857 14.9825C85.4491 15.3559 85.5351 15.7849 85.8284 16.0725L85.8841 16.128L85.8739 16.2037C85.8082 16.8143 85.97 17.2584 86.3342 17.4501C86.6478 17.6167 87.0676 17.5662 87.3558 17.329C87.5076 17.2029 87.7402 16.9102 87.5834 16.4156L87.4368 15.9665L87.8262 16.2289C88.1853 16.4712 88.3522 16.9051 88.2713 17.4199C88.1448 18.2525 87.2951 19.4434 85.3125 20.049L85.2164 20.0793L85.1456 20.0036C84.4578 19.2668 84.5539 18.5149 84.65 17.7832C84.7056 17.3442 84.7613 16.9253 84.65 16.5115C84.2302 15.8959 83.5929 15.7647 83.1377 15.8454C82.6168 15.9362 82.2223 16.2895 82.106 16.7638L82.0402 17.0464L81.8329 16.8395C81.4384 16.4459 80.882 16.3702 80.4117 16.6478C80.0172 16.8799 79.6378 17.4249 79.8604 18.197L79.911 18.3686L79.7339 18.4039C78.8944 18.5654 78.5252 19.287 78.4645 19.8522C78.4038 20.4123 78.6061 21.1844 79.3698 21.5124L79.5367 21.5831L79.4507 21.7395C79.0663 22.4309 79.3091 23.0415 79.6328 23.3543C80.0273 23.7278 80.5887 23.7833 81.0692 23.4906L81.317 23.3392V23.6268C81.317 24.1113 81.6204 24.5402 82.111 24.7471C82.546 24.9288 83.1984 24.9439 83.7396 24.4343C83.9419 24.0558 83.9824 23.6319 84.0228 23.1929C84.0936 22.4611 84.1645 21.7092 84.999 21.1441L85.0849 21.0885L85.1709 21.139C86.9715 22.1634 87.5379 23.5057 87.4722 24.3485C87.4317 24.8581 87.1738 25.2518 86.7742 25.4082L86.319 25.5848L86.582 25.171C86.8602 24.737 86.7085 24.409 86.5921 24.2475C86.3747 23.9549 85.97 23.8085 85.6261 23.8943C85.2215 24.0003 84.9585 24.3989 84.8877 25.0095L84.8776 25.0852L84.8118 25.1256C84.4629 25.3426 84.2858 25.7463 84.3314 26.1349C84.5033 25.9734 84.7309 25.8775 84.9787 25.8775C84.9838 25.8775 84.9889 25.8775 84.9939 25.8775C85.2519 25.9229 85.444 25.9835 85.6362 26.039C86.1926 26.2106 86.6326 26.3519 87.6542 25.7766L87.8566 25.6605L87.892 25.8926C88.069 27.0785 87.7706 27.8758 87.0018 28.2594L86.8905 28.3149L86.8096 28.219C86.4252 27.7699 85.9296 27.4368 85.3682 27.2602C84.8219 27.0533 84.3111 27.1492 83.8155 27.235C83.2035 27.346 82.5713 27.462 81.9947 26.9423C81.5901 27.6185 81.6002 28.4511 82.0352 29.1223L82.2071 29.3847L81.8936 29.3696C81.7418 29.3595 81.5901 29.4251 81.494 29.5462L81.3777 29.6824L81.2512 29.5512C80.3206 28.5874 80.1133 27.1694 80.7252 25.9835C80.4875 25.716 80.1335 25.5798 79.7744 25.6201L79.5923 25.6403V25.5344C79.5923 24.3586 79.2282 23.975 78.6212 23.3442C78.5808 23.2988 78.5353 23.2534 78.4948 23.208C78.51 23.5562 78.51 23.9296 78.515 24.3131C78.5201 25.6151 78.5252 26.9574 79.0663 27.9414C79.2939 28.3552 79.5721 28.5874 79.8654 28.8296C80.0627 28.9961 80.265 29.1627 80.4724 29.3948C80.6595 29.6017 80.8163 29.8288 80.9427 30.0811L80.968 30.1265L80.9579 30.177C80.8517 30.7876 80.8669 31.3225 80.882 31.7161C80.8871 31.9432 80.8921 32.1248 80.877 32.2661C81.0186 32.3267 81.1804 32.4327 81.3777 32.5588C81.7216 32.7859 82.1515 33.0635 82.718 33.2805L82.7685 33.3006L82.7989 33.3461C82.9506 33.5782 83.072 33.8305 83.158 34.098C83.2541 34.3856 83.2945 34.648 83.335 34.9003C83.3957 35.2788 83.4564 35.6371 83.6991 36.0408C84.2757 37.0046 85.4339 37.6909 86.5517 38.3571C86.8855 38.5539 87.2041 38.7406 87.4975 38.9323C87.4823 38.8819 87.4671 38.8264 87.4519 38.7759C87.2041 37.9079 87.0625 37.4285 86.0408 36.8078L85.8891 36.7119L85.9802 36.5858C86.2027 36.2982 86.2634 35.9247 86.1572 35.5866C84.8321 35.516 83.6789 34.5925 83.3299 33.3057L83.2844 33.1341L83.4614 33.1038C83.6132 33.0786 83.7447 32.9827 83.8155 32.8515L83.9621 32.574L84.1038 32.8515C84.4527 33.5479 85.181 33.9869 85.9498 33.9869H85.9549C85.7981 33.2199 86.2179 32.7304 86.6275 32.256C86.9512 31.8776 87.285 31.489 87.3912 30.9339C87.548 30.3435 87.5329 29.7379 87.3609 29.1677L87.3255 29.0516L87.4266 28.986C88.1448 28.5066 88.9895 28.6378 89.9302 29.3847L90.1123 29.531L89.91 29.6521C88.9085 30.2527 88.8125 30.7018 88.686 31.267C88.6455 31.4587 88.6 31.6606 88.5191 31.8826C88.3927 32.1198 88.1954 32.2813 87.9628 32.3519C88.2763 32.579 88.6911 32.6194 89.0502 32.4377L89.1159 32.4024L89.1867 32.4327C89.7582 32.6749 90.2286 32.6446 90.5219 32.3469C90.7698 32.0946 90.8456 31.6656 90.6939 31.3326C90.613 31.156 90.3955 30.8633 89.8897 30.8835L89.3991 30.9036L89.7785 30.5958C90.1123 30.3233 90.5877 30.293 91.0479 30.5151C91.8066 30.8784 92.6967 32.034 92.6967 34.098V34.1989L92.6057 34.2443C91.7004 34.6884 91.0075 34.3755 90.3399 34.0727C89.9352 33.8911 89.5509 33.7144 89.121 33.7043C88.4129 33.9213 88.0993 34.4865 88.0437 34.9457C87.9779 35.4756 88.2005 35.955 88.6253 36.2023L88.8731 36.3486L88.6203 36.4849C88.1246 36.7574 87.892 37.2721 88.0235 37.802C88.1347 38.2359 88.5444 38.7507 89.3384 38.7557H89.5155L89.4952 38.9323C89.4042 39.7801 89.9909 40.3453 90.5169 40.5673C91.0378 40.7894 91.8319 40.8197 92.368 40.1838L92.4944 40.0324L92.6158 40.1838C93.0356 40.7086 93.8044 40.7944 94.3304 40.3756C94.7046 40.0778 94.8665 39.5884 94.7502 39.1291L94.6793 38.8566L94.9525 38.9374C95.4228 39.0787 95.9286 38.9071 96.2675 38.4933C96.5659 38.135 96.7581 37.5194 96.4293 36.8684C96.1258 36.5606 95.7313 36.3991 95.3217 36.2326C94.6439 35.955 93.9409 35.6674 93.6425 34.7086L93.6122 34.6127L93.688 34.542C95.1851 33.124 96.6013 32.9575 97.4257 33.2754C97.9061 33.4571 98.2147 33.8255 98.2501 34.2544L98.2905 34.7439L97.9668 34.3705C97.628 33.9768 97.2689 34.0324 97.0817 34.0929C96.7378 34.214 96.4748 34.5572 96.4647 34.9155C96.4495 35.3293 96.753 35.6976 97.3194 35.9449L97.3903 35.9752L97.4105 36.0509C97.5167 36.4495 97.8454 36.7321 98.2349 36.8028C98.1287 36.5858 98.1034 36.3335 98.1793 36.0963C98.2956 35.8642 98.4068 35.6976 98.5131 35.5362C98.8367 35.0517 99.0947 34.6732 98.857 33.5227L98.8115 33.2956L99.0391 33.3309C100.228 33.5025 100.9 34.0223 101.047 34.87L101.067 34.9962L100.951 35.0467C100.415 35.2838 99.9545 35.6674 99.6207 36.1518C99.2818 36.611 99.2211 37.1207 99.1604 37.6102C99.0846 38.2309 99.0087 38.8718 98.336 39.2755C98.857 39.8457 99.6763 40.0829 100.425 39.8659L100.723 39.7801L100.622 40.0728C100.572 40.2191 100.592 40.3806 100.678 40.5068L100.774 40.6582L100.617 40.7389C99.4386 41.3445 97.9871 41.1224 97.0413 40.204C96.7226 40.3554 96.49 40.6531 96.4293 41.0064L96.399 41.183L96.227 41.1325C95.0789 40.8045 94.6338 41.0266 93.8246 41.4252C93.7841 41.4555 93.7336 41.4807 93.6779 41.506ZM99.2211 33.6842C99.4032 34.7944 99.1048 35.2384 98.7862 35.7077C98.685 35.8642 98.5738 36.0206 98.4827 36.2124C98.417 36.4243 98.4878 36.6766 98.6749 36.8432L98.9227 37.0601C98.9885 36.6918 99.1048 36.3133 99.3678 35.96C99.7067 35.4655 100.167 35.0669 100.708 34.8044C100.556 34.214 100.071 33.8507 99.2211 33.6842ZM84.65 26.8767C84.913 26.8767 85.181 26.912 85.4643 27.018C86.0358 27.1996 86.5517 27.5276 86.9613 27.9717C87.4722 27.6589 87.6846 27.0836 87.5986 26.2307C86.5972 26.7404 86.0813 26.5789 85.5351 26.4074C85.3581 26.3519 85.1709 26.2913 84.9585 26.256C84.741 26.261 84.5084 26.3973 84.4123 26.6244L84.296 26.8918C84.4072 26.8868 84.5286 26.8767 84.65 26.8767ZM109.771 24.7724C110.884 24.9086 111.223 25.3224 111.582 25.7665C111.703 25.9128 111.825 26.0642 111.982 26.2106C112.169 26.3317 112.432 26.3317 112.639 26.1954L112.897 26.0238C112.573 25.8573 112.25 25.6353 111.992 25.2921C111.617 24.8279 111.37 24.2728 111.274 23.6824C110.677 23.6571 110.181 24.0154 109.771 24.7724ZM109.999 20.9624C110.302 21.7698 110.753 22.1886 111.354 22.2391C111.547 21.6436 111.886 21.1087 112.346 20.6848C112.634 20.3922 112.963 20.2206 113.292 20.0995L113.049 19.9027C112.857 19.7462 112.589 19.7159 112.371 19.832C112.209 19.9481 112.063 20.0843 111.921 20.2206C111.511 20.6041 111.122 20.9674 110.029 20.9674C110.024 20.9624 110.014 20.9624 109.999 20.9624ZM87.1991 15.0834C87.634 15.0834 88.1044 15.1894 88.7669 15.7344C89.04 14.9219 88.9591 14.3164 88.5242 13.8925C87.983 14.2356 87.3609 14.4324 86.7236 14.4627C86.3747 14.498 86.0257 14.4829 85.6818 14.4476L85.7424 14.6343C85.8183 14.8715 85.9751 15.1288 86.1926 15.1288C86.4202 15.1389 86.6124 15.1238 86.7995 15.1137C86.931 15.0935 87.0625 15.0834 87.1991 15.0834ZM103.672 10.4156C103.49 11.0565 103.874 11.6519 104.304 12.0859C104.744 11.0666 105.24 10.8647 105.766 10.6528C105.938 10.5821 106.12 10.5115 106.307 10.4055C106.484 10.2692 106.565 10.0169 106.499 9.77974L106.413 9.48705C106.16 9.74441 105.857 9.98159 105.452 10.1279C104.936 10.3399 104.38 10.4156 103.824 10.3601L104.542 10.8142L103.672 10.4156ZM100.658 5.04629C101.264 5.54083 101.249 6.18676 101.239 6.8125C101.229 7.30704 101.219 7.82177 101.487 8.31631C101.75 8.84617 102.15 9.29025 102.645 9.60312L103.444 10.1078C103.449 10.1027 103.449 10.0926 103.454 10.0876L103.505 9.9715L103.631 9.99168C104.208 10.0977 104.805 10.0371 105.346 9.81506C105.887 9.6233 106.221 9.23474 106.545 8.85626C106.954 8.38191 107.374 7.89241 108.158 7.92774C108.047 7.1607 107.521 6.52486 106.767 6.27255L106.469 6.17162L106.722 5.98491C106.843 5.89912 106.914 5.75782 106.919 5.60643L106.924 5.42981L107.101 5.45C108.411 5.60643 109.483 6.59551 109.751 7.87728C110.1 7.93279 110.464 7.81167 110.712 7.55431L110.839 7.42311L110.955 7.55936C111.719 8.4576 112.204 8.52321 113.089 8.63927C113.15 8.64936 113.216 8.65441 113.281 8.6645C113.049 8.40209 112.811 8.1195 112.563 7.82177C111.739 6.82259 110.884 5.78305 109.837 5.35916C109.402 5.18254 109.038 5.17749 108.659 5.17749C108.406 5.17749 108.143 5.17245 107.844 5.12198C107.571 5.07657 107.303 5.00087 107.05 4.88985L107 4.86967L106.975 4.82425C106.676 4.29943 106.342 3.91591 106.074 3.60809C105.917 3.42642 105.786 3.28008 105.705 3.14887C105.558 3.18924 105.371 3.20943 105.134 3.23466C104.749 3.27503 104.218 3.33054 103.642 3.5223L103.591 3.53744L103.54 3.5223C103.272 3.43651 103.019 3.3154 102.787 3.16401C102.529 2.99748 102.332 2.82086 102.139 2.65433C101.851 2.40202 101.583 2.15979 101.138 2.00336C100.076 1.61984 98.7508 1.81664 97.4661 2.0084C97.0817 2.06391 96.7125 2.11942 96.3635 2.15979C96.4091 2.19007 96.4546 2.2254 96.5001 2.25567C97.2436 2.7704 97.6533 3.04795 98.8367 2.88646L99.0138 2.86123L99.0188 3.0429C99.0289 3.40119 99.2161 3.73425 99.5145 3.92601C100.577 3.15392 102.043 3.13878 103.126 3.90078L103.272 4.0017L103.156 4.13795C103.055 4.25402 103.014 4.41045 103.045 4.5568L103.105 4.86462L102.817 4.73846C102.084 4.43064 101.259 4.5467 100.658 5.04629Z" fill="#860142"/>
<path fill-rule="evenodd" clip-rule="evenodd" d="M108.447 15.6688C108.35 16.6377 107.521 17.3644 106.55 17.3442C106.489 17.9346 107.02 18.308 107.916 18.3535C107.956 20.3367 108.558 21.8657 109.721 22.9456C108.194 23.7177 107.223 25.272 107.192 26.9827C106.302 26.6648 105.928 26.9827 105.675 27.5983C106.621 27.7699 107.061 28.4915 107.005 29.7632C105.994 29.8994 105.129 29.6471 104.729 28.7539C104.208 29.0718 104.046 29.7481 104.36 30.2678C104.411 30.3435 104.466 30.4142 104.527 30.4798C102.913 30.9238 101.649 32.1652 101.184 33.77C99.6058 32.3217 97.9822 31.7767 96.3132 32.135C96.1969 31.5799 95.7619 31.1459 95.2056 31.0298C95.0539 32.2107 94.5228 32.8717 93.6124 33.0181C93.2028 32.1905 93.4354 31.1913 94.1688 30.6261C93.6377 30.3385 92.9954 30.3738 92.4947 30.7069C91.4275 28.9861 90.4059 28.1837 88.2209 28.1837C88.9391 26.5487 88.8734 24.6715 88.0338 23.092C88.575 22.8245 88.8886 22.2543 88.8279 21.6588C87.9377 22.0978 87.1083 21.8758 86.3496 20.9977C87.2802 20.1802 88.1855 20.0894 88.9088 20.6697C89.1364 20.1197 88.8734 19.4889 88.3221 19.2568H88.317H88.2665C89.2578 18.2273 89.6927 16.6276 89.5764 14.4527C91.1949 14.6596 92.8234 14.1549 94.0474 13.0801C94.4925 13.3425 95.0336 13.4081 95.5293 13.2617C94.9426 12.6612 94.9578 11.7024 95.5546 11.1221C95.5748 11.1019 95.595 11.0817 95.6203 11.0615L95.6911 11.001C96.6066 11.6419 96.733 12.2121 96.5408 13.0195C97.1933 13.2819 97.6788 12.9085 97.962 12.0102C99.4793 12.2575 101.032 12.0456 102.428 11.4047C103.035 13.1961 104.107 14.0843 105.533 14.9371C105.351 15.4922 105.523 16.1028 105.968 16.4863C106.656 15.6385 107.066 15.4771 108.436 15.6638L108.447 15.6688Z" fill="white"/>
<path d="M101.265 34.0627L101.072 33.886C99.545 32.4832 97.9518 31.9432 96.3435 32.2914L96.1867 32.3267L96.1513 32.1652C96.0602 31.7313 95.7466 31.378 95.337 31.2317C95.1448 32.3721 94.5733 33.0282 93.6376 33.1745L93.5213 33.1947L93.4707 33.0887C93.0711 32.2763 93.2431 31.2973 93.8753 30.6715C93.4505 30.5252 92.97 30.5807 92.5907 30.8431L92.449 30.939L92.358 30.7977C91.3718 29.2131 90.4209 28.3502 88.2208 28.3502H87.973L88.0742 28.1231C88.7772 26.5235 88.7114 24.7169 87.8921 23.1727L87.8162 23.0264L87.9679 22.9507C88.3726 22.7488 88.6406 22.3501 88.676 21.9061C87.801 22.2391 86.9817 21.9717 86.2332 21.1037L86.127 20.9826L86.2483 20.8766C87.1486 20.0844 88.0539 19.9229 88.8227 20.4073C88.848 20.2408 88.8328 20.0692 88.762 19.9077C88.671 19.6907 88.5041 19.5192 88.2866 19.4233H87.887L88.15 19.1508C89.1059 18.1617 89.5308 16.5822 89.4144 14.4678L89.4043 14.276L89.5965 14.3013C91.1695 14.4981 92.7525 14.0136 93.9411 12.969L94.027 12.8933L94.1282 12.9539C94.462 13.1507 94.8565 13.2264 95.2358 13.1759C95.0386 12.8933 94.9324 12.5552 94.9374 12.197C94.9425 11.7478 95.1246 11.329 95.4432 11.0161C95.4634 10.9959 95.4887 10.9707 95.514 10.9505L95.6809 10.8042L95.7821 10.8748C96.743 11.546 96.8745 12.1818 96.7278 12.9186C96.8947 12.964 97.0465 12.9539 97.1881 12.8883C97.441 12.7672 97.6584 12.4493 97.8102 11.9648L97.8506 11.8336L97.9872 11.8538C99.4792 12.096 100.986 11.8942 102.357 11.2634L102.519 11.1877L102.574 11.3593C103.151 13.0599 104.163 13.9379 105.609 14.8059L105.72 14.8715L105.68 14.9926C105.533 15.4367 105.639 15.9161 105.948 16.2542C106.621 15.467 107.131 15.3307 108.452 15.5073L108.502 15.5225L108.603 15.5729V15.689C108.502 16.6781 107.688 17.4451 106.707 17.5057C106.717 17.6217 106.762 17.7227 106.838 17.8135C107.03 18.0355 107.41 18.1718 107.915 18.197L108.067 18.2071L108.072 18.3585C108.113 20.2862 108.699 21.79 109.827 22.8346L109.999 22.991L109.792 23.097C108.315 23.8439 107.379 25.3376 107.354 26.9928L107.349 27.2198L107.137 27.1442C106.423 26.8918 106.12 27.0685 105.902 27.4923C106.798 27.7396 107.222 28.5067 107.167 29.7783L107.162 29.9146L107.03 29.9348C105.913 30.0862 105.098 29.7682 104.673 29.0113C104.345 29.309 104.264 29.8086 104.501 30.1972C104.542 30.2628 104.593 30.3233 104.648 30.3788L104.835 30.5757L104.572 30.6463C103.025 31.0702 101.785 32.2864 101.34 33.8255L101.265 34.0627ZM97.2994 31.8625C98.5992 31.8625 99.8737 32.4024 101.108 33.4773C101.614 32.0239 102.787 30.8683 104.254 30.3889C104.244 30.3738 104.233 30.3637 104.228 30.3486C103.869 29.7531 104.056 28.9709 104.648 28.6126L104.805 28.5168L104.881 28.6833C105.204 29.3999 105.867 29.7127 106.853 29.6168C106.868 28.5117 106.474 27.9061 105.65 27.7548L105.452 27.7194L105.528 27.5327C105.736 27.0331 106.09 26.5083 107.04 26.7606C107.137 25.1458 108.042 23.7026 109.453 22.9052C108.396 21.8354 107.824 20.3569 107.764 18.4998C107.233 18.4493 106.833 18.2828 106.605 18.0154C106.444 17.8236 106.368 17.5864 106.398 17.324L106.413 17.1777L106.56 17.1827C107.379 17.1928 108.113 16.6074 108.269 15.8051C107.045 15.6537 106.707 15.8404 106.1 16.5873L105.993 16.7185L105.867 16.6125C105.402 16.2138 105.21 15.5982 105.346 15.0178C103.94 14.165 102.939 13.2769 102.337 11.6318C100.991 12.2171 99.5247 12.4089 98.0782 12.197C97.8962 12.7016 97.6483 13.0346 97.3297 13.181C97.0768 13.3021 96.7936 13.2971 96.4851 13.1759L96.3586 13.1255L96.389 12.9892C96.5559 12.2979 96.4901 11.7983 95.7062 11.2129C95.6961 11.223 95.686 11.2331 95.6758 11.2432C95.4179 11.4955 95.2712 11.8336 95.2662 12.197C95.2611 12.5603 95.3977 12.8984 95.6505 13.1558L95.8377 13.3475L95.5797 13.4232C95.079 13.5746 94.5379 13.5191 94.0726 13.2819C92.8739 14.2962 91.3161 14.7857 89.7533 14.6394C89.8342 16.6377 89.4296 18.1668 88.5496 19.1962C88.7822 19.3324 88.9593 19.5393 89.0655 19.7866C89.1919 20.0944 89.1919 20.4325 89.0655 20.7353L88.9845 20.9321L88.8176 20.7959C88.0185 20.155 87.1891 20.5335 86.5923 21.0129C87.2751 21.7345 87.9831 21.896 88.7671 21.5125L88.9744 21.4115L88.9997 21.6437C89.0604 22.2492 88.7671 22.8396 88.2613 23.1576C89.025 24.6866 89.1009 26.4377 88.4737 28.0273C90.5828 28.0878 91.5994 28.981 92.5603 30.4899C93.0863 30.2022 93.7236 30.1972 94.2597 30.4899L94.4772 30.6059L94.2799 30.7573C93.6427 31.2468 93.4201 32.1047 93.7185 32.8414C94.4822 32.6699 94.9222 32.0744 95.0588 31.0147L95.079 30.8431L95.251 30.8784C95.8175 30.9945 96.2726 31.4083 96.4446 31.9533C96.7228 31.8927 97.0111 31.8625 97.2994 31.8625Z" fill="#860142"/>
<path fill-rule="evenodd" clip-rule="evenodd" d="M106.004 22.7993C107.87 21.6689 105.129 18.5251 105.903 17.3896C104.613 17.7025 102.868 13.8067 101.027 15.0885C100.562 12.964 96.9105 14.7706 96.0811 13.6755C95.9647 14.9926 91.7264 15.1894 92.3485 17.3442C90.0978 17.1827 90.5429 21.3813 89.2734 21.7496C90.5227 22.33 89.5567 26.2913 91.7365 26.2913C90.8464 28.2796 94.8622 28.9911 94.8773 30.3637C95.7574 29.3545 99.2725 31.6758 100.061 29.5614C101.741 31.0753 103.87 27.3864 105.119 27.8607C104.492 26.6395 107.724 24.1567 106.014 22.8144L106.004 22.7993Z" fill="#00787C"/>
<path d="M94.7207 30.7876L94.7156 30.3637C94.7105 29.8742 94.0278 29.4352 93.3045 28.9659C92.293 28.3149 91.155 27.5883 91.509 26.4327C90.3154 26.2813 90.103 24.944 89.9159 23.7531C89.7793 22.9002 89.6529 22.0979 89.2078 21.8859L88.8184 21.7042L89.2331 21.5831C89.6731 21.457 89.9007 20.6698 90.1334 19.8371C90.4672 18.6664 90.8718 17.2282 92.1514 17.1676C91.944 15.9212 93.2792 15.3055 94.3666 14.8059C95.1455 14.4476 95.8839 14.1045 95.9244 13.6503L95.9598 13.2315L96.2127 13.5645C96.5111 13.9581 97.3203 13.9077 98.1801 13.8522C99.3788 13.7765 100.729 13.6907 101.129 14.8261C102.241 14.2357 103.278 15.245 104.194 16.1382C104.821 16.7488 105.418 17.3291 105.868 17.2181L106.277 17.1171L106.04 17.4653C105.762 17.8741 106.04 18.6664 106.338 19.5091C106.758 20.7051 107.233 22.0474 106.267 22.8043C107.147 23.6572 106.47 24.838 105.873 25.8876C105.448 26.6345 105.043 27.3359 105.271 27.775L105.463 28.1484L105.069 27.997C104.634 27.8305 103.986 28.3402 103.298 28.8751C102.343 29.6219 101.169 30.5404 100.132 29.8036C99.5558 30.9289 98.1194 30.6463 96.9561 30.4192C96.1115 30.2527 95.3175 30.1013 95.0089 30.4546L94.7207 30.7876ZM95.6614 29.9348C96.0609 29.9348 96.5262 30.0256 97.0067 30.1215C98.2307 30.3587 99.4951 30.606 99.9098 29.5059L99.9907 29.2838L100.168 29.4453C101.043 30.2376 102.085 29.4251 103.091 28.6379C103.733 28.1383 104.34 27.6589 104.882 27.6589H104.887C104.806 27.1089 105.185 26.4427 105.585 25.7413C106.176 24.7068 106.788 23.6319 105.913 22.9456L105.878 22.9103L105.782 22.769L105.918 22.663C106.889 22.0726 106.454 20.8312 106.03 19.6302C105.751 18.848 105.488 18.1012 105.645 17.5612C105.109 17.4956 104.553 16.9506 103.966 16.3804C103.041 15.4771 102.085 14.5486 101.119 15.2197L100.921 15.356L100.871 15.1188C100.633 14.0237 99.3939 14.1045 98.2003 14.1802C97.3911 14.2306 96.6223 14.2811 96.1672 13.9682C95.9345 14.4476 95.2365 14.7706 94.5032 15.1087C93.3652 15.6335 92.1868 16.1735 92.5105 17.2938L92.5762 17.5158L92.3436 17.5007C91.1651 17.4098 90.7959 18.6966 90.4469 19.9279C90.2294 20.7051 90.017 21.4418 89.5922 21.7648C89.9968 22.1483 90.1182 22.9103 90.2396 23.7076C90.4267 24.8986 90.6189 26.1248 91.7417 26.1248H91.9895L91.8884 26.3519C91.4281 27.3763 92.4751 28.0475 93.4815 28.6934C94.1593 29.1274 94.8066 29.5462 94.9887 30.066C95.1758 29.9701 95.4034 29.9348 95.6614 29.9348Z" fill="#860142"/>
<path fill-rule="evenodd" clip-rule="evenodd" d="M105.028 6.88324C104.325 7.21125 104.016 8.12463 103.748 8.80589C104.112 9.04306 104.557 9.11371 104.977 9.00269C105.164 8.94214 105.336 8.84121 105.483 8.71001C106.059 8.20537 106.11 7.17088 106.778 7.35255C106.155 6.84791 105.604 6.67129 105.119 6.84791L105.038 6.87819L105.028 6.88324Z" fill="#FBA407"/>
<path d="M104.583 9.21461C104.259 9.21461 103.935 9.11873 103.662 8.94211L103.551 8.87146L103.657 8.59391C103.92 7.91771 104.249 7.07497 104.957 6.74191L105.063 6.70154C105.594 6.50978 106.206 6.6864 106.879 7.23141L107.476 7.71585L106.737 7.514C106.474 7.44335 106.363 7.61997 106.13 8.059C105.994 8.32141 105.837 8.61915 105.589 8.83614C105.427 8.98248 105.24 9.0935 105.028 9.1591C104.881 9.19443 104.729 9.21461 104.583 9.21461ZM103.95 8.73521C104.254 8.89165 104.603 8.93202 104.937 8.84623C105.098 8.79577 105.245 8.70998 105.377 8.58887C105.584 8.4072 105.715 8.14984 105.847 7.90257C105.984 7.64521 106.125 7.36766 106.353 7.23645C105.908 6.94881 105.518 6.87312 105.174 6.99423L105.093 7.02451H105.098C104.507 7.30206 104.203 8.07919 103.96 8.70493L103.95 8.73521Z" fill="#860142"/>
<path fill-rule="evenodd" clip-rule="evenodd" d="M103.714 8.79568C103.491 8.7755 103.274 8.7099 103.082 8.59888C102.905 8.49795 102.748 8.35665 102.627 8.19012C102.52 8.02864 102.45 7.84697 102.419 7.65521C102.288 6.88817 102.879 6.06058 102.242 5.79312C103.067 5.79312 103.613 5.98993 103.871 6.44914L103.901 6.49456C104.265 7.18591 103.957 8.10434 103.714 8.79568Z" fill="#FBA407"/>
<path d="M103.825 8.96729L103.698 8.9572C103.45 8.93701 103.218 8.86132 103 8.74021C102.798 8.62414 102.631 8.47275 102.495 8.28604C102.368 8.09932 102.292 7.89747 102.257 7.68048C102.201 7.35751 102.262 7.0295 102.318 6.74186C102.414 6.24228 102.424 6.04547 102.176 5.94454L101.438 5.63672H102.242C103.152 5.63672 103.734 5.87894 104.012 6.37348L104.037 6.40881C104.452 7.19099 104.098 8.19016 103.865 8.85123L103.825 8.96729ZM102.651 5.96978C102.747 6.212 102.692 6.51478 102.636 6.79737C102.586 7.06987 102.53 7.35247 102.575 7.62497C102.601 7.79654 102.661 7.95298 102.758 8.09932C102.864 8.24062 102.995 8.36678 103.157 8.45761C103.294 8.53331 103.445 8.58882 103.597 8.61909C103.81 8.01354 104.067 7.1708 103.749 6.57029L103.729 6.54001C103.552 6.20695 103.203 6.02529 102.651 5.96978Z" fill="#860142"/>
<path fill-rule="evenodd" clip-rule="evenodd" d="M103.949 8.06908C104.024 7.81171 104.06 7.54426 104.065 7.2768C104.085 6.96393 104.014 6.65106 103.858 6.37856L103.827 6.29782C103.67 5.79319 104.11 5.20277 105.122 4.59216C105.623 5.6317 105.678 6.33314 105.284 6.69648L105.233 6.74189C104.662 7.13551 104.212 7.68051 103.938 8.31635C103.574 9.10862 103.817 8.54343 103.938 8.06908H103.949Z" fill="#FBA407"/>
<path d="M103.772 8.88152C103.747 8.88152 103.722 8.87143 103.686 8.86133C103.54 8.80582 103.58 8.67967 103.641 8.49295C103.681 8.36679 103.737 8.19017 103.783 8.02869L103.823 7.90758C103.874 7.70068 103.899 7.48873 103.904 7.27679C103.924 6.9841 103.858 6.70655 103.717 6.45928L103.676 6.35331C103.545 5.93447 103.681 5.2734 105.037 4.45085L105.189 4.36002L105.264 4.5215C105.806 5.64178 105.846 6.39368 105.391 6.81253L105.34 6.85794C104.774 7.24651 104.349 7.76628 104.086 8.37689C103.904 8.77555 103.858 8.88152 103.772 8.88152ZM105.052 4.82428C104.238 5.34405 103.858 5.84868 103.98 6.24734L104.005 6.31799C104.167 6.59554 104.243 6.93869 104.223 7.28184C104.223 7.35248 104.218 7.42818 104.212 7.49883C104.465 7.15063 104.779 6.84785 105.138 6.60058L105.173 6.5703C105.492 6.28266 105.452 5.69729 105.052 4.82428Z" fill="#860142"/>
<path fill-rule="evenodd" clip-rule="evenodd" d="M110.441 11.6015C110.845 12.1062 111.559 12.3988 111.488 13.1507C111.462 13.3829 111.366 13.5999 111.204 13.7664L111.113 13.8522C110.987 13.9733 110.911 13.938 110.759 13.8522C110.719 13.832 110.678 13.8068 110.638 13.7765C110.512 13.6806 110.41 13.5595 110.335 13.4232C109.955 12.747 110.385 12.2626 110.441 11.5914V11.6015Z" fill="#F0A633"/>
<path d="M110.961 14.0893C110.855 14.0893 110.764 14.0389 110.678 13.9884C110.632 13.9682 110.587 13.9379 110.536 13.9026C110.395 13.7916 110.278 13.6553 110.187 13.4989C109.899 12.9892 110.025 12.5704 110.147 12.1616C110.202 11.9749 110.258 11.7781 110.278 11.5763L110.46 11.5813L110.567 11.4955C110.678 11.6318 110.814 11.7579 110.961 11.8841C111.31 12.197 111.704 12.5502 111.649 13.1608C111.624 13.4283 111.507 13.6806 111.32 13.8723L111.224 13.9632C111.128 14.059 111.042 14.0893 110.961 14.0893ZM110.546 11.9446C110.521 12.0506 110.491 12.1515 110.46 12.2525C110.344 12.641 110.253 12.9489 110.475 13.3425C110.541 13.4636 110.627 13.5645 110.738 13.6452C110.769 13.6654 110.799 13.6856 110.835 13.7058C110.875 13.726 110.941 13.7664 110.961 13.7664C110.961 13.7664 110.976 13.7613 111.001 13.731L111.093 13.6452C111.219 13.509 111.305 13.3223 111.325 13.1305C111.366 12.6814 111.077 12.424 110.744 12.1263C110.678 12.0708 110.612 12.0102 110.546 11.9446Z" fill="#860142"/>
<path fill-rule="evenodd" clip-rule="evenodd" d="M113.984 12.197C113.868 13.1306 113.326 14.5738 111.344 13.8219C112.011 12.0961 112.664 12.1415 113.984 12.197Z" fill="#F0A633"/>
<path d="M112.346 14.1903C112.027 14.1903 111.673 14.1146 111.288 13.9682L111.137 13.9127L111.197 13.7613C111.9 11.9447 112.629 11.975 113.954 12.0305L114.131 12.0355L114.151 12.2121C114.09 12.6915 113.888 13.5544 113.205 13.9632C112.952 14.1146 112.669 14.1903 112.346 14.1903ZM111.557 13.726C112.163 13.9279 112.659 13.9178 113.033 13.6907C113.529 13.393 113.721 12.7773 113.797 12.3484C112.649 12.303 112.128 12.3332 111.557 13.726Z" fill="#860142"/>
<path fill-rule="evenodd" clip-rule="evenodd" d="M112.815 15.8606C112.608 15.2399 112.76 14.4931 112.087 14.1398C111.88 14.0339 111.647 13.9985 111.419 14.0389H111.298C111.131 14.0793 111.116 14.16 111.096 14.3266C111.091 14.377 111.091 14.4224 111.096 14.4729C111.111 14.6293 111.156 14.7807 111.227 14.922C111.586 15.6083 112.239 15.5124 112.82 15.8354L112.815 15.8606Z" fill="#F0A633"/>
<path d="M112.856 16.446L112.674 15.9363C112.512 15.8556 112.345 15.8051 112.178 15.7597C111.774 15.6386 111.354 15.5124 111.086 14.9977C111.005 14.8362 110.955 14.6697 110.939 14.488C110.934 14.4275 110.934 14.3669 110.939 14.3114C110.96 14.1499 110.985 13.9531 111.263 13.8825L111.425 13.8774C111.658 13.832 111.931 13.8724 112.168 13.9985C112.715 14.2862 112.79 14.8059 112.861 15.2601C112.887 15.4115 112.907 15.573 112.947 15.7193L113.008 15.7546L112.856 16.446ZM111.602 14.1802C111.551 14.1802 111.496 14.1852 111.445 14.1953H111.293C111.268 14.2054 111.268 14.2054 111.253 14.3417C111.248 14.377 111.248 14.4123 111.253 14.4527C111.268 14.5889 111.303 14.7201 111.369 14.8463C111.577 15.2399 111.88 15.3307 112.27 15.4468C112.371 15.4771 112.472 15.5074 112.573 15.5427C112.558 15.462 112.548 15.3812 112.533 15.3005C112.467 14.8614 112.411 14.483 112.012 14.2761C111.885 14.2155 111.744 14.1802 111.602 14.1802Z" fill="#860142"/>
<path fill-rule="evenodd" clip-rule="evenodd" d="M115.06 23.9146C114.615 23.2737 113.66 23.1122 112.941 22.9911C112.85 23.1929 112.81 23.415 112.815 23.637C112.82 23.8439 112.871 24.0458 112.962 24.2274C113.048 24.4041 113.169 24.5605 113.321 24.6866C113.933 25.1913 114.949 25.0348 114.883 25.7211C115.283 25.0197 115.354 24.4495 115.091 24.0054L115.06 23.9146Z" fill="#F0A633"/>
<path d="M114.652 26.4528L114.722 25.7009C114.748 25.4436 114.571 25.3628 114.105 25.2215C113.817 25.1307 113.483 25.0298 113.215 24.8077C113.048 24.6715 112.907 24.4898 112.811 24.293C112.71 24.0912 112.654 23.8641 112.649 23.637C112.644 23.3948 112.689 23.1475 112.79 22.9204L112.841 22.8044L112.967 22.8245C113.701 22.9507 114.707 23.1172 115.193 23.8136L115.213 23.854L115.243 23.9448C115.522 24.4091 115.451 25.0399 115.026 25.7918L114.652 26.4528ZM113.043 23.1677C112.993 23.314 112.973 23.4705 112.978 23.6269C112.983 23.8086 113.028 23.9852 113.109 24.1517C113.185 24.3082 113.291 24.4495 113.428 24.5554C113.65 24.7371 113.933 24.8279 114.207 24.9087C114.475 24.9894 114.763 25.0802 114.925 25.277C115.132 24.7926 115.142 24.399 114.955 24.0811L114.92 23.9852C114.53 23.4503 113.701 23.2838 113.043 23.1677Z" fill="#860142"/>
<path fill-rule="evenodd" clip-rule="evenodd" d="M112.948 22.9658C112.927 22.7438 112.958 22.5217 113.033 22.3098C113.104 22.118 113.216 21.9464 113.357 21.8052C113.504 21.6689 113.676 21.568 113.863 21.5024C114.596 21.24 115.522 21.679 115.674 20.9977C115.835 21.8052 115.714 22.3754 115.309 22.7135L115.264 22.7488C114.642 23.2131 113.686 23.0718 112.963 22.9658H112.948Z" fill="#F0A633"/>
<path d="M114.06 23.2282C113.665 23.2282 113.276 23.1727 112.942 23.1222H112.795L112.785 22.9759C112.765 22.7336 112.795 22.4813 112.881 22.2492C112.962 22.0373 113.084 21.8455 113.241 21.684C113.407 21.5276 113.6 21.4166 113.807 21.3409C114.115 21.2298 114.449 21.2349 114.743 21.2349C115.248 21.2399 115.456 21.2198 115.511 20.9523L115.678 20.2054L115.83 20.9573C116.002 21.8203 115.86 22.4511 115.41 22.8295L115.36 22.8699C114.996 23.1474 114.53 23.2282 114.06 23.2282ZM113.104 22.8245C113.792 22.9204 114.636 23.0162 115.167 22.6176L115.208 22.5823C115.496 22.34 115.618 21.9616 115.572 21.4267C115.35 21.573 115.031 21.5679 114.738 21.5629C114.454 21.5629 114.171 21.5579 113.913 21.6487C113.741 21.7092 113.595 21.8001 113.463 21.9161C113.342 22.0373 113.246 22.1886 113.18 22.3602C113.129 22.5066 113.104 22.668 113.104 22.8245Z" fill="#860142"/>
<path fill-rule="evenodd" clip-rule="evenodd" d="M114.501 23.0365C114.814 23.0011 115.108 22.8699 115.345 22.6681L115.421 22.6277C115.927 22.3855 116.554 22.7135 117.328 23.6017C116.392 24.2728 115.71 24.4444 115.28 24.1063L115.229 24.0659C114.87 23.6874 114.425 23.3998 113.929 23.2232C112.442 22.6529 113.196 23.2232 114.496 23.0112L114.501 23.0365Z" fill="#F0A633"/>
<path d="M115.79 24.4343C115.557 24.4343 115.35 24.3636 115.178 24.2274L115.127 24.187C114.768 23.8136 114.343 23.536 113.873 23.3695C113.635 23.2787 113.453 23.2181 113.332 23.1777C113.14 23.1475 113.003 23.097 112.968 23.0364L112.912 22.9355L112.988 22.8497C113.033 22.7993 113.069 22.7538 113.408 22.8598C113.635 22.8951 114.02 22.9204 114.465 22.8447L114.622 22.8195L114.627 22.8447C114.854 22.7942 115.062 22.6882 115.239 22.5369L115.345 22.4763C115.926 22.1988 116.614 22.5268 117.449 23.4856L117.565 23.6218L117.418 23.7227C116.766 24.2021 116.225 24.4343 115.79 24.4343ZM114.298 23.1979C114.687 23.3796 115.046 23.637 115.345 23.9549L115.38 23.9801C115.719 24.2476 116.296 24.1113 117.085 23.5714C116.422 22.8497 115.886 22.5823 115.492 22.769L115.421 22.8043C115.188 23.0112 114.864 23.1525 114.52 23.1929L114.369 23.2131L114.364 23.1929C114.343 23.1929 114.318 23.1929 114.298 23.1979Z" fill="#860142"/>
<path fill-rule="evenodd" clip-rule="evenodd" d="M101.689 38.8163C102.094 38.1552 101.856 37.2166 101.689 36.5101C101.259 36.5051 100.85 36.6918 100.566 37.0147C100.45 37.1661 100.364 37.3377 100.314 37.5194C100.126 38.2713 100.652 39.1443 100 39.3613C100.799 39.4471 101.355 39.2806 101.654 38.8567L101.704 38.781L101.689 38.8163Z" fill="#FBA407"/>
<path d="M100.642 40.8298L101.274 39.3714C100.94 39.5278 100.511 39.5732 99.9845 39.5177L99.2461 39.437L99.9491 39.2049C100.202 39.1191 100.202 38.9223 100.146 38.4176C100.116 38.1249 100.076 37.7969 100.156 37.479C100.212 37.2721 100.308 37.0804 100.44 36.9138C100.753 36.5505 101.198 36.3486 101.674 36.3486C101.679 36.3486 101.684 36.3486 101.694 36.3486H101.82L101.861 36.5303C101.957 36.9441 102.078 37.4487 102.073 37.9332L102.569 37.1863L101.992 38.5186C101.952 38.6498 101.901 38.781 101.826 38.9021L100.642 40.8298ZM101.563 36.6716C101.224 36.7019 100.91 36.8583 100.688 37.1157C100.586 37.2418 100.511 37.3932 100.47 37.5547C100.404 37.8171 100.435 38.0997 100.47 38.3773C100.5 38.6649 100.536 38.9828 100.419 39.2149C100.945 39.2099 101.315 39.0535 101.527 38.7557L101.603 38.6447C101.881 38.0896 101.714 37.3175 101.563 36.6716Z" fill="#860142"/>
<path fill-rule="evenodd" clip-rule="evenodd" d="M101.688 36.49C101.88 36.3941 102.088 36.3386 102.3 36.3285C102.502 36.3133 102.71 36.3436 102.902 36.4143C103.084 36.49 103.246 36.601 103.377 36.7423C103.914 37.3075 103.883 38.3268 104.566 38.1956C103.893 38.67 103.317 38.7911 102.841 38.5539H102.796C102.118 38.1754 101.86 37.2419 101.668 36.5354L101.688 36.49Z" fill="#FBA407"/>
<path d="M103.348 38.8315C103.156 38.8315 102.979 38.7911 102.807 38.7154H102.756L102.721 38.6952C101.977 38.2814 101.709 37.2974 101.517 36.5758L101.502 36.5203L101.568 36.3689L101.618 36.3436C101.831 36.2377 102.058 36.1771 102.296 36.167C102.519 36.1468 102.751 36.1821 102.964 36.2629C103.171 36.3487 103.348 36.4698 103.5 36.6313C103.727 36.8684 103.859 37.1763 103.97 37.4437C104.172 37.913 104.268 38.0897 104.537 38.0341L105.275 37.8928L104.663 38.3268C104.183 38.6599 103.742 38.8315 103.348 38.8315ZM102.842 38.3924L102.918 38.4076C103.257 38.5741 103.667 38.5337 104.137 38.2764C103.914 38.13 103.793 37.8424 103.677 37.5699C103.565 37.3125 103.454 37.0501 103.267 36.8483C103.146 36.7221 103.009 36.6262 102.847 36.5606C102.685 36.5001 102.498 36.4748 102.321 36.4849C102.159 36.495 102.008 36.5253 101.861 36.5859C102.028 37.2267 102.271 38.0442 102.842 38.3924Z" fill="#860142"/>
<path fill-rule="evenodd" clip-rule="evenodd" d="M101.927 37.3024C102.008 37.5244 102.109 37.7364 102.236 37.9382C102.398 38.2107 102.635 38.4277 102.919 38.569L102.984 38.6144C103.409 38.9677 103.364 39.6843 102.863 40.7541C101.851 40.1687 101.427 39.6187 101.553 39.0989V39.0282C101.715 38.6599 101.801 38.2663 101.806 37.8625C101.836 36.934 101.381 35.844 101.912 37.3024H101.927Z" fill="#FBA407"/>
<path d="M102.934 40.9812L102.782 40.8903C101.7 40.2646 101.249 39.6641 101.396 39.0585L101.391 38.9929L101.406 38.9626C101.558 38.6144 101.639 38.241 101.644 37.8625C101.659 37.4134 101.558 36.929 101.512 36.7221C101.492 36.6211 101.462 36.4798 101.609 36.4395C101.755 36.3991 101.791 36.4899 101.882 36.7423C101.917 36.8381 101.963 36.9693 102.028 37.146L102.084 37.2519C102.16 37.4639 102.256 37.6657 102.377 37.8575C102.524 38.1048 102.741 38.3016 102.994 38.4277L103.08 38.4832C103.581 38.9021 103.556 39.6641 103.015 40.8247L102.934 40.9812ZM101.715 39.0585V39.0938C101.609 39.548 101.973 40.0173 102.792 40.5169C103.187 39.6136 103.217 39.0131 102.883 38.7305L102.827 38.6952C102.534 38.5488 102.276 38.3117 102.099 38.0139C102.054 37.9433 102.013 37.8676 101.973 37.7919C101.973 37.8121 101.973 37.8373 101.973 37.8625C101.963 38.2763 101.877 38.68 101.715 39.0585Z" fill="#860142"/>
<path fill-rule="evenodd" clip-rule="evenodd" d="M83.3662 29.9953C84.1147 30.2123 84.9594 29.743 85.5966 29.3897C85.541 29.1727 85.4348 28.9709 85.2881 28.8044C85.1516 28.6479 84.9745 28.5218 84.7823 28.436C84.6053 28.3603 84.4081 28.325 84.2159 28.33C83.437 28.33 82.7289 29.0769 82.3496 28.5016C82.4761 29.2989 82.7795 29.7884 83.265 29.9701H83.346L83.3662 29.9953Z" fill="#FBA407"/>
<path d="M83.7654 30.2072C83.6137 30.2072 83.467 30.1871 83.3204 30.1467L83.2091 30.1164C82.6679 29.9146 82.324 29.3797 82.1925 28.5218L82.0762 27.78L82.4909 28.4057C82.6376 28.6227 82.8247 28.5773 83.29 28.3956C83.5783 28.2796 83.9121 28.1635 84.2661 28.1635C84.4634 28.1635 84.6606 28.2039 84.8478 28.2846C85.0653 28.3805 85.2575 28.5218 85.4142 28.6934C85.5761 28.8801 85.6975 29.1072 85.7582 29.3443L85.7885 29.4654L85.6772 29.526C85.1411 29.8237 84.4482 30.2072 83.7654 30.2072ZM83.4569 29.849C84.0891 30.0003 84.8276 29.6219 85.3991 29.309C85.3434 29.1627 85.2625 29.0264 85.1614 28.9053C85.04 28.764 84.8832 28.653 84.7163 28.5773C84.5595 28.5117 84.3926 28.4814 84.2206 28.4865C83.9374 28.4865 83.6693 28.5924 83.4013 28.6984C83.1332 28.8044 82.8449 28.9154 82.5921 28.8649C82.7286 29.3595 82.9613 29.6723 83.2951 29.8086H83.4215L83.4569 29.849Z" fill="#860142"/>
<path fill-rule="evenodd" clip-rule="evenodd" d="M85.5999 29.415C85.7617 29.5714 85.878 29.7632 85.9488 29.9751C86.0146 30.1719 86.0399 30.3738 86.0196 30.5807C85.9944 30.7724 85.9286 30.9592 85.8224 31.1206C85.4178 31.7817 84.4214 32.0189 84.7249 32.6345C84.0927 32.1299 83.8246 31.59 83.9308 31.0702V31.0147C84.118 30.2628 84.9424 29.7733 85.5847 29.4099L85.5999 29.415Z" fill="#FBA407"/>
<path d="M85.191 33.2098L84.6245 32.7557C83.7698 32.0744 83.6888 31.4436 83.7748 31.0349L83.7698 31.0096C83.967 30.1921 84.7358 29.6976 85.5045 29.2636L85.5703 29.2283L85.717 29.2939C85.894 29.4654 86.0305 29.6824 86.1064 29.9196C86.1823 30.1366 86.2076 30.3637 86.1823 30.5908C86.157 30.8078 86.0761 31.0197 85.9597 31.2014C85.7878 31.4789 85.5248 31.6858 85.2972 31.8675C84.8976 32.1804 84.756 32.3217 84.8723 32.5588L85.191 33.2098ZM85.5602 29.6067C84.8875 29.9903 84.2452 30.4242 84.0884 31.05L84.0935 31.0651C84.0024 31.5294 84.2401 31.9331 84.5335 32.2359C84.6144 31.9886 84.8673 31.7918 85.0949 31.6101C85.3174 31.4386 85.545 31.2569 85.6866 31.0248C85.7827 30.8784 85.8383 30.7169 85.8636 30.5504C85.8788 30.3738 85.8586 30.1921 85.7979 30.0155C85.7473 29.8692 85.6664 29.7279 85.5602 29.6067Z" fill="#860142"/>
<path fill-rule="evenodd" clip-rule="evenodd" d="M84.3533 30.3284C84.156 30.5707 84.0094 30.8482 83.9183 31.1459L83.888 31.2216C83.6553 31.7263 82.9523 31.8625 81.7891 31.6556C82.0925 30.5454 82.5174 29.9802 83.0535 29.9651H83.1243C83.5845 30.0307 84.0599 29.9954 84.505 29.8591C86.3207 29.3545 85.0968 29.304 84.3533 30.3284Z" fill="#FBA407"/>
<path d="M82.7037 31.9079C82.4306 31.9079 82.117 31.8776 81.7579 31.812L81.5859 31.7818L81.6315 31.6102C81.9551 30.4293 82.4306 29.8187 83.0476 29.7985H83.1235C83.5837 29.8641 84.0339 29.8288 84.4587 29.6976C84.661 29.6421 84.8229 29.5916 84.9493 29.5462C85.1971 29.3898 85.4095 29.3191 85.5006 29.3494L85.6118 29.3898V29.5109C85.6118 29.5866 85.6068 29.6673 85.0909 29.844C84.9038 29.9651 84.6812 30.1467 84.484 30.4142L84.4789 30.4192C84.2968 30.6463 84.1603 30.9037 84.0743 31.1812L84.0389 31.267C83.8417 31.701 83.4067 31.9079 82.7037 31.9079ZM81.9956 31.5244C82.9717 31.6758 83.5584 31.5496 83.7405 31.151L83.7658 31.0854C83.8568 30.7775 84.0136 30.4848 84.221 30.2275C84.2614 30.172 84.307 30.1165 84.3525 30.066C83.9428 30.1619 83.5129 30.1821 83.0982 30.1215H83.0527C82.5317 30.1367 82.1929 30.8583 81.9956 31.5244Z" fill="#860142"/>
<path fill-rule="evenodd" clip-rule="evenodd" d="M86.3125 10.4761C86.3479 11.2482 87.0661 11.8992 87.6073 12.3836C87.7995 12.2575 87.9562 12.0809 88.0624 11.879C88.1687 11.7024 88.2344 11.5056 88.2546 11.3037C88.2749 11.112 88.2445 10.9152 88.1737 10.7335C87.9107 10.0018 86.9852 9.5678 87.41 9.0228C86.6969 9.40127 86.3327 9.84535 86.3125 10.3601V10.4761V10.4761Z" fill="#FBA407"/>
<path d="M87.593 12.5855L87.4969 12.4997C86.9456 12.0052 86.1869 11.329 86.1465 10.4812V10.3601C86.1667 9.77975 86.5663 9.28521 87.33 8.8815L87.9976 8.52826L87.5323 9.12373C87.3654 9.33567 87.4767 9.5022 87.8054 9.89077C87.9925 10.1128 88.21 10.3702 88.3213 10.683C88.4022 10.8798 88.4325 11.1069 88.4123 11.3239C88.387 11.551 88.3162 11.773 88.1999 11.9648C88.0836 12.1818 87.9066 12.3786 87.6941 12.5199L87.593 12.5855ZM86.4752 10.4711C86.5056 11.1372 87.1226 11.7276 87.6183 12.1717C87.7397 12.0708 87.8459 11.9396 87.9217 11.7983C88.0178 11.6368 88.0785 11.4602 88.0937 11.2836C88.1089 11.117 88.0836 10.9454 88.0229 10.789C87.9268 10.5266 87.7447 10.3046 87.5626 10.0926C87.3755 9.87058 87.1732 9.62836 87.1428 9.36595C86.7079 9.66368 86.4904 9.99169 86.4752 10.3601V10.4711Z" fill="#860142"/>
<path fill-rule="evenodd" clip-rule="evenodd" d="M87.59 12.4038C87.4889 12.6006 87.3473 12.7722 87.1702 12.9085C87.0084 13.0346 86.8213 13.1254 86.6189 13.1709C86.4318 13.2163 86.2295 13.2163 86.0424 13.1709C85.2837 12.9993 84.7375 12.1616 84.252 12.6208C84.5402 11.8487 84.9499 11.4349 85.4759 11.3643H85.5315C86.3054 11.3037 87.0488 11.9396 87.59 12.4139V12.4038Z" fill="#FBA407"/>
<path d="M86.3298 13.3626C86.2186 13.3626 86.1123 13.3475 86.0011 13.3223C85.6824 13.2516 85.3992 13.07 85.1514 12.9135C84.7316 12.6461 84.5445 12.5552 84.3573 12.7319L83.8516 13.2113L84.0943 12.5603C84.4029 11.7377 84.858 11.2785 85.4498 11.2028H85.5257C86.2894 11.1423 87.0126 11.7024 87.5285 12.1515L87.7409 11.7327V12.7672L87.6145 12.6562C87.5184 12.7975 87.397 12.9287 87.2604 13.0346C87.0834 13.1759 86.871 13.2769 86.6485 13.3273C86.5473 13.3526 86.4411 13.3626 86.3298 13.3626ZM84.5596 12.3231C84.8226 12.3231 85.0856 12.4896 85.3284 12.6461C85.5661 12.7975 85.8089 12.9488 86.0769 13.0145C86.2438 13.0548 86.4158 13.0548 86.5776 13.0145C86.7547 12.9741 86.9266 12.8933 87.0682 12.7823C87.1896 12.6864 87.2958 12.5754 87.3768 12.4442C86.8963 12.0254 86.2186 11.4753 85.5408 11.5258H85.47C85.1008 11.5763 84.7973 11.8387 84.5495 12.3231C84.5596 12.3231 84.5596 12.3231 84.5596 12.3231Z" fill="#860142"/>
<path fill-rule="evenodd" clip-rule="evenodd" d="M87.0223 11.9346C86.8099 11.763 86.5722 11.6217 86.3193 11.5107C86.0361 11.3744 85.7174 11.324 85.4039 11.3643H85.3229C84.7716 11.3088 84.4125 10.6881 84.2305 9.52241C85.3836 9.45177 86.0563 9.66876 86.2535 10.1734C86.2586 10.1936 86.2586 10.2188 86.2535 10.239C86.4002 10.9051 86.729 11.5208 87.2044 12.0102C87.7911 12.641 87.4522 12.2828 87.0122 11.9396L87.0223 11.9346Z" fill="#FBA407"/>
<path d="M87.5285 12.5199C87.4577 12.5199 87.3819 12.4594 87.2959 12.3786C87.2048 12.2979 87.0632 12.1818 86.9165 12.0607L86.7193 11.9093H86.7243C86.5777 11.8134 86.4209 11.7277 86.259 11.657C85.996 11.5308 85.7128 11.4854 85.4296 11.5208H85.3284C84.676 11.4551 84.2764 10.8092 84.0741 9.54259L84.0488 9.36597L84.2259 9.35588C85.47 9.28019 86.1832 9.52745 86.4108 10.1078C86.4209 10.1532 86.4259 10.1936 86.4259 10.2238C86.5676 10.8496 86.8811 11.4249 87.3313 11.8891C87.7561 12.3433 87.7561 12.3433 87.6448 12.4594C87.5993 12.5048 87.5639 12.5199 87.5285 12.5199ZM85.6218 11.1877C85.8797 11.1877 86.1478 11.2482 86.3905 11.3643C86.4512 11.3895 86.5119 11.4198 86.5676 11.4501C86.3501 11.0868 86.1882 10.6932 86.0972 10.2743L86.0871 10.239L86.0972 10.2037C85.9455 9.82519 85.379 9.64352 84.4231 9.6738C84.6001 10.6427 84.9086 11.1574 85.3436 11.2028H85.4093C85.4751 11.1927 85.551 11.1877 85.6218 11.1877Z" fill="#860142"/>
<path fill-rule="evenodd" clip-rule="evenodd" d="M112.23 30.5908C111.86 31.1257 111.8 31.8877 111.056 32.0442C110.829 32.0845 110.591 32.0543 110.383 31.9533L110.272 31.8978C110.12 31.812 110.131 31.7262 110.161 31.5597C110.171 31.5143 110.181 31.4638 110.196 31.4184C110.252 31.2721 110.338 31.1358 110.449 31.0248C110.985 30.4697 111.572 30.7321 112.23 30.5908Z" fill="#F0A633"/>
<path d="M110.859 32.2208C110.672 32.2208 110.485 32.1804 110.313 32.0946L110.197 32.0391C109.934 31.8877 109.969 31.6909 109.999 31.5294C110.009 31.4739 110.025 31.4184 110.04 31.3679C110.106 31.1913 110.207 31.0399 110.333 30.9087C110.738 30.4899 111.178 30.4848 111.598 30.4798C111.79 30.4798 111.992 30.4747 112.194 30.4293L112.594 30.3435L112.361 30.6766C112.26 30.828 112.179 31.0046 112.098 31.1711C111.906 31.59 111.689 32.0694 111.087 32.1955C111.011 32.2157 110.935 32.2208 110.859 32.2208ZM111.926 30.7927C111.815 30.7977 111.709 30.8028 111.603 30.8028C111.198 30.8078 110.879 30.8128 110.566 31.1358C110.47 31.2317 110.394 31.3478 110.348 31.4739C110.338 31.5042 110.328 31.5446 110.318 31.59C110.293 31.7262 110.293 31.7262 110.348 31.7565L110.454 31.807C110.632 31.8928 110.834 31.918 111.026 31.8827C111.461 31.7918 111.618 31.4436 111.805 31.0399C111.845 30.9592 111.881 30.8734 111.926 30.7927Z" fill="#860142"/>
<path fill-rule="evenodd" clip-rule="evenodd" d="M112.715 34.1435C111.79 34.305 110.247 34.2192 110.383 32.1249C112.235 32.2561 112.376 32.8869 112.715 34.1435Z" fill="#F0A633"/>
<path d="M112.128 34.3554C111.683 34.3554 111.167 34.2595 110.782 33.9164C110.358 33.5379 110.17 32.9273 110.221 32.1148L110.231 31.9533L110.393 31.9634C112.33 32.0997 112.527 32.8314 112.856 34.0425L112.917 34.2696L112.74 34.2999C112.578 34.3302 112.36 34.3554 112.128 34.3554ZM110.535 32.2965C110.519 32.9222 110.676 33.3865 110.995 33.6741C111.425 34.0577 112.072 34.0627 112.507 34.0072C112.214 32.9172 112.037 32.4327 110.535 32.2965Z" fill="#860142"/>
<path fill-rule="evenodd" clip-rule="evenodd" d="M108.867 34.1031C109.373 33.7297 110.157 33.6489 110.299 32.9071C110.339 32.68 110.304 32.4479 110.197 32.241C110.182 32.2006 110.162 32.1653 110.137 32.13C110.051 31.9786 109.965 31.9887 109.798 32.019L109.656 32.0593C109.51 32.1199 109.378 32.2107 109.267 32.3167C108.721 32.8617 108.994 33.4471 108.867 34.1031Z" fill="#F0A633"/>
<path d="M108.629 34.4765L108.705 34.0677C108.745 33.8659 108.74 33.6691 108.74 33.4773C108.735 33.0534 108.735 32.6144 109.15 32.2006C109.281 32.0744 109.428 31.9786 109.59 31.9079L109.752 31.8625C109.929 31.8272 110.131 31.7918 110.278 32.0492C110.303 32.0795 110.328 32.13 110.349 32.1804C110.465 32.3974 110.505 32.6699 110.46 32.9323C110.343 33.5278 109.873 33.7549 109.453 33.9567C109.276 34.0425 109.104 34.1232 108.963 34.2292L108.629 34.4765ZM109.929 32.1602C109.908 32.1602 109.873 32.1653 109.823 32.1754L109.696 32.2107C109.59 32.2561 109.474 32.3318 109.372 32.4277C109.054 32.7456 109.059 33.0635 109.059 33.4723C109.059 33.5732 109.059 33.6792 109.054 33.7902C109.135 33.7448 109.221 33.7044 109.302 33.6691C109.701 33.4773 110.045 33.3108 110.131 32.8768C110.166 32.685 110.136 32.4882 110.045 32.3167C110.03 32.2763 110.015 32.2511 110 32.2258C109.979 32.1754 109.969 32.1602 109.929 32.1602Z" fill="#860142"/>
<path fill-rule="evenodd" clip-rule="evenodd" d="M94.3066 37.9736C93.6896 37.7768 92.936 37.9332 92.5769 37.2671C92.4707 37.0602 92.4302 36.828 92.4656 36.601C92.4606 36.5606 92.4707 36.5152 92.4909 36.4799C92.5314 36.3083 92.6123 36.2931 92.7792 36.2729H92.9259C93.0827 36.283 93.2344 36.3285 93.376 36.3991C94.0689 36.7524 93.983 37.4084 94.3066 37.9736Z" fill="#FBA407"/>
<path d="M94.4677 38.5892L94.1946 38.1047C94.0429 38.0644 93.876 38.0391 93.709 38.019C93.2488 37.9534 92.7228 37.8827 92.4345 37.3428C92.3081 37.1056 92.2676 36.8381 92.3081 36.5757C92.303 36.5454 92.3131 36.4798 92.3384 36.4243C92.4092 36.1569 92.6065 36.1316 92.7582 36.1115H92.9251C93.1173 36.1266 93.2893 36.172 93.4511 36.2578C93.972 36.5252 94.1035 36.9441 94.23 37.3478C94.2806 37.5143 94.3362 37.6809 94.4171 37.8373L94.4728 37.8524V38.5892H94.4677ZM92.915 36.4294H92.7784C92.6621 36.4445 92.6621 36.4445 92.6469 36.5101L92.6318 36.5505V36.5707L92.6216 36.6211C92.5913 36.8179 92.6216 37.0097 92.7177 37.1863C92.9302 37.5799 93.3095 37.6354 93.7546 37.696C93.8405 37.7061 93.9316 37.7212 94.0176 37.7364C93.9822 37.6354 93.9518 37.5345 93.9164 37.4386C93.8001 37.0652 93.6989 36.7422 93.2994 36.5404C93.178 36.4798 93.0516 36.4395 92.915 36.4294Z" fill="#860142"/>
<path fill-rule="evenodd" clip-rule="evenodd" d="M91.0384 39.4572C90.6135 38.6195 90.2544 37.1208 92.318 36.6414C92.7276 38.4479 92.1662 38.7659 91.0384 39.4572Z" fill="#FBA407"/>
<path d="M90.9733 39.6843L90.8923 39.5278C90.6749 39.0989 90.3562 38.2663 90.6951 37.5497C90.9379 37.0299 91.474 36.6716 92.2781 36.4849L92.4349 36.4496L92.4703 36.606C92.9002 38.5034 92.2832 38.8819 91.1604 39.5682L90.9733 39.6843ZM92.1972 36.8381C91.5802 37.0097 91.1756 37.2923 90.9935 37.6859C90.7507 38.2057 90.9328 38.8264 91.1098 39.2251C92.0859 38.6245 92.4956 38.3117 92.1972 36.8381Z" fill="#860142"/>
<path fill-rule="evenodd" clip-rule="evenodd" d="M89.966 35.7885C90.4718 36.1871 90.7752 36.8936 91.5288 36.7977C91.7564 36.7675 91.9739 36.6665 92.1408 36.5101L92.2268 36.4193C92.3482 36.2931 92.3128 36.2124 92.2268 36.066C92.2065 36.0206 92.1812 35.9802 92.1509 35.9399C92.0497 35.8187 91.9284 35.7178 91.7918 35.6421C91.109 35.2737 90.6285 35.7077 89.9609 35.7733L89.966 35.7885Z" fill="#FBA407"/>
<path d="M91.3929 36.9643C90.8669 36.9643 90.5433 36.606 90.2499 36.2931C90.1235 36.1518 90.0021 36.0206 89.8655 35.9146L89.8251 35.8844L89.7441 35.632L89.9464 35.6119C90.1488 35.5917 90.3409 35.5311 90.5281 35.4756C90.9327 35.3495 91.3525 35.2233 91.8684 35.5008C92.0252 35.5866 92.1617 35.6976 92.278 35.8389C92.3185 35.8894 92.3488 35.9449 92.3741 36.0004C92.4449 36.1215 92.5562 36.3083 92.3438 36.5303L92.2578 36.6211C92.0555 36.8129 91.8127 36.9239 91.5497 36.9592C91.4941 36.9643 91.4435 36.9643 91.3929 36.9643ZM90.3005 35.8743C90.3662 35.9399 90.4269 36.0105 90.4876 36.0761C90.7911 36.4092 91.0541 36.6918 91.5042 36.6363C91.7015 36.611 91.8835 36.5252 92.0252 36.389L92.1061 36.3032C92.1364 36.2729 92.1415 36.2578 92.1415 36.2578C92.1415 36.2376 92.101 36.167 92.0859 36.1417C92.0606 36.0913 92.0454 36.061 92.0201 36.0307C91.9341 35.9298 91.833 35.8389 91.7116 35.7784C91.312 35.5664 91.0086 35.6573 90.6191 35.7784C90.518 35.8137 90.4118 35.849 90.3005 35.8743Z" fill="#860142"/>
<path fill-rule="evenodd" clip-rule="evenodd" d="M82.1067 23.0718C82.137 22.4258 81.788 21.7395 82.3393 21.2198C82.5113 21.0633 82.7288 20.9675 82.9564 20.9422H83.0828C83.2548 20.9422 83.2952 21.0129 83.3559 21.1693C83.3761 21.2147 83.3913 21.2601 83.3964 21.3106C83.4318 21.462 83.4318 21.6235 83.3964 21.7749C83.2345 22.5318 82.5973 22.6176 82.1117 23.0819L82.1067 23.0718Z" fill="#FBA407"/>
<path d="M82.0661 23.3443L81.9498 23.1121L81.9448 23.0566C81.9549 22.88 81.9296 22.6882 81.9043 22.5015C81.8487 22.0373 81.7778 21.5175 82.228 21.0936C82.4303 20.9119 82.6731 20.8009 82.9361 20.7706H83.0827C83.3811 20.7706 83.4519 20.9624 83.5076 21.1037C83.5329 21.1542 83.548 21.2198 83.5582 21.2854C83.5986 21.4418 83.5986 21.6285 83.5531 21.8051C83.4317 22.3754 83.0625 22.6125 82.7034 22.8396C82.5416 22.9456 82.3696 23.0516 82.2229 23.1929L82.0661 23.3443ZM82.9563 21.0986C82.7793 21.1188 82.5972 21.1996 82.4505 21.3358C82.1268 21.6436 82.1723 22.0221 82.228 22.4662C82.2381 22.5621 82.2533 22.6529 82.2583 22.7488C82.3494 22.6832 82.4404 22.6277 82.5264 22.5722C82.8703 22.3552 83.1384 22.1836 83.2345 21.7395C83.2648 21.6083 83.2648 21.4721 83.2345 21.3459C83.2294 21.2954 83.2193 21.2652 83.2041 21.2349C83.1535 21.0986 83.1535 21.0986 83.0777 21.0986H82.9563Z" fill="#860142"/>
<path fill-rule="evenodd" clip-rule="evenodd" d="M79.8262 20.3064C80.5241 19.6807 81.8846 18.9439 82.8608 20.811C81.217 21.6588 80.7618 21.2147 79.8262 20.3064Z" fill="#FBA407"/>
<path d="M81.4238 21.4217C80.7461 21.4217 80.3162 21.0028 79.7143 20.4225L79.5879 20.3014L79.7143 20.1853C80.0734 19.8624 80.7967 19.3426 81.5806 19.4839C82.142 19.5848 82.6225 20.0087 83.0018 20.7354L83.0777 20.8767L82.931 20.9524C82.2937 21.2804 81.8183 21.4217 81.4238 21.4217ZM80.0633 20.3115C80.8725 21.0886 81.2873 21.4015 82.6377 20.7404C82.319 20.1904 81.9448 19.8775 81.525 19.8018C80.9585 19.7009 80.4072 20.0339 80.0633 20.3115Z" fill="#860142"/>
<path fill-rule="evenodd" clip-rule="evenodd" d="M83.1187 18.3181C82.8659 18.9136 82.2589 19.3829 82.532 20.0894C82.618 20.3013 82.7698 20.478 82.967 20.594L83.0783 20.6546C83.23 20.7353 83.2958 20.6849 83.4222 20.5688C83.4576 20.5385 83.4879 20.5032 83.5183 20.4628C83.6144 20.3367 83.6801 20.1954 83.7155 20.0389C83.8976 19.287 83.3564 18.9388 83.1187 18.308V18.3181Z" fill="#FBA407"/>
<path d="M83.2096 20.8514C83.1489 20.8514 83.0831 20.8363 83.0022 20.7908L82.8909 20.7303C82.6633 20.594 82.4813 20.3871 82.3852 20.1449C82.1626 19.5696 82.4458 19.1256 82.6987 18.7319C82.7948 18.5856 82.8909 18.4342 82.9567 18.2778V17.4149L83.2703 18.2475C83.3411 18.4393 83.4473 18.6108 83.5535 18.7774C83.776 19.1357 84.0087 19.504 83.8721 20.0743C83.8367 20.2458 83.7558 20.4174 83.6445 20.5587C83.6142 20.5991 83.5737 20.6445 83.5282 20.6849C83.4473 20.7606 83.3512 20.8514 83.2096 20.8514ZM83.1135 18.6764C83.0679 18.7572 83.0174 18.8329 82.9668 18.9086C82.724 19.282 82.5167 19.61 82.6785 20.0288C82.7493 20.2004 82.8808 20.3569 83.0477 20.4527L83.1539 20.5083C83.1893 20.5284 83.2045 20.5284 83.2045 20.5284C83.2247 20.5234 83.2854 20.4679 83.3107 20.4477C83.3411 20.4225 83.3663 20.3972 83.3866 20.367C83.4726 20.2559 83.5282 20.1348 83.5585 20.0036C83.6648 19.5595 83.4979 19.2921 83.2804 18.9489C83.2247 18.8581 83.1691 18.7723 83.1135 18.6764Z" fill="#860142"/>
<path fill-rule="evenodd" clip-rule="evenodd" d="M92.4543 7.23642C93.0561 6.9942 93.5366 6.39368 94.2396 6.68132C94.4521 6.77216 94.6291 6.92859 94.7454 7.1254L94.8061 7.23137C94.882 7.38781 94.8314 7.45341 94.71 7.57452C94.6797 7.60985 94.6443 7.64013 94.6038 7.6704C94.4723 7.76124 94.3307 7.82684 94.1739 7.86216C93.4203 8.02869 93.0764 7.48369 92.4492 7.23642H92.4543Z" fill="#FBA407"/>
<path d="M93.9008 8.05393C93.4962 8.05393 93.2029 7.86217 92.9146 7.67545C92.7528 7.56948 92.5808 7.45846 92.3886 7.38277L91.5996 7.0699H92.424C92.5808 7.00429 92.7325 6.90841 92.8843 6.81758C93.2838 6.57031 93.7339 6.29276 94.3004 6.52994C94.5482 6.63591 94.7505 6.81253 94.882 7.03962L94.9427 7.14559C95.0793 7.42818 94.9377 7.56948 94.8213 7.6805C94.791 7.71582 94.7455 7.75619 94.6949 7.79152C94.5482 7.89749 94.3813 7.96814 94.2043 8.00851C94.0981 8.04383 93.9969 8.05393 93.9008 8.05393ZM92.8185 7.23642C92.9146 7.29193 93.0056 7.34744 93.0916 7.408C93.4305 7.63004 93.7036 7.80161 94.1386 7.70573C94.2701 7.67545 94.3965 7.61994 94.5078 7.5392C94.5381 7.51902 94.5634 7.49379 94.5887 7.46855C94.6898 7.36763 94.6898 7.36763 94.6595 7.30203L94.6039 7.20615C94.5027 7.03962 94.356 6.90841 94.174 6.83272C93.7592 6.66114 93.4305 6.863 93.0512 7.10017C92.9753 7.14054 92.8994 7.19101 92.8185 7.23642Z" fill="#860142"/>
<path fill-rule="evenodd" clip-rule="evenodd" d="M94.0272 4.03201C94.8921 4.41049 96.1261 5.33901 94.8364 7.01944C93.3697 5.88906 93.5973 5.2835 94.0272 4.03201Z" fill="#FBA407"/>
<path d="M94.8668 7.24148L94.7404 7.14055C93.1978 5.94962 93.4355 5.26332 93.8654 4.01183L93.921 3.84531L94.093 3.87558C94.5381 4.06734 95.3119 4.51142 95.5092 5.27846C95.6508 5.83356 95.4687 6.44921 94.9629 7.10523L94.8668 7.24148ZM94.1233 4.25406C93.7541 5.33902 93.6327 5.84365 94.8061 6.78731C95.1753 6.26249 95.3068 5.78814 95.1956 5.3693C95.054 4.80915 94.5178 4.45087 94.1233 4.25406Z" fill="#860142"/>
<path fill-rule="evenodd" clip-rule="evenodd" d="M97.2343 6.17673C96.5869 6.17673 95.9092 5.83863 95.3781 6.37858C95.2163 6.54511 95.1151 6.7621 95.0898 6.99423V7.11535C95.0898 7.29197 95.1505 7.32729 95.3073 7.39289C95.3528 7.41308 95.3984 7.42822 95.4489 7.43831C95.6007 7.47363 95.7625 7.47363 95.9142 7.43831C96.678 7.29197 96.769 6.65613 97.2444 6.17673H97.2343Z" fill="#FBA407"/>
<path d="M95.6813 7.62501C95.5903 7.62501 95.4993 7.61492 95.4082 7.59473C95.3526 7.58464 95.2969 7.56445 95.2413 7.53922C95.0643 7.46353 94.9277 7.38783 94.9277 7.11533V6.99422C94.9581 6.71162 95.0795 6.45931 95.2615 6.26755C95.7016 5.81843 96.2377 5.89412 96.7131 5.96477C96.8851 5.99 97.0671 6.01523 97.2391 6.01523H97.6386L97.3655 6.28773C97.2189 6.43408 97.1127 6.60061 97.0064 6.76209C96.7738 7.11533 96.531 7.48371 95.9544 7.59473C95.8583 7.61492 95.7724 7.62501 95.6813 7.62501ZM96.1567 6.23222C95.914 6.23222 95.6914 6.28773 95.4942 6.48959C95.3627 6.63088 95.2717 6.8176 95.2514 7.00936V7.11028C95.2514 7.19102 95.2514 7.19102 95.3677 7.23644C95.4082 7.25158 95.4436 7.26672 95.479 7.27177C95.6105 7.30204 95.7471 7.30204 95.8735 7.27177C96.3237 7.18598 96.5007 6.91852 96.7232 6.58042C96.7839 6.48959 96.8446 6.39875 96.9103 6.30792C96.8244 6.29783 96.7434 6.28773 96.6625 6.27259C96.4855 6.25746 96.3135 6.23222 96.1567 6.23222Z" fill="#860142"/>
<path d="M3.24197 59.7131L1.41109 65.3499H0V53.2236H1.19867V62.2817L2.44791 58.4465L4.22316 53.2236H5.7354V65.365H4.52156V55.6862L3.24197 59.7131Z" fill="white"/>
<path d="M8.46608 59.8746V65.3398H7.13086V53.2236H8.46608V58.6887H11.4552V53.2236H12.8106V65.365H11.4552V59.8746H8.46608Z" fill="white"/>
<path d="M19.9525 54.6315C21.8997 54.6315 22.7696 55.7417 22.7696 57.6694V60.9949C22.7696 62.9226 21.9047 64.0328 19.9525 64.0328H19.1028V65.3701H17.7625V64.0328H16.9128C14.9656 64.0328 14.0957 62.9226 14.0957 60.9949V57.6694C14.0957 55.7417 14.9606 54.6315 16.9128 54.6315H17.7625V53.2236H19.1028V54.6466L19.9525 54.6315ZM16.9128 55.8275C15.8861 55.8275 15.436 56.4128 15.436 57.5785V61.0656C15.436 62.2313 15.8861 62.8318 16.9128 62.8318H17.7625V55.8275H16.9128ZM19.9525 62.8368C20.9792 62.8368 21.4546 62.2313 21.4546 61.0706V57.5836C21.4546 56.4179 20.9994 55.8325 19.9525 55.8325H19.1028V62.8368H19.9525Z" fill="white"/>
<path d="M23.9844 56.1403C23.9844 54.2833 24.9049 53.0873 26.761 53.0873C28.6172 53.0873 29.5377 54.2833 29.5377 56.1403V62.418C29.5377 64.2599 28.6172 65.471 26.761 65.471C24.9049 65.471 23.9844 64.2548 23.9844 62.418V56.1403ZM25.3247 62.4937C25.3247 63.6038 25.795 64.2447 26.7712 64.2447C27.7422 64.2447 28.2176 63.6038 28.2176 62.4937V56.0747C28.2176 54.9645 27.7625 54.3237 26.7712 54.3237C25.7849 54.3237 25.3247 54.9847 25.3247 56.0747V62.4937Z" fill="white"/>
<path d="M33.5119 53.2236C35.4237 53.2236 36.238 54.3338 36.238 56.1908V57.6593C36.238 59.587 35.3327 60.5912 33.4057 60.5912H32.207V65.3802H30.8516V53.2236H33.5119ZM33.4057 59.3649C34.4172 59.3649 34.8977 58.9007 34.8977 57.735V56.105C34.8977 54.9948 34.4981 54.4448 33.5068 54.4448H32.202V59.3498L33.4057 59.3649Z" fill="white"/>
<path d="M41.7813 65.3347H40.4613L38.4433 55.6761V65.3549H37.2598V53.2286H39.1564L41.1542 62.9276L43.0811 53.2286H44.9778V65.3701H43.6931V55.5903L41.7813 65.3347Z" fill="white"/>
<path d="M47.7645 62.9075L47.2942 65.3499H46.0449L48.3714 53.2236H50.3389L52.6806 65.3499H51.3251L50.8598 62.9075H47.7645ZM47.9365 61.7418H50.6474L49.2768 54.7375L47.9365 61.7418Z" fill="white"/>
<path d="M59.1501 66.9798V65.3499H53.8496V53.2236H55.1899V64.1388H58.179V53.2236H59.5496V64.169H60.46V66.995L59.1501 66.9798Z" fill="white"/>
<path d="M64.8285 59.7485L63.038 65.3499H61.627V53.2236H62.8256V62.2817L63.9029 58.9562L65.8501 53.2488H67.3624V65.3902H66.1435V55.6912L64.8285 59.7485Z" fill="white"/>
<path d="M71.8891 60.1623C70.7764 60.1623 70.1139 60.6013 70.1139 61.9688V63.8764C70.1543 64.3759 70.0784 64.8856 69.8913 65.3499H68.5156C68.7078 64.8907 68.7938 64.3911 68.7584 63.8915V61.9991C68.7584 60.6972 69.1731 59.7838 70.2757 59.4659C69.249 59.1379 68.7736 58.3002 68.7736 56.9679V55.994C68.7736 54.1925 69.5727 53.2236 71.4895 53.2236H74.2004V65.365H72.845V60.1774L71.8891 60.1623ZM71.5199 54.4448C70.5083 54.4448 70.1088 54.9999 70.1088 56.105V57.2707C70.1088 58.5878 70.7511 58.931 71.8132 58.931H72.8399V54.4397L71.5199 54.4448Z" fill="white"/>
<path d="M86.3446 56.1403V57.2505H85.06V56.0899C85.06 54.9797 84.62 54.3388 83.6337 54.3388C82.6475 54.3388 82.2075 54.9999 82.2075 56.0899V62.5088C82.2075 63.619 82.6627 64.2599 83.6337 64.2599C84.6048 64.2599 85.06 63.5988 85.06 62.5088V60.9293H86.3446V62.4382C86.3446 64.2801 85.4798 65.4912 83.5983 65.4912C81.7219 65.4912 80.8672 64.275 80.8672 62.4382V56.1403C80.8672 54.2984 81.7371 53.0873 83.5983 53.0873C85.4595 53.0873 86.3446 54.2984 86.3446 56.1403Z" fill="white"/>
<path d="M87.4727 56.1403C87.4727 54.2833 88.3932 53.0873 90.2493 53.0873C92.1055 53.0873 93.026 54.2833 93.026 56.1403V62.418C93.026 64.2599 92.1055 65.471 90.2493 65.471C88.3932 65.471 87.4727 64.2548 87.4727 62.418V56.1403ZM88.7877 62.4937C88.7877 63.6038 89.258 64.2447 90.2341 64.2447C91.2052 64.2447 91.6806 63.6038 91.6806 62.4937V56.0747C91.6806 54.9645 91.2255 54.3237 90.2341 54.3237C89.2428 54.3237 88.7877 54.9847 88.7877 56.0747V62.4937Z" fill="white"/>
<path d="M102.459 53.2236C104.355 53.2236 105.099 54.1269 105.099 55.9133V56.4684C105.099 57.7501 104.74 58.5474 103.678 58.8805C104.856 59.2085 105.311 60.1421 105.311 61.4794V62.5038C105.311 64.3204 104.421 65.3448 102.534 65.3448H99.7578V53.2236H102.459V53.2236ZM102.125 58.3809C103.202 58.3809 103.758 58.0327 103.758 56.7661V56.0495C103.758 54.9746 103.399 54.4599 102.418 54.4599H101.078V58.3759H102.125V58.3809ZM102.524 64.1388C103.511 64.1388 103.971 63.619 103.971 62.4785V61.4037C103.971 60.0512 103.415 59.6021 102.266 59.6021H101.083V64.1287L102.524 64.1388Z" fill="white"/>
<path d="M108.609 60.0815L107.896 61.2775V65.3499H106.561V53.2236H107.916V59.0874L111.128 53.2236H112.498L109.423 58.7644L112.604 65.3701H111.214L108.609 60.0815Z" fill="white"/>
<path d="M117.298 62.6804C116.883 64.5021 116.256 65.4508 114.041 65.3701V64.1539C115.083 64.2044 115.558 63.8764 115.781 62.9579L116.064 62.1606L113.287 53.2084H114.643L115.877 57.4272L116.711 60.4802L117.424 57.4272L118.537 53.2084H119.897L117.298 62.6804Z" fill="white"/>
<path d="M126.265 56.1403V57.2505H124.981V56.0899C124.981 54.9797 124.546 54.3388 123.554 54.3388C122.558 54.3388 122.128 54.9999 122.128 56.0899V62.5088C122.128 63.619 122.583 64.2599 123.554 64.2599C124.526 64.2599 124.981 63.5988 124.981 62.5088V60.9293H126.265V62.4382C126.265 64.2801 125.401 65.4912 123.519 65.4912C121.643 65.4912 120.793 64.275 120.793 62.4382V56.1403C120.793 54.2984 121.658 53.0873 123.519 53.0873C125.38 53.0873 126.265 54.2984 126.265 56.1403Z" fill="white"/>
<path d="M127.393 56.1403C127.393 54.2833 128.313 53.0873 130.169 53.0873C132.025 53.0873 132.946 54.2833 132.946 56.1403V62.418C132.946 64.2599 132.025 65.471 130.169 65.471C128.313 65.471 127.393 64.2548 127.393 62.418V56.1403ZM128.733 62.4937C128.733 63.6038 129.203 64.2447 130.179 64.2447C131.15 64.2447 131.626 63.6038 131.626 62.4937V56.0747C131.626 54.9645 131.176 54.3237 130.179 54.3237C129.183 54.3237 128.733 54.9847 128.733 56.0747V62.4937V62.4937Z" fill="white"/>
<path d="M138.747 65.3347H137.442L135.449 55.6761V65.3549H134.266V53.2286H136.162L138.16 62.9276L140.092 53.2286H141.989V65.3701H140.699V55.5903L138.747 65.3347Z" fill="white"/>
<path d="M17.9396 24.949L17.6361 23.9045C23.5333 22.7993 27.5238 19.9179 27.5238 13.5444C27.5238 5.02617 20.8275 2.14472 13.2713 1.93782V32.1804C13.2713 39.8256 14.4396 41.3748 22.1172 42.3488V43.3883C14.7482 43.2672 7.37914 43.2672 0 43.3883V42.3488C7.56122 41.6221 7.61685 38.8617 7.61685 32.1804V11.218C7.61685 5.16242 7.24764 2.32638 0.490594 1.77634V0.671191C5.40159 0.671191 10.3176 0.550079 15.2337 0.550079C22.9112 0.550079 33.7852 1.77634 33.7852 11.7075C33.7903 20.8413 25.8245 24.0256 17.9396 24.949Z" fill="white"/>
<path d="M66.4177 43.459C54.6232 43.3378 42.8894 43.3984 31.0898 43.3984V42.3488C38.7724 41.8038 39.0759 38.8618 39.0759 31.9332V11.1524C39.0759 4.47108 38.1554 2.44751 31.0898 1.77635V0.671204C38.2818 0.797362 45.4081 0.797362 52.595 0.671204V1.77635C45.6509 2.3264 44.6697 4.59724 44.6697 11.1524V33.0989C44.6697 41.2537 44.4219 41.6221 52.7164 41.6221C62.24 41.6221 64.6374 39.7196 69.1235 31.4437L69.9226 31.812L66.4177 43.459Z" fill="white"/>
<path d="M152.818 15.0431C148.888 24.515 145.024 33.9264 141.271 43.4589H140.634L126.857 9.9564C125.218 5.91934 123.575 1.77127 118.537 1.59465V0.545013C124.864 0.661079 131.191 0.661079 137.524 0.545013V1.59465C135.354 1.59465 131.606 1.94789 131.606 4.86971C131.606 9.37103 142.151 32.8162 142.799 34.4512C143.557 32.6396 153.698 9.9564 153.698 5.33902C153.698 1.94789 149.652 1.71071 147.123 1.59465V0.545013C152.747 0.661079 158.371 0.661079 164.001 0.545013V1.59465C157.562 1.59465 154.866 10.133 152.818 15.0431Z" fill="white"/>
</svg>
