<svg width="13" height="13" viewBox="0 0 13 13" fill="none" xmlns="http://www.w3.org/2000/svg"><path d="M10.415 3.419L7.006.202A.743.743 0 006.496 0a.743.743 0 00-.51.198L5.98.202 2.586 3.42H.723a.743.743 0 00-.51.2.667.667 0 00-.212.484v8.213a.67.67 0 00.211.484c.136.128.32.2.511.2H12.28a.743.743 0 00.51-.2.667.667 0 00.212-.484V4.103a.667.667 0 00-.212-.484.743.743 0 00-.51-.2h-1.864zM6.501 1.653L8.364 3.42H4.638L6.5 1.653zm5.055 9.978H1.447V4.788h10.11v6.843zm-6.5-4.79a.667.667 0 01-.211.484.743.743 0 01-.51.2.743.743 0 01-.511-.2.667.667 0 01-.212-.484c0-.182.076-.356.212-.484a.738.738 0 01.51-.2c.192 0 .375.071.51.2a.667.667 0 01.212.484zm5.056 3.422H4.334l1.084-2.054.722 1.37 1.805-3.423 2.167 4.107z" fill="#fff"/></svg>