<svg width="17" height="17" viewBox="0 0 17 17" fill="none" xmlns="http://www.w3.org/2000/svg"><path d="M8.507 17a8.46 8.46 0 01-4.24-1.142L.951 17l.68-3.506A8.398 8.398 0 010 8.5C0 3.812 3.812 0 8.5 0 13.188 0 17 3.812 17 8.5c.014 4.681-3.798 8.5-8.493 8.5zm-4.084-2.534l.258.163a7.184 7.184 0 003.833 1.107c3.988 0 7.236-3.248 7.236-7.236 0-3.988-3.248-7.236-7.236-7.236a7.237 7.237 0 00-7.243 7.23c0 1.623.53 3.159 1.535 4.45l.177.224-.374 1.916 1.814-.618z" fill="#39D956"/><path d="M4.22 5.232s.495-.87.903-.924c.408-.048.93-.048 1.074.217.142.265.774 1.814.774 1.814s.109.265-.061.523c-.17.252-.544.626-.544.626s-.21.265 0 .55c.211.285.53.802 1.196 1.468.666.665 1.944 1.141 1.944 1.141s.183.027.298-.088c.116-.116.748-.904.748-.904s.204-.258.537-.109c.333.157 1.793.884 1.793.884s.17.06.17.319c0 .258-.102.89-.32 1.1-.21.211-.835.87-1.772.87-.938 0-3.167-.76-4.356-1.95C5.415 9.58 4.362 8.378 4.111 7.284c-.231-1.108-.197-1.604.108-2.052z" fill="#39D956"/></svg>