<svg width="15" height="17" viewBox="0 0 15 17" fill="none" xmlns="http://www.w3.org/2000/svg"><path d="M3.622 15.39c0-.237-.011-.474.003-.71.013-.191-.056-.278-.23-.337A4.392 4.392 0 01.903 12.24a6.532 6.532 0 01-.74-2.332C-.076 8.063-.07 6.22.302 4.394.487 3.486.842 2.65 1.43 1.94c.425-.516.969-.855 1.552-1.124C3.966.362 5.01.16 6.075.057 6.85-.019 7.626-.008 8.4.027c1.296.06 2.556.294 3.753.857 1.163.545 1.907 1.469 2.32 2.714.298.893.435 1.816.495 2.757a18.853 18.853 0 01-.175 3.856c-.14.985-.469 1.899-1.074 2.683a4.232 4.232 0 01-1.961 1.418c-1.13.408-2.296.596-3.488.66-.622.034-1.239.004-1.857-.021a.269.269 0 00-.245.114c-.38.469-.763.936-1.148 1.4-.139.168-.284.332-.471.441-.356.208-.722.06-.854-.344-.125-.383-.058-.782-.072-1.173zm.581.947c.048-.037.065-.046.079-.062.639-.745 1.285-1.483 1.912-2.24.199-.238.397-.353.715-.338a12.145 12.145 0 004.124-.509c.58-.178 1.1-.459 1.532-.91.61-.636.929-1.429 1.067-2.3.187-1.177.257-2.362.175-3.555-.058-.833-.178-1.652-.462-2.437-.26-.72-.644-1.345-1.3-1.739a6.155 6.155 0 00-1.793-.705c-1.249-.292-2.513-.336-3.782-.265-.876.05-1.73.21-2.559.523-1.186.447-1.97 1.294-2.342 2.564a8.466 8.466 0 00-.328 2.028c-.05 1.183-.091 2.365.14 3.535.304 1.544 1.065 2.705 2.529 3.245.242.088.302.211.298.461-.014.888-.005 1.777-.005 2.704z" fill="#645CAC"/><path d="M9.756 12.079a.831.831 0 01-.356-.085c-1.277-.549-2.429-1.306-3.41-2.326C4.823 8.456 3.94 7.05 3.403 5.41c-.17-.517-.064-.927.331-1.265.179-.154.363-.303.554-.441.351-.256.704-.22.99.114.361.421.69.87.96 1.364.057.105.101.22.138.334.082.252.05.481-.15.666-.132.124-.268.244-.402.365-.164.15-.213.338-.167.562.159.762.606 1.319 1.15 1.808.324.291.68.526 1.095.651.216.066.389.01.526-.173l.24-.32c.218-.287.532-.38.841-.218.589.313 1.1.744 1.584 1.21.155.15.236.366.155.59-.213.599-.576 1.067-1.133 1.35a.703.703 0 01-.36.072zm1.324-4.643c-.035.12.062.316-.106.331-.187.017-.12-.193-.13-.3-.04-.554-.108-1.1-.336-1.605C9.942 4.609 8.994 3.93 7.68 3.815c-.067-.007-.136-.003-.203-.01-.082-.011-.177-.025-.168-.143.007-.1.092-.11.169-.114a2.41 2.41 0 01.57.05c1.627.286 2.829 1.646 2.985 3.373.014.158.032.314.046.465z" fill="#645CAC"/><path d="M10.13 7.09v.043c-.009.096.017.23-.114.236-.135.006-.127-.128-.13-.223a2.59 2.59 0 00-.097-.72c-.282-.892-.867-1.412-1.745-1.574-.1-.018-.202-.032-.301-.05-.074-.015-.134-.055-.122-.142.013-.09.082-.105.156-.098 1.064.082 1.979.718 2.268 1.914.048.2.065.408.097.613l-.012.001z" fill="#645CAC"/><path d="M8.095 5.613c.613.028 1.106.583 1.095 1.227-.001.078.001.173-.094.188-.12.02-.12-.09-.136-.17-.03-.133-.04-.271-.084-.397-.106-.317-.332-.497-.639-.57-.053-.014-.109-.015-.16-.03-.082-.022-.2-.021-.175-.156.017-.113.12-.088.193-.092z" fill="#645CAC"/></svg>