<svg width="60" height="60" viewBox="0 0 60 60" fill="none" xmlns="http://www.w3.org/2000/svg">
<path fill-rule="evenodd" clip-rule="evenodd" d="M30 56.25C36.9619 56.25 43.6387 53.4844 48.5616 48.5616C53.4844 43.6387 56.25 36.9619 56.25 30C56.25 23.0381 53.4844 16.3613 48.5616 11.4384C43.6387 6.51562 36.9619 3.75 30 3.75C23.0381 3.75 16.3613 6.51562 11.4384 11.4384C6.51562 16.3613 3.75 23.0381 3.75 30C3.75 36.9619 6.51562 43.6387 11.4384 48.5616C16.3613 53.4844 23.0381 56.25 30 56.25ZM30 60C37.9565 60 45.5871 56.8393 51.2132 51.2132C56.8393 45.5871 60 37.9565 60 30C60 22.0435 56.8393 14.4129 51.2132 8.7868C45.5871 3.16071 37.9565 0 30 0C22.0435 0 14.4129 3.16071 8.7868 8.7868C3.16071 14.4129 0 22.0435 0 30C0 37.9565 3.16071 45.5871 8.7868 51.2132C14.4129 56.8393 22.0435 60 30 60Z" fill="#00787C"/>
<path fill-rule="evenodd" clip-rule="evenodd" d="M17.4224 31.3274C17.5966 31.502 17.8035 31.6406 18.0313 31.7351C18.2591 31.8296 18.5033 31.8783 18.7499 31.8783C18.9966 31.8783 19.2408 31.8296 19.4686 31.7351C19.6964 31.6406 19.9033 31.502 20.0774 31.3274L29.9999 21.4012L39.9224 31.3274C40.2745 31.6795 40.752 31.8773 41.2499 31.8773C41.7478 31.8773 42.2254 31.6795 42.5774 31.3274C42.9295 30.9754 43.1273 30.4978 43.1273 29.9999C43.1273 29.502 42.9295 29.0245 42.5774 28.6724L31.3274 17.4224C31.1533 17.2478 30.9464 17.1093 30.7186 17.0148C30.4908 16.9202 30.2466 16.8716 29.9999 16.8716C29.7533 16.8716 29.5091 16.9202 29.2813 17.0148C29.0535 17.1093 28.8466 17.2478 28.6724 17.4224L17.4224 28.6724C17.2478 28.8466 17.1093 29.0535 17.0148 29.2813C16.9202 29.5091 16.8716 29.7533 16.8716 29.9999C16.8716 30.2466 16.9202 30.4908 17.0148 30.7186C17.1093 30.9464 17.2478 31.1533 17.4224 31.3274Z" fill="#00787C"/>
<path fill-rule="evenodd" clip-rule="evenodd" d="M30 43.125C30.4973 43.125 30.9742 42.9275 31.3258 42.5758C31.6775 42.2242 31.875 41.7473 31.875 41.25V22.5C31.875 22.0027 31.6775 21.5258 31.3258 21.1742C30.9742 20.8225 30.4973 20.625 30 20.625C29.5027 20.625 29.0258 20.8225 28.6742 21.1742C28.3225 21.5258 28.125 22.0027 28.125 22.5V41.25C28.125 41.7473 28.3225 42.2242 28.6742 42.5758C29.0258 42.9275 29.5027 43.125 30 43.125Z" fill="#00787C"/>
</svg>
