<svg width="19" height="18" viewBox="0 0 19 18" fill="none" xmlns="http://www.w3.org/2000/svg">
<path d="M18.0017 16.0002L12.8477 10.8467C13.8005 9.39871 14.1821 7.64874 13.9187 5.93558C13.6552 4.22242 12.7654 2.66794 11.4216 1.5731C10.0777 0.478257 8.37537 -0.0790569 6.64415 0.0090565C4.91294 0.0971698 3.276 0.824443 2.05026 2.05007C0.824519 3.27569 0.0971789 4.91248 0.00905734 6.64353C-0.0790642 8.37459 0.478302 10.0768 1.57324 11.4205C2.66819 12.7642 4.22281 13.654 5.93613 13.9174C7.64945 14.1808 9.39958 13.7992 10.8477 12.8465L16.0017 18L18.0017 16.0002ZM2.00169 7.00103C2.00169 4.24429 4.24468 2.0015 7.00168 2.0015C9.75868 2.0015 12.0017 4.24429 12.0017 7.00103C12.0017 9.75777 9.75868 12.0006 7.00168 12.0006C4.24468 12.0006 2.00169 9.75777 2.00169 7.00103Z" fill="black"/>
</svg>
