<svg width="13" height="13" viewBox="0 0 13 13" fill="none" xmlns="http://www.w3.org/2000/svg"><path d="M6.501 7.221H.392c-.377 0-.387-.008-.388-.398L.001 2.731c0-.39.016-.403.417-.403.907 0 1.812-.006 2.718.005.24.003.331-.072.326-.317-.014-.555 0-1.11-.009-1.666-.005-.244.085-.35.34-.35C5.605.007 7.418.008 9.23.004c.248 0 .317.115.314.342-.009.555.005 1.11-.008 1.666-.005.24.08.324.322.32.925-.01 1.85.007 2.776-.007.287-.005.368.098.367.373-.011 1.374-.006 2.748-.007 4.122 0 .4-.004.402-.413.402H6.5zM6.497 3.77c-1.568 0-3.137.003-4.704-.004-.241-.002-.33.076-.322.319.014.457.017.916 0 1.373-.01.264.095.338.343.329.379-.015.76-.004 1.14-.004 2.745 0 5.493-.002 8.239.005.256 0 .345-.078.335-.334a14.478 14.478 0 010-1.315c.015-.302-.095-.377-.385-.375-1.55.013-3.098.006-4.646.006zm-.028-1.441v.001c.447 0 .895-.005 1.342.003.188.003.271-.069.258-.257a1.294 1.294 0 010-.233c.03-.273-.073-.378-.36-.37-.739.016-1.478.005-2.217.005-.597 0-.59-.001-.568.596.007.186.073.26.26.257.43-.007.858-.002 1.285-.002zM6.482 13H.402c-.368 0-.397-.027-.398-.4C.002 11.226.001 9.852.002 8.479c0-.393.015-.406.415-.408.244-.002.488.013.731-.001.262-.015.335.101.333.348-.01.916.004 1.832-.01 2.747-.005.286.095.365.37.365 3.127-.007 6.255-.007 9.382-.001.23 0 .305-.081.304-.308-.008-.925.004-1.85-.006-2.777-.004-.273.078-.394.365-.375.282.019.565.01.847.004.188-.004.265.084.265.264a1164.82 1164.82 0 00-.002 4.385c.001.276-.18.276-.375.276L8.266 13H6.482z" fill="#fff"/></svg>