<svg width="16" height="13" viewBox="0 0 16 13" fill="none" xmlns="http://www.w3.org/2000/svg"><path d="M14.824 1.845c-.35.098-.623.084-.623.084l.014-.063c.322-.26 1.141-1.052 1.246-1.424.05-.161-.007-.218-.007-.225l-1.043.435-.868.393C12.941.407 12.032 0 11.017 0 9.204 0 7.734 1.284 7.734 2.869c0 .287.042.82.133 1.087 0 .084 0-.084 0 0-1.169-.035-2.66-.512-3.99-1.185C1.254 1.438 1.086.512 1.086.512.672.954.462 2.406.875 3.542c.266.73 1.19 1.382 1.19 1.382s-.413.007-.84-.14C.79 4.636.63 4.496.63 4.496c-.26.624.259 1.747 1.148 2.546.518.47 1.463.765 1.463.765l-1.477.042c-.084 1.438 3.01 2.293 3.01 2.293-.91.702-1.96 1.123-3.087 1.123A6.092 6.092 0 010 11.019c1.49 1.228 3.409 2.083 5.487 1.971 5.53-.287 8.644-5.05 8.798-9.728l.007.007s.26-.127.812-.688c.553-.554.896-1.206.896-1.206s-.826.372-1.176.47z" fill="#3FA6DB"/></svg>