<svg width="16" height="16" viewBox="0 0 16 16" fill="none" xmlns="http://www.w3.org/2000/svg"><path d="M12.818 4.208L8.622.249A.914.914 0 007.995 0a.915.915 0 00-.63.244L7.36.25 3.182 4.208H.89a.914.914 0 00-.629.247.82.82 0 00-.26.595v10.108a.82.82 0 00.26.595A.914.914 0 00.89 16h14.22a.914.914 0 00.629-.247.82.82 0 00.26-.595V5.05a.82.82 0 00-.26-.595.915.915 0 00-.629-.247h-2.293zM8 2.035l2.293 2.173H5.707L8 2.035zm6.222 12.28H1.778V5.893h12.444v8.422zm-8-5.896a.82.82 0 01-.26.596.914.914 0 01-.629.247.914.914 0 01-.628-.247.82.82 0 01-.26-.596.82.82 0 01.26-.595.914.914 0 01.628-.247c.236 0 .462.089.629.247a.82.82 0 01.26.595zm6.222 4.212h-7.11l1.333-2.527.889 1.685 2.222-4.212 2.666 5.054z" fill="#000"/></svg>