<svg width="18" height="11" viewBox="0 0 18 11" fill="none" xmlns="http://www.w3.org/2000/svg"><path fill-rule="evenodd" clip-rule="evenodd" d="M12.218.23a.72.72 0 011.062 0l4.5 4.714A.79.79 0 0118 5.5a.818.818 0 01-.22.556l-4.5 4.714a.734.734 0 01-.53.23.737.737 0 01-.532-.23.806.806 0 01-.22-.556c0-.21.08-.41.22-.557l3.97-4.157-3.97-4.157a.79.79 0 01-.22-.556.818.818 0 01.22-.556z" fill="#fff"/><path fill-rule="evenodd" clip-rule="evenodd" d="M0 5.5c0-.208.079-.408.22-.555a.733.733 0 01.53-.23h15.749c.199 0 .39.082.53.23.14.147.22.347.22.555a.805.805 0 01-.22.556.733.733 0 01-.53.23H.749a.733.733 0 01-.53-.23A.805.805 0 010 5.5z" fill="#fff"/></svg>