<svg width="9" height="14" viewBox="0 0 9 14" fill="none" xmlns="http://www.w3.org/2000/svg"><path d="M3.762 9.861C2.6 9.748 1.552 9.481.656 8.825c-.112-.081-.227-.16-.328-.25-.393-.353-.432-.756-.122-1.172.266-.356.712-.451 1.176-.247.09.04.175.09.257.142 1.672 1.073 3.968 1.103 5.646.049.166-.12.344-.217.55-.266.4-.096.774.041.989.368.245.374.242.739-.06 1.03a4.606 4.606 0 01-1.642.99c-.587.213-1.229.32-1.864.39.095.098.14.146.2.202.864.81 1.73 1.617 2.59 2.43.294.276.355.62.194.941a1.032 1.032 0 01-.959.56c-.245-.017-.437-.13-.607-.29-.651-.613-1.315-1.214-1.953-1.838-.185-.18-.275-.147-.439.01-.655.63-1.32 1.251-1.99 1.868-.301.277-.66.327-1.008.169-.37-.168-.607-.522-.588-.877.012-.24.139-.424.315-.588.854-.797 1.706-1.596 2.558-2.394.057-.053.11-.109.191-.191z" fill="#E77D08"/><path d="M4.47 7.086C2.397 7.08.697 5.475.71 3.536.72 1.574 2.422-.006 4.516 0c2.097.005 3.78 1.608 3.77 3.59-.01 1.934-1.722 3.503-3.816 3.496zM6.354 3.54C6.35 2.577 5.529 1.81 4.5 1.81c-1.037-.001-1.865.78-1.857 1.75.007.96.835 1.721 1.867 1.718 1.029-.004 1.847-.775 1.844-1.738z" fill="#E77D08"/></svg>