<svg width="60" height="60" viewBox="0 0 60 60" fill="none" xmlns="http://www.w3.org/2000/svg"><path fill-rule="evenodd" clip-rule="evenodd" d="M30 56.25a26.25 26.25 0 100-52.5 26.25 26.25 0 000 52.5zM30 60a30 30 0 100-60 30 30 0 000 60z" fill="#00787C"/><path fill-rule="evenodd" clip-rule="evenodd" d="M17.422 31.327a1.875 1.875 0 002.655 0L30 21.401l9.922 9.926a1.877 1.877 0 102.655-2.655l-11.25-11.25a1.873 1.873 0 00-2.655 0l-11.25 11.25a1.875 1.875 0 000 2.655z" fill="#00787C"/><path fill-rule="evenodd" clip-rule="evenodd" d="M30 43.125a1.875 1.875 0 001.875-1.875V22.5a1.875 1.875 0 10-3.75 0v18.75A1.875 1.875 0 0030 43.125z" fill="#00787C"/></svg>