<svg width="28" height="28" viewBox="0 0 28 28" fill="none" xmlns="http://www.w3.org/2000/svg"><rect width="28" height="28" rx="14" fill="#25878A"/><path d="M17.494 6.2h-6.99A4.31 4.31 0 006.2 10.505v6.99a4.31 4.31 0 004.305 4.305h6.99a4.31 4.31 0 004.305-4.305v-6.99A4.31 4.31 0 0017.494 6.2zm2.921 11.295c0 1.61-1.31 2.92-2.92 2.92h-6.99a2.924 2.924 0 01-2.922-2.92v-6.99c0-1.61 1.31-2.92 2.921-2.92h6.99c1.61 0 2.921 1.31 2.921 2.92v6.99z" fill="#fff"/><path d="M14 10.1c-2.15 0-3.9 1.75-3.9 3.9s1.75 3.9 3.9 3.9 3.9-1.75 3.9-3.9-1.75-3.9-3.9-3.9zm0 6.457A2.56 2.56 0 0111.443 14 2.56 2.56 0 0114 11.443 2.56 2.56 0 0116.557 14 2.56 2.56 0 0114 16.557zM18 9a1.004 1.004 0 00-1 1 1.006 1.006 0 001 1 1.003 1.003 0 00.707-1.707A1.004 1.004 0 0018 9z" fill="#fff"/></svg>