<svg width="14" height="14" viewBox="0 0 14 14" fill="none" xmlns="http://www.w3.org/2000/svg"><path d="M12.78 9.694c0 1.158.002 2.315 0 3.474 0 .474-.17.629-.687.63H8.705c-.487-.002-.663-.165-.664-.623-.002-1.208.005-2.416-.002-3.625-.005-.783-.475-1.346-1.233-1.503-.958-.199-1.832.488-1.842 1.47-.012 1.199-.003 2.397-.004 3.595 0 .543-.15.685-.724.685-1.119.001-2.237.002-3.355 0-.473 0-.658-.166-.659-.596C.221 10.845.223 8.488.22 6.132c0-.217.075-.383.24-.536C2.318 3.875 4.174 2.15 6.034.43c.325-.3.606-.302.931-.002 1.86 1.721 3.716 3.447 5.577 5.167.175.162.244.34.242.566-.007 1.178-.002 2.356-.003 3.534zm-11.469-.18c0 .988.006 1.974-.004 2.961-.003.232.066.324.331.317.63-.015 1.26-.015 1.89 0 .276.007.35-.086.348-.331a191.788 191.788 0 01-.004-3.082c.008-1.346 1.161-2.392 2.632-2.394 1.459-.002 2.618 1.053 2.626 2.4.006 1.027.009 2.054-.003 3.082-.004.252.086.332.354.325a33.616 33.616 0 011.824.001c.293.009.395-.066.393-.353a635.81 635.81 0 01-.003-5.892.595.595 0 00-.208-.48A919.371 919.371 0 016.72 1.644c-.174-.164-.272-.154-.441.004A994.104 994.104 0 011.51 6.07a.594.594 0 00-.203.483c.008.986.004 1.974.004 2.961z" fill="#fff"/><path d="M10.233 14H8.705c-.608-.001-.88-.255-.88-.824-.002-.477-.002-.954 0-1.431 0-.72 0-1.463-.004-2.194-.004-.68-.401-1.17-1.062-1.307-.378-.078-.751 0-1.051.22a1.31 1.31 0 00-.527 1.055 200.82 200.82 0 00-.005 2.451l.002 1.142c0 .655-.247.887-.942.887h-.052c-1.101 0-2.202.002-3.304 0-.597 0-.875-.255-.875-.798v-2.81c0-1.42 0-2.839-.003-4.258a.87.87 0 01.303-.68l2.945-2.73L5.88.286c.411-.38.828-.38 1.238-.001L9.672 2.65c1.007.934 2.014 1.868 3.023 2.8a.9.9 0 01.307.71c-.005.854-.005 1.723-.004 2.562v4.446c-.001.58-.272.83-.905.83l-1.86.002zM6.479 7.813c.124 0 .25.013.374.039.86.178 1.397.829 1.402 1.698.004.732.004 1.476.003 2.196v1.43c0 .346.08.42.446.422h3.387c.4-.001.47-.065.47-.428l.001-2.316v-2.13c0-.841 0-1.71.004-2.564a.515.515 0 00-.18-.423c-1.008-.932-2.016-1.866-3.023-2.8-.85-.79-1.701-1.579-2.553-2.366C6.57.35 6.426.35 6.185.572L3.558 3.008C2.576 3.92 1.594 4.83.61 5.738a.488.488 0 00-.176.393c.003 1.42.003 2.84.003 4.26L.44 13.2c0 .317.087.394.441.395 1.102.002 2.202 0 3.302 0h.052c.455 0 .508-.05.508-.485l-.001-1.14a193.18 193.18 0 01.005-2.456 1.7 1.7 0 01.692-1.367c.3-.22.665-.336 1.04-.336zm4.869 5.183l-.05-.001a33.065 33.065 0 00-1.811-.001c-.126.003-.31-.007-.438-.123-.128-.118-.141-.288-.14-.407.013-1.076.01-2.16.003-3.079-.007-1.233-1.064-2.198-2.405-2.198h-.004c-1.347.001-2.407.965-2.414 2.193-.005.92-.009 2.005.003 3.079.002.13-.013.296-.14.412-.128.117-.307.126-.431.123a38.422 38.422 0 00-1.878 0c-.12.003-.292-.007-.418-.12-.124-.113-.138-.273-.137-.4.008-.722.007-1.457.005-2.168V8.732c.001-.714.002-1.452-.003-2.177a.782.782 0 01.267-.627 949.058 949.058 0 004.766-4.423c.097-.09.217-.182.378-.182s.284.095.372.178a1001.62 1001.62 0 004.767 4.423.786.786 0 01.272.624 610.86 610.86 0 00.004 5.89c0 .137-.015.31-.149.43-.117.106-.279.127-.418.127zm-.94-.417c.31 0 .61.004.904.013.12.003.15-.011.154-.013 0 0 .016-.03.015-.138a638.27 638.27 0 01-.004-5.893.405.405 0 00-.144-.338 977.457 977.457 0 01-4.768-4.425.468.468 0 00-.064-.053.588.588 0 00-.07.057 876.53 876.53 0 01-4.768 4.426c-.102.094-.14.186-.139.338.006.727.005 1.466.004 2.181l-.001.782v.79c.002.712.003 1.448-.004 2.173a.318.318 0 00.01.107.377.377 0 00.098.007c.64-.016 1.28-.016 1.9 0a.355.355 0 00.114-.01.347.347 0 00.012-.119 184.161 184.161 0 01-.003-3.085C3.66 7.926 4.913 6.786 6.5 6.784h.005c1.584 0 2.831 1.14 2.84 2.599.005.92.01 2.006-.004 3.085a.35.35 0 00.012.113c.013.004.046.01.12.009.325-.008.635-.012.935-.012z" fill="#fff"/></svg>