<svg width="16" height="16" viewBox="0 0 16 16" fill="none" xmlns="http://www.w3.org/2000/svg"><path d="M8 8.888H.482c-.465 0-.477-.011-.478-.49C0 6.718 0 5.041 0 3.361c0-.479.02-.496.514-.496 1.115 0 2.23-.007 3.345.007.294.003.407-.09.4-.39-.016-.684 0-1.367-.01-2.05-.006-.301.105-.433.418-.432 2.23.009 4.461.01 6.691.005.307-.001.391.14.387.42-.01.684.006 1.367-.01 2.051-.006.296.099.399.396.395 1.14-.013 2.278.007 3.418-.01.352-.006.453.121.451.46-.014 1.69-.007 3.381-.009 5.073 0 .493-.005.495-.508.495L8 8.888zm-.005-4.25c-1.93 0-3.86.005-5.79-.005-.297-.002-.405.095-.395.393.017.563.02 1.127-.001 1.69-.013.325.118.417.422.405.467-.018.935-.005 1.403-.005 3.38 0 6.76-.003 10.14.006.316.001.426-.095.414-.41a17.813 17.813 0 01-.001-1.619c.019-.372-.117-.464-.474-.462-1.906.016-3.813.007-5.718.007zM7.96 2.865v.002c.55 0 1.101-.007 1.651.003.232.004.334-.085.318-.316a1.593 1.593 0 010-.287c.037-.336-.09-.465-.443-.456-.91.02-1.82.007-2.729.006-.734 0-.726 0-.699.734.009.23.09.32.321.317.528-.009 1.055-.003 1.581-.003zm.016 13.134H.494c-.454 0-.49-.032-.49-.492C0 13.818 0 12.127 0 10.436c0-.484.02-.499.512-.502.3-.002.6.016.9 0 .32-.019.41.124.408.427-.012 1.128.006 2.255-.012 3.382-.006.351.117.45.456.448 3.848-.008 7.698-.008 11.546 0 .283 0 .377-.1.375-.379-.01-1.139.005-2.278-.008-3.418-.004-.336.097-.486.45-.462.347.023.695.012 1.043.005.23-.005.325.104.325.325a1386.59 1386.59 0 00-.002 5.396c.001.341-.22.341-.461.341l-5.36.002L7.975 16z" fill="#000"/></svg>