<svg width="28" height="28" viewBox="0 0 28 28" fill="none" xmlns="http://www.w3.org/2000/svg"><circle cx="14" cy="14" r="14" fill="#25878A"/><path d="M12.762 16.565c-1.162-.12-2.21-.407-3.106-1.11-.112-.087-.227-.17-.328-.268-.393-.378-.432-.81-.122-1.255.266-.382.712-.484 1.176-.265.09.043.175.096.257.153 1.672 1.15 3.968 1.18 5.646.051a1.53 1.53 0 01.55-.284c.4-.103.774.044.989.395.245.4.242.79-.06 1.102a4.561 4.561 0 01-1.642 1.062c-.587.227-1.229.342-1.864.418.096.104.14.156.2.216.864.868 1.73 1.732 2.59 2.603.294.296.355.664.194 1.009-.177.377-.572.625-.959.599-.245-.017-.437-.14-.607-.311-.651-.656-1.315-1.3-1.953-1.968-.185-.194-.275-.158-.439.011a130.85 130.85 0 01-1.99 2c-.301.297-.66.35-1.008.181-.37-.18-.607-.558-.588-.939.012-.257.139-.454.315-.63.854-.854 1.706-1.71 2.558-2.565.056-.056.11-.117.191-.205z" fill="#fff"/><path d="M13.47 13.592c-2.073-.007-3.773-1.726-3.76-3.804A3.8 3.8 0 0113.516 6c2.097.006 3.78 1.723 3.77 3.845-.01 2.074-1.722 3.755-3.816 3.747zm1.884-3.8A1.848 1.848 0 0013.5 7.94a1.851 1.851 0 00-1.858 1.876 1.848 1.848 0 001.867 1.84 1.844 1.844 0 001.844-1.862z" fill="#fff"/></svg>