<svg width="13" height="13" viewBox="0 0 13 13" fill="none" xmlns="http://www.w3.org/2000/svg">
<path d="M9.04863 4.64818C9.52663 4.64894 10.0046 4.64358 10.4819 4.65124C10.6578 4.6543 10.7855 4.59151 10.914 4.47282C11.4187 4.00649 11.6803 3.46128 11.5403 2.75833C11.2956 1.52548 9.7706 0.992527 8.81767 1.81187C8.75954 1.86164 8.70448 1.91525 8.65094 1.96885C6.42768 4.19409 4.20289 6.41857 1.98268 8.64688C1.22707 9.40573 1.24925 10.4724 2.02169 11.1578C2.67712 11.7389 3.64306 11.7252 4.28243 11.1003C5.1237 10.2779 5.94815 9.43942 6.77948 8.60783C7.3745 8.01285 7.97257 7.42093 8.56069 6.81906C8.71595 6.65978 8.82226 6.64753 8.97368 6.82748C9.15112 7.03882 9.35226 7.23256 9.55875 7.41633C9.74154 7.57944 9.71324 7.6943 9.54958 7.85587C8.59052 8.80386 7.64141 9.76104 6.68847 10.7144C6.22883 11.1746 5.77837 11.6432 5.30725 12.092C3.62853 13.6924 0.992274 13.1004 0.203004 10.9181C-0.242107 9.68906 0.0584581 8.56954 0.970095 7.64529C2.77654 5.8144 4.60211 4.00266 6.42003 2.18249C6.86591 1.73606 7.30413 1.28121 7.76148 0.847036C8.68153 -0.0259099 10.0421 -0.242615 11.1977 0.284215C12.3189 0.794965 13.0439 1.96349 12.998 3.21318C12.9697 3.98811 12.6768 4.66043 12.156 5.2355C11.379 6.0939 11.3797 6.09466 10.2264 6.09237C9.58629 6.09084 8.94539 6.10845 8.30602 6.08854C8.01998 6.07935 7.82343 6.17736 7.62994 6.37646C6.95615 7.06869 6.26401 7.74178 5.58946 8.43324C5.42885 8.59787 5.32561 8.59711 5.17571 8.43018C4.97151 8.20275 4.75048 7.99064 4.52869 7.78006C4.41321 7.67056 4.40862 7.58556 4.5241 7.4707C5.4258 6.57402 6.32367 5.67351 7.22154 4.77223C7.32631 4.66732 7.44868 4.64665 7.58787 4.64741C8.07428 4.64894 8.56146 4.64741 9.04863 4.64818Z" fill="white"/>
</svg>
