<svg width="15" height="16" viewBox="0 0 15 16" fill="none" xmlns="http://www.w3.org/2000/svg"><path d="M2.687 8.925c0-.51.006-1.021-.002-1.532a.586.586 0 01.196-.462C5.229 4.666 7.575 2.402 9.916.13c.174-.168.294-.18.47-.007.742.726 1.493 1.442 2.24 2.163.357.346.707.7 1.068 1.041.308.292.315.286-.005.596L8.156 9.27c-.477.46-.957.919-1.43 1.384a.667.667 0 01-.506.207 170.804 170.804 0 00-3.137-.001c-.314.003-.412-.111-.401-.404.018-.509.005-1.02.005-1.53v-.002zm2.49.287c.233-.056.554.108.812-.142a2464.67 2464.67 0 015.46-5.271c.146-.141.141-.24-.005-.375-.348-.324-.7-.645-1.02-.993-.206-.224-.328-.19-.531.007a478.204 478.204 0 01-5.056 4.877c-.356.337-.535.671-.499 1.16.06.81-.147.738.839.737zm2.363 2.592h7.012c.424 0 .439.014.442.417.003.271-.01.543.005.814.015.279-.098.381-.393.379-1.405-.01-2.809-.004-4.214-.004-3.292 0-6.585 0-9.877-.002-.512 0-.517-.006-.513-.516.001-.239.014-.478 0-.716-.017-.281.095-.379.39-.377 1.697.01 3.394.005 5.09.005H7.54zm-2.016 2.553h5.022c.442 0 .46.014.463.432.002.271-.01.543.004.814.018.297-.116.399-.415.397-1.404-.008-2.81-.002-4.213-.002-1.933 0-3.865 0-5.797-.002C0 15.995 0 15.993.004 15.409c.002-.228.015-.457-.001-.684-.02-.288.111-.373.397-.372 1.708.009 3.416.004 5.123.004h.001z" fill="#000"/></svg>