<svg width="8" height="17" viewBox="0 0 8 17" fill="none" xmlns="http://www.w3.org/2000/svg">
<path d="M1.76784 12.4647C1.76784 11.4158 1.74927 10.3669 1.77527 9.31988C1.78826 8.80103 1.66013 8.56214 1.0789 8.57334C0.00371397 8.59387 0.00185697 8.56214 0 7.44232C0 7.27995 0 7.11571 0 6.95334C0.00185697 5.76634 0.00185688 5.74394 1.14761 5.71968C1.64713 5.70848 1.78269 5.49945 1.77527 5.03846C1.76598 4.38896 1.73256 3.73947 1.88111 3.09185C2.18751 1.7406 2.99901 0.928737 4.34903 0.680512C5.35922 0.495743 6.38056 0.544268 7.40004 0.544268C7.85128 0.544268 8.01098 0.764498 7.99613 1.19749C7.97756 1.73314 7.97013 2.27065 7.99798 2.80443C8.02212 3.28221 7.83086 3.49311 7.35918 3.48565C6.96551 3.48005 6.57183 3.49498 6.17815 3.50991C5.70276 3.52671 5.45393 3.77307 5.45579 4.25832C5.45579 4.32737 5.45207 4.39829 5.44836 4.46735C5.40936 5.71034 5.40936 5.71034 6.62197 5.71034C8.08526 5.71034 8.08526 5.71034 7.87728 7.18103C7.68044 8.5752 7.68044 8.60506 6.27657 8.57147C5.6452 8.55654 5.42236 8.74504 5.43165 9.3964C5.46507 11.4923 5.42607 13.5901 5.45393 15.686C5.46136 16.3225 5.24409 16.5707 4.60715 16.5352C3.86807 16.496 3.12343 16.5184 2.3825 16.524C1.94425 16.5277 1.76041 16.3318 1.76598 15.8857C1.78084 14.7454 1.77155 13.6032 1.77155 12.461C1.7697 12.4647 1.76784 12.4647 1.76784 12.4647Z" fill="#4064AD"/>
</svg>
