<svg width="116" height="32" viewBox="0 0 116 32" fill="none" xmlns="http://www.w3.org/2000/svg">
<path fill-rule="evenodd" clip-rule="evenodd" d="M69.0402 0.387573C77.3782 0.387573 84.1394 7.15743 84.1394 15.506C84.1394 23.8545 77.3782 30.6244 69.0402 30.6244C60.7022 30.6244 53.941 23.8545 53.941 15.506C53.941 7.15388 60.7022 0.387573 69.0402 0.387573Z" fill="#007982"/>
<path d="M69.0402 31.0048C60.5034 31.0048 53.5575 24.0501 53.5575 15.5024C53.5575 6.95475 60.5034 0 69.0402 0C77.577 0 84.523 6.95475 84.523 15.5024C84.523 24.0501 77.577 31.0048 69.0402 31.0048ZM69.0402 0.768009C60.926 0.768009 54.3245 7.37787 54.3245 15.5024C54.3245 23.6269 60.926 30.2404 69.0402 30.2404C77.1545 30.2404 83.7595 23.6305 83.7595 15.5024C83.7595 7.37431 77.1545 0.768009 69.0402 0.768009Z" fill="#860142"/>
<path fill-rule="evenodd" clip-rule="evenodd" d="M71.9735 6.85519C71.7604 7.3672 71.4693 7.66231 70.6809 7.59831C71.171 6.56008 70.617 6.30407 70.4856 5.98763C70.4039 5.78851 70.4181 5.27651 70.6028 5.14139C70.1625 4.99561 69.8926 5.4294 69.6653 5.79207C68.0922 6.09429 69.1078 7.69076 70.0204 7.00453C69.7931 7.71565 68.4189 8.34143 67.2719 6.62408C67.8116 5.69607 68.742 5.77784 69.4593 5.31206C70.1305 4.50494 69.5872 3.3387 68.7491 3.39204C69.0865 2.7947 68.1419 1.93424 67.2044 2.34669C66.6504 1.28001 64.7683 1.53246 64.8216 2.91914C63.7385 2.68447 62.9928 4.39827 64.1966 4.71828C63.6462 4.87828 63.3337 5.45784 63.4935 6.0054C63.5752 6.28274 63.7669 6.5103 64.0226 6.64186C64.8571 6.81964 65.7449 6.12985 66.5794 6.80541C66.1213 8.81788 64.6583 9.05966 64.1895 8.46232C65.301 8.77166 65.5887 6.87652 64.012 7.15742C63.6746 6.89786 63.4083 6.7023 63.0496 6.99742C63.2414 7.03653 63.3692 7.22142 63.3302 7.41342V7.41698C63.2804 8.10321 63.2236 8.48365 64.0404 9.26589C63.3302 9.62145 62.7265 9.54678 62.3465 9.145C62.6022 8.76455 62.7478 8.32365 62.7726 7.86854C62.8224 6.86941 61.789 6.25429 62.3217 5.37962C61.7073 5.17695 61.0362 5.37251 60.6242 5.87029C60.5994 5.74584 60.5141 5.64629 60.397 5.60362C60.958 4.74672 61.6008 4.42316 62.5276 4.6045C62.6874 4.30227 62.6874 3.9396 62.5276 3.63737C63.5432 3.31026 63.4402 2.92625 63.9232 2.1618C62.8863 2.58847 61.9346 2.81603 61.1178 3.65515C60.713 4.0676 60.6917 4.45872 60.4076 4.91739C60.2194 5.11295 60.0099 5.29073 59.7862 5.44717C59.012 5.55029 58.4403 5.92718 58.2059 5.90229C58.2663 6.35741 58.2734 6.81964 58.2237 7.27475C58.1065 7.42053 57.968 7.54498 57.8118 7.64809C57.3714 7.95743 56.9808 8.00365 56.5937 8.42677C55.8054 9.29433 55.6634 10.8659 55.2976 11.9255C56.054 11.3992 56.4801 11.3032 56.75 10.265C57.0483 10.3788 57.3821 10.3219 57.6271 10.1192C57.375 9.241 57.7336 8.30232 58.5078 7.8152C58.5717 7.9432 58.6924 8.03565 58.8309 8.06409C58.348 8.57966 57.8615 9.58589 58.0959 10.2259C58.9446 9.64278 59.8927 10.1868 60.8835 10.0801C61.3416 10.0588 61.7854 9.90945 62.1654 9.64989C62.5915 10.0055 62.6626 10.5495 62.3749 11.2855C61.5191 10.5139 61.1711 10.809 60.5141 10.7735C60.3011 10.7735 60.159 10.5601 60.0916 10.3468C59.8394 10.6846 59.8714 11.1539 60.1697 11.4526C59.9992 13.049 61.9452 12.6722 61.5901 11.5806C62.2187 12.0073 61.8316 13.4615 59.8572 14.0695C59.1257 13.2802 59.7649 12.4624 59.5305 11.641C58.9517 10.7628 57.7265 11.0117 57.5312 11.8401C56.821 11.129 55.6492 11.8401 55.9581 12.9068C54.7898 13.1308 54.6016 14.8517 55.6811 15.314C55.1449 16.2811 56.1215 17.2233 56.9773 16.6971C56.9773 17.5469 58.1278 18.066 58.8842 17.3371C59.2961 16.5869 58.8522 15.6446 59.74 15.0402C61.5333 16.0642 61.5866 17.5682 60.8799 17.842C61.4978 16.8642 59.669 16.0642 59.4808 17.6571C59.1221 17.8811 58.9872 18.3398 59.1612 18.7238C59.25 18.5211 59.4488 18.3931 59.669 18.3967C60.3153 18.5104 60.5923 18.8767 61.5937 18.3113C61.7109 19.0936 61.5227 19.6127 61.0291 19.8616C60.7485 19.5273 60.3792 19.282 59.9637 19.1505C59.0227 18.7949 58.2308 19.6269 57.5419 18.8589C57.1619 19.3851 57.1406 20.0891 57.4922 20.6367C57.3501 20.6296 57.2116 20.69 57.1193 20.8002C56.4872 20.1425 56.3594 19.1505 56.8033 18.354C56.6151 18.098 56.3026 17.9593 55.9865 17.9984C55.9865 16.9318 55.5746 16.7326 54.9673 16.0429C55.0739 17.1593 54.8431 18.7238 55.4041 19.7513C55.6811 20.2562 56.0504 20.3914 56.4055 20.7967C56.5298 20.9354 56.6364 21.0883 56.718 21.2554C56.5866 22.0234 56.718 22.6101 56.6399 22.8269C56.8707 22.8589 57.2969 23.2927 58.0248 23.5701C58.1278 23.7265 58.2059 23.8936 58.2628 24.0714C58.4297 24.5834 58.3586 24.971 58.6534 25.4652C59.2535 26.4714 60.7166 27.0652 61.6221 27.723C61.338 26.8483 61.37 26.411 60.4573 25.8528C60.6526 25.6003 60.6953 25.2625 60.571 24.9674C59.6512 24.9496 58.8558 24.331 58.6143 23.4421C58.7564 23.4172 58.8771 23.3318 58.9446 23.2038C59.2358 23.7798 59.8501 24.1212 60.4928 24.0572C60.1803 23.0723 61.2812 22.8021 61.4658 21.8207C61.5795 21.394 61.5688 20.946 61.441 20.5229C61.9026 20.2136 62.4459 20.306 63.0638 20.7967C62.0802 21.3905 62.2613 21.81 62.0376 22.4287C61.9346 22.6243 61.7215 22.7345 61.5049 22.7096C61.7499 23.0438 62.2009 23.1469 62.5702 22.9585C64.0439 23.5843 64.257 21.5967 63.1029 21.65C63.6924 21.17 64.9672 21.9629 64.9672 24.0287C64.0013 24.5016 63.4047 23.6483 62.5525 23.6376C61.544 23.9327 61.4268 25.1807 62.1619 25.611C61.2812 26.0945 61.6114 27.4137 62.7194 27.4243C62.5951 28.6119 64.1824 29.291 64.9388 28.3915C65.2726 28.811 65.8834 28.8786 66.3024 28.5443C66.5972 28.3061 66.7286 27.9186 66.6362 27.5488C67.453 27.7906 68.2804 26.8377 67.801 25.9132C67.2079 25.2981 66.1781 25.451 65.8585 24.4234C67.3571 23.0012 68.8095 23.3887 68.8699 24.1461C68.1135 23.2714 66.8138 24.7896 68.2839 25.4332C68.394 25.8421 68.7846 26.1052 69.2037 26.0483C69.0403 25.9025 68.9764 25.675 69.0439 25.4688C69.3386 24.8821 69.7541 24.7221 69.5233 23.5985C70.3045 23.7123 70.7448 24.043 70.8372 24.5905C70.4394 24.7647 70.1021 25.0492 69.8571 25.4083C69.264 26.2119 69.8073 27.2039 68.8734 27.6412C69.264 28.1568 69.9281 28.3808 70.5495 28.203C70.5034 28.3381 70.5211 28.4875 70.5992 28.6083C69.786 29.0243 68.7988 28.8608 68.1667 28.1995C67.8685 28.3061 67.6518 28.5692 67.5986 28.8821C66.5688 28.587 66.2705 28.907 65.4324 29.2875C66.5297 29.5115 67.9572 30.187 69.1007 29.9488C69.6653 29.8315 69.8997 29.515 70.3897 29.291C70.5602 29.2128 70.7377 29.1595 70.9188 29.1275C71.6291 29.483 72.2221 29.5115 72.4032 29.6608C72.4991 29.4475 73.0353 29.1666 73.5147 28.5479C73.6922 28.4981 73.8769 28.4697 74.0616 28.4661C74.6013 28.4661 74.9493 28.6368 75.5104 28.4981C76.6432 28.2172 77.641 26.987 78.5288 26.3114C77.6091 26.3114 77.2007 26.1692 76.3982 26.8839C76.2135 26.6279 75.901 26.4928 75.5885 26.5283C75.308 27.3959 74.4877 27.9754 73.5751 27.9506C73.5964 27.8083 73.5466 27.6661 73.4437 27.5666C74.0793 27.4528 74.58 26.9657 74.7114 26.3328C73.678 26.3328 73.7384 25.2127 72.8542 24.747C72.4813 24.523 72.0516 24.4056 71.6184 24.4163C71.4586 23.883 71.7001 23.3923 72.3499 22.9372C72.6305 24.0536 73.085 24.0038 73.6141 24.395C73.7704 24.5478 73.8165 24.7825 73.7277 24.9852C74.129 24.8501 74.3634 24.4341 74.2782 24.0216C75.3044 22.8021 73.4579 22.0198 73.1738 23.1505C72.8861 22.4394 74.0118 21.4509 75.9898 22.0447C76.1602 23.1114 75.1766 23.4349 74.9245 24.2492C74.9245 25.3159 76.0786 25.771 76.7 25.1914C76.8101 25.7141 77.325 26.0519 77.8506 25.9381C78.2234 25.8599 78.5182 25.5648 78.5963 25.1914C79.6936 25.6501 80.8015 24.3238 80.1588 23.3389C80.6559 23.1398 80.8974 22.5745 80.695 22.0767C80.5529 21.7247 80.2191 21.4865 79.8427 21.4687C80.3079 20.7576 79.6439 19.6909 78.6105 19.8793C77.8541 20.274 77.7014 21.3016 76.629 21.3016C75.7022 19.4527 76.4905 18.1727 77.2291 18.3327C76.1638 18.8056 77.254 20.4874 78.2944 19.2678C78.717 19.2785 79.0828 18.9762 79.1503 18.5567C78.9656 18.6776 78.7312 18.6776 78.5466 18.5567C78.0707 18.1051 78.0423 17.6464 76.8989 17.5575C77.2327 16.8464 77.6766 16.5158 78.227 16.5833C78.2802 17.0135 78.4542 17.4189 78.7241 17.7567C79.3207 18.5567 80.4287 18.322 80.5778 19.3425C81.185 19.122 81.5899 18.546 81.597 17.8989C81.7141 17.9842 81.8597 18.0091 81.9982 17.9664C82.1651 18.866 81.7212 19.7656 80.908 20.1816C80.9258 20.498 81.1105 20.7825 81.3946 20.9247C80.8193 21.8243 81.0394 22.2047 81.1637 23.1185C81.6964 22.13 82.7617 20.9531 82.854 19.7905C82.9038 19.2145 82.6694 18.898 82.5984 18.3682C82.5735 18.1833 82.5735 17.9984 82.5984 17.8135C83.1346 17.2411 83.3405 16.6758 83.5359 16.5442C83.3583 16.3913 83.2447 15.794 82.7937 15.1575C82.7972 14.9726 82.8221 14.7877 82.8718 14.61C83.0174 14.0908 83.2908 13.8099 83.3192 13.2304C83.3761 12.0606 82.4847 10.7415 82.0941 9.70678C81.8491 10.5921 81.5792 10.9406 82.0302 11.9113C81.7319 12.0144 81.5082 12.2704 81.4478 12.5833C82.19 13.1024 82.5096 14.0446 82.2291 14.9086C82.1012 14.8446 81.9521 14.8446 81.8242 14.9086C81.9024 14.2651 81.5757 13.6428 81.0075 13.337C80.7234 14.3291 79.6545 13.9451 78.9585 14.6597C78.6318 14.9691 78.3939 15.3566 78.2696 15.7904C77.7156 15.7904 77.3143 15.41 77.0729 14.6562C78.2199 14.7131 78.3051 14.2615 78.8484 13.8739C79.0437 13.7744 79.2781 13.7993 79.4485 13.9379C79.4343 13.5148 79.1112 13.1699 78.6886 13.1308C77.8151 11.7868 76.5331 13.3193 77.5203 13.9202C76.7639 13.9877 76.146 12.6188 77.293 10.9015C78.3584 11.0508 78.3797 12.089 79.0686 12.5761C79.6368 12.793 80.2724 12.5086 80.489 11.9397C80.5849 11.6872 80.5849 11.4064 80.489 11.1539C81.4904 11.2464 81.9485 9.96634 81.0359 9.337C81.7994 8.42321 80.8619 6.97253 79.7326 7.29609C79.5373 6.20807 78.1844 6.09785 77.8541 7.04719C77.3108 6.39296 76.0999 6.71297 75.972 7.75831C76.1283 8.59743 77.0658 9.049 76.7604 10.0801C74.7256 10.4357 73.7313 9.29078 74.1042 8.62943C74.2462 9.77789 76.1673 9.241 75.308 7.88631C75.4429 7.48809 75.2618 7.05075 74.8854 6.8623C74.9458 7.07208 74.8712 7.29964 74.6972 7.43475C74.1255 7.75831 73.6816 7.64809 73.2768 8.71832C72.6908 8.18854 72.5133 7.65164 72.737 7.16097C73.1631 7.2392 73.6035 7.19297 74.0047 7.02942C74.9458 6.69519 75.0452 5.56451 76.0644 5.72451C76.0289 5.0845 75.6063 4.52627 74.999 4.32361C75.1127 4.24183 75.1801 4.11027 75.1837 3.96804C76.0857 4.07471 76.8065 4.7645 76.9592 5.66051C77.2682 5.73873 77.5949 5.64629 77.8151 5.41517C78.504 6.23296 78.9301 6.12629 79.8392 6.28274C79.0508 5.48629 78.2447 4.12805 77.1581 3.68715C76.6254 3.47026 76.2526 3.60182 75.7377 3.51293C75.553 3.48448 75.3755 3.43115 75.205 3.35648C74.8179 2.67736 74.3385 2.31114 74.2711 2.08713C74.0722 2.20802 73.4721 2.14402 72.7299 2.38936C72.5523 2.33247 72.3854 2.25425 72.2292 2.15113C71.7746 1.85958 71.5864 1.51468 71.0467 1.31912C69.9458 0.917342 68.4402 1.38668 67.3216 1.45068C68.0957 1.94847 68.3443 2.30758 69.4061 2.1618C69.4132 2.4818 69.5943 2.76981 69.8748 2.91914C70.5921 2.3538 71.5935 2.32891 72.3357 2.8587C72.2434 2.96537 72.2043 3.11115 72.2327 3.24981C71.6433 2.9867 70.9508 3.1147 70.4927 3.56982C71.3556 4.13516 70.6774 5.04184 71.1532 5.92007C71.345 6.31118 71.6397 6.6383 72.0055 6.86941L71.9735 6.85519Z" fill="white"/>
<path d="M68.5858 30.1088C67.8898 30.1088 67.1369 29.8812 66.4551 29.6786C66.0823 29.5683 65.7342 29.4617 65.4111 29.3977L65.0666 29.3266L65.3862 29.1808C65.5318 29.1132 65.6597 29.0492 65.7804 28.9923C66.3308 28.7186 66.7037 28.5337 67.5169 28.7399C67.6057 28.4412 67.8329 28.1994 68.1312 28.0892L68.2023 28.0643L68.252 28.1177C68.8166 28.7114 69.7079 28.8786 70.4501 28.5514C70.4252 28.4874 70.4146 28.4163 70.4146 28.3488C69.8038 28.459 69.1646 28.2101 68.7882 27.7088L68.703 27.5985L68.8308 27.5381C69.3066 27.3141 69.3528 26.9443 69.4061 26.475C69.4203 26.3647 69.4345 26.2474 69.4522 26.1301L69.2214 26.1621C68.7669 26.2225 68.3336 25.9452 68.1916 25.515C67.7406 25.3016 67.4885 24.971 67.5027 24.5976C67.5169 24.2527 67.7548 23.9292 68.0886 23.8118C68.252 23.7549 68.4189 23.7514 68.5716 23.8047C68.5041 23.7478 68.4224 23.698 68.3265 23.6625C67.8436 23.4776 66.9487 23.5807 65.9899 24.4589C66.1781 24.9816 66.5865 25.1487 67.0162 25.323C67.3216 25.4474 67.6341 25.579 67.8827 25.835L67.9004 25.8634C68.1454 26.3363 68.0957 26.8768 67.769 27.2714C67.5098 27.5843 67.1405 27.7372 66.7747 27.6945C66.8031 28.0501 66.6575 28.4057 66.3734 28.6332C65.9402 28.9781 65.3223 28.939 64.9388 28.5586C64.5588 28.9283 63.9942 29.0243 63.4616 28.7968C62.9182 28.5657 62.5915 28.0785 62.5986 27.531C62.0908 27.4848 61.6967 27.1648 61.5759 26.6919C61.4694 26.2723 61.6185 25.8634 61.9594 25.6039C61.6789 25.3656 61.5369 24.9958 61.5866 24.5941C61.6505 24.0856 62.0092 23.6732 62.5205 23.5238L62.5383 23.5203H62.556C62.9111 23.5238 63.2236 23.666 63.5219 23.7976C63.9445 23.9896 64.3458 24.1709 64.8571 23.9505C64.8394 22.6456 64.2961 21.9238 63.8309 21.7034C63.7385 21.6607 63.6462 21.6322 63.561 21.6251C63.703 21.6998 63.8167 21.8207 63.8877 21.9807C64.0297 22.3007 63.9623 22.6989 63.7208 22.9478C63.458 23.2145 63.0461 23.2607 62.5809 23.0794C62.1725 23.2607 61.6896 23.1398 61.4197 22.7736L61.2634 22.5638L61.5227 22.5923C61.6931 22.61 61.86 22.5247 61.9417 22.3718C61.9878 22.2438 62.0163 22.1087 62.0447 21.9807C62.1299 21.5896 62.2116 21.2198 62.8685 20.786C62.3749 20.434 61.9523 20.3629 61.5795 20.5727C61.6896 20.9887 61.6931 21.4296 61.583 21.8491C61.5014 22.2936 61.235 22.6029 61.0006 22.8767C60.6917 23.2358 60.4502 23.5203 60.61 24.0216L60.6526 24.1567L60.5142 24.1709C59.8892 24.2314 59.2784 23.9292 58.941 23.4065C58.8913 23.4527 58.8309 23.4918 58.767 23.5167C59.0262 24.2918 59.7578 24.8358 60.5852 24.8501H60.6597L60.6882 24.9176C60.8124 25.2092 60.7876 25.5434 60.6278 25.8136C61.3309 26.2723 61.4445 26.6741 61.615 27.2679C61.6505 27.3959 61.6896 27.531 61.7393 27.6839L61.8458 28.0181L61.5617 27.8119C61.2954 27.6163 60.9793 27.4314 60.6455 27.2323C59.875 26.7736 58.9978 26.251 58.5646 25.5221C58.3728 25.1985 58.3267 24.9141 58.2805 24.6367C58.2521 24.4696 58.2237 24.2954 58.1633 24.1069C58.1136 23.9505 58.0461 23.8012 57.9574 23.6625C57.5525 23.5025 57.24 23.2963 57.0092 23.1469C56.8494 23.0403 56.7109 22.9514 56.6328 22.9407L56.4943 22.9229L56.5405 22.7914C56.5653 22.7203 56.5618 22.5567 56.5547 22.3718C56.5476 22.0945 56.5369 21.714 56.6044 21.2767C56.5298 21.1309 56.4339 20.9958 56.3274 20.8749C56.196 20.722 56.0575 20.6082 55.9261 20.498C55.7131 20.3202 55.4894 20.1353 55.3118 19.8047C54.9034 19.058 54.8999 18.0375 54.8963 17.138C54.8963 16.7504 54.8928 16.3806 54.8608 16.0535L54.8289 15.7051L55.0597 15.9682C55.1662 16.0926 55.2692 16.1993 55.3651 16.2989C55.7912 16.7469 56.0824 17.0526 56.1073 17.8811C56.4197 17.8846 56.718 18.034 56.9027 18.29L56.9453 18.3504L56.9098 18.4144C56.505 19.1398 56.5973 20.0216 57.1335 20.6438C57.1903 20.6011 57.2507 20.5691 57.3182 20.5513C57.0341 19.9896 57.0802 19.3176 57.4602 18.7984L57.5419 18.6847L57.6342 18.7878C57.9822 19.1753 58.3444 19.1078 58.8061 19.0224C58.9162 19.0011 59.0333 18.9798 59.1541 18.9655L59.0653 18.7735C58.8735 18.354 59.012 17.8562 59.3814 17.5931C59.4524 17.0989 59.6974 16.7611 60.0596 16.6651C60.3934 16.5762 60.7698 16.7149 60.9793 16.9993C61.0823 17.138 61.132 17.2944 61.1249 17.458C61.1604 17.3798 61.1818 17.2873 61.1889 17.1842C61.2279 16.6686 60.8728 15.8366 59.7507 15.1753C59.3068 15.5095 59.2677 15.9468 59.2216 16.4126C59.1896 16.7397 59.1576 17.0775 58.9872 17.3904L58.9659 17.4189C58.5788 17.7922 58.039 17.8989 57.5632 17.6962C57.1939 17.5398 56.9453 17.234 56.8814 16.8749C56.4908 17.042 56.0646 16.9673 55.7521 16.6686C55.4006 16.3344 55.3189 15.8295 55.5284 15.3637C55.0597 15.1113 54.8005 14.5922 54.8644 14.0126C54.9283 13.4259 55.2976 12.9708 55.8232 12.8179C55.7202 12.3095 55.9155 11.833 56.3416 11.5841C56.7109 11.3672 57.1406 11.3921 57.4815 11.641C57.6236 11.3032 57.9361 11.0615 58.3302 10.9939C58.8345 10.905 59.3352 11.129 59.6299 11.577L59.6441 11.609C59.7436 11.9504 59.6974 12.2881 59.6548 12.6117C59.5944 13.0739 59.5376 13.5113 59.8963 13.9379C61.1391 13.5361 61.6683 12.8037 61.7464 12.2917C61.7641 12.1815 61.7606 12.0784 61.7393 11.9895C61.7073 12.1601 61.6185 12.313 61.4729 12.4339C61.2031 12.6615 60.8053 12.7077 60.5035 12.5477C60.3117 12.4446 59.9992 12.1708 60.0561 11.4952C59.7578 11.1575 59.7329 10.6454 60.0063 10.2792L60.0845 10.1726C59.985 10.1619 59.8892 10.1477 59.7897 10.1334C59.2109 10.0552 58.6605 9.977 58.1633 10.3183L58.0426 10.4001L57.9929 10.2614C57.7514 9.59655 58.2059 8.64009 58.6427 8.10675C58.5788 8.0712 58.5255 8.02497 58.4794 7.96808C57.8189 8.44098 57.517 9.29432 57.7408 10.0837L57.7621 10.1548L57.7052 10.201C57.4602 10.4037 57.1371 10.4748 56.8352 10.4037C56.6009 11.2108 56.2493 11.4383 55.7273 11.7761C55.6172 11.8472 55.4965 11.9255 55.3686 12.0144L55.081 12.2135L55.1946 11.8828C55.3012 11.5699 55.3899 11.2143 55.4823 10.8375C55.6989 9.96277 55.9403 8.97432 56.5121 8.34498C56.7642 8.0712 57.0234 7.94319 57.272 7.81875C57.4247 7.74408 57.5845 7.66586 57.7479 7.54852C57.8863 7.45608 58.0106 7.34585 58.1172 7.22141C58.1598 6.78407 58.1527 6.34317 58.0959 5.90939L58.0781 5.76717L58.2201 5.78139C58.2983 5.79206 58.4687 5.72094 58.6498 5.64983C58.9268 5.53961 59.3032 5.39383 59.7471 5.32983C59.9566 5.18049 60.1519 5.01338 60.3295 4.82849C60.4183 4.67915 60.4893 4.5156 60.5532 4.35915C60.6633 4.10315 60.7734 3.83648 61.0397 3.56625C61.7109 2.87647 62.4672 2.59202 63.2733 2.28624C63.4722 2.21157 63.6782 2.13335 63.8841 2.04801L64.2144 1.9129L64.0226 2.21512C63.9019 2.40713 63.8167 2.57424 63.7421 2.72358C63.5255 3.1538 63.3799 3.44892 62.6839 3.69781C62.8046 4.00715 62.7868 4.35559 62.6306 4.65071L62.5915 4.72538L62.5099 4.7076C61.6789 4.54404 61.093 4.80004 60.5639 5.55739C60.5994 5.58583 60.6349 5.62139 60.6597 5.65694C61.1072 5.21961 61.7535 5.06316 62.3607 5.26227L62.4957 5.3085L62.4211 5.42939C62.1512 5.87384 62.3359 6.25073 62.5525 6.68451C62.7194 7.02229 62.9111 7.4063 62.8898 7.86497C62.865 8.30942 62.73 8.73965 62.4957 9.1201C62.8259 9.41521 63.3089 9.45077 63.8451 9.22321C63.1384 8.50142 63.1668 8.08186 63.213 7.46674L63.2272 7.36719C63.2485 7.25341 63.1597 7.12541 63.0319 7.10052L62.7939 7.05429L62.9822 6.9014C63.3976 6.56007 63.7279 6.78762 64.0475 7.02941C64.7222 6.92629 65.0063 7.20719 65.1199 7.38852C65.2833 7.65875 65.262 8.02853 65.0595 8.2952C64.9388 8.4552 64.7755 8.55476 64.5872 8.59031C64.7293 8.63654 64.8962 8.64365 65.0702 8.60454C65.7058 8.46231 66.2243 7.80453 66.4587 6.84807C66.0077 6.5174 65.5354 6.60629 65.0382 6.69518C64.7009 6.75918 64.3529 6.82318 64.0049 6.74851L63.9765 6.73785C63.6924 6.59562 63.4793 6.33962 63.3905 6.03384C63.3053 5.73872 63.3373 5.42583 63.4829 5.1556C63.5823 4.97071 63.7314 4.82138 63.9054 4.71471C63.5539 4.5156 63.3941 4.14937 63.5006 3.71914C63.6249 3.20358 64.1114 2.72713 64.7115 2.78047C64.7435 2.1049 65.2158 1.73867 65.6668 1.61778C66.203 1.47556 66.9061 1.63201 67.2577 2.19735C67.84 1.99112 68.4011 2.22224 68.6923 2.54224C68.8947 2.7698 68.9764 3.03647 68.916 3.27469C69.2534 3.3138 69.5588 3.53425 69.7328 3.87914C69.9778 4.36271 69.9068 4.94938 69.5481 5.37605L69.5233 5.39739C69.2605 5.56805 68.9693 5.66761 68.6888 5.76717C68.1987 5.93428 67.7371 6.09428 67.4104 6.6134C68.078 7.57697 68.742 7.64097 69.0794 7.59475C69.3635 7.55563 69.5872 7.41697 69.7328 7.26052C69.5268 7.3103 69.3137 7.27474 69.1255 7.16096C68.845 6.98674 68.6923 6.67029 68.7456 6.37162C68.7811 6.17251 68.9409 5.82761 69.5978 5.68539C69.8287 5.31916 70.1376 4.86049 70.6418 5.0276L70.8514 5.09872L70.6738 5.23027C70.5531 5.31916 70.5211 5.76006 70.5957 5.94139C70.6205 5.99828 70.6632 6.05873 70.7164 6.12984C70.9082 6.38584 71.1639 6.73073 70.8549 7.49163C71.4124 7.5023 71.661 7.27474 71.8386 6.89074C71.5048 6.65251 71.2349 6.33962 71.0573 5.96984C70.8407 5.57161 70.8514 5.16272 70.8585 4.80004C70.8691 4.32715 70.8762 3.95381 70.4359 3.66581L70.3116 3.58759L70.411 3.48803C70.8656 3.04002 71.519 2.88713 72.1156 3.08269C72.1262 3.01513 72.144 2.95113 72.1759 2.89069C71.4906 2.46046 70.585 2.50313 69.9423 3.00802L69.8855 3.05425L69.8215 3.01869C69.541 2.86935 69.3493 2.59557 69.3031 2.28979C68.4686 2.37868 68.1277 2.14046 67.6199 1.79201C67.5098 1.71734 67.3926 1.63556 67.2577 1.54667L66.9629 1.35823L67.3109 1.33689C67.6412 1.31911 68.0069 1.26222 68.3905 1.20534C69.2782 1.07022 70.2832 0.920887 71.0822 1.21245C71.4337 1.34045 71.6504 1.53245 71.8599 1.71734C71.9877 1.83112 72.1191 1.94846 72.2896 2.05512C72.4281 2.14401 72.5736 2.21868 72.7299 2.26846C73.1454 2.1369 73.5182 2.09423 73.7917 2.06579C73.9834 2.04446 74.1468 2.02668 74.2142 1.98757L74.3385 1.9129L74.3811 2.05512C74.4025 2.12979 74.5161 2.25779 74.6439 2.40713C74.825 2.61335 75.0665 2.89424 75.2831 3.26758C75.4323 3.33158 75.5921 3.37425 75.7554 3.40269C75.9472 3.4347 76.1212 3.43825 76.2916 3.43825C76.5686 3.44181 76.8563 3.44181 77.2043 3.58403C77.9926 3.90403 78.6389 4.68982 79.2071 5.38316C79.4557 5.68539 79.69 5.96984 79.9208 6.20451L80.1694 6.45695L79.8179 6.39651C79.6545 6.36806 79.5054 6.35029 79.3669 6.32895C78.7632 6.25073 78.3548 6.19384 77.8044 5.57872C77.5629 5.77783 77.2362 5.84895 76.9308 5.77072L76.8598 5.75295L76.8492 5.67828C76.7142 4.87471 76.0786 4.23826 75.2831 4.09604C75.2654 4.16004 75.237 4.22404 75.2015 4.27737C75.7696 4.53338 76.146 5.08094 76.1815 5.71739L76.1887 5.85606L76.0502 5.83472C75.5317 5.75294 75.2867 6.03739 74.9813 6.39651C74.9067 6.48184 74.8286 6.57429 74.7434 6.66318L74.9387 6.75918C75.347 6.96185 75.553 7.43119 75.4358 7.86853C75.6915 8.29875 75.7128 8.71476 75.4962 9.01698C75.2938 9.29432 74.9138 9.42943 74.5729 9.34054C74.4025 9.29788 74.264 9.20543 74.1645 9.07743C74.1858 9.16632 74.2285 9.25521 74.2924 9.34054C74.5942 9.76722 75.3968 10.1832 76.6751 9.977C76.8065 9.43655 76.5615 9.06676 76.3023 8.6792C76.1212 8.40542 75.933 8.12453 75.8655 7.77608L75.862 7.7583L75.8655 7.74053C75.9294 7.20719 76.2774 6.78407 76.771 6.64184C77.1581 6.52807 77.5452 6.60629 77.8257 6.84451C78.021 6.46762 78.3974 6.25428 78.8307 6.28984C79.3136 6.32895 79.6936 6.66318 79.8285 7.15741C80.3541 7.05785 80.8796 7.29607 81.1957 7.78319C81.5153 8.27742 81.5188 8.86765 81.2063 9.31565C81.6041 9.64277 81.7532 10.1299 81.5863 10.585C81.4372 10.9939 81.082 11.2499 80.6524 11.2712C80.7056 11.5059 80.6914 11.7512 80.6026 11.9788C80.3647 12.6046 79.6616 12.921 79.0366 12.6828L79.0118 12.6686C78.7241 12.4659 78.5501 12.1815 78.3797 11.9041C78.1346 11.5059 77.9038 11.129 77.357 11.0259C76.6503 12.121 76.7 13.0206 76.9628 13.465C77.0161 13.5539 77.0764 13.625 77.1439 13.6819C77.0693 13.5397 77.0409 13.3761 77.0729 13.2055C77.1332 12.857 77.4102 12.5655 77.7476 12.4979C78.1133 12.4232 78.4827 12.6152 78.7632 13.0241C79.2142 13.0917 79.5586 13.4721 79.5728 13.9344L79.5799 14.1548C79.7042 14.1086 79.8321 14.073 79.9493 14.041C80.4038 13.913 80.7624 13.8099 80.908 13.305L80.9471 13.1699L81.0714 13.2375C81.636 13.5397 81.9734 14.1228 81.9592 14.7522C82.0266 14.7415 82.0941 14.7451 82.1651 14.7628C82.3711 13.9735 82.0693 13.1486 81.3945 12.6793L81.3342 12.6366L81.3484 12.5655C81.4087 12.2561 81.6112 11.993 81.8917 11.8544C81.5614 11.0863 81.6857 10.6881 81.8704 10.0979C81.9095 9.96988 81.9521 9.83477 81.9947 9.68188L82.087 9.34766L82.2113 9.67477C82.3249 9.97344 82.4812 10.297 82.6445 10.6383C83.0387 11.4597 83.4861 12.3877 83.4435 13.2446C83.4258 13.625 83.305 13.8882 83.1878 14.1442C83.1168 14.3006 83.0458 14.4606 82.9925 14.6491C82.9499 14.8055 82.9251 14.9691 82.918 15.1326C83.163 15.4882 83.3086 15.8295 83.4187 16.082C83.4968 16.2633 83.5643 16.4197 83.6211 16.4695L83.7347 16.5655L83.6104 16.6473C83.543 16.6935 83.4542 16.8357 83.3512 17.0029C83.2056 17.2375 83.0103 17.554 82.7191 17.8704C82.7013 18.034 82.7013 18.1975 82.7227 18.3611C82.7475 18.5567 82.8008 18.7238 82.8469 18.8873C82.9286 19.154 83.0103 19.4313 82.9783 19.8082C82.9109 20.6545 82.3462 21.5078 81.8455 22.2616C81.6325 22.5851 81.4301 22.8909 81.2738 23.1789L81.1069 23.4847L81.0607 23.1398C81.0394 22.9798 81.0146 22.8376 80.9933 22.706C80.8903 22.098 80.8193 21.6856 81.249 20.9674C80.9933 20.7931 80.8264 20.5051 80.8051 20.1922L80.8015 20.1176L80.869 20.082C81.597 19.7087 82.0195 18.9087 81.9166 18.1015C81.8491 18.1087 81.7781 18.098 81.7106 18.0766C81.6396 18.6953 81.2205 19.2322 80.6275 19.4491L80.4961 19.4953L80.4748 19.3567C80.4002 18.8375 80.0558 18.6882 79.6226 18.4962C79.5196 18.45 79.413 18.4038 79.3065 18.3504L79.271 18.5709C79.1964 19.026 78.8094 19.3638 78.3548 19.378C78.021 19.7513 77.6268 19.8936 77.2717 19.7691C76.945 19.6553 76.7036 19.3318 76.6894 18.9798C76.6823 18.8091 76.7284 18.6527 76.8172 18.5247C76.7462 18.5709 76.6787 18.6349 76.6183 18.7131C76.3023 19.122 76.1389 20.0109 76.7071 21.1842C77.2611 21.1594 77.5381 20.818 77.8328 20.4553C78.0388 20.2029 78.2518 19.9398 78.5679 19.7762L78.5998 19.7656C79.129 19.6696 79.6332 19.8758 79.9173 20.306C80.141 20.6438 80.1801 21.0385 80.0309 21.3762C80.3789 21.4509 80.6772 21.6962 80.8122 22.034C80.9187 22.3043 80.9151 22.5958 80.8051 22.8625C80.7092 23.09 80.5423 23.2714 80.3328 23.3887C80.5778 23.858 80.5068 24.4305 80.1375 24.875C79.761 25.3265 79.2071 25.5043 78.6886 25.3407C78.5679 25.6963 78.266 25.9701 77.8896 26.0519C77.3641 26.1656 76.8456 25.8705 76.6538 25.387C76.3484 25.5896 75.9507 25.6216 75.585 25.4616C75.1162 25.259 74.8286 24.7932 74.8286 24.2527L74.8321 24.2207C74.9387 23.8794 75.1588 23.6234 75.3755 23.3745C75.6773 23.0225 75.9649 22.6918 75.9046 22.1371C74.651 21.7816 73.8059 22.0909 73.4579 22.4714C73.3868 22.5496 73.3371 22.6278 73.3016 22.7096C73.4188 22.5923 73.5679 22.5176 73.742 22.4963C74.0935 22.4536 74.4557 22.6349 74.6191 22.9372C74.7966 23.2643 74.7221 23.666 74.4131 24.0536C74.4806 24.5052 74.2142 24.9461 73.7775 25.0918L73.5324 25.1736L73.6354 24.9354C73.7029 24.779 73.6674 24.5905 73.5466 24.4732C73.4366 24.3949 73.3194 24.3274 73.2057 24.2634C72.8542 24.0678 72.5239 23.8829 72.2967 23.122C71.8173 23.4954 71.6291 23.8794 71.7178 24.2989C72.144 24.3061 72.5594 24.4234 72.9252 24.6474C73.3265 24.8572 73.5466 25.2021 73.7384 25.5043C73.9941 25.9025 74.1929 26.2154 74.722 26.2154H74.8605L74.8321 26.3505C74.7043 26.9728 74.2462 27.4634 73.6461 27.6341C73.678 27.6945 73.6958 27.7621 73.7029 27.8332C74.5125 27.8083 75.2405 27.2679 75.4926 26.4892L75.5139 26.4181L75.5885 26.411C75.901 26.3754 76.21 26.4892 76.423 26.7168C77.0871 26.1585 77.5168 26.1692 78.156 26.187C78.2731 26.1905 78.401 26.1941 78.5395 26.1941H78.8768L78.6069 26.4003C78.3477 26.5994 78.0778 26.8448 77.7937 27.1043C77.1261 27.7123 76.3733 28.4021 75.5495 28.6083C75.173 28.7008 74.8925 28.6652 74.5942 28.6226C74.4309 28.6012 74.264 28.5799 74.0722 28.5799C73.9124 28.5834 73.7491 28.6048 73.5928 28.6474C73.3229 28.9888 73.0388 29.227 72.8258 29.4048C72.6766 29.5292 72.5488 29.6359 72.5168 29.707L72.4565 29.8421L72.3428 29.7461C72.2825 29.6963 72.1227 29.6537 71.9345 29.6039C71.6681 29.5328 71.3095 29.4368 70.9117 29.2448C70.7519 29.2768 70.5957 29.3266 70.4465 29.3941C70.2654 29.4759 70.1198 29.5755 69.9778 29.6679C69.7434 29.8208 69.502 29.9808 69.1362 30.059C68.9515 30.0946 68.7704 30.1088 68.5858 30.1088ZM65.7733 29.2483C66.0112 29.3088 66.2598 29.3835 66.519 29.4617C67.3962 29.7248 68.3052 29.9986 69.0758 29.835C69.4025 29.7675 69.6156 29.6252 69.8393 29.4759C69.9885 29.3763 70.1447 29.2732 70.34 29.1843C70.5176 29.1026 70.7058 29.0457 70.8975 29.0101L70.933 29.003L70.965 29.0208C71.3521 29.2163 71.7143 29.3123 71.9771 29.3799C72.1369 29.4226 72.2647 29.4581 72.3641 29.5008C72.4316 29.419 72.5346 29.3301 72.666 29.2234C72.8861 29.0386 73.1596 28.8074 73.4224 28.4697L73.4437 28.4412L73.4792 28.4306C73.6674 28.3772 73.8627 28.3488 74.0544 28.3452C74.264 28.3452 74.438 28.3701 74.6084 28.3914C74.8961 28.4306 75.1446 28.4626 75.4784 28.3808C76.2455 28.1888 76.9486 27.5488 77.6268 26.9301C77.8257 26.7488 78.021 26.571 78.2092 26.4145C78.1844 26.4145 78.1595 26.4145 78.1382 26.411C77.4812 26.3932 77.119 26.3861 76.4727 26.9621L76.3804 27.0439L76.3058 26.9408C76.1567 26.7381 75.9188 26.6065 75.6702 26.6279C75.3577 27.4776 74.5374 28.0572 73.6319 28.0572C73.6106 28.0572 73.5928 28.0572 73.5715 28.0572L73.4437 28.0537L73.4614 27.9257C73.4756 27.819 73.4401 27.7159 73.3655 27.6412L73.2022 27.4848L73.4224 27.4457C73.9728 27.3496 74.4096 26.955 74.5658 26.4323C74.0189 26.3754 73.7739 25.995 73.536 25.6216C73.3478 25.3265 73.1525 25.0243 72.8009 24.8394C72.4423 24.6225 72.0339 24.5087 71.622 24.5229H71.5367L71.5119 24.4412C71.3379 23.8581 71.5971 23.3176 72.286 22.8376L72.4209 22.7416L72.46 22.9016C72.6624 23.7016 72.943 23.8616 73.3016 24.0607C73.4224 24.1283 73.5466 24.1994 73.6816 24.2954C73.8165 24.4269 73.884 24.5976 73.884 24.7683C74.1077 24.6047 74.2249 24.3203 74.1645 24.0358L74.1539 23.9825L74.1894 23.9398C74.4664 23.6127 74.5409 23.2927 74.4025 23.0367C74.2817 22.8163 74.0083 22.6776 73.7526 22.7131C73.6141 22.7309 73.3691 22.8127 73.2803 23.1718L73.1951 23.5096L73.0637 23.186C72.9465 22.898 73.0211 22.578 73.2697 22.3078C73.6851 21.8491 74.6262 21.5114 76.0182 21.9274L76.0857 21.9487L76.0963 22.0198C76.2064 22.7203 75.8584 23.122 75.5246 23.5132C75.3186 23.7478 75.1269 23.9718 75.0345 24.2598C75.0417 24.7078 75.2725 25.0741 75.656 25.2412C75.9969 25.3905 76.3662 25.3372 76.6183 25.099L76.7639 24.9638L76.8065 25.1594C76.906 25.6216 77.3605 25.9132 77.8221 25.8172C78.1524 25.7461 78.4116 25.4865 78.4791 25.1594L78.5075 25.0243L78.6354 25.0776C79.1893 25.3087 79.6865 25.0278 79.9421 24.7185C80.1943 24.4127 80.3789 23.8829 80.0593 23.3923L79.9848 23.2749L80.1126 23.2216C80.3257 23.1363 80.489 22.9727 80.5813 22.7629C80.6701 22.5531 80.6737 22.3185 80.5884 22.1087C80.4642 21.7994 80.1694 21.5896 79.8356 21.5718L79.6368 21.5611L79.7468 21.394C79.935 21.106 79.9244 20.7327 79.7149 20.4198C79.5338 20.146 79.1574 19.89 78.646 19.9753C78.3797 20.1176 78.195 20.3487 77.9997 20.5905C77.673 20.9922 77.3392 21.4047 76.629 21.4047H76.558L76.526 21.3407C75.8726 20.0393 76.0679 19.0295 76.4301 18.5638C76.6503 18.2793 76.9592 18.1478 77.254 18.2118L77.5949 18.2864L77.2753 18.4287C76.9415 18.578 76.9024 18.8304 76.906 18.9655C76.9166 19.2216 77.0977 19.4669 77.3357 19.5522C77.6162 19.6482 77.9251 19.5202 78.2092 19.186L78.2447 19.1433H78.298C78.5892 19.1504 78.8449 18.9869 78.9692 18.738C78.8023 18.77 78.6282 18.7344 78.4827 18.6384C78.3477 18.5104 78.2554 18.4002 78.1666 18.29C77.9074 17.9735 77.705 17.7211 76.8882 17.6571L76.7249 17.6429L76.7959 17.4935C77.1545 16.7291 77.641 16.3806 78.2412 16.4553L78.33 16.466L78.3406 16.5549C78.3939 16.9637 78.5572 17.3513 78.8129 17.6713C79.0544 17.9949 79.3846 18.1371 79.7042 18.2793C80.109 18.4571 80.5245 18.6384 80.663 19.1718C81.1531 18.9371 81.4798 18.4358 81.4833 17.8846L81.4869 17.6642L81.6644 17.7958C81.7497 17.8598 81.8633 17.8775 81.9663 17.8455L82.087 17.8064L82.1119 17.9309C82.2823 18.8482 81.8384 19.7798 81.0323 20.2313C81.0714 20.4767 81.2241 20.6936 81.4478 20.8073L81.5614 20.8642L81.494 20.9709C81.043 21.6749 81.1034 22.0198 81.2099 22.6491C81.217 22.6883 81.2241 22.7274 81.2312 22.7665C81.359 22.5567 81.5011 22.3398 81.6502 22.1158C82.158 21.3478 82.6836 20.5549 82.744 19.7691C82.7724 19.4349 82.6978 19.1931 82.6232 18.9335C82.57 18.7629 82.5202 18.5851 82.4883 18.3718C82.4634 18.1762 82.4634 17.9806 82.4883 17.7886L82.4918 17.7531L82.5167 17.7282C82.8079 17.4153 82.9961 17.1131 83.1488 16.8677C83.2376 16.722 83.3086 16.6082 83.3832 16.5264C83.3228 16.4375 83.2695 16.3095 83.202 16.1531C83.0884 15.89 82.9499 15.5593 82.7049 15.2144L82.6836 15.1824V15.1468C82.6871 14.9513 82.7156 14.7593 82.7653 14.5708C82.8221 14.3646 82.9002 14.1939 82.9748 14.0339C83.0884 13.785 83.1949 13.5539 83.2092 13.2161C83.2482 12.4197 82.815 11.5166 82.4315 10.7201C82.3178 10.4854 82.2077 10.2579 82.1154 10.041C82.1048 10.0801 82.0906 10.1157 82.0799 10.1548C81.8881 10.7628 81.7852 11.0935 82.1367 11.8579L82.19 11.9717L82.0728 12.0144C81.8349 12.0961 81.6502 12.2917 81.5828 12.5299C82.3285 13.0881 82.6339 14.0446 82.3427 14.9371L82.3001 15.0615L82.1829 15.0011C82.087 14.9513 81.9734 14.9513 81.881 15.0011L81.6928 15.0971L81.7177 14.8873C81.7852 14.3326 81.533 13.8028 81.0749 13.497C80.869 14.0055 80.4322 14.1299 80.0061 14.2508C79.6687 14.3468 79.3207 14.4428 79.0437 14.7308C78.7277 15.0259 78.5004 15.3993 78.3832 15.8117L78.3584 15.8935H78.2731C77.6659 15.8935 77.2256 15.4846 76.9699 14.6811L76.9202 14.5246L77.0835 14.5317C77.9038 14.5708 78.1346 14.3504 78.4329 14.0695C78.5359 13.9699 78.646 13.8704 78.788 13.7708C78.9549 13.6855 79.1361 13.6677 79.303 13.7175C79.2142 13.4544 78.9763 13.2588 78.6851 13.2304L78.6282 13.2268L78.5998 13.1806C78.3619 12.8179 78.0743 12.6508 77.7902 12.7077C77.5452 12.7575 77.3357 12.9779 77.293 13.2304C77.2682 13.3655 77.2753 13.6215 77.5878 13.8099L77.8825 13.9913L77.5381 14.0233C77.2398 14.0517 76.9486 13.881 76.7639 13.5717C76.4621 13.0633 76.3982 12.0392 77.2043 10.8268L77.2433 10.7663L77.3143 10.777C78.021 10.8766 78.3015 11.3317 78.5714 11.7726C78.7348 12.0357 78.8875 12.2881 79.129 12.4624C79.6332 12.6473 80.1978 12.3912 80.3896 11.8864C80.4748 11.6588 80.4748 11.4099 80.3896 11.1823L80.3257 11.0117L80.5068 11.0295C80.8974 11.065 81.2383 10.8552 81.3697 10.4961C81.4762 10.1974 81.4407 9.73522 80.9791 9.41877L80.8761 9.34766L80.9578 9.25165C81.3413 8.78943 81.2241 8.23475 81.0039 7.89697C80.7873 7.56275 80.3328 7.23563 79.7717 7.39563L79.651 7.43119L79.6297 7.30674C79.5302 6.75918 79.129 6.53518 78.8129 6.51029C78.4258 6.47829 78.0991 6.70229 77.9713 7.07563L77.9038 7.26407L77.776 7.10763C77.5558 6.84451 77.1972 6.74496 76.8385 6.85163C76.526 6.94407 76.1673 7.22496 76.0999 7.74408C76.1602 8.0392 76.3236 8.28453 76.4976 8.54409C76.7852 8.97432 77.0835 9.41877 76.8811 10.1014L76.8598 10.169L76.7888 10.1797C75.3648 10.4286 74.4557 9.94855 74.1113 9.46143C73.9017 9.16276 73.8627 8.82498 74.0154 8.56187L74.1858 8.2632L74.2284 8.60454C74.2746 8.96721 74.5019 9.07743 74.6368 9.11299C74.8818 9.17699 75.173 9.07743 75.3186 8.87476C75.4891 8.63654 75.4571 8.30586 75.2228 7.93608L75.1943 7.88986L75.2121 7.83653C75.3044 7.5663 75.2228 7.27119 75.0274 7.07918C75.0061 7.2463 74.9209 7.40274 74.7789 7.51297C74.6191 7.60541 74.4877 7.65875 74.3598 7.70852C73.9834 7.86142 73.6851 7.98231 73.3975 8.74676L73.3371 8.90321L73.2128 8.79298C72.5204 8.16364 72.4742 7.61963 72.5949 7.24274L72.0445 6.99741C71.8208 7.47386 71.487 7.76897 70.6845 7.70497L70.5211 7.69075L70.5921 7.54141C70.9437 6.79829 70.7306 6.51029 70.5424 6.2614C70.4821 6.18317 70.4288 6.10851 70.3933 6.02317C70.3223 5.8525 70.3081 5.4685 70.4181 5.21961C70.1767 5.23738 69.9956 5.49339 69.7789 5.84184L69.7541 5.8845L69.7044 5.89872C69.2853 5.9805 69.0297 6.16184 68.9835 6.41073C68.948 6.6134 69.0581 6.84096 69.2605 6.9654C69.4806 7.10052 69.7399 7.07918 69.9707 6.90851L70.2548 6.69518L70.1447 7.03652C70.0169 7.44185 69.6049 7.7583 69.1255 7.82586C68.7243 7.88275 67.943 7.80808 67.1937 6.68451L67.1547 6.62407L67.1902 6.56362C67.5595 5.92717 68.1028 5.73872 68.6284 5.55739C68.9018 5.46139 69.161 5.3725 69.399 5.22316C69.6866 4.8676 69.7434 4.38404 69.5446 3.98581C69.3812 3.66225 69.0971 3.48092 68.774 3.50225L68.5645 3.51647L68.6674 3.33514C68.774 3.14669 68.7243 2.91202 68.5361 2.70224C68.2839 2.42135 67.7797 2.22579 67.2683 2.44979L67.1511 2.49246L67.1014 2.39646C66.8244 1.86312 66.1959 1.71379 65.72 1.84179C65.2051 1.9769 64.9139 2.37868 64.9317 2.91202L64.9388 3.0578L64.7968 3.0258C64.2677 2.91202 63.8238 3.32447 63.7172 3.77603C63.6817 3.92892 63.6071 4.44093 64.225 4.60449L64.6192 4.7076L64.2286 4.82138C63.9907 4.89249 63.7954 5.04894 63.6782 5.26583C63.561 5.48272 63.5326 5.73161 63.6036 5.96984C63.6746 6.20806 63.8415 6.41073 64.0617 6.52807C64.3564 6.58851 64.6654 6.53162 64.9921 6.47118C65.5354 6.37162 66.1 6.26495 66.654 6.71296L66.7108 6.75918L66.6966 6.82674C66.448 7.91119 65.8585 8.66142 65.1199 8.82854C64.7115 8.92098 64.3245 8.8072 64.1079 8.52987L63.8948 8.25609L64.2286 8.34853C64.4949 8.4232 64.7364 8.35564 64.882 8.16009C65.0276 7.96808 65.0453 7.70141 64.9282 7.50941C64.7861 7.27474 64.4701 7.18585 64.0404 7.26407L63.9907 7.27119L63.9516 7.23919C63.6746 7.02585 63.4971 6.9014 63.2911 6.97963C63.4154 7.0863 63.4829 7.25341 63.4509 7.42763L63.4473 7.48097C63.4012 8.11031 63.3763 8.4552 64.1292 9.17343L64.2463 9.28366L64.1007 9.35477C63.3728 9.72099 62.7052 9.66766 62.2719 9.20899L62.208 9.14143L62.2577 9.06676C62.4992 8.70409 62.6413 8.28098 62.6661 7.84719C62.6874 7.44897 62.517 7.10763 62.3536 6.78051C62.1476 6.36451 61.931 5.93428 62.1619 5.4365C61.6292 5.31205 61.0752 5.49694 60.7201 5.92717L60.5674 6.11206L60.5213 5.87384C60.507 5.79206 60.4467 5.72094 60.3686 5.6925L60.2336 5.64272L60.3117 5.52183C60.8906 4.63649 61.5582 4.30582 62.4708 4.45871C62.5773 4.20626 62.5667 3.91826 62.4353 3.67292L62.3714 3.55203L62.4992 3.50936C63.2094 3.2818 63.3266 3.04358 63.5432 2.6098C63.5823 2.53513 63.6213 2.45335 63.6675 2.36802C63.5645 2.40713 63.458 2.44624 63.355 2.48535C62.5773 2.78047 61.8387 3.06136 61.2066 3.71203C60.9722 3.95026 60.8728 4.18493 60.7663 4.43382C60.6953 4.59738 60.6242 4.7716 60.5106 4.95294C60.3011 5.17338 60.088 5.35472 59.8572 5.51472L59.8075 5.5325C59.3814 5.58939 59.0227 5.72806 58.7351 5.84184C58.5753 5.90584 58.4439 5.95561 58.3373 5.97695C58.387 6.40362 58.387 6.83385 58.3409 7.25696L58.3373 7.28896L58.316 7.31385C58.1917 7.46674 58.0426 7.5983 57.8792 7.70852C57.7052 7.83297 57.5383 7.91475 57.375 7.99297C57.1335 8.11386 56.9062 8.22409 56.6825 8.46942C56.1499 9.0561 55.9226 9.97344 55.706 10.8623C55.6421 11.1255 55.5781 11.3779 55.5107 11.6161C55.5426 11.5948 55.5746 11.5735 55.6065 11.5557C56.1428 11.2108 56.4375 11.0188 56.6506 10.201L56.6825 10.0766L56.7997 10.1228C57.0341 10.2117 57.3004 10.1797 57.5064 10.0374C57.2862 9.13787 57.6697 8.17786 58.4545 7.68008L58.5611 7.61252L58.6179 7.72275C58.6676 7.81875 58.7564 7.88986 58.8629 7.91119L59.0618 7.95386L58.9233 8.1032C58.5149 8.54053 58.0639 9.40454 58.174 10.009C58.7066 9.71388 59.2748 9.7921 59.8252 9.86677C60.1697 9.913 60.5248 9.96277 60.8799 9.92722C61.3238 9.90588 61.7464 9.76366 62.1086 9.51477L62.1796 9.46499L62.2471 9.51832C62.7123 9.90588 62.7939 10.4997 62.4886 11.2819L62.4282 11.4348L62.3075 11.3246C61.6967 10.7734 61.3735 10.7983 60.9651 10.8303C60.8266 10.841 60.6811 10.8517 60.5142 10.8446C60.3473 10.8446 60.1946 10.7415 60.088 10.5601C59.9921 10.8197 60.0525 11.1255 60.2585 11.3281L60.2975 11.3672L60.2904 11.4206C60.2443 11.8508 60.3579 12.1637 60.6136 12.2988C60.8337 12.4161 61.1285 12.3806 61.3309 12.2135C61.4374 12.1246 61.6008 11.9184 61.4907 11.5699L61.3877 11.2535L61.6612 11.4383C61.9133 11.609 62.0305 11.9148 61.9736 12.2775C61.8849 12.8641 61.2883 13.7033 59.8963 14.1299L59.8288 14.1513L59.7791 14.0979C59.2961 13.5788 59.3636 13.049 59.4311 12.537C59.4701 12.2277 59.5092 11.9326 59.4311 11.641C59.1363 11.2072 58.6924 11.1148 58.3693 11.1717C58.0035 11.2357 57.7265 11.4846 57.6484 11.8188L57.6023 12.0179L57.4567 11.8721C57.1797 11.5948 56.7891 11.5415 56.4588 11.737C56.1818 11.9006 55.9155 12.2846 56.0717 12.8286L56.1073 12.9495L55.983 12.9744C55.3935 13.0881 55.1343 13.5966 55.0916 13.9948C55.049 14.3895 55.1911 14.9335 55.7273 15.1646L55.8445 15.2144L55.7841 15.3246C55.5142 15.8153 55.6847 16.242 55.9119 16.4624C56.1889 16.7255 56.5831 16.7646 56.9204 16.5584L57.0945 16.4517V16.6544C57.0945 16.9957 57.3075 17.298 57.652 17.4438C57.9574 17.5718 58.4155 17.5824 58.7954 17.2233C58.9375 16.9566 58.9659 16.658 58.9943 16.3486C59.044 15.8331 59.0937 15.3033 59.6796 14.9051L59.74 14.8659L59.8004 14.9015C61.0646 15.6233 61.4623 16.5691 61.4161 17.1629C61.3877 17.522 61.2066 17.7993 60.9261 17.9095L60.6065 18.034L60.7911 17.7424C60.9864 17.4366 60.8799 17.2055 60.7982 17.0917C60.6455 16.8855 60.3615 16.7824 60.12 16.8429C59.8359 16.9175 59.6512 17.1984 59.6015 17.6286L59.5944 17.682L59.5483 17.7104C59.3032 17.8633 59.1789 18.1478 59.2109 18.4215C59.3316 18.3078 59.4914 18.2402 59.6654 18.2402C59.669 18.2402 59.6725 18.2402 59.6761 18.2402C59.8572 18.2722 59.9921 18.3149 60.1271 18.354C60.5177 18.4784 60.8266 18.5744 61.544 18.1691L61.686 18.0873L61.7109 18.2509C61.8352 19.0864 61.6256 19.6482 61.0859 19.9184L61.0078 19.9576L60.9509 19.89C60.6846 19.5736 60.333 19.3389 59.9389 19.2144C59.5554 19.0687 59.1967 19.1362 58.8487 19.2002C58.419 19.2784 57.9751 19.3602 57.5703 18.994C57.2862 19.4704 57.2933 20.0571 57.5987 20.53L57.7194 20.7149L57.4993 20.7042C57.3892 20.6971 57.2862 20.7469 57.2187 20.8287L57.1371 20.9247L57.0483 20.8322C56.3949 20.1531 56.2493 19.154 56.679 18.3184C56.5121 18.13 56.2635 18.034 56.0114 18.0624L55.8835 18.0766V17.9486C55.8835 17.1202 55.6279 16.85 55.2017 16.4055C55.1733 16.3735 55.1414 16.3415 55.1129 16.3095C55.1236 16.5549 55.1236 16.818 55.1272 17.0882C55.1307 18.0055 55.1343 18.9513 55.5142 19.6447C55.674 19.9362 55.8693 20.0998 56.0753 20.2705C56.2138 20.3842 56.3558 20.5051 56.5014 20.6687C56.6328 20.8109 56.7429 20.9745 56.8317 21.1522L56.8494 21.1842L56.8423 21.2198C56.7678 21.65 56.7784 22.0269 56.7891 22.3043C56.7926 22.4643 56.7962 22.5923 56.7855 22.6918C56.8849 22.7345 56.9986 22.8091 57.1371 22.898C57.3785 23.058 57.6804 23.2536 58.0781 23.4065L58.1136 23.4207L58.1349 23.4527C58.2415 23.6163 58.3267 23.7941 58.387 23.9825C58.4545 24.1852 58.4829 24.3701 58.5113 24.5478C58.554 24.8145 58.5966 25.067 58.767 25.3514C59.1718 26.0305 59.985 26.5141 60.7698 26.9834C61.0042 27.1221 61.2279 27.2572 61.4339 27.3923C61.4232 27.3568 61.4126 27.3176 61.4019 27.2821C61.2279 26.6705 61.1285 26.3327 60.4112 25.8954L60.3046 25.8279L60.3686 25.7816C60.5248 25.5825 60.5674 25.3158 60.4928 25.0776C59.5625 25.0278 58.7528 24.3772 58.5078 23.4705L58.4758 23.3496L58.6001 23.3283C58.7066 23.3105 58.799 23.2429 58.8487 23.1505L58.9517 22.9549L59.0511 23.1505C59.2961 23.6412 59.8075 23.9505 60.3473 23.9505H60.3508C60.2407 23.41 60.5355 23.0652 60.8231 22.7309C61.0504 22.4643 61.2847 22.1905 61.3593 21.7994C61.4694 21.3834 61.4587 20.9567 61.338 20.5549L61.3131 20.4731L61.3842 20.4269C61.8884 20.0891 62.4815 20.1816 63.142 20.7078L63.2698 20.8109L63.1278 20.8962C62.4246 21.3194 62.3572 21.6358 62.2684 22.034C62.24 22.1691 62.208 22.3114 62.1512 22.4678C62.0624 22.6349 61.9239 22.7487 61.7606 22.7985C61.9807 22.9585 62.2719 22.9869 62.5241 22.8554L62.5702 22.8305L62.6199 22.8518C63.0212 23.0225 63.3515 23.0012 63.5574 22.7914C63.7314 22.6136 63.7847 22.3114 63.6782 22.0767C63.6214 21.9523 63.4687 21.746 63.1135 21.7602L62.7691 21.7745L63.0354 21.5576C63.2698 21.3656 63.6036 21.3442 63.9267 21.5007C64.4594 21.7567 65.0844 22.5709 65.0844 24.0252V24.0963L65.0205 24.1283C64.3848 24.4412 63.8983 24.2207 63.4296 24.0074C63.1455 23.8794 62.8756 23.7549 62.5738 23.7478C62.0766 23.9007 61.8565 24.2989 61.8174 24.6225C61.7712 24.9958 61.9275 25.3336 62.2258 25.5079L62.3998 25.611L62.2222 25.707C61.8742 25.899 61.7109 26.2616 61.8032 26.635C61.8813 26.9408 62.169 27.3034 62.7265 27.307H62.8508L62.8366 27.4314C62.7726 28.0288 63.1846 28.427 63.5539 28.5834C63.9196 28.7399 64.4772 28.7612 64.8536 28.3132L64.9424 28.2065L65.0276 28.3132C65.3223 28.683 65.8621 28.7434 66.2314 28.4483C66.4942 28.2386 66.6078 27.8937 66.5261 27.5701L66.4764 27.3817L66.6682 27.4385C66.9984 27.5345 67.3535 27.4172 67.5915 27.1256C67.7974 26.8732 67.9359 26.443 67.7051 25.9807C67.492 25.7639 67.2151 25.6501 66.9274 25.5327C66.4516 25.3372 65.958 25.1345 65.7485 24.4589L65.7271 24.3914L65.7804 24.3416C66.8315 23.3425 67.8258 23.2252 68.4047 23.4492C68.742 23.5772 68.9586 23.8367 68.9835 24.1389L69.0119 24.4838L68.7846 24.2207C68.5467 23.9469 68.2946 23.9825 68.1632 24.0252C67.9217 24.1105 67.7371 24.3523 67.73 24.6047C67.7193 24.8963 67.9324 25.1558 68.3301 25.3301L68.3798 25.3514L68.394 25.4047C68.4686 25.6856 68.6994 25.8847 68.9728 25.931C68.8983 25.7781 68.8805 25.6003 68.9338 25.4332C69.0155 25.2696 69.0936 25.1523 69.1681 25.0385C69.3954 24.6972 69.5765 24.4305 69.4096 23.6198L69.3777 23.4598L69.5375 23.4847C70.372 23.6056 70.8443 23.9718 70.9472 24.5692L70.9615 24.6581L70.8798 24.6936C70.5034 24.8607 70.1802 25.131 69.9458 25.4723C69.7079 25.7959 69.6653 26.155 69.6227 26.4999C69.5694 26.9372 69.5162 27.3888 69.0439 27.6732C69.4096 28.075 69.9849 28.2421 70.5105 28.0892L70.72 28.0288L70.649 28.235C70.6134 28.3381 70.6276 28.4483 70.688 28.5408L70.7555 28.6474L70.6454 28.7043C69.818 29.131 68.7988 28.9746 68.1348 28.3274C67.9111 28.4341 67.7477 28.6439 67.7051 28.8928L67.6838 29.0172L67.5631 28.9817C66.757 28.7506 66.4445 28.907 65.8763 29.1879C65.8479 29.2128 65.8124 29.2306 65.7733 29.2483ZM69.6653 23.7372C69.7931 24.5194 69.5836 24.8323 69.3599 25.163C69.2889 25.2732 69.2108 25.3834 69.1468 25.5185C69.1007 25.6679 69.1504 25.8456 69.2818 25.963L69.4558 26.1159C69.502 25.8563 69.5836 25.5896 69.7683 25.3407C70.0062 24.9923 70.3294 24.7114 70.7093 24.5265C70.6028 24.1105 70.2619 23.8545 69.6653 23.7372ZM59.4346 18.9407C59.6193 18.9407 59.8075 18.9655 60.0063 19.0402C60.4076 19.1682 60.7698 19.3993 61.0575 19.7122C61.4161 19.4918 61.5653 19.0864 61.5049 18.4855C60.8018 18.8447 60.4396 18.7309 60.0561 18.61C59.9318 18.5709 59.8004 18.5282 59.6512 18.5033C59.4985 18.4927 59.3352 18.6029 59.2677 18.7629L59.186 18.9513C59.2642 18.9478 59.3494 18.9407 59.4346 18.9407ZM77.0729 17.458C77.8541 17.554 78.092 17.8455 78.3442 18.1584C78.4294 18.2615 78.5146 18.3682 78.6247 18.4713C78.7561 18.5567 78.9407 18.5567 79.0863 18.4607L79.2674 18.3398C79.0402 18.2224 78.8129 18.066 78.6318 17.8242C78.369 17.4971 78.195 17.106 78.1275 16.69C77.7085 16.6686 77.3605 16.9246 77.0729 17.458ZM77.2327 14.7735C77.4457 15.3424 77.7618 15.6375 78.1844 15.6731C78.3193 15.2535 78.5572 14.8766 78.8804 14.5779C79.0828 14.3717 79.3136 14.2508 79.5444 14.1655L79.3775 14.0268C79.2426 13.9166 79.0544 13.8953 78.9017 13.977C78.788 14.0588 78.6851 14.1548 78.5856 14.2508C78.298 14.5211 78.0246 14.7771 77.2575 14.7771C77.2504 14.7735 77.2433 14.7735 77.2327 14.7735ZM61.2244 10.6312C61.5298 10.6312 61.86 10.7059 62.3252 11.0899C62.517 10.5174 62.4601 10.0908 62.1548 9.79211C61.7748 10.0339 61.338 10.1726 60.8906 10.1939C60.6455 10.2223 60.4005 10.2081 60.159 10.1797L60.2017 10.3112C60.2549 10.4783 60.365 10.6597 60.5177 10.6597C60.6775 10.6668 60.8124 10.6561 60.9438 10.649C61.0362 10.6383 61.1285 10.6312 61.2244 10.6312ZM72.7903 7.3423C72.6624 7.79386 72.9323 8.21342 73.2341 8.5192C73.5431 7.80097 73.8911 7.65875 74.2604 7.50941C74.3811 7.45963 74.509 7.40985 74.6404 7.33519C74.7647 7.23919 74.8215 7.06141 74.7753 6.89429L74.7149 6.68807C74.5374 6.8694 74.3243 7.03652 74.0402 7.13963C73.678 7.28541 73.2874 7.3423 72.8968 7.30319L73.401 7.62319L72.7903 7.3423ZM70.6738 3.55914C71.0999 3.90759 71.0893 4.36271 71.0822 4.8036C71.0751 5.15205 71.068 5.51472 71.2562 5.86317C71.4408 6.23651 71.7214 6.5494 72.0694 6.76985L72.6305 7.12541C72.634 7.12185 72.634 7.11474 72.6376 7.11118L72.6731 7.02941L72.7618 7.04363C73.1667 7.1183 73.5857 7.07563 73.9657 6.91918C74.3456 6.78407 74.58 6.51029 74.8073 6.24362C75.0949 5.90939 75.3932 5.5645 75.9401 5.58939C75.862 5.04894 75.4926 4.60093 74.9635 4.42315L74.754 4.35204L74.9316 4.22048C75.0168 4.16004 75.0665 4.06048 75.0701 3.95381L75.0736 3.82937L75.1979 3.84359C76.1176 3.95381 76.8705 4.65071 77.0587 5.55383C77.3037 5.59294 77.5594 5.50761 77.7334 5.32627L77.8221 5.23383L77.9038 5.32983C78.44 5.96273 78.7809 6.00895 79.4024 6.09073C79.445 6.09784 79.4912 6.10139 79.5373 6.10851C79.374 5.92361 79.2071 5.7245 79.0331 5.51472C78.4542 4.81071 77.8541 4.07826 77.119 3.78314C76.8136 3.6587 76.558 3.65514 76.2916 3.65514C76.1141 3.65514 75.9294 3.65159 75.7199 3.61603C75.5281 3.58403 75.3399 3.5307 75.1624 3.45247L75.1269 3.43825L75.1091 3.40625C74.8996 3.03647 74.6652 2.76624 74.4735 2.54935C74.3634 2.42135 74.2711 2.31824 74.2178 2.22579C74.1148 2.25424 73.9834 2.26846 73.8165 2.28624C73.5466 2.31468 73.1738 2.35379 72.7654 2.48891L72.7299 2.49957L72.6944 2.48891C72.5062 2.42846 72.3286 2.34668 72.1653 2.23646C71.9842 2.11912 71.8457 1.99468 71.7107 1.87734C71.5083 1.69956 71.3201 1.52889 71.0076 1.41867C70.2619 1.14845 69.3315 1.28711 68.426 1.42223C68.1561 1.46134 67.9004 1.50045 67.6518 1.52889C67.6838 1.55023 67.7158 1.57512 67.7477 1.59645C68.2697 1.95912 68.5538 2.15468 69.3883 2.0409L69.5126 2.02312L69.5162 2.15112C69.5233 2.40357 69.6547 2.63824 69.8642 2.77335C70.6099 2.22579 71.6397 2.21868 72.3996 2.75558L72.5026 2.82669L72.4209 2.92269C72.3499 3.00447 72.3215 3.11114 72.3428 3.2178L72.3854 3.4347L72.183 3.3458C71.6752 3.12536 71.0964 3.20714 70.6738 3.55914Z" fill="#860142"/>
<path fill-rule="evenodd" clip-rule="evenodd" d="M76.1424 11.0437C76.0749 11.7264 75.4925 12.2384 74.8107 12.2241C74.7681 12.6402 75.141 12.9033 75.7695 12.9353C75.7979 14.3326 76.2205 15.41 77.0373 16.1709C75.9648 16.7149 75.283 17.81 75.2617 19.0153C74.6367 18.7913 74.3739 19.0153 74.1964 19.4491C74.8604 19.57 75.1694 20.0785 75.1303 20.9745C74.4201 21.0705 73.8129 20.8927 73.5323 20.2634C73.1666 20.4874 73.0529 20.9638 73.2731 21.33C73.3086 21.3834 73.3477 21.4331 73.3903 21.4794C72.2575 21.7923 71.3697 22.6669 71.043 23.7976C69.9351 22.7772 68.7952 22.3932 67.6233 22.6456C67.5416 22.2545 67.2363 21.9487 66.8456 21.8669C66.7391 22.6989 66.3662 23.1647 65.727 23.2678C65.4394 22.6847 65.6028 21.9807 66.1177 21.5825C65.7448 21.3798 65.2938 21.4047 64.9423 21.6394C64.193 20.4269 63.4757 19.8616 61.9416 19.8616C62.4458 18.7096 62.3997 17.3869 61.8102 16.274C62.1902 16.0855 62.4103 15.6837 62.3677 15.2642C61.7427 15.5735 61.1603 15.4171 60.6277 14.7984C61.2811 14.2224 61.9167 14.1584 62.4245 14.5673C62.5843 14.1797 62.3997 13.7353 62.0126 13.5717H62.0091H61.9735C62.6696 12.8464 62.975 11.7193 62.8933 10.1868C64.0296 10.3326 65.1731 9.97701 66.0324 9.21967C66.3449 9.40456 66.7249 9.45078 67.0729 9.34767C66.661 8.92455 66.6716 8.24899 67.0907 7.8401C67.1049 7.82587 67.1191 7.81165 67.1368 7.79743L67.1865 7.75476C67.8293 8.20632 67.9181 8.6081 67.7831 9.177C68.2412 9.36189 68.5821 9.09878 68.781 8.46588C69.8463 8.6401 70.9365 8.49077 71.9166 8.03921C72.3427 9.30145 73.0955 9.92723 74.097 10.5281C73.9691 10.9192 74.0899 11.3495 74.4023 11.6197C74.8853 11.0224 75.1729 10.9086 76.1353 11.0401L76.1424 11.0437Z" fill="#007982"/>
<path d="M71.0998 24.0038L70.9649 23.8794C69.8925 22.8874 68.7739 22.5105 67.6446 22.7558L67.5345 22.7807L67.5097 22.6669C67.4458 22.3611 67.2256 22.1122 66.938 22.0091C66.803 22.8127 66.4018 23.2749 65.7448 23.378L65.6631 23.3923L65.6276 23.3176C65.3471 22.7451 65.4678 22.0554 65.9117 21.6145C65.6134 21.5113 65.2761 21.5505 65.0097 21.7354L64.9103 21.8029L64.8464 21.7034C64.1539 20.5869 63.4863 19.9789 61.9416 19.9789H61.7676L61.8386 19.8189C62.3322 18.6918 62.286 17.4189 61.7108 16.3308L61.6575 16.2277L61.764 16.1744C62.0481 16.0322 62.2363 15.7513 62.2612 15.4384C61.6468 15.6731 61.0716 15.4846 60.546 14.873L60.4714 14.7877L60.5567 14.713C61.1888 14.1548 61.828 14.041 62.3642 14.3824C62.3819 14.265 62.3713 14.1442 62.3216 14.0304C62.2576 13.8775 62.1404 13.7566 61.9878 13.689H61.7072L61.8919 13.497C62.563 12.8001 62.8613 11.6872 62.7796 10.1974L62.7725 10.0623L62.9075 10.0801C64.0119 10.2188 65.1234 9.87743 65.9579 9.14142L66.0182 9.08809L66.0893 9.13076C66.3236 9.26943 66.6006 9.32276 66.8669 9.2872C66.7285 9.08809 66.6539 8.84987 66.6574 8.59742C66.661 8.28097 66.7888 7.98586 67.0125 7.76541C67.0267 7.75119 67.0445 7.73341 67.0623 7.71919L67.1794 7.61963L67.2505 7.66941C67.9252 8.1423 68.0175 8.59031 67.9145 9.10942C68.0317 9.14142 68.1382 9.13431 68.2377 9.08809C68.4152 9.00276 68.5644 8.77875 68.6744 8.43742L68.7029 8.34497L68.7987 8.35919C69.8428 8.52986 70.9045 8.38408 71.8669 7.94319L71.9805 7.88985L72.0196 8.01074C72.4244 9.20898 73.1346 9.82766 74.1502 10.4392L74.2283 10.4854L74.1999 10.5708C74.097 10.8837 74.1715 11.2214 74.3881 11.4597C74.8604 10.905 75.2191 10.809 76.1459 10.9334L76.185 10.9441L76.2525 10.9797V11.0614C76.1814 11.7583 75.6097 12.2988 74.9208 12.3415C74.9279 12.4232 74.9599 12.4944 75.0131 12.5584C75.1481 12.7148 75.4144 12.8108 75.7695 12.8286L75.8761 12.8357L75.8796 12.9424C75.908 14.3006 76.3199 15.3602 77.1118 16.0962L77.2326 16.2064L77.087 16.2811C76.0501 16.8073 75.3931 17.8598 75.3753 19.026L75.3718 19.186L75.2227 19.1327C74.7255 18.9549 74.5089 19.0793 74.3562 19.378C74.9847 19.5522 75.283 20.0927 75.244 20.9887L75.2404 21.0847L75.1481 21.0989C74.3633 21.2056 73.7916 20.9816 73.4933 20.4482C73.2625 20.658 73.2056 21.01 73.3725 21.2838C73.4009 21.33 73.4365 21.3727 73.4755 21.4118L73.6069 21.5505L73.4223 21.6002C72.3356 21.8989 71.4656 22.7558 71.1531 23.8403L71.0998 24.0038ZM68.3158 22.4536C69.2284 22.4536 70.1233 22.834 70.9898 23.5914C71.3449 22.5674 72.1687 21.7531 73.1985 21.4153C73.1914 21.4047 73.1843 21.3976 73.1808 21.3869C72.9287 20.9673 73.06 20.4162 73.4755 20.1638L73.5856 20.0962L73.6389 20.2136C73.8661 20.7184 74.3313 20.9389 75.0238 20.8713C75.0344 20.0927 74.7575 19.666 74.1786 19.5593L74.0401 19.5344L74.0934 19.4029C74.239 19.0509 74.4911 18.6775 75.1552 18.8589C75.2227 17.7211 75.8583 16.7042 76.8491 16.1424C76.1069 15.3886 75.7056 14.3468 75.663 13.0384C75.2901 13.0028 75.0131 12.8855 74.8498 12.697C74.7326 12.5619 74.6829 12.3948 74.7006 12.2099L74.7113 12.1068L74.8143 12.1103C75.3896 12.1139 75.9045 11.705 76.0145 11.1397C75.1552 11.033 74.9173 11.1646 74.4911 11.6908L74.4166 11.7832L74.3278 11.7086C74.0011 11.4277 73.8661 10.9939 73.962 10.585C72.9748 9.9841 72.2717 9.35832 71.8491 8.19919C70.9045 8.60808 69.8747 8.74675 68.8591 8.59742C68.7313 8.95298 68.5573 9.18765 68.3335 9.29076C68.156 9.37609 67.9571 9.37254 67.7405 9.2872L67.6517 9.25165L67.673 9.15565C67.7902 8.66853 67.7441 8.31653 67.1936 7.90408L67.1723 7.92541C66.9912 8.10319 66.8883 8.34142 66.8847 8.59742C66.8812 8.85342 66.977 9.09165 67.1546 9.27298L67.286 9.40809L67.1049 9.46143C66.7533 9.5681 66.3698 9.52898 66.0466 9.36187C65.205 10.0765 64.1113 10.4214 63.014 10.3183C63.0708 11.7263 62.7867 12.8037 62.1689 13.529C62.3322 13.625 62.4565 13.7708 62.5311 13.945C62.6198 14.1619 62.6198 14.4002 62.5311 14.6135L62.4742 14.7522L62.3571 14.6562C61.796 14.2046 61.2136 14.4713 60.7946 14.809C61.274 15.3175 61.7711 15.4348 62.3216 15.1611L62.4672 15.0899L62.4849 15.2535C62.5275 15.6802 62.3216 16.0962 61.9664 16.3202C62.5027 17.3975 62.5559 18.6313 62.1156 19.7513C63.5964 19.794 64.3102 20.4233 64.9849 21.4865C65.3542 21.2838 65.8016 21.2802 66.178 21.4865L66.3307 21.5682L66.1922 21.6749C65.7448 22.0198 65.5886 22.6243 65.7981 23.1434C66.3343 23.0225 66.6432 22.6029 66.7391 21.8562L66.7533 21.7354L66.8741 21.7602C67.2718 21.842 67.5914 22.1336 67.7121 22.5176C67.911 22.4749 68.1134 22.4536 68.3158 22.4536Z" fill="#860142"/>
<path fill-rule="evenodd" clip-rule="evenodd" d="M74.4272 16.0679C75.7376 15.2715 73.8129 13.0563 74.3562 12.2563C73.4507 12.4768 72.2255 9.73185 70.9329 10.635C70.6062 9.13806 68.0424 10.411 67.46 9.6394C67.3783 10.5674 64.4025 10.7061 64.8393 12.2243C63.259 12.1105 63.5715 15.0688 62.6802 15.3284C63.5573 15.7373 62.8791 18.5284 64.4096 18.5284C63.7846 19.9293 66.6042 20.4306 66.6148 21.3978C67.2327 20.6866 69.7007 22.3222 70.2547 20.8324C71.4336 21.8991 72.9286 19.3 73.8058 19.6342C73.3654 18.7737 75.6346 17.0244 74.4343 16.0786L74.4272 16.0679Z" fill="white"/>
<path d="M66.5047 21.6963L66.5012 21.3977C66.4976 21.0528 66.0182 20.7434 65.5104 20.4128C64.8002 19.9541 64.0012 19.4421 64.2498 18.6279C63.4117 18.5212 63.2626 17.579 63.1312 16.7398C63.0353 16.1389 62.9465 15.5736 62.634 15.4243L62.3606 15.2963L62.6518 15.2109C62.9607 15.122 63.1205 14.5674 63.2839 13.9807C63.5183 13.1558 63.8023 12.1425 64.7008 12.0998C64.5552 11.2216 65.4927 10.7878 66.2561 10.4358C66.803 10.1833 67.3215 9.94153 67.3499 9.62153L67.3747 9.32642L67.5523 9.56109C67.7618 9.83842 68.33 9.80287 68.9337 9.76376C69.7753 9.71042 70.7234 9.64998 71.0039 10.45C71.7852 10.034 72.5132 10.7451 73.1559 11.3744C73.5962 11.8047 74.0153 12.2136 74.3313 12.1353L74.6189 12.0642L74.452 12.3096C74.2567 12.5976 74.452 13.1558 74.6616 13.7496C74.9563 14.5923 75.2901 15.538 74.6118 16.0714C75.2297 16.6723 74.7539 17.5043 74.3349 18.2439C74.0366 18.7701 73.7525 19.2643 73.9123 19.5737L74.0472 19.8368L73.7702 19.7301C73.4648 19.6128 73.0103 19.9719 72.5274 20.3488C71.8562 20.875 71.0323 21.5221 70.3044 21.003C69.8996 21.7959 68.891 21.5968 68.0743 21.4368C67.4813 21.3194 66.9237 21.2128 66.7071 21.4617L66.5047 21.6963ZM67.1652 21.0954C67.4458 21.0954 67.7725 21.1594 68.1098 21.227C68.9692 21.3941 69.8569 21.5683 70.1481 20.7932L70.2049 20.6368L70.3292 20.7506C70.9436 21.3088 71.6751 20.7363 72.3818 20.1817C72.8328 19.8297 73.2624 19.4812 73.6424 19.4919C73.5856 19.1043 73.8519 18.635 74.1324 18.1407C74.5479 17.4118 74.9776 16.6545 74.3633 16.1709L74.3384 16.1461L74.2709 16.0465L74.3668 15.9718C75.0486 15.5558 74.7432 14.6811 74.4449 13.8349C74.2496 13.2838 74.065 12.7576 74.1751 12.3771C73.7986 12.3309 73.408 11.9469 72.9961 11.5451C72.3463 10.9087 71.6751 10.2544 70.9968 10.7273L70.8583 10.8233L70.8228 10.6562C70.6559 9.88464 69.7859 9.94153 68.9479 9.99487C68.3797 10.0304 67.8399 10.066 67.5203 9.84553C67.357 10.1833 66.8669 10.4109 66.352 10.6491C65.553 11.0189 64.7256 11.3993 64.9529 12.1887L64.9991 12.3451L64.8357 12.3345C64.0083 12.2776 63.7491 13.1736 63.504 14.0483C63.3513 14.5958 63.2022 15.1149 62.9039 15.3425C63.188 15.6127 63.2732 16.1496 63.3585 16.7114C63.4898 17.5505 63.6248 18.4145 64.4131 18.4145H64.5871L64.5161 18.5745C64.193 19.2963 64.928 19.7692 65.6347 20.2243C66.1105 20.5301 66.5651 20.8252 66.6929 21.1914C66.8243 21.1203 66.9841 21.0954 67.1652 21.0954Z" fill="#860142"/>
<path fill-rule="evenodd" clip-rule="evenodd" d="M73.742 4.85345C73.2484 5.08457 73.0317 5.72813 72.8435 6.20814C73.0992 6.37525 73.4117 6.42503 73.7064 6.34681C73.8378 6.30414 73.9586 6.23303 74.0615 6.14058C74.4664 5.78502 74.5019 5.05612 74.9706 5.18412C74.5338 4.82857 74.1468 4.70412 73.8059 4.82857L73.7491 4.8499L73.742 4.85345Z" fill="#FBA407"/>
<path d="M73.4294 6.4961C73.2021 6.4961 72.9748 6.42854 72.7831 6.3041L72.705 6.25432L72.7795 6.05876C72.9642 5.58231 73.195 4.98853 73.6922 4.75386L73.7667 4.72541C74.1396 4.58674 74.5693 4.71475 75.0416 5.09875L75.4606 5.44009L74.9421 5.29786C74.761 5.24809 74.6794 5.37253 74.516 5.68187C74.4201 5.86676 74.31 6.07654 74.136 6.22943C74.0224 6.33254 73.8875 6.41077 73.7419 6.45699C73.6389 6.48188 73.5324 6.4961 73.4294 6.4961ZM72.9855 6.15832C73.1986 6.26854 73.4436 6.30054 73.678 6.23654C73.788 6.20099 73.8946 6.14054 73.9869 6.05521C74.1325 5.9272 74.2248 5.74587 74.3171 5.57164C74.413 5.39031 74.5125 5.19475 74.6723 5.10231C74.3598 4.89964 74.0863 4.84275 73.8449 4.93164L73.788 4.95297H73.7916C73.3761 5.14853 73.163 5.69609 72.9926 6.13698L72.9855 6.15832Z" fill="#860142"/>
<path fill-rule="evenodd" clip-rule="evenodd" d="M72.8185 6.20103C72.6623 6.18681 72.5096 6.14059 72.3746 6.06236C72.2503 5.99125 72.1403 5.89169 72.055 5.77436C71.9805 5.66058 71.9308 5.53258 71.9094 5.39747C71.8171 4.85701 72.2326 4.2739 71.7852 4.08545C72.364 4.08545 72.7475 4.22412 72.9286 4.54768L72.9499 4.57968C73.2056 5.06679 72.989 5.71391 72.8185 6.20103Z" fill="#FBA407"/>
<path d="M72.8967 6.32191L72.8079 6.3148C72.6339 6.30058 72.4706 6.24725 72.3179 6.16191C72.1758 6.08013 72.0586 5.97347 71.9628 5.84191C71.874 5.71035 71.8207 5.56813 71.7959 5.41524C71.7568 5.18768 71.7994 4.95656 71.8385 4.7539C71.9059 4.40189 71.913 4.26322 71.739 4.19211L71.2206 3.97522H71.7817C72.4208 3.97522 72.8292 4.14589 73.0245 4.49434L73.0423 4.51923C73.3335 5.07034 73.0884 5.77435 72.9251 6.24014L72.8967 6.32191ZM72.0728 4.20989C72.1403 4.38056 72.1012 4.59389 72.0622 4.79301C72.0267 4.98501 71.9876 5.18412 72.0196 5.37612C72.0373 5.49702 72.0799 5.60724 72.1474 5.71035C72.222 5.80991 72.3143 5.8988 72.428 5.9628C72.5238 6.01613 72.6304 6.05524 72.7369 6.07658C72.886 5.64991 73.0671 5.05612 72.8434 4.63301L72.8292 4.61167C72.7049 4.377 72.4599 4.249 72.0728 4.20989Z" fill="#860142"/>
<path fill-rule="evenodd" clip-rule="evenodd" d="M72.9855 5.68919C73.0388 5.50785 73.0636 5.3194 73.0672 5.13096C73.0814 4.91051 73.0317 4.69006 72.9216 4.49806L72.9003 4.44117C72.7902 4.08561 73.0992 3.66961 73.8094 3.23938C74.1609 3.97183 74.2 4.46606 73.923 4.72206L73.8875 4.75406C73.4862 5.0314 73.1702 5.41541 72.9784 5.86341C72.7227 6.42164 72.8932 6.02341 72.9784 5.68919H72.9855Z" fill="#FBA407"/>
<path d="M72.8612 6.26162C72.8434 6.26162 72.8257 6.25451 72.8008 6.2474C72.6978 6.20829 72.7262 6.1194 72.7689 5.98784C72.7973 5.89895 72.8363 5.7745 72.8683 5.66072L72.8967 5.57539C72.9322 5.42961 72.95 5.28028 72.9535 5.13094C72.9677 4.92472 72.9216 4.72916 72.8221 4.55493L72.7937 4.48027C72.7014 4.18515 72.7973 3.71937 73.749 3.13981L73.8555 3.07581L73.9088 3.18958C74.2887 3.97893 74.3171 4.50871 73.9975 4.80383L73.962 4.83583C73.5643 5.10961 73.266 5.47583 73.0813 5.90606C72.9535 6.18695 72.9215 6.26162 72.8612 6.26162ZM73.7596 3.40292C73.1879 3.76915 72.9215 4.12471 73.0068 4.4056L73.0245 4.45538C73.1382 4.65094 73.1914 4.89272 73.1772 5.1345C73.1772 5.18427 73.1737 5.23761 73.1701 5.28739C73.3477 5.04205 73.5679 4.82871 73.82 4.65449L73.8448 4.63316C74.0686 4.43404 74.0401 4.01804 73.7596 3.40292Z" fill="#860142"/>
<path fill-rule="evenodd" clip-rule="evenodd" d="M77.5415 8.17789C77.8256 8.53345 78.3263 8.73967 78.2766 9.26946C78.2588 9.43301 78.1914 9.58591 78.0777 9.70324L78.0138 9.76369C77.925 9.84902 77.8718 9.82413 77.7652 9.76369C77.7368 9.74946 77.7084 9.73168 77.68 9.71035C77.5912 9.64279 77.5202 9.55746 77.4669 9.46146C77.2006 8.98501 77.5025 8.64367 77.5415 8.17078V8.17789Z" fill="#F0A633"/>
<path d="M77.9073 9.93073C77.8327 9.93073 77.7688 9.89517 77.7084 9.85961C77.6764 9.84539 77.6445 9.82406 77.609 9.79917C77.506 9.72095 77.4243 9.62494 77.3639 9.51472C77.1615 9.15561 77.2503 8.86049 77.3355 8.57249C77.3746 8.44093 77.4137 8.30226 77.4279 8.16004L77.5557 8.16359L77.6303 8.10315C77.7084 8.19915 77.8043 8.28804 77.9073 8.37693C78.1523 8.59738 78.4293 8.84627 78.3902 9.2765C78.3724 9.46494 78.2908 9.64272 78.1594 9.77784L78.0919 9.84184C78.0244 9.90939 77.9641 9.93073 77.9073 9.93073ZM77.6161 8.4196C77.5983 8.49426 77.577 8.56538 77.5557 8.63649C77.474 8.91027 77.4101 9.12716 77.5663 9.4045C77.6125 9.48983 77.6729 9.56094 77.751 9.61783C77.7723 9.63206 77.7936 9.64628 77.8185 9.6605C77.8469 9.67472 77.893 9.70317 77.9073 9.70317C77.9073 9.70317 77.9179 9.69961 77.9357 9.67828L77.9996 9.61783C78.0884 9.52183 78.1487 9.39028 78.1629 9.25516C78.1913 8.93871 77.9889 8.75738 77.7546 8.5476C77.7084 8.50849 77.6622 8.46582 77.6161 8.4196Z" fill="#860142"/>
<path fill-rule="evenodd" clip-rule="evenodd" d="M80.0308 8.59734C79.9491 9.25513 79.5691 10.272 78.1771 9.74225C78.6458 8.52623 79.1039 8.55823 80.0308 8.59734Z" fill="#F0A633"/>
<path d="M78.8802 10.0018C78.6565 10.0018 78.4079 9.94851 78.138 9.8454L78.0315 9.80629L78.0741 9.69962C78.5677 8.4196 79.0791 8.44094 80.0094 8.48005L80.1337 8.4836L80.1479 8.60805C80.1053 8.94583 79.9633 9.55384 79.4839 9.84184C79.3063 9.94851 79.1075 10.0018 78.8802 10.0018ZM78.3262 9.67473C78.7524 9.81695 79.1004 9.80984 79.3631 9.64984C79.7112 9.44006 79.8461 9.00628 79.8994 8.70405C79.0933 8.67205 78.7275 8.69338 78.3262 9.67473Z" fill="#860142"/>
<path fill-rule="evenodd" clip-rule="evenodd" d="M79.2105 11.1789C79.0649 10.7416 79.1715 10.2154 78.6992 9.96647C78.5536 9.8918 78.3902 9.86691 78.2304 9.89536H78.1452C78.028 9.9238 78.0174 9.98069 78.0032 10.098C77.9996 10.1336 77.9996 10.1656 78.0032 10.2011C78.0138 10.3114 78.0458 10.418 78.0955 10.5176C78.3476 11.0011 78.8057 10.9336 79.2141 11.1611L79.2105 11.1789Z" fill="#F0A633"/>
<path d="M79.2389 11.5913L79.1111 11.2322C78.9974 11.1753 78.8803 11.1397 78.7631 11.1077C78.479 11.0224 78.1842 10.9335 77.996 10.5708C77.9392 10.4571 77.9037 10.3362 77.893 10.2117C77.8895 10.1691 77.8895 10.1264 77.893 10.0873C77.9072 9.97351 77.925 9.83484 78.1203 9.78506L78.2339 9.7815C78.3973 9.7495 78.5891 9.77795 78.756 9.86684C79.1395 10.0695 79.1928 10.4357 79.2425 10.7557C79.2602 10.8624 79.2744 10.9762 79.3028 11.0793L79.3455 11.1042L79.2389 11.5913ZM78.3582 9.99484C78.3227 9.99484 78.2837 9.9984 78.2482 10.0055H78.1416C78.1239 10.0126 78.1239 10.0126 78.1132 10.1086C78.1097 10.1335 78.1097 10.1584 78.1132 10.1868C78.1239 10.2828 78.1487 10.3753 78.1949 10.4642C78.3405 10.7415 78.5535 10.8055 78.827 10.8873C78.898 10.9086 78.969 10.93 79.0401 10.9549C79.0294 10.898 79.0223 10.8411 79.0116 10.7842C78.9655 10.4748 78.9264 10.2082 78.6459 10.0624C78.5571 10.0197 78.4577 9.99484 78.3582 9.99484Z" fill="#860142"/>
<path fill-rule="evenodd" clip-rule="evenodd" d="M80.7871 16.8536C80.4746 16.402 79.8034 16.2882 79.2992 16.2029C79.2352 16.3451 79.2068 16.5016 79.2104 16.658C79.2139 16.8038 79.2494 16.946 79.3134 17.074C79.3737 17.1984 79.459 17.3087 79.5655 17.3976C79.9952 17.7531 80.7089 17.6429 80.6628 18.1265C80.9433 17.6322 80.993 17.2304 80.8084 16.9176L80.7871 16.8536Z" fill="#F0A633"/>
<path d="M80.4995 18.642L80.5492 18.1122C80.567 17.9309 80.4427 17.874 80.116 17.7744C79.9136 17.7104 79.6792 17.6393 79.491 17.4829C79.3738 17.3869 79.2744 17.2589 79.2105 17.1202C79.1394 16.978 79.1004 16.818 79.0968 16.658C79.0933 16.4873 79.1252 16.3131 79.1963 16.1531L79.2318 16.0713L79.3205 16.0855C79.8354 16.1744 80.5421 16.2917 80.883 16.7824L80.8972 16.8109L80.9185 16.8749C81.1138 17.202 81.0641 17.6464 80.7658 18.1762L80.4995 18.642ZM79.3703 16.3273C79.3347 16.4304 79.3205 16.5406 79.3241 16.6509C79.3276 16.7789 79.3596 16.9033 79.4164 17.0206C79.4697 17.1309 79.5443 17.2304 79.6401 17.3051C79.7964 17.4331 79.9952 17.4971 80.187 17.5575C80.3752 17.6144 80.5776 17.6784 80.6913 17.8171C80.8368 17.4758 80.8439 17.1984 80.7126 16.9744L80.6877 16.9069C80.4143 16.5264 79.8319 16.4091 79.3703 16.3273Z" fill="#860142"/>
<path fill-rule="evenodd" clip-rule="evenodd" d="M79.3029 16.1851C79.2887 16.0287 79.31 15.8723 79.3632 15.7229C79.413 15.5878 79.4911 15.4669 79.5905 15.3674C79.6935 15.2714 79.8142 15.2002 79.9456 15.154C80.4605 14.9691 81.1104 15.2785 81.2169 14.7985C81.3305 15.3674 81.2453 15.7691 80.9612 16.0074L80.9293 16.0323C80.4925 16.3594 79.8213 16.2598 79.3135 16.1851H79.3029Z" fill="#F0A633"/>
<path d="M80.0842 16.37C79.8107 16.37 79.5337 16.3309 79.2994 16.2954H79.1964L79.1893 16.1923C79.1751 16.018 79.1964 15.8438 79.2568 15.6803C79.3136 15.5309 79.3988 15.3958 79.5089 15.282C79.6261 15.1718 79.761 15.0936 79.9066 15.0402C80.1232 14.962 80.354 14.9656 80.5636 14.9656C80.9187 14.9691 81.0643 14.9549 81.1033 14.7665L81.2205 14.2402L81.327 14.77C81.4478 15.378 81.3484 15.8225 81.0323 16.0891L80.9968 16.1176C80.7411 16.3131 80.4144 16.37 80.0842 16.37ZM79.413 16.0856C79.896 16.1531 80.489 16.2207 80.8619 15.9398L80.8903 15.9149C81.0927 15.7443 81.1779 15.4776 81.1459 15.1007C80.9897 15.2038 80.7695 15.2002 80.56 15.1967C80.3647 15.1931 80.1623 15.1931 79.9812 15.2571C79.8604 15.2998 79.7575 15.3602 79.6651 15.4456C79.5799 15.5309 79.5124 15.6376 79.4663 15.7585C79.4308 15.8616 79.413 15.9754 79.413 16.0856Z" fill="#860142"/>
<path fill-rule="evenodd" clip-rule="evenodd" d="M80.3929 16.235C80.6131 16.2101 80.8191 16.1177 80.986 15.9755L81.0392 15.947C81.3943 15.7764 81.8347 16.0075 82.378 16.6332C81.721 17.1061 81.2416 17.227 80.9398 16.9888L80.9043 16.9604C80.6522 16.6937 80.3397 16.491 79.9917 16.3666C78.9477 15.9648 79.4768 16.3666 80.3894 16.2172L80.3929 16.235Z" fill="#F0A633"/>
<path d="M81.2985 17.2199C81.1352 17.2199 80.9896 17.1701 80.8688 17.0741L80.8333 17.0457C80.5812 16.7825 80.2829 16.587 79.9527 16.4697C79.7858 16.4057 79.6579 16.363 79.5727 16.3345C79.4378 16.3132 79.3419 16.2777 79.317 16.235L79.278 16.1639L79.3312 16.1034C79.3632 16.0679 79.388 16.0359 79.626 16.1105C79.7858 16.1354 80.0556 16.1532 80.3681 16.0999L80.4782 16.0821L80.4818 16.0999C80.6416 16.0643 80.7872 15.9896 80.9115 15.883L80.986 15.8403C81.3944 15.6412 81.8773 15.8759 82.4633 16.5514L82.5449 16.6474L82.442 16.7185C81.9839 17.0563 81.6039 17.2199 81.2985 17.2199ZM80.251 16.3488C80.5244 16.4768 80.7765 16.6581 80.986 16.8821L81.0109 16.8999C81.2488 17.0883 81.6536 16.9923 82.2076 16.6119C81.7424 16.1034 81.366 15.915 81.089 16.0465L81.0393 16.0714C80.8759 16.2172 80.6487 16.3132 80.4072 16.3452L80.3007 16.3594L80.2971 16.3452C80.2829 16.3452 80.2652 16.3452 80.251 16.3488Z" fill="#860142"/>
<path fill-rule="evenodd" clip-rule="evenodd" d="M71.398 27.3532C71.6821 26.8875 71.5152 26.2261 71.398 25.7283C71.0962 25.7248 70.8085 25.8563 70.6097 26.0839C70.528 26.1906 70.4676 26.3115 70.4321 26.4395C70.3007 26.9692 70.67 27.5844 70.2119 27.7373C70.773 27.7977 71.1636 27.6804 71.3732 27.3817L71.4087 27.3284L71.398 27.3532Z" fill="#FBA407"/>
<path d="M70.663 28.7754L71.1068 27.7443C70.8725 27.8545 70.5706 27.8865 70.2013 27.8474L69.6829 27.7905L70.1765 27.627C70.354 27.5665 70.354 27.4279 70.315 27.0723C70.2936 26.8661 70.2652 26.635 70.3221 26.411C70.3611 26.2652 70.4286 26.1301 70.5209 26.0127C70.7411 25.7567 71.0536 25.6145 71.3874 25.6145C71.3909 25.6145 71.3945 25.6145 71.4016 25.6145H71.4904L71.5188 25.7425C71.5862 26.0341 71.6715 26.3896 71.6679 26.731L72.0159 26.2047L71.6111 27.1434C71.5827 27.2359 71.5472 27.3283 71.4939 27.4136L70.663 28.7754ZM71.3093 25.8421C71.0713 25.8634 70.8512 25.9736 70.6949 26.155C70.6239 26.2438 70.5706 26.3505 70.5422 26.4643C70.4961 26.6492 70.5174 26.8483 70.5422 27.0439C70.5635 27.2465 70.5884 27.4705 70.5067 27.6341C70.876 27.6305 71.1353 27.5239 71.2844 27.3105L71.3377 27.2323C71.533 26.8412 71.4158 26.2972 71.3093 25.8421Z" fill="#860142"/>
<path fill-rule="evenodd" clip-rule="evenodd" d="M71.3981 25.7142C71.5331 25.6467 71.6787 25.6076 71.8278 25.6005C71.9699 25.5898 72.1155 25.6111 72.2504 25.6609C72.3782 25.7142 72.4919 25.7925 72.5842 25.892C72.9606 26.2902 72.9393 27.0085 73.4187 26.916C72.9464 27.2503 72.5416 27.3356 72.2078 27.1685H72.1758C71.7 26.9018 71.5189 26.244 71.3839 25.7462L71.3981 25.7142Z" fill="#FBA407"/>
<path d="M72.5629 27.3639C72.4279 27.3639 72.3001 27.3355 72.1829 27.2822H72.1474L72.1225 27.2679C71.6005 26.9764 71.4123 26.283 71.2774 25.7746L71.2667 25.7355L71.3129 25.6288L71.3484 25.611C71.4975 25.5364 71.6573 25.4937 71.8242 25.4866C71.9805 25.4724 72.1438 25.4973 72.293 25.5541C72.4386 25.6146 72.5664 25.7035 72.6694 25.8137C72.8292 25.9808 72.9215 26.1977 72.9997 26.3862C73.1417 26.7168 73.2092 26.8413 73.3974 26.8022L73.9158 26.7026L73.4862 27.0084C73.1488 27.2431 72.8399 27.3639 72.5629 27.3639ZM72.2078 27.0511L72.261 27.0617C72.4954 27.1791 72.783 27.1471 73.1168 26.9693C72.9606 26.8662 72.8754 26.6635 72.7937 26.4715C72.7156 26.2902 72.6374 26.1053 72.506 25.963C72.4208 25.8742 72.3249 25.8066 72.2113 25.7604C72.0941 25.7177 71.9663 25.6999 71.842 25.707C71.7284 25.7141 71.6218 25.7355 71.5188 25.7781C71.636 26.2333 71.8065 26.8093 72.2078 27.0511Z" fill="#860142"/>
<path fill-rule="evenodd" clip-rule="evenodd" d="M71.565 26.2867C71.6219 26.4432 71.6929 26.5925 71.7817 26.7347C71.8953 26.9267 72.0622 27.0796 72.2611 27.1792L72.3072 27.2112C72.6055 27.4601 72.5735 27.965 72.222 28.7187C71.5118 28.3063 71.2135 27.9187 71.3023 27.5525V27.5027C71.4159 27.2432 71.4763 26.9658 71.4798 26.6814C71.5011 26.0272 71.1815 25.2591 71.5544 26.2867H71.565Z" fill="#FBA407"/>
<path d="M72.2717 28.8787L72.1652 28.8147C71.4052 28.3738 71.0892 27.9507 71.1922 27.524L71.1886 27.4778L71.1993 27.4564C71.3058 27.2111 71.3626 26.948 71.3662 26.6777C71.3768 26.3613 71.3058 26.02 71.2738 25.8742C71.2596 25.8031 71.2383 25.7035 71.3413 25.6751C71.4443 25.6466 71.4691 25.7106 71.5331 25.8884C71.5579 25.956 71.5899 26.0484 71.636 26.1729L71.6751 26.2475C71.7284 26.3969 71.7958 26.5391 71.8811 26.6742C71.9876 26.8484 72.1367 26.9871 72.3143 27.076L72.3747 27.1151C72.7262 27.4102 72.7085 27.9471 72.3285 28.7649L72.2717 28.8787ZM71.4159 27.524V27.5489C71.3413 27.8689 71.597 28.1995 72.1723 28.5515C72.4492 27.9151 72.4706 27.492 72.2362 27.2929L72.1971 27.268C71.9912 27.1649 71.81 26.9978 71.6858 26.788C71.6538 26.7382 71.6254 26.6849 71.597 26.6315C71.597 26.6457 71.597 26.6635 71.597 26.6777C71.5899 26.9729 71.5295 27.2573 71.4159 27.524Z" fill="#860142"/>
<path fill-rule="evenodd" clip-rule="evenodd" d="M58.5326 21.1379C59.0582 21.2908 59.6512 20.9601 60.0986 20.7112C60.0596 20.5584 59.985 20.4161 59.882 20.2988C59.7861 20.1886 59.6618 20.0997 59.5269 20.0392C59.4026 19.9859 59.2641 19.961 59.1292 19.9646C58.5823 19.9646 58.0851 20.4908 57.8188 20.0855C57.9076 20.6472 58.1207 20.9921 58.4616 21.1201H58.5184L58.5326 21.1379Z" fill="#FBA407"/>
<path d="M58.8131 21.2873C58.7066 21.2873 58.6036 21.273 58.5006 21.2446L58.4225 21.2233C58.0426 21.081 57.8046 20.7042 57.7087 20.0997L57.6271 19.577L57.9183 20.0179C58.0212 20.1708 58.1526 20.1388 58.4793 20.0108C58.6746 19.9326 58.8948 19.8473 59.1327 19.8473C59.289 19.8437 59.4346 19.8721 59.5766 19.9326C59.7293 19.9966 59.8643 20.0997 59.9743 20.2206C60.088 20.3521 60.1732 20.5121 60.2158 20.6793L60.2371 20.7646L60.159 20.8073C59.779 21.017 59.2925 21.2873 58.8131 21.2873ZM58.5965 21.0348C59.0404 21.1415 59.5589 20.8748 59.9601 20.6544C59.9211 20.5513 59.8643 20.4553 59.7932 20.3699C59.708 20.2704 59.5979 20.1921 59.4807 20.1388C59.3707 20.0926 59.2499 20.0713 59.1327 20.0748C58.9339 20.0748 58.7457 20.1495 58.5575 20.2241C58.3693 20.2988 58.1668 20.377 57.9893 20.3415C58.0852 20.6899 58.2485 20.9104 58.4829 21.0064H58.5717L58.5965 21.0348Z" fill="#860142"/>
<path fill-rule="evenodd" clip-rule="evenodd" d="M60.1021 20.729C60.2158 20.8392 60.2974 20.9744 60.3471 21.1237C60.3933 21.2624 60.4111 21.4046 60.3969 21.5504C60.3791 21.6855 60.3329 21.817 60.2584 21.9308C59.9743 22.3966 59.2747 22.5637 59.4878 22.9975C59.0439 22.6419 58.8557 22.2615 58.9303 21.8953V21.8561C59.0617 21.3264 59.6405 20.9815 60.0915 20.7255L60.1021 20.729Z" fill="#FBA407"/>
<path d="M59.8145 23.4029L59.4168 23.0829C58.8166 22.6029 58.7598 22.1584 58.8202 21.8704L58.8166 21.8527C58.9551 21.2767 59.4949 20.9282 60.0347 20.6224L60.0773 20.5975L60.1803 20.6438C60.3045 20.7646 60.4004 20.9175 60.4537 21.0847C60.507 21.2375 60.5247 21.3975 60.507 21.5575C60.4892 21.7104 60.4324 21.8598 60.3507 21.9878C60.23 22.1833 60.0453 22.3291 59.8855 22.4571C59.605 22.6776 59.5055 22.7771 59.5872 22.9442L59.8145 23.4029ZM60.0737 20.8642C59.6014 21.1344 59.1504 21.4402 59.0404 21.8811L59.0439 21.8918C58.98 22.2189 59.1469 22.5033 59.3529 22.7167C59.4097 22.5424 59.5872 22.4038 59.747 22.2758C59.9033 22.1549 60.0631 22.0269 60.1625 21.8633C60.23 21.7602 60.269 21.6464 60.2868 21.5291C60.2974 21.4047 60.2832 21.2767 60.2406 21.1522C60.2051 21.0491 60.1483 20.9495 60.0737 20.8642Z" fill="#860142"/>
<path fill-rule="evenodd" clip-rule="evenodd" d="M59.225 21.3727C59.0865 21.5434 58.9835 21.7389 58.9196 21.9487L58.8983 22.0021C58.7349 22.3576 58.2413 22.4536 57.4246 22.3078C57.6377 21.5256 57.9359 21.1274 58.3124 21.1167H58.3621C58.6852 21.1629 59.019 21.1381 59.3315 21.042C60.6064 20.6865 59.747 20.6509 59.225 21.3727Z" fill="#FBA407"/>
<path d="M58.0674 22.4856C57.8756 22.4856 57.6555 22.4643 57.4033 22.4181L57.2826 22.3967L57.3146 22.2758C57.5418 21.4403 57.8756 21.0136 58.3089 20.9994H58.3621C58.6853 21.0421 59.0013 21.0207 59.2996 20.9283C59.4417 20.8892 59.5553 20.8536 59.6441 20.8216C59.8181 20.7114 59.9672 20.6616 60.0311 20.6829L60.1093 20.7114V20.7967C60.1093 20.8501 60.1057 20.9069 59.7435 21.0314C59.6121 21.1167 59.4523 21.2447 59.3174 21.4332L59.3138 21.4367C59.186 21.5967 59.0901 21.7781 59.0297 21.9736L59.0049 22.0341C58.8664 22.3398 58.561 22.4856 58.0674 22.4856ZM57.5702 22.2154C58.2556 22.3221 58.6675 22.2332 58.7954 21.9523L58.8131 21.9061C58.877 21.6892 58.9871 21.4865 59.1327 21.3016C59.1611 21.2625 59.1931 21.2234 59.225 21.1878C58.941 21.2554 58.6356 21.2696 58.3444 21.2269H58.3124C57.9466 21.2376 57.7123 21.7461 57.5702 22.2154Z" fill="#860142"/>
<path fill-rule="evenodd" clip-rule="evenodd" d="M60.6027 7.38497C60.6276 7.92898 61.1318 8.38765 61.5118 8.72899C61.6467 8.6401 61.7568 8.51566 61.8314 8.37343C61.906 8.24899 61.9521 8.11032 61.9663 7.96809C61.9805 7.83298 61.9592 7.69431 61.9095 7.56631C61.7249 7.05075 61.075 6.74497 61.3733 6.36096C60.8726 6.62763 60.6169 6.94052 60.6027 7.3032V7.38497Z" fill="#FBA407"/>
<path d="M61.5012 8.87127L61.4337 8.81083C61.0467 8.46238 60.514 7.98593 60.4856 7.38859V7.30326C60.4998 6.89436 60.7803 6.54591 61.3165 6.26147L61.7853 6.01257L61.4586 6.43213C61.3414 6.58147 61.4195 6.6988 61.6503 6.97258C61.7817 7.12903 61.9344 7.31037 62.0126 7.52726C62.0694 7.66593 62.0907 7.82593 62.0765 7.97882C62.0587 8.13882 62.009 8.29527 61.9273 8.43038C61.8457 8.58327 61.7214 8.72194 61.5722 8.82149L61.5012 8.87127ZM60.7164 7.38148C60.7377 7.85082 61.171 8.26682 61.519 8.57971C61.6042 8.5086 61.6788 8.41971 61.732 8.3166C61.7995 8.20282 61.8421 8.07838 61.8528 7.95393C61.8634 7.83659 61.8457 7.7157 61.803 7.60548C61.7356 7.42059 61.6077 7.26414 61.4799 7.11481C61.3485 6.95836 61.2065 6.78769 61.1852 6.6028C60.8798 6.81258 60.7271 7.0437 60.7164 7.30326V7.38148Z" fill="#860142"/>
<path fill-rule="evenodd" clip-rule="evenodd" d="M61.4977 8.7431C61.4267 8.88177 61.3273 9.00266 61.203 9.09866C61.0893 9.18755 60.9579 9.25155 60.8159 9.28355C60.6845 9.31555 60.5425 9.31555 60.4111 9.28355C59.8784 9.16266 59.4949 8.57243 59.154 8.89599C59.3564 8.35198 59.644 8.06043 60.0134 8.01065H60.0524C60.5957 7.96798 61.1177 8.41599 61.4977 8.75021V8.7431Z" fill="#FBA407"/>
<path d="M60.6134 9.41867C60.5353 9.41867 60.4607 9.40801 60.3826 9.39023C60.1589 9.34045 59.96 9.21245 59.786 9.10223C59.4913 8.91378 59.3599 8.84978 59.2285 8.97422L58.8734 9.31201L59.0439 8.85333C59.2605 8.27377 59.5801 7.95021 59.9956 7.89332H60.0488C60.585 7.85065 61.0928 8.24533 61.4551 8.56177L61.6042 8.26666V8.99556L61.5154 8.91733C61.448 9.01689 61.3627 9.10934 61.2668 9.184C61.1426 9.28356 60.9934 9.35467 60.8372 9.39023C60.7661 9.41156 60.6916 9.41867 60.6134 9.41867ZM59.3706 8.68622C59.5552 8.68622 59.7399 8.80355 59.9103 8.91378C60.0772 9.02045 60.2477 9.12712 60.4359 9.17334C60.5531 9.20178 60.6738 9.20178 60.7874 9.17334C60.9117 9.14489 61.0325 9.088 61.1319 9.00978C61.2171 8.94222 61.2917 8.864 61.3485 8.77155C61.0112 8.47644 60.5353 8.08888 60.0595 8.12444H60.0098C59.7505 8.15999 59.5375 8.34488 59.3635 8.68622C59.3706 8.68622 59.3706 8.68622 59.3706 8.68622Z" fill="#860142"/>
<path fill-rule="evenodd" clip-rule="evenodd" d="M61.1 8.4126C60.9509 8.29171 60.784 8.19216 60.6064 8.11393C60.4076 8.01793 60.1839 7.98238 59.9637 8.01082H59.9069C59.5198 7.97171 59.2677 7.53437 59.1398 6.71303C59.9495 6.66325 60.4218 6.81614 60.5603 7.1717C60.5638 7.18592 60.5638 7.2037 60.5603 7.21792C60.6632 7.68726 60.8941 8.12104 61.2279 8.46594C61.6398 8.91039 61.4019 8.65794 61.0929 8.41616L61.1 8.4126Z" fill="#FBA407"/>
<path d="M61.4551 8.82504C61.4054 8.82504 61.3521 8.78238 61.2918 8.72549C61.2278 8.6686 61.1284 8.58682 61.0254 8.50148L60.8869 8.39126H60.8905C60.7875 8.3237 60.6774 8.26326 60.5638 8.21348C60.3791 8.12459 60.1803 8.09259 59.9814 8.11748H59.9104C59.4523 8.07126 59.1718 7.61614 59.0297 6.72368L59.012 6.59924L59.1363 6.59213C60.0098 6.53879 60.5105 6.71302 60.6703 7.12191C60.6774 7.15391 60.681 7.18236 60.681 7.20369C60.7804 7.64458 61.0006 8.04992 61.3166 8.37704C61.6149 8.69704 61.6149 8.69704 61.5368 8.77882C61.5048 8.81438 61.48 8.82504 61.4551 8.82504ZM60.1163 7.88636C60.2975 7.88636 60.4857 7.92903 60.6561 8.01081C60.6987 8.02859 60.7413 8.04992 60.7804 8.07126C60.6277 7.81525 60.5141 7.53792 60.4501 7.2428L60.443 7.21791L60.4501 7.19302C60.3436 6.92635 59.9459 6.79835 59.2747 6.81969C59.399 7.50236 59.6156 7.86503 59.921 7.89703H59.9672C60.0134 7.88992 60.0666 7.88636 60.1163 7.88636Z" fill="#860142"/>
<path fill-rule="evenodd" clip-rule="evenodd" d="M78.7986 21.5577C78.5394 21.9346 78.4968 22.4715 77.9748 22.5818C77.815 22.6102 77.6481 22.5889 77.5025 22.5178L77.4244 22.4786C77.3178 22.4182 77.3249 22.3577 77.3462 22.2404C77.3533 22.2084 77.3604 22.1729 77.3711 22.1409C77.4102 22.0377 77.4705 21.9417 77.5487 21.8635C77.9251 21.4724 78.337 21.6573 78.7986 21.5577Z" fill="#F0A633"/>
<path d="M77.8363 22.7061C77.7049 22.7061 77.5735 22.6777 77.4528 22.6172L77.3711 22.5781C77.1865 22.4714 77.2113 22.3328 77.2326 22.219C77.2397 22.1799 77.2504 22.1408 77.261 22.1052C77.3072 21.9808 77.3782 21.8741 77.467 21.7816C77.7511 21.4865 78.06 21.483 78.3548 21.4794C78.4897 21.4794 78.6317 21.4759 78.7738 21.4439L79.0543 21.3834L78.891 21.6181C78.8199 21.7248 78.7631 21.8492 78.7063 21.9665C78.5714 22.2617 78.4187 22.5994 77.9961 22.6883C77.9428 22.7025 77.8896 22.7061 77.8363 22.7061ZM78.5856 21.6999C78.5075 21.7034 78.4329 21.707 78.3583 21.707C78.0742 21.7105 77.8505 21.7141 77.6303 21.9417C77.5629 22.0092 77.5096 22.091 77.4776 22.1799C77.4705 22.2012 77.4634 22.2297 77.4563 22.2617C77.4386 22.3577 77.4386 22.3577 77.4776 22.379L77.5522 22.4145C77.6765 22.475 77.8185 22.4928 77.9535 22.4679C78.2589 22.4039 78.369 22.1585 78.5003 21.8741C78.5288 21.8172 78.5536 21.7568 78.5856 21.6999Z" fill="#860142"/>
<path fill-rule="evenodd" clip-rule="evenodd" d="M79.1395 24.0608C78.4897 24.1746 77.4066 24.1141 77.5025 22.6385C78.8022 22.731 78.9016 23.1754 79.1395 24.0608Z" fill="#F0A633"/>
<path d="M78.7276 24.2102C78.4151 24.2102 78.0529 24.1426 77.783 23.9008C77.4847 23.6342 77.3533 23.2039 77.3888 22.6315L77.3959 22.5177L77.5096 22.5248C78.8697 22.6208 79.0082 23.1364 79.239 23.9897L79.2816 24.1497L79.1573 24.1711C79.0437 24.1924 78.891 24.2102 78.7276 24.2102ZM77.609 22.7595C77.5984 23.2004 77.7084 23.5275 77.9322 23.7302C78.234 24.0004 78.6886 24.0039 78.9939 23.9648C78.788 23.1968 78.6637 22.8555 77.609 22.7595Z" fill="#860142"/>
<path fill-rule="evenodd" clip-rule="evenodd" d="M76.437 24.0324C76.7921 23.7693 77.3425 23.7124 77.442 23.1897C77.4704 23.0297 77.4455 22.8662 77.3709 22.7204C77.3603 22.6919 77.3461 22.6671 77.3283 22.6422C77.268 22.5355 77.2076 22.5426 77.0904 22.5639L76.991 22.5924C76.888 22.6351 76.7957 22.6991 76.7175 22.7737C76.334 23.1577 76.5258 23.5702 76.437 24.0324Z" fill="#F0A633"/>
<path d="M76.2701 24.2955L76.3234 24.0075C76.3518 23.8653 76.3483 23.7266 76.3483 23.5915C76.3447 23.2928 76.3447 22.9835 76.6359 22.6919C76.7282 22.603 76.8312 22.5355 76.9448 22.4857L77.0585 22.4537C77.1828 22.4324 77.3248 22.4039 77.4278 22.5853C77.4455 22.6066 77.4633 22.6422 77.4775 22.6777C77.5592 22.8306 77.5876 23.0262 77.5556 23.2075C77.474 23.6271 77.1437 23.7871 76.849 23.9293C76.7247 23.9897 76.6039 24.0466 76.5045 24.1213L76.2701 24.2955ZM77.1828 22.6635C77.1686 22.6635 77.1437 22.667 77.1082 22.6742L77.0194 22.699C76.9448 22.731 76.8632 22.7844 76.7922 22.8519C76.5684 23.0759 76.572 23.2999 76.572 23.5879C76.572 23.6591 76.572 23.7337 76.5684 23.8119C76.6252 23.7799 76.6856 23.7515 76.7424 23.7266C77.023 23.5915 77.2644 23.4742 77.3248 23.1684C77.3497 23.0368 77.3284 22.8946 77.2644 22.7737C77.2538 22.7453 77.2431 22.7275 77.2325 22.7097C77.2183 22.6742 77.2112 22.6635 77.1828 22.6635Z" fill="#860142"/>
<path fill-rule="evenodd" clip-rule="evenodd" d="M66.2135 26.7595C65.7803 26.6208 65.2512 26.7311 64.9991 26.2617C64.9245 26.116 64.8961 25.9524 64.9209 25.7924C64.9174 25.7639 64.9245 25.7319 64.9387 25.7071C64.9671 25.5862 65.0239 25.5755 65.1411 25.5613H65.2441C65.3542 25.5684 65.4607 25.6004 65.5601 25.6502C66.0466 25.8991 65.9863 26.3613 66.2135 26.7595Z" fill="#FBA407"/>
<path d="M66.3272 27.1933L66.1355 26.852C66.0289 26.8235 65.9082 26.8057 65.7946 26.7915C65.4714 26.7453 65.1021 26.6955 64.8997 26.3151C64.8145 26.148 64.7825 25.9595 64.8109 25.7746C64.8074 25.7533 64.8145 25.7106 64.8322 25.668C64.8819 25.4795 65.0133 25.4617 65.1269 25.4475H65.2441C65.3791 25.4582 65.4998 25.4902 65.6135 25.5506C65.9792 25.7391 66.0715 26.0342 66.1603 26.3186C66.1958 26.436 66.2349 26.5533 66.2917 26.6635L66.3308 26.6742V27.1933H66.3272ZM65.237 25.6715H65.1412C65.0595 25.6822 65.0595 25.6822 65.0488 25.7284L65.0382 25.7568V25.7711L65.0311 25.8031C65.0098 25.9382 65.0346 26.0804 65.0985 26.2013C65.2477 26.4786 65.514 26.5177 65.8265 26.5604C65.8869 26.5675 65.9508 26.5782 66.0112 26.5889C65.9863 26.5177 65.965 26.4466 65.9402 26.3791C65.8585 26.116 65.7875 25.8884 65.5069 25.7462C65.4217 25.7071 65.3329 25.6786 65.237 25.6715Z" fill="#860142"/>
<path fill-rule="evenodd" clip-rule="evenodd" d="M63.9195 27.8048C63.6212 27.2146 63.3691 26.1586 64.8179 25.8208C65.1055 27.0937 64.7114 27.3177 63.9195 27.8048Z" fill="#FBA407"/>
<path d="M63.8733 27.9648L63.8165 27.8546C63.6638 27.5524 63.4401 26.9657 63.678 26.4608C63.8485 26.0946 64.2249 25.8421 64.7895 25.7106L64.8996 25.6857L64.9245 25.7959C65.2263 27.1328 64.7931 27.3995 64.0047 27.883L63.8733 27.9648ZM64.7327 25.9594C64.2995 26.0803 64.0154 26.2795 63.8876 26.5568C63.7171 26.923 63.8449 27.3568 63.9692 27.6412C64.6546 27.2181 64.9422 26.9977 64.7327 25.9594Z" fill="#860142"/>
<path fill-rule="evenodd" clip-rule="evenodd" d="M63.1669 25.2198C63.522 25.5007 63.7351 25.9985 64.2642 25.931C64.424 25.9096 64.5767 25.8385 64.6939 25.7283L64.7542 25.6643C64.8395 25.5754 64.8146 25.5185 64.7542 25.4154C64.74 25.3834 64.7223 25.355 64.701 25.3265C64.6299 25.2412 64.5447 25.1701 64.4488 25.1167C63.9694 24.8572 63.6321 25.163 63.1633 25.2092L63.1669 25.2198Z" fill="#FBA407"/>
<path d="M64.1683 26.0483C63.799 26.0483 63.5717 25.7959 63.3657 25.5754C63.2769 25.4759 63.1917 25.3834 63.0958 25.3087L63.0674 25.2874L63.0106 25.1096L63.1527 25.0954C63.2947 25.0812 63.4296 25.0385 63.561 24.9994C63.8451 24.9105 64.1399 24.8216 64.5021 25.0172C64.6121 25.0776 64.708 25.1559 64.7897 25.2554C64.8181 25.291 64.8394 25.3301 64.8572 25.3692C64.9069 25.4545 64.985 25.5861 64.8359 25.7425L64.7755 25.8065C64.6335 25.9381 64.463 26.0199 64.2783 26.0448C64.2393 26.0483 64.2038 26.0483 64.1683 26.0483ZM63.4012 25.2803C63.4474 25.3265 63.49 25.3763 63.5326 25.4225C63.7457 25.6572 63.9268 25.8563 64.2464 25.8172C64.3849 25.7994 64.5127 25.739 64.6121 25.643L64.669 25.5825C64.6903 25.5612 64.6938 25.5505 64.6938 25.5505C64.6938 25.5363 64.6654 25.4865 64.6548 25.4687C64.637 25.4332 64.6264 25.4119 64.6086 25.3905C64.5482 25.3194 64.4772 25.2554 64.392 25.2127C64.1114 25.0599 63.8984 25.1274 63.625 25.2127C63.5539 25.2376 63.4794 25.2625 63.4012 25.2803Z" fill="#860142"/>
<path fill-rule="evenodd" clip-rule="evenodd" d="M57.6484 16.2599C57.6697 15.8047 57.4247 15.3212 57.8118 14.955C57.9325 14.8447 58.0852 14.7772 58.245 14.7594H58.3338C58.4545 14.7594 58.4829 14.8092 58.5255 14.9194C58.5397 14.9514 58.5504 14.9834 58.5539 15.019C58.5788 15.1256 58.5788 15.2394 58.5539 15.3461C58.4403 15.8794 57.9929 15.9399 57.652 16.267L57.6484 16.2599Z" fill="#FBA407"/>
<path d="M57.62 16.4519L57.5383 16.2883L57.5347 16.2492C57.5418 16.1248 57.5241 15.9897 57.5063 15.8581C57.4673 15.531 57.4176 15.1648 57.7336 14.8661C57.8756 14.7381 58.0461 14.6599 58.2308 14.6385H58.3337C58.5432 14.6385 58.593 14.7737 58.632 14.8732C58.6498 14.9088 58.6604 14.955 58.6675 15.0012C58.6959 15.1114 58.6959 15.243 58.664 15.3674C58.5788 15.7692 58.3195 15.9363 58.0674 16.0963C57.9538 16.171 57.833 16.2457 57.7301 16.3452L57.62 16.4519ZM58.245 14.8697C58.1207 14.8839 57.9928 14.9408 57.8898 15.0368C57.6626 15.2537 57.6945 15.5203 57.7336 15.8332C57.7407 15.9008 57.7514 15.9648 57.7549 16.0323C57.8188 15.9861 57.8827 15.947 57.9431 15.9079C58.1846 15.755 58.3728 15.6341 58.4403 15.3212C58.4616 15.2288 58.4616 15.1328 58.4403 15.0439C58.4367 15.0083 58.4296 14.987 58.419 14.9657C58.3834 14.8697 58.3834 14.8697 58.3302 14.8697H58.245Z" fill="#860142"/>
<path fill-rule="evenodd" clip-rule="evenodd" d="M56.0468 14.3113C56.5368 13.8704 57.492 13.3513 58.1774 14.6668C57.0233 15.2642 56.7037 14.9513 56.0468 14.3113Z" fill="#FBA407"/>
<path d="M57.1689 15.0971C56.6931 15.0971 56.3912 14.802 55.9687 14.3931L55.8799 14.3078L55.9687 14.226C56.2208 13.9984 56.7286 13.6322 57.279 13.7318C57.6732 13.8029 58.0105 14.1015 58.2769 14.6135L58.3301 14.7131L58.2271 14.7664C57.7797 14.9975 57.4459 15.0971 57.1689 15.0971ZM56.2137 14.3149C56.7819 14.8624 57.073 15.0829 58.0212 14.6171C57.7975 14.2295 57.5347 14.0091 57.2399 13.9558C56.8422 13.8846 56.4552 14.1193 56.2137 14.3149Z" fill="#860142"/>
<path fill-rule="evenodd" clip-rule="evenodd" d="M58.3585 12.9106C58.181 13.3301 57.7548 13.6608 57.9466 14.1586C58.007 14.3079 58.1135 14.4324 58.252 14.5141L58.3301 14.5568C58.4367 14.6137 58.4828 14.5781 58.5716 14.4963C58.5965 14.475 58.6178 14.4501 58.6391 14.4217C58.7065 14.3328 58.7527 14.2332 58.7776 14.123C58.9054 13.5932 58.5254 13.3479 58.3585 12.9034V12.9106Z" fill="#FBA407"/>
<path d="M58.4224 14.6954C58.3798 14.6954 58.3337 14.6847 58.2768 14.6527L58.1987 14.6101C58.0389 14.5141 57.9111 14.3683 57.8436 14.1976C57.6874 13.7923 57.8862 13.4794 58.0638 13.2021C58.1312 13.0989 58.1987 12.9923 58.2449 12.8821V12.274L58.4651 12.8607C58.5148 12.9958 58.5929 13.1167 58.6639 13.2341C58.8202 13.4865 58.9835 13.7461 58.8876 14.1478C58.8628 14.2687 58.806 14.3896 58.7278 14.4892C58.7065 14.5176 58.6781 14.5496 58.6462 14.5781C58.5893 14.635 58.5219 14.6954 58.4224 14.6954ZM58.355 13.1629C58.323 13.2198 58.2875 13.2732 58.252 13.3265C58.0815 13.5896 57.9359 13.8207 58.0496 14.1158C58.0993 14.2367 58.1916 14.347 58.3088 14.4145L58.3834 14.4536C58.4082 14.4679 58.4189 14.4679 58.4189 14.4679C58.4331 14.4643 58.4757 14.4252 58.4935 14.411C58.5148 14.3932 58.5325 14.3754 58.5467 14.3541C58.6071 14.2759 58.6462 14.1905 58.6675 14.0981C58.742 13.7852 58.6249 13.5967 58.4722 13.3549C58.4331 13.2909 58.394 13.2305 58.355 13.1629Z" fill="#860142"/>
<path fill-rule="evenodd" clip-rule="evenodd" d="M64.914 5.10226C65.3366 4.93159 65.6739 4.50847 66.1675 4.71114C66.3167 4.77514 66.4409 4.88536 66.5226 5.02403L66.5652 5.0987C66.6185 5.20892 66.583 5.25515 66.4978 5.34048C66.4765 5.36537 66.4516 5.3867 66.4232 5.40804C66.3309 5.47204 66.2314 5.51826 66.1213 5.54315C65.5922 5.66049 65.3508 5.27648 64.9104 5.10226H64.914Z" fill="#FBA407"/>
<path d="M65.9296 5.67829C65.6455 5.67829 65.4395 5.54318 65.2371 5.41162C65.1235 5.33695 65.0028 5.25873 64.8678 5.2054L64.3138 4.98495H64.8927C65.0028 4.93873 65.1093 4.87117 65.2158 4.80717C65.4964 4.63294 65.8124 4.43739 66.2101 4.6045C66.3806 4.67917 66.5262 4.80717 66.6185 4.96361L66.6611 5.03828C66.757 5.23384 66.6576 5.33695 66.5759 5.41518C66.5546 5.44006 66.5226 5.46851 66.4871 5.4934C66.3841 5.56807 66.2669 5.61784 66.1426 5.64629C66.0681 5.67118 65.9971 5.67829 65.9296 5.67829ZM65.1697 5.10228C65.2371 5.14139 65.301 5.18051 65.3614 5.22317C65.5993 5.37962 65.7911 5.50051 66.0965 5.43295C66.1888 5.41162 66.2776 5.37251 66.3557 5.31562C66.377 5.3014 66.3948 5.28362 66.4125 5.26584C66.4836 5.19473 66.4836 5.19473 66.4622 5.14851L66.4232 5.08095C66.3557 4.96361 66.2456 4.87117 66.1213 4.81784C65.8302 4.69694 65.5993 4.83917 65.333 5.00628C65.2797 5.03473 65.2265 5.07028 65.1697 5.10228Z" fill="#860142"/>
<path fill-rule="evenodd" clip-rule="evenodd" d="M66.0182 2.8446C66.6255 3.11127 67.4919 3.7655 66.5864 4.94952C65.5566 4.15306 65.7164 3.72639 66.0182 2.8446Z" fill="#FBA407"/>
<path d="M66.6077 5.10593L66.5189 5.03482C65.4359 4.1957 65.6028 3.71214 65.9046 2.83035L65.9437 2.71301L66.0644 2.73435C66.3769 2.86946 66.9202 3.18235 67.0587 3.7228C67.1581 4.11392 67.0303 4.5477 66.6752 5.00993L66.6077 5.10593ZM66.0857 3.00102C65.8265 3.76547 65.7413 4.12103 66.5651 4.78593C66.8243 4.41614 66.9167 4.08192 66.8385 3.7868C66.7391 3.39213 66.3627 3.13968 66.0857 3.00102Z" fill="#860142"/>
<path fill-rule="evenodd" clip-rule="evenodd" d="M68.2697 4.35563C67.8151 4.35563 67.3393 4.11741 66.9664 4.49785C66.8528 4.61519 66.7818 4.76808 66.764 4.93164V5.01697C66.764 5.14142 66.8066 5.16631 66.9167 5.21253C66.9487 5.22675 66.9806 5.23742 67.0161 5.24453C67.1227 5.26942 67.2363 5.26942 67.3428 5.24453C67.8791 5.14142 67.943 4.69341 68.2768 4.35563H68.2697Z" fill="#FBA407"/>
<path d="M67.1795 5.37618C67.1156 5.37618 67.0517 5.36907 66.9877 5.35485C66.9487 5.34774 66.9096 5.33352 66.8706 5.31574C66.7463 5.26241 66.6504 5.20907 66.6504 5.01707V4.93173C66.6717 4.72907 66.7534 4.5584 66.8848 4.41973C67.1937 4.10328 67.5701 4.15661 67.9039 4.20639C68.0247 4.22417 68.1525 4.24195 68.2732 4.24195H68.5538L68.362 4.43395C68.259 4.53706 68.1845 4.6544 68.1099 4.76818C67.9465 5.01707 67.7761 5.27663 67.3713 5.35485C67.3038 5.36907 67.2434 5.37618 67.1795 5.37618ZM67.5133 4.39484C67.3429 4.39484 67.1866 4.43395 67.0481 4.57617C66.9522 4.67573 66.8954 4.80373 66.8777 4.9424V5.01351C66.8777 5.0704 66.8777 5.0704 66.9593 5.1024C66.9877 5.11307 67.0126 5.12374 67.0375 5.12729C67.1298 5.14863 67.2257 5.14863 67.3144 5.12729C67.6305 5.06685 67.7548 4.8784 67.911 4.64018C67.9536 4.57617 67.9963 4.51217 68.0424 4.44817C67.9821 4.44106 67.9252 4.43395 67.8684 4.42328C67.7441 4.41262 67.6234 4.39484 67.5133 4.39484Z" fill="#860142"/>
<path d="M12.5957 17.5823L12.3826 16.8463C16.5232 16.0676 19.325 14.0374 19.325 9.54666C19.325 3.54481 14.6234 1.51456 9.31805 1.36878V22.6775C9.31805 28.0642 10.1384 29.1558 15.5289 29.842V30.5745C10.355 30.4891 5.18104 30.4891 0 30.5745V29.842C5.30888 29.33 5.34794 27.3851 5.34794 22.6775V7.90753C5.34794 3.64081 5.08871 1.64256 0.344455 1.255V0.476326C3.79256 0.476326 7.24422 0.390991 10.6959 0.390991C16.0864 0.390991 23.7213 1.255 23.7213 8.25242C23.7248 14.6881 18.1319 16.9316 12.5957 17.5823Z" fill="#007982"/>
<path d="M46.6329 30.6242C38.3518 30.5389 30.1133 30.5816 21.8286 30.5816V29.842C27.2227 29.458 27.4357 27.3851 27.4357 22.5033V7.8613C27.4357 3.15368 26.7894 1.72789 21.8286 1.25499V0.476318C26.8782 0.565208 31.8817 0.565208 36.9278 0.476318V1.25499C32.0522 1.64255 31.3632 3.24257 31.3632 7.8613V23.3246C31.3632 29.0704 31.1892 29.33 37.013 29.33C43.6997 29.33 45.3829 27.9895 48.5327 22.1584L49.0938 22.4179L46.6329 30.6242Z" fill="#007982"/>
<path d="M107.296 10.6028C104.537 17.2767 101.824 23.9079 99.1889 30.6244H98.7415L89.0683 7.01876C87.9178 4.17429 86.7637 1.25158 83.2268 1.12714V0.387573C87.6692 0.469352 92.1116 0.469352 96.5576 0.387573V1.12714C95.0342 1.12714 92.4028 1.37603 92.4028 3.43472C92.4028 6.60631 99.8068 23.1256 100.261 24.2776C100.794 23.0012 107.914 7.01876 107.914 3.76539C107.914 1.37603 105.073 1.20892 103.298 1.12714V0.387573C107.246 0.469352 111.195 0.469352 115.148 0.387573V1.12714C110.627 1.12714 108.734 7.14321 107.296 10.6028Z" fill="#007982"/>
</svg>
