<svg width="14" height="14" viewBox="0 0 14 14" fill="none" xmlns="http://www.w3.org/2000/svg">
<path d="M7.0042 0C4.82903 0 2.66227 0 0.487103 0C0.0251952 0 0.00839755 0.0168027 0.00839755 0.470476C0.00839755 1.57105 0.0167966 2.67163 0 3.78061C0 4.07466 0.0839829 4.20908 0.394721 4.18387C0.688662 4.15867 0.982603 4.16707 1.27654 4.18387C1.5117 4.19227 1.59568 4.09146 1.59568 3.86462C1.58728 3.23452 1.60408 2.60442 1.58728 1.97432C1.57888 1.68027 1.67127 1.57105 1.982 1.57945C5.06419 1.58786 8.15477 1.58786 11.237 1.58786C11.5057 1.58786 11.7828 1.60466 12.0516 1.57945C12.3287 1.56265 12.4127 1.67187 12.4127 1.94071C12.4043 3.28493 12.4043 4.62914 12.4043 5.97336C12.4043 7.94768 12.4043 9.922 12.4043 11.8963C12.4043 12.4004 12.4043 12.4088 11.8836 12.4088C11.3461 12.4088 10.817 12.4172 10.2795 12.4088C10.0192 12.4004 9.91842 12.5012 9.93521 12.7617C9.95201 13.0725 9.94361 13.3918 9.93521 13.7026C9.92681 13.9042 10.0108 13.9882 10.2124 13.9882C11.3797 13.9882 12.5387 13.9882 13.7061 13.9882C13.9832 13.9882 13.9916 13.8034 13.9916 13.6018C13.9916 12.5348 13.9916 11.4594 13.9916 10.3925C14 7.09914 14 3.80581 14 0.512482C14 0.0168027 13.9832 0 13.4877 0C11.3293 0 9.16257 0 7.0042 0Z" fill="white"/>
<path d="M8.26395 13.9964C9.15417 13.9964 9.0282 14.0805 9.0366 13.2235C9.05339 9.29169 6.18116 5.82194 2.31793 5.11623C1.67126 4.99861 1.00779 4.9566 0.344326 4.965C0.100774 4.97341 -5.58918e-06 5.06582 0.00839274 5.30106C0.0167911 5.5951 0.0251894 5.88915 0.00839274 6.1832C-0.00840392 6.45204 0.100775 6.56126 0.37792 6.55286C1.01619 6.54446 1.65447 6.55286 2.28434 6.69568C5.0054 7.33418 7.04619 9.56054 7.41572 12.3414C7.46611 12.7278 7.44931 13.1143 7.45771 13.5008C7.46611 13.9796 7.46611 13.988 7.95321 13.988C8.05399 13.9964 8.15477 13.9964 8.26395 13.9964Z" fill="white"/>
<path d="M5.75284 13.9965C5.76964 13.9965 5.79484 13.9965 5.81163 13.9965C6.60947 13.9965 6.57588 14.0889 6.55068 13.2488C6.4835 11.0812 5.55128 9.38414 3.67846 8.24156C2.64547 7.61146 1.4949 7.41822 0.302338 7.44343C0.0839815 7.45183 0.0083967 7.55265 0.0083967 7.75428C0.016795 8.08193 0.016795 8.40118 0.0083967 8.72884C0.0083967 8.94727 0.100779 9.02288 0.319135 9.02288C0.823034 9.01448 1.32693 9.01448 1.82243 9.1405C3.63647 9.60258 4.94661 11.2324 4.9802 13.0975C4.9802 13.2236 4.9802 13.3496 4.9802 13.4756C4.9802 13.9881 4.9802 13.9881 5.50929 13.9881C5.58488 13.9965 5.66886 13.9965 5.75284 13.9965Z" fill="white"/>
<path d="M0.00839443 10.7371C0.00839443 11.4764 0.00839522 11.4764 0.755845 11.4932C1.75524 11.51 2.4943 12.2577 2.50269 13.2659C2.51109 13.9968 2.51109 13.9968 3.25014 13.9968C4.19915 13.9968 4.05638 14.0976 4.05638 13.1651C4.04798 11.4008 2.61187 9.96417 0.848226 9.93897C0.839827 9.93897 0.83143 9.93897 0.814633 9.93897C-0.0755882 9.96417 0.00839443 9.80455 0.00839443 10.7371Z" fill="white"/>
</svg>
