<svg width="28" height="28" viewBox="0 0 28 28" fill="none" xmlns="http://www.w3.org/2000/svg">
<circle cx="14" cy="14" r="14" fill="#25868A"/>
<path d="M10.0276 18.5823C10.1019 17.6568 10.1762 16.6955 10.2412 15.7341C10.2505 15.5813 10.3341 15.4915 10.4455 15.4016C12.6185 13.4968 14.8008 11.592 16.9738 9.68722C17.0667 9.60635 17.2152 9.52549 17.1131 9.39072C17.0202 9.26493 16.8716 9.34579 16.7602 9.40869C15.9987 9.85793 15.2373 10.3072 14.4851 10.7744C12.4792 11.9874 10.4734 13.2093 8.4768 14.4402C8.2725 14.566 8.08677 14.593 7.85461 14.5211C6.78668 14.1797 5.70947 13.8652 4.64154 13.5328C4.35366 13.4429 4.01007 13.362 4.00078 13.0027C3.98221 12.6702 4.29795 12.5354 4.56725 12.4366C5.97877 11.8885 7.3903 11.3584 8.81111 10.8283C12.0706 9.60635 15.3394 8.39339 18.6082 7.17144C18.6546 7.15347 18.7011 7.14449 18.7382 7.12652C19.769 6.70423 20.1219 7.41404 19.964 8.1508C19.4068 10.6845 18.8496 13.2183 18.2925 15.752C18.051 16.8751 17.8003 17.9893 17.5495 19.1124C17.5124 19.2741 17.466 19.4448 17.3824 19.5886C17.1781 19.9749 16.8716 20.0828 16.4538 19.939C16.1659 19.8402 15.9337 19.6515 15.6923 19.4808C14.7172 18.7889 13.7422 18.1061 12.7857 17.3963C12.5721 17.2345 12.4421 17.2615 12.2563 17.4412C11.7456 17.9354 11.2256 18.4116 10.7055 18.8878C10.6591 18.9237 10.6219 18.9686 10.5755 19.0046C10.4269 19.1124 10.2598 19.2472 10.074 19.1663C9.90689 19.0854 10.0462 18.8968 10.0276 18.762C10.0183 18.7081 10.0276 18.6631 10.0276 18.5823Z" fill="white"/>
</svg>
