<?xml version="1.0" encoding="utf-8"?><svg width="13" height="14" fill="none" xmlns="http://www.w3.org/2000/svg" viewBox="0 0 13 14"><path d="M0 6.48C0 4.452 0 2.425.003.399.002.034.037 0 .406 0l12.162.003c.412 0 .429.021.429.428 0 1.032-.006 2.066.004 3.099.002.26-.073.377-.35.357a6.815 6.815 0 00-.819 0c-.23.01-.31-.087-.309-.31.007-.594-.007-1.189.004-1.783.004-.24-.078-.324-.32-.323-3.139.006-6.277.006-9.415 0-.244 0-.32.087-.32.325.006 3.138.006 6.277 0 9.415 0 .25.097.319.33.314.545-.01 1.091.007 1.637-.004.257-.005.348.094.335.346a8.783 8.783 0 00-.002.847c.009.227-.103.284-.303.284a258.836 258.836 0 00-3.128.004c-.259.002-.339-.109-.337-.352.006-1.004 0-2.008 0-3.011C.001 8.584.002 7.532.001 6.479z" fill="#fff"/><path d="M5.332 12.995c-.824 0-.711.078-.714-.718-.016-3.65 2.654-6.873 6.242-7.527a9.22 9.22 0 011.831-.138c.228.005.317.092.31.313a9.88 9.88 0 00-.002.818c.012.252-.087.349-.34.346-.593-.009-1.185-.002-1.771.136a6.218 6.218 0 00-4.765 5.24c-.046.346-.03.7-.035 1.051-.007.479-.003.479-.493.48-.088-.002-.175-.002-.263-.002z" fill="#fff"/><path d="M7.663 12.995h-.087c-.712.004-.68.061-.66-.66.055-2.004.898-3.577 2.617-4.647.976-.608 2.057-.797 3.189-.775.198.004.28.095.277.287-.004.292-.01.585 0 .877.007.226-.085.314-.312.308-.467-.014-.933-.003-1.391.114a3.894 3.894 0 00-2.91 3.666c-.003.166-.014.333 0 .497.022.258-.093.354-.341.334-.128-.01-.255-.002-.382-.002z" fill="#fff"/><path d="M12.996 9.968c-.001.689-.001.689-.697.704-.93.02-1.61.707-1.627 1.643-.01.679-.01.68-.69.68-.88.001-.747.08-.746-.74a3.01 3.01 0 013.007-3.02c.831-.003.754-.135.753.733z" fill="#fff"/></svg>