<?xml version="1.0" encoding="utf-8"?><svg width="28" height="28" fill="none" xmlns="http://www.w3.org/2000/svg" viewBox="0 0 28 28"><circle cx="14" cy="14" r="14" fill="#25878A"/><path d="M15.693 12.313c0 .545-.001 1.09 0 1.634 0 .146.005.3.151.381.16.09.302.01.434-.078.397-.265.662-.65.93-1.028a13.741 13.741 0 001.512-2.688c.14-.34.346-.504.73-.487.519.023 1.04 0 1.56.007.523.007.74.313.549.798-.43 1.09-1.083 2.055-1.76 3.005-.137.193-.263.395-.4.588-.195.273-.146.506.08.742.507.53.998 1.074 1.505 1.604.39.409.692.873.941 1.372.2.4-.016.807-.468.823-.676.025-1.352.01-2.029.001-.234-.003-.39-.143-.525-.335-.576-.814-1.299-1.49-2.081-2.107-.041-.032-.086-.059-.131-.085-.485-.281-.72-.16-.738.391-.012.349-.002.699-.005 1.048-.006.634-.412 1.025-1.048 1.05-1.545.06-2.802-.594-3.926-1.551-1.123-.955-1.864-2.2-2.594-3.446-.553-.946-1.018-1.931-1.312-2.99-.192-.693.013-.96.745-.961.437 0 .874.003 1.31 0 .345-.004.566.145.683.47.305.853.625 1.701 1.048 2.505.342.65.732 1.267 1.259 1.789.073.072.15.144.238.197.233.144.39.082.472-.178a.681.681 0 00.038-.212c-.011-.923.053-1.848-.058-2.77-.055-.45-.31-.798-.561-1.152-.094-.133-.23-.26-.14-.442.091-.185.276-.155.44-.155.821-.002 1.644-.003 2.466 0 .522.001.68.16.682.689.003.523.001 1.048.001 1.571h.002z" fill="#fff"/></svg>