<?xml version="1.0" encoding="utf-8"?><svg width="16" height="9" fill="none" xmlns="http://www.w3.org/2000/svg" viewBox="0 0 16 9"><path d="M9.272 2.313v1.634c0 .146.006.3.162.381.17.09.321.01.463-.078.423-.265.706-.65.992-1.028.637-.844 1.191-1.734 1.612-2.688.15-.34.369-.504.778-.487.554.023 1.11 0 1.665.007.558.007.789.313.586.798-.459 1.09-1.156 2.055-1.878 3.005-.146.193-.28.395-.427.588-.207.273-.155.506.085.742.542.53 1.066 1.074 1.606 1.604.416.409.738.873 1.004 1.372.214.4-.017.807-.5.823-.72.025-1.442.01-2.163.001-.25-.003-.416-.143-.56-.335-.615-.814-1.386-1.49-2.22-2.107a1.235 1.235 0 00-.14-.085c-.517-.281-.768-.16-.788.391-.012.349-.001.699-.005 1.048-.006.634-.439 1.026-1.117 1.05-1.648.06-2.989-.594-4.188-1.551-1.198-.955-1.988-2.2-2.767-3.446C.882 3.006.386 2.02.072.962-.132.27.087.003.868.002c.467 0 .932.003 1.398 0 .368-.004.603.145.728.47.326.853.667 1.701 1.118 2.505.365.65.78 1.267 1.343 1.789.078.072.16.144.253.197.25.144.416.082.504-.178a.647.647 0 00.04-.212c-.012-.923.058-1.848-.061-2.77-.059-.45-.332-.798-.599-1.153-.1-.132-.246-.258-.149-.441.098-.185.295-.155.469-.155.876-.002 1.754-.003 2.63 0 .558.001.726.16.729.689.002.523 0 1.048 0 1.571h.002z" fill="#507DB4"/></svg>