<?xml version="1.0" encoding="utf-8"?><svg width="13" height="10" fill="none" xmlns="http://www.w3.org/2000/svg" viewBox="0 0 13 10"><path d="M6.498 9.988c-2.052 0-4.105 0-6.157-.002-.112 0-.266.055-.326-.057-.059-.11.074-.202.134-.293C2.197 6.5 4.246 3.367 6.296.234c.207-.316.208-.31.413.003 2.054 3.141 4.108 6.282 6.16 9.424.056.084.176.169.115.273-.06.102-.2.054-.303.054-2.061.003-4.123.002-6.183.002v-.002zM6.485 8.7v.006c1.305 0 2.61-.002 3.916.002.233.001.212-.079.115-.227-1.282-1.955-2.56-3.91-3.84-5.866-.17-.26-.178-.26-.35 0-.632.961-1.26 1.925-1.89 2.889-.65.992-1.299 1.985-1.95 2.976-.095.143-.13.233.11.228.471-.009.943-.007 1.415-.008h2.474z" fill="#fff"/><path d="M7.171 6.274c0 .459-.01.918.005 1.377.007.232-.087.308-.318.298-.253-.012-.508-.004-.761 0-.173.002-.27-.052-.268-.24.005-.953.005-1.905 0-2.858-.002-.194.081-.261.276-.255.272.009.543.008.815 0 .19-.005.257.074.255.249-.006.476-.002.952-.002 1.429H7.17z" fill="#fff"/></svg>