<?xml version="1.0" encoding="utf-8"?><svg width="31" height="27" fill="none" xmlns="http://www.w3.org/2000/svg" viewBox="0 0 31 27"><path d="M9.39 17.167c-.527.002-1.047-.015-1.561-.118-.154-.031-.287.026-.424.077-.83.3-1.656.617-2.492.9-1.437.487-2.758-.282-2.996-1.734-.075-.457.068-.879.278-1.284.3-.58.296-.581-.135-1.065-2.74-3.078-2.75-7.633-.013-10.72C3.686 1.379 5.76.279 8.26.056c3.97-.355 7.155 1.012 9.308 4.321 1.899 2.921 1.55 6.83-.758 9.465-1.943 2.216-4.443 3.276-7.42 3.326zm3.17-11.153c-.033-.996-.512-1.762-1.356-2.295-.868-.55-1.839-.673-2.852-.5-.696.118-1.314.39-1.813.887-.364.362-.4.797-.23 1.24.194.503.656.679 1.172.492.2-.072.362-.198.536-.31.491-.317 1.027-.451 1.607-.302.756.194.976.969.429 1.504-.175.171-.383.312-.58.46-.946.708-1.327 1.745-1.024 2.793.126.438.367.702.658.674.393-.04.516-.35.6-.656.167-.604.52-1.075 1.024-1.449.282-.209.575-.404.848-.623.616-.495 1.002-1.106.98-1.915zm-2.075 6.713c.013-.697-.419-1.151-1.104-1.165-.815-.016-1.301.388-1.315 1.094-.013.694.493 1.225 1.18 1.236.706.01 1.226-.48 1.239-1.165z" fill="#fff"/><path d="M31 17.332c-.032 2.166-.81 4.048-2.31 5.649-.159.17-.194.298-.078.5.202.354.404.71.44 1.127.148 1.69-1.42 2.83-3.065 2.23-.83-.302-1.66-.604-2.49-.908a.92.92 0 00-.456-.051c-3.343.421-6.239-.468-8.606-2.824-1.038-1.033-1.727-2.273-2.114-3.67-.068-.246-.03-.378.245-.433.244-.05.486-.124.718-.213.226-.085.33-.05.393.196.447 1.755 1.469 3.137 2.972 4.183a8.18 8.18 0 004.435 1.476c.69.027 1.378.018 2.057-.127a.89.89 0 01.516.053c.936.347 1.875.685 2.813 1.025.41.15.726.094.977-.17.245-.257.268-.573.07-.957-.213-.416-.417-.838-.647-1.247-.117-.211-.073-.335.108-.487 1.313-1.105 2.17-2.475 2.482-4.142.384-2.063-.13-3.925-1.457-5.556-1.417-1.742-3.32-2.667-5.574-2.928-.382-.044-.772-.03-1.158-.025-.236.002-.353-.045-.299-.312.05-.246.067-.503.066-.755-.002-.269.126-.347.382-.341.954.022 1.899.11 2.812.38 3.156.936 5.353 2.858 6.399 5.932.263.776.378 1.578.368 2.396z" fill="#fff"/><path d="M26.031 18.8c-.95.001-1.704-.718-1.706-1.625-.003-.906.753-1.636 1.697-1.637.941-.003 1.703.725 1.706 1.628.002.908-.75 1.632-1.697 1.633zM21.548 18.8c-.968-.002-1.728-.722-1.728-1.64-.001-.88.768-1.621 1.684-1.625.96-.002 1.717.722 1.718 1.644 0 .888-.756 1.621-1.674 1.62zM16.71 18.8c-.315-.006-.782-.26-1.118-.753-.114-.168-.107-.279.085-.393a10.658 10.658 0 002.15-1.652c.148-.15.254-.115.391.012.462.425.627 1.14.388 1.735-.265.658-.86 1.05-1.896 1.051z" fill="#fff"/></svg>