<?xml version="1.0" encoding="utf-8"?><svg width="8" height="17" fill="none" xmlns="http://www.w3.org/2000/svg" viewBox="0 0 8 17"><path d="M1.768 12.465c0-1.05-.019-2.098.007-3.145.013-.519-.115-.758-.696-.747C.004 8.593.002 8.563 0 7.443v-.49c.002-1.187.002-1.21 1.148-1.233.5-.012.635-.22.627-.682-.009-.649-.042-1.299.106-1.946C2.188 1.74 3 .929 4.35.68 5.359.496 6.381.544 7.4.544c.451 0 .611.22.596.653a18.55 18.55 0 00.002 1.607c.024.478-.167.69-.639.682-.393-.006-.787.009-1.18.024-.476.017-.725.263-.723.748 0 .07-.004.14-.008.21C5.41 5.71 5.41 5.71 6.622 5.71c1.463 0 1.463 0 1.255 1.471-.197 1.394-.197 1.424-1.6 1.39-.632-.014-.855.174-.845.825.033 2.096-.006 4.194.022 6.29.007.637-.21.885-.847.85-.739-.04-1.484-.018-2.225-.012-.438.004-.622-.192-.616-.638.015-1.14.006-2.283.006-3.425-.002.004-.004.004-.004.004z" fill="#4064AD"/></svg>