<?xml version="1.0" encoding="utf-8"?><svg width="16" height="16" fill="none" xmlns="http://www.w3.org/2000/svg" viewBox="0 0 16 16"><path d="M2.734 15.02l.285-2.321c.09-.722.178-1.445.275-2.166.025-.182-.067-.289-.17-.404C2.207 9.116 1.297 8.098.377 7.091.106 6.793-.088 6.483.04 6.056c.128-.424.444-.571.84-.645 1.28-.24 2.554-.515 3.836-.746.3-.055.461-.202.596-.465.615-1.198 1.247-2.386 1.865-3.583.183-.355.42-.619.83-.617.394.002.628.257.806.6.641 1.234 1.294 2.461 1.932 3.697.112.216.257.311.49.355 1.342.252 2.682.518 4.021.79.734.149.986.943.477 1.515a254.983 254.983 0 01-2.788 3.088c-.194.21-.258.405-.216.704.192 1.376.355 2.757.524 4.136.046.373-.027.707-.339.941-.321.242-.645.202-.986.029-1.191-.602-2.39-1.188-3.58-1.791a.671.671 0 00-.681.002c-1.15.587-2.313 1.15-3.47 1.721-.202.1-.403.207-.63.213-.47.01-.84-.412-.833-.98zm-.197-8.14c.076.098.112.15.154.197.675.749 1.349 1.498 2.025 2.245.203.225.362.475.325.797-.123 1.052-.257 2.1-.387 3.152-.012.094-.08.205.021.273.08.052.16-.03.233-.066.852-.42 1.705-.839 2.553-1.267.37-.187.717-.188 1.092.005.844.437 1.7.85 2.551 1.27.073.036.152.114.234.05.066-.052.028-.142.018-.218-.123-1.007-.23-2.016-.376-3.02-.059-.405.055-.708.313-.988.565-.614 1.125-1.234 1.684-1.852.156-.173.307-.351.5-.574-1.084-.214-2.1-.422-3.118-.61-.36-.067-.625-.236-.8-.576-.473-.914-.952-1.824-1.433-2.734-.036-.068-.038-.178-.159-.187-.498.95-1.006 1.894-1.49 2.85-.19.377-.463.574-.858.647-1.01.188-2.016.396-3.082.606z" fill="#000"/></svg>