<?xml version="1.0" encoding="utf-8"?><svg width="14" height="14" fill="none" xmlns="http://www.w3.org/2000/svg" viewBox="0 0 14 14"><path d="M7.004 0H.487C.025 0 .008.017.008.47c0 1.101.009 2.202-.008 3.31 0 .295.084.43.395.404a6.18 6.18 0 01.882 0c.235.008.319-.093.319-.32-.009-.63.008-1.26-.009-1.89-.008-.294.084-.403.395-.395 3.082.009 6.173.009 9.255.009.269 0 .546.017.815-.009.277-.016.36.093.36.362-.008 1.344-.008 2.688-.008 4.032v5.923c0 .504 0 .513-.52.513-.538 0-1.067.008-1.604 0-.26-.009-.362.092-.345.353.017.31.009.63 0 .94-.008.202.076.286.277.286h3.494c.277 0 .286-.185.286-.386v-3.21C14 7.1 14 3.806 14 .512 14 .017 13.983 0 13.488 0H7.004z" fill="#fff"/><path d="M8.264 13.996c.89 0 .764.085.773-.773.016-3.931-2.856-7.401-6.72-8.107-.646-.117-1.31-.16-1.973-.151-.243.008-.344.1-.336.336a10.3 10.3 0 010 .882c-.016.269.093.378.37.37.638-.009 1.276 0 1.906.143a6.696 6.696 0 015.132 5.645c.05.387.033.773.042 1.16.008.479.008.487.495.487.101.008.202.008.31.008z" fill="#fff"/><path d="M5.753 13.996h.059c.797 0 .764.093.739-.747-.067-2.168-1-3.865-2.873-5.007-1.033-.63-2.183-.824-3.376-.799-.218.009-.294.11-.294.311.009.328.009.647 0 .975 0 .218.093.294.311.294.504-.009 1.008-.009 1.503.117 1.814.463 3.125 2.092 3.158 3.957v.379c0 .512 0 .512.53.512.075.008.159.008.243.008z" fill="#fff"/><path d="M.008 10.737c0 .74 0 .74.748.756 1 .017 1.738.765 1.747 1.773.008.73.008.73.747.73.95 0 .806.102.806-.83C4.048 11.4 2.612 9.963.848 9.938H.815c-.89.025-.807-.134-.807.798z" fill="#fff"/></svg>