<?xml version="1.0" encoding="utf-8"?><svg width="15" height="14" fill="none" xmlns="http://www.w3.org/2000/svg" viewBox="0 0 15 14"><path d="M14.985 6.563C14.752 3.021 11.687.186 7.888.01 7.758.005 7.63 0 7.5 0 3.36 0 0 2.765 0 6.177c0 3.412 3.36 6.177 7.5 6.177V14c2.733 0 7.5-3.131 7.5-7 0-.146-.005-.291-.015-.437zm-11.03 1.17c-.668 0-1.212-.527-1.212-1.175 0-.647.544-1.174 1.211-1.174.668 0 1.212.527 1.212 1.174a1.198 1.198 0 01-1.212 1.175zm3.545 0c-.668 0-1.211-.527-1.211-1.175 0-.647.543-1.174 1.211-1.174s1.211.527 1.211 1.174A1.198 1.198 0 017.5 7.733zm3.546 0c-.668 0-1.212-.527-1.212-1.175 0-.647.544-1.174 1.212-1.174.672 0 1.21.527 1.21 1.174a1.195 1.195 0 01-1.21 1.175z" fill="#BDBDBD"/></svg>