<?xml version="1.0" encoding="utf-8"?><svg width="12" height="13" fill="none" xmlns="http://www.w3.org/2000/svg" viewBox="0 0 12 13"><path d="M2.15 7.252c0-.415.004-.83-.002-1.244a.48.48 0 01.157-.376C4.183 3.792 6.06 1.952 7.933.108c.139-.137.235-.146.376-.006.593.59 1.194 1.171 1.792 1.757.286.28.565.568.854.846.247.237.252.232-.004.484L6.525 7.533c-.382.374-.766.747-1.144 1.124a.53.53 0 01-.405.169 135.05 135.05 0 00-2.51-.001c-.25.003-.329-.09-.32-.328.014-.414.004-.83.004-1.244v-.001zm1.992.233c.186-.045.443.088.65-.115a2249.1 2249.1 0 014.367-4.283c.117-.114.113-.194-.003-.304-.28-.263-.56-.524-.817-.807-.165-.182-.262-.155-.425.006A385.39 385.39 0 013.87 5.944c-.285.274-.428.545-.4.943.048.658-.117.6.672.598zM6.032 9.591h5.61c.339 0 .35.011.353.339.002.22-.008.441.004.661.012.227-.078.31-.314.308-1.124-.008-2.247-.003-3.371-.003-2.634 0-5.268 0-7.902-.002-.41 0-.413-.005-.41-.419.001-.194.011-.388 0-.582-.014-.228.076-.307.312-.306 1.357.009 2.715.004 4.072.004h1.646zM4.42 11.665h4.017c.354 0 .368.012.37.351.002.22-.009.441.004.661.013.242-.093.325-.333.323-1.123-.006-2.247-.001-3.37-.001L.47 12.996c-.47 0-.47-.002-.466-.476.001-.185.011-.371-.002-.556-.015-.234.09-.303.319-.302 1.365.007 2.732.004 4.098.004v-.001z" fill="#fff"/></svg>