<?xml version="1.0" encoding="utf-8"?><svg width="13" height="13" fill="none" xmlns="http://www.w3.org/2000/svg" viewBox="0 0 13 13"><path d="M9.049 4.648c.478 0 .956-.005 1.433.003a.582.582 0 00.432-.178c.505-.467.766-1.012.626-1.715-.244-1.233-1.77-1.766-2.722-.946-.058.05-.114.103-.167.157-2.223 2.225-4.448 4.45-6.668 6.678-.756.758-.734 1.825.039 2.51a1.64 1.64 0 002.26-.057c.842-.822 1.666-1.66 2.497-2.492.596-.595 1.194-1.187 1.782-1.79.155-.158.261-.17.413.01.177.21.378.404.585.588.183.163.154.278-.01.44-.958.948-1.908 1.905-2.86 2.858-.46.46-.91.929-1.382 1.378C3.63 13.692.992 13.1.203 10.918-.242 9.688.058 8.569.97 7.645c1.807-1.83 3.632-3.643 5.45-5.463.446-.446.884-.901 1.341-1.335a3.113 3.113 0 013.437-.563 3.111 3.111 0 011.8 2.929c-.028.775-.321 1.447-.842 2.022-.777.859-.776.86-1.93.857-.64-.001-1.28.016-1.92-.004-.286-.009-.483.09-.676.288-.674.692-1.366 1.366-2.04 2.057-.161.165-.264.164-.414-.003-.204-.227-.426-.44-.647-.65-.116-.11-.12-.195-.005-.31.902-.896 1.8-1.797 2.698-2.698.104-.105.227-.126.366-.125.486.002.973 0 1.46 0z" fill="#BDBDBD"/></svg>