<?xml version="1.0" encoding="utf-8"?><svg width="13" height="13" fill="none" xmlns="http://www.w3.org/2000/svg" viewBox="0 0 13 13"><path d="M13 6.498V.415C13 .032 12.969 0 12.585 0L.479.003C.01.003.007.01.007.476c0 2.632.008 5.263-.005 7.895-.007 1.347.344 2.542 1.354 3.485.823.769 1.815 1.13 2.927 1.135 2.797.012 5.594.003 8.391.01.296 0 .327-.159.326-.391-.004-2.037-.002-4.074-.002-6.112H13zm-1.473.002v4.619c0 .396-.002.401-.38.401-2.358.001-4.716.009-7.073-.005-1.372-.008-2.579-1.216-2.587-2.59-.014-2.358-.001-4.716-.012-7.074-.002-.292.083-.385.381-.384 3.098.01 6.196.01 9.295 0 .296 0 .384.09.381.384-.012 1.55-.005 3.1-.005 4.649z" fill="#fff"/><path d="M6.52 3.765h3.768c.384 0 .384-.001.386-.394.001-.243-.009-.487.005-.73.014-.242-.087-.32-.324-.319-1.187.008-2.375.003-3.562.003-1.363 0-2.726.009-4.089-.004-.298-.004-.402.09-.377.384.022.242.02.488.002.73-.018.258.084.336.337.334 1.284-.01 2.57-.004 3.854-.004zM7.057 8.07c-1.072 0-2.142-.001-3.214.001-.352 0-.382.034-.383.385 0 .244.013.488 0 .73-.016.267.093.36.357.358 1.042-.009 2.084-.001 3.127-.001 1.12 0 2.24-.008 3.36.002.27.003.4-.07.375-.362a4.472 4.472 0 010-.73c.025-.292-.081-.395-.378-.39-.867.014-1.734.005-2.6.005h-.643l-.001.002zM8.803 7.218c.515 0 1.03-.007 1.546.004.233.006.342-.063.329-.312-.015-.291-.008-.584-.003-.876.002-.163-.055-.255-.234-.255a929.43 929.43 0 01-3.297.001c-.145 0-.223.065-.224.207-.003.34-.002.68 0 1.02.001.188.124.214.277.212.535-.003 1.07-.001 1.606 0zM4.192 7.22c.525 0 1.05-.01 1.576.004.243.006.332-.088.323-.323-.01-.282-.005-.564-.002-.846.002-.192-.072-.28-.277-.278-1.07.006-2.14.006-3.208 0-.2 0-.282.077-.276.277.009.292.012.583.001.875-.008.212.073.296.289.292.524-.01 1.05-.003 1.575-.003v.002z" fill="#fff"/></svg>