<?xml version="1.0" encoding="utf-8"?><svg width="28" height="28" fill="none" xmlns="http://www.w3.org/2000/svg" viewBox="0 0 28 28"><rect width="28" height="28" rx="14" fill="#25878A"/><path d="M17.494 6.2h-6.99A4.31 4.31 0 006.2 10.505v6.99a4.31 4.31 0 004.305 4.305h6.99a4.31 4.31 0 004.305-4.305v-6.99A4.31 4.31 0 0017.494 6.2zm2.921 11.295c0 1.61-1.31 2.92-2.92 2.92h-6.99c-1.611 0-2.922-1.31-2.922-2.92v-6.99c0-1.61 1.31-2.92 2.921-2.92h6.99c1.61 0 2.921 1.31 2.921 2.92v6.99z" fill="#fff"/><path d="M14 10.1c-2.15 0-3.9 1.75-3.9 3.9s1.75 3.9 3.9 3.9 3.9-1.75 3.9-3.9-1.75-3.9-3.9-3.9zm0 6.457A2.56 2.56 0 0111.443 14 2.56 2.56 0 0114 11.443 2.56 2.56 0 0116.557 14 2.56 2.56 0 0114 16.557zM18 9a1.004 1.004 0 00-1 1c0 .263.107.52.294.707.185.186.443.293.706.293.264 0 .52-.107.707-.293.187-.186.293-.444.293-.707 0-.264-.106-.522-.293-.707A1.004 1.004 0 0018 9z" fill="#fff"/></svg>