<?xml version="1.0" encoding="utf-8"?><svg width="28" height="28" fill="none" xmlns="http://www.w3.org/2000/svg" viewBox="0 0 28 28"><circle cx="14" cy="14" r="14" fill="#25878A"/><path d="M12.197 17.171c0-.847-.015-1.694.006-2.54.01-.419-.093-.612-.562-.603-.868.017-.87-.009-.871-.913v-.395c.001-.96.001-.977.927-.997.403-.009.512-.178.506-.55-.007-.525-.034-1.05.086-1.572.247-1.092.903-1.747 1.993-1.948.816-.15 1.641-.11 2.465-.11.364 0 .493.178.481.528-.015.432-.021.866.002 1.298.019.386-.136.556-.517.55-.318-.005-.635.007-.953.02-.384.013-.585.212-.584.604 0 .056-.003.113-.006.169-.031 1.004-.031 1.004.948 1.004 1.182 0 1.182 0 1.014 1.188-.159 1.126-.159 1.15-1.293 1.123-.51-.012-.69.14-.682.666.027 1.693-.005 3.387.018 5.08.006.514-.17.715-.684.686-.597-.032-1.199-.014-1.797-.01-.354.004-.503-.154-.498-.515.012-.92.004-1.843.004-2.766-.001.003-.003.003-.003.003z" fill="#fff"/></svg>