<?xml version="1.0" encoding="utf-8"?><svg width="13" height="13" fill="none" xmlns="http://www.w3.org/2000/svg" viewBox="0 0 13 13"><path d="M9.049 4.648c.478 0 .956-.004 1.433.003a.582.582 0 00.432-.178c.505-.467.766-1.012.626-1.715-.244-1.233-1.77-1.765-2.722-.946-.058.05-.114.103-.167.157-2.223 2.225-4.448 4.45-6.668 6.678-.756.759-.734 1.825.039 2.51a1.64 1.64 0 002.26-.057c.842-.822 1.666-1.66 2.497-2.492.596-.595 1.194-1.187 1.782-1.789.155-.16.261-.171.413.008.177.212.378.406.585.59.183.162.154.277-.01.439-.958.948-1.908 1.905-2.86 2.858-.46.46-.91.93-1.382 1.378C3.63 13.692.992 13.1.203 10.918-.242 9.69.058 8.57.97 7.645c1.807-1.83 3.632-3.642 5.45-5.463.446-.446.884-.9 1.341-1.335a3.113 3.113 0 013.437-.563 3.111 3.111 0 011.8 2.93c-.028.774-.321 1.446-.842 2.022-.777.858-.776.859-1.93.856-.64-.001-1.28.016-1.92-.003-.286-.01-.483.088-.676.287-.674.693-1.366 1.366-2.04 2.057-.161.165-.264.164-.414-.003a11.52 11.52 0 00-.647-.65c-.116-.11-.12-.194-.005-.31.902-.896 1.8-1.796 2.698-2.698.104-.105.227-.125.366-.125.486.002.973 0 1.46.001z" fill="#fff"/></svg>