<?xml version="1.0" encoding="utf-8"?><svg width="28" height="28" fill="none" xmlns="http://www.w3.org/2000/svg" viewBox="0 0 28 28"><circle cx="14" cy="14" r="14" fill="#25868A"/><path d="M10.028 18.582c.074-.925.148-1.887.213-2.848.01-.153.093-.242.204-.332 2.173-1.905 4.356-3.81 6.529-5.715.093-.08.241-.162.14-.296-.094-.126-.242-.045-.354.018-.761.449-1.523.898-2.275 1.365a820.536 820.536 0 00-6.008 3.666.695.695 0 01-.622.081c-1.068-.341-2.146-.656-3.213-.988-.288-.09-.632-.171-.641-.53-.019-.333.297-.468.566-.566a341.171 341.171 0 014.244-1.609c3.26-1.222 6.528-2.435 9.797-3.657.047-.018.093-.027.13-.044 1.031-.423 1.384.287 1.226 1.024l-1.671 7.601c-.242 1.123-.493 2.237-.744 3.36a1.714 1.714 0 01-.167.477c-.204.386-.51.494-.928.35-.288-.099-.52-.288-.762-.458-.975-.692-1.95-1.375-2.906-2.085-.214-.162-.344-.134-.53.045-.51.494-1.03.97-1.55 1.447-.047.036-.084.08-.13.117-.15.107-.316.242-.502.161-.167-.08-.028-.27-.046-.404-.01-.054 0-.099 0-.18z" fill="#fff"/></svg>