<?xml version="1.0" encoding="utf-8"?><svg viewBox="0 0 311 311" xmlns="http://www.w3.org/2000/svg" xmlns:xlink="http://www.w3.org/1999/xlink"><style>:root>svg{display:none}:root>svg:target{display:block}</style><svg fill="none" viewBox="0 0 18 11" id="icon-arrow-btn" xmlns="http://www.w3.org/2000/svg"><path fill-rule="evenodd" clip-rule="evenodd" d="M12.218.23a.72.72 0 011.062 0l4.5 4.714A.79.79 0 0118 5.5a.818.818 0 01-.22.556l-4.5 4.714a.734.734 0 01-.53.23c-.2 0-.391-.083-.532-.23a.806.806 0 01-.22-.556c0-.21.08-.41.22-.557l3.97-4.157-3.97-4.157a.79.79 0 01-.22-.556.818.818 0 01.22-.556z" fill="#fff"/><path fill-rule="evenodd" clip-rule="evenodd" d="M0 5.5c0-.208.079-.408.22-.555a.733.733 0 01.53-.23h15.749c.199 0 .39.082.53.23.14.147.22.347.22.555a.805.805 0 01-.22.556.733.733 0 01-.53.23H.749a.733.733 0 01-.53-.23A.805.805 0 010 5.5z" fill="#fff"/></svg><svg fill="none" viewBox="0 0 12 7" id="icon-breadcrumbs-arrow" xmlns="http://www.w3.org/2000/svg"><path d="M0 2.78h9.78L7.53.53 8.06 0l3.155 3.155L8.06 6.31l-.53-.53 2.25-2.25H0v-.75z" fill="#828282"/></svg><svg fill="none" viewBox="0 0 21 21" id="icon-btn-loading" xmlns="http://www.w3.org/2000/svg"><path d="M1.746 14.137v2.323c0 .269-.011.564-.343.569-.336.004-.398-.28-.399-.576-.002-1.076-.007-2.153 0-3.228.002-.495.145-.652.6-.656 1.006-.008 2.011-.001 3.015.001.08 0 .163.005.24.025.207.056.334.2.315.432-.018.22-.166.325-.361.329-.562.011-1.123.016-1.684.016-.228 0-.531-.071-.651.095-.14.196.089.444.186.654 1.564 3.367 4.892 5.43 8.372 5.042 3.542-.394 5.984-2.439 7.324-5.98.03-.08.054-.162.081-.244.09-.269.272-.355.509-.26.234.095.26.301.189.536a10.27 10.27 0 01-1.422 2.88C14.6 20.532 8.492 21.31 4.468 17.799c-1.156-1.01-2.014-2.252-2.722-3.662zM19.248 6.77V4.648c0-.172-.012-.35.085-.503.09-.142.217-.219.38-.184.188.04.272.188.275.377.01.505.008 1.01.009 1.518 0 .665-.008 1.33.003 1.994.006.396-.142.587-.524.584-1.035-.008-2.07 0-3.105-.005-.248-.001-.53-.022-.528-.378.002-.359.27-.423.547-.423.618-.002 1.237-.012 1.854.004.31.008.42-.045.264-.406-1.27-2.902-3.364-4.7-6.283-5.282-2.873-.573-5.407.303-7.531 2.446a8.356 8.356 0 00-1.953 3.15 5.037 5.037 0 01-.255.636c-.09.177-.243.28-.44.196-.172-.072-.231-.234-.218-.422.007-.1.032-.199.06-.295 1.024-3.487 4.509-6.411 7.876-6.63 4.236-.275 7.34 1.607 9.329 5.632.024.048.055.091.083.137.023-.01.048-.018.072-.026z" fill="#fff"/><path d="M1.746 14.137v2.323c0 .269-.011.564-.343.569-.336.004-.398-.28-.399-.576-.002-1.076-.007-2.153 0-3.228.002-.495.145-.652.6-.656 1.006-.008 2.011-.001 3.015.001.08 0 .163.005.24.025.207.056.334.2.315.432-.018.22-.166.325-.361.329-.562.011-1.123.016-1.684.016-.228 0-.531-.071-.651.095-.14.196.089.444.186.654 1.564 3.367 4.892 5.43 8.372 5.042 3.542-.394 5.984-2.439 7.324-5.98.03-.08.054-.162.081-.244.09-.269.272-.355.509-.26.234.095.26.301.189.536a10.27 10.27 0 01-1.422 2.88C14.6 20.532 8.492 21.31 4.468 17.799c-1.156-1.01-2.014-2.252-2.722-3.662zM19.248 6.77V4.648c0-.172-.012-.35.085-.503.09-.142.217-.219.38-.184.188.04.272.188.275.377.01.505.008 1.01.009 1.518 0 .665-.008 1.33.003 1.994.006.396-.142.587-.524.584-1.035-.008-2.07 0-3.105-.005-.248-.001-.53-.022-.528-.378.002-.359.27-.423.547-.423.618-.002 1.237-.012 1.854.004.31.008.42-.045.264-.406-1.27-2.902-3.364-4.7-6.283-5.282-2.873-.573-5.407.303-7.531 2.446a8.356 8.356 0 00-1.953 3.15 5.037 5.037 0 01-.255.636c-.09.177-.243.28-.44.196-.172-.072-.231-.234-.218-.422.007-.1.032-.199.06-.295 1.024-3.487 4.509-6.411 7.876-6.63 4.236-.275 7.34 1.607 9.329 5.632.024.048.055.091.083.137.023-.01.048-.018.072-.026z" stroke="#fff" stroke-width=".5"/></svg><svg fill="none" viewBox="0 0 31 27" id="icon-btn-question" xmlns="http://www.w3.org/2000/svg"><path d="M9.39 17.167c-.527.002-1.047-.015-1.561-.118-.154-.031-.287.026-.424.077-.83.3-1.656.617-2.492.9-1.437.487-2.758-.282-2.996-1.734-.075-.457.068-.879.278-1.284.3-.58.296-.581-.135-1.065-2.74-3.078-2.75-7.633-.013-10.72C3.686 1.379 5.76.279 8.26.056c3.97-.355 7.155 1.012 9.308 4.321 1.899 2.921 1.55 6.83-.758 9.465-1.943 2.216-4.443 3.276-7.42 3.326zm3.17-11.153c-.033-.996-.512-1.762-1.356-2.295-.868-.55-1.839-.673-2.852-.5-.696.118-1.314.39-1.813.887-.364.362-.4.797-.23 1.24.194.503.656.679 1.172.492.2-.072.362-.198.536-.31.491-.317 1.027-.451 1.607-.302.756.194.976.969.429 1.504-.175.171-.383.312-.58.46-.946.708-1.327 1.745-1.024 2.793.126.438.367.702.658.674.393-.04.516-.35.6-.656.167-.604.52-1.075 1.024-1.449.282-.209.575-.404.848-.623.616-.495 1.002-1.106.98-1.915zm-2.075 6.713c.013-.697-.419-1.151-1.104-1.165-.815-.016-1.301.388-1.315 1.094-.013.694.493 1.225 1.18 1.236.706.01 1.226-.48 1.239-1.165z" fill="#fff"/><path d="M31 17.332c-.032 2.166-.81 4.048-2.31 5.649-.159.17-.194.298-.078.5.202.354.404.71.44 1.127.148 1.69-1.42 2.83-3.065 2.23-.83-.302-1.66-.604-2.49-.908a.92.92 0 00-.456-.051c-3.343.421-6.239-.468-8.606-2.824-1.038-1.033-1.727-2.273-2.114-3.67-.068-.246-.03-.378.245-.433.244-.05.486-.124.718-.213.226-.085.33-.05.393.196.447 1.755 1.469 3.137 2.972 4.183a8.18 8.18 0 004.435 1.476c.69.027 1.378.018 2.057-.127a.89.89 0 01.516.053c.936.347 1.875.685 2.813 1.025.41.15.726.094.977-.17.245-.257.268-.573.07-.957-.213-.416-.417-.838-.647-1.247-.117-.211-.073-.335.108-.487 1.313-1.105 2.17-2.475 2.482-4.142.384-2.063-.13-3.925-1.457-5.556-1.417-1.742-3.32-2.667-5.574-2.928-.382-.044-.772-.03-1.158-.025-.236.002-.353-.045-.299-.312.05-.246.067-.503.066-.755-.002-.269.126-.347.382-.341.954.022 1.899.11 2.812.38 3.156.936 5.353 2.858 6.399 5.932.263.776.378 1.578.368 2.396z" fill="#fff"/><path d="M26.031 18.8c-.95.001-1.704-.718-1.706-1.625-.003-.906.753-1.636 1.697-1.637.941-.003 1.703.725 1.706 1.628.002.908-.75 1.632-1.697 1.633zM21.548 18.8c-.968-.002-1.728-.722-1.728-1.64-.001-.88.768-1.621 1.684-1.625.96-.002 1.717.722 1.718 1.644 0 .888-.756 1.621-1.674 1.62zM16.71 18.8c-.315-.006-.782-.26-1.118-.753-.114-.168-.107-.279.085-.393a10.658 10.658 0 002.15-1.652c.148-.15.254-.115.391.012.462.425.627 1.14.388 1.735-.265.658-.86 1.05-1.896 1.051z" fill="#fff"/></svg><svg fill="none" viewBox="0 0 28 14" id="icon-burger" xmlns="http://www.w3.org/2000/svg"><path fill="#000" d="M0 0h28v2H0zM0 6h28v2H0zM0 12h28v2H0z"/></svg><svg fill="none" viewBox="0 0 16 16" id="icon-close" xmlns="http://www.w3.org/2000/svg"><path fill="#000" d="M0 14.875L14.607.258l1.392 1.39L1.392 16.267z"/><path fill="#000" d="M16 14.875L1.393.258 0 1.649l14.607 14.617z"/></svg><svg fill="none" viewBox="0 0 15 14" id="icon-comments" xmlns="http://www.w3.org/2000/svg"><path d="M14.985 6.563C14.752 3.021 11.687.186 7.888.01 7.758.005 7.63 0 7.5 0 3.36 0 0 2.765 0 6.177c0 3.412 3.36 6.177 7.5 6.177V14c2.733 0 7.5-3.131 7.5-7 0-.146-.005-.291-.015-.437zm-11.03 1.17c-.668 0-1.212-.527-1.212-1.175 0-.647.544-1.174 1.211-1.174.668 0 1.212.527 1.212 1.174a1.198 1.198 0 01-1.212 1.175zm3.545 0c-.668 0-1.211-.527-1.211-1.175 0-.647.543-1.174 1.211-1.174s1.211.527 1.211 1.174A1.198 1.198 0 017.5 7.733zm3.546 0c-.668 0-1.212-.527-1.212-1.175 0-.647.544-1.174 1.212-1.174.672 0 1.21.527 1.21 1.174a1.195 1.195 0 01-1.21 1.175z" fill="#BDBDBD"/></svg><svg fill="none" viewBox="0 0 18 12" id="icon-eye" xmlns="http://www.w3.org/2000/svg"><path d="M17.891 5.544C16.197 2.237 12.841 0 9 0 5.158 0 1.802 2.239.109 5.544a1.01 1.01 0 000 .912C1.803 9.763 5.159 12 9 12c3.842 0 7.198-2.239 8.891-5.544a1.01 1.01 0 000-.912zM9 10.5a4.5 4.5 0 110-9 4.5 4.5 0 010 9zM9 3a2.978 2.978 0 00-.79.118A1.495 1.495 0 016.117 5.21 2.993 2.993 0 109 3z" fill="#BDBDBD"/></svg><svg viewBox="0 0 311 311.077" id="icon-faq-close" xmlns="http://www.w3.org/2000/svg"><path d="M16.035 311.078c-4.097 0-8.195-1.558-11.308-4.695-6.25-6.25-6.25-16.383 0-22.633L283.789 4.687c6.25-6.25 16.383-6.25 22.633 0s6.25 16.383 0 22.637L27.363 306.383a16.045 16.045 0 01-11.328 4.695zm0 0"/><path d="M295.117 311.078a15.879 15.879 0 01-11.308-4.695L4.727 27.324c-6.25-6.254-6.25-16.386 0-22.636s16.382-6.25 22.636 0L306.422 283.75c6.25 6.25 6.25 16.383 0 22.633-3.137 3.117-7.23 4.695-11.305 4.695zm0 0"/></svg><svg fill="none" viewBox="0 0 8 17" id="icon-fb" xmlns="http://www.w3.org/2000/svg"><path d="M1.768 12.465c0-1.05-.019-2.098.007-3.145.013-.519-.115-.758-.696-.747C.004 8.593.002 8.563 0 7.443v-.49c.002-1.187.002-1.21 1.148-1.233.5-.012.635-.22.627-.682-.009-.649-.042-1.299.106-1.946C2.188 1.74 3 .929 4.35.68 5.359.496 6.381.544 7.4.544c.451 0 .611.22.596.653a18.55 18.55 0 00.002 1.607c.024.478-.167.69-.639.682-.393-.006-.787.009-1.18.024-.476.017-.725.263-.723.748 0 .07-.004.14-.008.21C5.41 5.71 5.41 5.71 6.622 5.71c1.463 0 1.463 0 1.255 1.471-.197 1.394-.197 1.424-1.6 1.39-.632-.014-.855.174-.845.825.033 2.096-.006 4.194.022 6.29.007.637-.21.885-.847.85-.739-.04-1.484-.018-2.225-.012-.438.004-.622-.192-.616-.638.015-1.14.006-2.283.006-3.425-.002.004-.004.004-.004.004z" fill="#4064AD"/></svg><svg fill="none" viewBox="0 0 13 13" id="icon-file" xmlns="http://www.w3.org/2000/svg"><path d="M9.049 4.648c.478 0 .956-.005 1.433.003a.582.582 0 00.432-.178c.505-.467.766-1.012.626-1.715-.244-1.233-1.77-1.766-2.722-.946-.058.05-.114.103-.167.157-2.223 2.225-4.448 4.45-6.668 6.678-.756.758-.734 1.825.039 2.51a1.64 1.64 0 002.26-.057c.842-.822 1.666-1.66 2.497-2.492.596-.595 1.194-1.187 1.782-1.79.155-.158.261-.17.413.01.177.21.378.404.585.588.183.163.154.278-.01.44-.958.948-1.908 1.905-2.86 2.858-.46.46-.91.929-1.382 1.378C3.63 13.692.992 13.1.203 10.918-.242 9.688.058 8.569.97 7.645c1.807-1.83 3.632-3.643 5.45-5.463.446-.446.884-.901 1.341-1.335a3.113 3.113 0 013.437-.563 3.111 3.111 0 011.8 2.929c-.028.775-.321 1.447-.842 2.022-.777.859-.776.86-1.93.857-.64-.001-1.28.016-1.92-.004-.286-.009-.483.09-.676.288-.674.692-1.366 1.366-2.04 2.057-.161.165-.264.164-.414-.003-.204-.227-.426-.44-.647-.65-.116-.11-.12-.195-.005-.31.902-.896 1.8-1.797 2.698-2.698.104-.105.227-.126.366-.125.486.002.973 0 1.46 0z" fill="#BDBDBD"/></svg><svg fill="none" viewBox="0 0 28 28" id="icon-footer-fb" xmlns="http://www.w3.org/2000/svg"><circle cx="14" cy="14" r="14" fill="#25878A"/><path d="M12.197 17.171c0-.847-.015-1.694.006-2.54.01-.419-.093-.612-.562-.603-.868.017-.87-.009-.871-.913v-.395c.001-.96.001-.977.927-.997.403-.009.512-.178.506-.55-.007-.525-.034-1.05.086-1.572.247-1.092.903-1.747 1.993-1.948.816-.15 1.641-.11 2.465-.11.364 0 .493.178.481.528-.015.432-.021.866.002 1.298.019.386-.136.556-.517.55-.318-.005-.635.007-.953.02-.384.013-.585.212-.584.604 0 .056-.003.113-.006.169-.031 1.004-.031 1.004.948 1.004 1.182 0 1.182 0 1.014 1.188-.159 1.126-.159 1.15-1.293 1.123-.51-.012-.69.14-.682.666.027 1.693-.005 3.387.018 5.08.006.514-.17.715-.684.686-.597-.032-1.199-.014-1.797-.01-.354.004-.503-.154-.498-.515.012-.92.004-1.843.004-2.766-.001.003-.003.003-.003.003z" fill="#fff"/></svg><svg fill="none" viewBox="0 0 28 28" id="icon-footer-inst" xmlns="http://www.w3.org/2000/svg"><rect width="28" height="28" rx="14" fill="#25878A"/><path d="M17.494 6.2h-6.99A4.31 4.31 0 006.2 10.505v6.99a4.31 4.31 0 004.305 4.305h6.99a4.31 4.31 0 004.305-4.305v-6.99A4.31 4.31 0 0017.494 6.2zm2.921 11.295c0 1.61-1.31 2.92-2.92 2.92h-6.99c-1.611 0-2.922-1.31-2.922-2.92v-6.99c0-1.61 1.31-2.92 2.921-2.92h6.99c1.61 0 2.921 1.31 2.921 2.92v6.99z" fill="#fff"/><path d="M14 10.1c-2.15 0-3.9 1.75-3.9 3.9s1.75 3.9 3.9 3.9 3.9-1.75 3.9-3.9-1.75-3.9-3.9-3.9zm0 6.457A2.56 2.56 0 0111.443 14 2.56 2.56 0 0114 11.443 2.56 2.56 0 0116.557 14 2.56 2.56 0 0114 16.557zM18 9a1.004 1.004 0 00-1 1c0 .263.107.52.294.707.185.186.443.293.706.293.264 0 .52-.107.707-.293.187-.186.293-.444.293-.707 0-.264-.106-.522-.293-.707A1.004 1.004 0 0018 9z" fill="#fff"/></svg><svg fill="none" viewBox="0 0 28 28" id="icon-footer-ok" xmlns="http://www.w3.org/2000/svg"><circle cx="14" cy="14" r="14" fill="#25878A"/><path d="M12.762 16.565c-1.162-.12-2.21-.407-3.106-1.11-.112-.087-.227-.17-.328-.268-.393-.378-.432-.81-.122-1.255.266-.382.712-.484 1.176-.265.09.043.175.096.257.153 1.672 1.15 3.968 1.18 5.646.051a1.53 1.53 0 01.55-.284c.4-.103.774.044.989.395.245.4.242.79-.06 1.102a4.561 4.561 0 01-1.642 1.062c-.587.227-1.229.342-1.864.418.096.104.14.156.2.216.864.868 1.73 1.732 2.59 2.603.294.296.355.664.194 1.009-.177.377-.572.625-.959.599-.245-.017-.437-.14-.607-.311-.651-.656-1.315-1.3-1.953-1.968-.185-.194-.275-.158-.439.011a130.85 130.85 0 01-1.99 2c-.301.297-.66.35-1.008.181-.37-.18-.607-.558-.588-.939.012-.257.139-.454.315-.63.854-.854 1.706-1.71 2.558-2.565.056-.056.11-.117.191-.205z" fill="#fff"/><path d="M13.47 13.592c-2.073-.007-3.773-1.726-3.76-3.804A3.8 3.8 0 0113.516 6c2.097.006 3.78 1.723 3.77 3.845-.01 2.074-1.722 3.755-3.816 3.747zm1.884-3.8A1.848 1.848 0 0013.5 7.94a1.851 1.851 0 00-1.858 1.876 1.848 1.848 0 001.867 1.84 1.844 1.844 0 001.844-1.862z" fill="#fff"/></svg><svg fill="none" viewBox="0 0 28 28" id="icon-footer-vk" xmlns="http://www.w3.org/2000/svg"><circle cx="14" cy="14" r="14" fill="#25878A"/><path d="M15.693 12.313c0 .545-.001 1.09 0 1.634 0 .146.005.3.151.381.16.09.302.01.434-.078.397-.265.662-.65.93-1.028a13.741 13.741 0 001.512-2.688c.14-.34.346-.504.73-.487.519.023 1.04 0 1.56.007.523.007.74.313.549.798-.43 1.09-1.083 2.055-1.76 3.005-.137.193-.263.395-.4.588-.195.273-.146.506.08.742.507.53.998 1.074 1.505 1.604.39.409.692.873.941 1.372.2.4-.016.807-.468.823-.676.025-1.352.01-2.029.001-.234-.003-.39-.143-.525-.335-.576-.814-1.299-1.49-2.081-2.107-.041-.032-.086-.059-.131-.085-.485-.281-.72-.16-.738.391-.012.349-.002.699-.005 1.048-.006.634-.412 1.025-1.048 1.05-1.545.06-2.802-.594-3.926-1.551-1.123-.955-1.864-2.2-2.594-3.446-.553-.946-1.018-1.931-1.312-2.99-.192-.693.013-.96.745-.961.437 0 .874.003 1.31 0 .345-.004.566.145.683.47.305.853.625 1.701 1.048 2.505.342.65.732 1.267 1.259 1.789.073.072.15.144.238.197.233.144.39.082.472-.178a.681.681 0 00.038-.212c-.011-.923.053-1.848-.058-2.77-.055-.45-.31-.798-.561-1.152-.094-.133-.23-.26-.14-.442.091-.185.276-.155.44-.155.821-.002 1.644-.003 2.466 0 .522.001.68.16.682.689.003.523.001 1.048.001 1.571h.002z" fill="#fff"/></svg><svg fill="none" viewBox="0 0 13 13" id="icon-link" xmlns="http://www.w3.org/2000/svg"><path d="M9.049 4.648c.478 0 .956-.005 1.433.003a.582.582 0 00.432-.178c.505-.467.766-1.012.626-1.715-.244-1.233-1.77-1.766-2.722-.946-.058.05-.114.103-.167.157-2.223 2.225-4.448 4.45-6.668 6.678-.756.758-.734 1.825.039 2.51a1.64 1.64 0 002.26-.057c.842-.822 1.666-1.66 2.497-2.492.596-.595 1.194-1.187 1.782-1.79.155-.158.261-.17.413.01.177.21.378.404.585.588.183.163.154.278-.01.44-.958.948-1.908 1.905-2.86 2.858-.46.46-.91.929-1.382 1.378C3.63 13.692.992 13.1.203 10.918-.242 9.688.058 8.569.97 7.645c1.807-1.83 3.632-3.643 5.45-5.463.446-.446.884-.901 1.341-1.335a3.113 3.113 0 013.437-.563 3.111 3.111 0 011.8 2.929c-.028.775-.321 1.447-.842 2.022-.777.859-.776.86-1.93.857-.64-.001-1.28.016-1.92-.004-.286-.009-.483.09-.676.288-.674.692-1.366 1.366-2.04 2.057-.161.165-.264.164-.414-.003-.204-.227-.426-.44-.647-.65-.116-.11-.12-.195-.005-.31.902-.896 1.8-1.797 2.698-2.698.104-.105.227-.126.366-.125.486.002.973 0 1.46 0z" fill="#fff"/></svg><svg fill="none" viewBox="0 0 9 14" id="icon-link-arrow" xmlns="http://www.w3.org/2000/svg"><path d="M.105 12l4.982-5L.105 2 1.1 0l6.975 7-6.975 7-.996-2z" fill="#000"/></svg><svg fill="none" viewBox="0 0 13 13" id="icon-menu-about" xmlns="http://www.w3.org/2000/svg"><path d="M13 6.498V.415C13 .032 12.969 0 12.585 0L.479.003C.01.003.007.01.007.476c0 2.632.008 5.263-.005 7.895-.007 1.347.344 2.542 1.354 3.485.823.769 1.815 1.13 2.927 1.135 2.797.012 5.594.003 8.391.01.296 0 .327-.159.326-.391-.004-2.037-.002-4.074-.002-6.112H13zm-1.473.002v4.619c0 .396-.002.401-.38.401-2.358.001-4.716.009-7.073-.005-1.372-.008-2.579-1.216-2.587-2.59-.014-2.358-.001-4.716-.012-7.074-.002-.292.083-.385.381-.384 3.098.01 6.196.01 9.295 0 .296 0 .384.09.381.384-.012 1.55-.005 3.1-.005 4.649z" fill="#fff"/><path d="M6.52 3.765h3.768c.384 0 .384-.001.386-.394.001-.243-.009-.487.005-.73.014-.242-.087-.32-.324-.319-1.187.008-2.375.003-3.562.003-1.363 0-2.726.009-4.089-.004-.298-.004-.402.09-.377.384.022.242.02.488.002.73-.018.258.084.336.337.334 1.284-.01 2.57-.004 3.854-.004zM7.057 8.07c-1.072 0-2.142-.001-3.214.001-.352 0-.382.034-.383.385 0 .244.013.488 0 .73-.016.267.093.36.357.358 1.042-.009 2.084-.001 3.127-.001 1.12 0 2.24-.008 3.36.002.27.003.4-.07.375-.362a4.472 4.472 0 010-.73c.025-.292-.081-.395-.378-.39-.867.014-1.734.005-2.6.005h-.643l-.001.002zM8.803 7.218c.515 0 1.03-.007 1.546.004.233.006.342-.063.329-.312-.015-.291-.008-.584-.003-.876.002-.163-.055-.255-.234-.255a929.43 929.43 0 01-3.297.001c-.145 0-.223.065-.224.207-.003.34-.002.68 0 1.02.001.188.124.214.277.212.535-.003 1.07-.001 1.606 0zM4.192 7.22c.525 0 1.05-.01 1.576.004.243.006.332-.088.323-.323-.01-.282-.005-.564-.002-.846.002-.192-.072-.28-.277-.278-1.07.006-2.14.006-3.208 0-.2 0-.282.077-.276.277.009.292.012.583.001.875-.008.212.073.296.289.292.524-.01 1.05-.003 1.575-.003v.002z" fill="#fff"/></svg><svg fill="none" viewBox="0 0 12 13" id="icon-menu-blogs" xmlns="http://www.w3.org/2000/svg"><path d="M2.15 7.252c0-.415.004-.83-.002-1.244a.48.48 0 01.157-.376C4.183 3.792 6.06 1.952 7.933.108c.139-.137.235-.146.376-.006.593.59 1.194 1.171 1.792 1.757.286.28.565.568.854.846.247.237.252.232-.004.484L6.525 7.533c-.382.374-.766.747-1.144 1.124a.53.53 0 01-.405.169 135.05 135.05 0 00-2.51-.001c-.25.003-.329-.09-.32-.328.014-.414.004-.83.004-1.244v-.001zm1.992.233c.186-.045.443.088.65-.115a2249.1 2249.1 0 014.367-4.283c.117-.114.113-.194-.003-.304-.28-.263-.56-.524-.817-.807-.165-.182-.262-.155-.425.006A385.39 385.39 0 013.87 5.944c-.285.274-.428.545-.4.943.048.658-.117.6.672.598zM6.032 9.591h5.61c.339 0 .35.011.353.339.002.22-.008.441.004.661.012.227-.078.31-.314.308-1.124-.008-2.247-.003-3.371-.003-2.634 0-5.268 0-7.902-.002-.41 0-.413-.005-.41-.419.001-.194.011-.388 0-.582-.014-.228.076-.307.312-.306 1.357.009 2.715.004 4.072.004h1.646zM4.42 11.665h4.017c.354 0 .368.012.37.351.002.22-.009.441.004.661.013.242-.093.325-.333.323-1.123-.006-2.247-.001-3.37-.001L.47 12.996c-.47 0-.47-.002-.466-.476.001-.185.011-.371-.002-.556-.015-.234.09-.303.319-.302 1.365.007 2.732.004 4.098.004v-.001z" fill="#fff"/></svg><svg fill="none" viewBox="0 0 13 13" id="icon-menu-gallery" xmlns="http://www.w3.org/2000/svg"><path d="M10.415 3.419L7.006.202A.743.743 0 006.496 0a.743.743 0 00-.51.198L5.98.202 2.586 3.42H.723a.743.743 0 00-.51.2.667.667 0 00-.212.484v8.213c0 .181.076.355.211.484.136.128.32.2.511.2H12.28a.743.743 0 00.51-.2.667.667 0 00.212-.484V4.103a.667.667 0 00-.212-.484.743.743 0 00-.51-.2h-1.864zM6.501 1.653L8.364 3.42H4.638L6.5 1.653zm5.055 9.978H1.447V4.788h10.11v6.843zm-6.5-4.79a.667.667 0 01-.211.484.743.743 0 01-.51.2.743.743 0 01-.511-.2.667.667 0 01-.212-.484c0-.182.076-.356.212-.484.135-.129.319-.2.51-.2.192 0 .375.071.51.2a.667.667 0 01.212.484zm5.056 3.422H4.334l1.084-2.054.722 1.37 1.805-3.423 2.167 4.107z" fill="#fff"/></svg><svg fill="none" viewBox="0 0 14 14" id="icon-menu-home" xmlns="http://www.w3.org/2000/svg"><path d="M12.78 9.694c0 1.158.002 2.315 0 3.474 0 .474-.17.629-.687.63H8.705c-.487-.002-.663-.165-.664-.623-.002-1.208.005-2.416-.002-3.625-.005-.783-.475-1.346-1.233-1.503-.958-.199-1.832.488-1.842 1.47-.012 1.199-.003 2.397-.004 3.595 0 .543-.15.685-.724.685-1.119.001-2.237.002-3.355 0-.473 0-.658-.166-.659-.596C.221 10.845.223 8.488.22 6.132c0-.217.075-.383.24-.536C2.318 3.875 4.174 2.15 6.034.43c.325-.3.606-.302.931-.002 1.86 1.721 3.716 3.447 5.577 5.167.175.162.244.34.242.566-.007 1.178-.002 2.356-.003 3.534zm-11.469-.18c0 .988.006 1.974-.004 2.961-.003.232.066.324.331.317.63-.015 1.26-.015 1.89 0 .276.007.35-.086.348-.331a191.788 191.788 0 01-.004-3.082c.008-1.346 1.161-2.392 2.632-2.394 1.459-.002 2.618 1.053 2.626 2.4.006 1.027.009 2.054-.003 3.082-.004.252.086.332.354.325a33.616 33.616 0 011.824.001c.293.009.395-.066.393-.353a635.81 635.81 0 01-.003-5.892.595.595 0 00-.208-.48A919.371 919.371 0 016.72 1.644c-.174-.164-.272-.154-.441.004A994.104 994.104 0 011.51 6.07a.594.594 0 00-.203.483c.008.986.004 1.974.004 2.961z" fill="#fff"/><path d="M10.233 14H8.705c-.608-.001-.88-.255-.88-.824-.002-.477-.002-.954 0-1.431 0-.72 0-1.463-.004-2.194-.004-.68-.401-1.17-1.062-1.307-.378-.078-.751 0-1.051.22a1.31 1.31 0 00-.527 1.055c-.008.817-.007 1.648-.005 2.451l.002 1.142c0 .655-.247.887-.942.887h-.052c-1.101 0-2.202.002-3.304 0-.597 0-.875-.255-.875-.798v-2.81c0-1.42 0-2.839-.003-4.258a.87.87 0 01.303-.68l2.945-2.73L5.88.286c.411-.38.828-.38 1.238-.001L9.672 2.65c1.007.934 2.014 1.868 3.023 2.8a.9.9 0 01.307.71c-.005.854-.005 1.723-.004 2.562v4.446c-.001.58-.272.83-.905.83l-1.86.002zM6.479 7.813c.124 0 .25.013.374.039.86.178 1.397.829 1.402 1.698.004.732.004 1.476.003 2.196v1.43c0 .346.08.42.446.422h3.387c.4-.001.47-.065.47-.428l.001-2.316V9.695v-.971c0-.841 0-1.71.004-2.564a.515.515 0 00-.18-.423c-1.008-.932-2.016-1.866-3.023-2.8-.85-.79-1.701-1.579-2.553-2.366C6.57.35 6.426.35 6.185.572L3.558 3.008C2.576 3.92 1.594 4.83.61 5.738a.488.488 0 00-.176.393c.003 1.42.003 2.84.003 4.26L.44 13.2c0 .317.087.394.441.395 1.102.002 2.202 0 3.302 0h.052c.455 0 .508-.05.508-.485l-.001-1.14a193.18 193.18 0 01.005-2.456 1.7 1.7 0 01.692-1.367c.3-.22.665-.336 1.04-.336zm4.869 5.183l-.05-.001a33.065 33.065 0 00-1.811-.001c-.126.003-.31-.007-.438-.123-.128-.118-.141-.288-.14-.407.013-1.076.01-2.16.003-3.079-.007-1.233-1.064-2.198-2.405-2.198h-.004c-1.347.001-2.407.965-2.414 2.193-.005.92-.009 2.005.003 3.079.002.13-.013.296-.14.412-.128.117-.307.126-.431.123a38.422 38.422 0 00-1.878 0c-.12.003-.292-.007-.418-.12-.124-.113-.138-.273-.137-.4.008-.722.007-1.457.005-2.168V8.732c.001-.714.002-1.452-.003-2.177a.782.782 0 01.267-.627 949.058 949.058 0 004.766-4.423c.097-.09.217-.182.378-.182s.284.095.372.178C8.285 2.821 9.8 4.226 11.64 5.924a.786.786 0 01.272.624c-.005 1.887-.01 3.896.004 5.89 0 .137-.015.31-.149.43-.117.106-.279.127-.418.127zm-.94-.417c.31 0 .61.004.904.013.12.003.15-.011.154-.013 0 0 .016-.03.015-.138a638.27 638.27 0 01-.004-5.893.405.405 0 00-.144-.338 977.457 977.457 0 01-4.768-4.425.468.468 0 00-.064-.053.588.588 0 00-.07.057 876.53 876.53 0 01-4.768 4.426c-.102.094-.14.186-.139.338.006.727.005 1.466.004 2.181l-.001.782v.79c.002.712.003 1.448-.004 2.173-.001.064.005.094.01.107a.377.377 0 00.098.007c.64-.016 1.28-.016 1.9 0a.355.355 0 00.114-.01.347.347 0 00.012-.119 184.161 184.161 0 01-.003-3.085C3.66 7.926 4.913 6.786 6.5 6.784h.005c1.584 0 2.831 1.14 2.84 2.599.005.92.01 2.006-.004 3.085 0 .071.008.103.012.113.013.004.046.01.12.009.325-.008.635-.012.935-.012z" fill="#fff"/></svg><svg fill="none" viewBox="0 0 13 13" id="icon-menu-link" xmlns="http://www.w3.org/2000/svg"><path d="M9.049 4.648c.478 0 .956-.004 1.433.003a.582.582 0 00.432-.178c.505-.467.766-1.012.626-1.715-.244-1.233-1.77-1.765-2.722-.946-.058.05-.114.103-.167.157-2.223 2.225-4.448 4.45-6.668 6.678-.756.759-.734 1.825.039 2.51a1.64 1.64 0 002.26-.057c.842-.822 1.666-1.66 2.497-2.492.596-.595 1.194-1.187 1.782-1.789.155-.16.261-.171.413.008.177.212.378.406.585.59.183.162.154.277-.01.439-.958.948-1.908 1.905-2.86 2.858-.46.46-.91.93-1.382 1.378C3.63 13.692.992 13.1.203 10.918-.242 9.69.058 8.57.97 7.645c1.807-1.83 3.632-3.642 5.45-5.463.446-.446.884-.9 1.341-1.335a3.113 3.113 0 013.437-.563 3.111 3.111 0 011.8 2.93c-.028.774-.321 1.446-.842 2.022-.777.858-.776.859-1.93.856-.64-.001-1.28.016-1.92-.003-.286-.01-.483.088-.676.287-.674.693-1.366 1.366-2.04 2.057-.161.165-.264.164-.414-.003a11.52 11.52 0 00-.647-.65c-.116-.11-.12-.194-.005-.31.902-.896 1.8-1.796 2.698-2.698.104-.105.227-.125.366-.125.486.002.973 0 1.46.001z" fill="#fff"/></svg><svg fill="none" viewBox="0 0 13 14" id="icon-menu-news" xmlns="http://www.w3.org/2000/svg"><path d="M0 6.48C0 4.452 0 2.425.003.399.002.034.037 0 .406 0l12.162.003c.412 0 .429.021.429.428 0 1.032-.006 2.066.004 3.099.002.26-.073.377-.35.357a6.815 6.815 0 00-.819 0c-.23.01-.31-.087-.309-.31.007-.594-.007-1.189.004-1.783.004-.24-.078-.324-.32-.323-3.139.006-6.277.006-9.415 0-.244 0-.32.087-.32.325.006 3.138.006 6.277 0 9.415 0 .25.097.319.33.314.545-.01 1.091.007 1.637-.004.257-.005.348.094.335.346a8.783 8.783 0 00-.002.847c.009.227-.103.284-.303.284a258.836 258.836 0 00-3.128.004c-.259.002-.339-.109-.337-.352.006-1.004 0-2.008 0-3.011C.001 8.584.002 7.532.001 6.479z" fill="#fff"/><path d="M5.332 12.995c-.824 0-.711.078-.714-.718-.016-3.65 2.654-6.873 6.242-7.527a9.22 9.22 0 011.831-.138c.228.005.317.092.31.313a9.88 9.88 0 00-.002.818c.012.252-.087.349-.34.346-.593-.009-1.185-.002-1.771.136a6.218 6.218 0 00-4.765 5.24c-.046.346-.03.7-.035 1.051-.007.479-.003.479-.493.48-.088-.002-.175-.002-.263-.002z" fill="#fff"/><path d="M7.663 12.995h-.087c-.712.004-.68.061-.66-.66.055-2.004.898-3.577 2.617-4.647.976-.608 2.057-.797 3.189-.775.198.004.28.095.277.287-.004.292-.01.585 0 .877.007.226-.085.314-.312.308-.467-.014-.933-.003-1.391.114a3.894 3.894 0 00-2.91 3.666c-.003.166-.014.333 0 .497.022.258-.093.354-.341.334-.128-.01-.255-.002-.382-.002z" fill="#fff"/><path d="M12.996 9.968c-.001.689-.001.689-.697.704-.93.02-1.61.707-1.627 1.643-.01.679-.01.68-.69.68-.88.001-.747.08-.746-.74a3.01 3.01 0 013.007-3.02c.831-.003.754-.135.753.733z" fill="#fff"/></svg><svg fill="none" viewBox="0 0 13 13" id="icon-menu-points" xmlns="http://www.w3.org/2000/svg"><path d="M6.501 7.221H.392c-.377 0-.387-.008-.388-.398L.001 2.731c0-.39.016-.403.417-.403.907 0 1.812-.006 2.718.005.24.003.331-.072.326-.317-.014-.555 0-1.11-.009-1.666-.005-.244.085-.35.34-.35C5.605.007 7.418.008 9.23.004c.248 0 .317.115.314.342-.009.555.005 1.11-.008 1.666-.005.24.08.324.322.32.925-.01 1.85.007 2.776-.007.287-.005.368.098.367.373-.011 1.374-.006 2.748-.007 4.122 0 .4-.004.402-.413.402H6.5zM6.497 3.77c-1.568 0-3.137.003-4.704-.004-.241-.002-.33.076-.322.319.014.457.017.916 0 1.373-.01.264.095.338.343.329.379-.015.76-.004 1.14-.004 2.745 0 5.493-.002 8.239.005.256 0 .345-.078.335-.334a14.478 14.478 0 010-1.315c.015-.302-.095-.377-.385-.375-1.55.013-3.098.006-4.646.006zm-.028-1.441v.001c.447 0 .895-.005 1.342.003.188.003.271-.069.258-.257a1.294 1.294 0 010-.233c.03-.273-.073-.378-.36-.37-.739.016-1.478.005-2.217.005-.597 0-.59-.001-.568.596.007.186.073.26.26.257.43-.007.858-.002 1.285-.002zM6.482 13H.402c-.368 0-.397-.027-.398-.4C.002 11.226.001 9.852.002 8.479c0-.393.015-.406.415-.408.244-.002.488.013.731-.001.262-.015.335.101.333.348-.01.916.004 1.832-.01 2.747-.005.286.095.365.37.365 3.127-.007 6.255-.007 9.382-.001.23 0 .305-.081.304-.308-.008-.925.004-1.85-.006-2.777-.004-.273.078-.394.365-.375.282.019.565.01.847.004.188-.004.265.084.265.264a1164.82 1164.82 0 00-.002 4.385c.001.276-.18.276-.375.276L8.266 13H6.482z" fill="#fff"/></svg><svg fill="none" viewBox="0 0 13 10" id="icon-menu-warning" xmlns="http://www.w3.org/2000/svg"><path d="M6.498 9.988c-2.052 0-4.105 0-6.157-.002-.112 0-.266.055-.326-.057-.059-.11.074-.202.134-.293C2.197 6.5 4.246 3.367 6.296.234c.207-.316.208-.31.413.003 2.054 3.141 4.108 6.282 6.16 9.424.056.084.176.169.115.273-.06.102-.2.054-.303.054-2.061.003-4.123.002-6.183.002v-.002zM6.485 8.7v.006c1.305 0 2.61-.002 3.916.002.233.001.212-.079.115-.227-1.282-1.955-2.56-3.91-3.84-5.866-.17-.26-.178-.26-.35 0-.632.961-1.26 1.925-1.89 2.889-.65.992-1.299 1.985-1.95 2.976-.095.143-.13.233.11.228.471-.009.943-.007 1.415-.008h2.474z" fill="#fff"/><path d="M7.171 6.274c0 .459-.01.918.005 1.377.007.232-.087.308-.318.298-.253-.012-.508-.004-.761 0-.173.002-.27-.052-.268-.24.005-.953.005-1.905 0-2.858-.002-.194.081-.261.276-.255.272.009.543.008.815 0 .19-.005.257.074.255.249-.006.476-.002.952-.002 1.429H7.17z" fill="#fff"/></svg><svg fill="none" viewBox="0 0 14 14" id="icon-mmenu-main" xmlns="http://www.w3.org/2000/svg"><path d="M12.78 9.694c0 1.158.002 2.315 0 3.474 0 .474-.17.629-.687.63H8.705c-.487-.002-.663-.165-.664-.623-.002-1.208.005-2.416-.002-3.625-.005-.783-.475-1.346-1.233-1.503-.958-.199-1.832.488-1.842 1.47-.012 1.199-.003 2.397-.004 3.595 0 .543-.15.685-.724.685-1.119.001-2.237.002-3.355 0-.473 0-.658-.166-.659-.596C.221 10.845.223 8.488.22 6.132c0-.217.075-.383.24-.536C2.318 3.875 4.174 2.15 6.034.43c.325-.3.606-.302.931-.002 1.86 1.721 3.716 3.447 5.577 5.167.175.162.244.34.242.566-.007 1.178-.002 2.356-.003 3.534zm-11.469-.18c0 .988.006 1.974-.004 2.961-.003.232.066.324.331.317.63-.015 1.26-.015 1.89 0 .276.007.35-.086.348-.331a191.788 191.788 0 01-.004-3.082c.008-1.346 1.161-2.392 2.632-2.394 1.459-.002 2.618 1.053 2.626 2.4.006 1.027.009 2.054-.003 3.082-.004.252.086.332.354.325a33.616 33.616 0 011.824.001c.293.009.395-.066.393-.353a635.81 635.81 0 01-.003-5.892.595.595 0 00-.208-.48A919.371 919.371 0 016.72 1.644c-.174-.164-.272-.154-.441.004A994.104 994.104 0 011.51 6.07a.594.594 0 00-.203.483c.008.986.004 1.974.004 2.961z" fill="#fff"/><path d="M10.233 14H8.705c-.608-.001-.88-.255-.88-.824-.002-.477-.002-.954 0-1.431 0-.72 0-1.463-.004-2.194-.004-.68-.401-1.17-1.062-1.307-.378-.078-.751 0-1.051.22a1.31 1.31 0 00-.527 1.055c-.008.817-.007 1.648-.005 2.451l.002 1.142c0 .655-.247.887-.942.887h-.052c-1.101 0-2.202.002-3.304 0-.597 0-.875-.255-.875-.798v-2.81c0-1.42 0-2.839-.003-4.258a.87.87 0 01.303-.68l2.945-2.73L5.88.286c.411-.38.828-.38 1.238-.001L9.672 2.65c1.007.934 2.014 1.868 3.023 2.8a.9.9 0 01.307.71c-.005.854-.005 1.723-.004 2.562v4.446c-.001.58-.272.83-.905.83l-1.86.002zM6.479 7.813c.124 0 .25.013.374.039.86.178 1.397.829 1.402 1.698.004.732.004 1.476.003 2.196v1.43c0 .346.08.42.446.422h3.387c.4-.001.47-.065.47-.428l.001-2.316V9.695v-.971c0-.841 0-1.71.004-2.564a.515.515 0 00-.18-.423c-1.008-.932-2.016-1.866-3.023-2.8-.85-.79-1.701-1.579-2.553-2.366C6.57.35 6.426.35 6.185.572L3.558 3.008C2.576 3.92 1.594 4.83.61 5.738a.488.488 0 00-.176.393c.003 1.42.003 2.84.003 4.26L.44 13.2c0 .317.087.394.441.395 1.102.002 2.202 0 3.302 0h.052c.455 0 .508-.05.508-.485l-.001-1.14a193.18 193.18 0 01.005-2.456 1.7 1.7 0 01.692-1.367c.3-.22.665-.336 1.04-.336zm4.869 5.183l-.05-.001a33.065 33.065 0 00-1.811-.001c-.126.003-.31-.007-.438-.123-.128-.118-.141-.288-.14-.407.013-1.076.01-2.16.003-3.079-.007-1.233-1.064-2.198-2.405-2.198h-.004c-1.347.001-2.407.965-2.414 2.193-.005.92-.009 2.005.003 3.079.002.13-.013.296-.14.412-.128.117-.307.126-.431.123a38.422 38.422 0 00-1.878 0c-.12.003-.292-.007-.418-.12-.124-.113-.138-.273-.137-.4.008-.722.007-1.457.005-2.168V8.732c.001-.714.002-1.452-.003-2.177a.782.782 0 01.267-.627 949.058 949.058 0 004.766-4.423c.097-.09.217-.182.378-.182s.284.095.372.178C8.285 2.821 9.8 4.226 11.64 5.924a.786.786 0 01.272.624c-.005 1.887-.01 3.896.004 5.89 0 .137-.015.31-.149.43-.117.106-.279.127-.418.127zm-.94-.417c.31 0 .61.004.904.013.12.003.15-.011.154-.013 0 0 .016-.03.015-.138a638.27 638.27 0 01-.004-5.893.405.405 0 00-.144-.338 977.457 977.457 0 01-4.768-4.425.468.468 0 00-.064-.053.588.588 0 00-.07.057 876.53 876.53 0 01-4.768 4.426c-.102.094-.14.186-.139.338.006.727.005 1.466.004 2.181l-.001.782v.79c.002.712.003 1.448-.004 2.173-.001.064.005.094.01.107a.377.377 0 00.098.007c.64-.016 1.28-.016 1.9 0a.355.355 0 00.114-.01.347.347 0 00.012-.119 184.161 184.161 0 01-.003-3.085C3.66 7.926 4.913 6.786 6.5 6.784h.005c1.584 0 2.831 1.14 2.84 2.599.005.92.01 2.006-.004 3.085 0 .071.008.103.012.113.013.004.046.01.12.009.325-.008.635-.012.935-.012z" fill="#fff"/></svg><svg fill="none" viewBox="0 0 9 14" id="icon-ok" xmlns="http://www.w3.org/2000/svg"><path d="M3.762 9.861C2.6 9.748 1.552 9.481.656 8.825c-.112-.081-.227-.16-.328-.25-.393-.353-.432-.756-.122-1.172.266-.356.712-.451 1.176-.247.09.04.175.09.257.142 1.672 1.073 3.968 1.103 5.646.049.166-.12.344-.217.55-.266.4-.096.774.041.989.368.245.374.242.739-.06 1.03-.464.444-1.022.766-1.642.99-.587.213-1.229.32-1.864.39.095.098.14.146.2.202.864.81 1.73 1.617 2.59 2.43.294.276.355.62.194.941a1.032 1.032 0 01-.959.56c-.245-.017-.437-.13-.607-.29-.651-.613-1.315-1.214-1.953-1.838-.185-.18-.275-.147-.439.01-.655.63-1.32 1.251-1.99 1.868-.301.277-.66.327-1.008.169-.37-.168-.607-.522-.588-.877.012-.24.139-.424.315-.588.854-.797 1.706-1.596 2.558-2.394.057-.053.11-.109.191-.191z" fill="#E77D08"/><path d="M4.47 7.086C2.397 7.08.697 5.475.71 3.536.72 1.574 2.422-.006 4.516 0c2.097.005 3.78 1.608 3.77 3.59-.01 1.934-1.722 3.503-3.816 3.496zM6.354 3.54C6.35 2.577 5.529 1.81 4.5 1.81c-1.037-.001-1.865.78-1.857 1.75.007.96.835 1.721 1.867 1.718 1.029-.004 1.847-.775 1.844-1.738z" fill="#E77D08"/></svg><svg fill="none" viewBox="0 0 15 16" id="icon-quote-end" xmlns="http://www.w3.org/2000/svg"><path d="M14.129 5.563c0 1.816-.361 3.574-1.084 5.273-.723 1.719-1.729 3.184-3.018 4.394l-2.109-1.494c.937-1.308 1.621-2.597 2.05-3.867.43-1.25.645-2.656.645-4.219V.553h3.516v5.01zm-7.236 0c0 1.816-.362 3.574-1.084 5.273-.723 1.719-1.729 3.184-3.018 4.394l-2.11-1.494c.938-1.308 1.622-2.597 2.051-3.867.43-1.25.645-2.656.645-4.219V.553h3.516v5.01z" fill="#00787C"/></svg><svg fill="none" viewBox="0 0 15 16" id="icon-quote-start" xmlns="http://www.w3.org/2000/svg"><path d="M.871 10.438c0-1.817.361-3.575 1.084-5.274C2.678 3.445 3.684 1.98 4.973.77l2.109 1.494C6.145 3.572 5.461 4.86 5.032 6.13c-.43 1.25-.645 2.656-.645 4.219v5.097H.87v-5.01zm7.236 0c0-1.817.362-3.575 1.084-5.274C9.914 3.445 10.92 1.98 12.21.77l2.11 1.494c-.938 1.308-1.622 2.597-2.051 3.867-.43 1.25-.645 2.656-.645 4.219v5.097H8.107v-5.01z" fill="#00787C"/></svg><svg fill="none" viewBox="0 0 19 18" id="icon-search" xmlns="http://www.w3.org/2000/svg"><path d="M18.002 16l-5.154-5.153a7 7 0 10-2 2L16.002 18l2-2zm-16-8.999c0-2.757 2.243-5 5-5s5 2.243 5 5-2.243 5-5 5-5-2.243-5-5z" fill="#000"/></svg><svg viewBox="0 0 21 36" id="icon-slider-next" xmlns="http://www.w3.org/2000/svg"><path d="M0 30.857L13.125 18 0 5.143 2.625 0 21 18 2.625 36 0 30.857z"/></svg><svg viewBox="0 0 21 36" id="icon-slider-prev" xmlns="http://www.w3.org/2000/svg"><path d="M21 30.857L7.875 18 21 5.143 18.375 0 0 18l18.375 18L21 30.857z"/></svg><svg fill="none" viewBox="0 0 17 14" id="icon-telegram" xmlns="http://www.w3.org/2000/svg"><path d="M16.162.322a.462.462 0 00-.179.032L.326 6.307a.503.503 0 00.016.948l3.63 1.223 2.186 4.382.008.008c.04.081.122.13.21.13a.242.242 0 00.155-.057L8.58 11.2 6.288 9.466l.178 2.285-1.644-3.41 8.748-5.257-7.282 6.374 5.67 4.301a1 1 0 00.623.211 1.03 1.03 0 001.005-.786L16.648.93c.08-.308-.179-.607-.486-.607z" fill="#1A8EC8"/></svg><svg fill="none" viewBox="0 0 16 16" id="icon-title-bag" xmlns="http://www.w3.org/2000/svg"><path d="M8 8.888H.482c-.465 0-.477-.011-.478-.49C0 6.718 0 5.041 0 3.361c0-.479.02-.496.514-.496 1.115 0 2.23-.007 3.345.007.294.003.407-.09.4-.39-.016-.684 0-1.367-.01-2.05-.006-.301.105-.433.418-.432 2.23.009 4.461.01 6.691.005.307-.001.391.14.387.42-.01.684.006 1.367-.01 2.051-.006.296.099.399.396.395 1.14-.013 2.278.007 3.418-.01.352-.006.453.121.451.46-.014 1.69-.007 3.381-.009 5.073 0 .493-.005.495-.508.495L8 8.888zm-.005-4.25c-1.93 0-3.86.005-5.79-.005-.297-.002-.405.095-.395.393.017.563.02 1.127-.001 1.69-.013.325.118.417.422.405.467-.018.935-.005 1.403-.005 3.38 0 6.76-.003 10.14.006.316.001.426-.095.414-.41a17.813 17.813 0 01-.001-1.619c.019-.372-.117-.464-.474-.462-1.906.016-3.813.007-5.718.007zM7.96 2.865v.002c.55 0 1.101-.007 1.651.003.232.004.334-.085.318-.316a1.593 1.593 0 010-.287c.037-.336-.09-.465-.443-.456-.91.02-1.82.007-2.729.006-.734 0-.726 0-.699.734.009.23.09.32.321.317.528-.009 1.055-.003 1.581-.003zM7.976 15.999H.494c-.454 0-.49-.032-.49-.492C0 13.818 0 12.127 0 10.436c0-.484.02-.499.512-.502.3-.002.6.016.9 0 .32-.019.41.124.408.427-.012 1.128.006 2.255-.012 3.382-.006.351.117.45.456.448 3.848-.008 7.698-.008 11.546 0 .283 0 .377-.1.375-.379-.01-1.139.005-2.278-.008-3.418-.004-.336.097-.486.45-.462.347.023.695.012 1.043.005.23-.005.325.104.325.325-.003 1.799-.006 3.598-.002 5.396.001.341-.22.341-.461.341l-5.36.002-2.197-.001z" fill="#000"/></svg><svg fill="none" viewBox="0 0 16 16" id="icon-title-gallery" xmlns="http://www.w3.org/2000/svg"><path d="M12.818 4.208L8.622.249A.914.914 0 007.995 0a.915.915 0 00-.63.244L7.36.25 3.182 4.208H.89a.914.914 0 00-.629.247.82.82 0 00-.26.595v10.108a.82.82 0 00.26.595A.914.914 0 00.89 16H15.11a.914.914 0 00.629-.247.82.82 0 00.26-.595V5.05a.82.82 0 00-.26-.595.915.915 0 00-.629-.247h-2.293zM8 2.035l2.293 2.173H5.707L8 2.035zm6.222 12.28H1.778V5.893h12.444v8.422zm-8-5.896a.82.82 0 01-.26.596.914.914 0 01-.629.247.914.914 0 01-.628-.247.82.82 0 01-.26-.596.82.82 0 01.26-.595.914.914 0 01.628-.247c.236 0 .462.089.629.247a.82.82 0 01.26.595zm6.222 4.212h-7.11l1.333-2.527.889 1.685 2.222-4.212 2.666 5.054z" fill="#000"/></svg><svg fill="none" viewBox="0 0 16 16" id="icon-title-star" xmlns="http://www.w3.org/2000/svg"><path d="M2.734 15.02l.285-2.321c.09-.722.178-1.445.275-2.166.025-.182-.067-.289-.17-.404C2.207 9.116 1.297 8.098.377 7.091.106 6.793-.088 6.483.04 6.056c.128-.424.444-.571.84-.645 1.28-.24 2.554-.515 3.836-.746.3-.055.461-.202.596-.465.615-1.198 1.247-2.386 1.865-3.583.183-.355.42-.619.83-.617.394.002.628.257.806.6.641 1.234 1.294 2.461 1.932 3.697.112.216.257.311.49.355 1.342.252 2.682.518 4.021.79.734.149.986.943.477 1.515a254.983 254.983 0 01-2.788 3.088c-.194.21-.258.405-.216.704.192 1.376.355 2.757.524 4.136.046.373-.027.707-.339.941-.321.242-.645.202-.986.029-1.191-.602-2.39-1.188-3.58-1.791a.671.671 0 00-.681.002c-1.15.587-2.313 1.15-3.47 1.721-.202.1-.403.207-.63.213-.47.01-.84-.412-.833-.98zm-.197-8.14c.076.098.112.15.154.197.675.749 1.349 1.498 2.025 2.245.203.225.362.475.325.797-.123 1.052-.257 2.1-.387 3.152-.012.094-.08.205.021.273.08.052.16-.03.233-.066.852-.42 1.705-.839 2.553-1.267.37-.187.717-.188 1.092.005.844.437 1.7.85 2.551 1.27.073.036.152.114.234.05.066-.052.028-.142.018-.218-.123-1.007-.23-2.016-.376-3.02-.059-.405.055-.708.313-.988.565-.614 1.125-1.234 1.684-1.852.156-.173.307-.351.5-.574-1.084-.214-2.1-.422-3.118-.61-.36-.067-.625-.236-.8-.576-.473-.914-.952-1.824-1.433-2.734-.036-.068-.038-.178-.159-.187-.498.95-1.006 1.894-1.49 2.85-.19.377-.463.574-.858.647-1.01.188-2.016.396-3.082.606z" fill="#000"/></svg><svg fill="none" viewBox="0 0 60 60" id="icon-top" xmlns="http://www.w3.org/2000/svg"><path fill-rule="evenodd" clip-rule="evenodd" d="M30 56.25a26.25 26.25 0 100-52.5 26.25 26.25 0 000 52.5zM30 60a30 30 0 100-60 30 30 0 000 60z" fill="#00787C"/><path fill-rule="evenodd" clip-rule="evenodd" d="M17.422 31.327a1.875 1.875 0 002.655 0L30 21.401l9.922 9.926a1.877 1.877 0 102.655-2.655l-11.25-11.25a1.873 1.873 0 00-2.655 0l-11.25 11.25a1.875 1.875 0 000 2.655z" fill="#00787C"/><path fill-rule="evenodd" clip-rule="evenodd" d="M30 43.125a1.875 1.875 0 001.875-1.875V22.5a1.875 1.875 0 10-3.75 0v18.75A1.875 1.875 0 0030 43.125z" fill="#00787C"/></svg><svg fill="none" viewBox="0 0 16 13" id="icon-twitter" xmlns="http://www.w3.org/2000/svg"><path d="M14.824 1.845c-.35.098-.623.084-.623.084l.014-.063c.322-.26 1.141-1.052 1.246-1.424.05-.161-.007-.218-.007-.225l-1.043.435-.868.393C12.941.407 12.032 0 11.017 0 9.204 0 7.734 1.284 7.734 2.869c0 .287.042.82.133 1.087 0 .084 0-.084 0 0-1.169-.035-2.66-.512-3.99-1.185C1.254 1.438 1.086.512 1.086.512.672.954.462 2.406.875 3.542c.266.73 1.19 1.382 1.19 1.382s-.413.007-.84-.14C.79 4.636.63 4.496.63 4.496.37 5.12.889 6.243 1.778 7.042c.518.47 1.463.765 1.463.765l-1.477.042c-.084 1.438 3.01 2.293 3.01 2.293-.91.702-1.96 1.123-3.087 1.123A6.092 6.092 0 010 11.019c1.49 1.228 3.409 2.083 5.487 1.971 5.53-.287 8.644-5.05 8.798-9.728l.007.007s.26-.127.812-.688c.553-.554.896-1.206.896-1.206s-.826.372-1.176.47z" fill="#3FA6DB"/></svg><svg fill="none" viewBox="0 0 15 17" id="icon-viber" xmlns="http://www.w3.org/2000/svg"><path d="M3.622 15.39c0-.237-.011-.474.003-.71.013-.191-.056-.278-.23-.337A4.392 4.392 0 01.903 12.24a6.532 6.532 0 01-.74-2.332C-.076 8.063-.07 6.22.302 4.394.487 3.486.842 2.65 1.43 1.94c.425-.516.969-.855 1.552-1.124C3.966.362 5.01.16 6.075.057c.775-.076 1.551-.065 2.325-.03 1.296.06 2.556.294 3.753.857 1.163.545 1.907 1.469 2.32 2.714.298.893.435 1.816.495 2.757a18.853 18.853 0 01-.175 3.856c-.14.985-.469 1.899-1.074 2.683a4.232 4.232 0 01-1.961 1.418c-1.13.408-2.296.596-3.488.66-.622.034-1.239.004-1.857-.021a.269.269 0 00-.245.114c-.38.469-.763.936-1.148 1.4-.139.168-.284.332-.471.441-.356.208-.722.06-.854-.344-.125-.383-.058-.782-.072-1.173zm.581.947c.048-.037.065-.046.079-.062.639-.745 1.285-1.483 1.912-2.24.199-.238.397-.353.715-.338a12.145 12.145 0 004.124-.509c.58-.178 1.1-.459 1.532-.91.61-.636.929-1.429 1.067-2.3.187-1.177.257-2.362.175-3.555-.058-.833-.178-1.652-.462-2.437-.26-.72-.644-1.345-1.3-1.739a6.155 6.155 0 00-1.793-.705c-1.249-.292-2.513-.336-3.782-.265-.876.05-1.73.21-2.559.523-1.186.447-1.97 1.294-2.342 2.564a8.466 8.466 0 00-.328 2.028c-.05 1.183-.091 2.365.14 3.535.304 1.544 1.065 2.705 2.529 3.245.242.088.302.211.298.461-.014.888-.005 1.777-.005 2.704z" fill="#645CAC"/><path d="M9.756 12.079a.831.831 0 01-.356-.085c-1.277-.549-2.429-1.306-3.41-2.326C4.823 8.456 3.94 7.05 3.403 5.41c-.17-.517-.064-.927.331-1.265.179-.154.363-.303.554-.441.351-.256.704-.22.99.114.361.421.69.87.96 1.364.057.105.101.22.138.334.082.252.05.481-.15.666-.132.124-.268.244-.402.365-.164.15-.213.338-.167.562.159.762.606 1.319 1.15 1.808.324.291.68.526 1.095.651.216.066.389.01.526-.173l.24-.32c.218-.287.532-.38.841-.218.589.313 1.1.744 1.584 1.21.155.15.236.366.155.59-.213.599-.576 1.067-1.133 1.35a.703.703 0 01-.36.072zM11.08 7.436c-.035.12.062.316-.106.331-.187.017-.12-.193-.13-.3-.04-.554-.108-1.1-.336-1.605C9.942 4.609 8.994 3.93 7.68 3.815c-.067-.007-.136-.003-.203-.01-.082-.011-.177-.025-.168-.143.007-.1.092-.11.169-.114a2.41 2.41 0 01.57.05c1.627.286 2.829 1.646 2.985 3.373.014.158.032.314.046.465z" fill="#645CAC"/><path d="M10.13 7.09v.043c-.009.096.017.23-.114.236-.135.006-.127-.128-.13-.223a2.59 2.59 0 00-.097-.72c-.282-.892-.867-1.412-1.745-1.574-.1-.018-.202-.032-.301-.05-.074-.015-.134-.055-.122-.142.013-.09.082-.105.156-.098 1.064.082 1.979.718 2.268 1.914.048.2.065.408.097.613l-.012.001z" fill="#645CAC"/><path d="M8.095 5.613c.613.028 1.106.583 1.095 1.227-.001.078.001.173-.094.188-.12.02-.12-.09-.136-.17-.03-.133-.04-.271-.084-.397-.106-.317-.332-.497-.639-.57-.053-.014-.109-.015-.16-.03-.082-.022-.2-.021-.175-.156.017-.113.12-.088.193-.092z" fill="#645CAC"/></svg><svg fill="none" viewBox="0 0 16 9" id="icon-vk" xmlns="http://www.w3.org/2000/svg"><path d="M9.272 2.313v1.634c0 .146.006.3.162.381.17.09.321.01.463-.078.423-.265.706-.65.992-1.028.637-.844 1.191-1.734 1.612-2.688.15-.34.369-.504.778-.487.554.023 1.11 0 1.665.007.558.007.789.313.586.798-.459 1.09-1.156 2.055-1.878 3.005-.146.193-.28.395-.427.588-.207.273-.155.506.085.742.542.53 1.066 1.074 1.606 1.604.416.409.738.873 1.004 1.372.214.4-.017.807-.5.823-.72.025-1.442.01-2.163.001-.25-.003-.416-.143-.56-.335-.615-.814-1.386-1.49-2.22-2.107a1.235 1.235 0 00-.14-.085c-.517-.281-.768-.16-.788.391-.012.349-.001.699-.005 1.048-.006.634-.439 1.026-1.117 1.05-1.648.06-2.989-.594-4.188-1.551-1.198-.955-1.988-2.2-2.767-3.446C.882 3.006.386 2.02.072.962-.132.27.087.003.868.002c.467 0 .932.003 1.398 0 .368-.004.603.145.728.47.326.853.667 1.701 1.118 2.505.365.65.78 1.267 1.343 1.789.078.072.16.144.253.197.25.144.416.082.504-.178a.647.647 0 00.04-.212c-.012-.923.058-1.848-.061-2.77-.059-.45-.332-.798-.599-1.153-.1-.132-.246-.258-.149-.441.098-.185.295-.155.469-.155.876-.002 1.754-.003 2.63 0 .558.001.726.16.729.689.002.523 0 1.048 0 1.571h.002z" fill="#507DB4"/></svg><svg fill="none" viewBox="0 0 17 17" id="icon-whastapp" xmlns="http://www.w3.org/2000/svg"><path d="M8.507 17a8.46 8.46 0 01-4.24-1.142L.951 17l.68-3.506A8.398 8.398 0 010 8.5C0 3.812 3.812 0 8.5 0 13.188 0 17 3.812 17 8.5c.014 4.681-3.798 8.5-8.493 8.5zm-4.084-2.534l.258.163a7.184 7.184 0 003.833 1.107c3.988 0 7.236-3.248 7.236-7.236 0-3.988-3.248-7.236-7.236-7.236-3.996-.007-7.243 3.24-7.243 7.23 0 1.623.53 3.159 1.535 4.45l.177.224-.374 1.916 1.814-.618z" fill="#39D956"/><path d="M4.22 5.232s.495-.87.903-.924c.408-.048.93-.048 1.074.217.142.265.774 1.814.774 1.814s.109.265-.061.523c-.17.252-.544.626-.544.626s-.21.265 0 .55c.211.285.53.802 1.196 1.468.666.665 1.944 1.141 1.944 1.141s.183.027.298-.088c.116-.116.748-.904.748-.904s.204-.258.537-.109c.333.157 1.793.884 1.793.884s.17.06.17.319c0 .258-.102.89-.32 1.1-.21.211-.835.87-1.772.87-.938 0-3.167-.76-4.356-1.95C5.415 9.58 4.362 8.378 4.111 7.284c-.231-1.108-.197-1.604.108-2.052z" fill="#39D956"/></svg><svg fill="none" viewBox="0 0 15 16" id="icon-write" xmlns="http://www.w3.org/2000/svg"><path d="M2.687 8.925c0-.51.006-1.021-.002-1.532a.586.586 0 01.196-.462C5.229 4.666 7.575 2.402 9.916.13c.174-.168.294-.18.47-.007.742.726 1.493 1.442 2.24 2.163.357.346.707.7 1.068 1.041.308.292.315.286-.005.596C11.845 5.706 10 7.488 8.156 9.27c-.477.46-.957.919-1.43 1.384a.667.667 0 01-.506.207 170.804 170.804 0 00-3.137-.001c-.314.003-.412-.111-.401-.404.018-.509.005-1.02.005-1.53v-.002zm2.49.287c.233-.056.554.108.812-.142 1.818-1.76 3.637-3.517 5.46-5.271.146-.141.141-.24-.005-.375-.348-.324-.7-.645-1.02-.993-.206-.224-.328-.19-.531.007a478.204 478.204 0 01-5.056 4.877c-.356.337-.535.671-.499 1.16.06.81-.147.738.839.737zM7.54 11.804h7.012c.424 0 .439.014.442.417.003.271-.01.543.005.814.015.279-.098.381-.393.379-1.405-.01-2.809-.004-4.214-.004-3.292 0-6.585 0-9.877-.002-.512 0-.517-.006-.513-.516.001-.239.014-.478 0-.716-.017-.281.095-.379.39-.377 1.697.01 3.394.005 5.09.005H7.54zM5.524 14.357h5.022c.442 0 .46.014.463.432.002.271-.01.543.004.814.018.297-.116.399-.415.397-1.404-.008-2.81-.002-4.213-.002-1.933 0-3.865 0-5.797-.002C0 15.995 0 15.993.004 15.409c.002-.228.015-.457-.001-.684-.02-.288.111-.373.397-.372 1.708.009 3.416.004 5.123.004h.001z" fill="#000"/></svg></svg>